# .PCD v0.7 - Point Cloud Data file format
VERSION 0.7
FIELDS x y z
SIZE 4 4 4
TYPE F F F
COUNT 1 1 1
WIDTH 2048
HEIGHT 1
VIEWPOINT 0 0 0 1 0 0 0
POINTS 2048
DATA ascii
27.47839 -3.168462 13.21127
27.44217 -3.503157 13.18706
27.38187 -3.615605 13.14617
27.34063 -3.656097 13.24173
27.24773 -3.68208 13.88431
27.34272 -3.058348 14.10584
27.06468 -3.833968 13.88072
27.39323 -3.332644 14.41379
27.00154 -3.88337 13.90576
27.12417 -2.92261 14.0642
27.37602 -3.340478 14.63375
27.20288 -2.97182 14.32391
27.08882 -3.768493 15.1067
27.36289 -3.751867 12.43164
27.26899 -3.050425 14.70783
27.26601 -3.549742 14.94937
26.9207 -4.041205 13.49612
27.00095 -2.934031 14.59073
26.8322 -2.875088 12.66214
26.93277 -3.994475 14.91386
27.41956 -3.743595 12.03109
27.23026 -3.041588 14.94742
26.70682 -2.932798 12.96136
26.86651 -4.223258 13.92633
27.57383 -3.530418 11.62064
26.79895 -2.935537 14.12494
26.63786 -2.965713 12.84245
26.87131 -4.1268 14.68128
27.27954 -4.040162 11.52995
26.81912 -2.968109 15.1163
26.7352 -2.899372 11.4864
27.27778 -3.408082 15.77984
26.8962 -4.27188 13.74142
27.50809 -3.725349 11.38917
27.01334 -2.992508 15.75184
26.89988 -2.818493 11.25406
27.03558 -3.771491 16.32837
26.82137 -4.51449 14.11805
27.55918 -3.643376 11.2563
27.23151 -3.122351 15.84394
26.64206 -2.964617 11.18361
26.42387 -3.09211 12.9282
26.84219 -4.315804 14.78042
27.17288 -4.246802 11.34009
26.68123 -3.019423 15.60764
26.4249 -3.082418 14.02227
26.70049 -2.921765 11.13948
26.40927 -3.107974 12.67282
26.88184 -4.31516 15.30069
27.19531 -4.277319 11.14557
26.62706 -3.063013 16.3479
26.48491 -3.097759 16.26883
26.96426 -2.792365 10.76348
27.0132 -3.833857 16.58016
26.85681 -4.472886 14.84144
27.13966 -4.367243 11.19619
26.53234 -3.093972 16.50484
26.24074 -3.156528 14.27229
26.59806 -3.015445 10.62016
26.35258 -3.162158 12.22495
27.23869 -3.238268 16.49156
26.97288 -4.720279 13.50643
27.3451 -4.143362 10.67694
27.4791 -2.912939 10.66326
27.16815 -3.112155 16.53962
26.32221 -3.159788 16.98323
26.18462 -3.304827 11.60849
27.00522 -3.857431 16.74049
26.93431 -4.583812 15.03358
26.9994 -4.657128 11.32306
27.65173 -3.351769 10.63026
26.46022 -3.129427 16.97556
26.20305 -3.16795 15.4744
26.27513 -3.357038 9.952121
26.05939 -3.241055 13.52111
27.11103 -4.636477 15.38544
26.83019 -4.62925 12.42613
27.37989 -4.269793 9.826378
27.64125 -3.48997 10.61446
26.5381 -3.132371 17.44942
25.9449 -3.256833 13.68649
26.51147 -3.129273 10.01294
26.01763 -3.379653 11.60888
27.13279 -3.564055 17.52499
26.84563 -4.912509 13.14642
27.12274 -4.569492 10.67321
27.57379 -3.846006 9.936634
27.57039 -2.979146 10.041
27.07341 -3.116508 17.2582
26.05695 -3.202626 16.57881
26.62239 -3.012856 9.965096
25.98217 -3.461765 10.31162
27.19296 -3.358298 17.58142
26.63118 -4.561998 13.7424
27.57795 -3.966882 9.393044
27.61448 -3.779113 9.752211
26.26072 -3.198777 18.39875
26.84158 -3.128051 17.84358
25.80774 -3.29189 13.35709
26.31812 -3.391239 9.083516
25.87862 -3.446679 10.86273
27.22218 -4.477191 16.17197
26.75276 -5.027767 12.48377
27.63718 -3.987921 8.727554
27.65251 -3.584234 9.968512
26.38331 -3.206034 18.79645
25.88156 -3.234652 14.44912
25.95672 -3.211528 17.62561
26.08825 -3.521381 8.953494
25.82383 -3.319683 12.9326
27.33648 -4.77734 15.2339
26.76889 -4.975248 11.36831
27.68199 -3.765366 9.076504
27.68832 -3.353483 9.744579
26.2593 -3.207192 18.74755
26.86363 -3.172463 18.38906
25.67457 -3.265331 13.77344
25.72167 -3.215181 18.0836
26.42732 -3.360141 8.248617
25.93318 -3.52794 9.238933
25.69491 -3.339693 12.53852
26.58987 -4.868937 14.09573
26.86053 -4.861712 10.41425
27.3791 -4.437544 8.97403
26.96685 -2.76894 9.172504
26.05201 -3.212636 18.77937
25.64326 -3.256651 13.93424
25.72099 -3.228987 16.11249
26.65306 -3.035785 8.698457
25.79176 -3.537402 8.821929
25.65925 -3.310076 12.89042
26.66896 -4.780506 14.30605
26.80407 -4.884577 10.50738
27.73745 -3.59428 8.847445
27.71266 -3.372241 9.410318
27.06992 -2.726774 8.69777
25.14995 -3.221329 18.63728
25.55955 -3.222228 19.2829
27.02938 -3.231696 19.11348
25.60929 -3.219715 17.69918
25.29403 -3.215709 17.92451
26.51392 -3.26765 8.157785
26.04027 -3.557126 8.538872
25.53549 -3.367763 10.5575
27.30038 -4.435023 16.03306
26.53256 -5.219481 12.60865
27.69611 -4.050401 7.788905
27.77754 -3.546772 8.428972
27.6197 -2.933586 8.683703
25.30949 -3.223663 19.31079
24.98549 -3.220764 18.45815
26.99567 -3.259052 19.27167
25.55428 -3.224133 16.27335
25.16021 -3.215198 17.92352
26.15456 -3.571161 7.854208
25.52671 -3.371065 10.0292
27.14931 -4.086029 17.14527
26.4351 -5.146163 13.23978
26.90612 -4.819606 10.14041
27.78099 -3.632941 8.259325
27.71005 -3.172835 9.036169
25.40499 -3.226342 19.38943
25.59603 -3.23598 19.47705
27.18164 -3.270169 18.88726
25.4836 -3.222692 15.31456
25.36688 -3.214394 17.23449
24.78433 -3.209731 17.37009
26.49913 -3.359868 7.327559
25.42733 -3.292846 10.65001
27.29002 -3.623977 18.34085
26.27342 -4.653014 13.9899
26.665 -4.860465 10.28454
27.74743 -3.330217 8.822737
27.67657 -3.03759 8.66514
24.12208 -3.231595 18.49004
24.02637 -3.225232 19.04082
26.28373 -3.372818 19.69009
25.11213 -3.189057 15.08321
25.39365 -3.215267 16.79356
25.35407 -3.227488 12.69719
24.75322 -3.189526 15.95899
26.81913 -2.866183 8.326892
26.39296 -3.493393 7.056925
25.52237 -3.380075 9.234872
25.25028 -3.163699 11.4079
27.41559 -4.809343 15.09558
26.2468 -5.066593 12.21593
27.67958 -4.176607 7.218046
27.83853 -3.583226 7.469353
27.6728 -2.967236 8.237938
23.7027 -3.241513 18.02342
23.59433 -3.224035 19.06313
24.60451 -3.224988 19.39775
26.59262 -3.419613 19.66424
24.98237 -3.186846 15.64678
25.20322 -3.154827 12.39653
24.73398 -3.21612 17.76808
26.55562 -3.323453 6.864679
25.78253 -3.582834 7.685842
25.28445 -3.187154 11.24327
25.28981 -3.193179 12.03398
27.07828 -4.093869 16.27093
26.18975 -5.077329 12.5125
26.93024 -4.742961 9.267076
27.88914 -3.5513 6.526007
27.16748 -4.607425 8.031475
27.36551 -2.712234 8.040847
23.3767 -3.244569 17.89497
23.97152 -3.238237 17.82648
24.33445 -3.22585 19.46808
24.25615 -3.231439 17.55585
27.45629 -3.401878 19.41337
25.10866 -3.167048 13.71524
24.66509 -3.184367 15.39962
26.61654 -3.247678 6.613334
25.70048 -3.53573 7.982261
25.3147 -3.177954 8.776777
25.19622 -3.140927 11.92714
26.53377 -4.459768 14.56328
26.20742 -4.937308 12.08657
26.98199 -4.649997 8.483303
27.90093 -3.473953 6.366932
27.45222 -2.744426 7.89945
23.44785 -3.265133 17.28096
23.28082 -3.247388 17.80072
23.24713 -3.233496 18.46964
22.61581 -3.234379 18.56767
22.3622 -3.226337 19.23478
24.42102 -3.220715 17.14406
26.97046 -3.675979 19.64785
25.04152 -3.123738 13.06958
24.42805 -3.212972 16.55068
26.62855 -3.225618 6.627286
26.00626 -3.649374 6.900781
25.14222 -3.081641 11.09495
25.07981 -3.083609 11.96895
27.19583 -5.19454 14.77383
26.19066 -4.8641 12.10991
27.69286 -4.195736 6.460959
27.89156 -3.329969 6.509556
27.24346 -4.529498 7.239828
23.46862 -3.275495 16.88473
23.22777 -3.280954 16.63701
22.51368 -3.234996 18.74006
23.99451 -3.233496 19.68796
23.08051 -3.228312 19.42253
26.25644 -3.757836 19.83187
27.54777 -3.462409 19.44617
24.59725 -3.169165 14.45333
26.65698 -3.199205 6.315455
25.92145 -3.672637 6.415738
25.30902 -3.159821 7.758915
25.05375 -3.043046 11.35497
27.16514 -3.806892 16.25402
26.26971 -5.095051 14.01198
26.41516 -4.629689 10.45112
27.80508 -3.977741 6.038182
27.92007 -3.271691 5.643561
27.31177 -4.510076 7.062786
27.21559 -2.676337 7.280581
23.56709 -3.275819 16.70506
22.67934 -3.23733 17.77731
21.92303 -3.236784 18.96812
23.12529 -3.230661 19.57538
26.27284 -3.882609 19.79963
27.66862 -3.589098 19.47935
24.84746 -3.14768 13.92646
24.37313 -3.212152 16.20505
26.68421 -3.153729 6.272736
26.25836 -3.674891 5.73372
25.60599 -3.52065 6.909378
24.96161 -2.938995 10.26712
24.99042 -3.019604 11.50052
27.32526 -3.628595 16.39522
26.08535 -4.873754 13.08212
26.45695 -4.519763 10.09991
27.90772 -3.619635 5.303992
27.90759 -3.093455 5.103187
27.71628 -2.957799 7.394079
27.2145 -2.675248 7.243014
23.04737 -3.252538 17.29769
22.35663 -3.232709 18.27139
21.58218 -3.239018 18.93448
25.80974 -3.929566 19.82283
24.79089 -3.09114 13.09979
24.14733 -3.22303 15.41953
26.73673 -3.062765 6.022323
26.3187 -3.668205 5.334872
25.80194 -3.670797 5.803086
25.24591 -3.049763 6.775984
24.93087 -2.877509 9.453857
24.97053 -2.872854 9.000051
27.59217 -3.444216 18.29852
27.03901 -4.877754 14.98986
26.24582 -4.615166 11.79571
26.77739 -4.496809 8.381171
27.95657 -3.112617 3.777251
27.77145 -2.97244 6.540922
27.36677 -2.674812 7.061572
23.51554 -3.292794 16.06729
22.25462 -3.236811 17.68124
20.83541 -3.235868 19.15705
20.8556 -3.23474 19.35475
25.35036 -3.921271 19.86571
24.7943 -3.112037 13.38304
24.69371 -3.122151 13.53212
24.07274 -3.22622 14.90908
26.81386 -2.931396 6.006044
26.61726 -3.477297 4.068306
26.09688 -3.716195 5.715541
25.27856 -3.089905 6.353088
25.15897 -2.907604 6.358332
24.90314 -2.876646 9.66318
24.68145 -2.88533 10.48242
27.28731 -5.091483 15.16968
26.08156 -4.847157 13.28699
26.42748 -4.476217 10.34656
27.87719 -3.767231 5.01677
27.94321 -2.993938 3.698047
27.23201 -4.424093 6.209478
24.6794 -3.509131 20.06187
22.94837 -3.264552 16.12569
21.34199 -3.241803 18.689
22.48397 -3.198744 19.55268
25.60151 -4.034552 19.65763
27.76783 -3.510998 19.24905
24.50474 -2.936755 11.07952
24.04377 -3.222056 14.12361
26.71638 -3.157101 5.224789
26.10652 -3.770505 4.7883
25.53007 -3.49867 5.565567
25.24556 -3.007138 5.575565
24.66887 -2.860678 10.13195
27.72725 -3.424173 17.6393
26.54689 -4.589811 15.09287
26.2358 -4.51614 12.51638
26.60082 -4.246823 8.957917
27.86411 -3.772013 4.493796
27.96418 -3.120834 2.910589
27.75016 -2.896981 6.125063
27.59993 -2.772646 6.75348
23.45342 -3.318428 14.99845
21.85039 -3.251641 17.90268
19.9548 -3.237739 19.34044
23.74402 -3.266258 15.12956
26.96318 -4.061298 19.16566
24.59623 -2.976997 11.71817
24.30056 -3.173916 13.72165
26.85882 -2.873411 5.620214
26.71537 -3.264755 4.15194
26.3326 -3.732336 4.386918
25.33611 -3.187253 5.40058
25.2355 -2.950692 4.660832
25.09268 -2.780335 5.496379
24.62101 -2.782913 8.93316
24.90996 -2.71149 6.65152
27.65883 -3.347783 16.60484
26.17241 -4.585639 13.32222
26.37845 -4.383047 10.95974
26.77366 -4.332768 7.919773
27.89062 -3.61294 3.652587
27.87626 -2.808125 3.617826
27.1082 -4.373462 6.131133
24.7657 -3.97275 19.78672
22.63809 -3.198655 17.03641
20.58385 -3.255246 18.80703
24.85312 -3.990066 19.72662
27.88319 -3.633486 19.10621
24.41241 -2.940934 10.81529
23.51972 -3.296015 14.55954
26.77849 -3.058414 4.452777
26.08033 -3.797743 4.280663
25.39972 -3.313226 5.063194
25.32768 -3.160955 4.886277
24.99415 -2.652203 4.668311
24.61228 -2.743755 8.27593
24.69058 -2.701638 7.588637
27.79753 -3.433137 18.13136
27.47254 -5.161942 15.34166
26.2437 -4.433218 13.07813
26.40572 -4.185844 11.22114
26.81484 -4.245633 7.260586
27.90026 -3.534951 3.218973
27.94479 -2.838442 2.596086
27.45931 -2.654462 6.056623
26.82916 -4.229235 7.052778
23.11329 -3.33182 15.22849
22.52257 -3.190019 17.15876
19.72369 -3.240809 19.21245
22.66958 -3.198283 19.67453
26.35186 -4.128611 19.11266
24.43357 -3.010854 11.80716
24.1895 -3.14814 12.80731
23.64251 -3.276758 13.62968
26.73857 -3.251063 3.684943
26.29625 -3.821836 3.340531
25.4438 -3.391128 5.043619
25.22581 -2.8805 2.792458
24.84667 -2.626961 5.722539
24.51365 -2.762282 8.400473
24.74145 -2.626645 6.186781
27.68617 -5.244544 15.39036
26.23701 -4.396652 13.54252
26.48116 -4.187917 10.14812
27.77591 -3.918664 4.206504
27.85441 -3.598078 2.89484
27.88464 -2.735313 2.959347
26.94716 -4.275408 6.336039
23.0122 -3.332323 14.95254
22.54856 -3.19079 16.32725
21.09214 -3.234652 18.36096
20.11805 -3.250792 18.90456
21.81552 -3.221098 19.6939
26.65708 -4.200937 18.833
24.15607 -3.059875 11.18064
24.21283 -2.984598 10.28108
23.98227 -3.219077 13.38792
26.90877 -2.810515 4.776468
26.54864 -3.756222 2.399687
25.51592 -3.512605 4.344141
25.25159 -2.927164 2.553499
24.97293 -2.595197 3.789799
24.75565 -2.582779 5.298403
27.94806 -3.257369 17.91231
27.42933 -4.800503 15.82724
26.34202 -4.174598 12.42305
26.50306 -3.93678 9.570546
27.7733 -3.878549 3.892095
27.97623 -2.89581 1.872432
27.56643 -2.667058 5.216872
27.43726 -4.273056 4.745251
22.67426 -3.255402 15.28623
21.86262 -3.328401 17.1752
20.64918 -3.235009 18.43027
19.38692 -3.211962 19.69702
25.34126 -4.086831 19.30178
26.83465 -4.155797 18.83676
24.18051 -3.035496 10.94648
24.09515 -3.163323 12.56342
23.21912 -3.319421 13.93953
26.82222 -3.048752 3.103481
26.59843 -3.696186 2.43919
26.13666 -3.867266 3.031234
25.44761 -3.407687 3.602146
25.34396 -3.169082 3.063361
24.82478 -2.481006 2.605912
24.3388 -2.761023 7.569624
24.5654 -2.596056 5.78206
28.1149 -3.489422 18.561
26.64118 -4.691285 15.57794
26.33311 -4.146634 12.6167
26.59437 -3.899526 7.966681
27.83463 -3.510249 2.078315
27.70783 -2.61539 3.342649
26.74371 -4.032695 6.374262
26.65569 -3.939993 7.115153
23.23064 -3.343021 14.71105
21.68254 -3.341455 17.04248
19.31849 -3.223604 19.67446
24.55158 -4.106737 19.14504
27.52338 -4.2226 18.8099
24.21085 -2.874123 8.432187
23.99402 -3.179792 12.21352
23.06762 -3.329059 14.30412
26.82028 -3.026011 3.362174
26.707 -3.621387 1.838542
25.77026 -3.761265 3.28472
25.51226 -3.524901 3.181753
24.97703 -2.55003 1.999129
24.75173 -2.481311 3.20041
24.48752 -2.576981 5.274544
28.09901 -3.117697 17.53799
27.24024 -4.610162 15.88891
26.30453 -4.145201 13.28678
26.48201 -3.908169 9.800511
27.77014 -3.669185 2.452811
27.61839 -2.605856 3.811701
26.9678 -4.239204 5.512192
24.50809 -3.523059 20.20308
22.16865 -3.258027 16.48871
21.37903 -3.259103 17.4961
20.07568 -3.226701 18.63374
18.87107 -3.26181 19.52884
24.81984 -4.09965 18.83461
27.42636 -4.361201 18.45784
23.88288 -3.190062 10.89186
24.0414 -3.018432 9.139679
23.46399 -3.323756 12.67759
23.03416 -3.329187 14.26355
26.98221 -2.718223 4.177932
26.06943 -3.892801 2.377585
25.43662 -3.404463 2.798748
25.34924 -3.206987 1.954697
24.37175 -2.543182 4.096333
24.36688 -2.575252 4.622
27.8212 -3.714313 18.56281
26.62211 -4.761818 15.59682
26.28453 -4.139473 13.60916
26.45268 -3.768234 8.763513
27.72658 -3.797278 2.924201
27.5559 -2.575189 3.733395
26.94875 -4.22966 5.647667
24.25345 -3.388605 20.20959
22.37027 -3.247145 15.06748
21.88436 -3.34693 16.87038
20.42423 -3.248929 18.0308
19.56454 -3.239611 18.80203
18.8037 -3.255855 19.32541
24.59051 -4.096071 18.76282
26.30415 -4.136878 18.57292
23.82521 -3.227257 11.37011
23.949 -3.07758 9.022322
23.00873 -3.360463 13.05355
27.07023 -2.649847 4.449367
26.80846 -3.367087 1.81924
25.74694 -3.776213 2.539555
25.30124 -2.982663 1.586247
24.16535 -2.795003 6.653858
24.40586 -2.474245 2.751164
28.26767 -3.34361 18.0515
27.61517 -4.910596 16.07813
26.2083 -4.42603 14.46103
26.32804 -3.802614 11.29108
27.54792 -4.052879 3.518831
27.82946 -2.480346 1.675525
27.31426 -2.586668 5.01608
27.30898 -4.256376 4.326426
22.4843 -3.32901 13.92949
22.00121 -3.316281 16.12848
21.14539 -3.248534 17.50947
19.43419 -3.250419 18.50462
19.10411 -3.26332 19.70436
18.1714 -3.277773 19.53731
24.25805 -4.09648 18.45254
25.27671 -4.076699 18.0382
27.84334 -4.343274 18.36153
24.03956 -2.941812 7.674528
23.83188 -3.163048 9.132517
22.90754 -3.366024 12.97112
26.90158 -2.850011 2.82001
26.23106 -3.915271 1.928636
25.52781 -3.576175 2.379786
24.72005 -2.42527 1.82622
24.34548 -2.481738 2.493744
28.30145 -3.314292 17.95406
27.74448 -5.027336 16.20923
26.22922 -4.382011 15.08157
26.35091 -3.715541 9.663857
27.94697 -3.253134 1.432747
27.92001 -2.577508 1.487037
27.12706 -2.61415 4.338212
27.20671 -4.200222 3.730201
24.3621 -4.112675 19.55578
21.91436 -3.337441 16.48983
21.53118 -3.312953 16.27158
20.67178 -3.270068 17.01766
19.30363 -3.257339 18.29556
19.05977 -3.282006 19.76618
17.71468 -3.252965 18.98244
26.04369 -4.041402 18.63601
24.62127 -4.116054 18.41837
25.81359 -3.96075 18.02288
26.83734 -4.320483 18.24494
23.74191 -3.263526 10.7727
23.73477 -3.223514 8.886089
22.99287 -3.394062 12.36976
26.94319 -2.786865 2.368546
25.43335 -3.398285 1.764067
24.02105 -2.911071 6.894987
24.13981 -2.614094 3.284534
28.25937 -2.976413 17.14293
26.46818 -4.985728 15.60341
26.26452 -4.04459 14.14659
26.28002 -3.655787 9.372418
27.65826 -3.591636 1.143664
27.39654 -2.480873 2.680778
26.89485 -4.175025 4.82262
26.31179 -3.751214 6.440101
21.85319 -3.344784 14.86665
21.45307 -3.29804 16.19742
20.51066 -3.277235 16.97525
19.45284 -3.258884 17.9553
18.58904 -3.327907 19.83308
18.08904 -3.252271 19.01877
23.94332 -4.118617 18.87016
24.55522 -4.159995 17.67079
25.71269 -4.005178 18.24476
26.0099 -3.928358 17.7587
27.73583 -3.970506 18.33556
23.74158 -3.193634 7.957127
23.54317 -3.359917 9.740012
22.8508 -3.413237 12.16461
22.25023 -3.338763 13.63443
26.84503 -3.164876 1.522349
25.17759 -2.711311 1.293545
23.88911 -3.010692 6.714207
24.02342 -2.640415 2.27504
24.02971 -2.661538 2.729722
28.32334 -2.99501 17.13434
26.3583 -4.943299 15.65943
26.18255 -3.842328 13.85757
26.21374 -3.636283 8.506386
27.51037 -3.888198 2.34203
27.15244 -2.571231 3.426686
26.94534 -4.198258 4.347777
24.22014 -4.126203 19.50914
22.21234 -3.330589 13.95594
21.71726 -3.346509 14.79477
20.91049 -3.255169 16.82073
20.19305 -3.261671 17.23701
18.81054 -3.255073 18.67589
17.78437 -3.248173 18.73507
17.81141 -3.267742 19.37481
23.88487 -4.111401 18.2369
24.68789 -4.179249 17.33067
26.15775 -3.983625 17.67243
27.82406 -4.231595 18.29109
23.64282 -3.218099 6.62745
23.46858 -3.397149 9.25853
23.15554 -3.447082 11.30556
22.55434 -3.385941 12.59666
22.44033 -3.34813 13.3936
26.83916 -3.372924 1.27062
25.47471 -3.504112 1.625111
23.85773 -2.987798 5.784081
23.94637 -2.781326 3.613361
23.93928 -2.740238 2.817666
27.99413 -3.531648 17.96679
26.68693 -4.881108 16.06029
26.17209 -3.785646 13.02692
26.11332 -3.605609 10.30613
27.5118 -3.738117 1.334253
27.12056 -2.577056 2.82329
26.78844 -4.134176 3.542605
26.22109 -3.834781 5.060937
21.31391 -3.350614 13.45453
21.2783 -3.350791 13.45577
21.42044 -3.345859 13.64266
21.38589 -3.318242 14.80583
20.59912 -3.286738 16.15483
20.07736 -3.250525 17.01974
18.68509 -3.252803 18.6243
17.41151 -3.243758 18.68569
18.0775 -3.234946 18.21332
25.87235 -3.868634 17.19964
23.79831 -4.135063 17.3757
24.6808 -4.192099 17.12673
25.40952 -4.009471 17.04531
27.39246 -4.451843 17.91333
23.58764 -3.281537 7.079262
23.37874 -3.437178 9.30726
22.56688 -3.389523 12.5265
22.53425 -3.406481 12.22016
26.84392 -3.266372 1.334985
23.60409 -3.133725 4.013074
23.73669 -3.063606 5.114756
23.79666 -2.80672 1.828555
23.63701 -2.955389 1.792815
23.7997 -2.945356 4.074172
28.0647 -4.827016 16.33228
26.26768 -4.153541 15.44676
26.16508 -3.841302 14.25411
26.16121 -3.648813 7.832472
27.34314 -3.97138 2.315007
27.28777 -2.463208 1.869947
26.86177 -4.160265 3.839645
26.13129 -3.807195 5.218851
21.33037 -3.340082 13.88955
21.33196 -3.299257 15.30686
21.2084 -3.271095 15.83849
20.74037 -3.291929 15.56319
19.26147 -3.28394 17.57839
18.29197 -3.243889 18.44831
17.8264 -3.223142 17.67087
17.11493 -3.26162 19.21924
17.54563 -3.345843 19.71877
23.10299 -4.133275 17.54886
24.41269 -4.178987 17.2965
25.62077 -3.895653 16.55327
26.15228 -3.943743 17.31682
27.86496 -4.545201 17.95446
23.5225 -3.348357 7.827755
22.61732 -3.435107 11.81409
22.05435 -3.382957 12.28588
26.88715 -3.001117 1.284717
23.50314 -3.255229 4.891055
23.70405 -2.985023 3.218176
28.13951 -3.493236 17.68266
27.63138 -4.788013 16.7126
26.23334 -4.548486 15.90947
25.91028 -3.588704 10.71941
26.00968 -3.658961 7.539271
27.16728 -4.035841 2.37541
26.22385 -3.903457 4.258748
27.05918 -4.124582 2.942862
23.83791 -4.096682 19.57182
20.82867 -3.336285 14.20362
21.36749 -3.377317 12.23372
21.29283 -3.323131 14.36963
20.54493 -3.297399 15.66756
20.71747 -3.298486 15.35586
18.96185 -3.309378 17.31223
18.31266 -3.630109 20.01244
18.11809 -3.208291 17.51866
16.98507 -3.223206 18.61884
17.57401 -3.431611 19.84023
22.8104 -4.119741 17.89066
23.92943 -4.139275 17.25763
24.32195 -4.205294 16.77325
25.55255 -3.901223 16.18461
27.2099 -4.329541 17.86147
23.46432 -3.313383 5.568294
23.39308 -3.414859 7.123344
23.29165 -3.479274 7.605354
22.46381 -3.469099 11.02499
22.73485 -3.541118 9.896188
21.66888 -3.386759 11.66254
23.49349 -3.190353 3.298543
23.50591 -3.157674 2.986744
28.52887 -3.481234 17.38181
26.34337 -4.83719 15.97946
25.93046 -3.690817 13.15902
25.97026 -3.585279 9.409036
25.71433 -3.66525 7.398936
26.45408 -3.978731 4.242501
27.04797 -4.054864 2.336311
23.35325 -4.127533 18.90027
20.75851 -3.337087 14.22176
20.96249 -3.316634 14.63368
21.28523 -3.390519 11.62057
20.74568 -3.361017 13.46485
20.47421 -3.307519 15.3415
19.74529 -3.254047 16.62096
19.27085 -3.303852 17.3007
18.54589 -3.709886 20.03905
18.19161 -3.182567 16.90974
17.02074 -3.209099 18.37304
16.60408 -3.376208 19.6039
21.82782 -4.120252 17.73589
22.58312 -4.128651 17.53186
23.20093 -4.160611 17.08833
24.58791 -4.256438 15.93936
25.45335 -3.951418 16.29964
26.17021 -3.905726 16.76079
22.9685 -3.541246 9.657068
23.08895 -3.536082 9.014564
22.01818 -3.404732 11.5604
22.79812 -3.567667 9.206575
26.98827 -2.684246 1.396936
23.40665 -3.306411 4.097054
23.84348 -2.721618 1.535568
27.6788 -4.826425 16.92974
26.1343 -3.838814 15.45804
25.96695 -3.728925 13.94534
25.79904 -3.630799 8.128751
27.53427 -2.333948 1.211177
26.31553 -3.974301 3.647769
25.65449 -3.710121 6.023116
20.15251 -3.331024 14.77308
21.44406 -3.403626 10.40142
20.61864 -3.393253 12.80423
20.09438 -3.30642 15.33882
19.6226 -3.267988 16.77644
18.53401 -3.893391 20.04914
17.14911 -3.535926 19.80318
17.43471 -3.218166 16.91474
17.63091 -3.205425 16.33448
16.71289 -3.175324 18.39631
26.04891 -3.822043 16.33962
21.83594 -4.121433 17.66492
22.79304 -4.137346 17.26202
23.44978 -4.159581 16.92812
24.31505 -4.244445 16.09353
25.54367 -3.893882 15.94214
26.37333 -4.35466 17.5534
23.27022 -3.450587 5.820512
22.89909 -3.583214 8.471401
22.18513 -3.447577 10.84202
21.97499 -3.428305 10.73753
23.24345 -3.429273 4.573489
27.63529 -3.752254 17.49408
26.74793 -4.794512 16.50579
26.29256 -4.654956 16.21345
25.74947 -3.622029 11.34248
25.52177 -3.669044 7.442092
25.81793 -3.851993 2.958314
26.13677 -3.927151 3.516887
26.51944 -4.053958 2.629702
25.81485 -3.768991 4.981021
19.79517 -3.345186 14.77741
21.41013 -3.406064 10.26921
20.64707 -3.365849 13.41919
20.22384 -3.358099 13.9217
19.62673 -3.306869 16.05217
18.76632 -3.950683 20.08728
17.41128 -3.682155 19.86112
17.42492 -3.201265 16.04362
18.01031 -3.168199 16.18433
17.61008 -3.201856 16.10547
16.60853 -3.19973 18.60755
25.98744 -3.783802 15.80027
21.66183 -4.126555 16.78529
22.20901 -4.145612 16.55833
24.00335 -4.167903 16.51294
24.17006 -4.228185 15.93858
24.71451 -4.226129 15.32807
25.16943 -4.057749 15.69193
25.63711 -3.808431 14.94843
27.91593 -4.47625 17.63507
23.08612 -3.534718 5.554562
23.02239 -3.569795 8.043678
22.47173 -3.568624 8.809064
23.23397 -3.323542 2.078483
23.76547 -2.791205 1.582643
27.43478 -4.491237 17.06499
25.71673 -3.667282 12.30681
25.83899 -3.764914 15.32846
25.64841 -3.63903 8.35311
27.34043 -2.38387 1.234373
25.59568 -3.785141 2.947598
26.60123 -4.060106 2.48324
25.74862 -3.760526 4.746333
19.77881 -3.350132 14.43999
21.60576 -3.419352 9.883492
21.42814 -3.411765 9.992111
20.97732 -3.400558 11.92881
20.27166 -3.365992 13.66491
19.28975 -3.343691 16.69693
17.92972 -3.909783 19.85094
17.21538 -3.187441 16.74519
18.21848 -3.162325 16.30476
17.8686 -3.167938 15.69721
16.71376 -3.115088 17.83413
25.75586 -3.771558 14.94675
21.79897 -4.131207 16.65737
22.0967 -4.143267 16.53874
23.50058 -4.169465 16.34729
24.39913 -4.286417 15.25397
25.13115 -4.049225 14.91551
25.46608 -3.866947 14.54564
27.02243 -4.448821 17.49759
22.95478 -3.595296 6.647055
22.93624 -3.59394 7.532876
22.17985 -3.472531 10.24518
22.99189 -3.534787 3.240288
27.89423 -3.471221 17.28569
27.6448 -4.759349 17.22353
25.74008 -3.712572 13.43636
25.67915 -3.616112 10.39955
25.3692 -3.68616 7.429102
25.59503 -3.840415 1.813646
26.20115 -3.984801 1.849345
25.53567 -3.715746 4.804789
21.84126 -3.43176 10.0984
21.61383 -3.435194 9.378013
21.09303 -3.451688 9.344839
20.9039 -3.40925 11.80022
20.2435 -3.374294 13.51681
19.30444 -3.349419 16.46213
18.37935 -3.168442 16.12461
16.9658 -3.919366 19.67767
17.01223 -3.122818 16.19445
18.27962 -3.144127 15.38622
17.50454 -3.188845 15.36876
15.87097 -3.416736 19.4569
21.35643 -4.12744 16.74489
21.26498 -4.11941 17.53651
22.00094 -4.143939 16.36549
22.63772 -4.189322 15.52386
23.62056 -4.180773 15.75419
24.25663 -4.284427 15.09968
25.24916 -3.970418 14.39602
25.38391 -3.876343 13.87346
27.5674 -4.678617 17.35335
22.9037 -3.595409 5.302428
22.41875 -3.600831 7.839152
22.02717 -3.457892 10.06741
23.35863 -3.159621 1.427273
22.97349 -3.553643 3.995069
27.81266 -4.298646 16.37099
25.5384 -3.711691 11.98706
25.59027 -3.637463 8.823764
25.32886 -3.687593 5.49818
25.46545 -3.721442 3.846208
25.60515 -3.84671 1.745978
25.48672 -3.719429 4.016199
19.54825 -3.348334 14.91816
21.32862 -3.486711 7.758275
20.92323 -3.453133 10.0819
20.78636 -3.442616 11.11787
20.43058 -3.460573 11.58491
19.91542 -3.400089 13.14585
19.01147 -3.324248 16.06302
18.43809 -3.167838 15.58998
16.40124 -3.875838 19.62244
16.84364 -3.049665 15.75708
16.94352 -3.110238 16.67943
17.74406 -3.144277 14.26858
16.17133 -3.304674 18.93142
20.37509 -4.11237 18.15345
21.00268 -4.122163 17.20653
21.93785 -4.146811 15.84101
22.53701 -4.204314 14.76839
23.87845 -4.21862 15.39698
24.95236 -4.110067 14.1341
25.63172 -3.766947 13.91966
22.70207 -3.643801 6.43611
22.73867 -3.618015 7.55911
21.9827 -3.500162 8.720637
22.32087 -3.609917 7.30511
22.89201 -3.585634 3.628979
27.77711 -4.280313 17.43285
26.60682 -4.729709 16.76738
25.43393 -3.711863 10.74574
25.28142 -3.686733 5.301132
25.10778 -3.712684 5.400836
25.46322 -3.804246 1.934397
26.37461 -3.997743 1.538647
19.36304 -3.339284 14.79915
21.27125 -3.508341 7.268907
20.99994 -3.492239 8.544976
20.34606 -3.496593 11.13572
20.11309 -3.441903 12.33106
19.25743 -3.344893 15.29506
18.58123 -3.192674 15.34453
18.66874 -4.070832 19.38579
17.05686 -4.036232 19.45686
17.14119 -3.142681 14.77368
17.48636 -3.176057 14.18315
17.66635 -3.152593 13.94543
15.81081 -3.374606 19.30053
20.19602 -4.110581 17.84087
20.66504 -4.119415 17.2639
20.71389 -4.12145 17.12677
22.27898 -4.183961 15.04399
22.42479 -4.196757 14.82055
22.91394 -4.211651 15.3306
24.05286 -4.262064 15.1237
24.79344 -4.178284 13.56362
27.98226 -4.603508 17.23271
22.15552 -3.586959 7.226297
22.11302 -3.55622 7.848041
23.15781 -3.314183 1.291532
22.75306 -3.602596 2.258295
25.39412 -3.757869 11.44687
25.34487 -3.700821 8.460753
25.13915 -3.759834 7.722225
25.37463 -3.706845 3.828764
22.47567 -4.192402 18.67337
19.28549 -3.331744 14.72813
21.20463 -3.522964 7.071707
20.99778 -3.511307 8.044682
20.19355 -3.481975 11.56575
19.78369 -3.439807 12.39987
19.34634 -4.098943 19.67498
18.61885 -4.084251 19.12198
19.21732 -4.194744 19.25667
16.79572 -3.018146 14.73701
18.26297 -3.097487 14.1433
16.61315 -3.010571 16.68954
20.36622 -4.115798 17.43606
20.13594 -4.116992 18.33221
20.50389 -4.123749 16.84512
23.27077 -4.244663 14.70388
22.74125 -4.234593 14.2041
24.32215 -4.292913 14.20172
25.2795 -3.892955 12.9619
22.57903 -3.655598 5.619235
22.08942 -3.626345 6.042139
22.45946 -3.642384 6.738137
22.70759 -3.624647 2.344034
27.60467 -4.010701 16.64901
25.29577 -3.741202 9.364297
25.24538 -3.688657 4.761789
24.89491 -3.798941 5.360588
25.27994 -3.732546 2.790134
22.21802 -4.217196 18.2902
21.90643 -3.55304 7.082315
21.40413 -3.56698 6.061252
21.9077 -3.586685 6.361828
20.8657 -3.535681 8.027806
20.79186 -3.500977 9.311534
20.34571 -3.532661 10.53913
20.07661 -3.534109 10.95105
19.04638 -3.297431 14.75652
18.74176 -3.221328 14.86341
18.39002 -3.113195 14.18186
18.76336 -4.097001 18.47091
17.5658 -4.070935 18.92503
19.00617 -4.095331 19.18888
16.91521 -3.064752 14.54078
18.34344 -3.064487 13.58939
16.37778 -3.143764 17.35161
20.2562 -4.115501 17.31297
21.63342 -4.120951 15.5985
20.6035 -4.133391 16.16731
23.40094 -4.219795 15.17834
23.04409 -4.272857 13.95987
23.56489 -4.219749 15.14827
24.13306 -4.301038 14.30662
25.13882 -3.9668 12.67688
22.4632 -3.664849 5.507676
22.90125 -3.48921 1.58673
22.57308 -3.652338 4.390028
25.17659 -3.826215 9.876551
25.01988 -3.81292 7.408047
24.92572 -3.758486 4.147538
25.97028 -3.972079 1.317237
19.59922 -3.42083 12.54547
21.11806 -3.571806 6.292446
21.83926 -3.585472 6.16978
20.66268 -3.595101 7.602619
20.34318 -3.562708 9.894289
19.9557 -3.533131 10.99244
18.96136 -3.273644 14.66023
18.32279 -4.085916 18.39799
18.68421 -4.086128 19.03343
17.82515 -4.068989 18.68695
19.80158 -4.220952 19.09544
16.77582 -3.011093 14.07878
17.77327 -3.116401 13.464
16.37094 -3.309905 17.92401
20.15315 -4.110501 17.1073
20.8509 -4.155494 18.18284
20.62472 -4.136837 15.89722
20.87848 -4.150707 14.92225
20.41153 -4.123179 16.63462
22.52544 -4.226546 13.89194
22.30358 -4.202049 14.07971
22.35753 -4.216735 13.57924
24.3166 -4.322357 13.59305
25.15979 -3.951323 12.60354
22.46763 -3.664563 4.998364
22.36615 -3.691759 3.886648
25.17022 -3.870685 10.91424
24.92773 -3.827275 6.521231
24.81965 -3.846253 5.252254
25.12512 -3.710992 3.488784
26.17873 -3.993055 1.234971
18.99804 -3.265054 14.06769
21.39485 -3.622965 5.207126
21.8299 -3.62294 5.472477
20.47173 -3.601713 8.466482
20.1552 -3.586658 9.887866
19.77117 -3.513466 11.19157
18.87729 -3.226045 13.73081
18.81512 -4.117705 17.83905
17.32026 -4.031426 17.82489
17.11823 -4.063062 18.26989
19.2205 -4.11052 18.98874
16.89702 -3.060068 13.9758
18.33646 -3.027808 13.21125
17.5713 -3.165431 13.45541
15.77678 -3.905561 19.06345
21.58726 -4.141513 14.96221
21.13362 -4.153481 14.63862
21.66807 -4.159096 14.50306
23.26436 -4.329441 13.42173
21.61543 -4.160539 13.62856
23.6946 -4.317317 13.96138
24.53387 -4.295125 13.01758
25.15993 -3.925041 12.00167
22.53407 -3.673844 1.87985
27.64716 -3.626904 16.97564
24.95389 -3.910497 8.374644
24.56157 -3.993608 3.062439
25.1044 -3.714597 3.36194
21.44919 -4.190219 18.40655
18.99085 -3.25745 13.51065
21.43948 -3.682948 4.313852
20.30574 -3.657448 7.668634
20.04793 -3.611311 9.497664
19.39528 -3.418571 11.60238
18.30954 -4.091137 18.03382
18.98403 -4.104939 18.09561
17.59305 -4.031917 17.94363
19.43879 -4.141549 18.85415
16.66793 -2.970583 13.81793
18.2733 -3.017868 13.21566
16.33519 -3.199059 16.91814
19.69234 -4.124942 17.25184
20.35298 -4.143189 15.48294
21.01803 -4.1533 14.22487
23.53811 -4.289673 14.19875
23.3343 -4.360631 13.1172
21.87919 -4.173383 12.79588
22.19828 -4.207962 13.08011
24.50864 -4.321395 12.5907
22.22301 -3.671998 4.687172
22.22162 -3.738119 3.165739
25.06556 -3.932045 10.5827
24.71873 -3.975375 5.947111
24.70533 -3.868458 2.911877
24.52426 -4.080215 3.856105
25.60391 -3.892068 1.240969
21.08387 -4.210927 18.35787
21.30729 -3.678976 4.407457
20.95532 -3.60318 6.200891
20.53439 -3.668221 6.393466
20.33687 -3.694254 6.371915
19.83592 -3.56693 10.44304
19.27815 -3.389122 11.34273
18.2568 -4.087209 17.98302
17.4526 -3.961412 16.71204
17.11792 -4.051451 17.22574
20.59947 -4.22688 18.46321
16.43944 -2.960058 14.71691
18.22104 -2.959632 12.59468
16.38925 -3.367615 17.14364
19.90145 -4.108694 17.02373
20.10202 -4.152299 15.1247
20.18658 -4.165015 14.60683
20.56721 -4.15888 14.27425
21.22074 -4.152388 13.8392
23.27211 -4.369796 12.88537
21.38035 -4.150326 13.50516
21.51624 -4.143396 12.56457
23.71982 -4.368643 13.37823
24.60173 -4.292108 12.23637
22.40197 -3.699843 1.526569
22.03449 -3.801721 1.932198
24.61661 -4.030248 5.006935
24.6358 -3.920411 2.817302
24.89154 -3.815851 1.745864
19.20147 -3.340572 12.25414
21.15051 -3.726493 3.83233
21.89847 -3.709808 3.857952
21.81559 -3.707376 3.901098
20.52044 -3.693612 5.739436
19.72255 -3.573747 9.971257
19.19109 -3.345309 11.35169
18.53765 -4.116359 17.61598
17.25667 -4.006456 17.03187
17.99052 -4.042425 17.29002
16.0603 -4.046574 18.80073
16.46744 -2.943741 14.09214
18.38881 -2.959397 12.40786
16.40705 -3.39911 17.10642
19.84929 -4.126287 16.74381
19.95553 -4.138288 16.15431
19.92466 -4.16076 15.05114
20.45343 -4.165877 13.68046
20.88772 -4.143155 12.74304
22.56031 -4.271314 12.62602
23.22517 -4.382352 12.62483
21.31824 -4.140665 12.84273
21.56108 -4.145937 12.56943
24.01001 -4.443964 12.43713
24.87958 -4.117276 11.60912
21.99721 -3.783811 2.481572
24.78943 -4.043583 8.011594
24.39551 -4.1761 2.414179
24.5113 -4.164336 4.837677
24.38225 -4.23277 2.991883
19.00733 -3.251701 12.15801
21.0457 -3.656713 5.062677
21.83902 -3.770641 2.92312
20.19068 -3.705608 6.248107
19.94153 -3.67229 7.396699
19.27281 -3.408287 10.36617
17.97919 -4.054223 17.66655
19.5953 -4.130769 17.10258
17.54527 -3.957963 16.6622
16.85894 -4.168927 17.42021
17.00502 -3.135627 12.91754
17.53052 -3.182102 12.6509
17.85351 -3.035877 12.34919
15.51999 -3.878228 18.79728
19.886 -4.132367 16.45633
19.571 -4.175037 15.00038
20.77617 -4.14614 12.64851
22.28152 -4.235548 12.18011
23.58962 -4.467531 12.1648
21.59326 -4.140504 11.97032
24.87059 -4.116055 11.26863
21.92396 -3.800924 2.340545
24.73023 -4.111414 7.980951
24.63523 -4.159236 7.04143
24.36292 -4.350217 4.105962
24.2605 -4.418245 2.715996
18.99408 -3.235346 11.77678
21.07847 -3.765738 3.360594
20.65226 -3.722445 4.618312
20.49339 -3.714234 5.182528
19.62669 -3.573306 9.220295
19.78103 -3.639484 7.756894
18.23095 -4.082694 17.46237
19.41997 -4.121954 17.13601
17.28898 -3.957321 15.81425
17.84385 -3.974726 16.31803
16.3203 -4.28994 18.38698
16.39417 -2.947917 14.00781
18.39813 -2.929511 12.08307
16.42794 -3.407804 16.81061
19.45926 -4.153313 15.67418
20.06633 -4.181331 14.04578
20.65127 -4.156949 13.16999
20.59163 -4.151226 11.74319
22.44131 -4.26287 12.24383
21.27241 -4.108869 11.48172
22.3094 -4.245258 11.93362
24.71616 -4.241849 11.23982
21.83598 -3.831758 1.953842
24.68486 -4.190518 8.462244
24.41911 -4.362381 5.523079
24.3084 -4.305937 2.338151
24.20587 -4.519517 2.805289
21.30802 -3.791215 2.888138
21.09342 -3.738573 3.709968
21.61308 -3.822497 2.446559
20.03214 -3.70677 5.881674
19.57275 -3.574959 7.773429
19.59969 -3.58836 7.410492
19.50369 -3.534682 9.05646
18.64897 -4.182651 16.21918
17.59841 -3.887426 15.00266
17.72481 -3.937028 15.95513
16.79053 -4.281067 16.96331
17.22556 -3.227317 12.14262
16.25525 -3.249113 15.36084
18.33026 -2.854257 11.40784
16.48486 -3.466106 16.73737
19.27168 -4.141334 16.14685
19.96077 -4.200247 13.71126
20.53396 -4.162096 12.96974
21.11441 -4.104998 11.39094
23.34877 -4.484688 11.73119
21.70571 -4.148332 11.84241
23.66925 -4.587732 11.17654
24.50988 -4.385509 11.29416
21.96127 -3.843817 1.205915
24.61735 -4.222999 7.649873
24.47227 -4.371104 6.922709
24.32549 -4.47652 5.21459
21.00879 -3.840394 2.525575
20.51945 -3.758435 4.092845
20.26389 -3.735422 4.721462
19.4718 -3.526327 7.833843
19.68509 -3.625082 6.976016
19.15686 -3.321968 9.550901
18.42076 -4.129131 16.43745
19.09215 -4.15906 16.29256
17.28081 -3.953664 14.79182
17.84205 -3.959063 15.93476
16.76887 -4.323126 16.93185
17.40439 -3.221265 12.00555
16.27597 -3.000206 14.16395
18.47388 -2.860659 11.10126
18.18693 -2.810043 10.93847
15.71691 -4.105451 18.50104
19.84195 -4.21948 13.45061
20.52679 -4.162202 12.40935
20.73918 -4.123884 11.23437
23.43691 -4.534788 11.415
21.55637 -4.115813 11.30049
22.50525 -4.305324 11.32994
24.07969 -4.542475 11.30675
24.57976 -4.35121 10.69236
24.59109 -4.302557 8.478148
24.29604 -4.287118 1.566641
24.13296 -4.641066 2.930793
20.70342 -3.843793 2.515557
20.08489 -3.730646 4.504037
19.36376 -3.465793 8.298067
19.61319 -3.600133 4.452473
19.21049 -3.346846 8.202096
19.03563 -4.174515 16.20027
17.29923 -3.940065 14.28196
18.07277 -3.993231 14.86272
16.96666 -4.20329 15.86096
16.94693 -3.140916 12.22143
17.6809 -3.113407 11.92077
16.50363 -3.510205 16.24339
15.39752 -3.160252 18.42175
19.09425 -4.19728 15.36868
20.07621 -4.206627 13.0749
20.57625 -4.144199 10.3909
23.05763 -4.486822 11.00818
21.13585 -4.089603 10.84781
22.0787 -4.207189 10.33121
23.90625 -4.599296 10.96752
21.73144 -3.856548 1.510889
24.21879 -4.628427 6.103879
24.11982 -4.686688 3.522988
24.0343 -4.765753 3.033122
20.38787 -3.79668 3.321303
19.7919 -3.676591 4.205333
19.25593 -3.381527 8.19873
19.50681 -3.540604 4.529459
18.99776 -3.192349 10.01029
19.13479 -3.281487 8.539898
18.70438 -4.203104 15.25473
17.31479 -3.927363 13.97503
18.15231 -4.025818 15.04376
16.76939 -4.526191 16.05337
15.97441 -3.955288 18.2257
16.20225 -3.048286 13.74691
17.96527 -2.895369 11.07479
15.58289 -2.933817 18.14893
19.45459 -4.259235 13.27787
19.97167 -4.237272 12.53828
20.12455 -4.242439 11.32188
20.74027 -4.113739 10.48267
22.90139 -4.4434 10.93111
21.12963 -4.067893 9.937179
21.55912 -4.104176 10.68849
21.95789 -4.176576 10.40909
24.29896 -4.536409 10.15714
24.50412 -4.40543 9.465736
24.21118 -4.429344 1.610835
24.13994 -4.689392 5.300404
24.50821 -4.073084 0.8824736
19.95652 -3.732212 3.637625
19.31333 -3.418305 6.760759
19.47277 -3.510738 4.029794
18.73595 -2.950233 10.22151
18.68 -4.188423 14.58858
17.36693 -3.882745 13.56025
18.28496 -4.078267 15.25436
16.68704 -4.682809 16.09662
15.95518 -3.906321 18.08537
16.48213 -2.93277 12.7101
18.50229 -2.772297 9.917013
16.62103 -3.74701 16.6452
15.34841 -3.206751 18.30599
19.60751 -4.262875 13.01307
19.82209 -4.311127 11.52659
20.69582 -4.116436 9.954795
23.05469 -4.523186 10.47477
21.21768 -4.056527 9.658988
21.01269 -4.044631 9.157846
21.64435 -4.112573 10.48328
21.94254 -4.174994 10.08084
24.11715 -4.630703 9.650369
24.41457 -4.482667 8.452094
24.25786 -4.382939 1.302093
24.07939 -4.738795 5.867109
20.38393 -3.816027 2.724197
19.38694 -3.462677 4.819603
19.1906 -3.31247 7.27973
18.79924 -2.936355 9.069327
18.97943 -3.092403 8.049793
17.12277 -4.105388 14.65656
17.92496 -3.854616 12.95566
18.14684 -3.996925 13.99949
16.70265 -4.709652 15.89832
17.30901 -3.247354 11.20787
16.60424 -3.593741 15.8074
17.93907 -2.862389 10.37813
16.42415 -3.8357 17.07816
15.34059 -3.010341 18.19699
19.735 -4.268029 12.65574
19.8687 -4.295186 11.6425
20.03217 -4.26779 11.18248
20.73668 -4.098851 9.67186
23.39729 -4.618924 10.35586
23.45694 -4.653138 9.999811
21.20285 -3.996137 7.913426
22.40146 -4.314573 10.18506
23.8491 -4.68827 9.660898
21.23926 -3.896974 1.613048
24.15382 -4.68288 6.744469
23.95973 -4.832382 4.305626
23.85028 -4.923062 2.373823
20.0362 -3.753537 3.105221
19.23767 -3.34203 5.845403
19.50452 -3.521754 3.543608
19.00215 -3.108074 7.787417
18.52067 -4.14028 13.95281
17.27297 -3.918884 13.10691
18.42183 -4.105805 14.03337
16.87786 -4.569469 15.01855
17.2333 -3.262753 10.89617
16.1565 -3.231457 13.83819
18.16163 -2.693475 9.371264
16.71072 -3.689589 15.91029
15.36319 -4.051855 18.20126
19.53012 -4.293084 12.66563
19.66359 -4.347449 11.4969
19.91258 -4.340867 10.19797
20.63578 -4.108014 8.950865
20.77932 -4.065467 8.751352
22.87292 -4.517101 9.550234
23.7047 -4.696477 9.606747
21.13448 -3.995898 7.784683
22.47375 -4.363742 9.491299
24.01489 -4.717515 8.447851
24.03611 -4.758587 6.395099
24.21089 -4.44385 0.9204721
23.70962 -4.990668 3.102286
20.64337 -3.862422 1.691649
19.27071 -3.346604 4.509346
19.0825 -3.177547 6.685385
18.66834 -2.828176 9.284775
18.49794 -4.133453 13.71514
17.68135 -3.766355 12.57484
18.08137 -3.924394 12.90651
16.73412 -4.823115 15.25065
17.09349 -3.239544 11.13408
16.14412 -3.326262 13.47622
18.21091 -2.69046 9.456771
16.44334 -3.92793 16.77054
15.36015 -3.398165 17.99991
18.99132 -4.25969 13.25343
19.65141 -4.387316 10.77188
20.5036 -4.152609 9.272655
20.95759 -3.988327 6.992543
23.3609 -4.70645 8.933339
23.46204 -4.713691 9.097158
21.62994 -4.068657 8.677248
21.65593 -4.07478 8.667553
23.83124 -4.774655 8.113054
21.08672 -3.901194 1.405299
23.74993 -4.958299 3.739254
23.75462 -4.985939 1.476491
20.07824 -3.753596 2.35044
19.10162 -3.176236 5.821587
19.74688 -3.613819 2.240248
19.43792 -3.419086 2.517363
18.81318 -2.874445 7.778939
17.03403 -4.390933 14.03139
18.20191 -3.983433 12.64974
16.49424 -4.890477 16.22237
16.09939 -4.435515 17.51205
16.14335 -3.327436 13.44428
18.22093 -2.659999 9.035503
18.39617 -2.68951 9.318076
15.57315 -4.285267 17.9891
19.12802 -4.360659 11.99675
19.40737 -4.411675 11.25265
20.27889 -4.228361 9.386358
20.79725 -4.013174 6.6996
23.08893 -4.665854 8.377022
23.65801 -4.785616 8.168961
21.30099 -3.984871 7.078705
22.17939 -4.250927 9.156308
23.90732 -4.795813 7.203344
23.60361 -5.004783 3.557996
23.83259 -4.95978 1.264714
19.90517 -3.665221 1.7942
19.18266 -3.176271 3.153315
19.76026 -3.604469 1.96755
18.60802 -2.701611 8.207805
18.64991 -2.722348 8.00338
17.61232 -3.7281 12.05094
18.31546 -4.051983 12.35492
16.61891 -4.956501 15.47096
16.9842 -3.220365 10.83008
16.48033 -2.937505 11.84038
16.61791 -3.634058 14.13158
18.37979 -2.607039 8.274914
17.68987 -3.031054 9.586518
15.75449 -4.135453 17.80194
19.01296 -4.370623 11.76374
19.41639 -4.482497 9.71856
20.22762 -4.25014 9.093017
20.46395 -4.152891 7.926024
20.56244 -4.097554 6.980347
23.16369 -4.706931 8.094403
23.64927 -4.831224 7.271267
21.31811 -3.973274 6.265416
22.38517 -4.339425 9.045254
23.56459 -4.885724 6.267853
23.47763 -5.004444 3.890787
20.36258 -3.812493 1.716907
18.90962 -2.840251 4.855528
19.16528 -3.089695 2.299485
18.90667 -2.878277 5.719595
16.89887 -4.761826 13.95442
17.33299 -3.796827 11.95589
17.8206 -3.726177 11.50159
16.21157 -4.754988 16.86608
16.35241 -2.919823 11.65693
16.46483 -3.58836 13.80796
18.22578 -2.611084 8.421122
15.36934 -2.790868 17.70814
15.46802 -3.782638 17.92582
19.19998 -4.434064 11.13216
19.49322 -4.47072 9.674719
20.09035 -4.316676 8.734396
20.49172 -4.138277 7.605913
20.47904 -4.132397 6.473664
23.07264 -4.716274 7.375422
21.43948 -3.989433 6.398147
22.01784 -4.19488 8.034351
22.82875 -4.568702 8.301554
23.51613 -4.984694 4.286839
23.42926 -4.979219 4.314441
18.95553 -2.863747 4.015169
19.00155 -2.937251 3.951449
18.93834 -2.848748 4.236052
18.75645 -2.699589 6.158581
16.84059 -4.908132 13.80491
17.09283 -4.103433 12.40396
17.97735 -3.804941 11.58135
16.80224 -4.939465 14.07402
17.29149 -3.27769 10.09546
16.11098 -3.355017 13.00845
17.85575 -2.817708 8.675625
17.53377 -3.168017 9.476055
15.86381 -3.447077 16.88733
18.83522 -4.318233 11.98145
19.2504 -4.498845 9.533816
19.81636 -4.425283 8.765846
20.79404 -4.007936 6.057879
20.40945 -4.166163 6.246812
23.19555 -4.825102 6.290483
23.00367 -4.703964 7.165437
23.07429 -4.749704 6.834221
21.64528 -4.046215 6.827935
21.18811 -3.959504 5.526276
22.54697 -4.432205 8.474936
22.59911 -4.454594 8.582986
23.21452 -4.946511 4.341897
20.28741 -3.781966 1.18206
18.9488 -2.803516 3.213565
18.84383 -2.710546 4.440259
18.46582 -2.574383 7.441097
16.99277 -4.524724 13.35893
17.09964 -4.043063 11.86767
18.37873 -4.093227 11.62578
16.67949 -5.134817 14.1398
17.36863 -3.256892 9.886183
16.14563 -3.416774 13.04099
17.85222 -2.793478 8.278455
17.65944 -3.040365 8.85313
15.88209 -3.474103 16.84454
18.63018 -4.228646 12.18576
19.12459 -4.480823 9.692437
19.61509 -4.508892 8.061948
20.09744 -4.330187 7.191421
20.90112 -4.001752 4.548675
20.19328 -4.284863 6.167915
23.27109 -4.899099 5.344023
23.04152 -4.760474 6.455933
21.54966 -4.007689 5.104896
21.75051 -4.081193 6.241481
21.2518 -3.962658 4.488656
23.20098 -4.971026 3.838767
23.41002 -5.138956 1.231165
18.89629 -2.690426 2.745923
19.46721 -3.32357 1.522697
16.89009 -4.865884 13.25966
17.07327 -4.103106 11.8491
17.94899 -3.760432 11.07231
16.07597 -4.628391 16.75471
16.67948 -3.10863 10.13882
16.90402 -4.065923 15.44344
17.78631 -2.855253 8.138761
17.67071 -3.025236 8.742968
15.12262 -3.006818 17.75598
15.50701 -3.640441 17.58372
18.76641 -4.345366 11.00411
19.55599 -4.52639 7.730776
19.83843 -4.4554 7.001687
20.1161 -4.325368 6.597447
21.09094 -3.984944 3.499864
20.92809 -4.011371 3.566292
20.50319 -4.128014 5.189386
22.92001 -4.70582 6.459238
23.02909 -4.877477 4.402621
21.68517 -4.039818 4.589455
21.39759 -3.975682 4.428583
22.63271 -4.497303 7.798474
23.21907 -5.007577 3.217178
19.79888 -3.562992 1.372843
18.69898 -2.571877 5.082541
18.63643 -2.577639 6.059278
16.99373 -4.478081 12.25421
17.1453 -3.946111 11.52812
18.36903 -4.086376 11.27901
16.05137 -4.588737 16.66807
16.55174 -3.063479 9.64795
16.93483 -4.008031 15.1555
18.09865 -2.517526 6.836734
16.19887 -3.794182 16.41729
15.0912 -3.154828 17.61411
19.11361 -4.508767 8.836469
19.42743 -4.543388 7.85055
19.95781 -4.407035 6.318494
20.75988 -4.05446 3.458541
20.08881 -4.343533 5.016092
22.63349 -4.506258 7.527918
22.82895 -4.726599 5.283055
22.1431 -4.267802 6.460654
21.77657 -4.083969 4.947919
22.31011 -4.348119 7.235044
22.99576 -4.917847 3.471867
19.77396 -3.544611 1.334817
18.69867 -2.460145 3.32754
18.52798 -2.496422 5.916305
16.97759 -4.605697 12.27463
17.7298 -3.648949 10.46231
18.22698 -3.948088 10.26314
18.52881 -4.211023 11.05423
16.59793 -5.273664 13.96189
16.50539 -3.016291 10.09977
16.73067 -3.174078 9.5471
16.21479 -3.525584 12.78297
17.80633 -2.744178 6.88678
17.32037 -3.286167 9.329135
15.82482 -3.925458 16.94767
18.71074 -4.328236 10.73226
18.93233 -4.482436 8.073227
19.33089 -4.570815 6.56713
19.7844 -4.483983 6.112401
20.54404 -4.128576 3.615419
20.9935 -3.990626 2.528406
20.09312 -4.344173 4.058881
22.46778 -4.470287 6.130904
22.70757 -4.62371 5.932973
22.06965 -4.23364 5.273747
21.56692 -4.011261 3.868814
21.39751 -3.996094 3.241419
23.10486 -5.098099 1.304328
18.62926 -2.509539 5.18813
18.34614 -2.456164 6.240513
16.84448 -5.057898 12.9491
16.98232 -4.577671 11.93708
17.1297 -3.886964 10.6032
18.4872 -4.185615 9.860781
17.9536 -3.732958 10.21265
16.06329 -3.91026 17.08638
16.47658 -3.046909 9.191113
16.90338 -4.200225 15.30099
17.76916 -2.790185 6.855742
18.15363 -2.455806 6.247022
15.06344 -2.872425 17.39361
15.66623 -4.325673 17.15807
18.83989 -4.406891 9.602998
19.26088 -4.560627 7.109115
19.76993 -4.487625 5.048056
20.38641 -4.195221 4.313751
21.20579 -3.97748 2.603851
21.01081 -3.986584 2.253309
19.9964 -4.389946 3.976075
22.65267 -4.637516 4.93365
21.90582 -4.147302 3.630404
22.81289 -4.87812 2.383571
18.67461 -2.398098 2.286934
18.97515 -2.686824 1.262522
16.77679 -5.185778 13.06423
17.39972 -3.669292 10.41724
17.9736 -3.729199 9.762064
18.51163 -4.206721 9.366486
16.04245 -4.549171 16.38321
17.06373 -3.322311 8.940849
16.40265 -3.037836 8.730396
15.97796 -3.356421 12.03948
17.01311 -4.108987 14.23594
18.03835 -2.478137 5.989134
15.49587 -2.65191 16.83519
15.58129 -4.470333 17.14042
18.78948 -4.403872 8.721931
19.43621 -4.570524 5.075593
20.24436 -4.266714 3.431884
21.49873 -4.014368 2.694595
20.87668 -4.013387 1.85614
19.94035 -4.415465 3.859435
22.58917 -4.578559 5.306797
22.30892 -4.389975 5.109111
21.97754 -4.200982 3.384985
22.85846 -4.939676 1.780251
18.75914 -2.422173 1.551115
18.2391 -2.419432 5.834429
16.84117 -5.143917 12.59975
17.01455 -4.109382 9.996324
17.13311 -3.856653 10.26603
18.52914 -4.22662 8.284038
16.03223 -5.056618 15.43792
17.26689 -3.317493 8.575194
16.55822 -3.185484 7.592779
16.74871 -3.302885 7.425873
16.65521 -3.776707 12.72206
17.78115 -2.72762 6.188014
17.99465 -2.448365 5.248609
15.99973 -3.57979 16.24118
15.12806 -3.285987 17.3152
19.01184 -4.52127 6.522258
19.24062 -4.574487 5.63125
20.2284 -4.263277 2.573605
21.6017 -4.044911 2.519718
20.47991 -4.146301 1.86386
19.77408 -4.461188 2.685157
22.40822 -4.506037 3.621776
22.16469 -4.296052 4.61312
22.21117 -4.335655 4.230327
22.74737 -4.963434 1.012333
18.43165 -2.253708 2.679693
16.68489 -5.327372 13.01053
16.98802 -4.521791 10.92218
17.00141 -4.136694 9.759465
17.89524 -3.675829 9.580642
18.11611 -3.810904 8.724524
16.0128 -4.709782 15.84769
17.04297 -3.349652 8.240946
16.31633 -3.006729 8.550679
16.10062 -3.545654 12.06697
16.95662 -4.297553 14.56573
17.79395 -2.585744 4.641688
15.63519 -2.773322 16.58876
15.08658 -4.278011 17.26073
18.96611 -4.511008 6.136731
19.45943 -4.562702 4.43881
21.36924 -3.985813 1.567391
20.23493 -4.249619 1.923207
19.78855 -4.450637 2.478912
22.46732 -4.52537 4.395561
22.34705 -4.489905 2.818826
21.86204 -4.153656 2.523257
22.5581 -4.687619 2.362362
18.53839 -2.234774 1.500688
18.28533 -2.360493 4.999483
16.9694 -4.249436 9.080662
16.97751 -4.142678 8.974173
17.77632 -3.612482 9.231388
18.12134 -3.806309 8.396447
18.53073 -4.228131 7.655904
16.04246 -5.274212 14.88307
16.17146 -2.943631 9.484278
16.95134 -3.376752 7.237833
16.79917 -3.894766 12.73756
17.64108 -2.957828 6.0508
17.68543 -2.83097 5.388317
17.36644 -3.291412 7.838667
15.76218 -4.104424 16.39684
18.73894 -4.389324 6.795615
18.84871 -4.455282 6.401198
19.41587 -4.55562 3.465131
21.85854 -4.165454 1.611339
20.03735 -4.344951 2.25372
22.00293 -4.246201 1.938702
22.46232 -4.643667 1.539739
18.28878 -2.21039 2.509917
16.84453 -5.206061 11.81519
16.96329 -4.514966 9.082588
17.60685 -3.581266 9.308686
17.07839 -3.832284 8.858556
18.20136 -3.875377 7.957123
18.43532 -4.130515 7.41297
16.27401 -5.546293 13.72375
16.34841 -3.080427 7.327951
16.11008 -2.948204 9.199609
16.20162 -3.69302 11.68211
17.01208 -4.30674 13.90155
17.68504 -2.781154 4.757207
16.13372 -3.620152 16.04019
15.65398 -4.381933 16.40703
19.08363 -4.546865 4.857244
19.46622 -4.541695 3.08755
21.58812 -4.046945 1.362794
22.10133 -4.308617 2.164021
18.17994 -2.174204 1.924092
16.76996 -5.279118 11.40562
16.93906 -4.426043 8.456756
17.01152 -3.944224 8.608957
17.02637 -3.940474 8.945277
18.4428 -4.12826 6.223235
18.27629 -3.950123 7.50436
16.17669 -5.572753 14.11313
16.22964 -3.028559 7.39536
17.18079 -3.358841 7.859606
16.36258 -3.824911 11.53073
16.84641 -4.414803 14.53928
17.58377 -3.020788 5.253444
17.80657 -2.462619 3.224063
15.15442 -2.600893 16.77771
15.04108 -4.245677 17.04632
18.96475 -4.505152 4.438108
19.55872 -4.491508 1.863359
20.80468 -4.063364 1.148396
22.31942 -4.567505 1.131045
16.36235 -5.430992 12.92702
16.95856 -4.676184 9.244485
16.92986 -4.141702 7.699891
17.82108 -3.575943 7.788839
18.2016 -3.862885 7.360219
18.69451 -4.361248 5.341442
16.15366 -4.47067 15.69322
15.99256 -2.967839 9.177328
16.62517 -3.301059 6.277184
17.17355 -3.366371 7.475011
16.26447 -3.771155 11.4752
16.72811 -4.319845 14.84054
17.56412 -2.999759 4.152174
17.62001 -2.868145 4.038397
16.58136 -3.890254 15.27647
15.02984 -4.437706 16.95414
18.87752 -4.449695 3.046434
19.34924 -4.521208 2.101136
20.6926 -4.091523 1.129273
18.31832 -2.127702 1.287397
16.55803 -5.372503 12.02951
16.96792 -4.738287 9.680986
16.90723 -4.326569 7.698395
17.74275 -3.53663 7.607075
17.20057 -3.636201 8.036566
18.43901 -4.102872 4.657135
18.59384 -4.25988 3.8851
18.57472 -4.257139 5.160115
16.26825 -4.017013 16.14575
16.09282 -3.000325 6.981219
15.98164 -2.972189 8.357347
16.28747 -3.812379 11.33035
16.84501 -4.572864 14.19075
17.53351 -3.052438 4.144462
17.94633 -2.335343 3.169909
15.73518 -3.359569 15.95841
18.76093 -4.399576 4.416182
19.12808 -4.49798 1.86767
21.28855 -4.010837 1.10521
21.98543 -4.271066 0.9365894
16.4716 -5.357404 12.16357
16.92169 -4.730366 8.831161
16.89249 -4.307675 7.414052
17.80745 -3.50328 5.520159
17.06938 -3.761682 7.820726
18.17768 -3.797919 5.337406
18.40668 -4.039926 3.407753
18.50635 -4.16191 3.450666
16.19805 -5.47136 13.43834
16.72908 -3.386736 5.518569
15.84504 -3.011091 8.159864
15.97998 -3.588739 11.19509
16.9082 -4.653304 13.8811
17.71381 -2.504786 2.298979
17.54284 -2.960319 2.692124
15.74721 -4.19372 15.9141
18.82637 -4.382829 1.621564
19.18432 -4.497623 1.395424
19.72558 -4.455029 0.8508151
16.72875 -5.24346 10.80939
16.87431 -4.470719 7.56152
17.45333 -3.487091 6.916707
17.55745 -3.463779 6.287253
17.02623 -3.768057 7.060564
18.26823 -3.886222 4.398215
18.45342 -4.095379 3.281531
16.32211 -4.142111 15.75907
15.8643 -3.006164 8.077465
16.23653 -3.119943 5.30288
17.04793 -3.431209 5.620249
16.62266 -3.905116 15.17227
17.36403 -3.302081 5.305468
17.49883 -3.076078 2.896942
18.97418 -4.464465 1.318857
20.57798 -4.105495 0.7470804
16.59958 -5.302443 11.33751
16.81621 -4.618876 7.489781
16.84725 -4.506546 7.346924
17.91698 -3.575463 5.896163
17.98554 -3.614835 5.420087
18.13137 -3.734186 4.768105
18.24471 -3.822762 3.115891
18.38441 -4.005929 3.146425
18.41437 -3.997468 1.605252
16.0685 -5.431309 14.23463
15.98885 -3.001268 6.339756
16.42518 -3.287624 4.323462
16.08374 -3.775571 10.76282
16.76153 -4.783841 13.96834
17.65821 -2.524821 1.834711
16.55809 -3.755203 15.11714
19.22581 -4.520305 1.267327
16.57589 -5.271811 11.08379
16.80091 -4.493333 6.919845
17.28857 -3.535914 6.960832
17.79692 -3.476299 4.149545
18.06698 -3.65991 4.426319
17.16142 -3.601813 6.821413
18.52417 -4.128875 1.531695
15.72023 -3.17921 9.164117
16.75252 -3.433112 4.567207
17.06897 -3.44121 5.130401
16.8422 -4.374853 12.76488
17.74665 -2.390074 1.865512
16.07762 -3.714606 15.83592
19.21574 -4.511121 0.8649598
16.6098 -5.200814 10.32066
16.73191 -4.648458 7.062971
16.99482 -3.733803 6.097567
17.5643 -3.41931 3.402564
17.27937 -3.495518 5.891482
17.05 -3.663574 6.068469
16.38609 -4.117218 15.53142
15.72002 -3.065851 7.33916
16.5968 -3.418271 3.774431
17.16561 -3.417837 4.993047
16.76452 -4.220777 11.85688
17.30626 -3.347225 4.062179
15.04015 -2.62638 16.73208
21.33326 -3.982161 0.73795
16.53169 -5.163972 10.27811
16.55333 -4.763361 6.896875
16.93937 -3.775167 5.595151
17.685 -3.433577 3.244312
17.35471 -3.457 5.507905
16.41415 -3.973533 15.50066
15.68761 -3.289522 9.268973
15.84945 -3.010386 5.721151
16.3965 -3.319215 3.547152
15.83125 -3.576713 10.24409
16.79 -4.603327 13.2303
17.71368 -2.353534 1.444862
15.4684 -4.638937 16.33568
16.39859 -5.051058 11.69707
16.53271 -4.865479 7.529825
16.71346 -4.235441 5.356771
17.47025 -3.419791 3.62455
17.23327 -3.503379 5.614928
16.26115 -3.814335 15.77589
15.70369 -3.456738 9.489043
15.79577 -3.017107 5.201367
16.41304 -3.359364 3.065275
17.06185 -3.459315 4.351651
16.73068 -4.522387 12.52967
17.28912 -3.366499 3.405972
15.89395 -3.961789 15.65195
16.42586 -4.954923 11.38824
16.57147 -4.9283 8.012541
16.27984 -4.635543 5.486353
16.96392 -3.727637 5.423691
17.64767 -3.439212 2.284253
17.0423 -3.610902 4.894956
16.19078 -4.649245 14.46229
15.59867 -3.20599 7.663076
16.03283 -3.074554 4.099486
16.16088 -3.160515 3.613109
16.10783 -3.888582 10.30508
16.58897 -4.73077 13.10852
17.51399 -2.88615 1.434958
16.29263 -3.755149 15.41475
16.44922 -5.054888 10.26792
16.266 -4.764687 6.665421
16.70302 -4.194188 5.10719
17.33154 -3.443901 3.784909
17.16239 -3.512621 4.376375
16.49438 -3.885226 15.13132
15.64123 -3.465292 8.960732
15.75354 -3.028928 5.147381
16.17206 -3.235881 2.575713
16.00714 -3.895534 9.838092
16.6278 -4.65539 12.91861
17.47057 -3.043225 1.311455
16.44675 -4.876167 11.73316
16.34524 -4.920331 8.5099
16.19994 -4.71806 6.263741
16.66308 -4.19093 4.770468
17.16934 -3.510433 2.992198
17.03568 -3.588797 3.930245
16.34339 -4.532877 14.32177
15.56225 -3.321635 7.871233
15.74687 -3.029064 4.169099
17.02198 -3.496485 3.084281
16.45129 -4.235942 10.44135
17.11098 -3.483634 2.65572
16.52229 -4.74376 11.60522
16.2379 -4.817751 8.333997
16.0811 -4.657354 5.880524
16.47314 -4.443053 4.846008
16.51904 -4.34267 4.548148
17.27153 -3.510463 1.504087
16.58057 -4.133862 14.79967
15.70363 -3.690185 8.920164
15.56732 -3.110142 5.08101
16.20142 -3.300703 1.981475
16.04711 -4.022898 9.475048
16.42454 -4.663347 13.89723
16.50627 -4.696194 10.96996
16.21822 -4.805032 8.103948
15.91387 -4.524287 4.645221
16.38652 -4.456491 4.563447
17.00068 -3.604987 3.125487
17.73945 -3.493161 1.011056
15.71107 -3.792035 8.651398
15.47938 -3.268284 6.141895
16.12136 -3.257951 1.812684
15.87281 -3.991777 8.840237
16.56939 -3.660725 14.89538
16.25516 -4.7616 8.963929
15.76505 -4.442198 4.261062
16.31257 -4.362295 3.734213
16.47002 -4.298294 4.047399
17.50631 -3.477475 1.261821
15.42458 -3.476614 6.330238
15.63465 -3.050339 3.772928
16.55313 -4.463721 10.76698
16.35688 -4.597308 9.904223
15.90463 -4.556849 5.468066
15.83156 -4.464784 4.157133
16.31991 -4.314596 3.4355
16.93731 -3.651839 2.769495
15.64957 -3.862509 8.044365
15.41088 -3.333068 5.540493
15.69629 -3.042288 2.646929
16.44313 -4.522009 10.34634
16.16186 -4.499242 8.945164
15.9784 -4.593569 7.142739
15.57155 -4.303796 4.231637
15.65485 -4.26997 2.251416
16.37959 -4.301188 3.605197
16.95577 -3.682865 1.346519
15.3704 -3.61323 5.895375
16.45455 -3.473831 1.393515
15.6514 -3.039641 3.046668
16.35216 -4.41664 9.94378
15.89273 -4.486516 7.092685
15.36779 -4.116107 3.316226
15.48758 -4.225857 2.672401
15.88363 -4.274108 2.077345
16.77028 -3.784419 2.039346
15.75093 -4.065634 7.967863
15.34151 -3.447401 5.267376
15.5334 -3.049789 2.427943
16.13483 -4.420992 8.93285
15.87705 -4.472531 7.034754
15.80105 -4.427053 6.541574
15.33892 -4.098436 1.944205
16.54321 -4.012409 2.610198
16.6139 -3.871107 1.059047
15.31041 -3.302864 4.16204
15.39799 -3.057795 2.098322
15.69991 -4.26154 6.695298
15.4104 -4.139626 3.811074
16.31414 -4.202119 2.62514
16.55691 -3.878319 0.9473392
15.33415 -3.661859 5.446409
15.74023 -4.234719 7.204538
15.4417 -4.083001 4.809707
15.16131 -3.92825 1.660353
16.46932 -4.021568 2.047328
15.26154 -3.562606 4.580748
15.60999 -4.055243 6.982366
15.22897 -3.836315 3.462769
15.28452 -4.073066 1.434345
15.96357 -4.201523 1.538702
15.25296 -3.596642 4.525112
15.4744 -4.031774 5.689838
15.19067 -3.755805 3.257826
16.25103 -4.115223 1.450146
15.21664 -3.192525 2.606365
15.17652 -3.659138 3.433444
15.09632 -3.897332 1.134005
15.27653 -3.786588 4.417732
15.0934 -3.422379 2.46185
15.12226 -3.48859 2.886956
15.09388 -3.29208 2.15444
15.06994 -3.13987 1.248973