####
#
# OBJ File Generated by Meshlab
#
####
# Object border.obj
#
# Vertices: 380
# Faces: 202
#
####
mtllib ./border.obj.mtl

vn -0.002038 0.099355 -1.092317
v 2910.296387 1727.452026 1363.083130
vn -0.009757 0.195584 -2.057053
v 2910.609863 1731.927490 1363.489624
vn -0.048341 0.266539 -2.234739
v 2924.212646 1731.499146 1363.144287
vn -0.057348 0.180846 -1.155935
v 2928.984131 1736.974243 1363.694092
vn -0.091626 0.189063 -0.944280
v 2941.884277 1741.422363 1363.549927
vn -0.276685 0.474701 -2.287525
v 2951.393311 1741.485352 1362.412842
vn -0.083746 0.201075 2.160615
v 2998.150146 1750.862305 1399.514282
vn -0.026028 0.154630 2.151739
v 3004.965088 1766.350342 1398.300415
vn 0.033789 0.770796 1.046921
v 3007.099365 1773.525513 1397.528687
vn 0.172222 0.985029 0.202132
v 3009.572998 1777.613525 1393.096069
vn 0.301750 1.339489 0.007534
v 3009.165283 1778.432129 1387.271362
vn 0.488992 1.956088 -0.015065
v 3005.099854 1779.323853 1370.574341
vn 0.157678 0.903480 -0.516651
v 3002.710449 1779.140747 1365.420532
vn 0.000903 0.417854 -0.985479
v 2999.187500 1776.397217 1362.034912
vn -0.021656 0.070183 0.850897
v 2998.468262 1759.907715 1398.684814
vn 0.026056 0.788041 1.572821
v 3003.578857 1773.336304 1397.781616
vn 0.240698 1.633808 0.730947
v 3004.955566 1778.203857 1394.153442
vn 0.436339 2.106552 0.163056
v 3005.186768 1779.321411 1388.510376
vn 0.211697 0.884042 -0.001794
v 3004.043213 1779.641113 1377.470947
vn 0.375254 1.897683 -0.755765
v 3000.170898 1780.529053 1367.073242
vn 0.084928 1.081710 -1.695065
v 2996.896973 1778.800903 1363.052002
vn -0.132103 -0.001065 -2.132673
v 2990.824707 1768.543457 1361.547119
vn -0.035516 0.205694 -1.066357
v 2992.459473 1775.014893 1361.442627
vn -0.251925 0.077775 -1.789124
v 2982.524170 1761.542114 1361.866577
vn -0.156474 0.040019 -1.347807
v 2982.357422 1765.750488 1362.072998
vn -0.102267 0.084347 -0.659900
v 2974.178711 1759.091919 1362.935181
vn -0.362163 0.519629 -2.059037
v 2965.078857 1748.736328 1361.922363
vn -0.161658 0.243894 -1.028930
v 2959.379639 1749.333252 1363.075439
vn -0.154484 0.384027 -1.974584
v 2936.482910 1735.118286 1362.746460
vn -0.027337 0.257942 1.076395
v 2921.542725 1708.318481 1400.780640
vn -0.010128 0.469632 1.865757
v 2914.883301 1703.190918 1402.035156
vn -0.026598 0.063789 0.687727
v 2991.973389 1746.932129 1399.640625
vn -0.125687 0.303767 3.307332
v 2976.095947 1728.145020 1400.752930
vn -0.088296 0.214020 2.328840
v 2978.220215 1724.624756 1401.156982
vn -0.082226 0.204551 1.564513
v 2959.190674 1716.669189 1401.211792
vn -0.111891 0.322173 1.975002
v 2948.811768 1708.968262 1401.880005
vn -0.061130 0.201564 1.112696
v 2943.501953 1711.783203 1401.119995
vn -0.114903 0.506864 2.260247
v 2930.991943 1705.192383 1401.962036
vn 1.666364 -0.433498 1.281341
v 3082.989014 1128.750854 1396.028076
vn 2.210624 -0.287409 0.253294
v 3084.384033 1127.012329 1390.103027
vn 0.875944 -0.142311 0.247993
v 3085.443359 1132.201416 1389.339111
vn 0.600070 -0.198785 0.673693
v 3085.213135 1133.913818 1395.570435
vn -0.046539 -0.251617 1.316302
v 2929.540527 1135.894409 1373.430664
vn -0.100904 -0.578483 3.025256
v 2929.267822 1127.263794 1371.771240
vn -0.108757 -0.445644 2.453424
v 2935.749023 1127.392822 1372.626099
vn 0.256409 -0.376206 1.980208
v 2942.168457 1127.489014 1372.584473
vn 0.820347 -0.608949 2.983628
v 2948.566650 1127.510620 1371.028931
vn 0.559846 -0.521110 2.522986
v 2954.742676 1127.519043 1369.131714
vn 0.295286 -0.413020 2.184811
v 2961.842041 1127.520142 1367.980713
vn 0.111903 -0.212981 1.759203
v 2976.431152 1127.487305 1366.552246
vn 0.278435 -0.554824 3.070028
v 2970.509033 1127.486694 1367.026855
vn 0.069940 -0.136852 2.412496
v 2986.907227 1127.465820 1366.006104
vn -0.034248 -0.039980 2.255906
v 2993.029541 1127.482544 1365.913330
vn -0.091256 0.030378 1.954537
v 3002.304443 1127.524048 1366.229248
vn -0.100381 0.051231 1.494347
v 3013.021973 1127.548218 1366.872925
vn -0.322535 0.169537 3.120012
v 3022.235596 1127.530151 1367.734253
vn -0.285266 0.213761 2.073629
v 3030.359131 1133.228271 1368.264404
vn -0.388072 0.162663 1.762146
v 3036.773438 1127.535400 1369.839600
vn -0.695595 0.134597 2.043638
v 3043.542480 1127.656006 1371.661377
vn -1.407372 -0.014260 1.106213
v 3048.856201 1132.792358 1374.231323
vn -2.079770 -0.012970 1.755201
v 3049.154053 1128.064453 1374.549316
vn -0.867893 -0.099050 0.414665
v 3050.030029 1134.360962 1380.123779
vn -1.989465 -0.179562 0.814428
v 3050.712158 1129.480713 1380.385742
vn -2.019809 -0.161361 0.602475
v 3053.190918 1130.823486 1385.894531
vn -0.958563 -0.115294 0.110898
v 3053.679932 1137.786011 1391.547485
vn -2.442387 -0.232080 0.390704
v 3054.363770 1132.363525 1391.820923
vn -0.833220 -0.236552 0.355603
v 3053.265625 1139.240601 1397.591553
vn -2.059538 -0.455096 0.632555
v 3054.863770 1134.015991 1397.860718
vn -0.540721 -0.187265 0.615365
v 3054.680176 1141.122070 1403.307373
vn -1.689860 -0.541850 1.428760
v 3056.765381 1135.846802 1403.534302
vn 0.104867 0.053195 1.217646
v 3060.850342 1137.806396 1407.720093
vn 0.978783 0.310238 1.273007
v 3064.304199 1139.955078 1403.932617
vn 1.320816 0.135035 2.579694
v 3061.025146 1144.356689 1405.381104
vn 0.467684 0.960176 1.412348
v 3062.003906 1146.861938 1405.106689
vn 0.203245 0.997389 0.729448
v 3066.401123 1147.047119 1403.628296
vn 0.587014 0.530922 1.148087
v 3066.156006 1142.785522 1409.523560
vn 0.712528 0.021930 1.139578
v 3070.662109 1143.878540 1406.685059
vn 0.477093 -0.174044 1.510734
v 3070.596680 1138.354492 1406.832275
vn 0.590956 -0.636179 1.964599
v 3075.650146 1134.044434 1405.718506
vn 0.006614 -0.202483 0.813577
v 3079.627197 1138.885376 1406.890991
vn 1.502196 -0.633551 1.398095
v 3078.862549 1131.560791 1400.532715
vn 0.660436 -0.306280 0.555803
v 3081.340576 1136.996338 1400.583496
vn 0.005766 -0.111892 0.630577
v 2936.068604 1136.172241 1374.181030
vn -0.078807 0.186743 1.532158
v 2962.323486 1714.005127 1401.697632
vn -0.035743 0.086207 0.821370
v 2969.410400 1722.653564 1401.008057
vn 0.249204 -0.184700 0.904817
v 2949.435547 1139.801025 1373.298462
vn 0.078822 -0.100447 0.486076
v 2955.622070 1140.568604 1371.685791
vn 0.124611 -0.219299 1.243210
v 2966.315430 1136.735229 1369.078613
vn 0.062054 -0.090469 1.193869
v 2980.973877 1135.083130 1366.891724
vn 0.011669 -0.034646 0.763813
v 2987.283691 1134.175171 1366.304688
vn -0.060693 0.033020 1.009321
v 3009.112793 1137.056763 1366.326782
vn -0.594294 -0.037982 0.127483
v 3052.408691 1140.580811 1385.155029
vn -0.025181 -0.000439 0.739322
v 2995.030273 1138.954956 1365.988281
vn -0.135872 0.039266 0.502252
v 3042.988770 1140.115723 1370.537476
vn -1.179607 -1.374448 -0.296863
v 3105.582520 1460.491943 1381.919434
vn -0.156491 -1.093515 0.571663
v 3103.740723 1463.124634 1387.104248
vn -0.631484 -1.438289 0.876412
v 3107.403809 1462.705200 1387.304688
vn -0.575797 -1.313984 0.337721
v 3105.736572 1465.608154 1392.401245
vn -0.559728 -0.871689 0.063970
v 3102.492188 1468.055908 1397.367798
vn -0.631662 -0.874068 0.244746
v 3105.195801 1468.478149 1405.130737
vn -1.030615 -1.536445 0.225710
v 3107.135010 1465.135620 1398.198364
vn -1.077859 -1.501173 0.469202
v 3109.403564 1465.431519 1405.109985
vn 0.154582 -1.055477 0.864452
v 3113.343750 1466.538696 1415.054321
vn 0.320386 -0.976826 -0.121539
v 3116.260986 1472.209106 1421.522461
vn 1.209615 -1.188041 0.536231
v 3114.560791 1472.372803 1415.724976
vn -0.827752 -0.502281 0.249412
v 3121.392578 1474.117920 1423.368042
vn -0.519425 -1.590452 0.129285
v 3119.802490 1473.861816 1417.575073
vn 0.143788 -0.438589 0.288854
v 3122.996338 1469.718140 1419.830078
vn 1.052875 0.110935 0.016269
v 3122.461670 1475.108032 1417.679565
vn 1.069568 -0.057792 0.013211
v 3123.316162 1475.912354 1411.897461
vn 2.079076 0.050626 0.028849
v 3123.000488 1470.540405 1413.954712
vn 1.762149 -0.189528 0.032878
v 3123.120361 1471.410522 1408.055908
vn 1.618910 -0.290615 0.043932
v 3124.256836 1477.077881 1403.666626
vn 2.076625 -0.573409 -0.047414
v 3125.151367 1478.835327 1390.667480
vn 1.281873 -0.284346 0.006736
v 3123.700684 1473.027588 1397.367798
vn 0.984206 -0.198971 0.254241
v 3125.419922 1480.724731 1377.020752
vn 1.507793 -0.333635 0.279967
v 3124.040771 1475.817749 1378.519409
vn 0.771638 0.432675 0.725868
v 3124.761719 1480.931152 1370.934937
vn 1.579447 0.212260 0.883465
v 3125.518311 1476.092651 1373.014771
vn -0.256237 -0.760497 0.676582
v 3130.168945 1481.285522 1372.727783
vn 0.393658 -0.396283 1.288222
v 3128.759766 1477.959839 1368.455933
vn -0.122219 -0.531922 0.912658
v 3135.791992 1482.300537 1373.196899
vn -0.376394 -1.286049 1.582925
v 3134.028564 1477.921997 1370.408813
vn 0.200459 -0.403189 0.984671
v 3141.416992 1483.247192 1373.039185
vn 0.081679 -0.907621 1.847286
v 3139.537354 1478.468994 1371.465332
vn 0.320839 -0.795753 1.484095
v 3151.187256 1484.951050 1372.352661
vn 0.299705 -0.657676 1.438662
v 3145.074463 1479.570068 1370.788940
vn -0.303752 -0.810679 0.121023
v 3156.238037 1481.548584 1369.436401
vn 0.018632 -0.817676 0.306414
v 3157.885498 1485.507935 1365.105347
vn -0.130158 -0.866175 0.086220
v 3153.816162 1486.374146 1367.664307
vn 0.680661 -0.648640 -0.270649
v 3154.806641 1480.771973 1365.626709
vn 0.322193 -0.557515 -1.212493
v 3152.541016 1484.402710 1363.355225
vn 0.354758 -0.893242 -1.252462
v 3143.729004 1482.496826 1361.088379
vn 0.358209 -0.783563 -1.299637
v 3147.092529 1479.565796 1364.131470
vn 0.530469 -0.518276 -0.898319
v 3136.058594 1480.881836 1359.778564
vn 0.661043 -0.866641 -1.382666
v 3138.263428 1478.030518 1362.725586
vn -0.799551 -0.790699 -0.393195
v 3130.532715 1479.538696 1359.333984
vn -0.375096 -1.122703 -1.020068
v 3133.189209 1476.102905 1360.841309
vn 0.565237 -0.670852 -0.811755
v 3125.606445 1478.246704 1362.012817
vn -0.020712 -1.175462 -1.033583
v 3129.300537 1478.122314 1364.687866
vn -0.860282 -0.882034 0.151515
v 3122.389404 1477.067261 1366.651489
vn -0.370108 -1.241468 -0.425803
v 3125.458740 1473.879150 1365.519409
vn -0.343117 -1.040189 -0.517943
v 3120.829834 1476.194824 1372.332153
vn -0.878000 -1.544068 -0.386327
v 3125.011230 1475.313965 1371.331177
vn -0.377931 -0.895072 -0.373177
v 3123.264160 1473.346802 1376.439209
vn -1.450112 -2.009471 -0.310183
v 3118.518799 1474.614258 1390.412842
vn -0.211249 0.422656 -1.033068
v 3117.348145 1474.014648 1401.689819
vn -0.455993 0.161367 -1.192938
v 3120.510986 1471.682983 1400.089111
vn 0.999544 -0.032162 -0.617044
v 3115.761719 1468.599121 1399.798584
vn 1.533152 -0.417141 0.082594
v 3116.588379 1470.990234 1396.530029
vn 2.007406 -0.468790 0.135004
v 3115.318848 1463.633911 1383.926392
vn 0.997688 -0.246710 0.062336
v 3114.753662 1462.934570 1389.901855
vn -1.009469 -0.478991 -0.505867
v 3114.299316 1458.806396 1375.525269
vn -0.616355 -0.578174 -0.483950
v 3113.973877 1456.320190 1378.528809
vn -0.690411 -0.694457 -0.772341
v 3111.005615 1461.246094 1379.787842
vn -1.191983 -1.443255 -0.391177
v 3108.069336 1458.042114 1383.380371
vn -0.824744 -1.166980 0.456712
v 3108.532959 1469.404297 1413.688965
vn 0.829651 -0.241582 0.595979
v 3111.140137 1470.267822 1419.633545
vn -0.532686 0.845069 -0.251026
v 2821.633057 1772.465332 1365.097900
vn 0.187134 0.295281 2.174452
v 2830.474609 1739.017944 1401.126343
vn 0.119018 0.193626 1.516570
v 2836.726807 1736.249390 1400.964233
vn 0.101623 0.118983 1.108814
v 2825.361328 1747.313599 1400.403076
vn 0.180946 0.224437 1.996205
v 2828.175537 1749.157715 1399.947266
vn 0.085575 0.034409 1.064253
v 2820.994629 1755.183594 1399.819336
vn 0.158896 0.089597 1.925105
v 2824.087402 1756.579712 1399.525513
vn 0.043295 0.110692 1.326347
v 2821.534912 1762.168823 1399.550049
vn -0.107662 0.672491 2.094243
v 2819.094727 1767.898926 1398.899414
vn -0.381921 1.514274 1.153036
v 2817.512695 1772.267578 1394.622681
vn -0.444510 1.477279 0.149974
v 2817.696777 1773.016113 1388.586426
vn -0.347729 1.166493 0.134048
v 2814.491455 1772.005737 1389.063965
vn -1.050309 3.174406 0.017920
v 2819.405029 1773.597046 1379.109741
vn -0.729192 1.565130 -0.154101
v 2822.307617 1774.793213 1371.503174
vn -0.578541 1.589115 0.021715
v 2817.708740 1773.075439 1372.087769
vn 0.129673 0.403668 -2.297535
v 2882.912842 1736.168091 1363.169189
vn 0.077783 0.177376 -0.931782
v 2877.711426 1741.838135 1363.871826
vn 0.015254 0.074463 -0.558273
v 2896.604248 1735.690552 1363.858032
vn 0.002439 0.086515 0.752787
v 2812.958740 1765.225342 1399.226562
vn -0.136737 0.600306 0.663790
v 2812.429199 1770.411011 1395.254517
vn -0.207858 0.238204 -0.528209
v 2826.200684 1765.860718 1361.706055
vn 0.013027 0.116959 -0.612543
v 2830.936523 1762.069946 1361.354248
vn 0.091956 0.095045 -0.596050
v 2836.011230 1758.099243 1361.261230
vn 0.177140 0.144584 -0.737412
v 2841.048096 1754.284546 1361.231445
vn 0.231819 0.351824 -1.523416
v 2857.281738 1747.241089 1362.409546
vn 0.082319 0.110392 -0.431465
v 2855.621826 1744.711060 1361.406250
vn 0.261684 0.467793 -2.245964
v 2868.514404 1741.969604 1362.827637
vn 0.440820 0.396309 -1.910101
v 2844.824219 1760.021118 1363.263306
vn 0.442919 0.420320 -2.471139
v 2839.025635 1764.455688 1362.739868
vn 0.147581 0.445558 -2.451809
v 2834.238037 1768.307617 1362.615479
vn -0.581880 0.825808 -2.256932
v 2829.448242 1772.084351 1363.234741
vn -0.987720 1.454489 -0.993998
v 2825.095215 1774.992676 1366.259277
vn 0.506974 0.695379 -2.774084
v 2854.046631 1753.833862 1363.439819
vn 0.186589 0.295461 -1.317674
v 2861.827637 1749.235474 1363.561890
vn 0.003079 0.203647 0.808739
v 2907.350342 1707.633667 1400.875977
vn 0.101978 0.769904 3.138279
v 2895.041504 1707.687256 1401.193604
vn 0.105920 0.542268 2.354500
v 2890.208984 1703.666992 1402.336914
vn 0.076841 0.239455 1.305924
v 2879.598633 1709.220215 1401.610718
vn 0.057160 0.138960 0.989526
v 2868.214355 1712.559326 1401.770874
vn 0.109510 0.289689 1.744461
v 2875.593262 1706.198120 1402.364014
vn 0.074893 0.134132 1.103102
v 2850.570068 1723.314819 1401.529175
vn 0.144636 0.240240 1.956239
v 2836.151367 1732.080078 1401.518799
vn -1.347796 0.351815 0.250161
v 2747.802002 1130.409790 1394.508423
vn -1.259073 0.329085 0.266163
v 2744.980469 1124.233887 1387.992310
vn -0.759504 0.146170 0.136695
v 2748.797363 1129.710693 1403.246338
vn -1.872997 0.420616 0.342038
v 2746.933594 1123.545166 1399.483765
vn -1.741930 0.230605 0.581215
v 2747.865967 1123.383301 1404.837280
vn -0.330940 -0.190157 1.472833
v 2751.779541 1127.636353 1410.165405
vn -0.873061 -0.296464 2.482352
v 2751.452637 1123.347412 1409.538208
vn 0.515045 -0.208782 1.230749
v 2758.036133 1123.393433 1407.260620
vn 0.827826 -0.293453 1.753632
v 2763.052734 1128.606934 1405.764893
vn 0.164678 -0.413387 1.971544
v 2921.993652 1127.215454 1372.161255
vn 0.090539 0.165144 1.361251
v 2850.642090 1717.152588 1402.271973
vn 0.109768 0.236203 1.961302
v 2861.252197 1711.541870 1402.269897
vn 0.189295 -0.684930 3.076847
v 2916.219238 1127.159668 1372.755371
vn 0.067506 -0.384688 1.699103
v 2909.241699 1127.092163 1372.855957
vn 0.180225 -0.405647 1.741129
v 2889.594971 1139.974854 1377.481934
vn 0.329997 -0.709083 3.038065
v 2888.504639 1126.725342 1374.507935
vn 0.148053 -0.340362 1.479971
v 2874.920654 1126.391235 1376.212402
vn 0.113189 -0.361162 1.605295
v 2866.704346 1134.014526 1378.506836
vn 0.095045 -0.283005 1.491798
v 2857.481934 1125.883423 1377.327759
vn 0.094473 -0.260070 1.633568
v 2851.614014 1131.654785 1378.585938
vn 0.231955 -0.267101 1.567255
v 2844.205566 1125.444946 1378.025757
vn 0.566186 -0.422436 2.198926
v 2837.168457 1125.263794 1379.501221
vn 0.506906 -0.331739 1.553998
v 2832.037354 1132.342285 1382.686035
vn 0.497227 -0.387157 1.562806
v 2820.638428 1124.880493 1384.811401
vn 0.340854 -0.283536 1.109995
v 2801.827637 1124.383545 1390.588379
vn 0.519022 -0.416582 1.783467
v 2790.165039 1128.562866 1394.958618
vn 0.490847 -0.303465 1.466064
v 2786.300537 1123.929932 1395.001099
vn 0.654663 -0.290057 1.675819
v 2780.881592 1128.726562 1397.948242
vn 0.388641 -0.157450 0.921374
v 2774.126465 1123.547852 1399.690796
vn 0.045292 -0.178278 0.800389
v 2915.839355 1141.409790 1375.950928
vn 0.182507 0.388791 3.232605
v 2862.424805 1715.142578 1401.770630
vn 0.084251 0.159766 1.323534
v 2856.932861 1718.424805 1401.699219
vn 0.165577 -0.138071 0.772756
v 2838.586182 1133.127808 1380.602539
vn 0.343995 -0.290227 1.095137
v 2814.812744 1138.467041 1390.241943
vn -0.244490 0.391154 -3.108243
v 2896.939941 1127.555542 1369.410278
vn -0.148618 0.229214 -1.757597
v 2888.829834 1127.809326 1370.104614
vn -0.083535 0.132197 -1.052199
v 2893.106689 1141.236572 1371.433472
vn 1.501576 -0.167095 -0.561155
v 3083.419434 1131.062134 1383.152832
vn 2.791760 -0.322076 -1.100686
v 3083.204102 1125.237915 1384.310913
vn 0.262805 0.046602 -0.868741
v 3077.951172 1130.795898 1379.039795
vn 1.020366 -0.032786 -1.673141
v 3079.899414 1124.123657 1379.271240
vn 0.410370 0.119526 -1.445511
v 3073.173584 1123.770508 1377.217651
vn 0.341156 -0.058151 -1.207744
v 3047.850098 1127.920898 1370.245850
vn 0.446835 0.011962 -1.629007
v 3050.300537 1122.607910 1371.193848
vn -0.103020 0.164220 -1.437793
v 2906.477539 1127.244629 1368.640137
vn -0.096229 0.162048 -1.512941
v 2934.309326 1126.172363 1366.695557
vn -0.190147 0.327652 -2.342533
v 2956.572021 1125.130737 1365.214111
vn -0.110198 0.228723 -1.546487
v 2970.786133 1124.326782 1363.563599
vn -0.073754 0.193144 -1.446235
v 2974.979248 1129.907715 1364.095093
vn 0.002100 0.077213 -0.865295
v 2982.181396 1131.260986 1363.601196
vn -0.031102 0.228964 -2.226553
v 2981.679199 1123.720581 1362.927124
vn 0.021491 0.060117 -1.190303
v 2990.420898 1123.328247 1362.913330
vn 0.039006 -0.008271 -0.927984
v 3006.212646 1130.568604 1363.512573
vn 0.125273 -0.054619 -2.268294
v 3004.527100 1122.756470 1363.511353
vn 0.108451 -0.081404 -1.097699
v 3020.239258 1131.437378 1364.419922
vn 0.238027 -0.197780 -2.087963
v 3020.543701 1122.343506 1365.124390
vn 0.287065 -0.276086 -1.886844
v 3029.248291 1128.272461 1365.581177
vn 0.282363 -0.186076 -1.325078
v 3037.706055 1122.279297 1367.744873
vn 0.186853 -0.096640 -0.712337
v 3042.641846 1127.020508 1368.396362
vn 0.610769 -0.246681 -2.274106
v 3042.213379 1122.301392 1368.924194
vn 0.489840 0.237463 -1.905808
v 3062.024170 1130.890625 1375.239136
vn -0.064302 0.119545 -1.050371
v 2953.067871 1142.381348 1367.391968
vn -0.157086 0.255170 -1.477108
v 2960.904053 1131.633179 1365.876709
vn -0.111638 0.169764 -1.691432
v 2922.088623 1138.766968 1368.766235
vn -0.231447 0.338775 -2.279370
v 2876.165527 1134.758179 1372.285400
vn -0.328036 0.464362 -3.090015
v 2873.824463 1128.210327 1371.549927
vn -0.199009 0.217739 -1.409489
v 2857.773682 1128.578125 1373.459961
vn -0.338611 0.355230 -2.055253
v 2843.623779 1128.856323 1375.618408
vn -0.650593 0.566271 -3.003133
v 2838.453369 1128.959839 1376.570801
vn -0.621868 0.416147 -2.245197
v 2830.149658 1129.137817 1378.767212
vn -0.818076 0.498714 -2.619393
v 2823.755615 1129.273926 1380.647217
vn -1.108131 0.598995 -2.853586
v 2814.452393 1129.480835 1383.871094
vn -0.823187 0.386855 -2.125666
v 2804.489014 1129.776611 1388.175537
vn -0.517971 0.264356 -2.094764
v 2799.312012 1129.866577 1390.077759
vn 0.096131 0.070531 -2.705663
v 2786.121338 1129.657715 1390.546753
vn 0.819537 -0.119949 -3.034252
v 2781.002441 1129.464600 1390.007324
vn 1.352865 -0.255050 -2.107193
v 2776.177734 1129.037842 1388.078613
vn 1.691870 -0.339635 -1.484579
v 2772.137451 1128.366333 1384.839111
vn 1.938586 -0.341633 -0.604667
v 2769.055420 1127.227173 1379.432007
vn 2.374761 -0.358998 -0.225239
v 2768.696533 1124.838379 1367.606567
vn 2.019014 -0.332226 -0.845159
v 2767.259766 1123.640625 1361.902832
vn 0.758693 -0.120886 -0.165729
v 2768.485352 1130.939941 1362.189209
vn 1.272247 -0.208033 -1.892983
v 2763.786621 1122.630737 1357.466919
vn 0.754551 -0.130549 -0.561063
v 2764.995117 1128.295166 1357.774170
vn 0.054202 0.044423 -2.322313
v 2758.605469 1122.052612 1356.160645
vn -0.691290 0.237453 -1.975919
v 2753.086914 1121.820068 1357.314453
vn -1.218498 0.407959 -1.655682
v 2747.899902 1121.835205 1360.210571
vn -0.479035 0.164551 -0.858822
v 2749.968506 1127.038574 1360.053711
vn -1.679150 0.551567 -1.202824
v 2743.777588 1122.072266 1364.632690
vn -0.659584 0.215423 -0.626414
v 2745.874268 1127.511841 1364.295654
vn -2.726505 0.939251 -0.547714
v 2741.522949 1122.505249 1370.251709
vn -1.477090 0.507964 -0.311203
v 2743.599121 1128.326416 1369.899048
vn -2.088788 0.620082 0.332026
v 2741.722656 1123.057617 1376.267700
vn -1.142407 0.299199 0.287413
v 2743.384766 1129.361938 1376.311401
vn -0.038330 0.069851 -1.046950
v 2788.363281 1139.789185 1391.140625
vn 0.774304 -0.153297 -0.409054
v 2770.285400 1133.692261 1379.337402
vn 0.180146 -0.023894 -0.703951
v 2760.521240 1129.361206 1356.402832
vn -0.153351 0.052671 -0.722846
v 2755.514160 1129.168335 1357.334961
vn -0.234453 0.190521 -1.016225
v 2837.555420 1140.652466 1378.970093
vn -0.378430 0.206474 -0.993431
v 2819.011963 1145.774292 1385.520630
vn 0.166441 -0.024112 -0.695059
v 2783.093262 1142.693848 1390.049072
vn 0.963280 -0.139655 -0.001023
v 2770.204834 1135.241577 1367.658936
vn -0.144467 0.149553 -0.966340
v 2851.476807 1141.838989 1376.453613
vn -0.063880 0.040846 -0.220219
v 2825.238281 1156.828369 1385.327881
vn -0.086715 0.037891 -0.237792
v 2803.219482 1151.019287 1392.023438
vn 0.141232 -0.028718 -0.170191
v 2775.204590 1151.723877 1383.442993
vn 0.170829 -1.888049 0.179326
v 2733.126953 1452.888672 1372.172974
vn 0.034766 -1.210100 0.153310
v 2736.360840 1452.846802 1371.109131
vn 0.247530 -1.377095 -0.229995
v 2736.155762 1453.605469 1377.143921
vn 0.296017 -1.031463 -0.387396
v 2740.317627 1453.252075 1381.265015
vn 0.426754 -1.785890 0.033441
v 2733.654053 1452.902222 1366.170044
vn 0.377318 -1.072461 -0.058885
v 2729.230225 1451.813843 1364.500244
vn 0.837186 -1.430949 -0.329012
v 2725.355469 1451.163574 1356.645142
vn 0.715516 -1.239617 -0.250330
v 2728.407959 1453.018921 1356.182495
vn 0.967288 -1.587122 -0.503011
v 2724.212891 1453.107178 1348.315430
vn 0.906681 -1.096715 -0.365704
v 2720.007568 1451.077515 1346.632690
vn 0.334618 -1.256212 -0.516483
v 2717.713379 1450.310913 1341.416504
vn 0.897899 -0.782262 -0.279949
v 2720.258301 1453.267944 1341.316162
vn -0.326639 -1.172220 -0.631048
v 2714.645996 1454.679932 1340.022705
vn -0.848036 -0.708273 -0.353857
v 2717.030762 1453.439209 1336.790894
vn 0.280409 -0.935656 -0.764193
v 2710.938477 1451.533325 1337.377808
vn 0.867566 -0.677988 -0.409526
v 2712.198242 1454.603882 1334.963135
vn -1.444425 -0.600880 -0.967952
v 2707.715820 1453.651245 1341.733887
vn -1.008186 -0.385245 -0.558557
v 2708.320068 1456.477783 1338.693726
vn -2.336506 -0.992613 -1.890639
v 2703.705078 1455.072021 1345.351685
vn -1.615075 -0.690268 -1.313935
v 2703.875977 1458.514038 1343.333374
vn -0.679813 -0.281620 -0.410619
v 2694.349121 1458.987061 1356.146973
vn -1.551003 -0.664008 -1.040089
v 2690.042969 1460.959473 1362.388916
vn -1.142348 -0.489524 -0.633389
v 2690.367676 1464.177856 1359.315918
vn -2.024369 -0.065367 -0.629663
v 2686.322510 1461.870239 1366.304565
vn -1.937999 -0.068859 -0.611375
v 2687.023926 1465.458496 1363.677002
vn -1.488192 0.061428 -0.430638
v 2687.765137 1466.580933 1369.606445
vn -0.746712 -0.762594 0.177688
v 2686.110840 1462.620239 1373.154175
vn -0.949444 -0.160213 -0.621585
v 2684.740234 1467.110107 1374.090454
vn 0.361212 -1.577165 1.281901
v 2691.015137 1462.481445 1372.021851
vn 0.165441 -0.626309 0.793325
v 2689.626465 1466.064453 1375.140137
vn -0.202422 -1.724849 1.040486
v 2695.902832 1462.929443 1370.859131
vn 0.183971 -0.910608 0.422494
v 2694.565430 1464.722412 1375.305908
vn -0.225221 -1.390109 1.420904
v 2700.512207 1460.382324 1370.894653
vn -0.424998 -0.760654 0.605242
v 2699.583252 1463.818359 1374.560669
vn 0.444001 -1.058924 1.744258
v 2705.335449 1459.721802 1369.174316
vn 0.203950 -0.623216 0.811089
v 2704.307617 1463.602783 1372.414795
vn 0.860122 -0.851097 1.652803
v 2710.188721 1458.969482 1367.576904
vn 0.236556 -0.426009 0.919340
v 2708.950195 1463.399170 1369.948242
vn 0.843273 -0.684158 1.702296
v 2714.260010 1458.843628 1363.992920
vn 0.647229 -0.436789 0.750569
v 2713.461914 1463.032837 1367.119019
vn 1.043378 -0.813308 1.172493
v 2719.134033 1457.674072 1362.531250
vn 0.230558 -0.269502 0.984452
v 2717.923828 1462.525146 1364.142700
vn 0.822623 -0.177085 1.163864
v 2720.821289 1458.201904 1356.982666
vn 0.947913 -0.635244 0.227818
v 2722.181152 1461.618164 1360.850342
vn -0.861318 0.114577 0.913910
v 2725.455566 1455.649170 1357.795898
vn 0.027647 0.380632 1.037255
v 2725.213867 1460.484863 1356.027832
vn -1.967399 -0.486149 -0.263422
v 2725.436523 1455.091187 1363.646240
vn -1.078552 -0.279753 -0.030192
v 2724.269531 1459.792236 1361.775879
vn -1.637570 -0.399643 -0.338130
v 2724.235352 1453.988159 1369.220581
vn -1.040098 -0.241631 -0.271936
v 2723.529053 1458.936890 1367.524780
vn -1.627711 -0.429854 -0.183252
v 2722.526123 1457.403442 1376.391357
vn -1.590098 -0.556225 -0.124693
v 2723.517334 1452.082153 1380.069214
vn -1.859954 -0.858621 -0.182995
v 2723.663574 1451.082520 1386.468872
vn -1.087766 -0.471939 -0.048860
v 2721.717773 1455.752930 1384.676636
vn -1.457514 -1.154426 0.154979
v 2723.385986 1449.815430 1392.141357
vn -0.977065 -0.481863 -0.155449
v 2721.346680 1454.520996 1390.372925
vn -1.411192 -1.292996 -0.089781
v 2725.307861 1450.790283 1397.605103
vn -0.647178 -0.865284 0.382031
v 2721.108154 1453.250488 1396.062866
vn -1.378555 -1.024503 0.159935
v 2724.762695 1447.415039 1402.147583
vn -0.843619 -0.502228 -0.474422
v 2722.105957 1452.229980 1401.774658
vn -1.628810 -0.991498 0.938455
v 2728.676025 1447.254150 1405.847656
vn -0.576205 -0.541336 0.585877
v 2725.236328 1451.491821 1406.380249
vn -0.007595 -0.500961 -0.113585
v 2730.725342 1445.282715 1410.733765
vn 0.598974 -1.229616 -0.539534
v 2730.741699 1450.701416 1408.832275
vn -0.601699 -1.676961 0.557857
v 2733.482422 1450.578857 1403.899902
vn -0.330054 -1.019126 -0.158074
v 2735.442383 1449.115967 1409.239014
vn 0.451895 -1.475933 0.299936
v 2735.080566 1446.529053 1399.742920
vn -0.335180 -0.850894 0.700097
v 2738.191650 1448.976318 1404.206787
vn 0.866597 -1.040565 -0.273502
v 2738.774658 1449.948853 1398.436768
vn 0.798091 -1.236818 -0.323191
v 2735.279785 1448.852295 1391.535156
vn 0.610858 -1.618564 -0.537016
v 2735.777344 1451.421143 1382.670654
vn 0.704546 -1.342112 -0.349386
v 2739.611816 1451.888062 1388.609375
vn 0.985473 -0.136824 -0.381432
v 2732.585205 1449.439819 1414.047729
vn -0.920825 -0.347067 0.246176
v 2728.647949 1450.686401 1410.581543
# 380 vertices, 0 vertices normals


usemtl material_0
vt 0.000000 0.000000
f 26/1/26 25/1/25 24/1/24
f 46/1/46 47/1/47 86/1/86
f 49/1/49 51/1/51 88/1/88
f 88/1/88 51/1/51 50/1/50
f 57/1/57 56/1/56 58/1/58
f 94/1/94 58/1/58 59/1/59
f 60/1/60 59/1/59 61/1/61
f 74/1/74 73/1/73 72/1/72
f 76/1/76 75/1/75 74/1/74
f 78/1/78 77/1/77 76/1/76
f 42/1/42 81/1/81 39/1/39
f 34/1/34 33/1/33 85/1/85
f 35/1/35 84/1/84 85/1/85
f 98/1/98 96/1/96 97/1/97
f 129/1/129 128/1/128 130/1/130
f 95/1/95 155/1/155 156/1/156
f 2/1/2 1/1/1 176/1/176
f 186/1/186 182/1/182 187/1/187
f 187/1/187 181/1/181 188/1/188
f 188/1/188 180/1/180 189/1/189
f 189/1/189 179/1/179 190/1/190
f 190/1/190 159/1/159 172/1/172
f 175/1/175 185/1/185 192/1/192
f 205/1/205 207/1/207 206/1/206
f 213/1/213 210/1/210 230/1/230
f 216/1/216 214/1/214 215/1/215
f 225/1/225 224/1/224 234/1/234
f 212/1/212 197/1/197 231/1/231
f 212/1/212 231/1/231 232/1/232
f 238/1/238 40/1/40 239/1/239
f 252/1/252 251/1/251 250/1/250
f 259/1/259 260/1/260 258/1/258
f 247/1/247 246/1/246 262/1/262
f 265/1/265 236/1/236 266/1/266
f 303/1/303 267/1/267 268/1/268
f 300/1/300 271/1/271 272/1/272
f 295/1/295 274/1/274 275/1/275
f 296/1/296 278/1/278 279/1/279
f 279/1/279 280/1/280 302/1/302
f 301/1/301 275/1/275 276/1/276
f 305/1/305 273/1/273 274/1/274
f 306/1/306 277/1/277 278/1/278
f 304/1/304 270/1/270 271/1/271
f 308/1/308 309/1/309 307/1/307
f 2/1/2 4/1/4 3/1/3
f 29/1/29 4/1/4 5/1/5
f 6/1/6 5/1/5 28/1/28
f 15/1/15 32/1/32 7/1/7
f 16/1/16 15/1/15 8/1/8
f 17/1/17 16/1/16 9/1/9
f 18/1/18 17/1/17 10/1/10
f 19/1/19 18/1/18 11/1/11
f 20/1/20 19/1/19 12/1/12
f 21/1/21 20/1/20 13/1/13
f 23/1/23 21/1/21 14/1/14
f 25/1/25 23/1/23 22/1/22
f 27/1/27 28/1/28 26/1/26
f 32/1/32 33/1/33 34/1/34
f 36/1/36 35/1/35 37/1/37
f 38/1/38 37/1/37 30/1/30
f 39/1/39 40/1/40 41/1/41
f 43/1/43 44/1/44 45/1/45
f 83/1/83 45/1/45 46/1/46
f 86/1/86 47/1/47 48/1/48
f 87/1/87 48/1/48 49/1/49
f 89/1/89 50/1/50 52/1/52
f 90/1/90 52/1/52 53/1/53
f 91/1/91 54/1/54 55/1/55
f 57/1/57 55/1/55 56/1/56
f 60/1/60 61/1/61 63/1/63
f 62/1/62 63/1/63 64/1/64
f 92/1/92 64/1/64 66/1/66
f 65/1/65 66/1/66 68/1/68
f 67/1/67 68/1/68 70/1/70
f 69/1/69 70/1/70 71/1/71
f 71/1/71 72/1/72 73/1/73
f 78/1/78 79/1/79 80/1/80
f 79/1/79 81/1/81 82/1/82
f 93/1/93 53/1/53 54/1/54
f 99/1/99 98/1/98 101/1/101
f 100/1/100 101/1/101 102/1/102
f 157/1/157 102/1/102 103/1/103
f 158/1/158 103/1/103 105/1/105
f 104/1/104 105/1/105 107/1/107
f 106/1/106 107/1/107 108/1/108
f 109/1/109 108/1/108 111/1/111
f 110/1/110 111/1/111 112/1/112
f 113/1/113 112/1/112 115/1/115
f 114/1/114 115/1/115 117/1/117
f 116/1/116 117/1/117 119/1/119
f 118/1/118 119/1/119 121/1/121
f 120/1/120 121/1/121 123/1/123
f 122/1/122 123/1/123 125/1/125
f 124/1/124 125/1/125 127/1/127
f 126/1/126 127/1/127 128/1/128
f 129/1/129 130/1/130 131/1/131
f 132/1/132 131/1/131 134/1/134
f 133/1/133 134/1/134 136/1/136
f 135/1/135 136/1/136 138/1/138
f 137/1/137 138/1/138 140/1/140
f 139/1/139 140/1/140 142/1/142
f 141/1/141 142/1/142 144/1/144
f 143/1/143 144/1/144 145/1/145
f 146/1/146 145/1/145 148/1/148
f 147/1/147 148/1/148 149/1/149
f 150/1/150 149/1/149 152/1/152
f 151/1/151 152/1/152 154/1/154
f 153/1/153 154/1/154 155/1/155
f 95/1/95 156/1/156 97/1/97
f 160/1/160 161/1/161 163/1/163
f 162/1/162 163/1/163 165/1/165
f 164/1/164 165/1/165 166/1/166
f 166/1/166 167/1/167 177/1/177
f 167/1/167 168/1/168 178/1/178
f 168/1/168 169/1/169 170/1/170
f 169/1/169 171/1/171 173/1/173
f 171/1/171 172/1/172 173/1/173
f 174/1/174 175/1/175 176/1/176
f 184/1/184 186/1/186 191/1/191
f 183/1/183 191/1/191 192/1/192
f 30/1/30 193/1/193 31/1/31
f 193/1/193 194/1/194 195/1/195
f 194/1/194 196/1/196 195/1/195
f 196/1/196 197/1/197 198/1/198
f 200/1/200 199/1/199 161/1/161
f 201/1/201 202/1/202 204/1/204
f 203/1/203 204/1/204 205/1/205
f 206/1/206 207/1/207 208/1/208
f 210/1/210 44/1/44 43/1/43
f 214/1/214 213/1/213 230/1/230
f 217/1/217 216/1/216 215/1/215
f 218/1/218 219/1/219 217/1/217
f 220/1/220 221/1/221 219/1/219
f 233/1/233 222/1/222 221/1/221
f 223/1/223 224/1/224 222/1/222
f 226/1/226 227/1/227 225/1/225
f 228/1/228 229/1/229 227/1/227
f 209/1/209 208/1/208 229/1/229
f 232/1/232 199/1/199 211/1/211
f 235/1/235 236/1/236 237/1/237
f 238/1/238 239/1/239 241/1/241
f 240/1/240 241/1/241 242/1/242
f 261/1/261 242/1/242 244/1/244
f 246/1/246 245/1/245 264/1/264
f 248/1/248 247/1/247 263/1/263
f 249/1/249 251/1/251 248/1/248
f 253/1/253 254/1/254 252/1/252
f 255/1/255 256/1/256 254/1/254
f 257/1/257 258/1/258 256/1/256
f 243/1/243 244/1/244 260/1/260
f 245/1/245 235/1/235 237/1/237
f 265/1/265 266/1/266 267/1/267
f 299/1/299 268/1/268 269/1/269
f 270/1/270 299/1/299 269/1/269
f 280/1/280 281/1/281 282/1/282
f 281/1/281 283/1/283 284/1/284
f 283/1/283 285/1/285 297/1/297
f 285/1/285 286/1/286 298/1/298
f 286/1/286 287/1/287 288/1/288
f 287/1/287 289/1/289 290/1/290
f 289/1/289 291/1/291 292/1/292
f 292/1/292 291/1/291 293/1/293
f 294/1/294 293/1/293 202/1/202
f 273/1/273 300/1/300 272/1/272
f 277/1/277 301/1/301 276/1/276
f 307/1/307 312/1/312 311/1/311
f 312/1/312 313/1/313 314/1/314
f 313/1/313 316/1/316 315/1/315
f 316/1/316 317/1/317 318/1/318
f 317/1/317 319/1/319 320/1/320
f 319/1/319 321/1/321 322/1/322
f 321/1/321 323/1/323 324/1/324
f 323/1/323 325/1/325 326/1/326
f 325/1/325 327/1/327 326/1/326
f 327/1/327 328/1/328 329/1/329
f 328/1/328 330/1/330 331/1/331
f 331/1/331 330/1/330 332/1/332
f 332/1/332 333/1/333 334/1/334
f 333/1/333 335/1/335 336/1/336
f 335/1/335 337/1/337 338/1/338
f 337/1/337 339/1/339 340/1/340
f 339/1/339 341/1/341 342/1/342
f 341/1/341 343/1/343 344/1/344
f 343/1/343 345/1/345 346/1/346
f 345/1/345 347/1/347 348/1/348
f 347/1/347 349/1/349 350/1/350
f 349/1/349 351/1/351 352/1/352
f 351/1/351 353/1/353 354/1/354
f 353/1/353 355/1/355 356/1/356
f 355/1/355 358/1/358 357/1/357
f 358/1/358 359/1/359 360/1/360
f 359/1/359 361/1/361 362/1/362
f 361/1/361 363/1/363 364/1/364
f 363/1/363 365/1/365 366/1/366
f 365/1/365 367/1/367 368/1/368
f 367/1/367 369/1/369 380/1/380
f 369/1/369 370/1/370 379/1/379
f 370/1/370 371/1/371 372/1/372
f 371/1/371 373/1/373 374/1/374
f 373/1/373 376/1/376 375/1/375
f 376/1/376 377/1/377 378/1/378
f 377/1/377 309/1/309 310/1/310
# 202 faces, 1 coords texture

# End of File
