# .PCD v0.7 - Point Cloud Data file format
VERSION 0.7
FIELDS x y z
SIZE 4 4 4
TYPE F F F
COUNT 1 1 1
WIDTH 10
HEIGHT 1
VIEWPOINT 0 0 0 1 0 0 0
POINTS 10
DATA ascii
3005.908691 1279.611694 1381.742188 
2774.632324 1681.938599 1385.876587 
2773.573975 1730.380615 1381.080688 
2865.685547 1722.682129 1375.558472 
2774.388672 1732.441895 1380.407593 
2774.286621 1685.463379 1385.538818 
2769.945312 1700.719971 1384.331543 
2750.303711 1704.708252 1389.880737 
2759.481934 1650.433228 1388.702637 
2777.034668 1702.380127 1383.124634 