# .PCD v0.7 - Point Cloud Data file format
VERSION 0.7
FIELDS x y z
SIZE 4 4 4
TYPE F F F
COUNT 1 1 1
WIDTH 2048
HEIGHT 1
VIEWPOINT 0 0 0 1 0 0 0
POINTS 2048
DATA ascii
2994.095 1744.503 1399.946
3066.311 1725.478 1404.157
3098.58 1704.087 1358.522
3023.607 1674.222 1364.805
2914.955 1701.514 1364.209
3007.266 1758.229 1399.384
3014.491 1777.223 1386.677
2959.649 1741.113 1361.11
3014.553 1770.366 1361.862
2925.606 1731.276 1362.889
3047.405 1737.453 1399.107
3017.046 1675.065 1364.827
3013.471 1670.628 1365.174
3022.86 1749.292 1399.228
3104.223 1739.327 1374.82
2923.772 1689.547 1364.751
3098.896 1728.494 1399.983
2989.537 1685.791 1364.515
2984.286 1689.647 1364.282
3031.513 1770.534 1393.061
2965.639 1728.031 1363.086
2984.408 1731.274 1362.937
3097.681 1741.856 1366.37
3087.747 1701.031 1363.246
2931.84 1699.503 1364.178
2956.969 1708.268 1363.792
2957.664 1679.499 1365.324
3045.966 1759.95 1397.99
2999.605 1733.685 1362.836
3048.121 1766.273 1383.775
3034.581 1687.728 1363.791
3052.985 1694.121 1363.549
3061.054 1755.343 1397.864
3059.18 1708.713 1363.206
3061.726 1715.714 1363.043
3024.161 1751.706 1362.109
2994.446 1712.219 1363.517
3072.034 1727.508 1362.674
3048.505 1766.142 1380.134
3046.91 1759.58 1361.969
3022.888 1734.878 1362.724
3019.798 1721.607 1363.117
3031.484 1727.308 1362.892
3036.975 1728.716 1362.827
2960.369 1714.003 1401.624
3069.527 1717.392 1404.38
3090.504 1656.619 1401.422
3084.643 1594.414 1391.792
3081.799 1233.12 1384.739
3062.921 1361.088 1390.403
3075.186 1476.115 1376.016
2968.031 1129.374 1367.623
3066.272 1146.953 1403.793
2929.877 1542.205 1405.637
2933.015 1431.426 1400.147
2937.481 1302.995 1395.109
2931.984 1198.325 1384.491
2923.069 1659.708 1404.257
2921.075 1689.504 1402.652
2944.952 1705.705 1402.654
2939.321 1688.864 1402.158
2936.551 1611.741 1406.055
3058.978 1619.331 1413.965
3067.724 1626.537 1413.135
3052.335 1615.367 1409.066
3021.746 1596.698 1398.944
2950.673 1603.753 1405.311
3083.871 1596.919 1391.352
3075.104 1600.4 1400.744
2933.184 1550.841 1405.533
3025.507 1131.93 1367.866
3004.841 1725.479 1400.888
3047.555 1137.681 1373.324
2934.765 1449.221 1401.014
2941.991 1271.598 1392.677
2936.423 1190.019 1382.668
2917.115 1637.292 1405.106
2963.936 1632.229 1404.683
3012.771 1628.213 1402.399
3100.719 1684.711 1399.967
3092.823 1540.546 1382.299
3058.565 1413.763 1388.135
2967.844 1695.799 1402.459
3087.678 1167.621 1400.068
3032.237 1141.256 1368.444
2940.375 1580.127 1405.535
3047.169 1598.526 1403.24
2987.39 1592.573 1405.776
2959.883 1640.004 1404.558
3065.285 1708.076 1407.639
3061.594 1417.174 1391.438
2955.78 1684.174 1403.105
3008.02 1720.718 1401.113
3028.905 1710.513 1400.801
2943.363 1159.962 1377.528
2943.04 1246.24 1389.757
2941.851 1342.378 1397.91
2942.92 1413.916 1401.181
3082.003 1313.124 1387.882
3061.438 1153.729 1408.253
3069.85 1375.042 1392.549
2946.491 1560.627 1405.059
3040.48 1583.53 1398.681
2947.202 1426.548 1402.084
2943.345 1502.612 1403.591
3060.65 1466.475 1382.362
2975.554 1149.963 1369.076
2963.056 1576.433 1405.321
3072.097 1697.24 1403.263
3030.46 1143.345 1368.25
2998.442 1141.013 1366.102
2974.239 1635.667 1404.583
3027.083 1645.311 1400.175
3083.475 1679.088 1400.123
3003.959 1586.266 1403.823
3063.558 1494.372 1384.014
2953.861 1199.451 1380.863
3019.947 1710.903 1401.096
2956.487 1444.962 1403.312
3088.222 1281.752 1392.883
3083.568 1205.378 1400.601
2956.051 1328.156 1397.475
3069.961 1584.6 1413.98
3073.774 1670.419 1402.674
3058.076 1699.571 1405.428
3010.749 1583.373 1401.447
2961.822 1303.367 1393.832
2958.794 1450.306 1403.584
3084.591 1352.827 1396.217
2955.969 1165.132 1375.541
3087.466 1248.415 1399.62
3073.658 1406.125 1394.407
2956.807 1261.039 1389.139
3083.48 1374.341 1397.365
2964.87 1545.963 1405.28
3007.195 1704.09 1401.785
2969.481 1202.424 1377.11
3030.381 1575.631 1396.557
3077.735 1418.81 1396.581
3057.188 1651.861 1410.831
2963.57 1292.656 1391.852
3077.863 1208.799 1403.666
3014.829 1694.664 1401.832
3004.068 1649.38 1403.577
3085.109 1328.868 1405.515
2968.959 1183.667 1374.707
3067.785 1513.915 1393.464
3080.955 1415.871 1399.859
2964.99 1528.96 1405.168
3081.933 1252.484 1405.599
3005.092 1682.278 1402.596
3076.489 1229.06 1405.796
3034.425 1575.985 1396.722
3069.671 1545.285 1392.867
3009.078 1563.359 1400.899
3081.631 1421.341 1403.548
2970.459 1437.66 1404.622
2969.601 1499.384 1405.436
2974.169 1337.248 1394.273
3039.465 1681.182 1400.123
2972.842 1375.955 1399.603
2994.217 1647.803 1404.052
3078.797 1472.146 1403.431
3066.338 1191.636 1397.199
3079.906 1441.277 1407.601
2977.456 1202.251 1374.715
2977.322 1475.917 1405.964
3079.069 1456.982 1407.805
3012.657 1673.144 1402.45
3080.19 1396.053 1410.263
2978.77 1169.805 1370.718
2979.893 1369.206 1395.876
2978.322 1485.737 1406.201
2973.445 1490.085 1405.88
2978.685 1464.041 1405.454
3064.682 1233.229 1406.272
2977.61 1391.058 1399.614
2977.551 1553.703 1406.033
3074.022 1339.27 1412.198
2981.647 1283.063 1383.634
3054.505 1182.673 1394.969
3076.406 1537.475 1403.869
2985.499 1374.356 1393.603
2981.63 1403.699 1399.329
3011.292 1541.169 1398.386
2976.908 1533.4 1406.148
2983.256 1190.626 1372.026
3067.521 1356.666 1413.043
2992.343 1298.712 1381.209
3063.772 1293.109 1408.016
3053.545 1548.456 1412.626
2985.603 1422.815 1399.627
2985.027 1351.263 1390.86
3018.314 1542.747 1396.329
3055.486 1228.993 1396.571
2995.673 1256.211 1375.524
2992.103 1328.392 1384.875
3005.287 1529.318 1400.153
3029.925 1538.533 1394.755
2993.806 1435.528 1396.582
3059.968 1368.198 1410.982
2992.298 1370.253 1389.638
3036.05 1539.503 1395.997
2997.135 1518.666 1403.007
3060.524 1459.419 1415.829
3069.559 1524.113 1416.17
3002.901 1306.039 1378.726
3052.793 1537.079 1411.787
3054.208 1289.558 1398.835
3053.924 1222.346 1389.874
3000.992 1411.506 1390.439
3019.647 1525.639 1394.846
3051.579 1238.319 1388.99
3031.511 1524.403 1394.503
3052.284 1332.641 1401.535
3029.539 1205.955 1370.013
3005.394 1455.977 1393.153
3051.728 1384.034 1404.984
3052.835 1473.188 1410.418
3004.923 1433.617 1391.244
3008.559 1380.37 1385
3047.296 1213.893 1376.54
3019.64 1308.402 1377.541
3021.245 1207.54 1369.934
3013.885 1403.587 1386.303
3043.847 1218.268 1374.319
3011.582 1521.064 1396.658
3019.958 1268.608 1374.271
3045.385 1446.98 1400.639
3022.085 1362.535 1382.337
3046.434 1486.154 1402.838
3021.663 1286.615 1375.81
3042.99 1443.258 1397.824
3039.302 1361.623 1389.367
3038.995 1281.641 1380.005
3025.09 1435.047 1388.55
3033.005 1312.972 1380.416
3036.96 1275.381 1378.053
3041.51 1488.328 1397.59
3035.881 1446.891 1392.313
3035.286 1409.306 1389.97
3027.902 1381.268 1384.755
3036.088 1317.6 1382.47
3032.253 1478.477 1392.583
3102.175 1466.889 1393.047
3156.102 1482.872 1368.533
3095.83 1476.949 1386.033
3106.215 1549.351 1356.138
3089.145 1661.602 1349.159
3112.691 1730.998 1394.915
3086.951 1641.106 1405.816
3101.62 1478.732 1404.699
3143.634 1492.225 1362.819
3110.738 1461.445 1372.924
3153.642 1486.265 1364.639
3122.434 1479.046 1402.239
3107.816 1548.197 1356.61
3098.623 1528.605 1389.328
3088.692 1679.232 1410.423
3096.121 1681.291 1345.264
3090.134 1586.575 1340.635
3117.367 1490.692 1377.78
3119.838 1487.721 1397.55
3103.882 1555.191 1388.21
3097.771 1540.099 1391.111
3099.761 1611.829 1341.19
3117.975 1724.412 1383.29
3099.48 1628.241 1347.635
3113.072 1477.536 1371.318
3120.705 1499.291 1377.682
3082.555 1575.779 1401.478
3083.553 1515.598 1395.497
3091.205 1564.273 1338.994
3105.874 1705.632 1418.174
3131.877 1502.455 1361.63
3105.23 1492.054 1418.683
3099.846 1599.896 1336.393
3087.117 1538.024 1392.094
3093.811 1526.994 1356.27
3120.963 1715.133 1370.96
3084.932 1605.236 1418.967
3127.265 1510.253 1363.395
3117.378 1502.696 1375.057
3096.387 1538.874 1343.795
3119.225 1510.567 1390.937
3107.077 1644.139 1337.769
3150.385 1517.554 1371.218
3095.775 1675.53 1424.567
3107.073 1585.053 1339.466
3099.169 1548.521 1338.091
3081.317 1553.829 1399.887
3110.339 1507.039 1392.957
3099.913 1668.286 1425.823
3104.36 1576.613 1338.471
3109.016 1573.931 1342.673
3085.851 1529.967 1405.757
3119.016 1697.381 1396.828
3119.123 1517.206 1415.987
3116.427 1515.464 1388.653
3114.163 1599.011 1348.567
3099.321 1522.645 1419.668
3118.927 1520.803 1393.39
3114.962 1506.155 1364.602
3121.389 1698.473 1388.133
3093.795 1571.101 1422.262
3148.559 1534.04 1364.068
3110.685 1540.83 1349.951
3103.621 1610.464 1425.885
3107.472 1629.393 1424.167
3119.735 1530.889 1389.847
3115.854 1565.075 1358.07
3092.389 1553.305 1419.217
3119.891 1672.208 1378.181
3108.337 1530.38 1426.527
3118.358 1546.786 1394.542
3135.361 1546.953 1362.952
3096.657 1545.329 1421.027
3116.08 1572.818 1365.448
3117.976 1660.34 1369.886
3117.491 1551.43 1401.431
3116.41 1551.841 1368.262
3117.913 1609.892 1416.877
3134.26 1669.078 1377.167
3104.441 1547.732 1425.645
3115.094 1557.405 1373.596
3134.092 1550.679 1378.208
3119.961 1667.177 1391.022
3118.135 1645.896 1402.612
3111.794 1586.635 1379.922
3114.345 1545.657 1374.691
3126.532 1657.207 1386.643
3138.96 1562.731 1380.232
3118.167 1573.934 1406.44
3117.77 1623.102 1400.708
3114.753 1601.755 1383.725
3121.948 1630.942 1380.471
3115.099 1561.05 1388.576
3121.757 1613.306 1381.561
3123.245 1616.365 1378.988
3130.605 1644.681 1369.858
3131.454 1581.281 1380.566
3120.965 1612.572 1387.793
3129.688 1579.65 1366.062
3124.91 1597.953 1383.616
3140.534 1590.672 1380.63
3140.692 1592.988 1368.777
3141.572 1609.958 1374.346
2901.937 1732.204 1363.516
2799.72 1725.45 1401.396
2733.412 1702.505 1416.137
2775.938 1673.31 1358.937
2889.89 1728.66 1362.346
2802.333 1767.803 1389.29
2909.299 1713.257 1364.502
2813.637 1772.107 1371.091
2835.332 1763.745 1362.057
2844.689 1685.48 1365.366
2751.777 1675.394 1365.301
2842.582 1735.875 1363.643
2737.518 1704.768 1357.118
2881.401 1680.221 1365.759
2795.849 1682.571 1365.425
2792.783 1763.999 1390.897
2890.148 1703.945 1364.284
2863.914 1710.13 1364.315
2800.989 1745.658 1400.51
2743.524 1710.238 1403.154
2768.265 1687.109 1358.674
2764.871 1721.733 1400.539
2784.107 1760.504 1388.561
2740.208 1716.606 1361.352
2810.034 1691.998 1365.085
2862.065 1694.172 1364.718
2842.379 1721.151 1364.173
2770.214 1737.449 1400.675
2747.259 1717.685 1364.869
2753.616 1719.182 1365.324
2808.246 1710.592 1364.697
2817.028 1703.175 1364.831
2757.966 1743.522 1398.734
2794.995 1734.987 1364.138
2775.1 1756.431 1389.684
2755.697 1746.43 1386.486
2771.096 1740.173 1364.085
2800.597 1712.927 1402.156
2743.754 1658.539 1411.247
2735.921 1535.095 1367.186
2751.187 1422.629 1384.233
2751.581 1282.857 1406.352
2745.154 1152.262 1398.107
2926.854 1200.372 1385.306
2927.292 1351.666 1396.297
2928.919 1458.604 1401.4
2845.255 1721.847 1402.149
2872.719 1698.05 1403.098
2905.294 1689.035 1402.474
2824.511 1714.769 1402.661
2821.608 1602.457 1404.537
2847.038 1613.69 1405.551
2807.706 1594.793 1401.218
2892.083 1132.132 1375.459
2861.681 1132.999 1378.535
2800.633 1126.797 1391.557
2832.841 1601.346 1405.326
2749.029 1135.487 1398.125
2790.281 1615.801 1397.531
2738.882 1532.347 1372.207
2748.874 1405.883 1393.042
2910.462 1141.015 1375.913
2913.6 1568.894 1407.09
2820.779 1591.653 1403.571
2918.874 1477.503 1404.236
2749.48 1316.578 1405.746
2747.334 1210.367 1408.435
2926.972 1229.353 1388.813
2922.725 1420.544 1399.318
2845.671 1693.42 1403.074
2743.068 1663.709 1404.37
2782.704 1581.902 1398.737
2923.295 1183.707 1383.08
2742.863 1676.736 1403.144
2919.163 1335.07 1394.174
2918.677 1418.96 1399.57
2746.686 1258.927 1414.329
2750.021 1380.466 1402.849
2754.634 1482.408 1380.26
2916.955 1311.216 1392.553
2885.039 1680.559 1403.547
2821.795 1137.834 1387.775
2747.106 1665.407 1402.013
2897.483 1636.258 1405.281
2752.243 1501.819 1379.531
2769.449 1619.937 1400.49
2859.728 1580.358 1407.194
2851.05 1557.959 1407.679
2758.768 1632.539 1401.918
2753.442 1353.198 1407.562
2883.843 1658.467 1404.472
2831.669 1693.974 1403.189
2827.476 1618.139 1404.11
2747.217 1164.759 1412.728
2914.837 1425.201 1400.731
2915.599 1322.302 1392.92
2905.972 1578.68 1407.068
2882.155 1588.219 1407.032
2874.073 1595.907 1406.791
2760.453 1639.489 1402.816
2835.416 1623.358 1404.687
2869.382 1650.961 1404.732
2873.352 1631.602 1405.49
2917.851 1287.823 1391.914
2756.546 1333.552 1408.643
2903.211 1249.56 1387.199
2837.802 1145.525 1383.706
2811.351 1569.443 1402.062
2905.666 1507.623 1407.849
2911.412 1351.802 1394.679
2755.126 1160.538 1409.223
2842.944 1684.579 1403.456
2851.611 1671.259 1403.899
2756.439 1482.765 1393.707
2817.203 1701.572 1402.645
2815.109 1645.882 1403.248
2845.021 1563.377 1407.135
2752.532 1205.269 1411.275
2762.016 1345.677 1406.195
2755.063 1432.731 1402.323
2907.686 1388.136 1398.268
2898.634 1455.651 1407.262
2767.427 1637.051 1402.482
2810.054 1156.037 1394.374
2879.209 1158.132 1382.032
2793.296 1681.847 1401.727
2776.241 1555.716 1402.255
2839.133 1557.506 1406.81
2898.928 1469.482 1407.743
2756.594 1520.091 1393.049
2759.845 1275.357 1406.812
2893.669 1560.303 1407.724
2789.806 1157.764 1397.718
2885.183 1548.495 1408.066
2760.853 1180.866 1405.122
2763.267 1423.89 1405.344
2898.159 1381.789 1400.405
2883.695 1166.422 1383.127
2758.44 1528.048 1396.526
2770.458 1353.364 1402.233
2892.136 1527.475 1408.495
2777.456 1653.327 1400.894
2770.851 1650.958 1402.817
2891.551 1421.903 1406.579
2771.854 1313.192 1400.4
2779.899 1665.728 1400.944
2892.697 1335.686 1395.644
2890.012 1479.614 1408.815
2774.46 1396.049 1400.059
2892.529 1205.016 1384.605
2819.726 1670.895 1403.426
2780.695 1347.585 1399.323
2776.046 1163.043 1400.416
2807.686 1171.517 1396.167
2850.174 1170.953 1385.372
2880.319 1182.127 1382.71
2886.372 1282.118 1390.93
2763.857 1513.833 1404.308
2881.578 1243.881 1387.76
2804.788 1662.08 1402.662
2838.333 1173.896 1390.385
2890.495 1345.005 1398.075
2875.345 1513.594 1408.472
2886.361 1422.921 1407.483
2766.931 1518.553 1404.46
2782.1 1382.578 1398.802
2873.962 1457.913 1408.646
2881.731 1204.828 1382.964
2780.717 1220.927 1400.879
2878.608 1399.381 1407.033
2784.838 1534.978 1398.283
2880.353 1296.53 1394.888
2874.273 1197.168 1383.151
2791.47 1279.537 1402.371
2792.394 1174.728 1398.826
2869.885 1227.448 1388.408
2825.828 1180.816 1392.962
2879.557 1446.867 1408.591
2871.905 1310.676 1399.817
2782.417 1528.32 1399.255
2787.418 1326.654 1400.407
2775.905 1508.205 1401.959
2869.701 1365.589 1405.673
2798.343 1377.36 1401.068
2787.105 1269.731 1401.77
2788.207 1426.395 1398.438
2866.146 1450.955 1408.619
2829.143 1520.431 1406.268
2842.469 1518.776 1408.349
2790.555 1237.95 1401.057
2799.859 1203.646 1400.154
2869.813 1489.984 1408.711
2809.282 1203.105 1399.256
2822.838 1531.548 1404.749
2787.452 1497.079 1397.763
2862.764 1394.961 1407.506
2801.27 1315.029 1403.756
2857.557 1313.161 1402.951
2811.133 1367.716 1404.379
2801.016 1378.026 1401.721
2858.055 1438.848 1408.76
2806.293 1272.834 1403.403
2796.448 1437.217 1399.606
2849.03 1246.182 1397.339
2849.787 1410.582 1408.717
2852.002 1289.559 1401.589
2805.202 1496.735 1401.132
2850.245 1394.814 1408.214
2855 1351.628 1405.967
2820.397 1420.069 1405.999
2847.745 1265.589 1400.007
2848.98 1327.827 1405.043
2822.079 1278.998 1403.606
2836.606 1229.78 1397.919
2843.155 1366.621 1407.695
2824.727 1236.742 1400.424
2821.182 1230.422 1400.326
2836.126 1238.701 1399.133
2814.655 1440.572 1404.291
2842.769 1450.211 1409.456
2821.499 1374.515 1406.662
2840.301 1334.033 1406.234
2828.672 1350.68 1407.288
2832.062 1491.933 1407.435
2825.073 1305.262 1405.278
2831.948 1449.129 1408.158
2824.188 1478.964 1405.967
3088.269 1601.317 1351.782
2946.465 1668.364 1366.057
3078.233 1666.739 1363.548
2908.287 1295.573 1382.663
2916.257 1424.815 1386.626
2912.244 1552.792 1375.834
3084.129 1127.312 1388.578
3077.662 1481.627 1377.098
3056.604 1368.681 1383.45
3073.185 1215.145 1382.893
2944.231 1661.599 1366.234
3065.976 1659.06 1364.991
3088.014 1652.726 1360.035
3022.244 1127.026 1364.953
2905.88 1159.14 1371.918
2904.2 1183.585 1374.131
2905.669 1247.01 1379.618
3043.457 1640.231 1366.067
3007.746 1648.304 1366.646
2995.018 1131.057 1363.069
3067.527 1273.345 1384.54
3091.453 1520.604 1366.722
2918.474 1563.204 1375.14
2921.438 1422.98 1385.189
3056.325 1367.817 1377.581
2926.257 1637.752 1368.849
2903.966 1172.288 1373.213
3031.52 1647.168 1366.03
3073.012 1646.653 1364.9
2981.227 1138.293 1364.191
3092.5 1532.948 1355.529
2922.203 1557.59 1375.707
3055.5 1333.039 1378.747
3015.042 1136.293 1363.6
2924.182 1387.409 1382.304
2918.13 1225.926 1375.041
2914.774 1320.844 1382.093
2952.918 1639.68 1368.375
2947.428 1623.679 1369.664
3024.597 1653.474 1365.949
3078.999 1587.076 1360.372
2914.855 1186.961 1372.932
3091.031 1541.281 1347.971
2962.246 1141.813 1367.032
2934.568 1608.656 1371.098
2931.121 1494.587 1381.399
3057.142 1265.96 1380.259
3068.596 1409.61 1368.481
3057.296 1353.064 1373.08
2921.96 1165.77 1370.812
2973.853 1640.313 1367.91
2988.275 1631.421 1368.087
3082.135 1462.703 1362.084
3054.996 1265.708 1376.462
3082.13 1552.446 1352.496
3015.668 1141.765 1362.984
2934.367 1503.12 1380.403
2935.081 1405.791 1378.88
2931.968 1573.523 1374.262
3087.221 1528.785 1347.313
3056.292 1218.203 1377.867
2923.263 1248.87 1375.565
2965.734 1623.972 1369.163
3073.912 1413.986 1359.103
2945.333 1147.512 1368.123
2930.573 1324.768 1377.776
2946.124 1604.25 1371.187
3054.115 1269.236 1368.917
3062.465 1348.731 1364.595
3077.014 1555.574 1357.715
3078.857 1455.195 1355.905
3083.188 1498.492 1350.132
3054.107 1204.105 1374.811
3066.191 1592.894 1368.63
2939.694 1353.163 1376.754
2928.971 1239.24 1373.904
3002.115 1628.105 1367.887
3064.533 1359.669 1356.583
3074.501 1433.894 1354.28
3072.475 1442.625 1351.505
2947.702 1552.765 1374.738
2934.981 1197.781 1371.278
3061.874 1614.08 1368.063
2937.772 1285.644 1374.634
2946.855 1391.324 1376.235
3058.597 1313.034 1357.399
2971.323 1618.792 1369.318
2937.992 1230.183 1372.265
2997.902 1160.574 1362.8
3063.527 1388.865 1351.669
2952.393 1505.913 1374.984
3055.691 1344.295 1352.094
3051.895 1238.704 1361.872
2944.864 1292.026 1373.67
3039.152 1604.99 1367.221
2946.762 1210.028 1371.017
3015.421 1606.076 1368.32
2947.127 1170.375 1369.692
3050.134 1218.01 1363.027
2950.615 1169.877 1369.627
3051.478 1328.407 1352.596
2956.026 1577.489 1372.36
3047.876 1584.309 1368.683
2953.272 1440.543 1375.455
2949.549 1225.928 1371.222
2952.466 1185.191 1370.364
2976.343 1170.624 1368.481
2952.569 1265.897 1371.857
3026.929 1171.477 1359.793
3044.285 1240.281 1356.589
3029.565 1172.039 1359.972
3059.264 1411.661 1353.172
2976.282 1180.049 1369.546
3042.637 1235.201 1356.634
2957.7 1368.06 1374.544
2961.066 1415.069 1374.957
3042.579 1571.118 1368.621
2955.821 1215.832 1371.125
3040.106 1596.581 1367.583
2967.005 1558.697 1372.153
3062.517 1507.195 1367.721
3054.822 1410.449 1358.16
3032.1 1601.131 1367.544
2970.071 1591.725 1370.745
3034.991 1245.791 1355.876
3036.999 1282.913 1355.984
2973.198 1479.992 1373.883
3030.283 1196.476 1358.226
2963.432 1240.588 1371.254
2972.157 1452.742 1374.178
3035.84 1304.368 1358.897
3033.29 1574.181 1368.035
2982.417 1536.079 1372.313
3035.672 1253.996 1355.791
3052.855 1469.158 1370.95
2985.601 1594.535 1370.024
2973.066 1338.011 1371.307
2970.103 1271.961 1371.209
3054.131 1446.623 1366.82
3048.621 1505.421 1372.738
2975.57 1556.797 1371.766
3041.638 1532.736 1370.3
3032.862 1370.085 1371.637
3000.667 1561.797 1370.618
2979.261 1330.612 1370.685
2984.915 1386.988 1371.177
2985.735 1198.043 1369.472
3027.354 1335.013 1370.21
2982.364 1483.022 1373.424
2978.552 1310.07 1370.726
2989.34 1489.654 1372.763
3027.871 1378.981 1373.066
3012.862 1204.141 1361.086
3029.883 1538.917 1368.761
3016.993 1257.505 1364.358
3013.601 1275.951 1369.074
3007.446 1202.199 1362.884
2989.14 1382.384 1370.529
2990.176 1352.138 1370.476
2980.71 1257.424 1372.649
3021.373 1342.058 1372.945
2994.335 1395.448 1370.277
2995.089 1366.256 1370.227
3028.639 1528.204 1368.888
3012.6 1262.948 1367.582
3006.614 1230.719 1366.23
2991.395 1238.36 1372.09
2997.669 1314.917 1372.486
2996.05 1295.97 1372.991
3003.82 1523.789 1370.94
3006.319 1256.939 1369.656
3008.354 1384.127 1371.199
2997.49 1277.103 1373.586
3010.804 1375.806 1371.989
2998.77 1275.825 1373.564
3001.078 1266.249 1372.357
2999.318 1327.012 1372.114
3011.932 1410.728 1370.658
2746.789 1554.373 1362.474
2762.225 1662.667 1366.977
2879.286 1667.773 1366.439
2909.153 1465.192 1383.266
2907.748 1358.841 1387.648
2900.428 1228.254 1379.058
2886.507 1183.146 1376.693
2859.95 1130.859 1373.544
2769.666 1131.257 1374.534
2747.519 1131.273 1392.851
2757.95 1277.344 1403.644
2757.186 1428.136 1383.873
2740.083 1530.754 1362.185
2838.726 1660.183 1367.363
2783.184 1648.063 1360.502
2746.082 1144.066 1385.253
2907.143 1494.346 1380.08
2903.215 1382.983 1389.785
2884.474 1161.495 1374.686
2881.219 1156.619 1374.539
2750.148 1206.285 1395.377
2759.176 1647.316 1366.915
2748.356 1542.415 1364.815
2759.07 1421.632 1389.461
2749.672 1505.085 1368.324
2906.566 1586.625 1373.152
2753.891 1227.962 1394.183
2901.37 1496.518 1378.989
2898.62 1419.021 1385.942
2897.002 1302.101 1386.878
2778.757 1644.021 1357.479
2808.097 1142.638 1389.206
2774.97 1146.978 1384.049
2877.648 1146.667 1373.751
2763.457 1413.767 1394.818
2753.165 1533.896 1367.883
2821.357 1638.54 1368.928
2891.345 1298.739 1388.313
2894.685 1408.644 1385.99
2745.371 1149.76 1373.59
2825.744 1140.155 1382.089
2768.534 1316.254 1391.976
2773.417 1358.167 1395.781
2863.122 1146.28 1375.493
2890.151 1559.875 1375.081
2875.835 1216.349 1382.628
2886.936 1338.374 1391.949
2753.838 1232.382 1381.014
2764.12 1293.916 1390.621
2892.108 1512.415 1377.559
2891.214 1388.469 1387.418
2888.995 1428.704 1381.978
2793.851 1627.622 1364.381
2897.981 1580.086 1373.661
2882.303 1377.904 1385.833
2769.431 1615.297 1366.205
2881.61 1315.894 1393.007
2873.883 1216.15 1383.008
2776.012 1365.172 1391.178
2838.232 1147.852 1380.04
2888.772 1513.952 1377.626
2869.383 1168.886 1377.596
2749.92 1178.787 1366.357
2750.008 1159.212 1363.994
2762.873 1291.292 1377.555
2856.101 1168.532 1379.624
2768.375 1480.733 1388.561
2869.618 1610.772 1371.477
2870.919 1612.904 1371.299
2865.722 1182.582 1379.875
2880.16 1428.097 1381.168
2888.085 1524.772 1377.202
2754.122 1170.752 1361.075
2752.219 1186.685 1365.565
2820.039 1613.602 1370.07
2770.631 1532.914 1380.865
2878.144 1556.055 1375.504
2870.221 1310.203 1392.354
2766.364 1310.554 1372.963
2829.749 1173.289 1386.821
2763.751 1284.65 1370.184
2775.841 1477.843 1383.13
2866.507 1302.806 1392.47
2775.292 1161.974 1378.67
2793.875 1610.748 1363.437
2872.833 1496.039 1379.044
2773.63 1551.513 1370.03
2769.25 1318.94 1370.225
2776.346 1380.591 1373.176
2796.604 1170.854 1391.439
2776.863 1390.133 1374.627
2782.752 1604.919 1357.347
2858.905 1611.428 1371.47
2830.917 1605.775 1371.351
2775.584 1558.311 1360.475
2760.177 1182.57 1359.091
2868.241 1439.659 1381.095
2865.736 1383.239 1382.121
2870.078 1558.679 1375.16
2763.765 1199.552 1358.844
2805.563 1177.212 1393.26
2860.656 1539.132 1375.943
2778.927 1369.431 1365.516
2764.481 1176.535 1357.587
2777.759 1377.754 1367.056
2861.84 1518.751 1376.961
2771.379 1298.444 1362.581
2796.211 1596.993 1363.709
2779.177 1550.398 1358.347
2786.67 1558.059 1357.515
2852.478 1303.249 1387.276
2830.801 1188.698 1389.12
2844.311 1611.498 1371.37
2860.242 1556.734 1375.039
2788.496 1185.141 1386.311
2855.34 1530.35 1376.245
2778.526 1230.119 1359.153
2851.059 1287.993 1389.923
2854.713 1474.653 1378.202
2847.369 1563.111 1374.683
2774.089 1196.054 1359.035
2784.36 1332.843 1359.2
2785.015 1280.26 1358.42
2848.537 1352.092 1382.556
2789.719 1538.97 1358.274
2836.313 1229.084 1394.494
2793.916 1577 1361.189
2796.441 1564.063 1362.147
2818.813 1203.385 1394.059
2785.661 1418.013 1359.395
2829.764 1588.638 1372.33
2786.16 1239.533 1365.333
2846.285 1409.909 1379.92
2840.828 1534.544 1376.322
2841.335 1461.918 1378.453
2855.845 1584.869 1373.321
2795.371 1332.774 1358.667
2831.304 1361.508 1380.157
2818.429 1586.94 1370.755
2786.018 1228.135 1371.819
2830.658 1269.274 1386.438
2820.469 1213.801 1394.031
2831.452 1310.508 1383.056
2783.512 1206.475 1377.452
2833.433 1318.636 1382.727
2835.254 1487.633 1378.022
2796.045 1511.005 1360.291
2807.942 1565.844 1367.912
2839.831 1453.526 1378.563
2837.421 1579.811 1373.355
2805.583 1342.739 1364.145
2795.428 1292.722 1366.882
2804.93 1326.961 1369.594
2826.32 1346.953 1380.401
2818.784 1224.219 1392.037
2806.933 1384.556 1362.522
2803.58 1419.094 1360.935
2832.646 1536.108 1375.584
2828.972 1397.05 1379.111
2800.173 1485.922 1361.442
2807.49 1223.948 1389.443
2810.684 1240.96 1387.263
2823.309 1508.364 1373.642
2802.926 1277.854 1380.308
2827.744 1545.9 1374.047
2818.094 1284.376 1383.698
2806.132 1442.465 1362.71
2806.98 1295.316 1379.964
2812.806 1423.228 1367.235
2822.179 1435.54 1375.381
2810.541 1304.414 1380.261
2818.834 1400.472 1375.123
2818.887 1422.268 1373.328
2753.94 1596.3 1406.081
2737.347 1691.099 1422.475
2733.762 1509.921 1372.694
2687.644 1465.176 1374.329
2738.121 1449.902 1396.059
2743.932 1459.643 1369.44
2752.762 1624.584 1352.744
2736.85 1453.195 1411.598
2712.418 1460.248 1338.178
2698.514 1468.753 1375.651
2724.664 1460.39 1383.733
2743.521 1459.718 1368.084
2693.01 1480.478 1375.793
2741.282 1500.116 1363.95
2729.612 1704.117 1382.122
2754.434 1647.5 1414.255
2741.467 1485.449 1379.274
2753.375 1622.428 1346.38
2744.083 1464 1405.936
2741.518 1491.002 1383.305
2750.863 1560.712 1402.04
2757.288 1584.157 1409.688
2746.846 1467.164 1402.161
2727.521 1688.023 1415.025
2734.177 1465.856 1413.925
2751.292 1546.323 1393.065
2746.838 1484.927 1390.543
2744.653 1639.091 1338.615
2729.625 1685.615 1367.13
2751.138 1555.999 1400.517
2755.688 1617.248 1425.446
2732.751 1675.14 1427.408
2746.97 1501.154 1388.115
2744.125 1629.655 1337.624
2722.557 1687.816 1383.341
2746.923 1533.303 1351.52
2723.256 1477.516 1400.516
2742.143 1480.264 1348.075
2730.004 1668.449 1358.122
2698.354 1490.536 1357.725
2749.376 1593.668 1336.878
2744.566 1476.712 1413.642
2757.036 1512.159 1353.148
2749.493 1590.136 1427.972
2733.687 1637.861 1342.059
2753.679 1555.854 1338.673
2711.149 1496.864 1370.419
2760.065 1522.328 1349.634
2750.688 1502.62 1343.106
2735.891 1617.667 1339.798
2725.574 1504.186 1364.818
2735.721 1494.027 1417.543
2734.625 1672.745 1387.708
2755.916 1531.843 1411.612
2731.76 1626.582 1347.182
2729.414 1490.668 1413.681
2726.817 1506.692 1390.919
2736.585 1599.089 1426.881
2726.813 1656.322 1414.69
2729 1510.001 1370.355
2703.995 1518.203 1357.173
2731.098 1610.429 1423.485
2754.682 1521.921 1412.429
2715.129 1525.969 1370.615
2739.579 1499.311 1336.548
2720.329 1652.239 1369.775
2749.65 1528.946 1337.645
2730.425 1510.332 1337.391
2735.538 1537.716 1336.845
2724.934 1518.739 1403.611
2727.593 1509.579 1413.046
2724.63 1517.935 1345.339
2727.259 1611.672 1361.643
2742.809 1514.398 1420.151
2746.426 1515.149 1419.059
2728.149 1571.969 1354.739
2721.181 1535.262 1367.077
2717.265 1650.005 1383.002
2722.412 1648.301 1383.282
2713.099 1638.91 1371.328
2730.848 1628.671 1400.291
2724.065 1646.078 1382.975
2727.07 1579.171 1404.638
2712.587 1620.513 1368.346
2734.23 1627.183 1383.726
2727.596 1579.574 1403.438
2701.873 1544.755 1380.476
2711.732 1632.566 1381.159
2735.177 1619.258 1388.54
2710.923 1576.112 1363.226
2730.108 1573.578 1397.84
2707.491 1553.542 1380.797
2698.597 1557.705 1372.737
2704.237 1586.021 1369.995
2714.141 1621.133 1383.268
2722.416 1573.637 1372.876
2714.194 1573.82 1379.203
2720.613 1596.042 1377.221
2998.491 1745.084 1400.422
3109.764 1733.666 1395.952
3069.673 1669.664 1364.324
2913.329 1707.639 1364.062
3006.708 1778.134 1393
2920.733 1720.053 1364.309
2972.771 1740.731 1363.354
3019.246 1775.44 1391.144
3016.753 1753.918 1399.019
3038.898 1741.272 1399.26
2950.41 1722.657 1363.422
2971.885 1687.051 1364.58
2980.254 1755.24 1360.255
3105.212 1737.96 1367.496
2943.086 1680.693 1365.348
3025.31 1773.904 1370.657
3079.409 1681.054 1363.624
3063.6 1737.537 1401.029
3008.225 1753.282 1362.003
2931.587 1703.206 1364.067
3057.038 1744.724 1399.056
3093.738 1744.97 1390.487
3087.617 1718.611 1362.9
3070.155 1706.293 1363.198
2948.683 1695.324 1364.191
3014.551 1706.406 1363.546
3016.952 1703.374 1363.598
2994.156 1698.007 1363.83
3085.996 1749.349 1370.956
3031.345 1744.077 1362.37
3003.435 1722.429 1363.181
2989.355 1706.336 1363.692
3042.864 1756.959 1361.854
3050.09 1745.262 1362.212
3054.297 1728.548 1362.736
3069.421 1740.478 1362.259
3059.223 1761.882 1373.438
3061.209 1738.446 1362.365
2930.789 1705.444 1401.895
3044.283 1737.896 1399.195
3099.003 1551.055 1379.929
3083.667 1183.834 1387.727
3070.629 1302.494 1386.445
3058.791 1424.472 1377.761
3096.129 1532.025 1376.198
3044.564 1136.203 1371.657
2928.869 1571.06 1406.212
2931.099 1506.973 1404
2929.013 1386.184 1397.977
2933.593 1219.025 1387.226
2922.901 1627.335 1405.349
2948.32 1700.672 1402.998
2972.629 1703.231 1401.324
2986.783 1717.412 1400.666
3018.416 1614.859 1401.349
2993.511 1622.264 1404.832
2995.752 1611.917 1405.328
3062.118 1611.007 1414.989
2964.458 1601.485 1405.167
2924.907 1597.437 1406.337
3087.052 1152.245 1395.779
3017.564 1132.148 1367.141
3047.869 1711.79 1399.016
3083.929 1204.123 1387.689
3082.211 1139.852 1402.88
2937.335 1329.866 1396.752
2936.697 1198.406 1383.861
2969.602 1628.092 1404.75
3044.009 1621.985 1400.239
2978.172 1596.617 1405.409
3094.69 1537.72 1380.64
3057.711 1423.102 1385.193
2987.26 1701.666 1402.002
2951.572 1627.051 1404.971
3082.766 1252.749 1384.97
3036.096 1137.531 1368.983
3029.58 1625.885 1398.937
3040 1606.293 1398.458
3054.74 1713.864 1401.197
3061.111 1406.461 1390.878
2967.669 1685.209 1402.918
3038.708 1718.844 1400.024
3063.559 1475.57 1378.193
3070.303 1149.329 1410.098
2939.355 1495.132 1403.073
2943.331 1432.815 1401.852
3075.221 1334.231 1388.748
2942.393 1677.29 1403.498
2947.642 1331.249 1397.602
3069.598 1379.537 1392.793
2938.501 1552.942 1405.169
3058.224 1639.755 1411.993
3076.555 1577.946 1389.26
2949.977 1143.415 1373.759
2947.095 1216.439 1384.763
2970.057 1595.512 1405.236
3009.071 1595.943 1402.488
3043.543 1145.011 1370.67
3088.206 1187.36 1399.152
3064.258 1157.623 1410.177
3065.177 1697.024 1408.996
3011.781 1586.995 1401.254
3075.772 1524.989 1380.637
2946.52 1655.972 1404.252
2978.175 1679.919 1403.039
2951.288 1210.085 1382.982
3012.619 1716.773 1401.161
2947.167 1458.108 1403.025
2950.817 1365.321 1399.846
3083.685 1183.245 1403.573
3061.294 1472.231 1386.937
2949.822 1536.674 1404.744
2951.892 1559.084 1405.082
2953.803 1341.989 1398.532
2960.116 1658.012 1404.026
3019.591 1641.573 1401.418
3043.872 1585.47 1400.506
2955.879 1349.91 1399.135
3003.17 1698.479 1402.069
2959.452 1334.878 1397.832
3015.181 1147.536 1367.096
3086.387 1332.109 1397.063
3088.509 1285.323 1398.641
3077.61 1398.123 1394.88
3080.212 1379.827 1394.286
2977.278 1639.665 1404.441
3061.781 1692.11 1408.688
2961.641 1191.415 1377.757
3061.975 1580.006 1416.311
3075.647 1420.74 1395.774
3086.169 1342.478 1400.324
3087.693 1295.103 1400.758
3029.624 1155.121 1368.392
2963.741 1242.354 1384.438
2963.867 1358.425 1399.648
2999.356 1652.413 1403.744
3061.07 1683.626 1409.521
3019.032 1655.237 1401.702
3066.138 1517.965 1390.365
3015.711 1161.159 1367.787
3077.306 1443.935 1398.169
2959.338 1514.433 1404.834
2966.984 1303.071 1392.303
3075.155 1218.673 1403.469
2956.617 1547.603 1405.095
3003.391 1655.027 1403.485
3049.289 1696.974 1400.151
3069.929 1545.432 1393.718
3044.445 1166.197 1371.284
2968.943 1386.137 1401.518
2961.852 1447.035 1403.858
3081.921 1343.701 1408.693
3036.731 1657.988 1399.556
2970.626 1557.429 1405.538
3059.599 1677.043 1409.2
2972.393 1667.08 1403.609
3064.082 1182.931 1398.462
2976.193 1289.763 1386.828
3070.498 1528.57 1395.874
2980.003 1251.006 1379.936
3075.604 1264.907 1408.874
3077.711 1348.076 1411.507
2981.151 1288.711 1384.563
3075.693 1343.786 1412.002
3077.313 1495.539 1405.801
3060.775 1189.717 1395.265
3076.935 1512.706 1404.396
3078.091 1377.73 1411.856
2990.759 1161.294 1367.552
2980.25 1316.351 1388.71
2996.514 1173.254 1368.111
3021.335 1673.619 1401.618
3054.938 1560.412 1413.949
3076.396 1538.983 1404.087
3067.837 1241.842 1407.694
2982.302 1458.024 1404.346
3027.881 1187.273 1369.098
3009.86 1185.119 1368.838
2987.971 1478.235 1403.816
3063.771 1240.823 1406.124
3016.823 1553.12 1397.403
3073.362 1431.413 1415.554
2985.299 1440.652 1401.658
2986.223 1514.729 1406.244
3048.039 1191.084 1379.79
3068.265 1399.219 1415.152
2991.727 1307.384 1382.481
2989.474 1214.727 1373.331
2991.008 1332.913 1385.826
3003.185 1549.862 1402.533
3072.594 1524.91 1414.327
2992.059 1361.734 1388.691
3064.794 1477.072 1417.475
2997.365 1197.995 1369.867
3063.012 1424.869 1415.325
2997.24 1433.831 1394.552
3060.403 1544.498 1416.999
2998.719 1292.027 1378.328
3056.589 1269.479 1399.17
3048.633 1233.51 1383.647
3001.169 1422.56 1391.558
3017.607 1522.776 1395.062
3003.425 1256.753 1374.035
2995.947 1372.369 1388.253
3051.1 1278.583 1392.059
3004.792 1507.498 1398.463
3012.17 1218.938 1370.66
3001.547 1401.039 1389.125
3039.64 1203.436 1371.383
3012.601 1297.706 1376.647
3005.977 1512.126 1398.29
3007.043 1491.226 1395.869
3050.538 1259.928 1387.292
3052.476 1251.03 1388.744
3011.91 1234.855 1371.747
3045.605 1311.535 1390.372
3049.054 1429.762 1404.432
3012.072 1415.052 1387.695
3047.175 1366.598 1398.513
3046.983 1461.618 1403.045
3019.242 1227.971 1371.204
3042.307 1350.872 1391.57
3014.943 1476.056 1392.21
3046.483 1259.027 1382.148
3032.495 1218.159 1371.157
3023.083 1239.883 1372.181
3013.751 1453.321 1390.676
3028.853 1331.21 1380.651
3029.46 1236.36 1372.331
3019.905 1346.544 1380.871
3040.151 1412.788 1393.75
3041.037 1382.507 1392.549
3039.871 1327.679 1386.326
3037.913 1494.975 1395.518
3028.906 1284.379 1376.557
3036.355 1391.253 1389.413
3030.813 1395.402 1386.949
3109.479 1552.657 1373.966
3113.131 1468.022 1415.952
3136.145 1477.755 1361.634
3092.562 1501.402 1383.069
3088.149 1594.473 1348.108
3099.106 1708.258 1354.674
3101.506 1689.734 1405.503
3087.409 1583.472 1394.725
3121.317 1487.385 1378.642
3111.823 1471.707 1383.11
3122.849 1481.213 1366.974
3108.611 1471.88 1413.103
3108.423 1548.304 1357.987
3102.311 1534.82 1387.329
3088.823 1679.067 1409.016
3089.98 1670.405 1347.22
3090.371 1597.264 1341.985
3123.816 1494.43 1364.497
3118.099 1486.161 1420.086
3085.005 1578.505 1394.379
3111.083 1543.091 1359.887
3091.433 1586.256 1339.64
3115.053 1720.239 1364.48
3087.447 1662.444 1411.504
3090.048 1624.063 1409.179
3155.987 1502.016 1369.168
3084.527 1578.69 1398.764
3093.285 1497.187 1366.944
3115.875 1708.139 1363.571
3082.882 1573.019 1396.909
3150.971 1504.4 1372.818
3101.872 1495.209 1415.368
3082.72 1600.927 1414.113
3095.945 1547.213 1341.786
3093.881 1501.725 1362.99
3114.762 1709.684 1402.774
3105.113 1613.819 1335.865
3154.015 1510.114 1367.186
3109.467 1493.226 1387.872
3092.561 1520.286 1356.487
3082.276 1529.736 1396.968
3083.322 1596.351 1416.98
3111.468 1501.967 1394.412
3119.978 1710.856 1388.767
3112.392 1673.447 1349.451
3119.26 1504.451 1407.538
3100.011 1503.991 1356.492
3144.692 1518.412 1362.095
3090.54 1604.526 1423.839
3126.151 1705.14 1374.696
3093.889 1629.182 1426.683
3111.224 1692.602 1412.398
3146.075 1524.702 1374.27
3100.421 1508.749 1417.646
3136.842 1518.717 1362.073
3109.826 1577.837 1342.922
3085.43 1540.599 1408.7
3119.171 1519.941 1392.298
3107.613 1536.198 1347.914
3105.357 1650.491 1423.86
3113.439 1570.671 1349.407
3103.551 1642.089 1425.039
3120.94 1529.742 1382.341
3118.781 1530.671 1373.044
3115.858 1584.356 1355.604
3109.713 1642.855 1422.093
3116.541 1525.026 1423.171
3090.896 1542.729 1415.758
3123.737 1687.227 1386.991
3097.56 1526.798 1418.754
3120.612 1678.637 1376.792
3118.785 1528.45 1409.022
3143.537 1541.922 1378.63
3115.833 1589.161 1364.712
3130.894 1546.134 1377.146
3118.152 1680.383 1397.28
3109.174 1531.673 1385.131
3116.365 1551.689 1364.287
3114.275 1578.2 1423.938
3125.068 1668.595 1374.024
3118.494 1609.762 1415.393
3118.232 1649.435 1405.803
3132.851 1669.495 1382.169
3118.475 1629.398 1412.038
3141.208 1554.935 1379.249
3118.885 1569.945 1414.031
3118.078 1647.221 1399.229
3112.023 1564.533 1380.709
3136.474 1559.861 1363.295
3111.596 1575.232 1385.111
3117.988 1639.886 1400.07
3118.023 1594.541 1404.408
3120.314 1607.758 1383.885
3124.67 1560.274 1367.843
3119.958 1603.27 1384.067
3120.778 1578.581 1379.185
3130.055 1639.473 1385.041
3137.465 1579.535 1365.126
3125.883 1613.257 1384.594
3131.02 1583.449 1380.631
3130.482 1589.214 1366.151
3133.644 1605.164 1366.518
2818.298 1769.028 1397.714
2784.279 1711.128 1401.352
2725.345 1713.887 1378.126
2802.73 1677.583 1365.888
2816.557 1749.319 1400.798
2868.323 1741.937 1362.783
2854.045 1735.657 1363.975
2844.03 1748.024 1362.812
2844.971 1751.76 1361.291
2735.818 1696.426 1353.51
2862.431 1670.801 1366.613
2822.376 1680.3 1365.805
2737.096 1694.08 1415.736
2868.353 1725.461 1363.859
2744.164 1681.141 1362.176
2889.944 1681.998 1365.537
2857.728 1688.299 1365.13
2733.59 1711.86 1411.417
2874.155 1718.003 1364.003
2848.058 1726.823 1363.933
2901.259 1690.742 1364.798
2791.427 1761.083 1396.568
2731.854 1719.541 1364.499
2734.174 1727.638 1390.105
2787.088 1753.184 1399.869
2795.106 1689.911 1365.219
2739.67 1736.286 1382.602
2781.699 1740.276 1400.587
2824.234 1734.475 1363.89
2779.817 1694.459 1363.553
2748.955 1713.173 1365.419
2830.762 1690.862 1364.979
2832.742 1694.327 1364.893
2776.489 1749.225 1400.166
2808.332 1741.847 1363.782
2777.675 1757.685 1378.912
2764.231 1709.828 1360.781
2805.37 1718.952 1364.548
2753.843 1735.629 1364.345
2790.835 1708.851 1365.032
2788.669 1718.054 1364.766
2767.017 1748.922 1365.796
2751.751 1596.192 1397.589
2781.105 1707.014 1401.235
2749.187 1634.889 1408.834
2738.864 1521.317 1367.553
2753.319 1405.288 1388.315
2751.871 1275.806 1406.628
2745.853 1149.856 1392.522
2927.823 1235.114 1389.406
2929.554 1330.203 1395.706
2929.333 1430.438 1399.804
2929.323 1577.032 1406.184
2913.97 1613.877 1405.872
2875.597 1706.021 1402.422
2853.271 1701.162 1401.497
2837.94 1711.492 1401.017
2829.714 1605.464 1404.969
2801.245 1608.572 1399.795
2889.292 1596.625 1406.771
2786.429 1594.923 1397.046
2867.39 1132.465 1378.11
2767.138 1597.252 1400.796
2925.155 1135.816 1373.7
2922.311 1147.421 1376.489
2789.877 1608.502 1397.081
2908.381 1598.155 1406.528
2747.45 1490.507 1374.47
2750.389 1386.77 1393.201
2918.66 1561.392 1406.866
2927.186 1497.226 1403.969
2925.749 1421.721 1399.277
2751.845 1258.467 1407.282
2744.827 1158.372 1399.562
2929.872 1294.684 1393.996
2804.898 1612.266 1400.853
2880.807 1682.511 1403.461
2914.425 1160.72 1379.534
2790.516 1583.162 1396.874
2752.453 1639.595 1400.96
2881.132 1630.288 1405.556
2900.374 1144.341 1377.382
2922.504 1362.738 1396.013
2858.588 1134.607 1378.911
2918.309 1423.745 1399.996
2745.271 1243.725 1414.177
2749.605 1354.133 1404.711
2753.456 1479.978 1378.129
2917.059 1275.586 1391.268
2901.455 1657.904 1404.43
2890.942 1662.236 1404.295
2769.092 1693.048 1403.577
2852.918 1132.33 1378.656
2800.199 1700.245 1402.402
2843.204 1585.873 1406.227
2781.618 1571.59 1399.446
2750.277 1436.462 1392.978
2747.063 1297.004 1413.039
2829.664 1627.94 1404.259
2745.303 1185.462 1413.898
2916.045 1351.782 1394.755
2750.442 1661.19 1401.481
2812.144 1626.866 1402.403
2871.783 1612.956 1406.17
2913.62 1300.172 1391.343
2755.382 1326.641 1409.284
2752.568 1453.118 1396.356
2889.264 1141.14 1377.772
2832.147 1139.777 1384.46
2813.32 1572.188 1402.422
2905.545 1180.278 1383.802
2912.671 1340.832 1393.877
2750.917 1164.361 1412.035
2760.974 1555.729 1396.726
2905.024 1566.955 1407.406
2862.168 1663.55 1404.225
2755.781 1259.037 1411.509
2901.969 1523.401 1408.211
2783.763 1684.227 1401.923
2854.763 1648.822 1404.706
2758.222 1540.413 1393.09
2897.393 1168.939 1382.691
2757.145 1269.949 1409.862
2904.437 1523.293 1408.018
2848.11 1150.242 1381.233
2907.902 1362.947 1395.659
2910.975 1459.601 1404.689
2760.324 1543.113 1397.508
2803.464 1149.658 1394.999
2818.997 1686.259 1403.08
2760.232 1433.4 1404.824
2754.267 1193.139 1409.24
2763.366 1651.206 1404.192
2764.478 1353.851 1404.929
2895.362 1181.198 1384.712
2758.885 1534.988 1395.818
2823.556 1571.387 1404.191
2765.172 1313.266 1402.954
2836.433 1668.198 1403.891
2795.374 1151.905 1396.588
2760.483 1247.405 1406.016
2766.784 1655.06 1404.119
2804.364 1646.552 1402.028
2896.19 1511.823 1408.587
2899.318 1335.813 1393.841
2891.385 1183.417 1384.661
2758.837 1498.691 1399.595
2770.1 1307.178 1400.805
2771.87 1337.427 1401.157
2763.102 1179.792 1404.197
2771.354 1319.772 1400.584
2835.286 1641.948 1404.381
2848.725 1164.694 1384.235
2887.587 1194.421 1383.719
2883.082 1250.956 1388.235
2768.779 1271.342 1401.62
2785.564 1554.92 1397.96
2895.297 1209.158 1385.283
2890.337 1202.201 1384.146
2768.763 1235.26 1402.064
2819.179 1166.523 1393.399
2833.046 1543.467 1406.42
2890.932 1398.621 1404.779
2890.574 1299.974 1391.62
2767.646 1483.774 1404.5
2778.551 1541.79 1401.102
2798.988 1655.279 1401.471
2774.576 1220.077 1401.322
2885.307 1519.381 1408.577
2851.568 1546.769 1408.061
2850.658 1177.56 1387.052
2772.24 1479.14 1403.431
2883.646 1481.757 1408.857
2872.537 1474.964 1408.655
2781.152 1177.973 1400.265
2786.802 1338.529 1399.772
2876.942 1452.156 1408.623
2783.307 1309.281 1400.642
2874.923 1270.555 1392.979
2882.089 1213.616 1383.841
2877.717 1310.07 1397.76
2770.236 1523.822 1404.171
2776.942 1498.988 1401.326
2787.7 1215.051 1400.624
2825.14 1178.443 1392.924
2876.7 1367.55 1404.979
2866.182 1525.968 1408.569
2837.466 1189.223 1391.365
2789.816 1413.696 1398.865
2869.95 1294.192 1398.146
2863.594 1217.956 1388.854
2868.584 1472.008 1408.723
2788.478 1223.068 1400.714
2803.122 1331.296 1403.556
2859.293 1512.369 1408.913
2871.234 1504.938 1408.602
2799.117 1350.765 1401.741
2865.347 1238.739 1390.892
2807.371 1414.396 1402.873
2802.703 1323.786 1403.739
2869.754 1412.675 1407.875
2860.2 1387.139 1407.341
2802.761 1220.708 1400.541
2813.475 1205.023 1398.944
2852.473 1240.514 1395.273
2806.967 1348.073 1403.641
2865.121 1375.468 1406.51
2861.348 1206.541 1388.594
2855.022 1237.206 1393.816
2814.13 1404.599 1404.715
2827.942 1207.607 1396.041
2852.957 1258.176 1397.943
2803.667 1475.136 1400.982
2804.169 1441.114 1401.596
2810.889 1292.433 1404.517
2810.019 1298.793 1404.646
2833.299 1515.234 1407.216
2850.528 1380.889 1407.744
2800.496 1508.279 1399.664
2837.626 1204.264 1392.779
2852.326 1469.887 1409.416
2806.819 1439.497 1402.327
2817.483 1352.323 1405.904
2819.742 1342.378 1406.188
2824.485 1423.342 1406.916
2819.863 1317.858 1405.906
2843.063 1383.404 1408.392
2826.421 1313.056 1405.694
2823.82 1407.271 1406.89
2814.128 1506.644 1403.137
2837.612 1409.085 1409.072
2833.615 1304.299 1404.742
2827.831 1367.34 1407.575
2824.876 1395.921 1407.203
2832.855 1398.785 1408.506
2835.527 1323.853 1405.96
2832.19 1481.735 1407.668
3090.107 1629.42 1355.211
2928.822 1665.173 1365.697
3064.608 1666.267 1364.422
2904.022 1235.416 1378.962
2914.826 1440.574 1386.135
2919.048 1535.457 1377.628
2915.639 1606.367 1371.541
3090.108 1511.863 1376.299
3056.419 1396.354 1382.983
3071.877 1281.832 1384.852
3085.178 1134.741 1387.026
3041.566 1660.971 1364.866
2978.071 1657.996 1366.592
2962.981 1129.783 1365.336
2897.791 1132.845 1370.014
3089.238 1644.63 1357.974
2902.01 1207.564 1376.616
3041.727 1653.815 1365.464
2982.327 1646.993 1367.299
3035.563 1131.355 1366.366
3066.557 1260.141 1383.867
3094.126 1529.145 1366.578
2919.032 1483.361 1382.639
3056.802 1382.363 1378.969
2917.142 1647.894 1368.107
2934.923 1648.131 1367.919
3069.806 1648.389 1365.343
3089.55 1511.864 1366.813
3069.549 1136.076 1377.576
3073.97 1187.792 1382.003
2931.78 1627.375 1369.636
2923.213 1600.348 1371.984
3060.01 1304.444 1384.564
2908.023 1235.818 1377.968
2919.022 1361.35 1382.941
2914.662 1212.985 1374.776
2913.235 1294.285 1380.991
3080.076 1452.474 1366.845
2918.756 1240.874 1375.916
2914.527 1203.85 1374.106
3086.329 1556.419 1350.749
2976.409 1137.345 1364.722
2930.264 1528.591 1378.597
3057.13 1279.463 1380.655
3071.955 1422.347 1367.896
2943.035 1618.181 1370.154
3078.562 1581.074 1360.067
3039.241 1625.015 1366.659
3083.188 1470.337 1361.479
3055.566 1255.151 1377.446
3085.291 1546.3 1349.369
3025.998 1137.985 1364.219
2926.817 1327.938 1378.838
2931.148 1429.722 1381.407
2921.384 1226.582 1374.49
2921.663 1234.876 1374.954
2940.109 1495.285 1378.965
2935.54 1150.645 1368.817
2940.99 1542.1 1376.582
2930.845 1344.496 1378.373
2920.732 1198.958 1372.95
3084.56 1485.781 1356.558
3054.713 1148.713 1370.936
2942.18 1474.646 1378.08
3073.614 1566.168 1363.676
3079.997 1479.996 1351.048
2923.15 1172.582 1371.118
3064.764 1596.796 1368.862
2936.201 1335.188 1376.943
3055.915 1291.679 1367.306
2942.022 1478.87 1378.203
3042.306 1156.239 1365.294
3077.289 1544.467 1355.731
2949.608 1566.458 1373.658
2947.441 1508.844 1376.31
3058.037 1628.009 1367.134
2944.604 1392.561 1376.532
2994.287 1605.747 1369.244
3058.02 1300.622 1362.935
3062.675 1567.398 1370.101
2964.036 1162.043 1369.091
2936.192 1172.917 1370.135
2951.432 1492.585 1375.286
3058.269 1338.272 1353.388
3017.07 1620.768 1367.704
3074.114 1491.452 1350.56
2939.408 1262.008 1373.311
2952.162 1371.399 1375.319
2953.41 1549.286 1373.99
3058.306 1582.998 1369.875
2946.593 1418.978 1376.38
2956.146 1508.603 1374.314
3051.998 1293.875 1354.173
2946.946 1241.992 1371.794
3040.289 1176.709 1362.387
2957.056 1544.186 1373.501
3006.808 1171.645 1361.38
3057.971 1568.512 1370.644
2966.6 1605.476 1370.201
3055.161 1367.546 1352.342
3048.116 1266.988 1355.064
3060.457 1430.005 1354.729
2962.507 1491.953 1373.928
2949.102 1301.845 1373.415
2957.121 1180.254 1370.274
3066.083 1495.822 1362.19
3043.487 1257.484 1355.152
3055.115 1421.647 1360.238
2965.162 1567.773 1371.996
3011.159 1171.751 1360.689
3061.062 1500.715 1368.218
3061.913 1437.563 1354.478
3038.151 1201.924 1358.958
3056.42 1430.507 1360.441
3037.429 1291.635 1356.466
2951.765 1344.234 1374.633
2960.389 1334.387 1372.99
2968.011 1490.178 1373.842
3057.525 1475.756 1368.282
2960.4 1243.528 1371.17
3022.973 1182.697 1358.85
2980.961 1520.749 1372.817
2963.761 1439.961 1374.767
3026.852 1596.186 1367.844
2969.047 1365.922 1372.921
3014.558 1186.437 1359.876
2974.381 1424.424 1373.871
3031.016 1262.804 1357.343
3053.921 1462.824 1369.847
2967.844 1299.957 1371.148
3049.321 1534.446 1371.67
2969.636 1288.183 1371.023
3030.339 1556.938 1368.352
3047.7 1437.587 1371.428
3030.946 1258.161 1357.119
2994.919 1591.291 1369.824
3004.953 1580.194 1369.784
3047.678 1461.242 1372.656
2973.352 1268.397 1371.384
2978.651 1391.995 1372.355
3035.533 1550.733 1368.649
3042.916 1515.942 1371.421
2984.542 1361.84 1370.615
3003.536 1581.272 1369.843
2984.94 1341.229 1370.491
3023.036 1276.158 1363.635
3022.931 1564.417 1368.627
3036.914 1498.475 1371.127
3035.982 1418.665 1373.296
3008.817 1226.726 1364.73
2989.33 1401.819 1370.944
3027.302 1385.51 1373.426
2985.384 1207.763 1370.737
2998.077 1432.773 1370.482
3034.816 1517.096 1369.83
2980.193 1286.973 1371.366
2991.427 1386.515 1370.406
3036.998 1451.218 1373.026
2998.876 1469.892 1371.211
3030.921 1467.813 1371.568
3027.814 1532.836 1368.757
2984.461 1284.748 1371.908
3026.117 1424.328 1372.569
3009.756 1317.198 1373.316
3017.531 1332.488 1373.196
2999.198 1514.884 1371.561
3003.153 1496.407 1370.91
3003.124 1552.11 1370.661
3016.326 1376.84 1372.904
3015.574 1336.737 1373.495
3002.574 1391.075 1370.179
3024.167 1433.264 1371.809
3005.52 1419.858 1369.896
3013.658 1493.998 1369.564
3007.345 1466.12 1369.935
2750.968 1561.086 1363.04
2752.228 1663.567 1364.384
2853.806 1668.784 1366.681
2919.007 1569.298 1374.604
2909.274 1436.058 1386.254
2903.631 1337.042 1387.712
2900.236 1282.436 1384.441
2885.406 1147.739 1372.96
2757.058 1123.736 1356.612
2755.067 1241.761 1403.486
2757.541 1350.648 1402.221
2750.967 1470.392 1369.932
2791.792 1660.061 1364.925
2749.716 1653.371 1362.434
2820.5 1659.079 1367.488
2852.461 1653.257 1368.12
2909.566 1641.701 1368.687
2906.506 1428.489 1386.74
2898.67 1295.462 1385.816
2894.963 1229.778 1380.425
2780.215 1135.198 1389.339
2749.037 1202.661 1386.065
2759.903 1291.567 1402.054
2748.286 1545.185 1364.927
2760.822 1323.773 1403.067
2757.413 1456.279 1380.186
2751.293 1543.385 1366.894
2908.499 1624.091 1370.151
2744.625 1171.251 1381.937
2762.826 1289.439 1396.138
2901.975 1427.015 1385.953
2888.658 1222.268 1380.787
2779.189 1647.794 1357.879
2804.76 1142.096 1390.129
2764.08 1129.247 1357.48
2751.213 1507.888 1369.477
2765.2 1369.515 1400.058
2759.746 1573.702 1372.763
2838.971 1638.887 1369.27
2752.815 1516.884 1369.253
2883.745 1238.83 1383.799
2893.972 1340.743 1391.699
2899.317 1458.069 1381.65
2761.233 1458.297 1387.268
2762.178 1279.065 1390.328
2842.808 1140.029 1377.678
2769.1 1383.184 1398.02
2902.874 1637.175 1369.11
2871.35 1642.677 1368.883
2879.033 1633.259 1369.607
2890.036 1630.697 1369.74
2896.287 1564.041 1374.775
2765.554 1441.818 1391.986
2878.897 1191.992 1378.884
2886.698 1280.927 1387.799
2758.757 1139.702 1357.212
2761.285 1275.593 1385.684
2892.767 1449.805 1380.956
2764.709 1583.591 1374.434
2892.001 1424.953 1383.07
2789.56 1635.033 1362.931
2858.171 1153.164 1377.174
2895.565 1606.452 1371.67
2747.394 1179.959 1371.014
2887.711 1370.481 1388.615
2758.863 1529.209 1377.207
2873.821 1226.964 1384.448
2771.462 1438.283 1392.564
2756.294 1150.285 1358.571
2812.801 1156.954 1389.907
2760.394 1505.945 1381.926
2751.831 1159.85 1361.971
2756.86 1240.658 1371.993
2878.122 1297.733 1392.848
2767.103 1481.306 1388.513
2817.124 1157.84 1388.462
2777.613 1400.997 1387.187
2888.726 1549.487 1375.756
2766.013 1519.478 1383.897
2762.787 1286.492 1373.979
2883.208 1455.516 1380.147
2878.628 1461.716 1380.261
2887.347 1563.41 1374.87
2873.424 1589.972 1373.036
2872.474 1290.344 1393.611
2776.673 1445.57 1386.386
2876.973 1606.56 1371.779
2892.775 1614.859 1371.026
2760.35 1246.343 1367.088
2883.132 1397.837 1383.537
2777.565 1455.444 1380.134
2857.516 1177.209 1380.646
2863.341 1269.12 1393.719
2811.245 1163.164 1391.422
2874.658 1479.873 1379.767
2772.595 1566.662 1366.062
2873.033 1414.262 1381.47
2868.83 1352.351 1384.761
2867.255 1328.985 1388.181
2853.147 1214.394 1387.372
2761.007 1200.108 1359.887
2765.082 1254.02 1363.296
2765.079 1297.434 1370.438
2866.637 1401.982 1381.834
2857.49 1227.171 1388.311
2812.938 1613.857 1369.158
2777.368 1417.255 1369.827
2864.454 1307.062 1391.27
2864.313 1428.036 1381.458
2852.777 1244.743 1393.049
2777.679 1444.089 1371.569
2767.804 1180.964 1357.406
2841.947 1197.264 1387.601
2865.87 1447.447 1380.797
2857.25 1473.093 1378.524
2777.635 1409.624 1368.4
2774.576 1262.29 1358.635
2853.666 1227.05 1389.393
2778.125 1448.904 1366.812
2859.04 1569.393 1374.239
2844.611 1230.741 1392.967
2865.454 1557.528 1375.069
2778.756 1411.849 1365.307
2784.794 1551.763 1357.328
2778.603 1236.487 1358.845
2845.003 1235.192 1393.561
2823.081 1190.658 1391.647
2855.555 1380.242 1382.193
2778.261 1188.098 1365.201
2783.86 1402.318 1360.675
2851.425 1534.142 1376.048
2783.435 1312.736 1358.312
2853.703 1343.125 1382.966
2788.72 1435.798 1358.491
2779.879 1473.136 1360.857
2819.432 1597.163 1370.651
2790.512 1381.948 1358.65
2790.044 1311.357 1358.616
2830.579 1221.577 1394.578
2848.612 1592.794 1372.704
2846.563 1427.746 1379.16
2826.889 1212.522 1394.331
2838.367 1321.64 1382.86
2782.234 1206.917 1373.577
2836.379 1272.147 1387.487
2840.061 1417.89 1379.094
2800.571 1545.191 1363.821
2787.708 1486.807 1357.8
2824.342 1235.743 1391.187
2797.549 1402.757 1359.102
2793.382 1291.299 1363.633
2821.706 1575.573 1371.749
2826.458 1294.944 1383.649
2822.48 1238.502 1390.07
2787.243 1216.425 1381.166
2806.493 1557.755 1367.093
2831.759 1329.47 1382.049
2829.706 1393.658 1379.194
2792.492 1470.141 1358.445
2797.64 1304.077 1366.974
2795.251 1231.964 1384.557
2804.131 1315.102 1374.082
2808.738 1380.91 1364.27
2832.829 1554.498 1374.577
2799.959 1306.077 1370.474
2798.357 1237.385 1385.233
2827.424 1381.524 1379.196
2828.492 1552.501 1373.963
2816.504 1310.834 1381.279
2802.495 1305.487 1374.941
2812.694 1332.508 1377.311
2821.309 1513.957 1372.65
2823.131 1426.542 1376.677
2820.105 1332.275 1380.181
2817.415 1451.831 1370.619
2806.489 1471.722 1363.875
2812.557 1473.582 1367.145
2749.586 1613.355 1409.225
2729.919 1706.496 1406.209
2728.378 1535.045 1365.452
2713.798 1459.14 1364.564
2729.494 1540.074 1360.555
2729.622 1705.431 1367.941
2758.291 1595.464 1353.864
2733.961 1458.468 1363.145
2703.178 1460.992 1346.168
2697.258 1465.859 1375.257
2726.287 1463.819 1375.073
2735.059 1450.241 1412.425
2704.181 1471.311 1348.182
2736.042 1521.974 1359.752
2726.134 1707.621 1382.822
2753.49 1652.849 1415.074
2737.75 1496.789 1377.884
2753.747 1621.649 1346.492
2743.475 1462.202 1396.377
2744.69 1483.47 1385.972
2746.824 1547.81 1387.457
2739.741 1538.101 1352.426
2740.579 1661.649 1340.912
2727.776 1694.75 1410.147
2727.462 1466.918 1343.524
2722.677 1469.96 1399.21
2749.318 1478.49 1353.881
2689.568 1482.063 1365.623
2756.39 1601.333 1342.145
2732.251 1694.623 1385.352
2725.07 1475.895 1384.495
2724.2 1475.122 1405.149
2751.421 1545.773 1393.052
2748.667 1477.596 1408.439
2733.038 1659.135 1342.82
2728.995 1683.268 1404.921
2755.533 1591.59 1421.748
2741.565 1474.29 1415.1
2732.82 1670.575 1427.531
2739.715 1624.752 1337.718
2750.441 1620.683 1428.911
2748.209 1531.309 1388.39
2725.836 1485.286 1385.984
2750.357 1496.636 1345.037
2725.903 1485.769 1334.277
2729.737 1664.547 1356.223
2728.449 1495.865 1383.654
2760.069 1523.834 1350.723
2745.549 1494.556 1341.998
2733.905 1622.194 1341.875
2718.898 1499.827 1363.378
2737.837 1487.036 1417.068
2734.264 1677.318 1387.434
2727.911 1661.057 1367.13
2745.154 1490.56 1415.99
2747.915 1500.582 1341.622
2715.127 1514.364 1368.783
2756.459 1521.669 1343.637
2741.582 1576.662 1427.297
2731.15 1505.042 1379.645
2696.182 1505.438 1362.022
2733.458 1593.009 1424.661
2754.28 1510.278 1407.736
2728.436 1512.157 1369.379
2735.925 1570.878 1338.658
2730.1 1596.609 1421.883
2734.339 1658.7 1384.113
2740.073 1535.055 1334.692
2727.127 1510.078 1391.193
2737.073 1541.535 1423.074
2727.517 1515.097 1342.182
2730.729 1566.54 1350.182
2732.188 1523.121 1385.762
2733.74 1551.688 1422.044
2729.844 1639.429 1402.414
2724.532 1635.035 1366.264
2732.497 1531.102 1383.934
2733.109 1533.723 1340.218
2729.03 1563.322 1417.948
2721.543 1607.195 1363.865
2716.828 1525.976 1351.987
2729.714 1558.584 1350.154
2729.512 1595.672 1400.434
2722.318 1537.125 1352.015
2696.268 1541.966 1373.314
2704.329 1541.052 1380.493
2725.802 1536.238 1409.853
2698.564 1552.109 1377.047
2697.815 1550.665 1374.121
2700.886 1548.158 1365.148
2728.75 1563.137 1399.631
2734.649 1585.219 1386.169
2733.122 1550.792 1382.848
2731.416 1594.284 1378.192
2702.039 1571.607 1369.431
2732.266 1568.087 1379.025
2718.995 1601.023 1379.4