####
#
# OBJ File Generated by Meshlab
#
####
# Object border.obj
#
# Vertices: 740
# Faces: 418
#
####
mtllib ./border.obj.mtl

vn -0.410799 -1.273892 -0.440744
v 1.828645 10.763247 -4.783655
vn -0.191058 -1.305218 -0.388611
v 1.655596 10.817166 -4.773028
vn 0.043925 -1.286362 -0.420239
v 1.475767 10.840127 -4.763854
vn 1.031336 -2.471195 -0.535292
v 0.945467 10.717728 -4.737548
vn -0.278196 -1.668539 -0.506088
v 1.655789 10.828405 -4.810871
vn -0.637726 -1.149270 -0.490267
v 1.987797 10.677461 -4.794767
vn -2.141466 -1.778953 -0.554386
v 2.251530 10.419436 -4.816288
vn -0.857907 -0.956351 -0.454757
v 2.125939 10.558903 -4.805406
vn 0.299056 -1.249506 -0.472052
v 1.294771 10.830171 -4.755223
vn 0.021678 -1.696625 -0.548452
v 1.473207 10.852374 -4.801610
vn -0.541092 -1.550317 -0.550654
v 1.832160 10.775120 -4.821248
vn 1.280931 -2.457331 -0.753128
v 0.608641 10.553354 -4.722497
vn 0.167339 -0.357821 -0.093078
v 0.767295 10.649879 -4.767601
vn 0.125134 -0.383594 -0.114743
v 1.112012 10.797290 -4.783970
vn 0.347250 -1.624525 -0.603380
v 1.290059 10.843258 -4.792849
vn -0.826362 -1.397002 -0.603263
v 1.994027 10.689932 -4.832105
vn -1.138358 -1.225575 -0.561970
v 2.133105 10.570255 -4.842798
vn -0.213539 -0.193282 -0.088329
v 2.506115 10.132236 -4.878104
vn 0.097687 -0.233934 -0.149540
v 0.101768 10.292988 -4.735063
vn -0.925917 -0.875928 -0.461716
v 2.635513 9.982100 -4.852771
vn -0.827014 -0.955894 -0.483523
v 2.788838 9.854601 -4.864294
vn -1.203991 -1.164586 -0.610871
v 2.643194 9.993767 -4.890308
vn -0.718069 -1.068420 -0.451979
v 2.962715 9.743701 -4.874217
vn 0.788319 -2.055013 -1.537718
v -0.057820 10.196950 -4.688531
vn -1.072123 -1.272839 -0.631365
v 2.795793 9.867555 -4.901799
vn 0.423461 -1.583288 -0.864016
v -0.244039 10.144168 -4.713459
vn -0.909056 -1.407446 -0.583255
v 2.967896 9.756194 -4.911980
vn 0.285413 -1.127304 -0.587118
v -0.234263 10.127825 -4.677327
vn -0.536573 -1.190986 -0.416912
v 3.153597 9.662601 -4.883615
vn 0.277603 -1.614221 -0.854372
v -0.425472 10.091579 -4.700684
vn -0.653578 -1.550275 -0.542823
v 3.156495 9.674601 -4.921625
vn -0.284516 -2.537145 -0.886327
v 3.357927 9.624507 -4.893565
vn 0.183074 -1.132207 -0.600465
v -0.416541 10.073991 -4.664798
vn 0.012864 -1.150541 -0.543693
v -0.604192 10.037341 -4.651047
vn 0.046285 -1.683660 -0.806165
v -0.611555 10.054376 -4.687270
vn -0.325757 -2.989036 -1.044029
v 3.358575 9.637689 -4.931507
vn 0.012615 -0.344283 -0.122136
v 3.570745 9.636024 -4.940690
vn 0.129401 -1.322379 -0.478550
v 3.791485 9.646656 -4.910381
vn -0.318757 -1.712491 -0.728035
v -0.798687 10.045270 -4.672428
vn 0.177395 -1.614194 -0.580546
v 3.789612 9.660169 -4.948228
vn -0.238741 -1.133926 -0.475417
v -0.793499 10.028838 -4.635841
vn 0.286285 -1.325928 -0.450779
v 4.010482 9.697339 -4.917288
vn -0.637840 -1.626319 -0.729789
v -0.983259 10.076977 -4.655366
vn 0.361777 -1.583246 -0.541115
v 4.007953 9.709682 -4.955200
vn 0.437825 -1.284960 -0.459816
v 4.222497 9.771911 -4.924816
vn -0.441888 -1.063024 -0.481069
v -0.980719 10.059438 -4.618943
vn -0.174313 -0.341314 -0.156680
v -1.160615 10.142267 -4.636727
vn 0.487375 -1.419725 -0.510761
v 4.218559 9.784119 -4.962681
vn 0.568703 -1.365103 -0.566074
v 4.884673 10.052601 -4.940925
vn -1.486242 -1.970737 -0.928069
v -1.327388 10.217565 -4.580343
vn 0.584923 -1.440021 -0.591758
v 4.880848 10.066467 -4.978206
vn 0.410067 -1.310340 -0.494596
v 5.119055 10.128682 -4.945537
vn -1.843649 -2.364634 -1.115707
v -1.326082 10.233912 -4.617147
vn -1.583128 -0.975799 -0.497304
v -1.464662 10.356527 -4.597620
vn 0.460236 -1.512915 -0.566775
v 5.116118 10.141919 -4.983041
vn -1.016762 -0.586125 -0.301824
v -1.467868 10.342848 -4.560256
vn 0.300268 -1.346234 -0.468938
v 5.361181 10.184976 -4.949732
vn -1.761520 -0.555310 -0.493873
v -1.561351 10.514736 -4.579134
vn 0.333540 -1.555081 -0.543493
v 5.359427 10.197718 -4.987435
vn -1.139395 -0.327513 -0.317451
v -1.568330 10.502748 -4.541717
vn 0.180754 -1.374768 -0.495963
v 5.612750 10.218497 -4.952709
vn -0.381052 -0.070312 -0.078121
v -1.618149 10.694835 -4.561082
vn 0.184763 -1.558542 -0.564645
v 5.612823 10.232029 -4.990192
vn -0.009224 -1.378408 -0.519800
v 5.866597 10.217039 -4.954945
vn -2.649318 0.087089 -0.336029
v -1.641982 10.880376 -4.504717
vn -0.038603 -1.559056 -0.585393
v 5.868674 10.231091 -4.992245
vn -3.142814 0.097675 -0.399028
v -1.637055 10.883121 -4.542851
vn -0.272303 -1.344554 -0.483389
v 6.115546 10.168395 -4.956923
vn -1.546712 0.657469 -0.076098
v -1.610611 11.068324 -4.528607
vn -0.339280 -1.552645 -0.556624
v 6.119344 10.181144 -4.994524
vn -0.493971 -1.286962 -0.447863
v 6.354139 10.078022 -4.957164
vn -1.311300 0.610129 -0.051185
v -1.611029 11.070684 -4.489767
vn -1.248104 1.181938 -0.063787
v -1.531355 11.239173 -4.522521
vn -0.971626 1.002607 -0.051724
v -1.531794 11.240767 -4.483377
vn -0.595027 -1.492019 -0.524535
v 6.359694 10.089070 -4.995038
vn -0.668814 -1.193294 -0.465366
v 6.576931 9.951383 -4.954189
vn -0.552478 1.713865 -0.034144
v -1.403784 11.363029 -4.518120
vn -0.800891 -1.388838 -0.548009
v 6.584593 9.961754 -4.991794
vn -0.328248 1.276423 -0.021355
v -1.407306 11.362776 -4.479105
vn -0.816654 -1.078283 -0.480799
v 6.781275 9.793789 -4.949172
vn 0.045230 1.931099 -0.054426
v -1.232400 11.407256 -4.508943
vn 0.070007 1.218606 -0.036038
v -1.240601 11.408864 -4.470500
vn -1.342572 -2.646900 -0.238508
v 2.618893 10.201765 19.188128
vn -0.407695 -0.293575 1.047667
v 2.425610 10.344460 19.460308
vn -0.932841 -1.214477 -0.543082
v 6.790504 9.803465 -4.986548
vn -0.935205 -2.148533 -0.527626
v 2.843020 10.136951 18.940968
vn 0.405386 1.949327 -0.163743
v -1.041882 11.396633 -4.498058
vn -0.320167 -0.741040 -0.159074
v 2.832307 10.126595 19.002127
vn -1.888658 -2.238252 -0.329725
v 2.605913 10.201467 19.264500
vn -0.843168 0.850443 2.321452
v 2.609540 10.601753 19.559469
vn -1.994052 -1.929018 -0.923694
v 7.138706 9.419091 -4.935523
vn 0.249934 1.112714 -0.100169
v -1.052013 11.402310 -4.460274
vn -0.090750 -0.122099 -0.066232
v 3.317963 10.034550 18.516127
vn -0.490680 -0.304790 1.700983
v 2.496088 10.328629 19.477802
vn -0.195113 -0.213796 -0.078553
v 7.322217 9.242637 -4.963181
vn 0.638150 1.766342 -0.378959
v -0.856918 11.355944 -4.488538
vn -0.622424 0.573835 0.418934
v 2.819980 10.797619 19.555151
vn -1.641043 -1.887750 -1.422088
v 3.530723 10.022012 18.262415
vn 0.420712 1.114964 -0.255513
v -0.861881 11.366391 -4.451123
vn -0.277910 0.295078 0.558404
v 2.598915 10.538000 19.582321
vn -0.984365 -1.523082 -1.255400
v 3.733774 9.998194 18.074976
vn -0.836394 -1.028261 -0.283947
v 7.507854 9.078304 -4.914892
vn 0.157464 0.349919 -0.118650
v -0.678826 11.291179 -4.477913
vn -1.891063 -1.988153 -1.537876
v 3.519980 9.998549 18.305958
vn -1.586566 1.468771 0.799952
v 2.809903 10.763791 19.594473
vn -0.692004 -1.542572 -1.202076
v 3.962714 9.992311 17.902868
vn -0.437986 -0.649006 -0.527044
v 3.719926 9.973217 18.116137
vn -1.077305 -1.370814 -0.381085
v 7.512455 9.085103 -4.953066
vn -0.597680 0.762010 0.095932
v 3.030380 10.950474 19.485233
vn -0.448650 -1.535639 -0.959518
v 4.767891 10.012884 17.495012
vn -0.460625 -1.551560 -1.119809
v 4.214829 9.997149 17.749552
vn -0.074919 -1.366505 -0.827279
v 5.536520 10.023222 17.195393
vn -0.370130 -0.782614 -0.614199
v 3.952482 9.965679 17.942934
vn -1.033757 -2.466959 -0.700380
v 7.726880 8.958304 -4.909131
vn 0.123398 -0.867793 -0.478283
v 7.011821 10.026263 17.265882
vn 0.579776 -2.291348 -1.444057
v 7.543231 10.018852 17.439867
vn -0.138094 -2.366176 -1.253358
v 5.970260 10.031531 17.122887
vn 0.582890 1.109200 -0.502773
v -0.504432 11.222876 -4.426417
vn -1.329163 1.713268 0.186576
v 3.024585 10.940209 19.530666
vn -0.436166 -2.221335 -1.519831
v 5.303823 10.016528 17.255159
vn -0.305617 -0.974623 -0.709587
v 4.209845 9.969872 17.789396
vn -1.196004 -2.833248 -0.805256
v 7.730731 8.967511 -4.947245
vn 0.211426 -2.470554 -1.338592
v 6.453225 10.029568 17.140211
vn 0.410793 -0.797739 -0.496882
v 7.777698 10.025720 17.549168
vn 0.002974 -0.310932 -0.165578
v 6.199068 10.010727 17.144909
vn 0.794311 1.458610 -0.694954
v -0.508934 11.208336 -4.463714
vn -0.609474 0.916939 -0.102872
v 3.231378 11.060433 19.377106
vn -0.063001 -0.218226 -0.142223
v 5.043556 9.991919 17.399670
vn -0.289751 -0.990827 -0.624696
v 4.765493 9.989123 17.534161
vn -0.021899 -0.318890 -0.181716
v 5.748343 10.009749 17.198465
vn -0.082018 -1.292138 -0.793200
v 5.533484 10.002007 17.230711
vn -0.472137 -0.054046 -0.775352
v 0.003311 9.333142 11.758059
vn -0.066536 -0.307892 -0.083706
v 7.962211 8.892496 -4.942476
vn 0.048356 -0.269179 -0.159613
v 7.294001 10.000601 17.385246
vn 0.254657 -1.801555 -0.992711
v 7.020354 10.004661 17.307278
vn 0.823517 -1.645644 -1.026522
v 7.779611 10.000505 17.591232
vn -0.183993 -2.857728 -1.515686
v 5.965974 10.011793 17.160622
vn 1.415130 2.018803 -1.345731
v -0.340975 11.126348 -4.410088
vn -1.114990 1.705070 -0.205711
v 3.233093 11.066455 19.420622
vn -0.595883 1.117985 -0.241165
v 3.413610 11.127621 19.258142
vn -0.585986 -2.641368 -1.806297
v 5.304267 9.994188 17.287683
vn 0.700811 -0.937999 0.024113
v 0.175940 9.370654 11.785143
vn 0.739522 -2.608571 -1.648611
v 7.545616 9.993675 17.480774
vn 0.270991 -2.823241 -1.535067
v 6.460340 10.009137 17.179043
vn 0.835722 -1.832070 -0.855529
v 8.000390 10.037718 17.714014
vn 0.396320 -0.877334 -0.399384
v 7.998939 10.056700 17.670876
vn 0.845868 1.336300 -0.585540
v -0.031884 10.906752 -4.414485
vn -2.799655 1.200008 -0.048222
v 0.122258 9.648111 12.019627
vn -0.541709 0.387116 -0.433459
v 0.088488 9.506142 11.809433
vn 1.739293 -3.269820 0.044556
v 0.211672 9.396597 11.755827
vn -0.156092 -1.284936 -0.347110
v 8.192111 8.852374 -4.897336
vn 0.678830 1.079875 -0.457312
v -0.027792 10.920060 -4.376986
vn -0.837947 1.623285 -0.361833
v 3.425574 11.141735 19.294010
vn -0.507969 1.413162 -0.409816
v 3.588927 11.154753 19.136423
vn -0.933327 0.704285 -0.824216
v 0.106675 9.391451 11.690836
vn 0.339405 -0.356777 0.109481
v 0.321764 9.482734 11.906898
vn 0.986255 -0.829658 0.525864
v 0.317940 9.583694 12.073355
vn -2.713397 1.078617 0.333759
v 0.260697 9.855854 12.375183
vn -0.169393 -1.733359 -0.466102
v 8.192059 8.862695 -4.935519
vn 0.158639 -1.253905 -0.322531
v 8.415393 8.879424 -4.890708
vn 0.107934 -0.766335 -0.076729
v 8.453116 10.120922 17.950207
vn 0.342440 -2.291188 -0.251951
v 8.456748 10.117228 17.992210
vn 0.697137 1.494104 -0.648475
v 0.128247 10.812470 -4.399421
vn -0.314970 1.654829 -0.650729
v 3.769159 11.144544 19.020012
vn -0.133964 0.061195 0.016173
v 0.193810 9.771646 12.194014
vn -2.831683 1.221112 -0.039007
v 0.127430 9.659822 12.010782
vn 0.588396 -2.524728 -0.695988
v 0.104120 9.393576 11.684565
vn -1.418113 0.323970 -0.032316
v 0.314898 9.967102 12.544287
vn -0.010073 -0.639471 -0.004001
v 8.687145 10.134058 18.116552
vn 0.515124 1.154914 -0.502803
v 0.131569 10.827222 -4.362133
vn -0.494490 1.459017 -0.441402
v 3.612867 11.171184 19.163408
vn -0.149097 2.413334 -0.788571
v 3.982021 11.120033 18.893972
vn 1.068082 -0.928860 0.605832
v 0.355235 9.611017 12.046516
vn 1.245173 -2.431896 0.405828
v 0.254084 9.407992 11.724838
vn -1.637990 0.384376 -0.030094
v 0.318184 9.980533 12.534735
vn -2.936734 1.162069 0.353176
v 0.264953 9.869316 12.366278
vn 0.273079 -1.750989 -0.466685
v 8.411729 8.888767 -4.928833
vn 0.006502 -0.703322 -0.033408
v 8.910148 10.131101 18.312765
vn -0.023761 -2.519223 -0.025307
v 8.691867 10.133723 18.158205
vn 0.324005 1.557978 -0.669775
v 0.295791 10.743797 -4.385510
vn -0.088235 2.626803 -0.728167
v 4.455389 11.116664 18.780451
vn -0.210200 1.260037 -0.482433
v 3.805810 11.159939 19.041422
vn 0.310789 -2.610723 0.061024
v 0.144980 9.397528 11.658043
vn 0.127296 -0.288795 0.083059
v 0.336262 9.475161 11.904995
vn -0.323292 -0.010107 -0.008062
v 0.341648 10.099537 12.698093
vn 0.533555 -1.140016 -0.416292
v 8.619801 8.970915 -4.887113
vn 0.270349 -0.602802 0.012771
v 9.603535 10.147413 18.968138
vn 0.149068 -0.665159 -0.046286
v 9.366805 10.115984 18.737532
vn 0.020752 -2.472392 -0.113971
v 8.912856 10.128994 18.357649
vn 0.224397 1.276333 -0.547755
v 0.297741 10.759401 -4.348352
vn -0.023000 0.343984 -0.106575
v 4.208210 11.126905 18.864193
vn -0.193930 3.117958 -1.018157
v 4.004294 11.135884 18.938271
vn 0.923998 -2.105797 1.785738
v 0.354295 9.758524 12.199186
vn 1.238167 -1.686633 0.300940
v 0.284728 9.429900 11.706818
vn 1.077651 -0.428727 0.042222
v 0.366697 9.502548 11.879436
vn -1.106780 -0.129204 -0.028383
v 0.326458 10.186127 12.896246
vn 0.760900 -1.542312 -0.581180
v 8.612676 8.981374 -4.924887
vn 0.764089 -0.999650 -0.501428
v 8.799470 9.103567 -4.883850
vn 0.515337 -2.343921 -0.162081
v 9.368331 10.112651 18.790344
vn -0.017060 1.608624 -0.615697
v 0.474552 10.717884 -4.372658
vn -0.147318 3.140783 -0.893897
v 4.434319 11.126461 18.818346
vn -0.029506 2.783572 -0.735520
v 5.570015 11.125893 18.727991
vn 1.032545 -2.348072 1.997693
v 0.369242 9.760717 12.194038
vn 1.744289 -0.784744 0.089851
v 0.382087 9.538845 11.855194
vn 0.433494 -2.218995 0.230721
v 0.192409 9.405341 11.644073
vn 1.286137 -2.021463 1.659745
v 0.384070 9.603723 12.043392
vn 0.228210 -0.090591 0.069964
v 0.471538 10.064528 12.546740
vn -1.979242 -0.360352 -0.017943
v 0.323494 10.220565 12.855059
vn 1.093420 -2.338951 -0.006705
v 9.609135 10.150088 19.027880
vn -0.049438 1.327730 -0.499382
v 0.474085 10.731930 -4.335267
vn -0.004628 0.196580 -0.053300
v 4.699384 11.128004 18.799885
vn 0.010266 1.286112 -0.323403
v 6.119820 11.130187 18.747377
vn 0.272858 -0.099134 0.011248
v 0.425034 9.660751 11.996885
vn 1.420280 -2.229852 1.834381
v 0.371333 9.600227 12.049004
vn 1.313839 -0.392553 0.307448
v 0.463768 10.187113 12.736462
vn -0.643049 -1.135553 -0.025726
v 0.172600 10.421140 13.192558
vn -1.838398 -1.650823 0.064129
v 0.282773 10.310796 13.049404
vn 1.032890 -1.309381 -0.663104
v 8.789746 9.114931 -4.921323
vn 0.897020 -0.873740 -0.483405
v 8.948528 9.254103 -4.878232
vn 0.739259 -2.635883 0.428826
v 9.835432 10.249926 19.232668
vn 0.154574 -0.505111 0.062628
v 9.848364 10.264404 19.307432
vn -0.320000 1.632337 -0.566471
v 0.656918 10.728838 -4.361588
vn -0.042182 3.083969 -0.818267
v 5.555029 11.136882 18.770180
vn 0.000517 0.312009 -0.080135
v 5.835185 11.139380 18.774900
vn 0.085066 2.854725 -0.719048
v 6.663313 11.131303 18.803741
vn 1.559234 -0.396651 0.074337
v 0.449584 9.787049 12.155851
vn 0.043957 -0.065705 0.055879
v 0.383888 9.748534 12.199076
vn -2.443963 -2.129940 0.122774
v 0.257928 10.336728 13.004715
vn 0.999747 -0.763034 -0.440066
v 9.074775 9.417710 -4.871352
vn 0.555151 -0.931767 0.522340
v 10.050677 10.451464 19.518858
vn -0.280465 1.282746 -0.439841
v 0.653412 10.740972 -4.323965
vn 0.014722 1.686225 -0.423995
v 6.113338 11.141191 18.790932
vn 0.047537 -0.979105 0.307561
v -0.123116 10.574438 13.478588
vn 1.472898 -0.376639 0.065293
v 0.452714 9.797796 12.147543
vn 1.656720 -0.386627 0.361640
v 0.482292 10.223332 12.703547
vn -0.124327 -0.450990 0.061573
v -0.005518 10.519873 13.286707
vn -0.953421 -1.553930 -0.041506
v 0.139148 10.441134 13.146187
vn 1.220130 -1.158281 -0.643395
v 8.937793 9.263858 -4.915784
vn 0.562670 -1.561401 0.676368
v 9.981917 10.436050 19.540476
vn -0.661959 1.523497 -0.600657
v 0.835277 10.770770 -4.353029
vn 0.098182 3.078619 -0.776173
v 6.668361 11.142363 18.848248
vn 0.082276 1.761328 -0.504982
v 8.322680 11.127685 19.015362
vn 0.034188 1.200430 -0.304838
v 7.206446 11.130033 18.880735
vn 1.106958 -0.582441 0.282157
v -0.389265 10.511146 13.782930
vn 1.589072 -1.603230 0.770263
v -0.265802 10.583671 13.628599
vn 2.863270 -0.400026 0.957270
v -0.790259 9.796908 14.526386
vn 2.902812 -0.769596 -0.027522
v 0.501487 9.941341 12.331348
vn 2.531198 0.585220 0.603749
v 0.443657 10.335403 12.886045
vn 1.292507 -0.976151 -0.557994
v 9.063953 9.425311 -4.909117
vn -0.543259 1.163707 -0.467761
v 0.828523 10.782690 -4.315530
vn 0.053987 1.870106 -0.474808
v 7.214690 11.141110 18.925280
vn 0.270889 2.625406 -0.824090
v 8.573466 11.125648 19.083231
vn 0.008391 0.199189 -0.055466
v 8.062493 11.139853 19.015411
vn 0.227787 -1.988617 0.673750
v -0.148748 10.559029 13.433496
vn 2.713407 -0.341513 1.072930
v -0.594137 10.225624 14.061405
vn 3.056597 -0.799900 -0.015727
v 0.504272 9.952151 12.322809
vn 1.385127 -1.980811 1.671106
v 0.500869 10.060955 12.546007
vn 2.895045 0.687408 0.710318
v 0.443112 10.376135 12.848848
vn 2.335129 -1.474040 -0.701386
v 9.291385 9.760944 -4.857296
vn 1.937899 1.543776 1.667712
v 9.894931 10.704940 19.595913
vn -1.018428 1.247996 -0.630156
v 0.997454 10.849308 -4.345993
vn 0.064968 1.253629 -0.362798
v 8.334695 11.138852 19.056269
vn 0.548271 2.680226 -0.803354
v 9.022741 11.119864 19.273527
vn 0.324577 -0.142665 0.095345
v -0.505141 10.344410 13.893351
vn 1.570856 -0.893834 0.417689
v -0.402362 10.464540 13.738106
vn 2.099610 -2.265397 1.146758
v -0.283408 10.545091 13.584620
vn 1.382779 -0.607849 0.485651
v -0.866994 9.658160 14.681753
vn 0.116789 -0.012338 0.040441
v -0.663451 10.071054 14.205782
vn 1.604583 -0.312444 0.566093
v 0.539321 10.117532 12.497879
vn 1.167515 -0.225528 0.425586
v 0.522127 10.083062 12.526781
vn 1.521061 -2.197413 1.814473
v 0.488219 10.056319 12.550997
vn 0.274299 0.105921 0.108736
v 0.343907 10.511551 12.992235
vn 0.312005 -0.224138 -0.117689
v 9.389596 9.931266 -4.888272
vn 2.105204 1.251648 1.217823
v 9.905643 10.645483 19.638504
vn -0.860694 0.981142 -0.513114
v 0.988194 10.860730 -4.308620
vn 0.370960 3.062816 -0.979426
v 8.586592 11.136843 19.123211
vn 0.040682 0.275413 -0.083531
v 8.819264 11.133961 19.211416
vn 0.787998 -1.076679 0.204666
v -0.941637 9.563833 14.876160
vn 1.359812 -0.577088 0.478721
v -0.868174 9.645308 14.669027
vn 2.925078 -0.403657 0.972605
v -0.787945 9.783630 14.513916
vn 1.205528 0.287316 0.301634
v 0.517633 10.254776 12.678646
vn 0.233129 -0.016709 0.069773
v 0.500073 10.222366 12.706230
vn 2.396278 1.402738 1.385408
v 0.211607 10.610181 13.144918
vn 0.459483 0.791860 0.445385
v 9.709114 10.848293 19.631378
vn 0.902797 1.792834 0.812422
v 9.695388 10.877319 19.582577
vn -1.287038 0.995049 -0.582797
v 1.131259 10.970083 -4.339499
vn 0.819684 2.867706 -0.920246
v 9.033808 11.130337 19.316021
vn 2.933733 -0.372445 1.163866
v -0.591275 10.211728 14.049744
vn 0.937845 -1.214810 0.250161
v -0.973175 9.531015 14.824942
vn 1.768663 0.340650 0.463962
v 0.517478 10.287651 12.647951
vn 2.338437 1.370303 1.353799
v 0.209910 10.622670 13.135208
vn 0.985398 -0.799978 -0.452901
v 9.521697 10.068722 -4.843648
vn -1.078187 0.786916 -0.469990
v 1.121178 10.978728 -4.301898
vn 0.094480 0.261009 -0.030169
v 9.248563 11.095774 19.430664
vn 1.049862 -2.641831 1.231959
v -1.252177 9.449414 15.147743
vn 0.216800 -0.317957 0.073445
v -1.111101 9.459780 14.981237
vn 1.542274 1.040733 0.222437
v 0.444570 10.448024 12.786579
vn 2.219516 0.869332 0.311393
v 0.461563 10.419037 12.819397
vn 0.084100 0.101165 0.045829
v 0.066363 10.702585 13.279253
vn 1.287856 -1.090609 -0.594762
v 9.511790 10.077860 -4.881344
vn 0.374947 0.941324 0.111894
v 9.481876 11.000076 19.548943
vn -1.476973 0.777644 -0.531534
v 1.238153 11.120044 -4.333637
vn 0.754630 1.987054 0.119143
v 9.469994 11.007516 19.500118
vn 1.854475 0.270157 0.294524
v 0.460940 10.382885 12.850361
vn 0.828286 -0.967322 -0.399321
v 9.665364 10.190752 -4.836267
vn -1.186195 0.594383 -0.415611
v 1.227604 11.125461 -4.295782
vn 1.044230 -2.532355 1.149017
v -1.262388 9.439701 15.135616
vn 1.211813 1.417198 0.192471
v 0.326432 10.584161 12.927307
vn 1.877950 1.476423 0.400308
v 0.351126 10.559635 12.961540
vn 1.098852 -1.329172 -0.534625
v 9.657861 10.199968 -4.874155
vn -1.577714 0.581835 -0.552254
v 1.319579 11.286135 -4.328501
vn -2.015121 0.577474 0.607321
v -0.910936 10.473080 16.034939
vn -0.160904 -0.311839 0.063941
v -1.407478 9.478881 15.285786
vn 1.651509 0.821764 0.419846
v 0.360035 10.523152 12.993834
vn 0.611711 1.358283 0.225005
v -0.077066 10.741264 13.435694
vn 0.688631 -1.107753 -0.364172
v 9.824879 10.288967 -4.829053
vn -1.229661 0.432360 -0.430369
v 1.307599 11.289697 -4.290693
vn -0.948299 -0.718152 0.354753
v -0.943171 10.666845 16.035646
vn -1.807357 -1.600849 0.505040
v -1.487121 9.559582 15.484169
vn 0.770070 1.622482 0.190854
v 0.179003 10.684853 13.069035
vn 1.487724 1.996029 0.432860
v 0.206618 10.668711 13.103817
vn 0.644781 1.440886 0.244090
v -0.086377 10.747355 13.424238
vn 0.888429 -1.477442 -0.486688
v 9.820158 10.298547 -4.867121
vn -0.284527 0.090193 -0.099868
v 1.380136 11.463206 -4.323636
vn -1.482125 -1.076040 0.541832
v -0.948121 10.665613 16.019920
vn -0.170370 0.277659 0.042131
v -1.057236 10.356881 15.968571
vn -0.566706 -0.907481 0.514693
v -1.095449 10.856157 16.002279
vn -1.251772 -0.179185 0.479254
v -1.550808 9.714825 15.616930
vn -2.199112 -2.088129 0.563022
v -1.520913 9.580098 15.428270
vn 1.357646 1.198925 0.396176
v 0.222273 10.637479 13.136744
vn 1.104274 2.685761 0.715707
v -0.397274 10.750160 13.727407
vn 0.548247 -1.198561 -0.400462
v 9.993935 10.363184 -4.822669
vn -0.951198 -1.481471 0.837503
v -1.100601 10.850615 15.986835
vn -2.990621 0.984346 0.924812
v -0.914889 10.476015 16.019032
vn -1.621458 -0.355688 0.618059
v -1.577238 9.746134 15.559603
vn 0.244584 1.711776 -0.097973
v 0.018214 10.738892 13.210712
vn 0.865987 2.676114 -0.048509
v 0.048336 10.738405 13.244982
vn 1.143010 2.835048 0.771700
v -0.405824 10.756858 13.715464
vn 0.672683 -1.548109 -0.520129
v 9.991043 10.374556 -4.860664
vn -2.546721 0.738346 -0.906209
v 1.455568 11.833319 -4.275872
vn -1.407153 2.161988 0.137894
v -1.279303 10.242626 15.947685
vn -2.003757 -1.652998 1.795233
v -1.519718 11.069569 15.884245
vn -0.067313 -0.095837 0.070201
v -1.316006 10.955952 15.935387
vn -0.978273 0.508550 0.199899
v -1.445101 10.087260 15.849403
vn -0.504114 0.071885 0.154218
v -1.558359 9.936016 15.679907
vn 0.904044 1.554258 0.103270
v 0.072584 10.720174 13.279131
vn 0.253737 0.220128 0.097662
v -0.547392 10.796010 13.859484
vn 0.346170 -1.252029 -0.436700
v 10.170590 10.408691 -4.816204
vn -2.877267 0.838111 -1.024107
v 1.468218 11.830645 -4.313601
vn -1.788385 2.621184 0.154122
v -1.269543 10.252904 15.886137
vn -1.268341 0.018160 0.706189
v -1.653028 11.252133 15.807995
vn 0.045665 1.568447 -0.319532
v -0.140474 10.767576 13.361187
vn 0.082347 4.348408 -0.759599
v -0.116665 10.772863 13.386856
vn 0.408355 -1.624091 -0.560721
v 10.169188 10.421523 -4.854105
vn -1.121809 0.627116 -0.343509
v 1.517566 12.015887 -4.270907
vn -1.536777 0.817734 -0.480288
v 1.527364 12.012586 -4.308931
vn -1.698248 0.985230 0.322413
v -1.446188 10.108778 15.789341
vn -1.466647 -0.005956 0.823607
v -1.661235 11.244936 15.793440
vn -1.913872 -1.390383 1.603983
v -1.525750 11.060953 15.869579
vn 0.393924 1.561650 -0.066815
v -0.085458 10.766880 13.422310
vn 2.108340 1.045433 0.466961
v -0.649413 10.839598 14.050158
vn 0.096085 -1.280945 -0.410298
v 10.352907 10.420777 -4.808752
vn -0.119052 0.042581 0.083798
v -1.708711 11.457350 15.702709
vn -0.105341 2.948113 -0.835827
v -0.432075 10.783747 13.676960
vn 2.799385 1.474974 0.691522
v -0.658279 10.878698 14.002651
vn 0.101425 -1.701627 -0.540084
v 10.353273 10.432981 -4.846767
vn -1.250649 1.254484 -0.393107
v 1.617540 12.175360 -4.306259
vn -0.255760 1.238421 0.636816
v -1.520769 11.796309 15.482597
vn -1.793764 1.942087 1.611047
v -1.642200 11.647393 15.607061
vn -0.267379 1.514504 -0.348585
v -0.148569 10.759277 13.353184
vn 1.271016 2.597836 0.947362
v -0.409940 10.782475 13.704020
vn 0.354674 0.094866 0.057153
v -0.724100 11.013124 14.145502
vn -0.072627 -1.299106 -0.383925
v 10.538043 10.409258 -4.801447
vn -0.879614 0.945713 -0.277641
v 1.610804 12.180323 -4.268013
vn -0.117291 2.814227 -0.774429
v -0.463307 10.772867 13.642153
vn 0.842531 1.301745 -0.441690
v -0.555350 10.830673 13.822714
vn 1.334195 2.656391 0.945102
v -0.403366 10.775753 13.713633
vn -0.094071 -1.574770 -0.472235
v 10.540055 10.420420 -4.839597
vn -0.860036 1.520088 -0.437312
v 1.754431 12.302387 -4.307268
vn -0.335758 1.496432 0.774230
v -1.533440 11.800631 15.469103
vn -1.670288 1.918820 1.502084
v -1.654437 11.647637 15.593142
vn 0.695542 1.279208 -0.442466
v -0.581826 10.835589 13.786699
vn 0.232638 0.178522 0.094420
v -0.538177 10.810913 13.859142
vn 2.843321 -0.347981 0.841706
v -0.761487 11.166189 14.302832
vn -0.604070 1.146372 -0.329079
v 1.749420 12.310693 -4.269135
vn 1.313743 0.481712 0.370389
v -0.927680 11.806116 14.906782
vn 1.912609 2.175724 1.024652
v -1.055412 11.897432 15.058315
vn -0.021800 1.384810 0.353711
v -1.180346 11.926462 15.248199
vn -0.019666 0.370268 0.113345
v -1.380757 11.901151 15.334942
vn 0.168130 0.227284 -0.086252
v -0.668131 10.940224 13.930450
vn 1.273258 0.784209 0.494903
v -0.647112 10.919466 13.967394
vn 3.020185 -0.368025 0.895538
v -0.756270 11.177950 14.290071
vn -0.388965 -2.631874 -1.052037
v 11.094741 10.316547 -4.784820
vn -0.139400 0.364541 -0.099501
v 1.922989 12.390312 -4.310386
vn 1.450525 0.175574 0.324793
v -0.838205 11.672687 14.754452
vn 1.450352 0.773984 0.475934
v -0.642216 10.888727 14.003506
vn 0.115058 0.003584 0.027413
v -0.783262 11.524462 14.589203
vn -0.046006 -0.386014 -0.156144
v 11.286122 10.300973 -4.816617
vn 1.521757 0.588364 0.432434
v -0.928708 11.818760 14.893984
vn 0.021494 1.421249 0.379897
v -1.216428 11.940026 15.192871
vn 2.213047 1.261451 -0.311410
v -0.711665 11.074566 14.082268
vn -0.287094 2.534338 -0.654240
v 2.107626 12.445583 -4.275842
vn 1.589732 0.210375 0.360204
v -0.836865 11.685493 14.741545
vn 1.923360 2.092336 0.952951
v -1.060485 11.908084 15.045166
vn 1.191779 1.029705 -0.581684
v -0.720815 11.079811 14.072838
vn 1.768480 0.481156 0.246158
v -0.704985 11.019209 14.146135
vn -0.114931 -1.266952 -0.518503
v 11.471623 10.266196 -4.772758
vn -0.341032 3.073535 -0.793332
v 2.108166 12.435780 -4.314053
vn 2.318498 0.917418 -0.550929
v -0.740410 11.236038 14.225557
vn -0.135095 -1.630665 -0.668546
v 11.475002 10.281164 -4.810081
vn -0.031156 -1.271845 -0.528337
v 11.661942 10.258184 -4.765786
vn 0.544457 1.685155 -0.406640
v 2.295380 12.430053 -4.319763
vn 1.246908 0.853602 -0.719233
v -0.749493 11.241978 14.216396
vn 1.564861 0.214154 0.096141
v -0.736401 11.181910 14.289888
vn 0.438088 1.206114 -0.288640
v 2.298349 12.438164 -4.281364
vn 1.571454 1.760511 -1.833125
v -0.754167 11.408825 14.372627
vn -0.024175 -1.530791 -0.661606
v 11.664627 10.273559 -4.802956
vn 0.895172 1.490860 -0.475705
v 2.470037 12.364399 -4.329017
vn 0.691600 1.089615 -0.360235
v 2.476721 12.372795 -4.290789
vn 0.077186 0.084999 -0.074636
v -0.788595 11.586357 14.513613
vn 2.787165 -0.256871 0.923274
v -0.760315 11.540855 14.578894
vn 3.049221 -0.279570 1.011508
v -0.764375 11.531401 14.588520
vn 0.263062 -2.299015 -1.571088
v 12.041985 10.281261 -4.751042
vn 1.063611 1.327230 -0.563146
v 2.632446 12.257606 -4.340235
vn 1.636347 2.117487 -1.124187
v -0.838741 11.744598 14.674883
vn 0.244713 0.101650 0.047331
v -0.819809 11.695735 14.741751
vn 0.059342 -0.374329 -0.222734
v 12.231635 10.322739 -4.779983
vn 0.813647 0.986680 -0.431550
v 2.641825 12.266503 -4.302210
vn 1.829392 2.330987 -1.267375
v -0.848888 11.747374 14.665342
vn 0.912428 0.891740 -0.419629
v 2.792760 12.136306 -4.313734
vn 1.208446 1.209218 -0.564206
v 2.782909 12.128452 -4.351844
vn 0.727862 1.322321 0.031529
v -0.949795 11.875715 14.816990
vn 1.966918 1.983188 0.221543
v -0.925764 11.860971 14.856491
vn 0.248535 -1.225948 -0.620918
v 12.418136 10.338021 -4.735505
vn 1.422069 0.868526 0.196461
v -0.915374 11.832617 14.895094
vn 0.325016 -1.526987 -0.780642
v 12.418014 10.356384 -4.771810
vn 0.180861 0.166550 -0.070981
v 2.920161 11.982328 -4.363931
vn 0.261261 1.603497 0.040136
v -1.096467 11.949693 14.966671
vn 1.122280 2.646140 0.206878
v -1.071528 11.946011 15.006907
vn 0.737327 -2.271903 -1.244098
v 12.602612 10.384519 -4.726125
vn 0.971923 1.294558 0.188456
v -1.053765 11.925273 15.046263
vn 0.873700 -2.668030 -1.461285
v 12.601379 10.403821 -4.762104
vn 2.285218 1.744697 -0.467130
v 3.299412 11.485334 -4.364857
vn -0.390442 1.245893 -0.550329
v 6.852613 10.455812 -4.459293
vn -0.274955 1.271870 -0.530805
v 6.623774 10.404958 -4.461447
vn -0.357500 1.614911 0.011665
v -1.266562 11.965180 15.113329
vn 0.057668 2.828613 0.175098
v -1.241778 11.971703 15.154148
vn 0.139448 -0.346961 -0.193899
v 12.781415 10.463537 -4.751085
vn 1.698406 -1.004506 0.541235
v 14.050740 10.887851 17.133368
vn 0.972090 0.906727 -0.366863
v 3.435977 11.310252 -4.377988
vn -0.461540 1.520792 -0.667982
v 6.857006 10.440673 -4.496683
vn -0.363506 2.696752 -0.746589
v 6.391535 10.368367 -4.462471
vn -0.094674 2.769527 -0.490210
v 5.922995 10.325846 -4.459421
vn 0.441887 1.418734 0.192270
v -1.216991 11.959106 15.194056
vn 0.325548 -0.775296 0.106461
v 13.890248 10.817565 17.112284
vn 0.797219 0.445589 0.249774
v 13.997293 11.026312 17.056948
vn 0.499636 -1.138883 -0.647737
v 12.960975 10.514967 -4.703007
vn 1.250936 1.144519 -0.449307
v 3.427182 11.304258 -4.416107
vn 1.872919 2.099445 -0.126895
v 3.746919 10.988689 -4.401893
vn 0.172344 2.734802 -0.649641
v 5.452948 10.335606 -4.456120
vn -1.098573 2.550662 -0.517479
v 7.294540 10.611973 -4.453869
vn -0.108731 0.293479 -0.095514
v 7.081221 10.511811 -4.494707
vn -0.326793 1.569122 -0.633418
v 6.627224 10.390008 -4.499056
vn -0.026133 0.313872 -0.070842
v 6.159320 10.326859 -4.499339
vn -0.095022 0.241774 -0.014042
v -1.437744 11.918056 15.255884
vn 0.257916 2.415081 1.500391
v -1.395698 11.926243 15.327866
vn 1.395869 0.612575 0.434737
v 14.100345 10.887081 16.976414
vn 0.626414 -1.093869 -0.620521
v 13.129102 10.603801 -4.689036
vn 0.233198 0.238204 -0.053972
v 3.576728 11.138907 -4.428526
vn 0.220527 2.556414 -0.721089
v 9.807652 12.130732 -4.308074
vn 0.179704 1.305967 -0.478304
v 4.988596 10.389187 -4.448686
vn 0.004411 0.319033 -0.066010
v 5.687638 10.311277 -4.496277
vn 0.246337 2.737738 1.743380
v -1.387065 11.919516 15.337210
vn 0.639159 -1.406087 -0.799463
v 12.957789 10.534026 -4.738975
vn 0.683505 1.120762 -0.298727
v 10.005110 12.089780 -4.296993
vn 0.751807 1.110329 -0.365696
v 3.924543 10.841288 -4.412558
vn 0.963887 1.385674 -0.424309
v 3.917789 10.833307 -4.450675
vn 0.031990 0.318358 -0.096207
v 5.217576 10.342101 -4.491220
vn -0.643119 1.179755 -0.467503
v 7.507710 10.711390 -4.449026
vn 0.291788 1.290625 -0.450008
v 4.761428 10.441258 -4.444005
vn 0.398513 1.272112 -0.417770
v 4.539160 10.511681 -4.438271
vn 0.494537 1.237859 -0.415194
v 4.322971 10.600401 -4.430930
vn -2.271466 1.624619 -0.576669
v -1.588387 11.816419 15.401711
vn -0.121726 0.194098 0.100981
v -1.544583 11.815545 15.472435
vn 0.558739 0.151341 0.172562
v 14.127709 11.040205 16.753519
vn 0.339701 -0.910343 0.116048
v 14.125334 10.886773 16.897417
vn 0.475120 -0.771775 -0.255404
v 11.747501 9.681877 12.192757
vn 0.771178 -0.490944 0.268499
v 11.709559 9.614631 11.835638
vn 0.799296 -1.335433 -0.768908
v 13.124785 10.621872 -4.725250
vn 1.610851 -1.775447 -1.174206
v 13.283006 10.715565 -4.673321
vn 0.928506 0.914006 -0.364554
v 10.178997 11.988276 -4.289631
vn -0.044690 0.345362 -0.107595
v 9.600704 12.107635 -4.358795
vn 0.852791 1.517512 -0.406520
v 10.002913 12.080937 -4.335197
vn -0.507219 1.244993 -0.409339
v 9.175351 11.977283 -4.347076
vn -0.286948 1.284876 -0.434701
v 9.382410 12.067386 -4.333665
vn 0.236576 1.617709 -0.589702
v 4.985777 10.375599 -4.486846
vn -0.762008 1.427866 -0.538167
v 7.514224 10.699845 -4.487121
vn -0.956350 1.130901 -0.428007
v 8.279184 11.246702 -4.417822
vn -0.739425 1.126136 -0.454913
v 7.713531 10.825397 -4.443156
vn -2.565062 1.897421 -0.687573
v -1.590209 11.809835 15.390339
vn 2.375157 0.568886 0.722958
v 14.148938 10.885820 16.820181
vn 0.586211 -1.878848 0.215326
v 14.080495 10.826060 16.489731
vn 1.025731 -0.799965 -0.596508
v 13.545878 10.991995 -4.636397
vn 0.263367 3.061630 -0.863620
v 9.808958 12.119886 -4.346126
vn 1.193505 1.239518 -0.472981
v 10.172981 11.979247 -4.327591
vn 0.609954 1.181821 -0.408228
v 4.116786 10.709557 -4.422263
vn 0.783864 1.477302 -0.508158
v 4.110439 10.699677 -4.460349
vn -0.883008 1.368676 -0.551808
v 7.720808 10.814777 -4.481274
vn 0.376909 1.607393 -0.557318
v 4.757830 10.428720 -4.482297
vn 0.508965 1.583467 -0.521071
v 4.534740 10.500443 -4.476707
vn -1.714290 2.196984 -0.473739
v 8.097930 11.097130 -4.428923
vn -1.383308 0.407593 0.174937
v -1.704164 11.642035 15.512732
vn -2.380787 1.516348 0.691711
v -1.694867 11.653792 15.556137
vn 1.841230 0.273913 0.536668
v 14.189843 11.043170 16.599531
vn 0.755644 -0.628424 0.237003
v 14.284625 10.874908 16.360228
vn 0.740204 -0.703675 0.049277
v 11.741706 9.746969 11.985283
vn 0.289469 -2.131673 -0.110326
v 11.815103 9.738481 12.147470
vn 1.157743 -1.261817 0.410689
v 11.774902 9.712769 11.827404
vn 1.937700 -2.104299 -1.396705
v 13.276662 10.733661 -4.709386
vn 0.286469 -0.247936 -0.176983
v 13.413974 10.864149 -4.691762
vn -0.709698 1.145661 -0.433777
v 8.986202 11.855013 -4.362018
vn 0.292296 0.237880 -0.115074
v 10.314868 11.837543 -4.321489
vn -0.389499 1.615504 -0.545073
v 9.387704 12.055729 -4.371615
vn 0.632063 1.540458 -0.518117
v 4.317517 10.589741 -4.469208
vn -0.818866 1.063357 -0.463731
v 8.807432 11.711685 -4.377230
vn -1.052918 1.254584 -0.454824
v 8.287397 11.239042 -4.456413
vn -0.183074 0.255837 -0.080371
v 7.917402 10.946254 -4.475351
vn -0.905668 1.075556 0.499647
v -1.670146 11.656236 15.596447
vn 0.267931 -2.275665 0.697804
v 14.149793 10.809845 16.265617
vn 1.163557 -0.638790 -0.532133
v 13.643430 11.153996 -4.615816
vn 1.247789 -0.932864 -0.703974
v 13.537290 11.008098 -4.672760
vn -0.652122 1.525903 -0.508857
v 9.181671 11.967330 -4.385179
vn 2.221045 1.237531 -0.825545
v 10.434087 11.686086 -4.277308
vn -0.927269 1.200019 -0.520918
v 8.816907 11.702414 -4.415220
vn -1.540886 -0.191908 0.296833
v -1.747988 11.436683 15.620127
vn -3.316530 0.659329 1.970921
v -1.736257 11.455782 15.695951
vn 0.193260 -0.263333 0.178016
v 14.341868 10.862302 16.207949
vn -2.246616 -1.920125 1.184060
v 11.877786 9.659986 12.094400
vn -0.264573 -0.321272 0.162691
v 12.021940 9.623039 12.255867
vn -0.735251 -2.263754 -0.388106
v 12.012791 9.662971 11.720678
vn -0.707933 -2.780855 -0.237534
v 11.875151 9.688414 11.833027
vn -0.877091 1.384016 -0.531558
v 8.994267 11.845600 -4.400074
vn 2.647494 1.470743 -0.983176
v 10.424241 11.678563 -4.315075
vn 1.230716 0.350299 -0.375871
v 10.514118 11.511744 -4.270996
vn -2.367436 0.982787 2.088045
v -1.726816 11.458075 15.705576
vn 1.441966 0.521777 0.332882
v 13.316592 10.059052 15.107836
vn 1.386529 0.270950 1.012684
v 14.341174 11.034300 16.162880
vn 0.551760 -2.934800 0.985922
v 14.175216 10.794145 16.204655
vn -1.241950 -0.722862 0.513129
v 11.799424 9.682715 11.950270
vn 1.410565 -0.722214 -0.635903
v 13.634158 11.167761 -4.652614
vn 2.445242 -0.447591 -0.927128
v 13.703942 11.333598 -4.594740
vn 1.656880 0.501170 -0.514047
v 10.504066 11.506360 -4.308927
vn -0.345344 -0.089781 0.042808
v -1.690074 11.215803 15.709616
vn -1.297686 -0.418491 1.264480
v -1.677672 11.237545 15.796148
vn 1.252109 -0.505083 -0.083897
v 13.196277 10.486183 15.585857
vn 2.435370 -0.053851 0.225125
v 13.184197 10.320064 15.441532
vn -0.075805 -0.544600 0.102557
v 13.942134 10.794641 16.151108
vn 1.084486 0.248275 0.802834
v 14.352336 11.033625 16.147778
vn -1.900931 -1.146483 0.749039
v 11.931039 9.516125 12.034143
vn -0.365091 -0.903356 -0.164928
v 12.160215 9.604490 11.769344
vn -0.909536 -1.884401 -0.339254
v 12.287242 9.561760 11.666132
vn 2.555623 0.750480 -1.048373
v 10.657786 10.963858 -4.256230
vn 0.286001 0.075720 -0.096377
v 10.557306 11.324994 -4.303630
vn -0.890301 -0.300443 0.868413
v -1.685436 11.232165 15.786327
vn 0.659623 -0.754628 0.057088
v 13.373408 10.773478 15.870581
vn 2.594981 1.119037 1.030166
v 13.427136 9.938137 14.956947
vn 0.366366 0.057099 0.070305
v 13.231742 10.208437 15.241232
vn -0.276656 -1.224938 0.172162
v 13.707150 10.843320 16.119852
vn 1.031838 1.009022 0.992520
v 14.244891 11.224552 16.065378
vn -2.656770 -1.659738 0.961411
v 11.863475 9.547926 11.902336
vn 0.360458 -1.478821 0.518815
v 12.506001 9.479951 11.608963
vn 2.949448 -0.494878 -1.103870
v 13.692145 11.345401 -4.631552
vn 0.386389 0.001453 -0.106092
v 13.714446 11.532364 -4.608683
vn -1.339338 -2.213291 -0.994930
v -1.550548 11.027063 15.796600
vn -0.970213 -1.051093 1.348515
v -1.539518 11.047426 15.872009
vn 0.105923 -2.385887 0.160883
v 13.522651 10.847571 16.003330
vn 0.459329 -0.309952 -0.004931
v 13.278211 10.675164 15.670952
vn 1.674062 -0.588830 -0.085705
v 13.207866 10.524317 15.529238
vn 1.444714 0.528147 0.346388
v 13.315507 10.070986 15.093830
vn 3.160065 -0.014033 0.332669
v 13.190213 10.360332 15.386084
vn -0.375529 -1.843267 0.219514
v 13.732430 10.829272 16.060524
vn 0.797453 0.818538 0.787771
v 14.255797 11.228339 16.050190
vn -0.608949 -0.311134 0.120882
v 11.970335 9.376625 11.967361
vn -2.053742 -1.130189 0.503368
v 11.922023 9.419511 11.834370
vn -0.115919 -0.977591 0.084116
v 12.408523 9.494074 11.716944
vn 1.302254 0.107013 -0.268358
v 13.712386 11.716679 -4.545180
vn 0.689343 1.139161 -0.465613
v 10.955868 10.520942 -4.245037
vn 1.066157 0.718376 -0.549738
v 10.723873 10.794359 -4.251792
vn 2.751668 0.823251 -1.131380
v 10.644329 10.957505 -4.293582
vn -1.656373 -2.570377 -1.196064
v -1.545821 11.029484 15.784851
vn -0.571431 -0.635868 0.803577
v -1.545527 11.040181 15.862003
vn -1.714138 2.176747 1.348642
v 13.741446 11.402854 15.702990
vn 1.297150 -1.669515 0.146095
v 13.394746 10.787659 15.811485
vn 1.273440 0.465814 0.389599
v 13.652251 9.698945 14.650740
vn 1.525506 0.560496 0.470164
v 13.651774 9.711628 14.637135
vn 0.592342 2.575350 1.552402
v 14.091731 11.359737 15.956457
vn 0.645183 -1.048008 0.690225
v 12.570819 9.513191 11.658676
vn 1.758540 0.182479 -0.340337
v 13.704297 11.719995 -4.583111
vn -1.252087 0.820786 0.534685
v 13.130530 10.818486 14.998209
vn -1.905361 2.294455 0.211948
v 12.982604 10.717463 14.860104
vn 0.908156 0.961535 -0.516335
v 10.825047 10.644927 -4.247842
vn 1.349878 0.853082 -0.678780
v 10.710185 10.786305 -4.288863
vn -0.031386 -0.091965 -0.040606
v -1.330627 10.927818 15.849499
vn -0.560332 -0.766999 0.824126
v -1.334245 10.933097 15.926640
vn -0.840776 -1.144421 1.234969
v -1.329155 10.940494 15.936985
vn -2.200266 1.120957 0.595664
v 13.475717 11.163411 15.465309
vn -1.360357 0.595227 0.604364
v 13.266206 10.929887 15.137970
vn -0.336257 0.206675 0.113314
v 13.592544 11.331421 15.549049
vn 0.301068 -3.211292 0.286564
v 13.548991 10.844720 15.943708
vn 0.477510 2.548734 1.467082
v 14.101418 11.366672 15.941256
vn -0.347784 -1.151126 0.275724
v 13.053184 8.747931 13.204979
vn -1.726662 -0.633786 0.229041
v 11.965065 9.310835 11.771479
vn -0.484102 -0.130676 0.042693
v 12.009570 9.181309 11.879669
vn 1.197550 0.337878 -0.107728
v 13.658984 11.900742 -4.519935
vn 0.500074 -0.209099 -0.036784
v 12.323732 9.314544 12.040073
vn 0.879901 1.371406 -0.579444
v 10.947401 10.510750 -4.282508
vn 1.129286 1.131290 -0.633209
v 10.813567 10.635784 -4.285060
vn -1.348759 -2.351955 -1.538904
v -1.116905 10.827618 15.911049
vn -0.034953 0.138064 0.078274
v 13.920640 11.433731 15.820744
vn -1.739245 2.061498 1.249637
v 13.744922 11.414632 15.688398
vn 0.365179 0.130923 0.065449
v 13.746655 9.578493 14.486187
vn -0.024275 -1.267521 0.105015
v 13.361257 8.727579 13.507746
vn -2.639734 -0.583734 1.273084
v 12.120687 9.069305 12.069231
vn 1.799310 0.558783 -0.158792
v 13.655679 11.900065 -4.558798
vn 0.675252 -0.205029 0.589424
v 12.459945 9.557165 11.800991
vn 0.742877 -0.548668 0.596263
v 12.355709 9.494313 11.925858
vn -1.298936 0.582532 0.575956
v 13.265512 10.942396 15.124088
vn -1.205788 0.817103 0.499565
v 13.132251 10.830275 14.984142
vn -0.117360 0.084429 0.033203
v 12.846234 10.618317 14.707481
vn -1.418890 0.544245 0.570174
v 12.737716 10.467979 14.580933
vn -2.903031 -0.091734 0.939903
v 12.674176 10.310035 14.440008
vn 0.614169 1.521272 -0.579730
v 11.104623 10.416010 -4.281529
vn 0.466667 1.235501 -0.466417
v 11.110918 10.427789 -4.244029
vn -1.264939 -2.223817 -1.450150
v -1.111612 10.831871 15.899910
vn -0.061006 -0.060520 0.055751
v -1.114773 10.837992 15.987349
vn -2.700596 1.358513 0.718290
v 13.481841 11.206142 15.407516
vn -0.339610 0.156544 0.095979
v 13.382813 11.067050 15.265350
vn -0.543657 -0.932396 0.332084
v 12.453747 8.926727 12.597431
vn -0.088334 -0.566091 0.089806
v 13.252128 8.713447 13.311949
vn -0.496227 -1.571070 0.389564
v 13.097407 8.724237 13.161839
vn 0.852075 -2.372163 0.310125
v 13.505961 8.756594 13.658501
vn 0.786409 -1.010173 0.327775
v 13.632634 8.839806 13.808489
vn 1.023973 -0.513118 0.062063
v 13.818732 9.093846 14.104668
vn -2.684895 -0.464764 0.327317
v 11.982583 9.235264 11.738808
vn -0.437190 -0.032642 0.092715
v 12.008216 9.123039 11.860661
vn -1.169504 -0.137193 0.811166
v 12.225754 9.004514 12.252220
vn 1.147930 0.660275 -0.083071
v 13.565839 12.063571 -4.500668
vn -1.967438 -0.075298 -0.747944
v 13.107228 9.430647 13.722101
vn -0.670193 1.834493 -0.693703
v 13.049937 9.348728 13.560816
vn 2.023098 -1.103807 0.556325
v 12.326477 9.357019 11.835943
vn -1.066824 -1.069447 0.451726
v 12.799020 9.840778 14.032064
vn -1.546846 -0.366403 -0.315125
v -0.955899 10.662706 15.932486
vn -4.283102 -1.577930 1.108314
v -0.969552 10.659636 16.008295
vn 1.260257 0.449472 0.184871
v 13.827163 9.390435 14.394588
vn -0.746398 -0.705774 0.533906
v 12.318767 8.980988 12.439184
vn -1.625466 -2.404872 0.975752
v 12.934854 8.765183 13.021589
vn 0.046014 -1.863612 0.141759
v 13.406201 8.722855 13.461117
vn 0.436307 -0.364469 0.092748
v 13.774714 8.981928 13.905613
vn 2.511279 0.079638 0.112146
v 13.855063 9.239859 14.250433
vn -1.406143 -0.172290 0.960365
v 12.225108 8.988097 12.248512
vn 1.537730 0.970027 -0.111015
v 13.562570 12.064344 -4.539697
vn 1.786410 -0.792669 1.518925
v 12.470584 9.466712 11.757339
vn 2.779834 1.850473 -0.518592
v 12.341178 9.185449 11.994434
vn 2.521948 -0.261132 -0.495125
v 12.283436 9.253036 11.841898
vn 0.905860 0.929032 -0.422656
v 12.438046 9.169515 12.434328
vn -1.333803 0.487560 0.536009
v 12.736434 10.479222 14.567011
vn -1.308897 -0.380500 0.059216
v 12.712352 9.955740 14.204964
vn -0.365548 -0.093864 0.032120
v 12.658683 10.153170 14.287289
vn 0.262194 1.290800 -0.472590
v 11.282193 10.363436 -4.244033
vn 0.357579 1.598466 -0.587379
v 11.277790 10.350603 -4.281527
vn -2.278481 -0.947018 1.159285
v -0.964556 10.661161 16.019360
vn 1.690213 0.531911 0.237654
v 13.820331 9.432041 14.340006
vn -0.145871 -0.243081 0.087085
v 12.647398 8.854259 12.710989
vn -1.016397 -1.611902 0.638673
v 12.491872 8.892813 12.564625
vn -1.631070 -2.430831 0.997511
v 12.944638 8.754347 13.011181
vn 1.024135 -2.896948 0.363702
v 13.550551 8.766234 13.609726
vn 1.022476 -1.424422 0.434786
v 13.676162 8.857359 13.758152
vn 1.822061 -0.791362 0.081647
v 13.837899 9.125644 14.051329
vn -1.545889 -0.076030 0.255170
v 11.981815 9.177423 11.716921
vn -1.173006 -1.055705 0.837661
v 12.345815 8.932707 12.413174
vn 0.918747 1.081092 -0.064775
v 13.434213 12.176812 -4.483185
vn -0.338619 0.919026 -0.324971
v 13.095212 9.344822 13.506746
vn -0.638720 1.685778 -0.458010
v 13.001588 9.265377 13.344900
vn -0.273324 -0.045690 -0.095594
v 13.056390 9.561807 13.804768
vn 1.095897 0.778927 -0.361646
v 12.355891 9.198305 12.213839
vn 0.413889 1.093990 -0.264641
v 12.652242 9.138236 12.842077
vn -0.267413 1.304036 -0.424059
v 12.884055 9.197094 13.183323
vn -2.879047 -0.120119 0.908733
v 12.669406 10.321007 14.426346
vn -1.332716 -2.254258 1.142874
v 13.035810 9.577285 13.766533
vn -1.473230 -0.466697 0.087067
v 12.700017 9.989772 14.150991
vn 0.069502 1.317793 -0.434133
v 11.461680 10.325850 -4.244255
vn -1.480849 -0.284973 -0.366362
v -0.917305 10.487091 15.931324
vn -1.202609 -0.228797 0.440922
v -0.932196 10.481153 16.017567
vn 3.112252 0.038729 0.096038
v 13.856259 9.278887 14.195936
vn 0.280617 1.469719 -0.032500
v 13.265376 12.212109 -4.463284
vn 1.013353 1.363034 -0.073349
v 13.428016 12.179760 -4.521879
vn -1.432536 -0.431256 -0.058054
v 13.126334 9.441581 13.662247
vn 1.349489 0.274634 -0.407406
v 12.288279 9.191846 11.823524
vn 1.232656 0.874989 -0.390370
v 12.384892 9.146570 12.190292
vn 0.263150 0.415143 -0.138300
v 12.586910 9.109683 12.621866
vn 1.217488 1.182103 -0.539193
v 12.473549 9.123170 12.408550
vn 0.061584 2.454231 -0.642024
v 12.761346 9.151029 13.017281
vn -1.022918 -1.038491 0.440913
v 12.789199 9.844876 14.018572
vn 0.117090 1.658492 -0.553598
v 11.459459 10.313570 -4.281886
vn -3.213497 -0.601197 0.210430
v -0.936796 10.483828 16.006233
vn -0.416499 1.226051 -0.347892
v 13.037053 9.267654 13.303823
vn 2.406247 1.790606 -0.453570
v 12.349779 9.172256 11.987980
vn 0.600017 1.804705 -0.425772
v 12.696076 9.113743 12.809381
vn -0.281859 1.622923 -0.525045
v 12.930596 9.193911 13.144186
vn -1.543953 -2.602787 1.324682
v 13.023671 9.578214 13.754210
vn -0.111229 1.281559 -0.413746
v 11.644253 10.315329 -4.245988
vn -0.119479 1.699403 -0.549969
v 11.644777 10.303240 -4.283574
vn 0.233100 1.601924 -0.038269
v 13.255031 12.213241 -4.501415
vn -1.940233 -0.937631 0.651045
v 13.103824 9.456706 13.614313
vn 0.093701 3.072337 -0.782604
v 12.808255 9.140201 12.980389
vn -0.247005 1.531597 -0.054962
v 13.080230 12.187111 -4.443992
vn -0.180473 -0.082869 0.058603
v 13.101542 9.354220 13.462362
vn -1.225108 0.508532 -0.500445
v 12.230488 10.642154 -4.277971
vn -0.400837 1.167340 -0.493234
v 11.824764 10.332168 -4.250522
vn -0.497407 1.597518 -0.655128
v 11.828876 10.317935 -4.287549
vn -0.300250 1.546305 -0.081593
v 13.069116 12.183969 -4.481601
vn -1.269507 0.301466 -0.516470
v 12.303028 10.806752 -4.291946
vn -0.819034 0.969890 -0.584972
v 11.989684 10.388746 -4.257502
vn -0.577655 1.323706 -0.234364
v 12.899707 12.119473 -4.428324
vn -1.095583 0.745032 -0.555887
v 12.125483 10.497447 -4.266571
vn -1.566278 0.405445 -0.637518
v 12.316058 10.798005 -4.329080
vn -0.954921 1.245688 -0.716348
v 11.997077 10.372941 -4.294058
vn -0.698092 1.490657 -0.300761
v 12.895741 12.111120 -4.465727
vn -1.469576 0.654663 -0.616977
v 12.241187 10.631360 -4.315131
vn -0.295805 0.056683 -0.136755
v 12.364760 10.976797 -4.344430
vn -1.264788 0.927349 -0.669330
v 12.134693 10.483545 -4.303355
vn -0.771029 1.042938 -0.429226
v 12.736178 12.014771 -4.413210
vn -1.031269 1.328908 -0.565047
v 12.740838 12.002812 -4.450639
vn -0.933106 0.838359 -0.461367
v 12.601990 11.878580 -4.395566
vn -2.418816 0.249328 -1.377484
v 12.401384 11.354480 -4.340379
vn -1.086272 0.627078 -0.441046
v 12.501401 11.718129 -4.376787
vn -1.204775 0.360466 -0.479403
v 12.438680 11.540648 -4.358261
vn -1.617979 0.445002 -0.678024
v 12.451247 11.532946 -4.395634
vn -1.285470 1.100113 -0.620495
v 12.610334 11.867165 -4.433184
vn -1.498661 0.812605 -0.606953
v 12.511405 11.708950 -4.414477
# 740 vertices, 0 vertices normals


usemtl material_0
vt 0.334701 0.018462
vt 0.321911 0.016469
vt 0.334664 0.015803
f 2/1/2 10/2/10 5/3/5
vt 0.346929 0.017670
vt 0.347119 0.015029
f 1/4/1 5/3/5 11/5/11
vt 0.322144 0.019121
vt 0.309269 0.017066
f 3/6/3 15/7/15 10/2/10
vt 0.358339 0.016810
vt 0.358714 0.014188
f 6/8/6 11/5/11 16/9/16
vt 0.285975 0.020820
vt 0.273944 0.018620
vt 0.297148 0.017635
f 4/10/4 13/11/13 14/12/14
vt 0.309655 0.019708
f 9/13/9 14/12/14 15/7/15
vt 0.368443 0.015950
vt 0.368888 0.013323
f 8/14/8 16/9/16 17/15/17
vt 0.396704 0.010418
vt 0.377772 0.015051
f 17/15/17 18/16/18 7/17/7
vt 0.263394 0.021696
vt 0.229473 0.020516
f 12/18/12 19/19/19 13/11/13
vt 0.406824 0.009427
vt 0.406345 0.012064
f 18/16/18 22/20/22 20/21/20
vt 0.218856 0.023693
vt 0.206199 0.021869
f 24/22/24 26/23/26 19/19/19
vt 0.417541 0.011133
vt 0.417964 0.008500
f 21/24/21 22/20/22 25/25/25
vt 0.430084 0.010334
vt 0.430387 0.007682
f 23/26/23 25/25/25 27/27/27
vt 0.206951 0.024403
vt 0.193873 0.022706
f 28/28/28 30/29/30 26/23/26
vt 0.443671 0.009602
vt 0.443817 0.006932
f 29/30/29 27/27/27 31/31/31
vt 0.194572 0.025221
vt 0.181156 0.023603
f 33/32/33 35/33/35 30/29/30
vt 0.457993 0.008875
vt 0.457978 0.006211
f 32/34/32 31/31/31 36/35/36
vt 0.472679 0.005575
f 32/34/32 36/35/36 37/36/37
vt 0.181743 0.026142
vt 0.168238 0.024629
f 34/37/34 39/38/39 35/33/35
vt 0.487917 0.007739
vt 0.487726 0.005081
f 38/39/38 37/36/37 40/40/40
vt 0.168672 0.027195
vt 0.155312 0.025852
f 41/41/41 43/42/43 39/38/39
vt 0.502853 0.007316
vt 0.502622 0.004653
f 42/43/42 40/40/40 44/44/44
vt 0.155568 0.028405
vt 0.142734 0.027222
f 46/45/46 47/46/47 43/42/43
vt 0.517197 0.006874
vt 0.516869 0.004213
f 45/47/45 44/44/44 48/48/48
vt 0.561782 0.006061
vt 0.561454 0.003444
f 49/49/49 48/48/48 51/50/51
vt 0.130844 0.031265
vt 0.130860 0.028684
f 50/51/50 53/52/53 47/46/47
vt 0.120708 0.030176
f 50/51/50 54/53/54 53/52/53
vt 0.577668 0.005827
vt 0.577405 0.003193
f 52/54/52 51/50/51 55/55/55
vt 0.113295 0.031632
vt 0.120548 0.032798
f 58/56/58 54/53/54 56/57/56
vt 0.594181 0.005603
vt 0.594001 0.002955
f 57/58/57 55/55/55 59/59/59
vt 0.108546 0.033082
vt 0.112866 0.034260
f 62/60/62 58/56/58 60/61/60
vt 0.611450 0.005443
vt 0.611394 0.002811
f 61/62/61 59/59/59 63/63/63
vt 0.629036 0.005300
vt 0.629116 0.002682
f 64/64/64 63/63/63 66/65/66
vt 0.106384 0.034556
vt 0.106055 0.037244
f 67/66/67 62/60/62 65/67/65
vt 0.107376 0.035748
f 69/68/69 67/66/67 65/67/65
vt 0.646496 0.005128
vt 0.646701 0.002488
f 68/69/68 66/65/66 70/70/70
vt 0.112090 0.036354
vt 0.107336 0.038491
f 73/71/73 69/68/69 72/72/72
vt 0.663428 0.005036
vt 0.663763 0.002375
f 71/73/71 70/70/70 75/74/75
vt 0.112052 0.039118
vt 0.120363 0.036797
f 74/75/74 77/76/77 73/71/73
vt 0.679431 0.005134
vt 0.679914 0.002492
f 76/77/76 75/74/75 78/78/78
vt 0.120120 0.039549
vt 0.132031 0.037500
f 79/79/79 81/80/81 77/76/77
vt 0.694296 0.005344
vt 0.694891 0.002717
f 80/81/80 78/78/78 85/82/85
vt 0.131456 0.040213
vt 0.145273 0.038270
f 82/83/82 87/84/87 81/80/81
vt 0.390167 1.728139
vt 0.404199 1.708802
vt 0.403301 1.714190
f 84/85/84 83/86/83 89/87/89
vt 0.419318 1.695615
vt 0.420013 1.691310
vt 0.453368 1.661258
f 88/88/88 86/89/86 93/90/93
f 89/87/89 83/86/83 88/88/88
vt 0.401739 1.735406
vt 0.395120 1.729363
f 90/91/90 84/85/84 94/92/94
vt 0.734254 0.003840
vt 0.720746 0.005956
f 85/82/85 95/93/95 91/94/91
vt 0.144546 0.040941
vt 0.158266 0.038913
f 92/95/92 96/96/96 87/84/87
vt 0.415424 1.735311
vt 0.401292 1.736954
f 97/97/97 90/91/90 100/98/100
vt 0.157875 0.041563
vt 0.170893 0.039609
f 99/99/99 103/100/103 96/96/96
vt 0.468158 1.643356
vt 0.467521 1.646404
f 93/90/93 98/101/98 104/102/104
vt 0.414880 1.738051
f 97/97/97 100/98/100 105/103/105
vt 0.747854 0.007095
vt 0.748142 0.004408
f 102/104/102 95/93/95 108/105/108
vt 0.481482 1.632997
f 104/102/104 98/101/98 107/106/107
vt 0.482328 1.630118
vt 0.497621 1.620782
f 107/106/107 101/107/101 113/108/113
vt 0.428947 1.733740
vt 0.429302 1.730543
f 105/103/105 119/109/119 109/110/109
vt 0.498209 1.617982
vt 0.515424 1.609968
f 113/108/113 106/111/106 121/112/121
vt 0.763566 0.007396
vt 0.763791 0.004716
f 114/113/114 108/105/108 122/114/122
vt 0.183279 0.043187
vt 0.183033 0.040540
f 118/115/118 126/116/126 103/100/103
vt 0.515646 1.607184
vt 0.553816 1.592012
f 121/112/121 111/117/111 129/118/129
vt 0.780161 0.004992
f 114/113/114 122/114/122 133/119/133
vt 0.636848 1.565754
vt 0.637055 1.563111
vt 0.652995 1.564659
f 137/120/137 117/121/117 125/122/125
vt 0.442814 1.726114
vt 0.442723 1.723036
f 119/109/119 139/123/139 127/124/127
vt 0.573060 1.582543
vt 0.590972 1.572386
vt 0.591104 1.574659
f 128/125/128 120/126/120 141/127/141
vt 0.553875 1.589273
f 129/118/129 110/128/110 128/125/128
vt 0.621786 1.568408
f 130/129/130 117/121/117 137/120/137
vt 0.606942 1.570662
vt 0.607056 1.568190
f 131/130/131 112/131/112 130/129/130
f 141/127/141 120/126/120 131/130/131
vt 0.746321 1.588432
vt 0.728865 1.581681
vt 0.746042 1.585569
f 143/132/143 134/133/134 116/134/116
vt 0.709897 1.576165
vt 0.709208 1.573265
f 134/133/134 135/135/135 115/136/115
vt 0.671095 1.567083
vt 0.670510 1.564363
f 135/135/135 144/137/144 123/138/123
f 144/137/144 125/122/125 123/138/123
vt 0.777615 1.604964
vt 0.762495 1.596249
vt 0.762248 1.593305
f 145/139/145 136/140/136 124/141/124
f 136/140/136 143/132/143 116/134/116
vt 0.195036 0.044253
vt 0.217436 0.043743
f 138/142/138 147/143/147 126/116/126
vt 0.455803 1.717267
vt 0.455038 1.714721
f 139/123/139 153/144/153 140/145/140
vt 0.232118 1.187240
vt 0.233898 1.178757
vt 0.227004 1.183437
f 149/146/149 155/147/155 132/148/132
vt 0.248379 1.194110
vt 0.238788 1.185396
vt 0.241145 1.183356
f 156/149/156 142/150/142 150/151/150
vt 0.233702 1.178327
f 132/148/132 167/152/167 150/151/150
vt 0.796263 0.008153
vt 0.796213 0.005469
f 151/153/151 133/119/133 159/154/159
vt 0.808858 1.624705
vt 0.777429 1.601939
f 162/155/162 145/139/145 146/156/146
vt 0.217659 0.046403
vt 0.228952 0.044722
f 152/157/152 163/158/163 147/143/147
vt 0.234119 1.201605
vt 0.233814 1.202217
f 166/159/166 149/146/149 148/160/148
vt 0.468640 1.708092
vt 0.467056 1.706170
f 153/144/153 171/161/171 154/162/154
vt 0.238209 1.214652
f 165/163/165 166/159/166 148/160/148
vt 0.250116 1.204093
vt 0.247657 1.205957
f 173/164/173 157/165/157 156/149/156
vt 0.242693 1.226911
vt 0.242459 1.227525
f 176/166/176 165/163/165 158/167/158
vt 0.811603 0.008662
vt 0.811307 0.005981
f 160/168/160 159/154/159 177/169/177
vt 0.229115 0.047369
vt 0.240866 0.045646
f 170/170/170 180/171/180 163/158/163
vt 0.482052 1.699485
vt 0.479584 1.697956
f 171/161/171 182/172/182 164/173/164
vt 0.244031 1.181183
vt 0.236523 1.176452
f 174/174/174 167/152/167 183/175/183
vt 0.249417 1.193969
f 184/176/184 150/151/150 174/174/174
vt 0.246961 1.250562
vt 0.245875 1.238913
vt 0.245709 1.239573
f 185/177/185 175/178/175 168/179/168
f 175/178/175 176/166/176 158/167/158
vt 0.840390 1.650536
vt 0.825065 1.636452
vt 0.824737 1.633512
f 189/180/189 179/181/179 169/182/169
vt 0.808590 1.621744
f 179/181/179 162/155/162 161/183/161
vt 0.495906 1.692195
vt 0.494436 1.689052
f 182/172/182 192/184/192 172/185/172
vt 0.825344 0.009021
vt 0.824803 0.006365
f 186/186/186 177/169/177 197/187/197
vt 0.872007 1.681084
vt 0.840194 1.647370
f 199/188/199 189/180/189 178/189/178
vt 0.240930 0.048284
vt 0.253363 0.046539
f 190/190/190 200/191/200 180/171/180
vt 0.510068 1.686972
f 192/184/192 191/192/191 172/185/172
vt 0.525728 1.683751
vt 0.527232 1.681068
f 191/192/191 201/193/201 181/194/181
vt 0.249382 1.215015
vt 0.250407 1.214654
f 193/195/193 173/164/173 203/196/203
vt 0.252302 1.190522
vt 0.246054 1.179935
f 204/197/204 174/174/174 194/198/194
vt 0.239772 1.175477
f 194/198/194 183/175/183 205/199/205
vt 0.245155 1.261758
vt 0.245517 1.264630
f 208/200/208 185/177/185 196/201/196
vt 0.888513 1.697899
vt 0.871886 1.677360
f 209/202/209 199/188/199 188/203/188
vt 0.544077 1.682467
f 201/193/201 211/204/211 181/194/181
vt 0.256115 1.239854
f 207/205/207 193/195/193 203/196/203
vt 0.251279 1.204259
vt 0.252145 1.203868
f 214/206/214 184/176/184 206/207/206
vt 0.254724 1.200645
vt 0.251401 1.192195
f 213/208/213 195/209/195 204/197/204
vt 0.837185 0.009395
vt 0.836460 0.006762
f 198/210/198 197/187/197 218/211/218
vt 0.904562 1.717756
vt 0.888138 1.693680
f 221/212/221 209/202/209 187/213/187
vt 0.253267 0.049192
vt 0.265942 0.047343
f 210/214/210 222/215/222 200/191/200
vt 0.603291 1.680435
vt 0.604379 1.677448
f 211/204/211 223/216/223 202/217/202
vt 0.251477 1.214998
f 227/218/227 214/206/214 206/207/206
vt 0.240088 1.272431
vt 0.241927 1.275560
f 228/219/228 208/200/208 217/220/217
vt 0.903732 1.712465
f 221/212/221 187/213/187 220/221/220
vt 0.622681 1.680789
f 224/222/224 202/217/202 223/216/223
vt 0.641935 1.681941
vt 0.642434 1.678857
f 232/223/232 212/224/212 224/222/224
vt 0.256020 1.211416
vt 0.255852 1.211991
f 234/225/234 226/226/226 213/208/213
vt 0.256140 1.251079
vt 0.255021 1.253365
f 235/227/235 215/228/215 207/205/207
vt 0.231390 1.282511
f 237/229/237 228/219/228 217/220/217
vt 0.846038 0.007311
vt 0.846826 0.009952
f 238/230/238 219/231/219 218/211/218
vt 0.913033 1.734382
vt 0.917724 1.732877
f 239/232/239 220/221/220 230/233/230
vt 0.265644 0.050010
vt 0.278104 0.048001
f 231/234/231 240/235/240 222/215/222
vt 0.680366 1.686023
vt 0.680066 1.682871
f 241/236/241 225/237/225 232/223/232
vt 0.221015 1.292496
vt 0.233797 1.285766
f 236/238/236 237/229/237 216/239/216
vt 0.854042 0.007952
vt 0.854827 0.010610
f 249/240/249 229/241/229 238/230/238
vt 0.718205 1.691494
f 251/242/251 225/237/225 241/236/241
vt 0.258891 1.223941
vt 0.258747 1.224533
f 256/243/256 247/244/247 234/225/234
vt 0.252734 1.261483
vt 0.252957 1.264067
f 258/245/258 248/246/248 235/227/235
vt 0.212624 1.306084
vt 0.210919 1.302885
f 233/247/233 254/248/254 236/238/236
vt 0.277582 0.050659
vt 0.288979 0.048587
f 250/249/250 261/250/261 240/235/240
vt 0.776922 1.697908
vt 0.717684 1.688338
f 253/251/253 243/252/243 251/242/251
vt 0.795776 1.700808
vt 0.794995 1.697909
f 262/253/262 242/254/242 253/251/253
vt 0.202701 1.316670
vt 0.201656 1.313526
f 245/255/245 266/256/266 254/248/254
vt 0.260568 1.236464
f 269/257/269 247/244/247 256/243/256
vt 0.257307 1.240148
vt 0.258162 1.239801
f 271/258/271 227/218/227 257/259/257
vt 0.245250 1.271730
f 272/260/272 248/246/248 258/245/258
vt 0.874301 0.009950
vt 0.868272 0.011959
f 273/261/273 259/262/259 249/240/249
vt 0.905790 1.738557
vt 0.906802 1.741505
f 260/263/260 274/264/274 230/233/230
vt 0.813230 1.705547
vt 0.812371 1.702713
f 276/265/276 252/266/252 262/253/262
vt 0.194479 1.327480
vt 0.187211 1.335098
vt 0.193784 1.324269
f 244/267/244 264/268/264 265/269/265
f 245/255/245 265/269/265 266/256/266
vt 0.177486 1.356862
vt 0.169947 1.379204
vt 0.170167 1.378311
f 268/270/268 246/271/246 280/272/280
vt 0.257376 1.251269
f 257/259/257 282/273/282 271/258/271
vt 0.892273 1.741192
f 274/264/274 260/263/260 284/274/284
vt 0.288286 0.051235
vt 0.297698 0.049174
f 275/275/275 286/276/286 261/250/261
vt 0.829355 1.711783
f 277/277/277 252/266/252 276/265/276
vt 0.844229 1.719176
vt 0.843510 1.716166
f 287/278/287 263/279/263 277/277/277
vt 0.181586 1.346832
vt 0.181847 1.345996
f 264/268/264 255/280/255 288/281/288
vt 0.165262 1.390023
vt 0.158485 1.399994
vt 0.165238 1.389113
f 267/282/267 289/283/289 279/284/279
f 246/271/246 279/284/279 280/272/280
f 255/280/255 268/270/268 288/281/288
vt 0.258285 1.247223
vt 0.259534 1.238467
f 290/285/290 270/286/270 269/257/269
vt 0.235467 1.281922
vt 0.235642 1.282595
f 291/287/291 283/288/283 272/260/272
vt 0.859258 1.727245
f 294/289/294 263/279/263 287/278/287
vt 0.149256 1.410944
vt 0.160520 1.403643
f 296/290/296 289/283/289 278/291/278
vt 0.252509 1.257161
vt 0.258445 1.249356
f 297/292/297 281/293/281 290/285/290
vt 0.225165 1.292158
f 299/294/299 283/288/283 291/287/291
vt 0.882099 0.010593
vt 0.882827 0.013245
f 300/295/300 292/296/292 273/261/273
vt 0.891191 1.737776
vt 0.875848 1.735511
f 284/274/284 285/297/285 301/298/301
vt 0.304421 0.049745
vt 0.296960 0.051836
f 302/299/302 286/276/286 293/300/293
vt 0.253817 1.259449
vt 0.253938 1.261597
f 298/301/298 304/302/304 282/273/282
vt 0.874992 1.732072
f 301/298/301 303/303/303 294/289/294
vt 0.139533 1.422674
vt 0.138870 1.421808
f 295/304/295 307/305/307 296/290/296
vt 0.243711 1.267220
f 308/306/308 298/301/298 297/292/297
vt 0.892223 0.013897
vt 0.891661 0.011232
f 305/307/305 300/295/300 310/308/310
vt 0.309307 0.050279
vt 0.303665 0.052421
f 311/309/311 302/299/302 306/310/306
vt 0.128645 1.432435
f 313/311/313 307/305/307 295/304/295
vt 0.245532 1.269613
vt 0.246315 1.271857
f 309/312/309 314/313/314 304/302/304
vt 0.233045 1.277313
f 320/314/320 309/312/309 308/306/308
vt 0.215057 1.303227
vt 0.214384 1.302424
f 315/315/315 299/294/299 322/316/322
vt 0.902824 0.014515
vt 0.902454 0.011838
f 316/317/316 310/308/310 323/318/323
vt 0.312698 0.050803
vt 0.308461 0.052950
f 324/319/324 311/309/311 317/320/317
vt 0.122764 1.446510
vt 0.120331 1.442584
f 319/321/319 329/322/329 313/311/313
vt 0.235031 1.279753
vt 0.236257 1.282046
f 321/323/321 330/324/330 314/313/314
vt 0.143681 1.483299
vt 0.155078 1.485458
vt 0.155416 1.486569
f 333/325/333 325/326/325 318/327/318
vt 0.158239 1.485208
vt 0.158526 1.486328
f 325/326/325 334/328/334 312/329/312
vt 0.148921 1.481519
f 312/329/312 334/328/334 326/330/326
vt 0.115678 1.452013
f 335/331/335 329/322/329 319/321/319
vt 0.221666 1.287354
f 336/332/336 321/323/321 320/314/320
vt 0.192842 1.323801
vt 0.192219 1.322964
f 331/333/331 322/316/322 338/334/338
vt 0.914195 0.015051
vt 0.913943 0.012381
f 332/335/332 323/318/323 339/336/339
vt 0.144012 1.484394
vt 0.128286 1.479759
f 327/337/327 343/338/343 333/325/333
vt 0.116125 1.460695
vt 0.117650 1.456029
f 345/339/345 335/331/335 328/340/328
vt 0.225516 1.292167
vt 0.223754 1.289774
f 346/341/346 330/324/330 337/342/337
vt 0.182238 1.333157
f 347/343/347 331/333/331 338/334/338
vt 0.316245 0.054549
vt 0.317133 0.051885
f 340/344/340 349/345/349 324/319/324
vt 0.134690 1.475583
vt 0.134060 1.479916
f 326/330/326 350/346/350 341/347/341
vt 0.210546 1.297992
f 352/348/352 337/342/337 336/332/336
vt 0.926222 0.015564
vt 0.926067 0.012902
f 348/349/348 339/336/339 354/350/354
vt 0.320404 0.052400
f 356/351/356 349/345/349 340/344/340
vt 0.123110 1.468597
f 341/347/341 350/346/350 357/352/357
vt 0.113664 1.476251
vt 0.113286 1.475206
f 343/338/343 342/353/342 359/354/359
vt 0.123283 1.472814
f 357/352/357 345/339/345 344/355/344
vt 0.212171 1.299809
f 353/356/353 337/342/337 352/348/352
vt 0.214360 1.302308
f 360/357/360 346/341/346 353/356/353
vt 0.098819 1.463815
vt 0.103070 1.470008
vt 0.103605 1.471043
f 363/358/363 358/359/358 351/360/351
f 358/359/358 359/354/359 342/353/342
vt 0.174185 1.343335
vt 0.174976 1.346649
f 365/361/365 361/362/361 347/343/347
vt 0.938793 0.016114
vt 0.938763 0.013444
f 362/363/362 354/350/354 366/364/366
vt 0.325911 0.052757
vt 0.319711 0.055086
f 367/365/367 356/351/356 355/366/355
vt 0.190280 1.320272
vt 0.210024 1.297418
f 364/367/364 353/356/353 370/368/370
vt 0.169017 1.353547
f 372/369/372 361/362/361 365/361/365
vt 0.188166 1.317802
f 364/367/364 370/368/370 375/370/375
vt 0.192304 1.322854
vt 0.191818 1.322182
f 377/371/377 360/357/360 371/372/371
vt 0.951666 0.016630
vt 0.951755 0.013949
f 373/373/373 366/364/366 378/374/378
vt 0.325422 0.055461
vt 0.334816 0.052822
f 374/375/374 379/376/379 367/365/367
vt 0.101715 1.456277
vt 0.102564 1.457260
f 381/377/381 363/358/363 369/378/369
vt 0.179674 1.328058
f 382/379/382 364/367/364 375/370/375
vt 0.182809 1.333148
f 383/380/383 377/371/377 371/372/371
vt 0.110298 1.448633
vt 0.119519 1.438328
vt 0.109401 1.447685
f 368/381/368 389/382/389 380/383/380
f 369/378/369 380/383/380 381/377/381
vt 0.173223 1.338301
vt 0.181530 1.330596
f 390/384/390 376/385/376 382/379/382
vt 0.166043 1.363911
vt 0.165735 1.364799
f 392/386/392 384/387/384 372/369/372
vt 0.334431 0.055521
vt 0.346090 0.052701
f 385/388/385 394/389/394 379/376/379
vt 0.174773 1.340889
vt 0.175251 1.343407
f 391/390/391 396/391/396 383/380/383
vt 0.162603 1.385365
f 397/392/397 384/387/384 392/386/392
vt 0.990638 0.017747
vt 1.003962 0.015500
f 393/393/393 378/374/378 398/394/398
vt 0.133283 1.432245
vt 0.130723 1.428352
f 389/382/389 388/395/388 400/396/400
vt 0.151197 1.407158
vt 0.151326 1.408048
vt 0.158162 1.396273
f 399/397/399 386/398/386 403/399/403
vt 0.141667 1.417907
vt 0.142067 1.418824
f 404/400/404 387/401/387 399/397/399
f 400/396/400 387/401/387 404/400/404
vt 0.168943 1.348486
vt 0.169600 1.349146
f 405/402/405 401/403/401 390/384/390
vt 0.170313 1.353599
f 401/403/401 406/404/406 396/391/396
vt 0.358626 0.055206
vt 0.358707 0.052500
f 402/405/402 408/406/408 394/389/394
vt 0.158127 1.397171
f 403/399/403 395/407/395 397/392/397
vt 1.016965 0.018573
vt 1.017132 0.015954
f 407/408/407 398/394/398 410/409/410
vt 0.371698 0.052104
f 402/405/402 412/410/412 408/406/408
vt 0.166222 1.358776
vt 0.166878 1.359418
f 413/411/413 409/412/409 405/402/405
vt 0.167401 1.363904
f 409/412/409 414/413/414 406/404/406
vt 1.030182 0.019069
vt 1.030298 0.016462
f 411/414/411 410/409/410 417/415/417
vt 0.371867 0.054822
vt 0.384091 0.051396
f 415/416/415 418/417/418 412/410/412
vt 0.161953 1.380092
vt 0.165142 1.369968
f 413/411/413 420/418/420 416/419/416
vt 0.164118 1.384655
vt 0.163880 1.385325
f 421/420/421 422/421/422 414/413/414
vt 0.384516 0.054103
vt 0.395822 0.050508
f 419/422/419 424/423/424 418/417/418
vt 0.159296 1.396299
f 426/424/426 422/421/422 421/420/421
vt 1.056396 0.020158
vt 1.069340 0.018169
f 423/425/423 417/415/417 427/426/427
vt 0.157764 1.391628
vt 0.157048 1.390957
f 425/427/425 420/418/420 429/428/429
vt 0.396431 0.053201
vt 0.406826 0.049570
f 428/429/428 431/430/431 424/423/424
vt 0.149479 1.401780
f 432/431/432 425/427/425 429/428/429
vt 0.151210 1.404554
vt 0.152058 1.407250
f 433/432/433 435/433/435 426/424/426
vt 1.082187 0.021335
vt 1.082095 0.018792
f 434/434/434 427/426/427 436/435/436
vt 0.407473 0.052268
vt 0.416993 0.048580
f 430/436/430 437/437/437 431/430/431
vt 0.138987 1.412407
f 438/438/438 433/432/433 432/431/432
vt 0.142054 1.418002
vt 0.140730 1.415244
f 441/439/441 435/433/435 439/440/439
vt 1.094751 0.022056
vt 1.094578 0.019536
f 440/441/440 436/435/436 442/442/442
vt 0.127137 1.422761
f 446/443/446 439/440/439 438/438/438
vt 1.106775 0.020385
f 440/441/440 442/442/442 448/444/448
vt 0.130598 1.428454
vt 0.128824 1.425650
f 454/445/454 441/439/441 447/446/447
vt 0.445509 0.048042
vt 0.455178 0.044253
f 437/437/437 443/447/443 458/448/458
vt 0.696236 0.040581
vt 0.711814 0.038153
vt 0.696609 0.037927
f 444/449/444 462/450/462 451/451/451
vt 0.680619 0.040363
vt 0.680926 0.037694
f 445/452/445 451/451/451 463/453/463
vt 0.115496 1.432762
f 465/454/465 447/446/447 446/443/446
vt 1.188426 1.559978
vt 1.192754 1.565236
vt 1.196193 1.554162
f 456/455/456 449/456/449 467/457/467
vt 1.181959 1.563668
vt 1.197915 1.548601
f 449/456/449 455/458/455 486/459/486
vt 0.455760 0.046949
vt 0.466283 0.043221
f 450/460/450 469/461/469 458/448/458
vt 0.664702 0.040239
vt 0.648809 0.037580
f 452/462/452 463/453/463 464/463/464
vt 0.632448 0.040381
vt 0.616216 0.037750
f 453/464/453 464/463/464 472/465/472
vt 0.118999 1.438506
vt 0.118371 1.437852
f 473/466/473 454/445/454 466/467/466
vt 1.118977 0.023841
vt 1.118670 0.021322
f 457/468/457 448/444/448 474/469/474
vt 0.478750 0.044961
vt 0.491287 0.041374
f 459/470/459 477/471/477 469/461/469
vt 0.108562 1.447934
f 484/472/484 473/466/473 466/467/466
vt 1.130217 0.024927
vt 1.129837 0.022389
f 468/473/468 474/469/474 489/474/489
vt 0.599853 0.040593
vt 0.583524 0.038107
f 460/475/460 472/465/472 478/476/478
vt 0.567453 0.041141
vt 0.567320 0.038434
f 471/477/471 478/476/478 496/478/496
vt 0.726133 0.041149
vt 0.740947 0.038904
f 461/479/461 497/480/497 462/450/462
vt 0.105428 1.442133
vt 0.105525 1.442942
f 465/454/465 500/481/500 483/482/483
vt 1.197394 1.538588
vt 1.199564 1.543139
f 485/483/485 467/457/467 501/484/501
vt 0.893286 0.053121
vt 0.893425 0.050425
vt 0.879059 0.049505
f 470/485/470 504/486/504 492/487/492
vt 0.907145 0.053875
vt 0.919272 0.051616
vt 0.907033 0.051170
f 475/488/475 505/489/505 493/490/493
f 470/485/470 493/490/493 504/486/504
vt 0.491718 0.044073
vt 0.505233 0.040571
f 476/491/476 507/492/507 477/471/477
vt 0.740444 0.041604
vt 0.754733 0.039446
f 479/493/479 508/494/508 497/480/497
vt 0.551486 0.041508
vt 0.551293 0.038793
f 480/495/480 496/478/496 509/496/509
vt 0.098297 1.450594
f 483/482/483 500/481/500 512/497/512
vt 1.195095 1.519756
vt 1.209010 1.510679
f 486/459/486 502/498/502 515/499/515
vt 1.140369 0.026158
vt 1.139848 0.023631
f 490/500/490 489/474/489 519/501/519
vt 0.864124 0.051224
vt 0.864544 0.048534
f 495/502/495 492/487/492 523/503/523
vt 0.919646 0.054304
vt 0.929739 0.051914
f 491/504/491 522/505/522 505/489/505
vt 0.535775 0.041969
vt 0.535519 0.039245
f 481/506/481 509/496/509 510/507/510
vt 0.520401 0.042561
vt 0.520072 0.039849
f 482/508/482 510/507/510 524/509/524
vt 0.754181 0.042146
vt 0.767751 0.040008
f 499/510/499 527/511/527 508/494/508
vt 0.100589 1.456518
vt 0.098888 1.453669
f 528/512/528 484/472/484 513/513/513
vt 1.201684 1.527728
f 514/514/514 501/484/501 515/499/515
vt 1.038718 1.215229
vt 1.038022 1.200653
vt 1.043143 1.212095
f 487/515/487 516/516/516 517/517/517
vt 1.036395 1.189959
vt 1.040476 1.189480
f 516/516/516 488/518/488 518/519/518
vt 1.148766 0.025014
f 520/520/520 490/500/490 519/501/519
vt 1.156653 0.026507
vt 1.157321 0.029057
f 531/521/531 503/522/503 520/520/520
vt 0.850194 0.050174
vt 0.850676 0.047475
f 494/523/494 523/503/523 532/524/532
vt 0.505628 0.043269
f 506/525/506 524/509/524 507/492/507
vt 0.826616 0.045066
vt 0.792047 0.041661
vt 0.791444 0.044392
f 534/526/534 526/527/526 498/528/498
vt 0.779569 0.043447
f 511/529/511 526/527/526 527/511/527
vt 0.096193 1.457965
f 513/513/513 512/497/512 535/530/535
vt 0.837649 0.048984
vt 0.838250 0.046290
f 521/531/521 532/524/532 542/532/542
vt 0.938682 0.054888
vt 0.938034 0.052215
f 522/505/522 533/533/533 543/534/543
vt 0.825918 0.047756
f 525/535/525 542/532/542 534/526/534
vt 0.096919 1.463334
vt 0.097562 1.464017
f 528/512/528 536/536/536 545/537/545
vt 1.199968 1.503929
vt 1.201799 1.499613
vt 1.213032 1.499924
f 529/538/529 548/539/548 537/540/537
vt 1.057990 1.219642
vt 1.047840 1.208275
f 539/541/539 517/517/517 538/542/538
vt 1.047528 1.189859
vt 1.057175 1.181914
f 541/543/541 518/519/518 540/544/540
vt 1.162638 0.028094
vt 1.163342 0.030678
f 550/545/550 530/546/530 531/521/531
vt 0.944342 0.052482
f 533/533/533 552/547/552 543/534/543
vt 0.101204 1.464062
f 536/536/536 535/530/535 553/548/553
vt 0.101965 1.470191
f 545/537/545 536/536/536 554/549/554
vt 1.185656 1.495819
f 529/538/529 557/550/557 548/539/548
vt 1.212204 1.496916
vt 1.212980 1.495850
f 547/551/547 537/540/537 558/552/558
vt 1.042310 1.198122
vt 1.052179 1.203883
f 549/553/549 559/554/559 538/542/538
vt 1.067650 1.185300
f 541/543/541 540/544/540 560/555/560
vt 1.047356 1.194609
f 549/553/549 570/556/570 559/554/559
vt 1.165848 0.029762
vt 1.166719 0.032349
f 572/557/572 551/558/551 550/545/550
vt 0.945013 0.055164
vt 0.948850 0.052677
f 544/559/544 563/560/563 552/547/552
vt 0.101452 1.469492
vt 0.112393 1.475363
f 554/549/554 564/561/564 575/562/575
vt 1.139117 1.430978
vt 1.145670 1.421421
vt 1.145541 1.420445
f 567/563/567 546/564/546 579/565/579
vt 1.135553 1.441349
vt 1.135318 1.445221
f 580/566/580 556/567/556 567/563/567
vt 1.169162 1.493647
vt 1.170976 1.489447
f 557/550/557 568/568/568 581/569/581
vt 1.205412 1.489152
vt 1.204674 1.490219
f 582/570/582 569/571/569 558/552/558
vt 1.051993 1.189688
f 570/556/570 584/572/584 559/554/559
vt 1.076640 1.177982
vt 1.085346 1.181508
f 560/555/560 561/573/561 585/574/585
vt 1.166545 0.031565
f 573/575/573 551/558/551 572/557/572
vt 0.957445 0.055668
vt 0.956542 0.053025
f 563/560/563 562/576/562 589/577/589
vt 0.111722 1.470021
vt 0.112038 1.469195
f 574/578/574 553/548/553 590/579/590
vt 1.146367 1.475965
vt 1.140220 1.461772
vt 1.147781 1.471810
f 565/580/565 577/581/577 593/582/593
vt 1.135403 1.455574
vt 1.136032 1.451616
f 577/581/577 555/583/555 578/584/578
f 578/584/578 556/567/556 580/566/580
vt 1.153873 1.410660
vt 1.170456 1.387879
f 579/565/579 566/585/566 595/586/595
vt 1.092160 1.173880
vt 1.096498 1.177426
f 585/574/585 571/587/571 597/588/597
vt 1.164993 0.033556
vt 1.165568 0.036230
f 598/589/598 586/590/586 573/575/573
vt 0.961878 0.053191
f 562/576/562 602/591/602 589/577/589
vt 0.127401 1.473669
f 603/592/603 574/578/574 590/579/590
vt 0.127446 1.479855
vt 0.112010 1.474650
f 605/593/605 575/562/575 591/594/591
vt 1.156366 1.485417
vt 1.158203 1.481208
f 576/595/576 593/582/593 609/596/609
f 581/569/581 576/595/576 609/596/609
vt 1.194094 1.481593
vt 1.193455 1.482658
f 582/570/582 610/597/610 596/598/596
vt 1.055466 1.185144
vt 1.055532 1.199033
f 584/572/584 612/599/612 583/600/583
vt 0.962790 0.055816
vt 0.969720 0.053315
f 588/601/588 617/602/617 602/591/602
vt 1.169189 1.463774
vt 1.159014 1.453847
vt 1.169002 1.464791
f 620/603/620 608/604/608 592/605/592
vt 1.170547 1.388826
vt 1.177630 1.377100
f 595/586/595 594/606/594 621/607/621
vt 1.181272 1.473144
f 596/598/596 610/597/610 619/608/619
vt 1.161035 0.038192
vt 1.160810 0.035449
f 614/609/614 598/589/598 624/610/624
vt 0.980095 0.056034
vt 0.990872 0.053364
vt 0.979555 0.053379
f 587/611/587 632/612/632 616/613/616
vt 0.970473 0.055952
f 601/614/601 616/613/616 617/602/617
vt 0.142656 1.477926
vt 0.143003 1.477145
f 618/615/618 603/592/603 634/616/634
vt 0.142756 1.483321
vt 0.127127 1.479118
f 635/617/635 605/593/605 604/618/604
vt 1.151916 1.443727
vt 1.151685 1.447762
f 608/604/608 636/619/636 606/620/606
vt 1.145689 1.433549
f 637/621/637 606/620/606 636/619/636
f 619/608/619 620/603/620 592/605/592
vt 1.057022 1.182763
vt 1.059135 1.192652
f 612/599/612 644/622/644 613/623/613
vt 1.138130 1.423448
vt 1.138235 1.424415
f 637/621/637 627/624/627 607/625/607
vt 1.129410 1.413451
vt 1.129344 1.414432
f 627/624/627 628/626/628 599/627/599
vt 1.110563 1.393697
vt 1.119558 1.404575
f 628/626/628 629/628/629 600/629/600
vt 0.154553 1.479285
f 652/630/652 618/615/618 634/616/634
vt 1.147303 1.293339
vt 1.133369 1.285812
vt 1.136539 1.282747
f 639/631/639 611/632/611 640/633/640
vt 1.154797 1.307177
vt 1.157930 1.303884
f 622/634/622 639/631/639 657/635/657
vt 1.059305 1.191253
vt 1.074937 1.218502
vt 1.067338 1.205924
f 645/636/645 660/637/660 623/638/623
vt 1.153617 0.036955
vt 1.153847 0.039709
f 661/639/661 647/640/647 624/610/624
vt 1.088620 1.187506
vt 1.089767 1.184335
f 625/641/625 662/642/662 597/588/597
vt 1.080285 1.189763
vt 1.080287 1.204125
vt 1.077775 1.190076
f 650/643/650 615/644/615 664/645/664
vt 1.081687 1.196247
f 626/646/626 650/643/650 662/642/662
vt 1.103589 1.383639
vt 1.103729 1.384609
f 629/628/629 666/647/666 630/648/630
vt 0.991254 0.056022
vt 1.003160 0.053310
f 633/649/633 670/650/670 632/612/632
vt 0.153621 1.484630
vt 0.153960 1.485413
f 635/617/635 653/651/653 671/652/671
vt 1.184057 1.370453
vt 1.183395 1.366642
f 621/607/621 654/653/654 672/654/672
vt 1.125097 1.272879
vt 1.125824 1.272135
f 640/633/640 656/655/656 675/656/675
vt 1.164686 1.317854
vt 1.167730 1.314424
f 641/657/641 657/635/657 676/658/676
vt 1.182276 1.335535
vt 1.173081 1.328530
vt 1.176015 1.324997
f 658/659/658 642/660/642 677/661/677
vt 1.186000 1.345966
vt 1.184817 1.349697
f 678/662/678 643/663/643 658/659/658
vt 1.057230 1.181161
f 644/622/644 679/664/679 645/636/645
vt 1.074907 1.218779
vt 1.083546 1.230074
f 646/665/646 660/637/660 680/666/680
vt 1.134018 1.322990
vt 1.133575 1.307706
vt 1.130422 1.311523
f 648/667/648 682/668/682 649/669/649
vt 1.099665 1.373549
vt 1.100045 1.374503
f 666/647/666 688/670/688 631/671/631
vt 1.099682 1.363568
f 688/670/688 668/672/668 631/671/631
vt 0.158021 1.479029
f 652/630/652 692/673/692 653/651/653
vt 0.157017 1.485108
f 671/652/671 653/651/653 693/674/693
vt 1.104787 1.251031
vt 1.091048 1.243077
vt 1.093842 1.240731
f 673/675/673 638/676/638 674/677/674
vt 1.081454 1.231956
f 655/678/655 680/666/680 674/677/674
f 656/655/656 673/675/673 675/656/675
f 677/661/677 641/657/641 676/658/676
vt 1.186577 1.356325
vt 1.186671 1.360131
f 694/679/694 659/680/659 678/662/678
vt 1.144219 0.041047
vt 1.143776 0.038319
f 681/681/681 661/639/661 696/682/696
vt 1.129904 1.328952
vt 1.135292 1.318779
f 684/683/684 697/684/697 648/667/648
vt 1.082081 1.200776
vt 1.078388 1.188719
f 664/645/664 663/685/663 698/686/698
vt 1.103285 1.353788
vt 1.104294 1.357564
f 668/672/668 690/687/690 667/688/667
vt 1.110118 1.344305
vt 1.110816 1.345253
f 690/687/690 703/689/703 651/690/651
vt 1.003407 0.055969
vt 1.015909 0.053259
f 669/691/669 704/692/704 670/650/670
vt 0.156686 1.484311
f 653/651/653 692/673/692 705/693/705
f 653/651/653 705/693/705 693/674/693
f 672/654/672 659/680/659 694/679/694
vt 1.129898 1.293305
vt 1.127452 1.296200
f 682/668/682 706/694/706 683/695/683
vt 1.082736 1.200308
f 698/686/698 663/685/663 707/696/707
vt 1.083041 1.216274
vt 1.091530 1.229946
vt 1.085283 1.214562
f 685/697/685 701/698/701 699/699/699
f 663/685/663 699/699/699 707/696/707
vt 1.099441 1.244994
vt 1.088861 1.231810
f 700/700/700 701/698/701 665/701/665
vt 1.103836 1.260566
vt 1.106982 1.258237
f 686/702/686 708/703/708 700/700/700
vt 1.127564 1.325398
vt 1.128408 1.326267
f 703/689/703 710/704/710 689/705/689
vt 1.016007 0.055927
vt 1.028789 0.053142
f 691/706/691 712/707/712 704/692/704
vt 1.132367 0.042476
vt 1.131645 0.039785
f 695/708/695 696/682/696 713/709/713
vt 1.122860 1.281959
vt 1.119622 1.284721
f 706/694/706 709/710/709 687/711/687
vt 1.111333 1.272950
vt 1.114630 1.270339
f 702/712/702 715/713/715 708/703/708
f 709/710/709 715/713/715 702/712/702
vt 1.133665 1.315409
f 689/705/689 710/704/710 714/714/714
vt 1.133971 1.304584
f 714/714/714 717/715/717 697/684/697
vt 1.028698 0.055806
vt 1.041471 0.052888
f 711/716/711 720/717/720 712/707/712
vt 1.119658 0.043800
vt 1.118903 0.041142
f 716/718/716 713/709/713 721/719/721
vt 1.041122 0.055515
vt 1.052870 0.052495
f 719/720/719 727/721/727 720/717/720
vt 1.107464 0.044826
vt 1.107227 0.042178
f 724/722/724 721/719/721 728/723/728
vt 1.075596 0.049568
vt 1.073033 0.050470
vt 1.072091 0.053098
f 730/724/730 726/725/726 722/726/722
vt 1.068604 0.051282
vt 1.067814 0.053915
f 726/725/726 729/727/729 718/728/718
vt 1.052286 0.055090
vt 1.061899 0.051958
f 723/729/723 731/730/731 727/721/727
vt 1.061198 0.054568
f 729/727/729 731/730/731 725/731/725
vt 1.096613 0.045777
vt 1.096990 0.043124
f 732/732/732 728/723/728 733/733/733
vt 1.079065 0.046517
vt 1.076421 0.050234
f 738/734/738 730/724/730 735/735/735
vt 1.088568 0.044212
vt 1.087938 0.046877
f 733/733/733 739/736/739 734/737/734
vt 1.082434 0.045367
vt 1.081699 0.048035
f 739/736/739 740/738/740 736/739/736
vt 1.078160 0.049161
f 740/738/740 738/734/738 737/740/737
# 418 faces, 740 coords texture

# End of File
