# .PCD v0.7 - Point Cloud Data file format
VERSION 0.7
FIELDS x y z
SIZE 4 4 4
TYPE F F F
COUNT 1 1 1
WIDTH 2048
HEIGHT 1
VIEWPOINT 0 0 0 1 0 0 0
POINTS 2048
DATA ascii
1.715033 10.82699 0.1862082
1.776129 10.79124 0.5086848
1.928363 10.73317 -1.643625
2.002929 10.63866 -0.02413684
1.529022 10.89125 -1.857057
1.540689 10.8852 -0.1293508
2.121538 10.53639 -0.7216912
2.02718 10.60724 0.487807
1.73159 10.77566 2.132067
1.659411 10.80449 2.191101
2.123326 10.59046 -3.737894
2.220241 10.43314 -1.191909
1.755631 10.74108 2.980258
1.342475 10.90515 -1.674589
1.375791 10.84826 2.448175
2.20112 10.50484 -3.468078
2.245017 10.36545 0.4284054
1.7116 10.74491 3.665458
1.710521 10.84328 -3.739021
1.392265 10.89767 0.6577563
2.127709 10.46903 2.236094
2.349415 10.2858 -1.921838
1.181989 10.86539 -2.506315
1.748502 10.70324 4.441405
1.21999 10.85737 1.552902
2.096019 10.47788 3.550141
2.45377 10.13517 -1.18072
1.09747 10.82951 -2.846251
1.738828 10.67884 5.288269
1.171145 10.82463 2.157368
2.315546 10.37335 -3.676954
2.357956 10.20258 2.072328
2.342421 10.23108 1.436121
1.890424 10.6183 4.611015
0.8552465 10.69814 -4.006605
1.412257 10.74914 5.149421
1.081855 10.79931 1.899043
2.530351 10.09275 -3.408158
2.351871 10.19111 3.729759
2.552284 10.02331 -1.482552
2.507833 10.05492 -0.2671535
0.9459439 10.76812 -2.919568
1.461329 10.70138 6.275448
1.009353 10.78856 1.132174
2.606604 9.998118 -2.978829
2.213529 10.33996 4.176187
2.601768 9.950162 0.2226527
0.8844393 10.74912 -0.3527473
1.595963 10.82529 -4.771606
1.884423 10.57857 6.041131
2.369116 10.27186 -4.393064
2.579236 9.956862 2.628602
2.776064 9.81449 -1.507743
2.698747 9.862299 -0.01990748
0.736991 10.6586 -2.551271
0.7418866 10.63702 -4.012702
1.940763 10.52132 6.695535
0.9022566 10.59979 3.438899
2.614459 9.922948 2.911059
2.911564 9.727476 -1.690894
2.743396 9.815888 1.751447
0.7330019 10.64951 -1.104346
1.532596 10.66727 7.041276
2.037809 10.46117 6.306414
0.8383341 10.54847 2.964101
2.495823 10.02875 4.875529
2.958749 9.693542 -1.335009
2.778877 9.788929 1.608816
0.7198758 10.60487 -0.242899
1.598503 10.63873 7.434568
2.054396 10.42663 7.027601
0.7573942 10.44497 2.712656
2.574699 9.953859 4.547267
2.355304 10.1599 6.25387
3.031636 9.692942 -2.978776
2.891111 9.717909 2.716756
0.5754774 10.42009 -0.3948097
1.811651 10.57445 7.401472
0.9327196 10.48893 5.612319
0.8071832 10.36797 4.756072
2.820574 9.770743 4.505012
2.440021 10.07704 6.737362
3.117185 9.655962 -2.831228
2.993334 9.659805 0.9965904
0.418588 10.40776 -3.372571
0.3601614 10.37791 -3.794498
0.9942238 10.46756 7.114275
0.7911444 10.32428 4.8441
2.864419 9.788594 -4.432765
2.526386 10.00292 7.421842
3.331001 9.565661 -0.6566334
3.284269 9.646735 -4.009913
2.300736 10.19199 8.126905
0.6372072 10.3314 1.416258
1.430057 10.59538 8.547973
0.8357007 10.32273 5.847587
0.6753308 10.36672 1.816272
2.965543 9.706027 5.05095
2.493057 10.03026 7.786828
3.449454 9.558556 -0.7085667
3.139785 9.612372 2.576286
0.5050204 10.13495 0.7294579
-0.1388252 10.1196 -4.412509
0.8673528 10.26735 7.366721
0.7422491 9.962028 5.778303
0.5845563 9.949049 2.391291
3.095588 9.679028 5.857972
2.651833 9.91407 7.516591
3.393785 9.603857 -2.942607
3.269655 9.574207 2.260868
0.4319675 9.890964 1.09928
0.007750344 10.15679 -3.981498
1.180391 10.50681 8.725007
2.21378 10.25478 8.730688
0.7511511 9.662578 6.752994
0.6889257 9.947288 4.115282
3.137789 9.624581 3.878903
2.671459 9.915845 8.308158
3.367942 9.550335 1.096211
3.297136 9.57065 2.410971
0.4294834 9.874398 1.147861
1.827942 10.47419 9.322343
0.8533545 10.14163 8.41502
0.7345481 9.809302 5.655361
0.7585275 9.64394 7.917382
0.6637328 9.90289 3.735404
3.267386 9.664183 6.557544
2.621312 9.976306 9.294069
3.668741 9.64015 -3.845484
3.766599 9.658008 -4.18509
0.0971782 10.10461 -2.800061
-0.07387581 10.0567 -3.397942
0.9216855 10.23705 9.030906
2.293317 10.18158 9.607956
0.7491566 9.468132 6.806365
0.6181532 9.764401 3.348274
3.309532 9.659597 6.551275
2.789807 9.865675 8.652069
3.704451 9.649643 -4.083844
3.569579 9.551813 2.146631
0.5002003 9.670405 2.488437
-0.5388498 9.99262 -4.275833
0.8522055 10.0734 9.260225
2.161453 10.24616 10.48615
0.7425295 9.244655 7.761528
3.739972 9.629666 -4.360876
3.397877 9.658908 6.754607
2.564258 10.02099 9.901745
3.828558 9.584705 0.8452661
3.529467 9.575744 3.909586
0.1699999 9.882241 -0.7134254
0.104512 9.700111 0.01651346
1.27012 10.46034 10.0792
0.7662433 9.648746 10.04259
1.904295 10.38146 10.44682
0.6444235 9.476897 4.48191
3.558842 9.686159 7.233155
2.713579 9.969817 10.26387
3.965524 9.622105 1.221508
3.740804 9.594139 3.703086
-0.2115973 9.863243 -2.327058
-0.3701403 9.951723 -3.485417
1.15489 10.39332 10.29924
0.7623045 9.624606 10.04537
1.924335 10.33768 11.11223
0.7486972 9.479667 9.087615
3.897459 9.664668 -4.667606
3.680731 9.694642 7.014564
3.069476 9.842808 9.632224
4.183355 9.761956 -3.544
4.093246 9.675277 -0.04130352
3.714657 9.604009 4.561741
0.1308769 9.577663 0.8394464
-0.791355 9.972881 -4.117029
0.863614 10.01194 10.41528
2.475592 10.08203 10.65751
1.830695 10.34425 11.66106
0.7313693 9.213474 8.625295
3.688617 9.652166 6.031024
3.494533 9.739119 8.517192
2.697034 9.998158 10.80107
4.235574 9.736714 2.09072
4.078324 9.679929 3.277015
4.442663 9.878172 -4.182795
-0.09475253 9.5903 0.07146764
-0.4670627 9.885059 -3.07988
1.088602 10.29408 11.25241
0.696551 9.174222 9.675931
2.3171 10.14518 11.91957
0.6874439 9.05136 9.230927
4.392663 9.855775 -4.220308
3.862025 9.805416 8.677203
3.25134 9.845817 9.961754
4.37442 9.810102 -1.938685
4.333066 9.781395 1.74757
4.476618 9.879092 -3.216284
3.97212 9.689948 5.32337
-0.03076051 9.471209 1.133405
1.606661 10.38805 11.87565
0.8051372 9.765061 11.0671
2.18789 10.18539 12.41549
0.5398255 8.962036 6.237445
4.512572 9.885635 -4.706401
4.240101 9.846294 7.319036
3.2844 9.833986 9.818332
4.527291 9.878335 -0.2619613
4.569582 9.919229 -3.041915
4.418548 9.826723 1.027407
4.830384 10.03589 -3.245965
-0.266196 9.675999 -0.9802641
-0.1508357 9.465242 1.049998
1.641975 10.35286 12.6587
1.091688 10.27646 12.18515
0.627234 9.059018 10.42726
2.308742 10.12266 13.43856
0.5777989 8.893971 7.154786
0.4187753 9.153076 4.449976
4.134781 9.832541 7.790353
4.092088 9.826873 7.989768
3.470125 9.864264 10.25434
2.708459 10.01625 11.89496
4.582055 9.912968 0.5525584
4.616226 9.92692 -1.911942
4.577463 9.915186 1.956572
4.493649 9.874726 3.140346
4.375964 9.816284 3.558213
4.204872 9.782552 5.70578
-0.1354395 9.410673 1.604358
-0.8914951 9.925997 -3.04837
0.9342148 10.09315 11.75838
0.7733464 9.634406 11.79138
2.001934 10.23473 13.24121
2.413151 10.08925 13.1858
0.5433136 8.781192 9.999885
5.085983 10.12815 -4.145942
4.686017 9.980729 7.197938
3.652917 9.878359 10.28996
5.001233 10.09949 -0.7999036
4.704456 9.984847 3.11825
4.682722 9.97239 4.683836
4.473147 9.884466 5.398225
-0.3736916 9.580954 -0.04267859
-0.9693833 9.951881 -2.820591
1.054968 10.25508 13.23867
0.5936941 9.090999 11.04949
2.492043 10.05791 13.50656
0.2593448 8.965175 5.738802
5.113164 10.1224 -4.786276
4.452034 9.938882 8.397835
4.450941 9.962172 9.513756
3.296399 9.947358 11.77872
4.975785 10.0989 -0.01228077
4.847005 10.05493 3.021069
4.902315 10.06502 -2.307553
-0.3649074 9.482023 1.387991
-0.1291225 9.293961 3.147928
1.321865 10.31319 14.34798
0.6267381 9.298728 11.99418
1.985963 10.1909 15.13659
1.777641 10.23216 15.2152
0.4747891 8.757963 10.59778
5.264779 10.1921 -3.164568
4.871027 10.03259 6.694721
4.571171 9.980537 9.408351
3.017086 9.969464 12.63313
5.127486 10.14047 -1.140157
4.953879 10.08847 4.136503
5.202431 10.16754 -1.998105
-0.2009658 9.360213 2.444082
-1.12026 10.05816 -3.401554
1.076937 10.26186 13.68521
0.6013109 9.412314 12.85631
2.319242 10.10399 14.86357
1.819623 10.20886 15.63957
0.185688 8.54529 10.16316
5.405453 10.21284 -4.036655
4.771954 10.00532 6.564011
3.889304 9.931299 10.83768
3.229336 9.963368 12.54102
5.187139 10.18456 0.4015241
5.062859 10.14177 3.135652
4.846508 10.02842 5.968859
-0.479983 9.538507 1.534096
-1.221352 10.1398 -3.248153
1.107218 10.25685 14.81664
0.5566354 9.137368 11.88412
0.541548 9.469353 13.61079
2.036351 10.17167 15.41005
0.2430468 8.810009 7.402621
0.06812866 8.591669 10.0701
5.522168 10.24059 -2.537414
5.086316 10.07557 7.089518
4.590332 9.995039 10.1753
3.319164 9.975298 12.85522
5.289279 10.2233 0.9345134
5.304304 10.22772 1.936127
5.0909 10.11373 5.083063
-0.3700519 9.453539 2.683505
-1.52168 10.42945 -4.424208
0.9872718 10.21235 13.97127
0.3362257 8.727768 11.49797
2.392473 10.09208 15.58019
1.797448 10.1922 16.10516
0.138322 8.495477 11.21062
5.597538 10.25077 -2.708675
5.362248 10.10128 7.972084
4.489635 9.99347 10.72498
4.192072 9.990997 11.75563
3.579219 9.987561 12.71023
5.564672 10.25683 -0.1318262
5.373178 10.23901 2.144421
5.295237 10.18571 4.128141
-0.6405024 9.659794 1.278234
-1.060767 10.00507 -1.127986
0.9461116 10.18844 15.34491
0.3738447 8.918674 12.48783
0.4911822 9.499283 14.1608
2.796695 9.985023 14.12565
1.417022 10.19038 16.81415
0.07961243 9.09644 7.034326
0.04499547 8.815026 9.274494
5.236547 10.07023 8.957767
5.245553 10.13862 5.67204
4.734888 10.01726 10.8108
4.197914 10.00812 12.27566
5.756678 10.26059 -0.687705
5.550558 10.21748 4.258333
-0.5900953 9.621726 1.619089
-1.232497 10.20955 -1.787438
1.20336 10.17329 17.15314
0.457241 9.43291 14.18473
3.177282 10.01546 14.53694
2.430916 10.09773 16.35153
1.708992 10.1575 17.317
-0.05500594 8.470858 10.98046
5.870737 10.2476 -3.969989
5.196826 10.05354 9.891773
5.571035 10.11312 8.005217
5.107392 10.04714 10.11197
4.722604 10.03682 12.70748
3.953297 10.02575 13.18501
5.719543 10.26758 0.05275249
5.670288 10.21006 4.81788
-0.8347788 9.854486 0.9743544
-0.4950362 9.633886 3.366662
-1.550673 10.57488 -3.911025
0.8004958 10.08499 14.55637
0.3040591 9.034508 13.57268
2.176323 10.12837 17.11901
1.622755 10.15168 17.62995
0.01926334 9.304809 6.569194
-0.00543659 8.911491 9.68874
6.061736 10.20721 -2.219523
5.518532 10.05167 11.05052
5.646832 10.12519 7.491868
4.944917 10.03218 11.02096
5.98547 10.23039 -1.506639
5.814023 10.26541 1.217834
5.733696 10.23125 3.956263
-0.9319131 10.03125 1.313383
-0.3823549 9.577639 4.168346
-1.624598 10.82401 -4.398724
1.51738 10.13428 18.49319
0.3629395 9.541379 15.25391
3.275408 10.04643 14.82791
2.652364 10.06712 16.05334
1.918986 10.1338 18.01936
-0.1524418 9.59726 5.709219
6.132133 10.19392 -3.792416
5.693431 10.07499 9.438871
5.451439 10.04419 11.99105
5.794814 10.09542 8.672563
5.854358 10.15814 6.173439
4.842199 10.03165 11.76984
4.508969 10.05238 13.72919
3.636615 10.04163 13.96289
5.821731 10.26647 0.4724316
5.791545 10.20468 4.881172
-1.196083 10.2359 -0.9459243
-0.3768953 9.791375 4.8817
-1.243178 10.30791 -1.198128
0.7062978 10.08029 16.26051
0.1117953 8.666748 12.73219
0.5295117 9.825868 15.22968
2.717103 10.07823 16.48853
0.1622772 9.257526 8.540285
-0.1525083 8.373589 11.91035
6.285943 10.12652 -4.154394
5.34222 10.04421 12.14757
5.876694 10.05328 10.73397
6.232419 10.03319 11.94947
5.895983 10.13327 6.827271
4.845025 10.0551 13.70439
3.805373 10.05599 14.61075
6.06064 10.23034 0.7857905
6.095871 10.1972 3.243596
-0.9369131 10.07798 1.613459
-0.6625463 9.925377 3.518605
-1.473327 10.75064 -2.887874
0.6025647 9.980619 15.75125
0.3704656 9.709662 15.81947
2.559378 10.11448 17.62632
0.1613363 9.344956 7.922
-0.09984922 8.8342 11.08138
6.374803 10.09889 -2.486453
5.683221 10.0452 13.14715
6.046547 10.05584 10.11706
5.966501 10.1151 7.787077
5.147235 10.04873 13.11134
4.102448 10.06019 14.79946
6.518231 10.07346 -0.7613366
6.154359 10.20177 1.203483
-1.226209 10.3554 -0.5726004
-0.6276842 10.06364 4.326589
-1.305103 10.50869 -0.963214
2.147092 10.14974 18.85058
0.1907883 9.197174 14.73792
3.094965 10.07196 16.29602
2.252813 10.12406 18.30327
-0.04255917 9.665874 6.378045
6.401222 10.04761 -4.704549
6.159475 10.05247 9.63757
6.1489 10.03941 11.16627
6.352639 10.02778 11.47396
6.15563 10.12759 6.080742
5.356553 10.0597 14.1892
3.940325 10.05462 15.15289
6.26277 10.16142 2.547758
6.238168 10.14622 4.459591
-1.122148 10.31928 0.8112001
-0.8117231 10.24064 3.772385
0.6669585 10.12313 17.62749
2.165579 10.21204 19.1434
0.4617673 10.14193 18.35078
-0.2785281 8.532783 12.58372
2.742968 10.1179 17.99806
0.06529781 9.654016 6.951796
6.443998 10.02468 -4.759413
6.265415 10.06996 8.601326
6.412015 10.0288 9.915078
6.651606 10.00839 11.89883
6.557235 10.01531 10.87329
6.234784 10.10251 6.524481
4.439999 10.09071 15.26494
6.716323 9.950006 -1.089333
6.291478 10.14797 2.94718
6.431086 10.06388 6.271931
-0.5969979 10.19695 4.916566
-1.468019 11.00135 -2.956695
1.997823 10.34202 19.34467
0.2150318 10.17584 18.54914
-0.295031 8.482829 12.42516
3.23317 10.10707 17.46401
0.348281 9.628727 8.510633
0.05185146 9.118442 10.79949
6.475135 10.05073 8.25645
6.982895 10.00091 12.89115
6.687945 10.00318 11.04767
6.451821 10.05297 7.349105
4.870138 10.07085 14.84415
6.793488 9.873086 -1.917735
6.534571 10.05597 1.800727
6.552338 10.04354 4.56938
-1.198987 10.56452 0.8020321
-0.8136069 10.50784 4.701985
0.4262866 10.09917 17.86062
0.8167521 10.27071 19.04154
-0.07813362 9.319812 15.54996
3.822632 10.08497 16.32254
0.3822324 9.565754 9.095483
0.2411685 8.95056 11.28902
6.956758 9.693061 -3.757746
5.930649 10.06664 14.13095
6.833595 10.01408 13.24669
6.704886 10.00149 10.80413
6.365559 10.06948 13.50681
4.909672 10.08369 15.96529
5.293177 10.0799 15.87308
6.905102 9.820004 -0.8960091
6.707111 9.966032 1.042149
6.81559 9.934944 4.403167
6.708814 9.985711 6.715936
-0.9579014 10.49543 3.364722
-1.417272 11.00557 -2.482689
2.584165 10.19588 19.12018
-0.1551191 10.5463 19.05017
-0.1862898 9.187356 14.93714
4.02003 10.09797 16.92038
0.4241167 9.57213 9.954455
6.709165 9.845505 -4.893518
7.137385 9.507818 -4.216169
5.949765 10.06761 14.10955
5.549423 10.06757 14.92737
7.718095 9.966057 13.25257
7.484965 9.988903 13.53756
7.185664 10.00125 13.43739
7.051254 9.965806 11.00866
6.629912 10.03833 13.80851
4.561234 10.092 15.74371
7.050454 9.66652 -2.104992
7.178604 9.631588 -0.0173364
6.861343 9.873172 0.5017434
6.881816 9.891446 3.567779
7.182414 9.799609 5.857547
-1.225576 10.6699 0.5142738
-1.032469 10.60649 2.801474
-1.338252 11.2867 -3.655977
-0.1285591 10.63577 19.08218
0.07082357 10.09066 18.14054
4.09675 10.0891 16.05022
0.4721524 9.651 9.496901
0.476725 9.499131 10.82333
7.136646 9.557052 -3.024962
6.851215 9.958081 7.53265
5.925292 10.07845 15.94118
5.693728 10.08214 16.22459
7.632893 10.004 14.35912
7.59623 9.901648 11.17016
6.996029 9.953024 10.01361
4.38547 10.09792 17.05769
7.332696 9.470413 -1.264491
7.27345 9.570345 0.2748057
6.861574 9.895909 3.007997
7.122767 9.78686 4.327749
6.982338 9.851714 4.168099
6.936454 9.930784 7.437475
-0.7011334 10.42581 5.215515
-0.8857407 10.77922 4.726671
0.2345569 10.02672 17.65976
1.769347 10.66552 19.41979
-0.1525262 9.493183 16.1045
0.4766599 9.62499 10.20345
7.017764 9.571336 -4.443549
7.008901 9.928414 8.483979
6.303169 10.07538 15.65953
7.941278 9.94986 12.98008
7.470241 10.03526 15.06545
7.337729 9.917696 10.60151
8.072522 9.929561 12.57557
5.121304 10.09093 16.8185
7.392042 9.482929 0.1135394
7.12291 9.722028 1.90597
7.566743 9.60033 5.04505
7.344413 9.664929 3.987102
7.194055 9.816072 6.594105
-0.6365812 10.58363 6.289181
-0.8620007 10.97576 4.985068
-1.119627 11.40332 -4.454905
-0.04766652 10.81945 19.05734
-0.2266145 9.526149 16.05821
0.4465745 9.897365 8.830978
7.057857 9.506924 -4.910821
7.314176 9.835865 8.071289
6.578917 10.07463 16.12347
6.587755 10.05632 14.83481
7.889925 10.01426 15.04516
6.852525 10.05781 15.29336
8.156159 9.848627 11.37969
7.265862 9.889852 9.416551
7.559949 9.32748 -0.7660532
7.442867 9.537649 2.098571
7.220573 9.717765 3.616885
7.465793 9.704722 6.370066
7.510851 9.746925 7.579559
-0.1081066 10.19291 7.094639
-0.8976635 10.97339 4.554519
-0.9841543 11.3824 -3.899403
0.3489542 10.90357 19.08131
-0.3468122 9.435497 15.02539
3.341215 10.05648 18.43188
0.3838099 9.074326 11.62594
7.576634 9.218431 -2.758877
6.781605 10.0617 15.43186
7.223518 10.07234 16.29062
8.102017 9.984661 14.2837
8.210663 9.859375 11.59645
7.588642 9.848739 9.943647
7.769729 9.292171 0.6989183
7.526215 9.553168 3.400377
7.851791 9.556635 6.230017
-1.138454 10.89209 1.15724
-0.812722 11.00074 5.544214
-1.176151 11.16579 -1.375769
-0.1696117 9.865217 17.34126
0.4545306 10.98561 18.97865
-0.3497722 9.577441 15.22754
5.114511 10.05995 17.19993
0.1162843 9.021319 11.88276
7.659597 9.160984 -2.921676
7.565852 9.743522 7.85626
7.165454 10.08552 16.98438
7.796935 10.06619 16.28954
8.091661 10.02351 15.4962
8.526132 9.84182 11.62836
8.534082 9.870708 12.0129
7.783413 9.192206 -0.8931315
7.771588 9.429625 3.311052
7.956536 9.380607 3.702128
7.805067 9.619567 7.048213
-0.6826615 10.76132 6.579618
-0.838735 11.20914 3.833134
-0.7832767 11.34638 -3.812446
1.041516 11.02084 18.99481
-0.2962196 9.999252 16.02776
5.434606 10.05213 17.12119
0.6022479 9.368056 11.27148
7.855935 9.035651 -3.379053
7.861943 9.717959 8.802194
5.645388 10.05637 17.05791
8.172585 10.02772 15.67794
8.600739 9.736736 10.3763
8.657928 9.94677 13.111
7.806646 9.341236 1.942359
8.009778 9.341293 3.340992
8.104095 9.441227 5.66146
-0.610437 10.6694 6.86214
-0.7569512 11.20038 5.33437
-0.837485 11.34864 -2.632965
2.534048 11.05129 19.18317
-0.1368005 11.03945 18.65999
-0.3260836 9.907251 16.699
0.4308619 10.15038 9.202881
0.662562 9.875736 10.60917
7.910645 9.06933 -2.274745
8.062141 9.598598 8.022892
8.642361 10.08347 16.88971
8.483276 10.0163 14.45337
8.440546 10.05997 16.34447
8.638422 9.716854 10.15958
8.87769 9.889004 12.56553
8.253858 9.376166 5.153375
8.037861 9.185938 0.7381305
8.25039 9.429904 5.959778
-0.9775746 11.25602 -0.3878061
-0.7040005 11.31132 4.552821
-0.9463301 11.33458 -2.559016
1.808146 11.07373 18.84396
-0.7630777 10.39303 18.37099
-0.1848254 9.764243 14.13912
-0.364233 10.56406 7.894048
7.668274 8.992649 -4.88053
8.042745 8.941316 -4.120228
9.027102 10.0968 17.23165
7.64896 10.02728 17.47378
8.620783 9.670626 9.594334
8.986753 9.869977 12.24936
8.114627 9.37491 4.589354
8.310914 9.264154 3.341219
-0.9570274 11.24271 0.5421125
-0.827394 11.29243 1.877501
-0.8619022 11.33906 -1.274058
-0.3661581 10.02874 17.02223
0.6782901 11.08784 18.52647
-0.2293543 9.590287 13.5958
-0.05278574 9.928692 13.97141
0.2247329 9.196373 11.90026
7.828889 8.946424 -4.546504
8.14715 9.124576 0.1128429
9.082108 10.10019 17.32963
7.780327 10.05913 17.45512
8.94856 9.685516 9.739906
9.264924 9.877392 12.52595
8.355212 9.426105 6.234674
8.432768 9.213161 2.59589
-0.7917101 11.34595 -0.5260948
-0.4996619 11.41672 4.656714
-0.4420895 11.22375 -3.846872
1.514287 11.09933 18.28631
0.6315189 11.10011 18.34402
-0.1761439 9.605219 13.28152
0.05318215 10.46657 9.000327
0.786204 9.950542 11.58354
8.244119 8.96934 -2.731536
8.284541 9.057751 -0.736544
9.18208 10.09765 17.95862
8.87969 10.04328 15.16206
8.959151 9.734827 10.3694
9.345583 9.876207 12.18973
8.494055 9.317529 4.71868
8.509833 9.132497 0.8709139
-0.7800348 11.34913 0.2953567
-0.6440333 11.37769 1.541258
-0.6218619 11.35242 -1.608742
3.486411 11.10875 18.51148
2.900549 11.10529 18.36653
0.2493131 11.16356 17.74446
-0.2498088 10.32205 15.31814
-0.2229065 10.54966 8.460412
-0.06570699 9.558742 12.39225
8.446611 9.031693 -1.192415
9.423887 10.11583 17.80741
9.02926 10.05348 15.86992
9.180563 9.934885 13.94815
9.416898 9.885949 12.48935
8.575705 9.366294 5.697532
8.639699 9.140749 0.6771515
8.495345 9.528407 8.128688
-0.6681998 11.37525 1.355222
-0.5276132 11.33684 -1.513203
3.441082 11.12044 18.99785
1.571028 11.10454 18.07356
3.782154 11.12272 18.19531
0.5378685 11.17015 17.60591
-0.5052291 10.47007 16.14988
-0.2011548 10.58868 8.822042
0.680495 10.25984 10.89155
8.484661 9.016501 -1.825921
9.516952 10.07767 17.12265
9.455211 9.954358 15.13852
8.861421 9.551996 8.414571
9.420696 9.814191 10.65994
9.380116 9.909242 13.98499
8.726399 9.149602 0.3249708
8.628325 9.524298 8.190125
-0.4602364 11.41207 6.322907
-0.2571605 11.39618 3.154462
-0.2947241 11.16054 -3.020072
1.845904 11.11429 17.59498
2.957694 11.10011 17.87012
0.7337052 11.16099 17.4139
-1.02574 10.57266 17.94179
0.007589688 10.26414 14.12814
0.7897047 9.894594 11.90366
8.566886 9.039745 -1.674122
9.615304 10.04097 16.59181
9.265734 10.03179 15.82519
8.910215 9.536201 8.205192
9.821393 9.953227 10.74547
8.862143 9.356183 5.138868
8.911729 9.322908 4.159559
-0.3812655 11.30293 -1.116914
-0.2691948 11.45059 5.261643
-0.01648419 10.94596 -3.862488
2.550246 11.10589 17.75712
1.969964 11.12193 17.28239
3.53134 11.10213 17.54564
0.5846517 11.20824 17.10516
-1.063834 10.40152 17.7486
0.07012529 10.23948 13.82689
0.6647478 10.31405 11.03026
8.674858 9.042739 -3.343446
9.923547 10.11374 18.15202
8.734632 10.12995 18.14271
9.176804 9.581607 8.168408
9.840871 9.964025 10.93994
8.884917 9.392213 5.759313
9.02688 9.356593 4.091145
-0.3567218 11.31 -0.6707555
-0.1343903 11.41591 4.668246
-0.1176114 11.29633 1.932567
-0.1563413 11.13644 -1.950416
2.518663 11.10909 17.4117
1.151955 11.13831 17.07195
3.707546 11.10031 17.24712
-0.0644324 10.99913 17.40455
-1.073184 10.79814 17.77299
0.330118 10.54669 10.53069
0.7661067 10.18846 11.80526
8.794508 9.12311 -1.603838
9.966913 10.10419 17.95648
9.301699 10.10657 18.60392
9.261064 9.610441 8.246167
9.888256 9.991971 11.70537
9.003653 9.403894 5.57614
8.972775 9.263868 0.5280879
-0.2918554 11.29877 -0.2106092
-0.1535227 11.28934 1.227232
-0.02113301 11.29476 2.86435
-0.1764341 11.12036 -2.425106
4.606094 11.12166 18.57058
2.383806 11.15867 16.10304
1.26479 11.14458 15.6348
3.117205 11.08276 17.04506
4.925345 11.11494 17.21668
0.2122568 11.31111 16.48236
-0.613866 10.31128 15.92279
-0.4591674 10.89312 8.836537
8.920446 9.208643 -2.026722
10.33975 10.11686 18.42761
9.633335 10.12882 18.87264
9.467772 9.708468 8.611603
9.988845 10.03237 11.9999
9.09316 9.349043 1.981092
9.294152 9.517602 5.39001
-0.4805112 11.35975 7.429984
0.04665709 11.2785 3.263536
0.2094196 10.81663 -3.42466
-0.6484272 10.15809 17.06578
5.451008 11.12492 18.72966
2.546829 11.12345 16.53624
1.945518 11.15977 15.99322
1.457818 11.13661 15.9714
5.231229 11.11882 17.39325
0.6177762 11.25167 16.43385
-0.6096613 11.2114 17.32908
-0.5747411 10.40461 15.67599
-0.1015237 10.72385 10.15619
8.940325 9.235192 -3.138796
10.21769 10.12661 18.6844
9.973864 10.18933 19.00498
9.707523 9.844756 8.746099
9.993733 10.01751 13.05979
9.10936 9.360735 1.04288
9.072779 9.327162 -0.9123625
-0.2716465 11.47136 7.098627
0.1364662 11.26433 3.990605
0.2271057 11.08543 1.638888
0.1735762 10.8233 -3.634924
6.046513 11.13025 18.58517
2.652634 11.1115 16.48853
1.919723 11.18876 15.01151
1.306027 11.16868 14.01919
3.496468 11.08762 16.7503
5.396649 11.10438 16.64713
0.03168527 11.021 16.86673
-0.8691801 11.41853 17.33157
-0.4165739 10.53018 14.34318
0.774349 9.980258 12.3812
8.882943 9.165455 -4.502512
10.34821 10.10853 17.1785
9.334479 9.582476 7.029686
10.11752 10.10487 10.82917
10.14836 10.05408 14.13817
9.282311 9.485489 3.154966
9.416315 9.599866 5.799645
0.1147081 11.36363 5.719103
0.3080867 10.98861 0.609205
0.1048913 11.06004 -0.3750827
6.14475 11.11554 18.07247
2.730017 11.09936 15.85789
1.967187 11.21115 14.33318
1.072504 11.18906 14.2191
1.435811 11.17635 13.74847
4.440162 11.10059 16.54765
4.702512 11.09199 16.31614
0.04242736 10.94471 16.75058
-1.088789 10.4535 17.43598
-0.6492944 10.20186 15.01867
0.4374087 9.789014 12.80513
9.069509 9.37167 -2.751368
10.65592 10.13136 17.92571
10.25141 10.08098 15.7884
9.631968 9.767466 7.774753
10.26749 10.20961 10.24012
10.21013 10.14245 11.56878
9.345028 9.586554 1.061224
9.224268 9.480554 -0.392013
9.375403 9.566547 5.300342
0.1652181 11.31774 5.350672
0.2555912 11.1837 3.801822
-0.02020209 11.47218 7.46597
0.4179089 10.84626 -1.494356
7.057857 11.13182 18.71525
2.939601 11.04973 15.99446
2.253767 11.20808 14.6839
1.750476 11.1971 14.0313
0.551129 11.35313 14.24057
1.18296 11.1868 13.36376
4.226208 11.12241 15.81903
5.551293 11.11073 16.11146
0.3880486 11.39299 14.72732
-0.6706647 11.29831 16.97148
-0.757915 9.89384 15.07894
0.4508567 10.24304 12.89381
9.119197 9.482244 -3.895381
11.25621 10.12645 18.37109
10.19553 10.42259 19.44476
9.921925 10.00462 7.626908
10.3694 10.31661 9.169013
10.56386 10.32314 11.88174
10.33517 10.13632 13.92101
9.44911 9.643069 3.104776
9.166625 9.494332 -2.598326
0.3020475 11.31323 6.768488
0.4351729 11.00839 2.260712
0.5395805 10.73543 -4.322851
5.644203 11.11259 18.01066
7.414693 11.13416 18.54074
6.612806 11.1149 17.94258
2.645514 11.14485 14.83841
1.882947 11.26539 12.21354
0.9059803 11.23535 13.49012
1.288027 11.1862 12.9591
4.231145 11.12321 15.69326
5.506108 11.11182 15.59687
0.06495 10.83381 16.59535
-0.9275194 11.52934 17.01444
-0.7760642 9.871103 15.74183
-0.2719429 10.9263 10.43605
9.136499 9.491925 -4.465515
11.09278 10.15477 18.93485
10.69683 10.19703 16.45054
9.791769 9.900155 7.044456
10.47104 10.34757 9.956607
10.71365 10.3821 12.29652
10.38558 10.15729 13.99765
9.480228 9.685905 2.879404
9.439619 9.773309 -0.005207578
-0.2046807 11.4732 8.226699
0.4803933 11.04683 3.61499
0.5747859 10.90408 0.8337749
0.5976917 10.8015 -1.838597
7.177226 11.12609 18.16839
2.935701 11.05774 14.72816
2.328635 11.25152 12.77001
0.9045442 11.24008 11.94405
1.207763 11.19127 12.06248
4.277112 11.11399 15.2731
5.58836 11.11698 15.71786
4.862767 11.06318 14.90032
-0.4972378 10.93123 16.78031
-0.8459572 9.710544 15.33097
-0.4185236 11.1307 9.611254
0.04672129 10.76946 11.79734
11.58704 10.11387 18.55631
10.9031 10.19608 17.20697
10.09242 10.17809 7.089036
10.3884 10.38488 7.772307
10.58041 10.2299 14.43483
9.548544 9.855854 1.292545
9.687654 9.856377 4.673748
9.349685 9.797663 -2.539858
0.608547 11.13556 6.564484
0.6358385 10.94624 2.538011
0.5956513 10.8721 0.07229394
9.225224 11.1383 18.54219
8.933595 11.12778 19.02597
6.204458 11.14513 17.59012
2.871629 11.09555 13.95009
1.138823 11.19731 12.0461
0.2190997 11.43576 13.80533
4.563654 11.07986 14.91445
5.859882 11.102 16.17665
-0.08982744 10.62109 16.57814
-1.130619 10.23602 17.12417
-0.1545771 10.8616 11.03068
0.4175154 10.62633 12.59247
9.378642 9.887236 -3.11564
10.9288 10.23052 16.83636
9.766592 9.898888 6.015743
10.53748 10.42357 9.149056
10.33938 10.38898 6.740837
10.80984 10.34888 14.18856
9.608753 9.983479 0.8220963
9.70611 9.88661 4.510897
9.559839 9.9215 0.6216216
-0.050574 11.4866 8.269859
0.6466944 11.0289 4.639638
0.7622145 10.86884 0.3303045
9.478798 11.13295 18.86332
8.874623 11.13525 18.26159
7.393149 11.12432 17.64723
2.521043 11.2329 12.44263
0.8409484 11.24735 11.37768
1.38822 11.19763 11.80382
4.337824 11.07703 14.43612
6.028712 11.06599 15.87998
4.897576 11.04885 13.97492
-0.8630105 11.58136 16.62092
-0.1958308 10.91927 11.05396
0.3524878 10.6635 12.54828
11.43741 10.40591 19.30261
11.05428 10.37827 15.48345
9.795271 9.945037 5.535805
10.5944 10.48394 8.528717
10.95806 10.49858 12.0446
9.720749 10.09378 1.571802
9.653623 10.14112 -0.5463955
9.466964 10.02618 -3.3075
0.6188374 11.17025 7.288002
0.06360666 11.47691 8.284272
0.9117528 10.82445 -3.632426
9.447371 11.13371 18.19302
7.014669 11.12938 17.55988
2.897426 11.10394 13.43195
2.249908 11.3256 11.49101
0.7224445 11.29383 11.54135
3.813524 11.0338 14.55928
4.145228 11.05798 14.22772
5.302786 11.04061 13.16139
6.221911 11.00646 15.74848
-0.008436391 11.02142 14.95026
-1.379953 11.34793 16.83662
-0.3476611 11.36626 9.242151
0.6113985 10.4576 12.85423
11.1625 10.67861 19.38083
11.09144 10.29372 16.59294
10.13082 10.26823 5.859092
10.8539 10.52482 10.51108
10.21798 10.31108 6.516661
11.17723 10.44676 14.85951
9.855202 10.12266 3.584644
-0.01691203 11.49207 8.559226
0.6374574 11.17456 7.624088
0.9933999 10.94446 2.163308
0.9094756 10.82625 -2.906011
10.25453 11.13568 18.51026
9.344917 11.13056 17.7112
7.931291 11.11736 17.0194
3.447375 10.9853 14.51236
3.007328 11.07601 13.36687
2.187011 11.35009 11.17375
0.3065456 11.44794 12.11078
4.071546 11.04864 14.19239
4.221539 11.04504 13.92316
5.119533 11.028 12.89889
6.302569 11.03218 16.11264
0.06907153 10.91408 14.83637
-1.0418 11.65928 16.51083
-0.1131253 10.90518 11.83671
0.3789646 10.65419 12.97903
11.56956 10.78178 19.27092
11.45602 10.33432 16.1799
9.974198 10.2088 4.320137
10.95326 10.54971 10.77598
10.64577 10.54967 7.278341
11.15761 10.52496 12.54828
9.765282 10.22488 0.4709677
9.56303 10.14481 -3.213011
0.699775 11.15087 7.63994
1.083119 10.96613 0.7842839
1.027898 10.9017 -2.308916
10.75494 11.14305 17.7112
10.49967 11.14066 17.77446
10.55704 11.13844 18.19799
9.199976 11.12716 17.23516
7.592982 11.11872 17.10743
3.457047 10.98607 14.37636
3.105416 11.07287 12.67682
2.12379 11.40565 10.5375
0.5330814 11.36989 11.234
3.897256 11.00721 13.64062
4.212364 11.02392 13.44554
5.275309 11.02522 12.73204
6.754297 11.10669 16.43504
0.02695891 10.93879 14.41821
-1.077862 10.79714 16.43153
-0.2676929 11.30492 10.48266
-0.1625086 10.99885 12.09799
12.20517 10.20439 18.85008
9.695893 11.04874 19.32829
10.35163 10.4636 5.047069
10.10396 10.4233 2.498518
11.25406 10.52288 12.66132
9.713778 10.27081 -1.893886
9.744207 10.30952 -2.872453
0.5115288 11.2858 8.463354
0.1890602 11.45489 8.881168
1.089369 10.93804 -2.878904
11.08143 11.14675 17.74649
10.14753 11.13983 17.5696
8.559195 11.09304 16.11043
8.255235 11.09085 16.16168
6.961453 11.12516 17.21957
2.570445 11.33719 10.56769
1.197739 11.15637 10.41541
1.449208 11.20469 10.30101
5.073018 10.99817 12.06608
5.957288 11.05261 14.30976
5.757533 11.02368 12.4348
6.289256 10.99342 14.97328
0.2504171 10.7607 14.97249
-1.180681 10.92264 16.40001
0.4930143 10.00602 13.72409
-0.1753732 11.07641 12.4248
11.22067 11.01877 19.14556
11.52364 10.31935 15.85424
10.25074 10.45196 3.896904
10.70155 10.5972 5.970084
10.16558 10.45827 2.468632
9.835945 10.36022 -1.153674
0.1142661 11.48228 9.004993
0.6254966 11.24216 8.804587
1.226251 11.05793 1.4669
1.109812 10.95402 -2.978921
11.36201 11.15586 17.4202
8.491871 11.08791 15.94073
9.614264 11.13707 16.93501
8.050055 11.09365 16.09668
3.76918 10.98938 13.15891
2.913665 11.16594 11.20145
1.948422 11.40994 10.06147
0.2402579 11.46773 11.14891
5.203774 10.97959 11.32678
6.137966 11.01116 13.96325
5.861775 10.99978 11.72565
-0.09053753 11.04149 13.46496
-1.023994 11.70895 16.24495
-0.1059285 11.45509 10.44069
0.5705518 10.46245 13.53222
11.96282 9.958151 17.86843
11.6098 10.23192 15.95591
10.48345 10.55872 3.761644
10.8417 10.63792 6.882956
11.36058 10.49273 13.45998
9.872961 10.39821 -2.551325
1.19417 11.04917 -0.9635444
0.8251401 11.13491 8.261792
1.220077 11.06066 0.3937675
1.216176 11.07418 -1.771812
11.36432 11.1552 17.28868
10.56302 11.14795 16.49151
8.372197 11.06429 15.06034
9.485871 11.13991 15.82192
7.978586 11.08462 15.43845
7.25041 11.14118 16.34056
2.68481 11.32479 10.15287
1.935695 11.41818 9.867736
-0.01721248 11.4173 12.22936
4.808735 10.9711 11.41136
6.31815 10.99534 13.95916
6.263113 10.97472 10.42595
6.154891 10.98206 10.81875
5.701906 10.99443 11.55757
-0.1152174 11.02312 13.10317
-0.9411222 10.58885 16.14021
-0.2110806 11.34708 10.96021
0.2698693 10.72489 14.1195
12.04949 10.84493 19.13069
11.57608 10.31776 15.01675
10.57308 10.57595 4.169466
10.81478 10.63205 6.615714
11.48935 10.44398 13.60864
10.05333 10.49273 -1.510902
10.35466 10.57169 1.055662
0.7170495 11.20158 8.878027
1.32333 11.14624 2.090657
1.266987 11.15224 -3.165205
11.84695 11.1622 17.8297
9.9053 11.14861 16.48243
10.24474 11.14705 16.90657
10.72649 11.14239 15.85987
9.8327 11.16229 15.3391
9.605078 11.14917 15.64048
7.985934 11.09836 16.12851
3.538746 11.00479 11.50632
1.522286 11.22733 9.983236
0.6428971 11.29326 10.32817
5.816762 10.95987 9.950425
5.081796 10.96774 11.06728
4.084973 10.97417 11.74027
6.793263 11.00282 11.5027
6.642372 11.02215 13.94468
-0.1303596 10.46352 15.80749
-0.9911421 10.40961 16.00551
0.2502596 10.62419 13.08092
9.986567 10.42733 -3.524275
11.61777 10.26244 14.88147
10.55309 10.58177 3.145252
10.97608 10.6768 6.580094
11.44373 10.54255 10.8212
10.49311 10.58237 1.788642
0.4161471 11.37982 9.478654
1.348495 11.17703 2.121739
1.325334 11.3464 -4.02766
11.75185 11.183 17.0959
10.73271 11.14112 15.10393
9.89595 11.16427 15.31084
10.12043 11.17982 14.21202
8.462386 11.06004 14.65637
9.537614 11.16439 14.05262
8.232938 11.03673 14.2976
3.325553 11.03664 11.11732
2.447729 11.51764 8.977542
0.9087675 11.15117 9.348789
1.4504 11.20048 9.430569
5.231829 10.96248 10.78111
4.280071 10.96842 11.57907
7.213741 10.99545 11.26852
6.616508 10.96258 10.0964
7.249548 11.19052 15.52285
-0.5879258 10.94958 15.67563
0.2607616 11.46055 10.08324
10.08391 10.44711 -3.743445
11.66335 10.13385 15.31989
10.99926 10.63498 3.961716
11.62226 10.28962 13.13824
10.19017 10.527 -2.197262
1.366019 11.3011 -1.738958
0.8882535 11.14449 8.91451
1.374926 11.20668 2.438785
1.533884 11.54382 0.473606
12.20881 11.13412 18.48245
11.44694 11.16372 15.97106
11.13829 11.13637 15.32007
9.975274 11.18698 13.62682
9.072451 11.11696 14.70936
9.242267 11.13451 14.45388
7.676592 11.12152 15.52398
3.786138 10.92958 10.49286
2.769011 11.34711 9.192732
1.315386 11.15427 9.304466
5.782671 10.95159 9.523893
4.712085 10.90494 9.918136
6.625198 11.01746 13.64317
6.751839 10.9865 10.95304
7.565772 10.97287 10.7448
6.540904 10.95537 9.720177
7.488919 11.15655 15.57852
-1.164299 10.30084 15.9826
-0.1990443 10.71889 13.97739
12.57823 10.06422 17.91072
11.90495 9.836302 17.05755
11.049 10.64542 4.178381
11.20408 10.71265 6.71824
10.2302 10.50347 -3.017499
10.62168 10.58801 0.7940495
1.413958 11.19441 7.207882
1.484975 11.37757 1.751165
1.566079 11.57728 0.8756604
12.50351 11.12835 18.42189
11.49357 11.16955 15.57237
11.14527 11.13447 14.88727
10.2378 11.19016 12.5789
10.29613 11.17378 14.03994
8.935891 11.10638 14.49547
9.306096 11.15547 13.08123
8.016281 11.02568 13.91238
3.450452 10.97404 10.20239
2.504225 11.54756 8.365582
2.153316 11.59784 8.261842
5.543991 10.91686 8.31091
4.601117 10.91017 10.19198
6.715785 11.03769 13.63808
7.124197 10.93246 9.702452
7.431656 10.94455 10.08397
6.579627 10.94608 9.333949
6.982807 11.11565 13.91706
-0.6687778 11.08753 15.55518
-0.3944227 10.75112 13.93467
12.62076 10.11251 18.09939
11.69735 9.859979 15.41292
10.86052 10.6028 3.001355
11.36119 10.70867 7.304456
10.4144 10.49692 -3.301141
10.54354 10.58516 -0.4209623
1.463604 11.50458 -1.358198
1.664619 11.50019 4.905842
1.520108 11.39813 2.82313
1.543998 11.6443 -0.6805678
1.463112 11.65834 -3.398767
12.4844 11.14267 18.2065
12.00782 11.25099 16.18081
11.30542 11.14379 13.40443
10.35879 11.17954 12.5409
8.766679 11.08823 13.94338
8.921057 11.11248 13.36565
9.246664 11.15319 12.72691
8.342531 11.02295 13.30267
4.069069 10.90195 10.2228
2.951073 11.25747 8.534616
6.131897 10.91799 6.984439
4.94522 10.88648 9.127691
5.751789 10.92542 7.902185
4.440098 10.86991 9.54379
6.984848 10.9337 9.549654
7.749277 11.00695 11.52262
6.363421 10.93789 8.651231
0.2318712 10.25113 14.95866
0.5451046 10.3955 14.38311
12.36672 9.877811 17.35136
11.70065 9.745709 15.29971
11.14633 10.62449 3.614918
11.24844 10.70407 5.573667
11.68606 10.22419 11.20812
10.69632 10.57598 -0.0456898
1.687681 11.41543 7.153547
1.492865 11.244 7.763417
1.718258 11.82111 1.055641
1.564637 11.72926 -1.164118
1.531737 11.73957 -2.18319
11.66951 11.21713 13.93268
12.49402 11.17107 17.57047
10.5683 11.15385 12.32407
9.777412 11.21718 11.92142
9.442739 11.20637 11.54599
7.824827 11.04089 13.7368
3.470047 10.95714 9.60303
3.087357 11.16118 8.163458
6.144311 10.89982 6.333035
5.87659 10.89996 6.311679
5.658795 10.89359 6.686275
5.113542 10.87333 8.380727
4.009623 10.86137 9.35489
6.968873 10.92115 9.262751
7.543521 10.91706 9.600708
7.781865 10.90421 9.299362
6.78506 10.92609 9.081787
-0.2411946 10.49532 15.32261
-0.388306 10.74333 14.35136
13.27733 10.70371 18.86275
11.53513 10.60265 8.92593
11.28471 10.57557 2.568336
11.6587 9.881584 13.69888
10.56362 10.46246 -3.849302
10.83855 10.567 1.162857
1.849452 11.73213 4.312537
1.728374 11.95563 -0.5763923
1.501248 11.95588 -4.096105
11.8736 11.28168 13.95881
11.53944 11.18531 13.78742
10.34867 11.18723 11.94061
10.74924 11.11847 11.66963
8.798548 11.10609 11.49187
8.315338 11.01811 12.96607
2.715798 11.50106 7.481167
5.966026 10.87342 5.279105
6.170021 10.87766 5.585852
5.265221 10.87485 7.8185
5.408511 10.86644 6.762358
4.289209 10.83613 8.988859
7.496471 10.83505 8.240701
8.076651 10.94424 9.521955
7.270774 10.8411 8.072535
6.486032 10.92166 8.263021
7.24212 11.1289 13.63357
0.3356576 10.21311 14.60798
12.61677 9.896612 17.16788
12.0207 9.643123 16.46829
11.41094 10.58058 2.755141
11.3023 10.54623 1.936504
11.67303 10.01172 12.03968
10.89901 10.47923 -2.000021
11.14674 10.49045 0.2666692
1.775174 11.60567 5.182309
1.80197 11.88807 1.500247
1.677185 11.98921 -1.911803
12.40535 11.31975 15.86464
12.40183 11.2901 16.21438
10.18725 11.24043 11.14072
9.675197 11.24205 11.36741
8.956807 11.13289 11.43753
3.562202 10.91746 8.881248
2.792882 11.41768 7.899892
1.842485 11.51929 7.624292
5.862391 10.846 4.46577
6.191559 10.85587 4.873856
5.366345 10.85163 6.447187
4.322796 10.76215 7.866614
7.303873 10.8664 8.630415
8.14256 11.00468 10.816
7.872547 10.81141 7.60717
6.702783 10.87945 7.443137
6.5446 10.87027 6.529835
-0.01227994 10.33866 14.7167
12.96535 9.90382 17.72266
12.20103 9.627361 16.48007
11.64547 10.57568 2.970991
11.70314 10.56421 7.438102
10.80546 10.46887 -2.793317
11.16625 10.49153 0.4309039
2.009863 11.9082 3.258667
1.828039 11.9887 0.3853128
1.772411 12.09567 -1.912869
12.0624 11.35568 13.5579
12.52572 11.24207 16.56534
10.3042 11.20891 11.34207
9.66761 11.28033 10.80504
8.828547 11.11254 11.34924
3.330117 11.00173 8.224339
2.593814 11.64333 6.602251
5.911829 10.80088 3.162084
6.362657 10.83379 4.690345
5.516431 10.82133 4.750049
4.533039 10.74409 7.324166
4.139057 10.82454 8.834875
8.297614 11.03243 12.41667
8.287573 10.99442 9.913321
7.324473 10.77252 6.658768
6.774535 10.76189 4.437521
6.939533 10.77302 5.453894
-0.9683788 11.80972 15.27416
13.23126 10.93381 18.58857
13.41434 10.66168 18.74044
11.73977 10.30568 9.727987
11.54055 10.53332 2.020885
11.61104 9.684125 13.41679
10.95053 10.42838 -2.818558
11.23527 10.35969 -2.414737
11.38662 10.36192 -1.21167
1.933001 11.81404 3.985398
1.996599 12.14447 -0.251018
12.18924 11.39362 13.64202
11.74878 11.25428 12.27811
10.94881 11.06135 10.9717
9.384009 11.27037 10.26294
3.910433 10.78273 7.945719
2.835859 11.43655 7.116665
5.859677 10.78702 2.84007
6.496862 10.79996 4.220796
5.247613 10.77924 4.967264
5.105365 10.80617 6.530065
4.93215 10.74156 5.749911
4.515147 10.71531 6.691672
4.577875 10.69918 6.11882
7.719102 10.76296 6.539886
8.189631 10.9278 8.780424
7.225383 10.70908 4.711766
7.039894 10.78367 6.094376
7.086918 10.71465 4.411618
6.673995 10.74321 3.442116
-0.7153714 11.01472 14.73855
13.35571 10.30397 18.5361
12.04308 9.546801 16.0773
11.52967 10.47119 1.046557
11.78979 10.45593 7.794026
11.0237 10.42189 -2.489204
11.69895 10.28347 -0.9607045
11.17684 10.37607 -2.520434
2.093108 11.9464 3.208554
1.964757 12.18539 -1.144035
12.57296 11.31474 15.58974
11.78874 11.27012 11.89959
11.08636 11.04642 10.89711
9.738423 11.34747 9.98228
9.04724 11.16679 10.60421
3.466325 10.91009 7.499756
3.137522 11.15907 6.78366
2.35994 11.78348 5.753582
5.561254 10.81012 4.22339
6.384338 10.76724 2.982484
6.139451 10.72578 1.710607
4.893059 10.69463 4.713703
4.858665 10.64888 3.576534
7.780748 10.77222 6.680042
8.500185 11.00545 8.629638
7.124637 10.67919 3.582127
6.591516 10.74629 3.167761
13.2491 9.873798 17.77296
12.03303 9.386053 15.43434
11.7467 10.60128 4.347798
11.77283 10.57117 5.969058
11.75102 9.986409 10.04782
11.70695 10.22568 -2.340176
2.148094 11.92182 3.703545
2.051306 12.26322 -1.969107
12.46146 11.45962 13.13851
11.67768 11.22203 11.68792
10.55808 11.15051 10.27812
10.83183 11.05238 10.33399
9.082182 11.19242 10.145
3.44356 10.92132 6.792794
2.85485 11.5211 5.382855
5.634705 10.76232 2.757498
6.764897 10.65164 1.467172
5.227142 10.71148 3.219115
4.731373 10.63381 3.719459
4.308755 10.64582 5.091547
7.811852 10.74724 5.553307
8.488527 10.9921 8.142161
7.454218 10.65235 3.099509
6.943833 10.63941 1.677346
13.45325 10.25328 18.18706
12.4803 9.592856 15.97718
11.84512 10.54914 3.963336
11.55158 9.477533 13.12941
11.60715 9.640947 11.01993
11.90911 10.17267 -2.393517
2.289733 11.87719 4.514806
2.174448 12.09404 1.313798
1.975333 12.29109 -2.811656
12.307 11.46052 12.43673
12.75711 11.02066 16.52489
10.59446 11.1326 10.05187
10.01464 11.36691 9.603528
3.686126 10.79756 6.516222
3.202957 11.14034 5.31112
2.45347 11.86738 4.265765
6.790628 10.63205 0.9783539
6.18856 10.68736 1.045246
4.099804 10.67176 5.523511
4.41296 10.60103 3.594095
7.572177 10.68984 4.358124
8.465299 10.97121 7.081415
7.284597 10.66293 3.395506
13.06375 10.86553 17.90822
11.62161 9.286791 13.86651
11.95394 10.46825 3.076081
11.87793 10.48002 5.842861
11.47518 9.363647 11.55066
12.05696 10.17332 -0.637723
11.60188 10.24225 -3.776123
2.370365 12.172 -0.04038666
1.959515 12.40663 -4.109762
12.32663 11.49101 11.77401
11.5199 11.09348 10.29783
11.07027 10.98556 9.857146
9.499606 11.40195 8.828068
9.259097 11.32341 8.848721
3.629111 10.81079 5.2088
3.343424 11.0029 5.472341
2.708001 11.70635 4.631069
5.881969 10.64504 0.3431319
6.133886 10.59988 -0.3871223
4.891056 10.57597 1.199087
4.390628 10.5997 3.454266
7.756557 10.71038 4.33974
8.423226 10.95109 6.749385
7.416321 10.64705 2.786169
11.63622 10.25482 -4.709689
13.56958 10.58094 18.31286
11.92124 10.39415 1.370726
11.97295 10.373 5.457781
11.64243 9.625418 9.96912
12.13089 10.11265 -1.422266
2.491688 11.94502 2.89573
2.549371 12.12539 -0.3211079
12.58622 11.49156 12.27544
12.0891 11.42316 10.75906
12.77976 10.9908 15.80575
10.4637 11.20646 9.244145
10.11256 11.40337 8.640429
3.748368 10.7587 5.497767
3.537197 10.86201 4.24748
3.084278 11.32963 3.896594
2.609486 11.87219 3.177413
5.183351 10.59315 0.6526539
6.047239 10.53964 -1.418614
6.220823 10.60985 -0.2069775
3.892356 10.69603 4.651668
4.223576 10.5931 2.579239
8.008219 10.77515 4.471424
9.043103 11.24109 8.658153
8.387756 10.9355 6.390381
7.422674 10.63649 1.172139
11.76327 10.22203 -4.332381
11.67884 9.115783 13.6263
12.04574 10.34578 1.721067
12.01458 10.27692 5.441143
11.43201 9.235695 11.48773
11.95216 10.27927 0.09788704
11.69472 10.23367 -3.797153
2.569219 12.14873 -0.9166144
12.75937 11.39804 13.00511
12.14879 11.45987 10.43837
11.27974 10.96732 9.42225
10.29196 11.32454 8.613241
10.08523 11.49961 7.066386
9.532328 11.56952 6.362272
3.240955 11.13559 3.912259
2.812377 11.69071 3.372311
5.374296 10.60595 0.4555074
6.107132 10.5799 -0.7389474
6.501487 10.6025 -0.2994167
4.687418 10.54351 0.5544538
4.381862 10.56122 1.300211
3.864607 10.69516 3.506515
9.074296 11.28668 7.978222
8.472724 10.99545 4.763725
7.374654 10.63609 0.5680983
11.72702 10.21632 -4.226788
11.6588 9.114415 13.52358
12.14922 10.2797 2.388816
11.93643 10.07582 6.907716
11.60719 9.497674 9.685321
12.21451 10.14463 -2.893116
2.566999 12.00789 1.397659
2.465239 12.29427 -3.053723
12.84571 11.06185 14.73428
11.94342 11.32158 9.118199
12.70484 10.77153 15.93591
10.60459 11.12189 9.036144
10.12456 11.46905 7.345365
9.434709 11.52782 6.459485
3.631742 10.80605 3.391792
3.471447 10.92494 3.049424
2.833304 11.67338 3.321416
5.537583 10.60271 0.08724204
6.615194 10.50821 -2.001372
6.61797 10.59465 -0.4270701
4.28087 10.55887 0.1267587
3.972612 10.64307 2.129954
8.093596 10.8002 3.459633
8.550197 11.02683 5.631687
7.708618 10.69838 0.7110766
7.080245 10.60182 -0.584016
13.49058 10.47774 17.88487
11.82886 9.899094 8.145691
12.15226 10.18059 4.056439
11.56781 8.979863 12.64901
12.47047 9.986304 -0.259194
12.54184 10.11043 -2.532494
2.614388 12.07913 -0.1702912
2.441694 12.36304 -3.81594
12.59587 11.5419 11.2056
11.58575 10.96126 7.472349
12.87076 10.64224 17.25407
9.664404 11.74292 3.856481
9.986838 11.66622 4.652319
9.182904 11.36665 7.440415
3.605309 10.82288 2.294667
3.543228 10.88147 0.8353662
3.238667 11.17414 2.38145
2.828203 11.75883 2.034179
5.452782 10.56124 -0.4830521
6.806397 10.5183 -2.02988
4.77878 10.51103 -0.6198407
4.443637 10.53439 -0.210878
8.226801 10.87342 3.212016
9.0843 11.33711 6.942928
8.732988 11.15411 5.668869
7.890787 10.74017 1.851744
7.318416 10.62668 -0.4941718
13.30872 9.419567 16.48553
12.38004 9.305201 14.78404
12.24711 10.17126 1.899343
12.04713 10.04675 5.563228
11.62237 9.470019 9.318057
12.70178 10.01934 -1.522358
2.815623 11.96749 -1.428309
2.637231 12.26004 -3.823028
12.70348 11.5381 11.02432
11.57625 11.00243 8.198831
12.62582 10.39037 16.09218
9.63514 11.67308 4.955846
10.16776 11.51643 5.957489
9.855951 11.8182 2.413643
9.291322 11.53458 5.404651
3.465961 10.95559 0.4978324
3.072657 11.44814 1.49737
5.624519 10.45802 -2.253097
5.231619 10.50149 -1.244723
6.970469 10.54657 -1.676564
6.880897 10.58716 -0.7089245
4.009355 10.61909 0.07108912
3.789463 10.7229 -0.5652635
7.979514 10.77781 1.755923
8.774678 11.16283 6.318654
7.917567 10.77341 0.8228582
7.304725 10.60587 -1.208866
13.42881 10.40545 17.5445
12.26862 10.13221 0.7591881
12.18661 10.16057 3.693761
12.00624 9.897843 6.026462
11.50604 9.119065 10.18875
12.87778 10.10293 -2.01246
2.782568 11.96201 -0.6331027
2.618318 12.26426 -3.74051
12.82825 11.48046 11.26294
12.29839 11.55866 8.792703
11.10377 10.88902 8.071418
10.29883 11.3848 6.936373
10.2863 11.42351 6.229431
9.170357 11.42264 6.22668
9.437932 11.71138 3.432424
3.387148 11.04669 0.2666013
3.28975 11.16127 0.4108173
5.232155 10.45119 -2.052292
6.095561 10.39023 -3.196562
4.663263 10.48672 -1.220572
3.63771 10.82975 -0.8406706
7.963071 10.79371 0.8186415
8.735972 11.19878 4.176069
7.5995 10.67927 -1.18279
13.60824 9.689939 16.78321
12.47329 9.469541 14.61263
12.54838 9.909466 1.177551
11.77474 8.978372 12.50787
12.82363 9.978782 -1.0493
2.930819 11.7259 0.2833983
2.700493 12.21515 -4.20636
12.79435 11.51259 10.99118
12.0523 11.37099 7.586009
12.61067 10.30196 15.94511
10.42074 11.289 6.961376
10.32901 11.44325 5.024995
10.08469 11.70393 3.129675
3.357351 11.13128 -1.097944
3.19314 11.31303 0.099475
3.083971 11.46308 0.7304254
6.912284 10.51252 -2.608919
5.716578 10.36085 -3.323484
4.198404 10.55414 -1.288698
8.153518 10.8935 0.7829134
8.89043 11.34683 3.674868
8.003627 10.83978 -0.6143947
12.8622 10.76983 16.90491
12.11941 9.298256 14.01837
12.58367 9.875547 1.333107
12.05341 9.710169 5.79102
11.5309 8.859756 10.53444
13.03285 10.18286 -2.199897
2.946861 11.8486 -2.39689
12.74126 10.71707 14.61794
12.21239 11.5065 7.736197
11.27547 10.85825 7.514833
10.66254 11.07131 7.359137
9.43098 11.77899 2.183191
9.719264 11.89102 1.145061
10.22842 11.6304 2.711871
9.959114 11.93422 -0.3743263
9.147158 11.57127 3.115086
3.330187 11.22157 -2.185826
3.508003 10.99526 -2.013991
2.985231 11.68488 -0.4614913
7.056222 10.53938 -3.099975
4.397287 10.50132 -1.826894
8.43543 11.11266 0.2023153
8.919186 11.37167 3.647097
7.606337 10.67932 -1.676027
13.54393 9.793494 16.77373
12.07861 9.458305 13.66317
12.55554 9.772007 2.551969
11.98175 9.601042 6.427366
11.66885 9.157958 8.969419
13.07168 10.46749 -3.938833
3.059907 11.65982 -2.181445
13.04084 11.21736 11.57303
12.74455 11.57936 10.06603
11.7981 11.04935 6.361225
12.77238 10.59981 16.57865
9.585636 11.89245 0.8997827
9.731611 12.00584 -1.16776
10.38466 11.48094 2.385641
10.01807 11.91543 -0.4745025
9.342783 11.77147 1.545389
3.766645 10.76794 -1.893276
3.13448 11.50339 -1.666648
6.737159 10.46041 -3.68375
4.285862 10.533 -2.481384
8.67901 11.25118 1.799498
8.968305 11.47117 2.511802
8.78616 11.31328 2.484837
7.805447 10.75419 -1.411768
13.65738 9.502687 16.38595
12.98749 9.594059 15.03586
12.31642 9.643395 4.514051
11.62583 8.812772 11.19586
13.11195 10.0496 -0.9496191
3.147372 11.52619 -2.429388
3.176094 11.62811 -3.879965
12.62438 10.57089 15.18598
11.24354 10.81152 6.489422
10.78972 10.97227 6.937502
9.435268 11.89547 0.003427059
10.48466 11.3049 3.746915
10.25127 11.68467 1.242856
9.081742 11.57853 2.151041
3.664727 10.8677 -2.476885
6.979154 10.51768 -3.647583
4.058336 10.60778 -2.113168
8.769638 11.35509 1.391413
8.365141 11.08902 -0.8846253
8.073527 10.89912 -1.42262
12.57505 10.35875 -4.620168
13.84201 10.81521 17.41944
12.64237 9.687372 2.756706
11.99595 9.485443 6.53242
11.78747 8.781823 10.12971
13.27507 10.28874 -1.869917
3.121657 11.64148 -3.611154
12.83981 10.74154 13.12184
12.64781 11.64378 8.702073
11.5063 10.80005 5.409961
10.68982 11.04896 6.285385
9.400826 11.96713 -1.720965
9.678269 12.06885 -3.157787
10.46216 11.36216 2.579251
10.36851 11.61761 -0.2202744
9.198171 11.72833 0.9066727
6.703309 10.45689 -4.025515
4.372665 10.541 -3.538394
8.833976 11.47077 0.2523848
8.826931 11.48957 -0.2194233
8.992453 11.58255 0.7702412
7.648908 10.70939 -2.400782
13.69053 9.476035 16.15053
12.16901 9.594975 13.68458
12.50396 9.533768 4.338859
11.70697 8.756338 10.86497
13.26985 10.11994 -0.6800909
3.370766 11.38595 -4.26711
12.76677 10.63511 13.0863
12.69358 11.64261 8.57469
11.82101 11.03748 5.839304
12.71986 10.12751 15.91038
9.338787 11.89241 -0.6592747
9.794672 12.03746 -2.11607
10.52088 11.27531 2.439836
10.42988 11.46638 1.16715
10.17215 11.87743 -1.764527
3.676337 10.96376 -3.705537
4.897971 10.41164 -3.768321
8.879498 11.57949 -0.9658194
8.578529 11.40979 -2.957499
8.401341 11.22074 -2.589068
7.926525 10.87733 -2.911835
13.0053 10.71223 16.52952
12.27562 9.559981 13.99109
12.83391 9.630112 2.926965
12.0742 9.354301 6.62307
11.93228 8.861983 9.416593
13.35857 10.30696 -1.392331
12.95237 10.49472 -4.610209
12.77832 10.64719 13.05564
12.51522 11.65644 7.041668
11.89359 11.06186 5.223663
11.45642 10.76062 5.01915
10.84308 10.91588 5.871022
9.23023 11.91814 -2.45733
10.59959 11.13672 2.444387
10.45835 11.48104 -0.4902918
9.166212 11.78953 -0.5059229
5.111296 10.38215 -4.084676
8.968915 11.67165 -1.186996
8.820907 11.59764 -2.244104
7.980033 10.9216 -3.070358
13.66338 9.598 16.1115
12.57263 9.558615 14.00806
12.41045 9.384928 5.591713
11.92455 8.832233 9.695203
13.42744 10.36316 -1.194127
12.84694 10.68236 12.3646
13.01659 11.48363 9.391608
12.10152 11.30809 4.798165
11.05431 10.78146 5.122681
9.006983 11.78086 -2.615921
9.724606 12.11677 -3.849504
10.51839 11.31457 0.7493365
10.62792 11.08131 0.7912007
10.27132 11.82426 -3.049362
7.115606 10.55589 -4.240903
8.822497 11.67441 -3.547753
7.762902 10.84169 -3.795184
13.67671 10.76698 16.82695
13.09909 9.779405 1.722119
12.32214 9.254788 6.659338
12.23078 9.051119 8.615105
13.48193 10.53438 -1.853131
12.4373 10.19226 14.22836
12.63954 11.68407 7.171283
12.00026 11.18135 5.00516
11.21922 10.72714 4.710107
10.07238 11.9866 -3.460485
10.80801 10.90083 4.195415
10.50668 11.40322 -1.33711
3.823651 10.91478 -4.243463
4.247819 10.62739 -3.967744
13.64608 9.633945 15.93216
13.31018 9.206422 15.04292
12.38413 9.294117 6.349137
12.16417 8.939875 9.53856
13.53545 10.72395 -2.572989
12.92759 10.69815 11.63045
13.08109 11.41178 9.454171
12.25534 11.49201 4.821299
12.71626 9.922212 15.38432
10.86007 10.82591 3.237564
10.69948 10.97761 2.262764
10.45383 11.55128 -3.220167
4.222593 10.64794 -4.253248
7.635886 10.78087 -4.107675
13.81247 11.18133 16.6853
13.14604 9.75706 2.689601
11.7075 9.551897 12.21808
12.27061 9.06474 8.852646
13.61541 11.01782 -3.424119
12.79604 10.57889 11.88158
13.17788 11.20773 9.652245
12.32818 11.57061 5.316418
11.51235 10.71312 3.938124
10.10224 12.02431 -4.320372
10.61684 11.11709 -0.4788504
10.56184 11.27355 -1.891674
8.116291 11.09576 -3.995118
13.64593 9.639879 15.671
12.64279 9.413539 13.66282
12.87205 9.551542 4.664378
12.44138 9.230271 7.789449
13.57058 10.52442 0.05037548
13.6331 10.89499 -1.753561
12.75359 10.53416 11.73204
13.22395 11.0838 9.347775
12.46187 11.65946 5.506168
11.79934 10.79917 3.06305
12.68202 9.723953 14.71112
10.73674 10.87591 -1.224028
10.60418 11.14889 -2.841487
8.800489 11.71182 -4.283491
13.25547 10.14451 15.33892
13.37893 9.04742 14.66404
12.68771 9.440256 6.079237
12.29988 9.124621 9.503218
13.59076 10.59735 -0.09825625
13.65988 11.17053 -3.452166
12.45585 9.859815 14.01184
13.02565 11.56466 7.488232
12.1781 11.37556 4.204275
11.73375 10.74664 2.956542
11.0741 10.66642 2.399192
10.87815 10.71145 0.1758873
-1.730951 11.51015 15.59163
13.91953 11.23897 16.47378
13.1755 9.81125 4.05001
11.99172 9.539002 11.48748
13.58752 10.57596 0.5112244
13.64867 10.95896 -1.210611
13.67699 11.16947 -4.129405
12.70919 9.691096 14.62732
12.63017 11.71681 5.57137
11.95645 10.86365 1.826217
12.59759 10.15277 15.22821
10.87262 10.70735 -0.3519199
13.35279 10.95011 15.92948
14.22726 11.06877 16.42937
13.34667 10.00048 2.886168
12.13825 9.398318 11.31855
12.48957 9.475419 8.883283
13.62054 10.74639 0.336761
13.68947 11.38975 -3.728944
12.3497 10.07434 12.28719
13.18092 11.45506 6.989151
12.11747 11.15745 2.368141
11.65671 10.65147 2.13147
10.90548 10.66542 -0.6342036
10.58982 11.25922 -3.726055
13.40022 10.75198 16.03082
12.3723 9.477584 13.00565
12.71858 9.514163 6.846939
12.24689 9.548818 11.60674
12.40555 9.354904 9.1606
13.59434 10.67622 1.508142
13.6704 11.6449 -3.640525
12.55539 9.681333 13.92054
13.22001 11.36155 7.408139
12.22363 11.38454 2.974977
11.47186 10.61501 2.398329
10.96072 10.62123 -0.5631951
10.79888 10.73429 -3.637197
13.62726 10.83587 16.1081
13.36028 10.13544 3.749202
12.17785 9.592672 11.70672
12.67205 9.806179 8.502659
13.56959 10.6064 2.096297
13.72608 11.49551 -4.308327
12.37569 9.631776 12.93251
13.21297 11.45527 6.212194
12.30367 11.49498 2.926427
11.93379 10.7578 0.7807394
12.89537 10.55528 15.47456
10.9519 10.55815 -2.862509
-1.672075 11.20967 15.78023
12.84214 8.876845 13.18763
12.99212 9.773676 5.812379
13.06673 9.915912 5.863414
12.39309 9.352846 10.64887
13.6597 11.44579 -2.084828
12.63874 10.26426 10.51368
12.4249 9.551673 13.05794
13.01703 11.65263 5.676456
12.32413 11.49991 2.112057
11.90534 10.68384 0.1948307
12.65074 10.26238 14.80892
11.2193 10.52243 0.284449
13.49156 10.83239 15.97016
13.37 10.19619 3.961895
12.48805 9.429772 10.99063
12.86668 9.919057 7.643225
13.60467 10.75736 1.641199
13.63928 11.35348 -0.746192
12.33264 9.835697 11.96991
13.26207 10.9454 8.612629
12.95575 11.72704 4.675478
12.21125 11.27618 1.392015
12.03532 10.83297 0.1380308
12.62875 10.11057 14.75758
10.87215 10.60257 -4.229286
13.46523 10.36149 3.284988
12.5299 9.398834 11.32084
12.42899 9.754327 9.704276
13.55908 10.60194 2.394921
13.56253 11.79283 -2.621247
12.39767 9.954617 11.40284
13.16261 10.59694 8.563252
13.07152 11.67518 4.63467
12.23643 11.29893 0.8480096
11.63108 10.51841 0.1334845
11.2553 10.41288 -2.236775
14.0503 11.37563 15.92922
11.99595 9.222755 11.85067
12.88398 10.07302 8.164016
13.57602 10.92192 2.662108
13.61529 11.41388 -0.5053287
12.52602 9.625992 11.71215
13.06905 10.48772 8.818568
13.15588 11.61181 4.850084
12.34103 11.49949 0.8339592
12.1413 10.89171 -1.177198
13.24326 10.92169 15.10363
11.40953 10.42289 -1.327984
13.36315 10.43278 5.075736
12.39593 9.85283 10.68844
13.5623 11.40585 0.5034131
13.50751 11.59694 -0.413172
12.32384 9.351818 12.2141
13.35522 11.28379 5.313681
12.29589 11.41131 0.5711373
11.83013 10.49698 -1.609183
11.40963 10.43772 -0.9488462
13.46825 10.64793 4.362535
13.16118 10.49028 7.867522
13.51108 11.32261 2.111172
13.52719 12.02869 -4.174027
13.30873 10.80565 7.156554
13.00506 11.78441 2.863057
12.23291 11.10308 -1.333839
11.73646 10.51075 -0.6802309
11.15556 10.40231 -4.266846
13.22724 10.44576 6.703458
13.43481 11.63744 0.1076557
13.39851 11.88462 -2.190512
13.36038 10.91012 6.267885
13.23009 11.62592 3.631265
12.41475 11.6008 -0.09851858
11.94875 10.4891 -2.644694
13.54329 8.769408 13.63886
13.29243 10.6986 6.941707
13.44985 11.46851 1.895126
13.33329 11.79438 -0.7014042
13.42555 11.18009 4.638293
12.58898 11.75563 1.3725
12.28355 11.20099 -1.86252
11.9202 10.43735 -3.055861
13.4862 10.98019 4.140161
13.43502 11.45086 2.370173
13.18588 12.04772 -3.103727
13.36571 11.48182 3.317139
12.42528 11.61207 -0.735027
12.24861 10.82327 -3.237696
13.37503 11.69319 0.2112962
13.15072 11.96065 -1.937814
13.06156 11.80912 1.845125
12.35759 11.39764 -2.391383
13.22546 11.73458 1.712098
13.01035 11.98564 -1.906523
12.84784 11.86832 0.6712372
12.3329 11.24963 -2.668856
13.08859 11.86399 0.4406332
13.04651 12.12241 -3.870612
12.67721 11.86562 -0.9623663
12.03392 10.48732 -3.710341
12.75326 11.95738 -2.650426
12.47489 11.68321 -2.359564
12.87778 11.90387 -0.1377763
12.64648 11.86913 -1.730795
11.99829 10.40129 -4.231443
12.42517 11.49168 -3.57722
12.47263 11.69217 -3.812921