####
#
# OBJ File Generated by Meshlab
#
####
# Object border.obj
#
# Vertices: 710
# Faces: 382
#
####
mtllib ./border.obj.mtl

vn -0.236213 -0.154219 1.341119
v 47.953896 1.467041 18.865250
vn -0.397943 -0.143284 1.280686
v 48.147099 1.467350 18.898779
vn -0.501988 -0.190229 1.695171
v 48.150211 1.429828 18.895548
vn -0.085195 -0.167462 1.389341
v 47.726482 1.468047 18.851778
vn -0.683695 -0.197038 1.618010
v 48.326004 1.435785 18.950838
vn -0.282816 -0.197680 1.711260
v 47.955151 1.429534 18.861158
vn -0.090446 -0.488861 2.868953
v 47.481483 1.469846 18.846239
vn -0.547630 -0.154081 1.251637
v 48.321457 1.473310 18.953468
vn -0.100534 -0.213954 1.712711
v 47.726791 1.430564 18.847279
vn -0.170759 -0.048205 0.350942
v 48.496571 1.451736 19.027430
vn -0.000277 -0.032488 0.230108
v 46.990410 1.436462 18.825069
vn 0.019361 -0.179423 1.414521
v 46.750069 1.475568 18.833319
vn -1.299267 -0.347073 2.244263
v 48.659874 1.496491 19.122299
vn 0.028813 -0.216115 1.702610
v 46.749336 1.438120 18.828579
vn 0.069591 -0.180777 1.414429
v 46.510914 1.476767 18.845249
vn -1.628312 -0.434542 2.809211
v 48.661758 1.459312 19.117640
vn 0.087822 -0.217021 1.697467
v 46.509983 1.439322 18.840509
vn 0.261176 -0.386073 2.896126
v 46.271446 1.477412 18.863779
vn -0.678579 -0.186394 1.098780
v 48.824238 1.476325 19.221659
vn -0.960291 -0.261523 1.554040
v 48.821434 1.440140 19.213789
vn 0.276982 -0.399021 3.102679
v 46.270386 1.439967 18.859058
vn 0.136708 -0.189680 1.483005
v 45.563545 1.476718 18.945189
vn 0.366360 -0.777937 3.018599
v 46.032452 1.440099 18.883169
vn 0.150958 -0.214312 1.620742
v 45.562473 1.439269 18.940498
vn -0.858811 -0.323723 1.539003
v 48.985180 1.391174 19.306608
vn -0.646229 -0.251944 1.172163
v 48.993805 1.425160 19.318668
vn 0.184328 -0.173124 1.413494
v 44.600174 1.475242 19.042509
vn 0.025105 -0.025679 0.207413
v 44.833069 1.438426 19.007629
vn 0.319703 -0.168221 1.384667
v 44.383808 1.473929 19.092129
vn 0.967303 -0.346545 2.585849
v 44.183548 1.471982 19.157898
vn -0.560786 -0.408260 1.221161
v 49.176975 1.339406 19.403479
vn -0.708751 -0.488283 1.513574
v 49.162563 1.309367 19.386818
vn 0.236277 -0.206324 1.685888
v 44.598785 1.437757 19.038099
vn 0.577923 -0.188305 1.210285
v 43.997879 1.469430 19.236609
vn -0.491790 -0.693616 1.167147
v 49.365311 1.217542 19.454109
vn 0.399461 -0.203353 1.659204
v 44.381958 1.436418 19.087999
vn 0.757094 -0.246442 1.605439
v 43.998207 1.432323 19.230679
vn -0.592649 -0.790274 1.393439
v 49.345982 1.195942 19.433128
vn 1.090189 -0.389973 2.909305
v 44.181980 1.434557 19.153469
vn 0.147144 -0.062418 0.296336
v 43.814888 1.410164 19.314768
vn -0.172416 -0.186073 0.178611
v 49.527824 1.052120 19.424278
vn -1.306968 -0.894112 0.751824
v 49.639156 0.907392 19.371389
vn 1.116807 -0.659941 2.293211
v 43.606159 1.380652 19.415049
vn -0.779279 0.510879 0.399221
v 42.741459 1.173707 19.225199
vn -2.472216 1.866514 -0.027205
v 42.730740 1.129710 19.260578
vn -0.086907 -0.099057 0.269967
v 42.730740 1.129710 19.260578
vn -0.948256 0.854031 -0.737348
v 42.717030 1.127956 19.276178
vn -3.100105 -1.770642 1.953258
v 49.617626 0.918909 19.347658
vn 1.417822 -0.831672 2.897370
v 43.616257 1.348533 19.400888
vn -1.579306 0.103584 1.522603
v 49.524937 0.837316 19.190680
vn 0.129308 -0.123743 0.223745
v 43.422470 1.251364 19.460678
vn 0.508130 -0.640517 0.650810
v 43.232727 1.130335 19.489708
vn -0.427688 -0.188562 0.896667
v 42.585709 0.986135 19.161209
vn -0.630771 -0.576059 1.687416
v 42.654469 0.974729 19.179159
vn -0.678912 0.058958 0.662487
v 49.538712 0.812017 19.207048
vn -1.210606 0.133897 1.338636
v 49.331734 0.788638 18.997019
vn -0.871115 0.097607 0.970127
v 49.336933 0.754342 19.005138
vn 0.862802 -0.681719 0.464621
v 43.166088 0.979031 19.417738
vn 1.091452 -1.311341 1.296187
v 43.253670 1.122585 19.465729
vn -0.171965 0.032093 0.190961
v 49.119995 0.754171 18.810358
vn 1.385418 -1.012973 0.765602
v 43.187130 0.989278 19.393698
vn -1.879433 0.474943 2.081726
v 48.915668 0.690474 18.640419
vn 2.075296 -0.038441 1.651136
v 43.286278 0.853901 19.239029
vn -1.098676 0.148064 1.311152
v 48.741344 0.704132 18.479919
vn 2.566222 0.049276 2.183398
v 43.300117 0.878517 19.222208
vn -0.901885 0.110293 1.084484
v 48.741306 0.666555 18.483709
vn 0.156299 0.016493 0.167288
v 43.503929 0.804084 19.016178
vn -0.961766 0.153045 1.449842
v 48.569576 0.687350 18.338779
vn -0.760088 0.124463 1.174892
v 48.568703 0.649735 18.342199
vn -0.642083 0.129981 1.248550
v 48.367901 0.644722 18.212978
vn 0.912038 0.106021 1.054376
v 43.710148 0.742317 18.844009
vn -0.805217 0.159713 1.531842
v 48.369591 0.682358 18.209929
vn -1.052191 0.008095 2.648920
v 47.910240 0.656325 18.001278
vn 1.088579 0.113084 1.262244
v 43.709820 0.779757 18.840528
vn -0.536752 0.128521 1.285766
v 47.668530 0.665097 17.908859
vn -0.122763 0.014266 0.269864
v 48.148045 0.685702 18.095648
vn 1.841662 -0.177971 2.259509
v 44.103939 0.752935 18.520418
vn -0.493465 0.148101 1.330120
v 47.428925 0.669986 17.808878
vn -0.666243 0.147199 1.602450
v 47.669571 0.702659 17.905539
vn 1.952930 -0.411454 2.437788
v 43.911129 0.782846 18.679928
vn -0.594269 0.174996 1.585230
v 47.431187 0.707520 17.805538
vn 0.174565 -0.000511 0.247334
v 44.291779 0.793787 18.370378
vn -0.092271 0.034856 0.324221
v 47.207783 0.710472 17.722328
vn -0.271256 0.132758 1.272443
v 47.006310 0.675953 17.682980
vn 0.747630 0.074077 1.219004
v 44.493668 0.745225 18.249508
vn -0.280140 0.247561 2.847299
v 46.635300 0.680524 17.630798
vn 0.161127 0.118300 1.440215
v 46.435913 0.680464 17.619219
vn -0.356159 0.176430 1.704917
v 47.010643 0.713474 17.679989
vn 0.848289 0.073349 1.397081
v 44.494736 0.782810 18.246569
vn 1.283851 -0.235040 2.565640
v 44.884415 0.692592 18.043308
vn -0.308785 0.269198 3.092817
v 46.637726 0.718107 17.627769
vn 0.157626 0.139466 1.692828
v 46.436901 0.718088 17.616018
vn 0.033249 0.019436 0.240109
v 46.212265 0.714820 17.641418
vn 0.624617 0.223860 2.834435
v 45.731079 0.670548 17.739698
vn 0.058410 0.439565 -0.114903
v 39.767170 1.145682 17.451469
vn 0.144647 -0.000616 0.317527
v 45.077011 0.705433 17.948109
vn -1.892684 1.388456 -0.760312
v 39.823708 1.132071 17.285870
vn 0.675495 0.241462 3.056611
v 45.730015 0.708197 17.736959
vn 0.087044 0.025337 0.303806
v 45.494110 0.705511 17.795019
vn 0.954442 0.226088 2.589751
v 45.278084 0.663320 17.869209
vn -0.727953 -0.115881 0.357194
v 38.982887 1.212327 18.094709
vn -0.515838 0.356077 -0.206234
v 39.814301 1.075018 17.205099
vn -2.041282 1.248290 -0.809037
v 39.857620 1.043007 17.046410
vn 1.568339 1.966816 -0.264097
v 39.754848 1.142284 17.352989
vn 0.422337 0.423209 -0.084918
v 39.814301 1.075018 17.205099
vn -0.462588 0.352181 -0.191417
v 39.848240 0.979007 16.971329
vn -1.614137 1.743381 -0.727886
v 39.897469 0.957312 16.810198
vn 1.091197 0.259239 2.969752
v 45.277809 0.700918 17.866028
vn -0.146453 0.575339 0.137222
v 39.005661 1.273453 17.862728
vn 1.886292 1.662216 -0.408830
v 39.802559 1.065415 17.111879
vn -0.548885 -0.619385 0.211245
v 39.024719 1.119313 17.930679
vn -0.511925 2.383270 0.540883
v 38.915909 1.226720 17.962879
vn 0.529637 0.286628 -0.029452
v 39.848240 0.979007 16.971329
vn -0.444786 0.480988 -0.209227
v 39.879070 0.908538 16.734179
vn -1.560937 1.691443 -0.785221
v 39.919659 0.873682 16.578409
vn -1.398842 -1.808996 0.468944
v 38.915909 1.226720 17.962879
vn -0.130813 1.650571 0.309557
v 38.939697 1.271287 17.735298
vn 0.576359 0.226153 -0.035908
v 39.879070 0.908538 16.734179
vn 2.335370 0.936116 0.025437
v 39.845970 0.987202 16.878149
vn -0.790570 -1.244362 0.198171
v 38.982578 1.158921 17.803118
vn -0.234413 2.019467 0.421884
v 38.788521 1.265851 17.700399
vn -0.423260 0.512303 -0.216212
v 39.891979 0.814889 16.506788
vn 2.352862 0.912179 -0.242101
v 39.870628 0.906851 16.645779
vn -1.302752 1.934010 -0.687408
v 39.938538 0.791277 16.352119
vn -1.189896 -2.208918 0.182834
v 38.788521 1.265851 17.700399
vn -0.146626 1.011604 0.228275
v 38.879459 1.299519 17.609610
vn 0.596196 0.118969 0.000765
v 39.891979 0.814889 16.506788
vn -0.271994 -0.538487 0.030265
v 38.931900 1.191942 17.673939
vn -0.417567 1.373029 0.360533
v 38.731720 1.287179 17.569399
vn -0.021792 0.391363 -0.118851
v 39.911129 0.746512 16.278118
vn -0.687765 -1.574462 0.081445
v 38.731720 1.287179 17.569399
vn 2.489599 0.273993 0.126562
v 39.895420 0.825311 16.416538
vn -0.303819 0.507988 0.168030
v 38.763329 1.374065 17.363878
vn 0.340503 0.182618 -0.042138
v 39.912090 0.658341 16.059889
vn -0.772377 2.102932 -0.608273
v 39.958328 0.631696 15.909059
vn -0.287710 -0.733676 0.035804
v 38.836601 1.238628 17.417309
vn -1.443780 0.367066 0.590693
v 38.681980 1.300352 17.439638
vn -0.291309 0.765485 -0.234862
v 39.917877 0.596614 15.839137
vn -0.821360 2.035533 -0.686389
v 39.946289 0.558719 15.692758
vn 0.657922 -0.121459 -0.001146
v 39.917877 0.596614 15.839137
vn 2.414997 -0.417796 0.180134
v 39.920879 0.672470 15.974828
vn -0.235606 0.746192 -0.228089
v 39.892750 0.514863 15.626767
vn 2.449495 -0.468220 -0.109578
v 39.915100 0.601176 15.757567
vn 0.559099 -0.354043 0.047776
v 39.892750 0.514863 15.626767
vn -0.379585 2.221151 -0.563349
v 39.925568 0.483612 15.481439
vn -0.098966 0.859993 -0.201897
v 39.876530 0.457822 15.412797
vn -0.068011 -0.000643 -1.383591
v 43.035679 2.211703 -0.671194
vn -0.088388 0.058937 -1.548603
v 42.633469 2.191947 -0.651594
vn 1.769652 -1.599855 0.292347
v 39.913670 0.522612 15.542539
vn -0.082608 2.234058 -0.465516
v 39.874451 0.428469 15.272298
vn 0.555195 -0.431452 -0.057774
v 39.876530 0.457822 15.412797
vn -0.073824 0.035206 -1.500574
v 42.827419 2.220767 -0.660671
vn -0.065453 0.001380 -1.618568
v 42.463398 2.116694 -0.645277
vn 0.170436 0.347858 -0.147637
v 39.791069 0.411229 15.204358
vn 1.965485 -1.390461 -0.495044
v 39.865459 0.471744 15.329738
vn -0.024509 -0.051634 -1.655405
v 42.321518 2.011834 -0.640209
vn -0.089628 0.059170 -1.579091
v 42.639210 2.180561 -0.652355
vn -0.080298 0.036874 -1.632222
v 42.829140 2.208648 -0.661040
vn -0.060073 0.027174 -1.267391
v 43.248669 2.173291 -0.681842
vn -0.062278 0.003895 -1.511234
v 42.472908 2.106809 -0.645670
vn -0.049128 0.059100 -1.203195
v 43.454720 2.107877 -0.693108
vn -0.086043 0.000448 -1.752486
v 43.033577 2.199497 -0.671085
vn -0.023787 -0.043291 -1.469383
v 42.334110 2.003805 -0.640145
vn -0.051979 0.057411 -1.208750
v 43.642120 2.017796 -0.705480
vn -0.026320 -0.045843 -1.617260
v 42.212139 1.894188 -0.634881
vn -0.088312 0.041758 -1.871348
v 43.243370 2.161530 -0.681843
vn -0.024442 -0.043082 -1.510376
v 42.226677 1.887958 -0.634941
vn -0.079220 0.095031 -1.936805
v 43.446907 2.096822 -0.693332
vn -0.041768 -0.035138 -1.540212
v 42.132317 1.766758 -0.629774
vn -0.086347 0.088381 -1.955427
v 43.632561 2.007436 -0.705561
vn -0.202707 -0.002727 -3.010590
v 43.819481 1.911839 -0.718060
vn -0.034818 -0.041928 -1.596297
v 42.095329 1.628861 -0.625625
vn -0.042009 -0.036901 -1.591681
v 42.147968 1.762049 -0.630091
vn -0.034235 -0.042439 -1.599538
v 42.079079 1.632547 -0.625375
vn -0.002696 0.001218 -0.062881
v 44.338070 1.559283 -0.752658
vn 0.026301 -0.060263 -1.416031
v 42.007858 1.356251 -0.616520
vn 0.033822 -0.072100 -1.667285
v 41.992050 1.360606 -0.617029
vn -0.024927 0.051380 -1.311801
v 44.718979 1.352279 -0.768004
vn -0.022625 -0.825521 0.208955
v 52.821556 -0.550138 12.949628
vn -0.090991 -1.069840 -0.148161
v 52.767536 -0.549056 12.640828
vn 0.056692 -0.099503 -1.828577
v 41.926201 1.233918 -0.613110
vn -0.026137 -0.073665 -1.394100
v 45.779377 0.978150 -0.785722
vn -0.197431 -1.959150 0.038043
v 52.788876 -0.556926 12.793278
vn -0.035186 0.071020 -1.855500
v 44.709251 1.341968 -0.768223
vn 0.039743 -0.070617 -1.320899
v 41.940849 1.227948 -0.612331
vn 0.003889 -0.030413 -1.881048
v 41.688980 1.030007 -0.607831
vn 0.029129 -0.077673 -1.889532
v 41.822819 1.122532 -0.609951
vn -0.022828 0.015148 -1.282452
v 44.915573 1.254987 -0.772923
vn -0.033687 -0.045133 -1.412024
v 45.555161 1.030792 -0.784081
vn -0.023262 -0.064713 -1.412613
v 46.009159 0.940657 -0.787693
vn -0.006194 -0.046862 -1.529378
v 46.477062 0.893927 -0.787928
vn 0.321631 -0.318660 -0.027954
v 52.970543 -0.517780 13.093597
vn -0.094085 -2.216446 0.491821
v 52.921146 -0.554457 12.943348
vn 0.295297 -0.357479 -0.079490
v 52.848946 -0.535863 12.495567
vn -0.180989 -2.013367 -0.226163
v 52.862427 -0.557290 12.642008
vn 0.006969 -0.026562 -1.823706
v 41.531761 0.959899 -0.607018
vn 0.020999 -0.053201 -1.262213
v 41.835499 1.114613 -0.609430
vn -0.041556 -0.057199 -1.753654
v 45.549583 1.018937 -0.783569
vn -0.032528 -0.091647 -1.741573
v 45.774956 0.966036 -0.784999
vn 0.005373 -0.025890 -1.589723
v 46.948746 0.882397 -0.785384
vn -0.431993 0.608543 -4.105849
v 53.553688 1.012499 16.181448
vn -0.324718 -3.231807 0.116923
v 52.881203 -0.566262 12.791637
vn -0.159271 -0.097843 -0.834657
v 38.422050 1.223920 16.341278
vn -0.178403 -0.634997 -1.647008
v 38.247879 1.284916 16.343559
vn -0.033252 0.021458 -1.856297
v 44.906754 1.244237 -0.772893
vn -0.027617 0.004884 -1.291523
v 45.122158 1.169937 -0.777780
vn 0.004923 -0.019399 -1.323395
v 41.539288 0.948829 -0.606828
vn 0.003767 -0.022651 -1.268892
v 41.699188 1.020241 -0.607652
vn 0.015873 -0.022496 -1.663488
v 47.418808 0.905206 -0.781184
vn -0.038972 0.005867 -1.819252
v 45.114338 1.158772 -0.777655
vn -0.027631 -0.077386 -1.698082
v 46.005829 0.928342 -0.787074
vn -0.006183 -0.050558 -1.634000
v 46.475632 0.881388 -0.787538
vn -0.342004 -0.585446 -3.295647
v 53.747993 1.267636 16.155369
vn -0.263889 0.151659 -0.994770
v 53.895493 0.852901 16.071768
vn 1.585947 0.870008 -0.666839
v 52.921146 -0.554457 12.943348
vn 1.027475 0.453999 -0.448625
v 52.893116 -0.494153 12.940178
vn 2.166667 2.210931 -0.435576
v 52.881203 -0.566262 12.791637
vn 1.585437 1.618493 -0.322206
v 52.833145 -0.517318 12.801018
vn 1.658637 1.230239 -0.008909
v 52.862427 -0.557290 12.642008
vn 0.890818 0.610273 0.007288
v 52.824703 -0.502421 12.658498
vn -0.642161 -0.071079 -1.231448
v 38.868149 1.246835 16.219679
vn -0.432241 -0.136831 -1.231554
v 38.661610 1.217697 16.296259
vn 0.007838 -0.024128 -1.407326
v 41.363411 0.899593 -0.606783
vn 0.009834 -0.030014 -1.736748
v 41.358597 0.911498 -0.607016
vn 0.029586 -0.028577 -1.664324
v 47.650604 0.929994 -0.777552
vn 0.014276 -0.123751 -3.092188
v 46.712074 0.870062 -0.785983
vn -0.000859 0.152937 -1.893177
v 49.059654 1.494843 -0.729111
vn -0.294171 -0.544916 -1.887842
v 53.967007 1.338637 16.113489
vn -0.013509 -0.007144 -0.186251
v 53.576969 1.146128 16.182838
vn -0.025370 0.029270 -0.135120
v 53.671963 0.917921 16.140978
vn -0.185671 0.358788 -0.876886
v 54.088196 0.756063 15.994798
vn 0.004371 -0.655506 -1.384172
v 54.326454 1.551745 15.997308
vn -0.423700 -0.272312 -2.237075
v 38.429787 1.233761 16.338648
vn -0.590355 -0.189151 -1.700257
v 38.661911 1.231318 16.294640
vn -0.547974 -0.390469 -1.334095
v 38.337631 1.571213 16.209318
vn 0.499922 0.489736 0.006580
v 39.541168 0.167220 14.167638
vn 0.005424 -0.024362 -1.574964
v 46.949013 0.869811 -0.785188
vn 0.014809 -0.020553 -1.505212
v 47.420925 0.892724 -0.780995
vn 0.026717 -0.000773 -1.699214
v 47.878551 0.969305 -0.773773
vn 0.025786 0.035655 -1.742857
v 48.101643 1.022379 -0.769129
vn 0.015118 0.111609 -1.816591
v 48.718594 1.268699 -0.747508
vn 0.014060 0.137406 -1.808983
v 49.209198 1.617203 -0.718797
vn -0.157017 -0.584768 -1.596518
v 54.182201 1.413870 16.059799
vn -0.185144 0.233898 -1.849536
v 53.536781 1.008526 16.182638
vn -0.168292 -0.310106 -1.091050
v 53.953979 1.350070 16.112219
vn -0.241802 -0.431947 -2.731782
v 53.735165 1.277663 16.154919
vn -0.529601 0.320040 -2.007415
v 53.883873 0.841865 16.073168
vn -0.061454 0.030694 -0.114928
v 39.051670 1.284252 16.121819
vn -0.795770 -0.092145 -1.544407
v 38.867821 1.261770 16.218988
vn -0.460825 -1.486778 -4.059488
v 38.263107 1.289018 16.340328
vn -0.040547 -0.062753 -0.174434
v 38.253571 1.417007 16.288979
vn -0.647740 -0.162485 -1.277462
v 38.494968 1.679982 16.118488
vn 0.569457 -0.353072 0.222508
v 39.510048 0.238822 14.296798
vn 0.012493 0.006271 -1.644037
v 41.176918 0.884094 -0.607315
vn 0.011259 0.004283 -1.498944
v 41.179169 0.871745 -0.607345
vn 0.026146 -0.024443 -1.477175
v 47.653816 0.917653 -0.777283
vn 0.035278 0.051075 -1.791639
v 48.318863 1.088460 -0.762902
vn 0.010435 0.079927 -1.290096
v 48.728706 1.258654 -0.748041
vn 0.000046 0.103039 -1.280048
v 49.071869 1.486135 -0.729820
vn -0.134217 -0.480842 -1.326599
v 54.167339 1.422936 16.057940
vn -0.407901 0.832551 -1.982591
v 54.073860 0.747911 15.994498
vn 0.201929 0.731508 -0.946379
v 54.255440 0.493997 15.808467
vn 0.189189 -0.616519 -1.094600
v 54.384369 1.715198 15.922988
vn -0.003504 -0.676406 -1.446320
v 54.309158 1.555855 15.995307
vn -0.368986 0.623170 -0.792819
v 39.033878 1.679501 15.797408
vn -1.365390 1.620013 -2.501134
v 39.207268 1.247254 16.012049
vn -0.606085 -0.417022 -1.460695
v 38.350128 1.561670 16.206978
vn -1.385322 0.264809 -2.336424
v 38.681488 1.736935 16.019178
vn 1.180201 -0.027397 0.916377
v 39.599327 0.110116 13.999087
vn 0.000000 0.000000 0.000000
v 39.599327 0.110116 13.999087
vn 1.802871 1.496515 0.087371
v 39.534840 0.174175 14.130768
vn 0.053584 -0.006759 0.045803
v 39.705780 0.055546 13.866498
vn 0.021954 0.009743 -1.516404
v 40.991600 0.876449 -0.608716
vn 0.022638 0.000518 -1.443094
v 47.883034 0.957192 -0.773697
vn 0.020981 0.029084 -1.399061
v 48.107517 1.010603 -0.769283
vn 0.036656 0.068974 -1.819436
v 48.525944 1.169812 -0.755543
vn 0.025899 0.051629 -1.322641
v 48.534718 1.159082 -0.755773
vn 0.010059 0.096179 -1.268120
v 49.222130 1.609047 -0.719316
vn 0.030823 0.121459 -1.759506
v 49.716221 2.118975 -0.675460
vn 1.539073 -0.331029 -2.273498
v 54.074127 2.071414 15.620439
vn -0.011828 0.573354 -0.753250
v 54.222168 0.636488 15.907357
vn 0.899735 1.395817 -1.971400
v 54.208202 0.359011 15.700017
vn 0.264113 -0.901586 -1.614779
v 54.366249 1.713295 15.920928
vn -0.311609 0.767249 -0.888746
v 39.151939 1.590189 15.681258
vn -1.187737 1.410297 -2.184793
v 39.217609 1.257898 16.013298
vn -0.763613 -0.177421 -1.497457
v 38.501789 1.666942 16.116688
vn 1.451574 -1.902237 1.524758
v 39.532547 0.250015 14.256978
vn 0.023079 0.010272 -1.625771
v 40.990990 0.864127 -0.608804
vn 0.026618 0.039061 -1.350452
v 48.326199 1.077149 -0.763080
vn 0.395329 -0.485267 -0.996293
v 54.340546 1.867158 15.833777
vn -0.009625 1.344132 -1.764646
v 54.204197 0.633675 15.905498
vn 0.336833 1.152240 -1.499431
v 54.237183 0.496774 15.806718
vn 0.647412 -0.824779 -1.679941
v 54.325424 1.859725 15.831397
vn -0.059363 0.049595 -0.111411
v 38.861557 1.720084 15.909507
vn -0.709084 1.216198 -1.540529
v 39.020370 1.669200 15.795598
vn -0.246924 0.890083 -0.980638
v 39.331497 1.182099 15.896768
vn -0.342582 1.157727 -1.292895
v 39.348068 1.188612 15.898507
vn -1.737038 0.332372 -2.932704
v 38.681339 1.723018 16.017689
vn 0.073307 0.222171 -0.060050
v 39.545048 0.176945 14.129208
vn 1.828074 1.584170 0.600328
v 39.603867 0.121381 13.995438
vn -1.121602 1.334035 -2.293214
v 39.764351 1.143999 15.098578
vn -0.025948 -0.059428 0.062011
v 39.628479 0.330466 14.374218
vn 0.020669 -0.075067 -1.393909
v 40.807510 0.887324 -0.612018
vn 0.025761 -0.089694 -1.738882
v 40.803280 0.875575 -0.611448
vn 0.026634 0.097780 -1.437255
v 49.728989 2.110708 -0.675807
vn 0.059990 0.089419 -1.721181
v 49.853474 2.227108 -0.665421
vn 0.868203 0.079149 -1.168497
v 53.902943 2.106286 15.502038
vn 0.068778 -0.042742 -0.130609
v 54.216408 1.979630 15.729737
vn 0.292332 0.983532 -1.050694
v 53.424976 1.825957 15.003928
vn 0.874007 0.585192 -1.231381
v 53.732849 2.094825 15.380227
vn 0.164509 1.035974 -1.090633
v 53.385876 1.571115 14.757068
vn 0.237957 1.124506 -1.119713
v 53.357197 1.451112 14.637828
vn 1.232620 1.914264 -2.687653
v 54.193367 0.366866 15.698808
vn -0.037212 0.017294 -1.260700
v 42.978531 0.800028 -1.099244
vn -0.480021 1.175060 -1.364584
v 39.135639 1.581426 15.679408
vn -0.510804 0.615038 -1.011739
v 39.479607 1.302944 15.328637
vn -0.090132 0.992633 -1.052073
v 39.406078 1.079425 15.781478
vn 0.034110 -1.795540 1.470599
v 39.547447 0.244103 14.257547
vn 0.000000 0.000000 0.000000
v 39.547447 0.244103 14.257547
vn -0.057817 1.784981 -1.901714
v 39.992779 0.805885 14.750428
vn -0.009974 -0.180906 -1.741903
v 40.631268 0.917493 -0.616256
vn 0.049624 0.072114 -1.409246
v 49.865093 2.218004 -0.665489
vn 0.069664 0.064199 -1.688213
v 50.003937 2.322680 -0.655779
vn 1.000672 0.079186 -1.351733
v 53.903454 2.092118 15.501458
vn 1.877845 -0.403978 -2.773139
v 54.068928 2.057489 15.618947
vn 0.729503 1.744544 -1.916453
v 53.485268 1.945108 15.129958
vn 1.405274 -1.281243 -2.037799
v 53.650936 0.266974 15.201798
vn 0.685999 -1.922349 -1.916454
v 53.431683 0.442894 14.943587
vn 0.079634 0.038497 -0.115186
v 54.093330 0.273607 15.582398
vn -0.016264 0.049357 -1.279666
v 43.124588 0.709668 -1.105215
vn -0.051568 -0.016655 -1.305860
v 42.816231 0.872977 -1.093401
vn -0.980555 1.732756 -2.350027
v 39.234207 1.478132 15.562118
vn -0.044574 0.059151 -0.092336
v 39.342918 1.380685 15.444907
vn 0.641040 1.023848 -1.274605
v 39.344608 0.744601 15.421937
vn 0.678433 2.148420 -2.244710
v 39.409489 0.847940 15.544717
vn -0.116457 1.147220 -1.218673
v 39.425430 1.082294 15.782527
vn 0.441080 2.771555 -1.053668
v 39.572411 0.123357 13.964348
vn 0.635425 0.506772 -0.244510
v 39.539478 0.183131 14.096118
vn -0.249596 -2.483673 -0.535473
v 40.516327 -0.015756 12.651447
vn -0.019163 -0.135495 -1.374133
v 40.320328 1.242576 -0.646513
vn -0.714522 0.860082 -1.416478
v 39.466198 1.291694 15.328568
vn -0.047320 0.107388 -0.141748
v 39.872597 1.037272 14.982938
vn -0.143258 0.758976 -0.815489
v 39.972908 0.930838 14.866258
vn -0.009030 -0.145383 -1.372426
v 40.639309 0.928029 -0.617425
vn 0.423234 0.087186 -0.716060
v 52.633072 0.158577 12.715208
vn 0.043280 0.057057 -1.060304
v 51.018841 2.261817 -0.627559
vn 0.025435 0.015237 -1.217064
v 50.713394 2.420883 -0.630986
vn 0.029736 0.038745 -1.087497
v 50.881950 2.355819 -0.628396
vn 0.042741 0.092392 -1.587030
v 50.166344 2.401707 -0.646461
vn 0.822120 0.526589 -1.155678
v 53.740471 2.082326 15.379697
vn 0.349940 1.150211 -1.232705
v 53.444019 1.821065 15.004647
vn 0.066697 0.089589 -0.123476
v 53.600159 2.030226 15.255347
vn 0.223180 1.074504 -1.074455
v 53.376301 1.446462 14.637218
vn 0.175361 1.072211 -1.129354
v 53.405716 1.567975 14.757078
vn 0.062801 0.118828 -0.142593
v 53.320644 1.340393 14.518867
vn 0.885458 -0.178633 -0.906963
v 53.956707 0.211906 15.461167
vn 0.736126 -0.419168 -0.888409
v 53.800312 0.217962 15.332648
vn 0.005314 0.054812 -1.153802
v 43.698589 0.107307 -1.133821
vn -0.030594 0.104056 -2.929374
v 43.572441 0.226783 -1.128282
vn -0.046299 -0.004060 -1.392274
v 42.645340 0.929223 -1.088039
vn -0.024823 0.069457 -1.850674
v 43.136478 0.718538 -1.105024
vn -0.056033 0.023797 -1.873963
v 42.988529 0.810023 -1.099402
vn 0.746585 0.943762 -1.331786
v 39.242638 0.654682 15.296588
vn 0.016477 0.152330 -0.160127
v 39.451328 0.959994 15.664918
vn 1.469177 -1.444957 0.473236
v 39.567657 0.253448 14.223338
vn -0.106466 -1.395499 -0.185512
v 40.339790 -0.020010 12.740997
vn -0.259880 -1.413829 -0.216640
v 40.257561 -0.029764 12.875928
vn -0.529769 -1.605830 -0.415127
v 40.200981 -0.041703 13.040398
vn -1.612284 -2.418968 -1.061827
v 39.982300 -0.052515 13.391868
vn 0.002522 -0.121358 -1.340972
v 40.395187 1.119258 -0.634928
vn -0.052172 -0.167388 -1.493513
v 40.271618 1.374882 -0.659263
vn -1.272741 1.513428 -2.608082
v 39.750427 1.133444 15.099248
vn 0.351300 0.968484 -1.225344
v 39.884628 0.563567 14.527088
vn 0.021062 0.141893 -0.164699
v 39.940540 0.683586 14.637978
vn -0.247518 1.376372 -1.477605
v 39.953827 0.927418 14.866427
vn -0.010817 -0.133352 -1.346676
v 40.501690 1.009875 -0.625147
vn -0.014097 -0.175747 -1.769285
v 40.490200 1.001284 -0.624204
vn 0.058497 0.056368 -1.443181
v 50.013664 2.312572 -0.655762
vn -0.105354 -0.474244 -0.171444
v 52.424709 0.205534 12.713358
vn 0.028222 0.039287 -1.187776
v 51.109020 2.141366 -0.629778
vn 0.030201 0.116707 -1.477169
v 50.341003 2.450290 -0.638775
vn 0.036498 0.062398 -1.374600
v 50.528217 2.454529 -0.634032
vn 0.922189 2.205572 -2.405513
v 53.502708 1.937924 15.130057
vn 1.720877 1.392634 -2.353003
v 53.218208 1.270388 14.400167
vn 1.142135 -0.663415 -1.387639
v 53.807014 0.231705 15.331717
vn 0.066672 -0.105527 -0.128222
v 53.542889 0.355284 15.071847
vn 0.304458 -0.983170 -0.961218
v 53.233013 0.756025 14.560878
vn 1.282790 -0.274902 -1.321946
v 53.957680 0.225665 15.459407
vn 0.053758 0.063676 -1.641842
v 49.668488 0.471636 -1.130661
vn 0.102096 0.150006 -2.952045
v 50.130268 0.749906 -1.102524
vn 0.008626 0.057622 -1.169440
v 43.846638 -0.002899 -1.138421
vn -0.001434 0.004446 -0.116819
v 43.260029 0.609006 -1.110819
vn -0.069035 -0.254076 -3.046567
v 42.096329 0.963163 -1.070541
vn -0.048368 -0.010640 -1.505116
v 42.283108 0.972458 -1.076496
vn -0.071858 -0.022662 -1.830720
v 42.823990 0.884001 -1.093848
vn -0.043071 0.017096 -1.465333
v 42.467201 0.963978 -1.082590
vn 0.493263 0.823186 -1.010691
v 39.360481 0.735772 15.422828
vn 0.576330 0.740214 -1.035246
v 39.257290 0.644206 15.297378
vn -1.287252 -0.147623 -0.868289
v 39.625908 0.053438 13.808858
vn -1.364575 1.450058 -0.857283
v 39.536289 0.114105 13.936988
vn 1.695308 1.553671 -0.737160
v 39.523670 0.186567 14.064618
vn -1.205467 -0.502870 -0.991056
v 39.750278 0.004684 13.677948
vn -0.015717 -0.184484 -0.055581
v 40.646290 -0.030820 12.655997
vn -0.127295 -1.660323 -0.224387
v 40.351959 -0.022010 12.749058
vn -0.120506 -1.692832 -0.598335
v 40.632069 -0.071222 12.773168
vn -1.190872 -1.014720 -0.807527
v 39.867168 -0.032042 13.541978
vn -0.057008 -0.188913 -1.698976
v 40.255199 1.372005 -0.658367
vn -0.022684 -0.171060 -1.743263
v 40.304630 1.238194 -0.645862
vn 0.995510 1.448248 -2.273699
v 39.782707 0.456360 14.417858
vn -0.076404 2.358645 -2.513037
v 39.972939 0.806051 14.751187
vn 0.362732 0.937225 -1.207169
v 39.867249 0.570439 14.527537
vn 1.011939 -3.146239 -0.012502
v 52.529709 0.201726 12.659368
vn 0.754045 0.768889 -0.801640
v 52.529709 0.201726 12.659368
vn 0.057476 0.074939 -2.062340
v 50.872280 2.346063 -0.629008
vn 0.083756 0.110592 -2.093683
v 51.006039 2.254134 -0.628495
vn -0.008042 0.039868 -1.340326
v 51.316803 1.603791 -0.646033
vn 0.046435 0.077879 -1.762696
v 50.526943 2.442497 -0.634612
vn 0.040730 0.025728 -1.927654
v 50.707653 2.409539 -0.631248
vn 0.041123 0.091304 -1.543645
v 50.173191 2.390535 -0.646927
vn 0.014177 0.106523 -0.022118
v 53.068459 1.232024 14.309018
vn 1.541225 1.247506 -2.100311
v 53.227646 1.259403 14.400568
vn 1.681590 -1.533168 -2.437974
v 53.661903 0.279114 15.201728
vn 0.803969 -2.252699 -2.243660
v 53.449360 0.449890 14.942897
vn 0.037968 -0.111410 -0.110587
v 53.380703 0.552609 14.815719
vn 0.342100 -0.910315 -0.909185
v 53.152313 0.853319 14.431868
vn 0.037394 0.111192 -1.701890
v 49.840588 0.554042 -1.122205
vn 0.064450 0.017180 -1.574170
v 49.479889 0.411257 -1.138671
vn 0.056226 0.093041 -1.798453
v 50.503277 1.074040 -1.073199
vn -0.019334 0.012318 -1.213312
v 44.023708 -0.101731 -1.141381
vn 0.014379 0.097323 -1.977890
v 43.857349 0.006599 -1.137874
vn 0.007996 0.093490 -1.991909
v 43.711140 0.115689 -1.133365
vn -0.032913 0.113348 -3.235452
v 43.586018 0.234322 -1.128156
vn -0.057795 -0.004097 -1.745902
v 42.650681 0.941016 -1.088251
vn 0.313030 1.036629 -1.110174
v 38.820221 0.276914 14.795197
vn 0.748031 1.797797 -2.014881
v 38.900230 0.385049 14.917188
vn 0.615891 1.950415 -2.037241
v 39.427418 0.842760 15.545178
vn 0.044104 0.084488 -0.099864
v 39.020779 0.471927 15.042708
vn 0.915717 2.216036 -2.198208
v 39.572960 0.268692 14.188568
vn -0.290239 -1.633653 -0.248427
v 40.274250 -0.033702 12.881608
vn -0.346749 -3.515803 -0.758570
v 40.517120 -0.017800 12.660558
vn -0.256073 -1.666318 -0.655874
v 40.517788 -0.123907 12.948487
vn -0.417584 -1.310635 -0.328150
v 40.217937 -0.048243 13.044058
vn -0.065650 -0.141009 -0.048903
v 40.116989 -0.060999 13.222228
vn -0.924886 -0.816148 -0.624488
v 39.874619 -0.044296 13.546388
vn 0.002450 -0.161348 -1.774430
v 40.381008 1.112875 -0.634377
vn 0.004354 -0.220092 -1.799218
v 40.169067 1.782758 -0.701394
vn 2.634252 -1.536666 1.117272
v 52.547894 0.286597 12.757877
vn -0.013600 -0.229440 0.005277
v 52.382298 0.213966 12.687608
vn 0.829672 -1.311219 0.423186
v 52.535942 0.203994 12.649998
vn -0.025173 0.031246 -1.422534
v 51.256245 1.734825 -0.641991
vn 0.043312 0.062069 -1.889370
v 51.094151 2.135812 -0.630315
vn -0.004348 0.043495 -1.318156
v 51.398228 1.480885 -0.650299
vn 0.034126 0.128161 -1.649763
v 50.344131 2.438355 -0.639654
vn 0.177575 3.072353 -0.651600
v 52.753044 1.223971 14.068058
vn -0.000089 0.146412 -0.031557
v 52.588047 1.198472 13.950218
vn 0.910665 0.072422 -1.165798
v 53.102386 1.210025 14.281728
vn 0.389107 -1.241711 -1.215450
v 53.251293 0.762595 14.559948
vn 0.074990 -0.025965 -1.692058
v 50.980591 1.265072 -1.046681
vn 0.051084 0.041977 -1.454575
v 49.065636 0.382709 -1.154506
vn 0.032058 0.091180 -1.424339
v 49.830818 0.564200 -1.121756
vn 0.049343 0.055981 -1.490587
v 49.661022 0.482735 -1.130475
vn 0.057781 0.027596 -1.532851
v 49.277809 0.383942 -1.146880
vn 0.040819 0.067238 -1.300535
v 50.491978 1.083323 -1.073072
vn 0.006415 0.012025 -0.214167
v 49.981853 0.656761 -1.112390
vn 0.027728 0.011447 -1.402594
v 47.520264 0.757072 -1.189683
vn -0.029277 0.022219 -1.933979
v 44.031517 -0.090952 -1.141396
vn -0.051332 -0.014561 -1.609671
v 42.283661 0.984939 -1.076602
vn -0.049367 0.018271 -1.673312
v 42.470070 0.976263 -1.082531
vn -0.049251 0.058875 -1.580609
v 41.350258 0.874772 -1.051454
vn -1.290180 -0.165056 -0.878607
v 39.624500 0.039371 13.813337
vn -1.307304 0.435237 -0.422414
v 39.531097 0.103014 13.940988
vn -0.077585 0.027851 -0.023483
v 39.523670 0.186567 14.064618
vn 0.805722 1.959196 -1.859228
v 39.557701 0.274303 14.187868
vn -1.101449 -0.482811 -0.897813
v 39.752541 -0.009097 13.682188
vn -0.093159 -1.222170 -0.434976
v 40.616009 -0.070821 12.775268
vn -1.567435 -2.363258 -1.059110
v 39.994751 -0.062754 13.396288
vn 0.004060 -0.153010 -1.248502
v 40.185139 1.786432 -0.701792
vn 0.068242 0.121163 -0.166167
v 39.652969 0.367475 14.304438
vn 1.777035 -1.690180 1.325448
v 52.559502 0.293010 12.750628
vn 0.438183 1.003429 -1.271051
v 52.309948 1.084332 13.686357
vn 0.220229 1.059759 -1.168644
v 52.191811 0.983589 13.569478
vn -0.030377 0.040133 -1.788577
v 51.240112 1.730933 -0.641791
vn -0.010480 0.053644 -1.792343
v 51.301323 1.598786 -0.646089
vn 1.024163 0.045446 -1.305673
v 53.099689 1.223974 14.280098
vn 0.398628 -0.885108 -0.915653
v 53.055058 0.941037 14.303448
vn 0.578178 -0.810965 -0.952094
v 52.944820 1.008607 14.175198
vn 0.064317 -0.008182 -1.581097
v 51.163177 1.282809 -1.038989
vn 0.075421 0.037296 -1.807061
v 50.804222 1.225641 -1.055300
vn 0.063710 0.017476 -1.561015
v 49.475128 0.423162 -1.138736
vn 0.040018 0.072090 -1.292227
v 50.633038 1.172934 -1.064026
vn 0.057330 0.103874 -1.852502
v 50.642357 1.162601 -1.064317
vn 0.022684 -0.000026 -1.465415
v 47.276955 0.798362 -1.193332
vn 0.033758 -0.017471 -1.318000
v 48.628429 0.437217 -1.166558
vn -0.070788 -0.101272 -2.846172
v 44.444321 -0.189553 -1.150212
vn -0.002539 -0.001383 -0.115901
v 44.228878 -0.158436 -1.145226
vn -0.082112 -0.118218 -3.321985
v 44.444679 -0.177325 -1.150656
vn -0.001643 -0.002641 -0.064094
v 41.907761 0.957071 -1.065760
vn 0.040631 -0.128892 -1.744087
v 45.314163 0.091603 -1.173187
vn -0.020033 -0.039914 -1.556256
v 44.674171 -0.167500 -1.155990
vn 0.141111 1.019119 -1.011068
v 38.772850 0.160038 14.675598
vn 0.326015 1.054213 -1.133779
v 38.839050 0.271572 14.795518
vn -0.461494 -1.455991 -0.793424
v 40.390877 -0.168028 13.097298
vn -0.200648 -1.226960 -0.494148
v 40.500999 -0.119993 12.945098
vn 0.060106 -0.217446 -2.011995
v 40.110001 1.911124 -0.717318
vn -0.209413 -2.797433 0.099962
v 52.491402 0.206223 12.632128
vn -0.373327 0.831799 -0.816773
v 52.254295 0.310798 12.795888
vn -1.138719 1.817271 -1.817140
v 52.211349 0.401009 12.913578
vn 0.130177 0.122707 -0.055721
v 52.522526 0.409797 12.921428
vn 0.615396 1.191527 -1.348101
v 52.533409 0.202004 12.648084
vn 1.260787 2.035466 -1.533919
v 52.559502 0.293010 12.750628
vn -0.994646 1.813054 -1.636896
v 52.097061 0.739025 13.329688
vn 1.118669 1.475329 -2.124778
v 52.457378 1.158844 13.804088
vn -0.008056 0.058093 -1.811212
v 51.384048 1.474285 -0.650470
vn -0.034695 0.019358 -1.324472
v 51.505123 1.369914 -0.655167
vn 2.271312 2.627396 -3.285434
v 52.784950 1.213917 14.040088
vn 0.397778 2.679551 -1.008459
v 52.776993 1.219372 14.046653
vn 0.013129 0.048928 -0.024743
v 52.618168 1.198831 13.921758
vn 0.086940 -0.002046 -0.114723
v 52.949963 1.198788 14.161777
vn 0.467823 -1.232218 -1.232967
v 53.169563 0.861100 14.430568
vn 2.125479 -0.535719 -2.364147
v 52.825161 1.045460 14.046738
vn 0.063633 -0.008745 -1.558275
v 51.162663 1.295194 -1.039074
vn 0.064011 -0.019733 -1.448368
v 50.977036 1.277157 -1.047024
vn 0.060275 0.029501 -1.603059
v 49.275818 0.396276 -1.146733
vn 0.041750 0.012318 -1.369360
v 48.846771 0.400577 -1.160768
vn 0.006214 -0.004885 -1.802357
v 46.276688 0.717964 -1.199647
vn 0.128534 0.212109 -3.003884
v 48.417824 0.492300 -1.172772
vn 0.002342 0.002583 -0.082897
v 47.761078 0.713124 -1.185281
vn 0.034114 0.013758 -1.736611
v 47.524666 0.769200 -1.189497
vn 0.015682 0.027276 -1.569552
v 47.023560 0.823753 -1.195622
vn -0.020834 -0.041150 -1.583730
v 44.670769 -0.155460 -1.156255
vn -0.048924 0.058840 -1.568032
v 41.348278 0.887264 -1.050927
vn 0.020144 -0.153091 -1.676113
v 45.123928 -0.024972 -1.164786
vn -0.001999 -0.096228 -1.661477
v 44.905651 -0.111990 -1.159951
vn 0.178098 1.195965 -1.192545
v 38.792019 0.157860 14.676078
vn 0.879297 2.113007 -2.351674
v 38.917747 0.377626 14.917068
vn 0.035332 -0.120629 -1.124863
v 40.124977 1.916676 -0.717443
vn -0.475760 0.412618 -0.939287
v 52.351654 0.230179 12.672638
vn 1.467493 2.356423 -2.063301
v 52.520393 0.302253 12.730748
vn -0.678936 0.770078 -0.840925
v 52.132111 0.616644 13.184278
vn 0.388719 0.860858 -1.101028
v 52.325405 1.075202 13.684478
vn 0.224337 1.017652 -1.131422
v 52.209187 0.977938 13.567628
vn -0.023296 0.138810 -0.136070
v 52.136520 0.864889 13.451418
vn 0.546274 -1.184210 -1.231952
v 53.070759 0.950198 14.301428
vn 0.749475 -1.000006 -1.209394
v 52.956318 1.019223 14.173138
vn 0.069120 0.017462 -1.631138
v 51.348602 1.288395 -1.031475
vn 0.063921 0.017138 -1.505875
v 51.346325 1.276063 -1.031712
vn 0.055002 0.030275 -1.337323
v 50.797611 1.236975 -1.055342
vn 0.058797 0.047400 -1.681714
v 49.066250 0.395164 -1.154125
vn 0.010214 0.028514 -1.735413
v 46.517040 0.786098 -1.199221
vn -0.020063 -0.006639 -1.844633
v 46.051788 0.623749 -1.196953
vn 0.025642 0.000816 -1.673712
v 47.279747 0.810711 -1.193289
vn 0.009820 0.052818 -1.666886
v 46.767708 0.823059 -1.197327
vn 0.053706 0.014660 -1.770580
v 48.849594 0.412909 -1.160571
vn 0.049346 -0.016585 -1.861863
v 48.633003 0.449299 -1.166601
vn -0.049108 0.074609 -1.482858
v 40.971760 0.854485 -1.040107
vn -0.034886 -0.008288 -1.843969
v 45.845879 0.506616 -1.192596
vn 0.032593 -0.106702 -1.429154
v 45.303108 0.101027 -1.174141
vn -0.002393 -0.083531 -1.471949
v 44.899014 -0.100681 -1.160598
vn -0.028338 0.145786 -0.152605
v 38.784008 0.040581 14.556747
vn -0.392283 -1.184714 -0.663836
v 40.375969 -0.160529 13.092208
vn -1.184122 -1.949286 -1.698545
v 40.247780 -0.198554 13.226778
vn 0.040615 -0.109827 -1.088357
v 40.026047 2.033753 -0.732980
vn 0.075843 -0.207208 -2.047416
v 40.012848 2.026226 -0.732713
vn -0.341120 -2.359736 0.218688
v 52.443974 0.212004 12.620527
vn -0.602691 1.312752 -1.291897
v 52.269836 0.318430 12.796557
vn -0.693296 1.060386 -1.509318
v 52.360546 0.240280 12.675508
vn -0.221225 1.010811 -1.700168
v 52.443974 0.212004 12.620527
vn -0.915931 1.061400 -1.150136
v 52.147385 0.624944 13.179547
vn -0.091742 0.125040 -0.128539
v 52.198265 0.511473 13.034557
vn 1.338257 1.752337 -2.461530
v 52.468975 1.147487 13.802308
vn 0.074649 0.036536 -0.111576
v 52.623676 1.185598 13.921457
vn -0.048767 0.024377 -1.806365
v 51.493107 1.361446 -0.654976
vn -0.059016 -0.013678 -1.342715
v 51.638927 1.280540 -0.660561
vn 1.929694 -0.486324 -2.145129
v 52.827686 1.057508 14.046278
vn 0.099832 -0.048140 -3.026681
v 51.869087 1.132963 -1.010741
vn 0.054370 -0.005634 -1.418696
v 51.524368 1.242047 -1.024338
vn 0.008161 0.022148 -1.407844
v 46.512527 0.798061 -1.199051
vn 0.003847 -0.003687 -1.342339
v 46.269619 0.729265 -1.199702
vn 0.015499 0.027991 -1.570998
v 47.024204 0.836215 -1.195399
vn -0.054266 0.083783 -1.641883
v 40.971760 0.867046 -1.039475
vn -0.022937 -0.007130 -1.259632
v 45.834984 0.516210 -1.192433
vn 0.016638 -0.130217 -1.446244
v 45.114697 -0.014636 -1.165841
vn 0.111863 -0.141658 -2.023230
v 39.884789 2.124829 -0.747442
vn -0.800162 0.721888 -1.665593
v 52.443851 0.222060 12.624688
vn -1.314417 2.097487 -2.098232
v 52.227413 0.409065 12.911568
vn -0.516941 2.086203 -1.777626
v 52.467892 0.310264 12.718138
vn -1.302240 2.374112 -2.142624
v 52.113796 0.744432 13.325508
vn 1.906494 -0.182825 -2.579210
v 52.785385 1.199408 14.041438
vn 0.079204 0.033069 -0.111762
v 52.688122 1.057472 13.923287
vn 0.772026 0.941087 -1.344480
v 52.552807 0.999714 13.805158
vn 0.066166 -0.005782 -1.719158
v 51.528980 1.254071 -1.024209
vn 0.008685 0.045959 -1.474152
v 46.765858 0.835427 -1.196946
vn -0.014619 -0.004734 -1.300770
v 46.042542 0.634185 -1.196890
vn -0.038921 0.143113 -1.381067
v 40.404747 0.890878 -1.021026
vn -0.980552 1.596440 -1.867625
v 38.804741 -0.078882 14.438268
vn -1.362019 -2.247515 -1.967162
v 40.236320 -0.187863 13.222498
vn -1.830455 -0.638213 -2.508230
v 39.920139 -0.224255 13.458458
vn 0.062480 -0.076568 -1.114585
v 39.895550 2.134134 -0.747478
vn -0.617762 0.798612 -0.714861
v 52.448864 0.442443 12.879818
vn -0.078068 -0.017687 -1.786024
v 51.629738 1.270319 -0.660053
vn -0.051789 -0.004290 -1.364848
v 51.801105 1.222421 -0.666405
vn 0.540728 1.146662 -1.356194
v 52.420639 0.930114 13.689797
vn 0.191252 0.132885 -2.996279
v 52.534615 0.868862 -0.983716
vn 0.004549 -0.001185 -0.126672
v 51.704628 1.202592 -1.017273
vn -0.711448 0.889685 -0.798486
v 52.320652 0.606719 13.174158
vn -0.049962 0.185605 -1.786862
v 40.407608 0.903217 -1.019828
vn -0.029574 0.146741 -1.330615
v 40.218369 0.915776 -1.014237
vn -0.562359 0.570355 -0.907127
v 38.893990 -0.177993 14.316888
vn -1.270781 2.066770 -2.433243
v 38.820518 -0.070806 14.436888
vn -0.072583 -0.064926 -0.104799
v 40.077419 -0.197429 13.341858
vn 0.199350 0.095698 -1.961203
v 39.732971 2.203692 -0.761370
vn -0.084034 -0.133013 -1.732631
v 52.340591 1.202462 -0.693383
vn -0.081319 -0.127589 -1.735445
v 52.508133 1.253280 -0.704938
vn -0.239121 -0.039343 -3.058701
v 52.668266 1.323048 -0.717449
vn -0.107794 -0.290292 -2.913777
v 53.145317 1.546221 -0.758338
vn -0.058161 0.009162 -1.478643
v 51.979465 1.191392 -0.673514
vn -0.080360 -0.054681 -1.635763
v 52.161827 1.183286 -0.682708
vn -0.608122 2.612599 -2.158836
v 52.464069 0.311216 12.720367
vn -0.915398 1.192659 -1.066366
v 52.435963 0.435515 12.883227
vn 0.553972 0.697615 -0.983727
v 52.540863 1.011541 13.806578
vn 0.003359 0.000250 -0.080418
v 52.044979 1.080945 -1.004112
vn -0.714033 1.098009 -0.781607
v 52.272900 0.690452 13.312037
vn -0.677790 0.783633 -0.733679
v 52.388893 0.532844 13.031268
vn -0.675720 0.443657 -0.942786
v 39.018471 -0.254234 14.194717
vn -0.892016 0.925332 -1.452015
v 38.907009 -0.166844 14.315827
vn -1.737298 -0.605483 -2.366731
v 39.915478 -0.209865 13.458198
vn 0.120611 0.062292 -1.165971
v 39.740650 2.214280 -0.760010
vn -0.985403 1.144532 -1.069529
v 52.374294 0.522726 13.033948
vn -0.067236 -0.004937 -1.769462
v 51.795177 1.210949 -0.666144
vn 0.350757 0.814606 -0.927614
v 52.406044 0.938676 13.691217
vn 0.042839 2.645433 -1.842126
v 52.320110 0.855795 13.569768
vn 0.207398 0.140526 -3.207527
v 52.541954 0.880171 -0.982746
vn -0.756512 1.147961 -0.829588
v 52.256828 0.682200 13.315127
vn -0.894173 1.113235 -1.001472
v 52.305702 0.596927 13.176568
vn -0.039504 0.197579 -1.782696
v 40.222168 0.927958 -1.012978
vn -0.059300 0.374096 -2.938530
v 39.854969 0.995070 -0.997024
vn -1.809204 -0.339184 -2.206942
v 39.317780 -0.323915 13.951618
vn -1.030718 0.691047 -1.446806
v 39.027710 -0.241329 14.194168
vn -0.069387 -0.024889 -0.089885
v 39.621330 -0.285010 13.703128
vn -0.926651 -0.337512 -1.194822
v 39.473858 -0.321888 13.827918
vn 0.151011 0.270539 -1.260752
v 39.567268 2.268188 -0.773195
vn 0.213959 0.374384 -1.795516
v 39.563637 2.256952 -0.776041
vn -0.073774 -0.053187 -1.502583
v 52.162952 1.171013 -0.682353
vn -0.067840 -0.107333 -1.401230
v 52.344929 1.190512 -0.692676
vn -0.065723 -0.097741 -1.369874
v 52.514984 1.241895 -0.704422
vn -0.005865 -0.011031 -0.131705
v 52.991005 1.464634 -0.744501
vn -0.008427 -0.007554 -0.172237
v 53.321663 1.595988 -0.769820
vn -0.065922 0.007669 -1.659519
v 51.977039 1.179219 -0.673494
vn 0.137143 0.158182 -1.832282
v 52.885605 0.770584 -0.964351
vn 0.096805 0.112551 -1.290680
v 52.880421 0.758736 -0.965773
vn -0.052392 0.164683 -0.116217
v 52.249062 0.771512 13.447688
vn -0.090528 0.019387 -0.116740
v 39.166817 -0.288057 14.072477
vn 0.081252 0.439100 -1.418141
v 39.381348 2.289850 -0.789652
vn -0.106503 0.061389 -1.601103
v 53.493298 1.655451 -0.778957
vn 0.037738 2.353662 -1.641360
v 52.303787 0.857835 13.572318
vn 0.082238 0.191874 -1.668932
v 53.796997 0.757330 -0.902040
vn 0.097049 0.152702 -1.559814
v 53.619640 0.709015 -0.917522
vn 0.101809 0.108228 -1.471944
v 53.435070 0.685551 -0.931693
vn -0.003681 0.024331 -0.190828
v 39.686169 1.058331 -0.985564
vn -0.952550 -0.338830 -1.226128
v 39.469788 -0.307209 13.826928
vn 0.094126 0.481744 -1.574970
v 39.383068 2.278735 -0.792995
vn -0.102143 0.066116 -1.526541
v 53.497852 1.643556 -0.779716
vn 0.095773 0.153306 -1.704440
v 53.962463 0.825146 -0.885777
vn 0.096714 0.127008 -1.421467
v 53.247936 0.692290 -0.944020
vn 0.113706 0.148944 -1.667777
v 53.249229 0.704635 -0.942829
vn -0.020405 0.146524 -1.146302
v 39.511597 1.112237 -0.975566
vn -2.053594 -0.384709 -2.501951
v 39.316719 -0.309270 13.950237
vn -0.096988 0.408921 -1.466981
v 39.208370 2.265074 -0.806649
vn -0.093720 0.431334 -1.540114
v 39.215588 2.255177 -0.809885
vn -0.110843 0.227117 -1.462990
v 53.678265 1.685561 -0.786864
vn 0.111914 0.124098 -1.607633
v 54.101044 0.915882 -0.869558
vn 0.078657 0.128588 -1.408969
v 53.952278 0.834833 -0.885478
vn 0.072042 0.164794 -1.443727
v 53.789730 0.768386 -0.901127
vn 0.097431 0.150931 -1.558450
v 53.615395 0.720947 -0.916618
vn 0.114252 0.122585 -1.652924
v 53.433739 0.697901 -0.930877
vn -0.122535 0.258070 -1.626923
v 53.679886 1.673630 -0.788839
vn 0.072178 0.142297 -1.515948
v 54.197731 1.032956 -0.854205
vn 0.103439 0.117047 -1.502274
v 54.088249 0.923651 -0.869849
vn -0.010676 0.165573 -1.140086
v 39.359718 1.194961 -0.962389
vn -0.034504 0.253700 -1.974400
v 39.520779 1.122669 -0.974396
vn 0.001364 0.173734 -1.117078
v 39.222408 1.291523 -0.947751
vn -0.172798 0.335257 -1.535499
v 39.085541 2.172404 -0.824360
vn -0.172974 0.323379 -1.503564
v 39.073807 2.179667 -0.821448
vn -0.075931 0.297369 -1.196964
v 53.868782 1.693421 -0.795905
vn 0.049639 0.140201 -1.432280
v 54.254532 1.166229 -0.839210
vn 0.078277 0.148332 -1.597959
v 54.182846 1.038205 -0.854421
vn -0.017623 0.287382 -1.973121
v 39.370529 1.204458 -0.961111
vn -0.008011 0.147580 -1.076373
v 39.099091 1.398044 -0.931968
vn -0.112893 0.462522 -1.850005
v 53.865894 1.682045 -0.798548
vn 0.059864 0.164605 -1.686111
v 54.238369 1.168703 -0.839528
vn 0.153141 0.175664 -1.838277
v 54.257103 1.305358 -0.825502
vn 0.001697 0.308144 -1.991344
v 39.234829 1.299810 -0.946447
vn -0.142299 0.264850 -1.477780
v 38.980698 2.058100 -0.837314
vn -0.154167 0.287027 -1.583171
v 38.995609 2.053864 -0.839509
vn 0.007537 0.294435 -0.998785
v 54.040165 1.660694 -0.803527
vn 0.110825 0.122086 -1.279712
v 54.273438 1.305561 -0.824068
vn -0.019233 0.137509 -1.096792
v 39.002220 1.516196 -0.915235
vn -0.016182 0.279399 -2.045888
v 39.113091 1.404843 -0.931140
vn -0.054027 0.208413 -1.388517
v 38.932091 1.924849 -0.857508
vn 0.024922 0.592874 -2.030476
v 54.032333 1.650918 -0.806468
vn 0.165456 0.144836 -1.112210
v 54.246994 1.442611 -0.812237
vn 0.288632 0.254903 -1.988033
v 54.231918 1.439476 -0.814888
vn 0.011584 0.182341 -1.304633
v 38.921940 1.786001 -0.878747
vn -0.072766 0.259685 -1.708905
v 38.948460 1.923003 -0.858422
vn 0.133216 0.229285 -1.030296
v 54.167736 1.569040 -0.807182
vn 0.000829 0.163662 -1.204272
v 38.944237 1.647649 -0.897742
vn -0.033688 0.256055 -2.033263
v 39.017559 1.521157 -0.914882
vn 0.010490 0.253857 -1.807714
v 38.938610 1.786330 -0.878553
vn 0.264274 0.442762 -2.029434
v 54.155666 1.562361 -0.810229
vn 0.002263 0.260838 -1.916042
v 38.960510 1.650348 -0.897364
# 710 vertices, 0 vertices normals


usemtl material_0
vt 0.499189 0.780081
vt 0.491748 0.782151
vt 0.499321 0.780201
f 3/1/3 5/2/5 2/3/2
vt 0.507447 0.778793
vt 0.507500 0.778946
f 6/4/6 3/1/3 1/5/1
vt 0.517114 0.778273
vt 0.517127 0.778442
f 9/6/9 6/4/6 4/7/4
vt 0.484527 0.785019
vt 0.491940 0.782249
f 5/2/5 10/8/10 8/9/8
vt 0.527499 0.778234
vt 0.548288 0.777441
f 9/6/9 7/10/7 11/11/11
vt 0.558493 0.777573
vt 0.558462 0.777750
f 14/12/14 11/11/11 12/13/12
vt 0.477534 0.788397
vt 0.477614 0.788571
f 16/14/16 13/15/13 10/8/10
vt 0.568626 0.778020
vt 0.568586 0.778197
f 17/16/17 14/12/14 15/17/15
vt 0.470774 0.791998
f 16/14/16 20/18/20 13/15/13
vt 0.578769 0.778714
vt 0.578724 0.778891
f 21/19/21 17/16/17 18/20/18
vt 0.588841 0.779617
f 21/19/21 18/20/18 23/21/23
vt 0.463843 0.795473
vt 0.470656 0.792292
f 25/22/25 19/23/19 20/18/20
vt 0.608737 0.781764
f 23/21/23 18/20/18 24/24/24
vt 0.608692 0.781940
vt 0.639615 0.784277
f 24/24/24 22/25/22 28/26/28
vt 0.456333 0.798477
vt 0.463477 0.795925
f 32/27/32 26/28/26 25/22/25
vt 0.649474 0.785584
vt 0.649533 0.785419
f 28/26/28 27/29/27 33/30/33
vt 0.658634 0.787442
vt 0.658712 0.787287
f 33/30/33 29/31/29 36/32/36
vt 0.448569 0.800211
vt 0.455723 0.799101
f 38/33/38 31/34/31 32/27/32
vt 0.667112 0.789904
vt 0.667178 0.789739
f 36/32/36 30/35/30 39/36/39
vt 0.674958 0.792630
f 39/36/39 30/35/30 37/37/37
vt 0.674972 0.792852
vt 0.682718 0.795779
f 37/37/37 34/38/34 40/39/40
vt 0.440871 0.799880
vt 0.447750 0.800996
f 41/40/41 35/41/35 38/33/38
vt 0.437069 0.797010
vt 0.436157 0.797899
f 48/42/48 42/43/42 41/40/41
vt 0.691127 0.799004
vt 0.691554 0.799534
f 49/44/49 40/39/40 43/45/43
vt 0.440993 0.791132
f 50/46/50 42/43/42 48/42/48
vt 0.699331 0.801242
f 49/44/49 43/45/43 51/47/51
vt 0.734753 0.790028
vt 0.728614 0.793750
vt 0.728160 0.792425
f 53/48/53 45/49/45 44/50/44
vt 0.731843 0.790701
vt 0.729194 0.794334
f 54/51/54 47/52/47 45/49/45
f 54/51/54 46/49/46 53/48/53
vt 0.449172 0.783880
vt 0.440410 0.791745
f 56/53/56 55/54/55 50/46/50
vt 0.706477 0.801432
vt 0.707363 0.802330
f 59/55/59 51/47/51 52/56/52
vt 0.448952 0.784184
vt 0.458135 0.776891
f 57/57/57 56/53/56 60/58/60
vt 0.710184 0.799635
vt 0.709293 0.798734
f 58/59/58 61/60/61 59/55/59
vt 0.466785 0.770527
vt 0.474165 0.764516
f 62/61/62 60/58/60 64/62/64
vt 0.705096 0.792943
vt 0.704510 0.792313
f 63/63/63 65/64/65 61/60/61
vt 0.695882 0.784598
f 63/63/63 67/65/67 65/64/65
vt 0.474166 0.764659
vt 0.481436 0.759231
f 66/66/66 64/62/64 68/67/68
vt 0.481473 0.759359
vt 0.489902 0.754407
f 69/68/69 68/67/68 72/69/72
vt 0.687152 0.778150
vt 0.687166 0.778020
f 71/70/71 74/71/74 67/65/67
vt 0.499281 0.750127
vt 0.489974 0.754521
f 72/69/72 76/72/76 70/73/70
vt 0.670482 0.766033
vt 0.678644 0.772006
f 77/74/77 80/75/80 74/71/74
vt 0.519581 0.743132
vt 0.519537 0.743008
vt 0.529628 0.739263
f 75/76/75 79/77/79 81/78/81
vt 0.509348 0.746593
f 73/79/73 76/72/76 79/77/79
vt 0.662530 0.760415
f 77/74/77 82/80/82 80/75/80
vt 0.529724 0.739388
vt 0.539086 0.736148
f 78/81/78 81/78/81 83/82/83
vt 0.547431 0.734562
vt 0.547615 0.734674
f 83/82/83 88/83/88 84/84/84
vt 0.653983 0.755889
vt 0.653938 0.755778
f 85/85/85 89/86/89 82/80/82
vt 0.563218 0.732607
vt 0.563321 0.732720
f 88/83/88 91/87/91 86/88/86
vt 0.571720 0.732167
vt 0.581229 0.733118
vt 0.571761 0.732286
f 92/89/92 93/90/93 87/91/87
f 86/88/86 91/87/91 92/89/92
vt 0.637442 0.748167
vt 0.629288 0.744602
f 90/92/90 96/93/96 89/86/89
vt 0.601599 0.736798
vt 0.601645 0.736695
f 94/94/94 93/90/93 98/95/98
vt 0.851678 0.719804
vt 0.852077 0.716779
vt 0.854072 0.726005
f 97/96/97 102/97/102 95/98/95
vt 0.611631 0.738869
f 94/94/94 98/95/98 99/99/99
vt 0.854593 0.722317
f 105/97/105 104/100/104 95/98/95
vt 0.620776 0.741647
vt 0.620788 0.741529
f 100/101/100 99/99/99 108/102/108
f 100/101/100 108/102/108 96/93/96
vt 0.850243 0.710837
vt 0.850640 0.708025
f 103/103/103 106/104/106 102/97/102
vt 0.886309 0.741405
vt 0.890108 0.745155
vt 0.887273 0.750092
f 109/105/109 112/106/112 101/107/101
vt 0.852573 0.713288
f 113/104/113 110/108/110 105/97/105
vt 0.848556 0.701991
vt 0.849335 0.699145
f 107/109/107 114/110/114 106/104/106
vt 0.885502 0.743949
f 116/106/116 111/111/111 101/107/101
vt 0.850736 0.704536
f 113/104/113 118/110/118 119/112/119
vt 0.889101 0.736633
vt 0.895501 0.735326
f 117/113/117 121/114/121 112/106/112
vt 0.847616 0.693312
vt 0.848788 0.690630
f 115/115/115 122/116/122 114/110/114
vt 0.887286 0.739173
f 125/114/125 120/117/120 116/106/116
vt 0.849692 0.695834
f 127/116/127 123/118/123 118/110/118
vt 0.891651 0.731927
vt 0.897906 0.730421
f 126/119/126 129/120/129 121/114/121
vt 0.846817 0.684838
vt 0.847977 0.682067
f 124/121/124 130/122/130 122/116/122
vt 0.889431 0.734335
f 131/120/131 128/123/128 125/114/125
vt 0.848643 0.687250
f 127/116/127 130/122/130 132/124/132
vt 0.896567 0.722725
vt 0.900011 0.725562
f 133/125/133 137/126/137 129/120/129
vt 0.893466 0.724725
f 137/126/137 136/127/136 131/120/131
vt 0.845979 0.668247
vt 0.847692 0.665629
vt 0.847937 0.673895
f 135/128/135 138/129/138 134/130/134
vt 0.847564 0.670710
f 134/130/134 140/129/140 141/131/141
vt 0.846489 0.660147
vt 0.848756 0.657676
f 139/132/139 142/133/142 138/129/138
vt 0.847809 0.662574
f 140/129/140 144/133/144 143/134/143
vt 0.847366 0.652234
vt 0.849442 0.649663
f 145/135/145 146/136/146 142/133/142
vt 0.847870 0.654522
f 144/133/144 151/136/151 149/137/149
vt 0.849530 0.644402
vt 0.853060 0.641858
f 150/138/150 154/139/154 146/136/146
vt 0.732489 0.048079
vt 0.724521 0.047767
vt 0.724448 0.047754
f 157/140/157 152/141/152 158/142/158
vt 0.849911 0.646553
f 151/136/151 154/139/154 155/143/155
vt 0.715705 0.047373
vt 0.715794 0.047377
f 147/144/147 162/145/162 158/142/158
vt 0.739931 0.048344
vt 0.739529 0.048329
vt 0.745405 0.048536
f 153/146/153 160/147/160 163/148/163
vt 0.732732 0.048107
f 148/149/148 157/140/157 160/147/160
vt 0.706688 0.046975
vt 0.706912 0.046975
f 162/145/162 159/150/159 166/151/166
vt 0.745938 0.048534
vt 0.749952 0.048731
f 156/152/156 163/148/163 167/153/167
vt 0.697966 0.046553
vt 0.698296 0.046544
f 161/154/161 168/155/168 166/151/166
vt 0.690032 0.046090
vt 0.690437 0.046086
f 168/155/168 164/156/164 170/157/170
vt 0.755513 0.049080
vt 0.753947 0.048924
vt 0.753284 0.048913
f 172/158/172 169/159/169 173/160/173
vt 0.750568 0.048733
f 165/161/165 167/153/167 173/160/173
vt 0.682524 0.045618
vt 0.660570 0.044323
f 171/162/171 175/163/175 170/157/170
vt 0.756201 0.049089
vt 0.759216 0.049421
f 174/164/174 172/158/172 176/165/176
vt 0.644445 0.043748
vt 0.644857 0.043740
f 178/166/178 184/167/184 175/163/175
vt 0.759885 0.049402
vt 0.762053 0.049578
f 177/168/177 176/165/176 185/169/185
vt 0.762673 0.049548
vt 0.766513 0.049686
f 181/170/181 185/169/185 197/171/197
vt 0.301436 0.557426
vt 0.297220 0.557191
vt 0.295129 0.562817
f 179/172/179 193/173/193 192/174/192
vt 0.302819 0.551571
vt 0.298911 0.551510
f 183/175/183 202/176/202 193/173/193
vt 0.303723 0.545863
vt 0.300276 0.540423
vt 0.299706 0.545907
f 180/177/180 194/178/194 195/179/195
f 195/179/195 202/176/202 183/175/183
vt 0.636122 0.043564
vt 0.636496 0.043565
f 184/167/184 188/180/188 205/181/205
vt 0.772283 0.049753
vt 0.779052 0.049784
vt 0.772715 0.049746
f 208/182/208 207/183/207 186/184/186
vt 0.767049 0.049667
f 187/185/187 197/171/197 208/182/208
vt 0.609047 0.043146
vt 0.609283 0.043165
vt 0.627708 0.043387
f 189/186/189 198/187/198 210/188/210
vt 0.599555 0.043085
vt 0.599742 0.043112
f 182/189/182 199/190/199 198/187/198
vt 0.589827 0.043011
vt 0.589969 0.043034
f 190/191/190 211/192/211 199/190/199
vt 0.298407 0.557072
f 192/174/192 215/173/215 216/193/216
vt 0.300945 0.551861
f 217/176/217 218/194/218 215/173/215
vt 0.301303 0.546524
f 219/179/219 194/178/194 220/195/220
f 217/176/217 219/179/219 218/194/218
vt 0.627377 0.043382
f 206/196/206 210/188/210 205/181/205
vt 0.779371 0.049777
vt 0.786497 0.049785
f 196/197/196 207/183/207 223/198/223
vt 0.570019 0.043002
vt 0.570080 0.043017
f 191/199/191 212/200/212 211/192/211
vt 0.550052 0.043097
vt 0.560071 0.043075
f 200/201/200 226/202/226 212/200/212
vt 0.550040 0.043105
f 200/201/200 237/203/237 226/202/226
vt 0.269457 0.678499
vt 0.270442 0.678447
vt 0.271158 0.678491
f 229/204/229 201/205/201 244/206/244
vt 0.262760 0.677453
vt 0.262217 0.677470
f 246/207/246 213/208/213 229/204/229
vt 0.265435 0.676932
f 201/205/201 230/209/230 244/206/244
vt 0.255973 0.674340
vt 0.256464 0.674392
f 214/210/214 247/211/247 230/209/230
vt 0.910688 0.684334
vt 0.900861 0.682685
vt 0.911015 0.684432
f 233/212/233 234/213/234 203/214/203
vt 0.917743 0.684396
vt 0.918388 0.684517
f 250/215/250 233/212/233 204/216/204
vt 0.892144 0.679852
vt 0.900874 0.682746
f 234/213/234 249/217/249 222/218/222
vt 0.786701 0.049777
vt 0.794297 0.049764
f 224/219/224 223/198/223 255/220/255
vt 0.530152 0.043255
vt 0.530063 0.043262
f 209/221/209 238/222/238 237/203/237
vt 0.520339 0.043391
vt 0.520204 0.043401
f 225/223/225 256/224/256 238/222/238
vt 0.244464 0.673822
vt 0.252945 0.675902
vt 0.253497 0.675854
f 260/225/260 228/226/228 245/227/245
f 245/227/245 213/208/213 246/207/246
vt 0.247815 0.671457
vt 0.248422 0.671446
f 231/228/231 261/229/261 247/211/247
vt 0.884361 0.676214
vt 0.892130 0.679879
f 248/230/248 221/231/221 249/217/249
vt 0.918148 0.682473
f 251/232/251 250/215/250 204/216/204
vt 0.510690 0.043532
vt 0.510500 0.043535
f 239/233/239 274/234/274 256/224/256
vt 0.475128 0.044516
vt 0.474700 0.044496
vt 0.482912 0.044206
f 241/235/241 258/236/258 277/237/277
vt 0.460690 0.045205
vt 0.460173 0.045178
f 227/238/227 259/239/259 258/236/258
vt 0.454359 0.045591
vt 0.453811 0.045571
f 242/240/242 278/241/278 259/239/259
vt 0.238461 0.671477
vt 0.243835 0.673891
f 264/242/264 243/243/243 260/225/260
vt 0.236044 0.668691
vt 0.237729 0.671551
f 283/244/283 232/245/232 264/242/264
vt 0.877336 0.672150
vt 0.877774 0.672103
f 285/246/285 266/247/266 248/230/248
vt 0.914589 0.679490
vt 0.914060 0.679403
f 235/248/235 267/249/267 251/232/251
vt 0.907928 0.676089
vt 0.907639 0.676022
f 252/250/252 286/251/286 267/249/267
vt 0.863639 0.603037
vt 0.861177 0.596725
vt 0.863907 0.601656
f 236/252/236 269/253/269 271/254/271
vt 0.864956 0.607873
vt 0.864004 0.606382
f 253/255/253 271/254/271 287/256/287
vt 0.794392 0.049765
vt 0.802263 0.049710
f 254/257/254 255/220/255 288/258/288
vt 0.501246 0.043706
vt 0.500997 0.043700
f 240/259/240 275/260/275 274/234/274
vt 0.492050 0.043939
vt 0.491739 0.043933
f 257/261/257 289/262/289 275/260/275
vt 0.242143 0.668183
vt 0.242904 0.668114
f 281/263/281 291/264/291 261/229/261
vt 0.235277 0.668768
vt 0.237772 0.665339
f 263/265/263 283/244/283 293/266/293
vt 0.871814 0.667852
f 285/246/285 297/267/297 266/247/266
vt 0.900032 0.672370
vt 0.900039 0.672314
f 268/268/268 298/269/298 286/251/286
vt 0.856670 0.591760
vt 0.860985 0.596588
f 269/253/269 272/270/272 300/271/300
vt 0.802237 0.049713
vt 0.810210 0.049611
f 273/272/273 288/258/288 304/273/304
vt 0.483284 0.044215
f 276/274/276 277/237/277 289/262/289
vt 0.432895 0.047214
vt 0.432355 0.047201
f 278/241/278 279/275/279 305/276/305
vt 0.240735 0.664480
vt 0.241508 0.664415
f 262/277/262 292/278/292 291/264/291
vt 0.242735 0.660419
vt 0.243363 0.660373
f 292/278/292 282/279/282 313/280/313
vt 0.885114 0.664066
vt 0.885686 0.663998
vt 0.892409 0.668263
f 265/281/265 295/282/295 294/283/294
vt 0.880116 0.659716
vt 0.880807 0.659647
f 284/284/284 315/285/315 295/282/295
f 268/268/268 294/283/294 298/269/298
vt 0.863373 0.606403
vt 0.859943 0.610772
f 318/286/318 302/287/302 287/256/287
vt 0.817491 0.049431
vt 0.810031 0.049589
f 321/288/321 303/289/303 304/273/304
vt 0.427085 0.047590
vt 0.426593 0.047587
f 306/290/306 322/291/322 305/276/305
vt 0.248410 0.657439
vt 0.242387 0.661532
vt 0.248630 0.657383
f 280/292/280 308/293/308 325/294/325
vt 0.247597 0.656015
f 313/280/313 282/279/282 329/295/329
vt 0.237132 0.665428
f 290/296/290 293/266/293 308/293/308
vt 0.876634 0.655255
vt 0.872032 0.650866
f 332/297/332 315/285/315 333/298/333
vt 0.868539 0.663509
vt 0.872515 0.667786
f 297/267/297 336/299/336 296/300/296
vt 0.862317 0.595424
vt 0.863475 0.601598
f 300/271/300 337/301/337 299/302/299
vt 0.255657 0.653005
vt 0.255636 0.652983
vt 0.262535 0.648424
f 307/303/307 324/304/324 350/305/350
f 280/292/280 325/294/325 324/304/324
vt 0.711438 0.031128
vt 0.718124 0.031344
vt 0.717701 0.031338
f 361/306/361 314/307/314 362/308/362
vt 0.866245 0.646512
vt 0.866813 0.646510
f 316/309/316 341/310/341 333/298/333
vt 0.867442 0.659104
vt 0.869358 0.663469
f 336/299/336 364/311/364 317/312/317
vt 0.863710 0.600358
vt 0.862517 0.605123
f 318/286/318 338/313/338 365/314/365
vt 0.854191 0.637897
vt 0.854780 0.637922
f 301/315/301 372/316/372 341/310/341
vt 0.849608 0.633567
f 301/315/301 342/317/342 372/316/372
vt 0.817151 0.049387
vt 0.823463 0.049133
f 344/318/344 321/288/321 377/319/377
vt 0.420715 0.047951
vt 0.420303 0.047951
f 323/320/323 378/321/378 322/291/322
vt 0.275891 0.634353
vt 0.275085 0.634380
vt 0.276706 0.625109
f 309/322/309 351/323/351 354/324/354
vt 0.273339 0.639072
vt 0.272600 0.639076
f 326/325/326 383/326/383 351/323/351
vt 0.262858 0.648444
vt 0.268475 0.643767
f 310/327/310 350/305/350 352/328/352
f 352/328/352 383/326/383 326/325/326
vt 0.277952 0.620621
vt 0.280308 0.616189
vt 0.278760 0.620644
f 353/329/353 355/330/355 312/331/312
vt 0.277546 0.625108
f 311/332/311 354/324/354 353/329/353
vt 0.253340 0.651409
vt 0.253381 0.651475
f 388/333/388 329/295/329 356/334/356
vt 0.706207 0.030911
vt 0.711941 0.031121
f 361/306/361 392/335/392 330/336/330
vt 0.724666 0.031546
vt 0.724995 0.031563
f 395/337/395 362/308/362 331/338/331
vt 0.863846 0.594400
f 337/301/337 400/339/400 338/313/338
vt 0.845362 0.629197
vt 0.846170 0.629204
f 343/340/343 375/341/375 342/317/342
vt 0.845361 0.624889
vt 0.844521 0.624860
vt 0.846732 0.620649
f 410/342/410 320/343/320 374/344/374
vt 0.849099 0.616497
vt 0.849835 0.616513
f 374/344/374 373/345/373 411/346/411
f 320/343/320 410/342/410 375/341/375
vt 0.318236 0.548579
vt 0.313791 0.546557
vt 0.309415 0.548648
f 379/347/379 412/348/412 345/349/345
vt 0.398575 0.048743
vt 0.390682 0.048879
vt 0.390925 0.048869
f 417/350/417 347/351/347 418/352/418
vt 0.413840 0.048300
vt 0.413550 0.048282
f 349/353/349 419/354/419 378/321/378
vt 0.284245 0.611759
vt 0.284644 0.611744
f 355/330/355 421/355/421 384/356/384
vt 0.259718 0.646627
vt 0.260002 0.646662
f 385/357/385 388/333/388 357/358/357
vt 0.270900 0.636896
vt 0.265861 0.641760
vt 0.266326 0.641762
f 386/359/386 422/360/422 327/361/327
f 385/357/385 327/361/327 422/360/422
vt 0.275607 0.632093
vt 0.274859 0.632067
f 328/362/328 423/363/423 386/359/386
vt 0.692407 0.030262
vt 0.692982 0.030257
f 432/364/432 359/365/359 392/335/392
vt 0.732003 0.031756
vt 0.732229 0.031764
f 433/366/433 395/337/395 360/367/360
vt 0.871960 0.650006
vt 0.871288 0.650039
vt 0.875657 0.645342
f 334/368/334 397/369/397 398/370/398
vt 0.869214 0.654603
vt 0.868454 0.654621
f 335/371/335 436/372/436 397/369/397
vt 0.876277 0.645312
vt 0.885669 0.635805
f 363/373/363 398/370/398 437/374/437
f 364/311/364 436/372/436 335/371/335
vt 0.864380 0.599179
f 338/313/338 400/339/400 401/375/401
vt 0.822357 0.546260
vt 0.816856 0.546431
vt 0.822324 0.546601
f 339/376/339 403/377/403 440/378/440
vt 0.829831 0.549614
vt 0.829315 0.549915
vt 0.832605 0.554879
f 366/379/366 404/380/404 439/381/439
f 339/376/339 440/378/440 404/380/404
vt 0.832717 0.047820
vt 0.833412 0.047854
vt 0.837058 0.046243
f 371/382/371 407/383/407 446/384/446
vt 0.830655 0.048298
vt 0.831319 0.048322
f 340/385/340 408/386/408 407/383/407
vt 0.827485 0.048731
vt 0.828086 0.048752
f 370/387/370 445/388/445 408/386/408
vt 0.822977 0.049098
f 376/389/376 377/319/377 445/388/445
vt 0.313021 0.550246
f 447/390/447 345/349/345 413/348/413
vt 0.383546 0.048976
vt 0.383955 0.048953
f 348/391/348 414/392/414 418/352/418
vt 0.377751 0.049007
vt 0.378293 0.048972
f 346/393/346 415/394/415 414/392/414
vt 0.373933 0.048924
vt 0.374563 0.048904
f 380/395/380 451/396/451 415/394/415
vt 0.398521 0.048765
vt 0.406314 0.048554
f 382/397/382 417/350/417 453/398/453
vt 0.406446 0.048587
f 381/399/381 453/398/453 419/354/419
vt 0.289547 0.607309
f 384/356/384 421/355/421 456/400/456
vt 0.277765 0.627305
f 423/363/423 328/362/328 424/401/424
vt 0.284018 0.617762
vt 0.283244 0.617727
f 387/402/387 457/403/457 424/401/424
vt 0.680920 0.029898
vt 0.673548 0.029766
vt 0.681374 0.029877
f 430/404/430 466/405/466 391/406/391
vt 0.687110 0.030067
vt 0.687642 0.030050
f 431/407/431 430/404/430 358/408/358
f 432/364/432 431/407/431 359/365/359
vt 0.739649 0.031970
vt 0.747563 0.032196
vt 0.747540 0.032192
f 468/409/468 394/410/394 467/411/467
vt 0.739770 0.031968
f 468/409/468 433/366/433 396/412/396
vt 0.864065 0.594549
f 400/339/400 471/413/471 472/375/472
vt 0.862939 0.603794
vt 0.862293 0.603820
f 401/375/401 473/414/473 438/415/438
vt 0.833312 0.554667
vt 0.834989 0.560962
f 367/416/367 439/381/439 442/417/442
vt 0.817458 0.550819
vt 0.818138 0.550897
f 403/377/403 405/418/405 475/419/475
vt 0.835707 0.560825
vt 0.839263 0.567634
f 368/420/368 442/417/442 443/421/443
vt 0.844965 0.573986
vt 0.844437 0.574152
f 369/422/369 443/421/443 476/423/476
vt 0.849838 0.579608
vt 0.849523 0.579773
vt 0.854691 0.584858
f 406/424/406 444/425/444 474/426/474
f 369/422/369 476/423/476 444/425/444
vt 0.853414 0.612406
vt 0.858906 0.608159
f 411/346/411 409/427/409 478/428/478
vt 0.312530 0.549974
f 412/348/412 479/429/479 447/390/447
vt 0.313527 0.546206
f 412/348/412 449/430/449 479/429/479
vt 0.367701 0.048467
vt 0.368384 0.048474
f 451/396/451 450/431/450 482/432/482
vt 0.365137 0.048316
vt 0.365793 0.048313
f 482/432/482 416/433/416 483/434/483
vt 0.421650 0.030852
vt 0.427630 0.030485
vt 0.428044 0.030501
f 464/435/464 426/436/426 460/437/460
vt 0.434916 0.030168
vt 0.435232 0.030175
f 460/437/460 389/438/389 461/439/461
vt 0.442900 0.029868
vt 0.443101 0.029866
f 461/439/461 427/440/427 489/441/489
vt 0.394083 0.032663
vt 0.399576 0.032320
vt 0.400055 0.032324
f 490/442/490 428/443/428 463/444/463
vt 0.415367 0.031222
f 463/444/463 390/445/390 464/435/464
vt 0.656057 0.029419
vt 0.656072 0.029436
vt 0.665192 0.029623
f 496/446/496 494/447/494 495/448/495
vt 0.673878 0.029766
f 466/405/466 495/448/495 429/449/429
vt 0.755471 0.032419
vt 0.763453 0.032598
f 467/411/467 393/450/393 497/451/497
vt 0.860052 0.589602
vt 0.860111 0.589769
f 399/452/399 470/453/470 471/413/471
vt 0.854787 0.584699
f 402/454/402 474/426/474 470/453/470
f 478/428/478 438/415/438 473/414/473
vt 0.823006 0.557257
vt 0.822295 0.557383
f 503/455/503 475/419/475 441/456/441
vt 0.836378 0.046228
vt 0.839559 0.045646
f 477/457/477 446/384/446 504/458/504
vt 0.315412 0.545537
vt 0.320031 0.547615
f 505/459/505 449/430/449 448/460/448
vt 0.314095 0.556370
f 447/390/447 479/429/479 508/461/508
vt 0.361690 0.048156
vt 0.362290 0.048149
f 452/462/452 513/463/513 483/434/483
vt 0.302985 0.598260
vt 0.304336 0.599308
vt 0.290984 0.608331
f 515/464/515 454/465/454 420/466/420
vt 0.303287 0.598480
vt 0.311321 0.594895
f 516/467/516 455/468/455 454/465/454
vt 0.289662 0.607248
vt 0.296000 0.602817
f 484/469/484 456/400/456 518/470/518
vt 0.287434 0.612931
vt 0.286704 0.612882
f 425/471/425 519/472/519 457/403/457
vt 0.451455 0.029561
vt 0.451539 0.029566
f 489/441/489 462/473/462 523/474/523
vt 0.646486 0.029210
f 496/446/496 530/475/530 494/447/494
vt 0.787054 0.033134
vt 0.787138 0.033154
f 497/451/497 469/476/469 531/477/531
vt 0.894159 0.626537
vt 0.893362 0.626549
vt 0.895353 0.622076
f 434/478/434 501/479/501 534/480/534
vt 0.890772 0.631105
vt 0.890030 0.631100
f 435/481/435 535/482/535 501/479/501
f 437/374/437 535/482/535 435/481/435
vt 0.314185 0.549230
f 510/429/510 538/483/538 508/461/508
vt 0.313828 0.546067
f 538/483/538 510/429/510 509/484/509
vt 0.290886 0.608047
vt 0.291551 0.608122
f 543/485/543 519/472/519 485/486/485
vt 0.363791 0.033882
vt 0.371641 0.033601
vt 0.371662 0.033598
f 545/487/545 487/488/487 521/489/521
vt 0.379370 0.033313
vt 0.379521 0.033300
f 521/489/521 458/490/458 522/491/522
vt 0.386836 0.032990
vt 0.387116 0.032988
f 522/491/522 488/492/488 547/493/547
vt 0.460411 0.029289
vt 0.460436 0.029275
f 548/494/548 523/474/523 459/495/459
vt 0.393689 0.032652
f 547/493/547 491/496/491 490/442/490
vt 0.525671 0.027965
vt 0.515663 0.028123
vt 0.525857 0.027958
f 528/497/528 527/498/527 465/499/465
vt 0.536039 0.027823
vt 0.536157 0.027821
f 551/500/551 528/497/528 492/501/492
vt 0.469582 0.029048
vt 0.478945 0.028824
vt 0.478751 0.028822
f 553/502/553 493/503/493 554/504/554
vt 0.895692 0.617607
vt 0.896164 0.622058
f 559/505/559 500/506/500 534/480/534
vt 0.828299 0.562765
vt 0.827668 0.562956
f 560/507/560 503/455/503 502/508/502
vt 0.838924 0.045642
vt 0.843671 0.045070
f 536/509/536 504/458/504 563/510/563
vt 0.317420 0.545103
vt 0.321328 0.547054
f 564/511/564 505/459/505 537/512/537
f 538/483/538 509/484/509 567/511/567
vt 0.323094 0.585014
vt 0.322440 0.584944
vt 0.327360 0.580568
f 480/513/480 540/514/540 541/515/541
vt 0.316853 0.589423
vt 0.316362 0.589356
f 512/516/512 570/517/570 540/514/540
vt 0.328095 0.580638
vt 0.330436 0.576217
f 481/518/481 541/515/541 542/519/542
vt 0.357165 0.047974
vt 0.357674 0.047981
f 514/520/514 572/521/572 513/463/513
vt 0.310046 0.593829
f 515/464/515 517/522/517 516/467/516
vt 0.295731 0.603242
vt 0.296218 0.603320
f 544/523/544 543/485/543 486/524/486
vt 0.301176 0.598492
vt 0.301283 0.598509
f 574/525/574 544/523/544 520/526/520
vt 0.469702 0.029041
f 553/502/553 548/494/548 524/527/524
vt 0.487861 0.028591
f 554/504/554 526/528/526 527/498/527
vt 0.546857 0.027744
vt 0.546884 0.027735
f 579/529/579 551/500/551 529/530/529
vt 0.636824 0.029047
vt 0.646342 0.029219
f 558/531/558 499/532/499 530/475/530
vt 0.803078 0.033583
vt 0.803078 0.033559
f 580/533/580 531/477/531 555/534/555
vt 0.597201 0.027855
vt 0.619249 0.028575
vt 0.619717 0.028540
f 581/535/581 498/536/498 557/537/557
vt 0.627302 0.028890
vt 0.627693 0.028851
f 557/537/557 532/538/532 582/539/582
vt 0.636542 0.029071
f 582/539/582 533/540/533 558/531/558
vt 0.849092 0.044518
vt 0.843112 0.045060
f 583/541/583 562/542/562 563/510/563
vt 0.317425 0.545259
f 584/543/584 567/511/567 537/512/537
vt 0.320952 0.547162
vt 0.325450 0.551669
vt 0.324792 0.551695
f 566/544/566 506/545/506 565/546/565
vt 0.326588 0.556001
vt 0.327268 0.556076
f 585/547/585 565/546/565 507/548/507
f 566/544/566 584/543/584 537/512/537
vt 0.331398 0.571502
vt 0.332106 0.571658
f 587/549/587 511/550/511 542/519/542
vt 0.329976 0.566036
vt 0.327822 0.560606
vt 0.330622 0.566213
f 568/551/568 569/552/569 539/553/539
f 587/549/587 568/551/568 511/550/511
f 585/547/585 507/548/507 569/552/569
vt 0.309813 0.593818
f 571/554/571 570/517/570 512/516/512
vt 0.302967 0.598311
f 518/470/518 588/555/588 515/464/515
vt 0.307085 0.593887
f 574/525/574 520/526/520 589/556/589
vt 0.356155 0.034154
vt 0.363887 0.033873
f 545/487/545 591/557/591 546/558/546
vt 0.557794 0.027686
vt 0.568327 0.027601
vt 0.568518 0.027607
f 592/559/592 549/560/549 577/561/577
vt 0.578502 0.027585
vt 0.578801 0.027583
f 577/561/577 525/562/525 578/563/578
vt 0.588023 0.027686
vt 0.588414 0.027688
f 578/563/578 550/564/550 593/565/593
vt 0.557715 0.027672
f 579/529/579 552/566/552 592/559/592
vt 0.596740 0.027849
f 593/565/593 556/567/556 581/535/581
vt 0.834211 0.567644
vt 0.833726 0.567804
f 596/568/596 560/507/560 561/569/561
f 515/464/515 588/555/588 571/554/571
vt 0.351501 0.047772
vt 0.351889 0.047791
f 573/570/573 600/571/600 572/521/572
vt 0.826960 0.034318
vt 0.827081 0.034273
f 606/572/606 580/533/580 594/573/594
vt 0.894147 0.613119
vt 0.894815 0.613171
f 609/574/609 595/575/595 559/505/559
vt 0.840938 0.572114
f 596/568/596 561/569/561 610/576/610
vt 0.848637 0.044517
vt 0.855519 0.043997
f 598/577/598 583/541/583 611/578/611
vt 0.316408 0.548758
vt 0.316570 0.548841
f 586/579/586 584/543/584 618/580/618
vt 0.312813 0.589463
vt 0.313319 0.589516
f 589/556/589 590/581/590 620/582/620
vt 0.334311 0.034907
vt 0.341757 0.034658
vt 0.348719 0.034414
f 621/583/621 575/584/575 604/585/604
vt 0.356350 0.034149
f 591/557/591 604/585/604 576/586/576
vt 0.890485 0.608586
f 609/574/609 625/587/625 595/575/595
vt 0.847596 0.576480
vt 0.847793 0.576471
f 610/576/610 597/588/597 626/589/626
vt 0.317759 0.554940
f 586/579/586 618/580/618 619/590/619
vt 0.317213 0.554812
vt 0.320370 0.560584
f 599/591/599 619/590/619 628/592/628
vt 0.344635 0.047553
vt 0.344886 0.047562
f 601/593/601 629/594/629 600/571/600
vt 0.318408 0.585143
vt 0.319026 0.585196
f 620/582/620 602/595/602 630/596/630
vt 0.313272 0.035707
vt 0.313583 0.035671
f 632/597/632 603/598/603 621/583/621
vt 0.325343 0.571113
vt 0.322641 0.565834
vt 0.323274 0.565925
f 633/599/633 605/600/605 634/601/634
vt 0.834971 0.034528
vt 0.834810 0.034575
f 606/572/606 607/602/607 635/603/635
vt 0.885375 0.604030
vt 0.891036 0.608625
f 625/587/625 638/604/638 608/605/608
vt 0.860246 0.585642
f 626/589/626 597/588/597 639/606/639
vt 0.855195 0.044048
vt 0.862688 0.043447
f 627/607/627 611/578/611 642/608/642
vt 0.321613 0.046569
vt 0.314704 0.046110
vt 0.314414 0.046129
f 644/609/644 613/610/613 645/611/645
vt 0.298725 0.036396
f 632/597/632 649/612/649 603/598/603
vt 0.324662 0.570997
vt 0.325671 0.576077
f 622/613/622 633/599/633 651/614/651
vt 0.319752 0.560483
f 623/615/623 628/592/628 634/601/634
vt 0.879487 0.599473
vt 0.885767 0.604051
f 638/604/638 652/616/652 624/617/624
vt 0.329364 0.046942
vt 0.329317 0.046956
vt 0.337187 0.047287
f 617/618/617 643/619/643 648/620/648
vt 0.321797 0.046542
f 612/621/612 644/609/644 643/619/643
vt 0.307925 0.045641
vt 0.294263 0.044628
f 614/622/614 646/623/646 645/611/645
vt 0.287730 0.044110
vt 0.280265 0.043680
f 615/624/615 647/625/647 646/623/646
vt 0.337085 0.047287
f 616/626/616 648/620/648 629/594/629
vt 0.322664 0.580649
vt 0.323355 0.580744
f 631/627/631 655/628/655 630/596/630
f 631/627/631 651/614/651 655/628/655
vt 0.850355 0.035172
vt 0.857501 0.035601
f 635/603/635 636/629/636 659/630/659
vt 0.866488 0.590315
vt 0.866661 0.590278
f 639/606/639 640/631/640 660/632/660
vt 0.862534 0.043554
vt 0.870332 0.042812
f 641/633/641 642/608/642 661/634/661
vt 0.272999 0.043338
vt 0.272806 0.043310
f 654/635/654 662/636/662 647/625/647
vt 0.283331 0.037202
vt 0.298944 0.036342
f 649/612/649 665/637/665 650/638/650
vt 0.873141 0.594896
vt 0.873096 0.594947
f 667/639/667 637/640/637 652/616/652
f 660/632/660 637/640/637 667/639/667
vt 0.870405 0.042938
vt 0.877422 0.042180
f 653/641/653 661/634/661 669/642/669
vt 0.267830 0.038183
vt 0.275464 0.037619
vt 0.275520 0.037649
f 674/643/674 658/644/658 675/645/675
vt 0.265169 0.043042
vt 0.265100 0.042968
f 670/646/670 676/647/676 662/636/662
vt 0.247812 0.039934
vt 0.253137 0.039338
vt 0.253569 0.039349
f 678/648/678 663/649/663 672/650/672
vt 0.260142 0.038729
vt 0.260450 0.038763
f 672/650/672 656/651/656 673/652/673
vt 0.267650 0.038149
f 673/652/673 657/653/657 674/643/674
vt 0.283386 0.037157
f 665/637/665 675/645/675 664/654/664
vt 0.864891 0.035976
vt 0.864502 0.036020
f 659/630/659 666/655/666 680/656/680
vt 0.877727 0.042301
vt 0.882927 0.041638
f 668/657/668 669/642/669 682/658/682
vt 0.243808 0.040512
vt 0.247271 0.039945
f 686/659/686 671/660/671 678/648/678
vt 0.870863 0.036517
vt 0.871320 0.036469
f 687/661/687 680/656/680 679/662/679
vt 0.257103 0.042703
vt 0.257226 0.042604
f 684/663/684 689/664/689 676/647/676
vt 0.240664 0.041595
vt 0.240773 0.041082
vt 0.241458 0.041070
f 691/665/691 685/666/685 690/667/690
vt 0.243178 0.040520
f 690/667/690 677/668/677 686/659/686
vt 0.883424 0.041747
vt 0.886734 0.041071
f 683/669/683 682/658/682 694/670/694
vt 0.876607 0.037066
vt 0.877133 0.037017
f 692/671/692 687/661/687 681/672/681
vt 0.881761 0.037639
vt 0.882354 0.037608
f 698/673/698 692/671/692 688/674/688
vt 0.249848 0.042418
vt 0.250180 0.042308
f 695/675/695 700/676/700 689/664/689
vt 0.239973 0.041649
vt 0.241731 0.041993
f 696/677/696 691/665/691 702/678/702
vt 0.887366 0.041153
vt 0.888730 0.040362
f 693/679/693 694/670/694 704/680/704
vt 0.886454 0.038235
vt 0.885805 0.038248
f 698/673/698 697/681/697 707/682/707
vt 0.889148 0.039609
vt 0.889423 0.040397
f 704/680/704 708/683/708 699/684/699
vt 0.244448 0.042281
vt 0.244959 0.042167
f 705/685/705 709/686/709 700/676/700
vt 0.241092 0.042092
f 701/687/701 702/678/702 709/686/709
vt 0.888220 0.038904
vt 0.888909 0.038890
f 710/688/710 707/682/707 706/689/706
vt 0.889853 0.039601
f 708/683/708 710/688/710 703/690/703
# 382 faces, 690 coords texture

# End of File
