# .PCD v0.7 - Point Cloud Data file format
VERSION 0.7
FIELDS x y z
SIZE 4 4 4
TYPE F F F
COUNT 1 1 1
WIDTH 2048
HEIGHT 1
VIEWPOINT 0 0 0 1 0 0 0
POINTS 2048
DATA ascii
47.14418 1.493899 18.76726
46.83586 1.521788 18.60262
44.87405 1.521163 18.78454
46.52371 1.466959 18.84337
45.37131 1.521547 18.67667
47.91734 1.486269 18.56094
47.85463 1.480525 18.45594
43.65763 1.493141 19.13488
46.8984 1.484966 18.2289
49.37946 1.304515 19.36748
45.3086 1.489384 18.52775
46.5477 1.476794 17.92869
48.91632 1.47721 18.54059
44.20058 1.489372 18.54413
47.62963 1.463506 18.04928
43.73207 1.491184 18.60091
46.07187 1.478636 17.9452
49.34187 1.461708 18.74574
45.08823 1.486661 18.09918
42.92795 1.492927 18.43121
46.67499 1.478856 17.65846
43.42376 1.489018 18.66245
42.55964 1.491012 18.50534
44.50142 1.488108 17.88332
47.70964 1.482171 17.74883
49.35918 1.468474 18.40952
42.96482 1.491156 18.07443
44.74691 1.486443 17.69015
46.61698 1.486422 17.58594
49.73939 1.463147 18.48959
42.26748 1.480129 18.69433
43.50762 1.48978 17.90635
44.7785 1.483228 17.3901
45.00261 1.483969 17.42193
49.26997 1.473503 18.10076
50.43652 1.46153 18.41996
42.65594 1.12332 19.1885
41.51535 1.49667 18.26161
42.72281 1.492302 17.79247
41.90712 1.495527 18.0557
43.43672 1.48615 17.26222
44.22548 1.474678 16.93076
45.05156 1.483323 17.37815
48.53129 1.485266 17.71499
49.81881 1.468397 18.09621
50.41237 1.467066 18.20603
49.6241 1.3636 19.09044
41.6987 1.442512 18.81019
41.33219 1.502334 17.78312
42.82843 1.492382 17.68459
43.07943 1.491093 17.17998
44.27838 1.463004 16.5012
45.64881 1.479768 17.09829
48.1874 1.474294 17.23522
49.05812 1.46343 17.256
50.70836 1.468833 18.0586
50.74365 1.448254 18.59283
42.60966 0.9374518 19.07555
41.60571 1.50172 17.39427
41.98444 1.499979 16.96355
43.83704 1.476938 16.81407
43.55697 1.47946 16.39107
44.75489 1.478384 16.85107
46.77112 1.479707 17.14489
48.45742 1.474616 17.39603
49.51693 1.460466 17.43009
51.20128 1.444396 18.57502
43.08471 0.9119947 19.27358
40.94984 1.49171 18.41167
41.64674 1.498653 16.91639
41.78513 1.496594 16.48689
44.19223 1.447468 15.78427
43.26418 1.490999 16.09564
44.5996 1.459945 16.22187
45.70852 1.479538 16.72896
47.9221 1.470873 17.05376
49.73686 1.463473 17.58453
51.31566 1.475336 17.74165
50.77162 1.489626 16.97226
51.15026 1.400566 18.8331
42.78613 0.7635157 18.65519
40.63708 1.466967 18.52055
41.70283 1.498224 16.99089
42.56401 1.506844 16.35375
41.78872 1.494508 15.78972
44.04861 1.452241 15.69048
42.75571 1.524066 14.77853
42.99856 1.498743 16.41802
44.75517 1.466693 16.14507
46.342 1.477717 17.07379
50.33986 1.173906 19.14383
49.15821 1.45995 17.01903
51.10526 1.490499 16.51732
51.75188 1.458027 18.35012
50.94107 1.382358 18.89421
49.33364 0.6615164 18.46081
41.03636 1.241806 18.94677
41.00718 1.515473 17.39491
41.51424 1.494509 16.05219
42.32464 1.513938 15.54694
42.40749 1.51408 15.81763
43.59109 1.475743 15.35385
42.95251 1.516234 15.02933
44.78147 1.454029 15.25038
46.16687 1.473913 17.03095
47.9777 1.460177 16.4925
49.97232 1.46973 16.95798
51.43208 1.487358 17.34697
50.85211 1.504103 16.15022
51.94044 1.474149 18.05792
50.0826 0.8133931 18.89675
42.60939 0.7649513 18.64228
40.47893 1.498225 18.16306
41.25473 1.506289 15.99953
41.51757 1.492831 15.71644
42.11115 1.507632 15.28974
43.78802 1.463848 15.27159
43.23359 1.504712 14.71876
43.1338 1.520378 13.82082
45.23118 1.512681 16.10654
47.00956 1.472523 16.47515
47.92876 1.454628 16.27586
50.19896 1.484767 16.94146
49.00931 1.4524 16.59737
50.45101 1.526652 15.96853
51.18285 1.490761 16.51978
52.71071 1.428171 18.42172
48.51387 0.6200408 18.11899
43.44881 0.7409073 18.39772
40.81693 1.554809 16.27647
40.26653 1.523811 17.64313
41.64242 1.480726 13.71318
42.54523 1.532963 13.98473
42.05984 1.504381 14.23817
44.00069 1.447754 14.93964
43.21148 1.515306 13.81076
45.0855 1.496809 15.75317
45.92337 1.462758 16.40246
47.7922 1.439042 15.38576
50.49676 0.8706305 18.96756
49.75372 1.454207 16.80442
48.92708 1.457098 16.31844
51.44461 1.503456 16.01707
50.85142 1.524938 15.3224
51.77299 1.522842 16.95259
50.09717 0.7722923 18.63844
42.12182 0.8285164 18.92126
40.81221 0.9295206 18.89466
39.96061 1.455365 18.36047
41.23447 1.508705 15.02878
41.46796 1.487634 14.22645
42.1526 1.514118 13.47769
44.04607 1.440772 14.52413
43.43536 1.500437 13.67749
43.39743 1.509605 13.00635
44.51843 1.400904 14.39379
46.37412 1.435453 16.50758
47.56984 1.438271 14.88597
48.11721 1.459634 15.90517
51.11811 1.107731 19.04064
50.2036 1.526131 15.62628
49.22449 1.425504 16.35973
50.25091 1.527827 15.73081
50.89668 1.535689 14.65675
51.34655 1.501218 15.64886
52.91427 1.4069 18.45827
43.49534 0.7141838 18.70171
41.736 0.7447566 18.46826
40.90432 0.8594422 18.85853
40.48123 1.605499 16.19219
40.49691 1.571145 16.79123
41.55405 1.480324 13.41217
41.81387 1.481225 13.02115
43.6351 1.483836 13.52891
43.75087 1.479401 12.86927
44.84767 1.420879 14.22246
46.09366 1.426266 16.34523
47.41082 1.449048 15.1278
48.60559 1.47042 15.59814
49.90182 1.470019 15.83633
51.69148 1.542425 15.3397
50.41159 1.541918 15.44554
50.81087 1.544132 14.61938
51.21174 1.523015 14.33612
52.52205 1.475077 17.97932
47.6541 0.619679 17.52931
42.22147 0.7393826 18.25672
42.76365 0.7364392 18.012
39.89063 1.470407 18.23544
40.85305 1.571999 15.12519
41.28204 1.502442 13.79132
42.53849 1.562061 12.58892
41.70232 1.476033 13.09444
44.05612 1.448743 12.95687
45.33036 1.505151 14.81904
46.47047 1.408328 16.03893
47.41334 1.442333 14.76189
48.23954 1.464168 15.40986
51.86234 0.866437 18.77864
49.87366 1.470603 15.37136
51.58944 1.534243 14.86889
51.34605 1.523029 14.20946
51.03505 1.546158 13.71712
51.92167 1.563191 16.47253
50.10104 0.7489484 18.33345
47.50822 0.6307837 17.59678
41.34364 0.7452918 18.22543
44.13803 0.7362346 17.84273
40.59145 1.630358 15.04981
40.96273 1.560078 13.91985
41.44767 1.47654 13.04534
42.01252 1.495536 12.36863
43.21916 1.563268 12.11001
45.13801 1.451854 14.02372
45.61947 1.510865 15.57967
46.9161 1.464152 15.12629
47.20223 1.441412 14.43031
48.61261 1.452515 15.2664
51.57488 0.7723023 18.55905
48.73095 1.415739 14.74727
51.87469 1.595131 14.7088
51.95605 1.596601 15.73734
50.84789 1.568323 13.45877
52.99038 1.394745 18.14046
50.15712 0.7427711 18.08589
47.06389 0.6481491 17.55045
41.37442 0.7520713 18.09342
43.31846 0.7243236 17.32841
40.59488 0.7576807 18.49049
39.72123 1.413354 18.11967
40.68771 1.631218 13.95637
39.97959 1.515944 16.90759
42.77148 1.601659 12.0154
43.15188 1.585606 11.83962
45.7086 1.482361 15.28335
45.53574 1.498781 14.61088
46.43748 1.392871 15.59958
46.90396 1.433136 14.10868
48.25866 1.42829 14.40341
52.0574 0.7911399 18.52701
49.8633 1.482077 14.66898
49.27407 1.382317 15.30271
51.50869 1.53784 13.55988
52.29478 1.70238 14.67744
50.4916 1.603776 13.01822
52.27967 1.64997 16.10534
51.62335 0.7614784 17.83454
49.68305 0.7294672 17.34989
48.89542 0.6797794 17.89406
40.93977 0.7331943 18.38583
42.84372 0.7205344 17.59719
40.09909 0.8483187 18.61115
40.34716 1.669479 15.17129
41.12175 1.521324 13.05802
42.14443 1.519821 12.01307
43.37417 1.566809 11.51787
44.20335 1.430936 12.33018
45.79055 1.457044 15.03214
44.64211 1.406338 12.86861
46.67986 1.422759 14.43472
47.75327 1.405167 13.60824
48.70864 1.386158 13.75709
49.97004 1.51546 14.07955
51.56262 1.545 13.30322
52.20475 1.692568 14.23579
50.94572 1.577925 12.67069
53.35048 1.257463 18.46243
50.90253 0.752406 18.0536
49.92263 0.7303318 17.37398
48.92811 0.7263661 17.68926
41.75246 0.775775 17.56893
41.48667 0.7654933 17.89514
43.53786 0.7141563 16.98249
42.41636 0.7113529 16.61541
39.71643 0.8518294 18.50868
40.37022 1.715361 13.68761
40.93465 1.564882 12.75753
42.10116 1.509503 11.92392
44.35144 1.419595 12.46956
43.54606 1.532111 11.53779
45.81326 1.451141 14.98913
44.72737 1.40287 12.93667
46.53407 1.406592 14.71511
47.44869 1.401055 13.30463
48.16869 1.392054 13.36308
47.43934 1.392477 12.964
52.14426 0.7735756 18.37506
49.78709 1.491109 13.66202
49.00569 1.385144 14.36822
52.30827 1.716234 14.07174
50.59115 1.619395 12.70337
53.03347 1.336912 17.83378
51.67576 0.7659282 17.26462
50.09074 0.735371 17.45423
49.26669 0.7241735 16.93737
47.16722 0.7064924 17.7141
41.4393 0.8120441 17.48385
40.85179 0.6984997 18.16451
43.58938 0.705933 16.72209
42.56097 0.6916146 16.56085
39.33179 1.034605 18.56523
40.27601 1.732566 13.58919
39.83593 1.332565 17.21354
42.7433 1.659412 11.11346
44.59433 1.408204 12.67729
43.64273 1.515581 11.38976
45.78553 1.447237 14.20955
45.28354 1.404847 12.86552
46.52415 1.403686 14.58617
47.84274 1.383932 12.88473
48.27139 1.391403 13.40725
49.26774 1.389669 14.40737
49.58298 1.434792 14.23838
51.46754 1.533105 12.73458
52.23605 1.708059 13.27839
50.89556 1.597679 12.35766
52.63658 1.298326 17.11689
51.19187 0.7687321 17.5549
50.53444 0.751711 17.28835
49.52464 0.7229966 17.0115
49.17548 0.7261153 17.06186
45.98767 0.6736046 17.68781
41.80422 0.7930478 17.14643
42.36114 0.7169667 16.11753
44.67244 0.6855857 16.18723
44.46338 0.687023 16.33487
42.81066 0.6671635 16.44505
39.83889 0.7874281 18.34825
40.00986 1.656413 15.13601
41.015 1.528707 12.26714
39.88335 1.214371 16.93772
42.71133 1.685014 10.711
44.6797 1.386537 12.01695
43.82658 1.480842 11.09328
46.13031 1.393137 14.31499
45.81683 1.405911 12.91604
46.77516 1.416028 13.53541
46.42009 1.38834 12.44645
47.03443 1.387449 12.54583
46.89732 1.365739 11.42936
48.24723 1.381667 13.02592
48.96695 1.389902 13.27474
49.18973 1.395762 13.75771
51.46553 1.52467 12.24904
52.63762 1.639138 14.95079
50.86599 1.614271 11.96314
53.13392 1.409577 17.76475
51.2029 0.8049223 16.6279
51.89421 0.750372 17.67246
49.74322 0.6907561 16.24207
48.95646 0.7280608 17.21553
47.13708 0.6627714 17.24972
41.72927 0.8233176 16.87118
45.47166 0.7093129 16.66602
44.98473 0.699086 16.35082
44.262 0.6898791 16.37349
42.78068 0.6298181 15.50069
39.29704 0.8450418 18.31726
39.9102 1.605779 15.33564
40.89885 1.557768 11.8337
41.35138 1.39081 11.1672
42.8467 1.772074 9.403501
43.05593 1.701787 10.33086
43.6705 1.526317 10.74615
45.18505 1.386873 12.27301
46.09713 1.397037 12.73839
45.77036 1.397215 12.62418
46.96856 1.360811 11.28542
48.30711 1.376199 12.79168
48.85706 1.385983 13.08161
51.61103 1.528039 11.95669
52.55863 1.709125 13.88435
50.82148 1.647523 11.51076
53.50758 1.006526 18.16331
51.25642 0.8271458 16.18608
52.08851 0.7499391 17.98945
49.32987 0.7156028 16.39794
48.14076 0.7227861 17.00037
46.85939 0.7071845 17.02235
41.47116 0.9304006 16.12163
42.49428 0.6887084 15.81901
46.2918 0.7128382 16.72939
44.51769 0.6757349 16.04177
45.17897 0.680461 15.54059
43.4142 0.67129 15.92567
40.26178 0.6624442 17.7778
39.9977 1.748596 13.16043
40.46597 1.730112 12.15293
39.8919 1.312078 16.54788
42.07942 1.505945 10.97156
42.67308 1.751715 9.539174
43.26379 1.700902 9.667087
46.22471 1.390672 13.39382
45.52723 1.387736 12.27064
46.22115 1.374328 11.67342
46.64792 1.348537 10.08056
47.29311 1.356889 11.50531
48.82384 1.383429 12.94705
49.43395 1.442358 12.37181
51.74902 1.547133 11.81939
51.20538 1.538073 11.74247
50.68795 1.687399 11.43551
53.41514 0.8939704 18.08183
51.17812 0.8157635 16.40354
51.94309 0.6871576 16.00583
50.11823 0.7091357 16.18151
48.55911 0.7164882 16.11351
47.55268 0.7183464 16.77159
45.7058 0.6307623 17.31128
42.08928 0.7887864 15.66568
41.83 0.8437942 16.19046
46.43993 0.7074158 15.62257
44.25935 0.676715 15.82111
45.42691 0.6865394 15.54603
45.01547 0.6785302 15.64329
43.35505 0.6314024 15.30266
45.15549 0.6564068 17.43419
39.96515 1.694938 14.17689
40.60633 1.6848 11.45524
41.32533 1.369034 10.7078
42.87186 1.804665 8.838952
42.62288 1.798392 8.392858
43.27885 1.695477 9.69383
44.04938 1.427438 10.56408
45.86899 1.369732 11.56508
45.51277 1.383042 12.09066
46.39445 1.357466 10.69691
46.87616 1.348782 10.42863
47.89714 1.362764 12.25059
52.30692 0.7311349 17.94905
52.30297 1.723483 12.24505
49.74741 1.55608 11.31459
50.6029 1.757773 10.68522
53.50625 0.8862072 17.97913
51.21946 0.8889836 14.77086
51.98145 0.715424 17.00797
50.07505 0.6966009 15.85077
49.54267 0.6779636 15.66868
47.73751 0.7136136 16.1698
47.5058 0.7161668 16.55031
46.07981 0.6948646 17.12551
42.50666 0.683041 15.36273
45.80294 0.7035747 17.1075
46.76077 0.7094116 16.08912
44.3699 0.6625144 15.47822
44.89961 0.649586 14.81289
42.94318 0.6063538 15.29701
39.58475 0.6526532 17.94278
39.80693 1.563292 14.64337
40.61223 1.676865 10.44085
39.92606 1.238219 16.26803
42.09488 1.510168 10.5009
42.44005 1.683484 9.72298
44.9874 1.293632 10.2552
43.2657 1.788372 7.873462
43.55822 1.599977 9.750376
45.50964 1.364993 11.58578
45.07971 1.311262 10.57474
46.33353 1.352257 10.43807
47.18834 1.338341 10.58856
47.9346 1.294213 10.56798
48.49205 1.352133 12.17644
52.58215 0.6368089 17.65405
52.20203 1.695818 12.02554
49.99205 1.674306 10.95427
50.42608 1.797692 10.40683
53.67314 1.234117 17.83189
51.41672 0.891318 14.11063
50.5113 0.7636304 15.78621
48.82616 0.6986594 15.86627
47.94451 0.7169036 15.93892
47.00522 0.7030289 15.45726
47.11118 0.7044038 15.57194
47.02581 0.7170508 16.85246
42.43972 0.7018032 15.00891
40.94961 0.7168526 17.19115
46.62649 0.7036592 15.30838
46.04071 0.6909732 15.1177
44.74347 0.6363646 14.55208
43.73857 0.6696239 15.15048
43.14455 0.581257 14.77794
39.42863 0.6654338 17.96238
39.814 1.648153 13.68795
40.78149 1.570132 10.30252
41.35233 1.319999 9.859015
42.30682 1.626713 9.791144
42.42224 1.725404 8.547244
44.55346 1.319621 10.23315
43.36604 1.686002 9.292439
43.80283 1.50285 9.875169
44.49682 1.307256 9.791621
46.05001 1.342648 10.30056
46.51128 1.334537 9.05774
47.20653 1.334229 10.46155
47.98888 1.274241 10.2262
48.12439 1.307346 11.06203
48.92663 1.36661 12.14602
49.215 1.399684 12.15953
52.55519 1.739619 12.535
49.70151 1.55855 10.79961
50.47155 1.795784 10.36777
53.57125 0.794898 17.75453
51.18906 0.9107739 14.06208
50.98754 0.8672324 14.9452
52.01202 0.6123866 15.59928
48.8372 0.6929647 15.63488
48.31109 0.7133822 15.52231
46.85052 0.7037085 15.50106
41.18076 0.9524223 15.42087
41.7377 0.9475724 14.5609
44.40807 0.6451538 14.87356
45.59882 0.6654154 14.5179
43.87038 0.666458 14.86575
42.79132 0.6227114 14.05207
39.46002 0.5457401 17.7011
39.76088 1.427357 14.71045
40.54194 1.702979 9.581869
39.98401 1.131463 16.08396
42.26136 1.62049 9.207294
42.86442 1.931188 6.353167
42.53895 1.855649 6.733759
44.53745 1.280921 9.260574
43.25697 1.842904 6.894291
44.43107 1.313017 9.603703
45.05458 1.242883 9.250378
46.32807 1.338991 9.723977
46.50893 1.304769 7.66135
47.63999 1.295156 10.09848
47.02036 1.311483 8.585885
48.4081 1.295976 10.96462
48.89198 1.337472 11.52249
51.45448 1.493272 11.00389
52.72694 1.670899 13.17419
50.10197 1.779007 10.0104
52.53913 1.312089 15.39047
53.74419 1.29499 17.58781
51.48741 0.8747585 13.81582
50.83784 0.855821 14.57969
52.33726 0.6060145 17.16349
49.09745 0.6991386 15.19098
48.26602 0.7149342 15.54639
47.39463 0.6981049 14.86072
41.60625 1.006925 13.8671
42.31699 0.7426579 14.74563
41.91556 0.9156773 13.7507
46.42703 0.7039926 14.98681
46.36746 0.7026411 14.91019
44.65261 0.6244285 14.1602
45.49718 0.6429363 13.49921
43.79153 0.6671214 14.98117
40.2734 0.5427094 17.28928
39.75606 1.702033 12.57687
40.30827 1.803836 10.93567
40.75586 1.559479 9.513864
41.92757 1.422139 9.23785
42.92225 1.984504 5.319132
42.54861 1.891787 5.980651
43.50014 1.709354 7.66744
43.19794 1.917142 5.82787
45.35936 1.289276 10.00867
45.58971 1.314693 10.24368
46.1186 1.327556 9.566364
46.68107 1.296049 7.24509
46.38005 1.296057 7.496207
47.47276 1.289998 9.496297
47.11755 1.318432 9.31875
48.32981 1.234373 9.794746
49.11982 1.361616 11.30256
51.83727 1.533358 10.83792
52.77757 1.471969 13.61976
50.21008 1.802601 10.12654
50.44174 1.854217 9.583448
52.92752 1.118115 16.66051
51.63473 0.8022768 13.60425
50.39762 0.7490786 14.91903
52.15019 0.5436215 16.03157
48.95511 0.697374 15.05419
49.78979 0.6362616 14.60828
48.38033 0.7076051 15.40896
47.23444 0.6927156 14.52146
41.2381 1.000931 14.39736
42.34396 0.7535813 13.95559
42.00649 0.8726153 14.033
40.48593 0.4676636 17.12043
45.98051 0.6765248 14.31978
45.90059 0.6591501 13.3181
43.52749 0.5959591 14.18469
42.73466 0.6515873 13.00325
39.74446 1.708488 12.41292
40.2564 1.815118 11.01602
41.21272 1.305118 9.072351
41.88788 1.395399 8.908443
43.04663 1.970672 5.386863
42.41817 1.847194 5.621048
44.55095 1.272878 9.024099
43.78247 1.552159 8.194632
43.27691 1.907902 5.491446
45.41402 1.252872 9.074034
45.96226 1.318366 9.589676
45.93268 1.284025 8.525924
46.30299 1.285762 7.338947
46.51432 1.272934 6.490317
47.16362 1.287864 8.052687
48.45532 1.232342 9.788159
49.34225 1.411387 10.77296
52.55487 1.756117 11.74376
49.78177 1.633937 10.07479
51.05831 1.598156 10.19446
53.425 0.698164 17.59834
51.40315 0.9254265 12.52647
50.44896 0.7736831 14.17825
52.42822 0.5267769 17.01972
50.1629 0.6995994 14.14932
49.38549 0.6602184 14.6237
49.98294 0.6679996 13.62243
47.41441 0.689758 14.22315
41.481 1.033478 13.66732
42.43267 0.7416116 13.19492
42.0873 0.8771336 13.02791
40.56695 0.4655216 17.06207
44.45986 0.6058639 13.60897
44.66464 0.5805323 12.90793
43.957 0.6320074 14.16251
43.04601 0.5872454 13.25747
39.37185 0.3633912 17.19911
39.68475 1.399051 13.76451
40.23584 1.84258 9.814173
40.99319 1.33286 8.145027
41.73976 1.331008 8.97697
42.27805 1.689459 7.438795
42.94221 2.068289 3.505669
42.22701 1.680034 6.424938
42.66803 2.01578 4.167344
44.78938 1.230652 8.582343
43.47348 1.79241 6.127451
43.24358 1.941711 5.049972
45.69067 1.274537 9.011112
45.26556 1.224279 8.596816
46.02077 1.256159 7.271071
45.77187 1.224185 7.210713
46.66117 1.24492 5.563608
46.47768 1.261907 6.1917
47.3809 1.282001 8.78167
47.98759 1.161369 7.644476
48.9265 1.279608 9.867053
51.75454 1.496709 10.27646
52.78914 1.408767 13.22863
50.75477 1.777461 9.548014
53.11321 1.288124 16.70642
51.6464 0.7853006 13.02847
51.01542 0.9720293 12.09606
52.47149 0.4199626 16.69833
50.21045 0.7167209 13.78837
47.87346 0.687678 13.92318
48.41611 0.6920248 14.67071
47.61827 0.688929 13.90729
46.70383 0.6904994 13.95462
41.04787 0.9052469 14.23905
41.81952 0.9724271 13.13806
44.24397 0.6135382 13.75317
44.79661 0.555364 12.17349
45.74198 0.6456373 12.76399
45.4421 0.6229475 12.52774
43.14236 0.5736743 13.31566
39.33165 0.3259917 17.03997
39.76406 1.285216 14.28588
40.19006 1.853494 9.893322
41.08972 1.301044 8.282199
42.12236 1.567033 7.406254
42.95535 2.130305 2.085755
42.24699 1.709184 6.057263
42.62355 2.025439 3.679212
44.79417 1.21359 7.863932
44.08366 1.408708 7.999999
43.42655 1.893228 4.587491
44.17556 1.371926 7.853295
45.30052 1.196206 7.638783
45.54427 1.241864 8.473714
45.66438 1.229096 7.73985
45.94454 1.217789 6.377157
45.74952 1.175318 5.794782
46.98675 1.252514 6.256874
47.19286 1.250969 6.903187
47.51495 1.214875 7.261115
47.44044 1.217927 6.993335
47.75431 1.190989 7.636222
47.85122 1.201413 8.296536
48.37022 1.179935 8.765594
52.88493 0.4804664 17.01209
52.08687 1.614921 10.6702
52.63228 1.303026 13.80919
50.20179 1.86597 9.195339
53.27686 1.576691 16.88858
51.8215 0.6212017 13.77789
50.7145 0.916531 11.90077
50.44072 0.8002245 12.70646
52.161 0.2506685 14.69305
48.10393 0.6803667 13.72857
49.22976 0.6359074 13.58277
49.74517 0.6369798 13.01561
46.54229 0.6975635 13.95256
40.99446 0.8236492 14.47396
42.06806 0.9247969 11.96081
44.16049 0.6008886 13.596
45.01257 0.5801085 12.30902
46.32887 0.6743174 12.98009
46.02 0.6592398 12.69913
43.82415 0.5725214 13.36911
42.92456 0.6060376 12.89789
39.37798 0.3062824 16.97365
39.71418 1.305427 13.68246
40.1249 1.859463 10.13063
41.45772 1.255275 8.446086
43.22087 2.067001 2.607364
42.99035 2.166522 0.8978725
42.28586 1.797235 4.511811
44.67299 1.231677 7.768283
43.63349 1.730328 5.676831
43.42449 1.981365 2.875289
44.77637 1.2002 7.087765
45.91134 1.186284 5.52152
46.11197 1.197654 5.215261
47.10261 1.247697 6.441234
46.16633 1.190422 4.885452
47.56234 1.166489 5.977122
48.31931 1.161419 8.225036
48.15776 1.132608 7.158426
52.88356 0.4617879 16.87073
51.9938 1.564968 10.27502
52.51566 1.241775 13.8657
49.92467 1.767525 9.126346
50.79768 1.776468 9.256351
52.27131 1.037668 15.49393
51.8307 0.5705996 13.60274
51.40942 0.9582095 11.65517
50.35534 0.7745789 12.67738
51.93052 0.4768891 13.96345
48.64149 0.6643784 13.63383
48.69706 0.6520497 13.32596
50.15419 0.7155354 12.65212
47.76478 0.67593 12.71015
47.07663 0.6836838 13.0067
41.07301 0.9291112 13.87273
41.80449 1.027341 11.82696
44.10644 0.573024 13.17966
44.87306 0.5451492 11.818
46.68431 0.6829739 12.68747
46.36474 0.6774264 12.10837
43.60627 0.532927 12.74441
42.65126 0.6766303 11.61302
39.23857 0.7973914 17.33432
40.07033 0.9935142 15.4601
40.49671 1.709859 8.626557
41.48348 1.252542 8.285879
42.06057 1.516697 6.424938
42.80219 2.148994 1.374714
43.12322 2.153334 0.8530186
42.25158 1.817142 3.168818
42.58711 2.093236 1.59766
43.93789 1.501822 6.982085
43.76249 1.623631 6.358702
44.94527 1.170838 6.631793
45.66029 1.140671 5.007855
47.17835 1.190801 5.085743
46.3252 1.149624 3.685257
48.44781 1.148705 7.802195
48.12041 1.110484 6.260509
48.31992 1.137049 7.453302
49.08429 1.299964 9.286666
51.43296 1.473294 9.574925
52.77843 1.364162 12.96635
49.88479 1.774474 8.702405
50.81847 1.777655 8.955385
53.23483 1.485929 16.54651
51.91014 0.3305473 13.10584
51.64844 0.8080016 11.95481
50.82361 0.9928336 10.99583
48.37601 0.6626218 13.22591
48.69474 0.6370561 12.84963
50.18239 0.7245222 12.17855
46.77987 0.6832909 12.76503
41.73869 1.050941 11.77889
40.97648 0.5151618 14.88721
42.21495 0.9111713 10.58415
45.028 0.5544832 11.62956
44.08269 0.4915538 12.01409
46.20375 0.6718706 11.52038
46.51312 0.6843933 12.0288
43.46387 0.5157357 12.36207
39.62287 0.4081499 16.8451
39.62825 1.312867 12.87033
39.65511 1.748587 11.15386
40.42468 1.75153 8.194556
41.33635 1.231037 7.842579
42.04045 1.495878 6.690323
42.58575 2.109497 0.9365886
43.09904 2.179226 0.07361401
42.20073 1.730009 3.910553
42.40958 1.976945 2.494645
44.71235 1.206067 6.775403
43.93758 1.554458 5.360119
43.84342 1.647261 4.581187
45.1006 1.145323 5.758998
45.50242 1.121191 4.624129
47.06344 1.199024 4.970096
46.12675 1.157034 4.1161
46.50383 1.110662 2.894948
47.92177 1.078571 4.466657
48.61703 1.177626 8.292762
53.01791 0.7517634 16.91722
52.59906 1.760621 10.95239
52.46475 1.21583 13.59665
50.21428 1.940347 8.107937
50.375 1.974793 7.811307
53.71468 0.9243453 17.20038
51.73965 0.672618 12.36369
50.70552 0.9427932 11.2491
52.14084 0.1291378 14.01197
48.85652 0.6276221 12.77592
50.18965 0.7247776 12.03472
47.13851 0.6877835 12.35668
46.91721 0.7006222 11.25677
41.15578 1.015435 12.49669
42.46423 0.7611194 11.45977
41.91612 1.027065 10.88094
45.63382 0.6185254 11.3716
44.38804 0.4635245 11.28237
43.92861 0.5064803 12.29764
46.29858 0.6792385 11.058
43.72649 0.4870187 12.06141
42.74721 0.6359652 11.26614
38.73379 1.387882 17.29838
39.52954 1.611169 11.47456
40.5647 1.639561 7.952734
40.83943 1.326756 6.748203
41.58418 1.247607 7.582328
43.48133 2.003004 1.766967
42.72863 2.173826 0.0370237
42.07855 1.558196 3.903431
42.46339 2.048486 1.160694
44.23975 1.383689 5.271927
44.16616 1.408011 5.743087
45.29143 1.132367 5.392578
45.22308 1.12236 4.366496
46.92593 1.159759 3.945345
46.69646 1.105835 2.805419
47.60263 1.123409 4.844494
47.98194 1.078581 4.659954
48.55394 1.135932 6.818245
49.01943 1.270044 8.720136
52.33779 1.691208 10.10773
49.45763 1.490337 8.276224
49.98994 1.886301 7.766232
51.12937 1.586817 8.822942
53.46694 1.830014 16.59053
53.27086 0.7890621 16.83398
51.45858 0.9776216 11.06749
52.51636 0.1466255 15.74174
48.25215 0.6502862 12.52483
49.40515 0.6118065 12.62523
47.47842 0.6859464 11.75019
48.0839 0.6566896 12.37848
41.25062 1.066866 12.13747
40.8996 0.284244 15.42385
42.25087 0.9402872 9.257563
40.38567 0.3302161 16.36053
44.52873 0.4455659 10.80263
46.6608 0.7048956 10.68525
43.56413 0.4579342 11.55236
42.56303 0.7211165 11.05464
39.08139 1.386869 17.00915
40.04909 0.9854859 14.36281
40.07072 1.895158 8.532304
40.99882 1.253559 6.858047
40.1022 0.6119545 15.4075
43.51793 2.034005 0.6344929
41.82146 1.299706 5.860445
42.02155 1.476681 4.131196
42.42273 2.032989 0.7045624
44.28234 1.357859 5.361443
43.90971 1.636194 3.828216
43.81054 1.725572 3.345047
43.71049 1.829643 2.621087
45.24003 1.120246 4.169407
45.74448 1.109485 3.52224
47.36547 1.129925 4.163701
45.99368 1.119431 3.361213
47.61965 1.091111 3.948714
47.91617 1.063547 3.791256
48.48053 1.105042 5.47373
48.83397 1.201608 7.622522
52.92292 0.4125936 16.45787
52.10074 1.554274 9.14309
52.17361 1.081072 14.14974
49.55208 1.585194 7.673216
49.91206 1.873039 7.318196
50.46194 2.021553 6.969332
52.54435 0.8749862 15.68304
53.3897 0.6275992 16.8068
51.79942 0.5688646 12.0383
50.4874 0.856346 10.98734
52.24366 -0.1005619 13.49999
48.83797 0.5999027 12.06019
50.16381 0.7087223 11.56938
47.57747 0.6856273 10.89392
41.33905 1.095856 11.70035
41.0191 0.3492306 14.60556
41.71905 1.094235 10.7015
45.28782 0.558253 10.77822
44.76719 0.4616843 10.51794
46.77306 0.7132562 10.43245
45.50116 0.5843023 10.46073
42.84394 0.5955505 11.18927
39.13205 0.5290779 16.79905
40.05054 0.9575465 13.60211
39.93113 1.905954 8.58007
40.52572 1.614716 6.696189
41.72485 1.281033 7.191038
43.79568 1.835254 1.323158
43.40886 2.130505 -0.2696204
41.97551 1.414375 4.582083
42.23592 1.872706 0.2669975
44.46512 1.28818 4.865344
44.26448 1.430094 3.376067
44.01642 1.625102 2.316619
44.95816 1.150848 4.644835
45.1083 1.132104 4.172431
46.99405 1.096344 2.8477
46.46121 1.05566 1.83295
46.13041 1.036821 1.454699
48.86793 1.194367 6.046883
48.35555 1.076594 4.195478
48.64153 1.120001 4.306624
49.12508 1.300738 7.820256
52.02724 1.54614 9.615305
52.16436 1.077823 14.00616
49.48471 1.528767 7.644696
50.43155 2.026894 6.906011
52.78156 0.9614603 15.72434
53.66357 1.023745 16.931
50.96001 1.076133 10.00521
50.56089 0.9169114 10.20686
52.09773 0.03716017 13.1798
49.26039 0.5602527 11.63122
49.40474 0.5729477 11.78102
47.6327 0.6905877 10.06479
41.16456 1.050528 11.77522
40.78431 0.196264 15.48517
42.32497 0.9263611 8.505207
42.26636 0.9581462 8.478462
44.29373 0.3921127 10.49431
46.43994 0.7163688 9.825176
45.1558 0.5185277 10.33706
42.79428 0.6031528 10.26962
39.29259 0.8992918 17.0956
40.19421 0.7997582 14.03187
40.13056 1.882571 8.292459
39.84119 1.053779 16.2681
43.95872 1.760518 0.5768653
41.86878 1.317837 5.212368
41.94835 1.38531 4.729033
42.27522 1.924072 0.01381727
43.94196 1.740743 1.169442
44.23461 1.537276 1.12643
44.61935 1.23838 4.55178
45.08865 1.143778 3.411813
47.02693 1.111308 3.163666
46.24857 1.025868 1.265145
46.42375 1.017692 1.190588
48.95815 1.22891 5.81671
48.31505 1.060786 2.84668
48.78332 1.162766 4.527679
49.2359 1.36706 7.002549
51.9628 1.491427 8.760872
52.46621 1.725258 10.00863
52.17952 1.08875 13.15942
49.70113 1.75131 6.698817
50.44975 2.054082 6.514352
51.13034 1.615307 7.498387
53.96005 0.7219719 16.79052
51.84026 0.489487 11.58187
49.99527 0.6378539 11.02406
50.84007 1.059904 9.691226
52.96615 0.3988102 16.04983
49.11942 0.5485203 11.38614
48.19939 0.6405507 11.79916
47.47262 0.710356 9.761653
41.07943 1.009717 11.7321
40.82504 0.1415292 15.20055
41.78548 1.118833 9.175757
42.15298 1.01624 8.257094
45.00195 0.4838855 10.19316
43.62246 0.3627932 10.30493
46.31006 0.7038176 9.85533
46.08125 0.6784981 9.680621
42.63306 0.6971093 10.10834
39.31279 0.8458136 16.93163
40.18601 0.8142685 13.52635
39.84793 1.904674 8.394688
40.73612 1.334602 5.799524
39.89082 0.4407147 15.30349
41.94546 1.359298 2.336325
42.07029 1.585996 1.243184
44.40591 1.368358 2.933264
44.30342 1.539923 0.2677651
44.43294 1.38785 1.659921
44.79798 1.211251 3.235332
45.52365 1.090047 2.175771
47.35617 1.062632 2.644642
45.86395 1.028718 1.142386
48.94523 1.221727 4.967369
47.9878 1.047997 3.044859
48.79989 1.168445 2.907223
52.94173 0.5699007 16.14502
52.61652 1.751916 9.886291
52.27812 1.089267 12.51562
49.70243 1.731348 7.110923
50.03088 1.987551 6.408366
50.11875 2.061742 5.716425
53.37077 1.737614 16.08928
53.26583 0.8312807 16.36352
51.78922 0.671874 10.9438
50.62556 0.9749874 9.501184
52.3584 -0.2065905 13.56855
49.8808 0.5909351 10.77448
47.75743 0.6784859 9.807196
47.42009 0.7236333 8.940277
41.00695 0.5000198 13.69506
42.70001 0.6671646 9.174138
42.55314 0.8976173 6.251776
41.84934 1.115856 7.929509
44.90525 0.4590819 10.07714
44.08973 0.2984144 9.675468
46.73491 0.7433947 9.064291
45.77893 0.6209539 9.282088
42.75572 0.6241448 9.704624
39.25481 1.335494 16.52392
40.01056 0.9746226 12.78709
39.51082 1.710096 9.929669
40.28801 1.819452 6.56388
41.49015 1.152162 5.539507
43.83494 1.91038 -0.19521
41.99009 1.432261 1.686236
42.01457 1.468085 1.024136
44.48403 1.396519 0.8819626
44.71867 1.232813 3.277243
45.14722 1.129706 1.896987
47.16348 1.013435 1.516634
47.64869 1.014073 1.966068
45.70243 1.069667 1.897455
49.02684 1.259684 4.583473
48.47287 1.079354 2.670292
48.69298 1.131539 2.203531
49.17338 1.339279 5.784082
52.11766 1.5261 8.395932
51.98465 0.7990669 14.40175
49.49987 1.584046 6.306584
50.87505 1.907511 6.004311
50.67834 2.043018 5.673553
52.60424 0.861988 15.27638
53.55092 0.43444 16.40218
52.01199 -0.01436946 11.82488
50.96277 1.106416 9.315554
50.50238 0.9219255 8.708338
52.57354 -0.2397906 14.07737
48.48142 0.5973531 11.23311
49.65134 0.5118178 10.34212
47.82012 0.6663823 9.572904
47.21457 0.7365418 9.253016
40.96446 0.5973997 12.64121
42.81595 0.5909067 9.361143
42.61488 0.8435194 6.458304
41.6569 1.141987 9.517882
41.74797 1.135874 7.66584
44.79798 0.3907557 9.382165
44.09155 0.2706824 9.278032
46.97903 0.7623135 8.415967
46.43317 0.7232573 8.798242
42.95617 0.5168872 10.0101
39.88277 0.3901954 16.07642
38.74213 1.257384 16.95774
40.24506 0.7386291 13.36597
39.75693 1.89828 8.167467
40.64454 1.341115 4.706246
41.39772 1.143318 5.583423
41.56099 1.150193 5.070849
41.75843 1.177871 2.997854
44.60973 1.374707 0.06928068
44.90274 1.185402 1.9907
47.0479 0.967518 0.7875268
45.84058 1.015031 0.4457358
46.93924 0.9426094 0.4506678
49.0882 1.292335 4.600244
48.20027 1.04262 2.46854
49.30307 1.424847 6.036803
52.35442 1.630966 8.535173
51.98203 0.7320314 14.38425
49.65614 1.768841 5.453563
50.46209 2.113753 5.481567
52.42421 0.7874908 14.96886
53.9337 0.4982896 16.62981
51.89029 0.3100663 11.18461
51.06745 1.12775 9.117232
50.64899 1.005687 8.858219
50.0012 0.5932759 8.930524
52.66096 -0.2600771 14.08231
48.42473 0.5951968 10.97708
48.37244 0.6014998 10.95394
47.86728 0.655028 8.955498
41.38802 1.157465 10.1434
41.01759 0.06874757 14.30095
42.71376 0.739411 6.957327
42.61998 0.9112478 5.133751
41.56123 1.165743 7.946629
41.58715 1.161941 7.802274
44.33313 0.2901872 9.214335
43.88229 0.2720509 9.348261
46.89974 0.7827615 7.771225
47.05523 0.7830046 7.676414
46.3403 0.7108097 8.950773
46.15919 0.6854571 8.70604
39.4128 1.222944 16.20079
38.41603 1.366938 16.68222
39.46989 1.308548 11.07004
40.25951 1.83323 6.358985
40.895 1.161639 4.682181
41.60595 1.1365 4.28725
41.72912 1.181561 3.855404
44.90527 1.186397 1.66543
45.35805 1.084407 1.070621
45.64159 1.041375 0.9261799
46.62392 0.9225218 0.1110567
49.13877 1.331454 3.914906
48.467 1.068909 1.885549
49.37694 1.491543 5.506288
52.35817 1.615146 8.143598
52.40609 1.581239 7.031803
52.4118 1.10303 11.85328
49.67212 1.816654 4.731906
50.89886 1.924028 5.329182
50.33191 2.151152 4.916046
53.45723 1.868 15.89953
53.63673 0.9627804 16.64098
51.86409 0.4712566 10.23457
51.80614 0.7149318 9.93864
50.39685 0.8514305 8.500982
50.17014 0.6914632 8.695081
52.34748 -0.3312691 12.51687
49.45675 0.4478528 9.716153
48.43386 0.5558035 9.872223
47.8664 0.6553766 8.615335
47.28758 0.7523834 8.154869
40.89802 0.7777376 11.54598
42.93897 0.5162755 9.255196
42.7907 0.6715608 7.106285
42.62912 0.9670795 3.683179
41.48461 1.172972 9.234528
42.24527 1.047795 5.623393
44.53662 0.247003 7.781583
43.96041 0.2421053 8.787822
46.89474 0.8046162 7.07354
46.50286 0.7423685 8.245906
45.46735 0.5202571 8.312634
39.76387 0.382363 15.88545
38.50955 1.259769 16.54827
39.99968 0.3997468 14.73262
39.93772 1.943913 6.9923
40.71434 1.236908 4.106375
40.01696 0.6678065 15.40302
41.79337 1.16619 1.031726
42.00242 1.454766 -0.4530846
44.86277 1.198595 1.963279
45.46735 1.068117 0.5996884
47.13955 0.9181492 0.1974965
47.78053 0.9705524 0.9174214
48.93227 1.253098 1.388096
52.58756 1.712884 8.520602
53.00912 1.665992 10.30957
51.97655 0.9296753 12.75775
49.72678 1.884963 4.529501
50.85655 1.96755 5.221684
50.19044 2.15548 4.480995
53.47991 1.893235 15.85832
53.87147 0.8328019 16.43547
51.86834 0.5767437 9.135651
51.67447 0.9542959 9.175315
50.46586 0.9036351 8.25376
49.86348 0.5214935 8.072683
52.83718 -0.2219127 14.22669
48.96234 0.4472921 9.390672
49.29747 0.4330162 9.634373
48.35013 0.5472147 8.998078
47.5847 0.7204768 7.715592
47.39549 0.7958955 5.714535
40.91846 0.6752396 11.99303
40.46096 0.05478508 15.05857
42.86889 0.6187164 6.828288
42.85543 0.8268593 3.41921
41.43316 1.178012 9.112114
41.5014 1.142065 6.693362
44.98896 0.4226036 9.029059
43.78955 0.2284583 8.398887
43.43734 0.3092977 9.011085
47.16237 0.8289642 5.626982
45.70404 0.5824319 8.179872
43.31264 0.3445306 9.01872
38.66756 1.586646 16.56248
40.08734 0.8837714 12.18411
39.38623 1.453017 10.27407
40.24732 1.835918 5.827497
41.08159 1.111233 4.825332
44.17886 1.684534 -0.4351812
41.83262 1.200934 0.8720946
44.9011 1.239386 0.1181794
47.25665 0.9271568 0.2490556
49.34084 1.50778 3.210664
47.99558 0.9881188 0.6441141
48.80371 1.186873 1.33533
51.68254 1.408265 7.473049
52.49662 1.611715 6.889102
52.68893 1.159935 11.33365
49.40101 1.55011 3.963813
49.83428 2.007421 4.057313
50.78131 2.057594 4.579518
52.61232 0.9186771 14.90266
53.94696 0.3890469 16.31728
51.93789 -0.0464646 10.40859
50.91117 1.137566 8.052654
50.66647 1.033765 8.057868
49.84241 0.5061858 7.578357
50.19975 0.7167634 7.34527
52.78363 -0.367414 13.67902
49.55099 0.4381646 8.737681
48.2779 0.5552585 8.564484
47.84272 0.6633217 7.329258
47.22397 0.8261659 5.374516
40.90802 0.9023649 10.98262
41.15302 0.1983639 12.58493
42.96275 0.529036 7.009151
43.01747 0.5760071 4.872475
42.82251 0.8476446 3.521648
42.57951 1.007647 3.021068
41.97029 1.092666 5.439174
44.37688 0.220869 7.767559
44.65709 0.2485888 7.317545
43.86409 0.2077679 8.090059
46.49153 0.7704278 7.035088
47.01638 0.8350478 5.552504
45.91231 0.6394909 7.816102
39.19318 0.0347916 15.74544
38.39494 1.42976 16.59706
39.86689 0.3084892 14.57859
39.97074 1.946226 6.527686
40.56326 1.358882 3.62432
41.16054 1.066432 4.10078
44.24867 1.634521 -0.7439746
41.50142 1.05798 3.22173
45.16265 1.138514 0.5690336
46.5512 0.9221469 -0.2492746
47.99006 0.9879825 0.3934543
48.87685 1.249684 0.7325025
51.58023 1.402134 6.816215
52.30536 1.477749 5.703134
52.16543 1.422897 5.785508
52.15643 0.9927817 11.73207
49.63649 1.844453 3.309675
49.91716 2.077319 3.792492
50.82252 2.06404 4.095654
50.12322 2.176948 3.830402
54.25471 1.740053 16.19773
54.18884 1.546026 16.32302
51.88033 0.444424 8.940005
51.8558 0.690656 8.564555
51.80362 0.8561645 8.198194
50.49651 0.9452776 7.163468
49.80333 0.4753008 6.613485
52.93652 -0.2066004 14.16759
49.12803 0.4132858 8.815737
48.32757 0.5342377 8.260985
47.54662 0.7503508 6.364601
41.2397 1.159148 9.729045
41.15805 0.05281511 13.42817
43.00272 0.4921665 7.310821
43.16961 0.4786528 3.589059
42.86798 0.8365576 3.009654
41.23602 1.178342 8.405008
41.58813 1.118353 6.10004
44.38796 0.196601 7.333198
43.84216 0.1810718 7.524274
44.23877 0.1469703 6.704161
46.54438 0.7910516 6.06109
46.92807 0.8516829 4.371506
45.26943 0.4485992 7.866427
39.13179 0.03576439 15.71804
38.51301 1.246866 16.43245
40.33451 0.4693307 13.24332
39.63131 1.884163 7.586916
40.34668 1.722309 4.685019
40.91718 1.107686 3.857348
39.77822 0.4663367 14.96679
41.38862 1.034616 3.216127
45.2157 1.137643 0.134084
46.60329 0.9108542 -0.4226192
48.31344 1.066309 -0.07650436
48.79625 1.223578 0.4410143
51.8484 1.394335 6.970012
52.70271 1.691192 7.011958
53.02423 1.280508 10.62041
51.84076 0.613139 12.87601
49.58957 1.837067 2.306302
51.05103 1.78757 4.73632
50.49646 2.210067 3.825222
52.60983 0.9487408 14.77114
53.88843 0.3431842 16.1575
51.8879 0.2828096 8.403763
51.88339 0.5556817 8.444947
50.83837 1.143949 7.007174
50.27388 0.7765923 6.593105
50.01487 0.5894588 5.803576
49.43728 0.396642 7.979119
53.03253 -0.1038239 14.17745
48.91948 0.4122484 8.319832
48.8266 0.4331717 8.536985
48.26774 0.526944 7.074076
47.52506 0.7722548 5.346096
41.04353 1.090799 10.03054
41.17638 -0.06214014 13.13307
43.21056 0.3738567 5.311867
43.00429 0.759747 1.999856
42.91759 0.839452 1.9132
42.2445 1.081821 3.445539
41.97112 1.086003 4.202547
41.13796 1.147859 6.973041
44.9072 0.3010359 7.024771
44.2038 0.1016795 5.808074
43.99246 0.08835223 5.511332
46.82246 0.8403077 4.99948
45.76862 0.5964316 7.555316
39.90449 0.3441159 15.36108
39.29485 0.693791 16.06544
39.97591 0.2890493 14.33622
39.34362 1.65209 7.939572
40.17031 1.881628 5.128558
40.60804 1.222757 2.589387
41.25439 1.028033 3.349814
41.52173 1.001376 1.118963
45.38678 1.101107 -0.184619
46.72029 0.9076056 -0.3300532
49.29685 1.562376 0.7993397
52.90527 1.74138 8.84403
52.76828 1.727969 7.889997
52.28116 0.9861667 11.23053
49.45046 1.706662 1.441859
49.85705 2.071785 3.022144
50.99556 1.94592 3.363145
50.81188 2.127986 3.167151
50.03111 2.202228 2.673424
53.28224 0.7931145 15.21195
52.01905 -0.2032029 10.19649
51.90648 0.646301 7.306385
51.13554 1.203868 7.181913
51.6493 1.080961 7.298321
50.29754 0.8017213 6.314342
49.59704 0.3952445 5.794469
50.15073 0.6895252 5.192274
52.5543 -0.4588522 11.83305
49.41504 0.3886741 7.779341
48.12062 0.5803128 7.444722
48.17159 0.5565153 6.571357
47.31701 0.8230993 4.095336
41.0111 1.08557 9.761685
41.21132 0.007674186 12.88493
43.23124 0.3831227 4.386916
43.0566 0.6799527 2.496624
42.66992 0.9896431 1.538508
41.08596 1.154811 8.265095
41.90982 1.082031 3.59
41.25725 1.11086 5.90606
44.86986 0.2628841 6.382674
43.8881 0.1181432 6.141475
43.97761 0.07242654 5.091463
47.07681 0.8478234 3.699484
45.52829 0.5178871 7.285176
45.13367 0.3890497 7.44996
39.42574 0.2124307 15.50638
40.15381 0.7368368 11.85313
39.48047 1.085829 10.05869
39.5521 1.883604 6.885045
40.49257 1.37669 2.607025
39.59127 1.211285 15.38363
41.30295 0.9841532 2.226909
47.21131 0.9055734 -0.6264296
49.40904 1.684656 0.8522614
52.98076 1.727587 8.22344
52.79892 1.705672 6.879313
53.16647 1.522262 9.931877
51.87123 0.6843331 12.28992
49.77888 2.032796 2.618989
51.054 1.92544 2.464918
50.19739 2.259192 2.665996
53.53475 1.949953 15.45365
52.34586 -0.419572 11.36078
51.91181 0.5116529 7.407712
51.52446 1.118049 7.869274
51.84042 0.918136 6.803815
50.2123 0.73677 5.496437
49.56405 0.3738882 3.922238
49.89733 0.5184603 4.047574
49.49072 0.3725128 6.150856
52.55755 -0.4824977 12.17181
49.2105 0.3447961 6.739936
48.34893 0.4950503 6.686343
47.28127 0.8278525 4.023229
47.8178 0.6844804 4.087702
41.19018 0.0480801 12.1094
43.3573 0.2739013 4.942966
43.34653 0.3545196 2.038455
43.04967 0.7714468 0.6225985
41.07997 1.152921 7.798476
41.79057 1.072027 3.96454
41.17437 1.070758 5.00572
44.39304 0.06732065 4.692659
44.55174 0.1705532 6.220914
44.59407 0.1443979 5.494942
43.90006 0.0798068 5.099119
43.99219 0.06038144 4.779645
46.44009 0.7856578 5.195692
45.89452 0.6310397 6.792582
45.0965 0.3400349 6.455514
43.40965 0.2469811 6.26906
39.16257 1.257014 16.26182
39.77417 0.179033 14.20327
39.32572 1.662531 7.575705
40.23407 1.83358 4.183648
40.51704 1.275918 1.976459
41.12492 1.012762 2.932951
41.04592 1.009304 2.678644
47.61069 0.9393111 -0.6211014
49.51331 1.839617 0.3429779
49.1532 1.547899 -0.3115596
52.14003 1.380194 4.967545
51.93826 1.343835 5.083413
52.33282 0.9690816 10.97426
49.80091 2.093686 1.709932
51.19148 1.657607 3.407563
50.95601 2.113823 1.546479
49.94128 2.17962 2.136361
53.63273 2.023429 15.50926
54.12143 0.6920837 16.0347
51.91576 0.2641578 7.619105
51.34245 1.188376 7.428147
51.77435 1.015895 6.571085
50.32073 0.8385389 4.748291
49.75103 0.4469153 3.295983
49.30801 0.3425881 5.943927
52.99116 0.2575766 14.49032
48.92442 0.3537289 6.417153
48.45895 0.4454349 5.631882
47.2312 0.8210275 2.716562
48.04106 0.5978504 4.971062
47.8671 0.6655043 3.955101
40.88004 0.5364636 10.60568
41.03921 -0.1497255 13.12405
43.30264 0.3342795 3.942386
43.26308 0.5288491 0.8957089
43.15295 0.66789 0.7722602
42.78158 0.9391043 0.9442923
41.86403 1.039508 1.629442
41.70559 1.042655 2.758624
41.04189 1.13599 6.941837
44.94927 0.268769 5.948593
44.70728 0.1081484 4.156926
43.68544 0.1243616 4.991399
44.04198 0.01341141 3.555203
46.52953 0.8123556 3.729207
46.29198 0.7488008 4.994686
46.97571 0.8485091 3.047098
39.68807 0.3247787 15.24714
39.90342 0.7658865 10.79181
40.25228 0.1551911 13.34072
39.46754 1.871654 6.312837
40.34272 1.674702 3.009277
39.79987 1.098045 15.15895
41.40984 0.946503 -0.1232318
48.12707 1.039037 -0.5942641
53.18423 1.615457 8.991136
52.23845 1.400578 4.610529
51.67696 1.36782 6.070805
52.6808 0.9840603 10.07405
52.17414 0.6205133 13.82016
51.2112 1.645919 3.030178
51.09131 1.906689 1.866058
50.58865 2.293049 2.009954
50.04981 2.270778 1.36931
53.24321 0.8438991 14.9615
52.28193 -0.3411453 10.26949
51.97772 0.6787318 5.675365
51.31982 1.234227 6.44794
50.66878 1.093078 5.845871
50.4566 0.9618521 4.387634
50.15401 0.7054089 3.577712
49.77861 0.4617487 2.869138
49.37368 0.332583 4.138719
50.02049 0.611884 2.443933
48.99276 0.3328675 5.368875
48.7809 0.3596993 5.44294
48.60604 0.4004945 5.505177
47.58277 0.7596318 3.671055
47.01217 0.8362201 2.145141
48.19639 0.5324388 3.552256
47.72256 0.7167186 3.839986
41.02599 0.1986348 10.63623
43.52158 0.1870857 5.247617
43.48446 0.2235213 1.704809
42.42261 1.03954 0.9019072
40.987 1.132326 7.855297
41.66051 1.009067 1.863507
40.88104 1.05945 5.443902
44.37671 0.02557976 3.854229
44.84072 0.1564637 4.318221
44.78596 0.05548047 2.625027
46.07684 0.6849534 4.182918
46.1978 0.7266389 4.123334
46.83072 0.8399548 1.892518
45.54195 0.5000826 6.393102
39.19876 0.5989222 15.48519
39.56447 0.2027598 14.28597
39.25702 1.407278 7.858484
39.9973 1.961891 4.723537
40.46764 1.2638 1.191896
41.26245 0.9362602 1.050055
47.8732 0.9864555 -0.2888373
53.15257 1.670693 8.210611
52.9049 1.684658 5.445061
53.10217 1.707652 6.993071
52.80309 1.021263 9.922945
52.19125 0.6430725 13.77136
51.34687 1.478116 4.311222
51.22684 1.684598 1.428182
50.49219 2.304795 2.138206
50.1566 2.333785 0.7932335
54.12442 0.35038 15.85638
51.9416 0.02578104 8.35889
51.89487 0.8777671 6.021833
50.9789 1.260153 4.136836
50.77757 1.169213 4.962293
50.55186 1.028406 4.960546
50.26931 0.828495 2.239437
49.49734 0.3623669 2.519546
49.85674 0.5105351 1.859109
49.01507 0.3265196 4.973125
52.85984 0.3794766 14.39701
48.71285 0.3660155 4.962945
46.94534 0.8306555 1.250816
48.29983 0.4916751 3.888446
48.16836 0.5405612 3.165115
41.12771 -0.01450372 11.4019
43.49688 0.1985333 3.386238
43.52265 0.1979079 1.469975
42.16514 1.051267 0.9354497
42.01893 1.049074 1.211977
41.69599 0.9933093 1.161022
41.01274 1.017334 4.272734
44.26946 -0.0002704752 3.382905
45.44001 0.4477191 5.825001
45.01782 0.2244641 4.402675
43.90089 0.0356158 3.555755
45.96973 0.6433867 3.852256
46.21365 0.7396687 2.71991
46.79517 0.8413409 2.154208
39.04731 -0.06700682 15.19886
39.71495 0.1099876 14.02638
39.27858 1.317154 8.183316
39.61145 1.966544 5.390822
40.29981 1.723009 2.360099
41.00638 0.9568017 1.437659
49.16869 1.58427 -0.7210062
52.97709 1.693549 5.435015
53.13826 1.700098 7.163498
53.11795 1.24584 9.922694
52.23734 0.4475809 13.33538
51.06357 2.06812 0.4738722
50.53815 2.322917 1.685433
50.11856 2.338328 0.1624858
53.27224 0.7667665 14.75267
52.05068 -0.1870891 9.196955
51.87821 0.9800311 5.23184
50.97424 1.268121 3.708403
51.1036 1.279586 4.560869
51.6163 1.16053 6.088247
50.48341 1.000069 3.537649
49.17951 0.3151555 3.501662
49.60984 0.4040831 1.809888
49.02359 0.3197757 4.291696
52.79664 -0.3749641 12.4237
47.78411 0.6808594 2.575706
47.50194 0.7572003 1.650932
48.33797 0.4782346 3.356473
48.21308 0.5223101 2.287282
41.00937 0.1584222 10.4687
43.59655 0.1359916 3.330883
43.57758 0.1987121 -0.1498915
42.48299 0.9968294 -0.152789
42.66529 0.9611239 -0.09786737
41.31301 0.9658349 2.650486
41.42184 0.9630851 2.028434
41.17957 0.8788738 1.274467
40.74658 1.038149 6.36352
44.32011 -0.01403488 3.016707
44.44919 -0.08372592 1.23649
45.66494 0.5146178 4.529989
44.95599 0.08989734 2.019734
43.92434 -0.003686107 2.529957
45.74062 0.5543668 4.835957
46.06801 0.6825843 3.256586
38.96437 0.3926056 15.37342
40.03381 0.002364799 13.48982
39.22739 1.321178 7.492645
39.529 1.961004 4.90539
40.38078 1.479247 1.503207
40.41978 1.219773 0.3723231
41.03732 0.897021 0.2414815
53.25546 1.631842 7.684174
52.16691 1.338363 3.613008
51.61708 1.353532 4.690848
52.52047 0.887423 10.03552
51.42313 1.427183 4.059448
51.31504 1.552479 1.635967
50.36067 2.350134 1.303245
53.18251 0.9135851 14.77785
52.06592 -0.1753153 8.922658
51.94888 0.9002821 4.855618
51.07812 1.288104 4.042665
51.30832 1.287872 4.485121
50.59415 1.104467 2.615087
50.48205 1.047496 1.153814
50.35795 0.9071999 2.506475
48.96597 0.3237164 3.505908
49.30312 0.3247472 2.940994
49.67807 0.4296722 1.508895
49.8333 0.5296649 0.1334585
53.08472 0.01013693 13.60012
48.73318 0.3617919 3.179839
47.93211 0.625193 1.789043
46.93741 0.8414018 0.3918326
47.46364 0.7758689 0.6057632
48.58064 0.4032303 2.297848
40.84214 0.4801653 9.711
40.49811 0.3788378 14.06095
43.50112 0.2930931 -0.5027942
42.08226 1.006719 0.008165185
41.02556 0.8749354 2.041949
40.9104 0.8142692 1.159975
40.72139 1.013689 5.530101
40.72431 0.9874282 7.551316
44.71531 -0.02034079 1.475006
44.56164 -0.05869791 1.39882
45.16647 0.2477837 3.424706
44.05402 -0.05750355 1.497551
46.10931 0.6854885 1.536377
39.95335 0.3149584 14.71833
39.93534 0.5259529 9.935609
39.24579 1.106961 7.346987
39.77682 2.019368 4.158768
40.33815 1.374367 0.2677837
49.62969 2.041476 -0.4148362
52.92787 1.647641 4.123954
52.70371 1.535276 3.065341
52.70541 0.921864 9.636359
52.07503 0.1949353 12.80144
51.00504 2.19145 0.01086792
50.60172 2.38689 0.1114736
53.54697 2.003481 15.31275
52.2556 -0.2440455 9.040304
52.05371 0.352805 5.805361
51.20134 1.317523 3.171579
50.8349 1.232524 2.961215
50.62271 1.120312 2.801125
51.84642 1.06699 4.61468
48.95064 0.3258547 3.129721
49.77677 0.4977614 0.3306527
48.80876 0.3506131 2.562386
48.10117 0.5706689 1.252175
46.85654 0.8408545 0.2530838
47.11114 0.8263217 -0.2408855
40.67661 0.809347 8.295888
41.01379 -0.2210974 11.57784
43.72954 0.05852585 1.075611
42.85894 0.8495669 -0.770071
40.66729 0.7691278 1.157998
40.62334 0.9585769 6.061122
44.93118 0.03082888 0.9266758
44.25109 -0.1181411 0.3225208
45.27629 0.3013187 3.45531
45.15135 0.1752881 1.883258
45.7328 0.5328252 3.029472
46.28224 0.7389504 1.260455
39.02202 -0.1113852 14.97745
39.88553 0.5585905 9.812984
39.17815 1.283565 6.848274
39.90479 2.023467 3.266808
40.71392 0.9510689 0.07294896
53.28017 1.673111 5.289105
52.24458 1.313981 2.43451
53.1167 1.175071 9.537929
51.9954 0.1904731 12.44681
51.20454 1.853945 -0.05965681
53.38788 1.669694 14.8658
52.37889 -0.2355079 9.111168
52.24135 0.2156796 5.396848
52.22086 0.3862552 4.582795
51.22709 1.322344 1.357478
51.51921 1.259072 4.316812
51.74434 1.154651 4.476067
49.30251 0.3746489 0.08308616
49.48822 0.4066072 -0.2635541
52.93124 0.2285816 13.71534
46.36858 0.7572289 0.8637602
46.90659 0.8364229 -0.2420951
47.67635 0.7186077 0.5796043
48.51488 0.4310192 1.300437
40.94135 -0.1639005 11.04319
40.1084 0.3166017 14.47385
43.82824 0.002785819 0.824892
40.64352 0.8336542 7.810701
40.84272 0.7991655 0.7573935
40.55989 0.9198863 5.541409
45.14414 0.1330093 0.9334592
44.14914 -0.0893913 0.9219429
45.28583 0.2878224 2.978412
45.31356 0.2898251 2.534614
45.99197 0.6452811 1.910233
39.27896 -0.1062936 14.8846
40.02787 0.4990816 10.2916
39.48015 0.9178607 8.891384
39.14376 1.411494 6.214087
40.0755 1.961343 2.571098
40.49065 1.105866 -0.1243011
53.2297 1.681897 4.774498
52.77456 1.555805 2.867374
51.75061 1.299911 2.982697
52.09471 0.446527 11.41074
51.06116 2.190776 -0.3402249
50.89938 2.33173 -0.3433824
52.74903 -0.2146446 12.12564
52.16309 -0.05904195 7.436148
51.96172 0.9722074 3.985846
51.26066 1.325712 2.027164
50.73694 1.211764 1.329901
51.66864 1.221433 3.738388
49.27808 0.3822474 -0.3589625
49.0202 0.3366463 1.534744
52.96341 0.1526794 13.47214
46.55729 0.8003885 -0.5250121
47.84825 0.6649674 -0.2514159
48.46816 0.4694814 0.1017275
40.72741 0.5995539 8.851541
40.90954 -0.1605941 12.33088
43.72624 0.05811647 -0.9150913
42.25344 0.9674298 -0.7023934
40.43414 0.7196371 1.960648
40.69462 0.9054688 3.595649
40.6287 0.8322954 2.939879
44.05361 -0.08886769 0.06339275
45.6631 0.4873396 2.533425
45.70714 0.4678032 0.8344518
45.69809 0.4931374 1.845779
40.26724 0.3661415 11.102
40.68077 0.1849396 12.81066
39.45888 0.8819851 8.481698
39.24864 1.776639 5.045754
40.2095 1.842847 1.357737
39.91794 0.5921304 14.63814
53.05781 1.665355 3.673532
52.86005 1.588603 2.74784
52.36737 1.29268 1.121726
52.19117 0.5767372 10.27903
51.58585 1.34039 1.970497
50.48592 2.436425 -0.1533141
52.86897 1.06626 14.53177
52.32089 -0.1289836 7.841514
52.45848 0.1783812 4.931817
52.26323 0.4012593 4.278589
50.98602 1.29392 0.7272894
50.68632 1.191498 -0.1951899
48.90685 0.3730828 0.3849049
52.6483 0.4272519 13.65523
48.1556 0.5655467 0.1905484
48.60353 0.4411145 -0.1483723
40.67033 0.5634857 8.242257
40.9331 -0.03470639 12.59664
43.54371 0.2412163 -1.062313
40.40387 0.7162628 2.261434
40.42472 0.740037 0.9529538
40.52845 0.8693272 4.219465
45.48338 0.3072747 0.2903294
45.15425 0.09425496 0.01393196
46.02598 0.6235033 -0.1360718
38.92248 -0.08908603 14.81848
40.24664 0.2323821 10.84123
39.57018 0.6408792 8.077886
39.19291 1.054547 6.634129
39.40674 1.933169 4.346975
40.18304 1.838132 0.1789672
53.37993 1.2723 8.106478
53.30192 1.670614 3.960542
52.55463 1.386601 1.485486
51.74963 1.295046 2.524401
52.15799 0.3664061 11.56247
51.3401 1.540071 0.162379
53.12918 0.8831016 14.49559
52.4594 -0.09975173 7.818464
52.54613 0.150744 5.055153
52.09046 0.8376424 3.471698
51.43787 1.308342 1.599702
50.79536 1.238554 0.7694533
48.77987 0.3878113 0.5011663
50.22215 0.8113248 -0.5667709
52.52015 -0.1887539 12.3169
48.42986 0.4908992 -0.5123994
40.83622 -0.2931732 11.72129
43.44264 0.3655129 -1.098651
40.31884 0.6898677 2.33585
40.72219 0.8079919 -0.06155843
40.44885 0.7844064 5.857647
45.47464 0.2876517 -0.14533
45.95126 0.5781099 -0.4639925
40.34103 0.04084455 11.10271
39.92767 0.360773 9.281027
39.37754 0.7115461 6.911225
39.17399 1.698161 4.789233
40.02309 2.021661 1.162084
53.45057 1.367777 7.556873
53.49357 1.585482 4.771494
52.64752 1.414317 1.209114
52.33965 1.263449 0.6680558
52.23525 0.3126329 11.37428
51.72388 1.278965 1.255284
50.85255 2.373528 -0.6039814
52.55387 0.04163562 9.136055
52.79342 0.2457814 3.920439
52.49082 0.35362 3.616131
51.56397 1.282169 2.081098
51.00149 1.287435 -0.01725831
49.298 0.3700979 -0.7382855
52.59623 0.3833529 13.16113
47.12029 0.7980969 -0.7692584
40.68792 0.1261567 8.994461
40.45803 0.4125811 13.84336
41.1437 0.8372025 -0.4332373
40.1545 0.6896268 1.425106
40.30481 0.6981526 4.809214
40.46172 0.6539424 6.645413
39.44189 -0.172232 14.42665
40.42385 -0.09138368 10.76199
39.48302 0.6133008 7.254151
39.06054 1.303445 5.177722
39.65656 2.072762 2.60225
53.31664 1.181668 8.326038
53.47167 1.623538 3.86853
52.59879 1.330909 0.1854244
53.0559 0.9458141 8.527975
52.4436 0.1459326 11.63437
51.45115 1.44743 -0.402218
52.46741 0.1286037 9.962353
52.68359 0.1158667 5.45937
52.83107 0.3684484 2.655126
52.19279 0.7736684 2.851737
51.45761 1.293249 0.9454815
50.91096 1.240134 -0.8701572
52.85073 0.1690653 13.05472
47.67735 0.7011824 -0.9730426
40.69304 0.2642142 8.601269
40.65232 -0.2621183 11.68068
41.34623 0.8461068 -0.6132727
39.93298 0.6969075 1.325189
40.3747 0.631478 6.025057
45.96248 0.5674464 -0.6256734
40.46074 -0.1453929 11.05339
39.62301 0.4467489 7.322538
39.0549 1.269045 5.07619
39.55647 2.060254 2.451653
53.2782 1.137253 8.374298
53.52403 1.58564 4.283605
52.84618 1.47632 0.5778785
52.20807 1.230514 0.5950568
52.34116 0.2322935 10.92489
53.27178 0.7152882 14.61482
52.73557 0.08787523 6.994347
53.00113 0.2859168 3.70874
52.68235 0.3948837 2.762236
51.94169 1.089359 2.518399
51.63533 1.230182 0.03208531
50.57816 1.103258 -0.8496328
46.55934 0.7772138 -0.9309509
47.97962 0.6122229 -0.9866824
40.45208 5.050857e-06 9.406537
40.16711 0.2093947 13.86051
39.87735 0.6286862 2.114616
40.27017 0.7878291 0.1573782
40.01684 0.5643159 3.676268
44.85686 -0.1259761 -1.019415
40.53443 -0.1930334 11.8196
39.69463 0.3960888 7.517722
39.03511 1.32191 4.690296
39.70074 2.103796 1.63307
53.30969 1.051315 7.784881
53.52661 1.602974 3.393622
53.05027 1.547655 0.1814083
53.04088 0.7956827 7.817438
52.2868 1.051944 13.73945
52.51558 0.1235179 9.318805
53.0368 0.2740205 4.24507
53.15261 0.4004833 2.322752
52.35236 0.6345082 2.557541
51.78386 1.195807 0.9434835
52.01525 1.055939 1.844051
46.20903 0.6786327 -1.132462
40.21144 0.1156871 8.556747
44.33449 -0.1814306 -1.140788
39.99304 0.756223 0.6654176
40.1221 0.4887052 5.207806
44.68737 -0.1679307 -1.112716
40.45028 0.3011794 13.31325
39.36988 0.6002906 6.011608
39.02046 1.339038 4.282122
39.65096 2.118412 1.410782
53.3877 1.038 7.261239
53.49505 1.624751 2.894962
53.10307 1.556538 -0.03625759
52.97231 0.712102 7.743469
52.88197 1.044223 14.19448
53.10112 0.3032158 4.120609
53.30307 0.4812382 1.466559
52.4048 0.6167766 2.34499
51.96285 1.096494 -0.3729211
48.88848 0.3838371 -1.016462
40.29834 0.1877625 7.746227
39.90969 0.5804019 2.841568
39.99197 0.8198503 0.1013001
39.92045 0.5766603 2.911625
39.51812 0.4774264 6.605937
39.10305 1.010174 4.917298
39.12964 1.822795 2.761737
39.79464 2.1351 0.3881936
53.6804 1.432232 4.244241
52.99515 1.515927 -0.1516444
52.36659 0.2242857 12.69174
52.89951 0.2033425 6.394141
53.41261 0.4768055 2.431828
52.91595 0.5192093 1.124264
52.26029 0.8637425 1.461151
51.73043 1.169359 -0.9475956
39.87562 0.2763656 6.946136
39.64317 0.596535 2.73304
40.35119 0.8398302 -0.6294469
39.76132 0.5668013 2.916344
39.7817 0.3135454 7.10731
38.98205 1.530939 2.696199
39.2134 1.933602 2.27492
39.95181 2.107557 -0.5130099
53.6955 1.536589 2.589428
52.78444 1.414764 -0.2857682
52.76335 0.5641083 8.115273
52.83457 0.3400769 7.443483
53.4297 0.4866182 3.176902
53.86312 0.7552761 0.374923
53.44599 0.5914333 0.2715026
52.49335 0.6685999 1.474267
52.16333 0.9791443 0.715052
39.55191 0.6653004 2.269929
40.04017 0.8645448 -0.471417
39.95763 0.3625419 5.738865
39.26271 0.6709182 4.789884
38.98472 1.618531 2.297486
39.54984 2.151006 0.6617263
53.72549 1.106933 4.753728
52.50875 1.292284 -0.2257797
53.55839 1.6527 0.0361874
52.95102 0.5675374 7.429803
53.07025 0.4417958 6.560149
53.31686 0.4389115 4.309393
53.88014 0.7699516 0.13459
52.78829 0.6006803 0.7042691
52.22342 0.9383155 0.6474547
40.08613 0.2627022 6.842052
39.53323 0.6704512 2.287021
40.14729 0.8642892 -0.623208
40.08596 -0.1110115 13.60157
39.08693 0.9781902 4.020965
39.03796 1.118566 2.861997
39.56542 2.187195 0.07249725
53.78175 1.116964 4.268104
52.87947 1.440386 -0.65025
53.27567 0.7093624 6.529428
53.18867 0.4182365 5.519395
53.45589 0.554361 4.099818
52.71442 0.6572686 0.4514769
52.25683 0.9257326 0.341626
39.88846 0.317283 6.17505
39.38923 0.8893243 1.121559
39.63507 0.4832705 4.158598
39.32267 0.6110295 4.512569
38.98156 1.73086 1.37329
39.74375 2.198037 -0.5353364
53.87986 1.275123 3.01646
53.60409 1.659182 -0.1389117
53.4668 0.5947066 4.374314
53.72338 0.6754191 0.2652345
52.57406 0.7918259 -0.3519693
39.27418 1.004965 0.8582408
39.41491 0.602987 3.538196
38.99837 1.323539 1.620744
39.09082 1.005954 2.636002
53.39147 0.6898512 5.738892
53.88784 1.484614 1.535234
53.44023 0.7245845 5.585148
53.90883 0.8784946 1.588108
52.79468 0.67289 0.04306902
39.29961 0.7554666 2.663936
39.25876 1.066836 0.5007582
39.18092 0.7910422 3.784383
38.96234 1.654539 0.7484398
39.26002 2.181329 -0.03469411
53.86662 1.552888 0.9619689
53.6025 0.7322143 4.177296
54.03976 0.9799519 0.6226292
52.6743 0.723008 -0.004709824
39.26046 0.739128 3.227753
39.28539 0.6803544 3.740592
38.97573 1.850208 0.3852994
39.0708 1.957267 0.9219465
53.95118 1.468217 1.289379
53.85673 0.9254774 2.603598
54.137 1.095809 0.01616887
39.28154 0.7034918 3.412668
39.01171 1.441193 -0.1089301
53.71249 0.9125268 4.305051
53.87099 1.666437 -0.2935915
54.16048 1.30828 0.05774975
39.29187 1.147807 -0.441969
53.90052 1.056294 2.820854
54.05079 1.226552 1.299027
39.00924 1.426216 -0.3621572
54.14387 1.329282 0.2578926
53.84876 1.692641 -0.7931978
54.24234 1.261964 -0.5982229
54.1763 1.515764 -0.6840368