####
#
# OBJ File Generated by Meshlab
#
####
# Object border.obj
#
# Vertices: 67
# Faces: 36
#
####
mtllib ./border.obj.mtl

vn 0.174122 1.070665 -0.800935
v -87.007278 -143.886047 198.049515
vn -0.000000 1.507215 -1.064147
v -64.527061 -147.044647 197.283813
vn -0.129952 0.136227 0.259652
v -95.951019 -129.785553 214.954254
vn -0.174122 1.070665 -0.800935
v -42.046841 -143.886047 198.049515
vn -0.078091 -0.469399 0.963054
v -137.043869 -99.409042 157.413757
vn -0.086052 -0.613237 0.099769
v -141.878326 -128.375549 188.918060
vn 0.054424 0.163264 1.535354
v -149.976044 -132.122253 158.904251
vn -0.007478 -0.070591 1.122048
v -149.895493 -113.388733 149.557861
vn -0.728051 -0.556863 1.952566
v -97.643066 -115.685089 221.158249
vn -0.242676 -0.336436 0.698466
v -110.091782 -114.154190 217.570450
vn -0.262815 0.680743 -0.870804
v -33.103104 -129.785553 214.954254
vn 0.388563 0.329715 -0.539551
v -146.148743 -112.180153 194.195648
vn 0.140295 -1.555863 -0.255955
v -155.857971 -128.294952 177.355850
vn -0.079865 0.430282 0.876310
v 7.989746 -133.129456 158.138962
vn -1.145098 -0.612738 0.041891
v -124.810562 -153.810272 42.366848
vn 0.390901 1.205888 0.039499
v -104.941040 -161.102173 39.244011
vn 0.229889 1.231232 0.047047
v -84.312195 -164.929474 37.375900
vn -0.242676 0.336436 -0.698466
v -18.962341 -114.154190 217.570450
vn -1.233330 0.305691 0.000000
v -135.103912 -135.076660 44.438911
vn -1.124136 -0.285179 0.058199
v -124.810562 -154.454773 32.939678
vn -0.229889 1.231232 0.047047
v -44.741932 -164.929474 37.375900
vn -0.390901 1.205888 0.039499
v -24.113083 -161.102173 39.244011
vn -0.337189 0.199861 0.759740
v -91.559723 -97.153076 218.983047
vn -0.725543 0.517584 1.599995
v -86.684982 -105.774490 223.414551
vn -0.404295 -0.371234 0.564576
v -143.086945 -96.347267 187.991653
vn -0.063965 -1.137240 1.213298
v -150.540054 -96.750137 157.615356
vn -1.907144 0.178919 0.013727
v -135.103912 -135.076660 35.012131
vn -0.145425 -0.000000 -0.000000
v -64.527061 -166.097778 36.383781
vn 0.251151 1.081666 0.040631
v -84.312195 -164.607178 28.941259
vn -0.185478 -0.000000 -0.000000
v -64.527061 -165.775482 28.328659
vn -0.337189 -0.199861 -0.759740
v -37.494400 -97.153076 218.983047
vn -0.728051 0.556864 -1.952567
v -31.411053 -115.685089 221.158249
vn -0.384335 0.332818 -0.535445
v 17.094627 -112.260658 194.195648
vn 0.083448 -0.613415 0.096617
v 12.824196 -128.415863 188.797562
vn 0.006611 -0.077645 1.121407
v 20.841370 -113.267838 149.557861
vn 0.076655 -0.476420 0.960879
v 7.989746 -99.328537 157.494461
vn -0.855749 1.021605 -0.130980
v -127.594818 -103.572189 44.205463
vn -1.279812 1.259137 -0.152406
v -127.594818 -104.780792 34.778694
vn 0.000000 2.734392 1.914191
v -64.527061 -96.427887 224.018860
vn 0.000000 1.869757 1.308910
v -64.527061 -94.171783 220.796051
vn -0.772772 -1.288344 1.126249
v -156.824860 -97.193367 177.597549
vn 0.400720 1.031663 -0.611749
v -160.289551 -112.985863 183.519653
vn -0.056213 0.153858 1.537407
v 20.921921 -132.041656 158.783447
vn -0.144432 -1.554969 -0.262195
v 26.803848 -128.335266 177.234955
vn -1.233330 -0.305691 0.000000
v 6.049789 -135.076660 44.438911
vn 1.145098 -0.612738 0.041891
v -4.243561 -153.810272 42.366848
vn -1.156697 -0.580481 0.013727
v 6.049789 -135.076660 35.012131
vn 1.124136 -0.285179 0.058199
v -4.243561 -154.454773 32.939678
vn -0.621043 -0.280574 -1.434078
v -42.369141 -105.774490 223.414551
vn -0.076096 -1.375408 0.274190
v -98.191330 -80.487686 32.151936
vn 0.064557 -1.259207 0.240332
v -98.191330 -78.755295 41.228706
vn -0.064557 -1.259207 0.240332
v -30.862793 -78.755295 41.228706
vn 0.080233 0.435861 0.874314
v -137.043869 -133.209961 158.259750
vn 0.205299 1.411457 -1.039223
v -77.096642 -140.719574 204.436905
vn -0.000000 2.815910 -1.988132
v -64.527061 -142.733948 203.389313
vn -0.205299 1.411457 -1.039223
v -51.957481 -140.719574 204.436905
vn 0.525029 1.782512 0.060481
v -104.941040 -160.820160 30.634171
vn -0.298064 1.859802 0.071765
v -44.741932 -164.607178 28.941259
vn -0.525029 1.782512 0.060481
v -24.113083 -160.820160 30.634171
vn 0.061288 -1.145121 1.205615
v 21.485931 -96.669540 157.736160
vn -1.295133 0.428510 -1.748678
v 31.235420 -113.106758 183.519653
vn -0.491956 -0.987304 -0.573689
v 14.032822 -96.427864 188.112549
vn -0.855749 -1.021605 0.130980
v -1.459301 -103.572189 44.205463
vn -1.279812 -1.259137 0.152406
v -1.459301 -104.780792 34.778694
vn -1.019227 -2.518913 -1.151865
v 27.770737 -97.233559 177.718460
vn -0.000000 -0.521867 0.099603
v -64.527061 -78.956787 31.130270
vn -0.236240 -1.748279 0.321996
v -30.862793 -80.487686 32.151936
# 67 vertices, 0 vertices normals


usemtl material_0
f 3//3 9//9 10//10
f 6//6 13//13 7//7
f 24//24 23//23 9//9
f 27//27 20//20 15//15
f 28//28 29//29 30//30
f 38//38 27//27 19//19
f 39//39 40//40 24//24
f 25//25 41//41 42//42
f 34//34 43//43 44//44
f 47//47 46//46 48//48
f 39//39 49//49 40//40
f 37//37 50//50 38//38
f 55//55 2//2 54//54
f 54//54 1//1 3//3
f 2//2 55//55 56//56
f 4//4 56//56 11//11
f 8//8 7//7 53//53
f 26//26 8//8 5//5
f 11//11 32//32 18//18
f 13//13 42//42 12//12
f 29//29 57//57 17//17
f 57//57 20//20 16//16
f 41//41 26//26 25//25
f 35//35 14//14 43//43
f 58//58 30//30 28//28
f 59//59 58//58 21//21
f 48//48 59//59 22//22
f 49//49 31//31 32//32
f 36//36 35//35 60//60
f 44//44 33//33 61//61
f 47//47 45//45 64//64
f 62//62 65//65 61//61
f 60//60 65//65 62//62
f 50//50 66//66 51//51
f 66//66 67//67 52//52
f 67//67 64//64 63//63
# 36 faces, 0 coords texture

# End of File
