# .PCD v0.7 - Point Cloud Data file format
VERSION 0.7
FIELDS x y z
SIZE 4 4 4
TYPE F F F
COUNT 1 1 1
WIDTH 10
HEIGHT 1
VIEWPOINT 0 0 0 1 0 0 0
POINTS 10
DATA ascii
-24.100540 -134.794434 76.109116 
-13.446564 -144.484589 73.549286 
-75.863739 -92.203270 107.355042 
-43.518082 -103.089127 64.136292 
-103.774117 -145.841095 77.495819 
-23.586197 -101.574730 104.443451 
-76.616966 -93.475266 138.386169 
-61.687363 -92.498329 202.329163 
-6.047775 -117.005447 149.054993 
-115.696884 -113.003761 152.341003 