# .PCD v0.7 - Point Cloud Data file format
VERSION 0.7
FIELDS x y z
SIZE 4 4 4
TYPE F F F
COUNT 1 1 1
WIDTH 2048
HEIGHT 1
VIEWPOINT 0 0 0 1 0 0 0
POINTS 2048
DATA ascii
-67.35887 -171.4789 130.1164
-67.20325 -170.9223 115.7156
-76.24313 -170.1749 116.1965
-65.83424 -171.3637 123.9395
-64.7894 -172.786 148.1945
-64.97684 -172.7513 147.9547
-71.90462 -171.2675 136.058
-70.3026 -171.5863 138.4454
-71.82942 -170.5388 112.9858
-66.06798 -171.7711 102.3752
-71.88377 -170.5836 112.2884
-65.83095 -172.1769 96.92087
-110.276 -153.4544 158.573
-114.4522 -148.1286 163.0765
-117.5505 -143.7947 171.0069
-114.4226 -147.7571 167.9528
-110.4144 -153.3978 157.2858
-106.5744 -158.1704 154.6369
-63.38895 -170.1772 164.4382
-59.48799 -169.8075 164.4239
-62.49811 -169.8355 165.5362
-58.48309 -171.9969 154.6409
-121.1806 -124.7085 130.4467
-118.3651 -133.4284 124.5595
-119.6861 -132.4892 118.9872
-120.2477 -127.2404 129.4411
-86.41408 -162.7746 173.815
-90.45345 -157.7491 178.1959
-84.3265 -155.0257 183.9266
-90.16393 -156.433 179.887
-100.8907 -159.2808 172.151
-93.86858 -159.1625 175.1268
-101.7147 -159.8067 171.1893
-67.51215 -159.6988 181.0366
-75.6003 -167.3311 171.2828
-64.54498 -167.0568 172.8649
-71.52929 -167.0586 172.0638
-117.1573 -121.5117 118.2731
-116.8225 -119.8926 119.3023
-118.0354 -118.3737 126.6424
-116.777 -120.8473 117.6815
-116.2879 -116.8011 121.7051
-120.9942 -126.3048 127.1046
-101.871 -162.5909 91.08245
-100.6165 -163.5495 91.09666
-104.9673 -161.4024 85.39206
-99.98606 -163.9121 91.67625
-107.2661 -160.7978 79.83237
-102.1454 -162.9343 88.42281
-104.3888 -162.0576 84.3741
-120.999 -137.9698 98.45845
-118.4641 -146.1121 92.522
-117.7101 -144.6506 98.11557
-119.2785 -147.7324 86.40112
-55.02805 -171.4388 98.487
-55.06141 -171.0879 103.0623
-54.29586 -171.2879 99.73461
-59.29235 -171.9081 96.52254
-41.85952 -167.241 122.192
-46.07433 -168.8041 125.6291
-47.70197 -169.2518 121.9333
-49.12988 -170.0755 132.5718
-43.43927 -167.5918 115.9118
-46.09328 -168.514 116.0737
-31.74409 -164.6718 135.8731
-36.04441 -165.9393 134.3214
-44.23272 -169.05 140.5196
-35.15566 -165.9423 138.1204
-43.70559 -168.843 140.0313
-46.97847 -170.0566 142.1189
-102.2671 -150.0939 185.1026
-86.66279 -154.4303 183.9371
-99.28502 -158.3702 173.9294
-93.43651 -154.3347 181.8159
-102.5614 -156.944 174.9324
-95.58836 -152.7562 183.4182
-75.51045 -156.677 183.631
-78.36823 -156.0856 183.9935
-78.80035 -158.3669 181.3012
-70.56998 -160.1894 180.1193
-73.20029 -155.9018 184.7903
-115.2792 -145.2372 176.2476
-105.0514 -157.6645 171.7244
-107.3797 -155.1315 171.4734
-60.16479 -166.3929 173.1358
-52.60638 -165.578 173.2137
-56.00792 -164.3974 174.9684
-52.10142 -166.2705 172.3549
-53.35753 -165.5932 173.282
-120.9415 -141.0406 160.3934
-124.3332 -138.5972 156.4566
-117.4766 -140.1779 148.7423
-119.2349 -135.694 147.0224
-122.1951 -125.6278 141.3904
-115.1927 -108.6151 146.5683
-121.1803 -121.2443 135.8269
-121.3369 -130.7972 100.2753
-115.0405 -108.3431 101.5227
-116.2008 -112.7211 101.666
-113.9919 -108.9868 108.5453
-115.6207 -112.0667 103.9798
-116.687 -118.903 108.4857
-119.923 -127.4133 103.1337
-39.86458 -166.8538 108.0061
-37.62769 -165.9199 110.0126
-39.23433 -166.2864 112.1825
-42.20903 -167.6998 107.4804
-36.56717 -165.1885 114.3881
-45.10073 -168.9639 104.213
-56.65655 -174.2379 71.1642
-58.89365 -174.4428 70.74747
-64.23502 -174.2183 74.05416
-42.38618 -169.1053 149.7479
-38.43092 -167.6923 148.3368
-34.41596 -165.8311 140.0412
-43.7566 -169.5049 148.7902
-45.50976 -170.2933 152.0214
-39.4933 -168.1268 149.5986
-117.8812 -142.5435 175.4823
-123.4612 -138.7466 176.2387
-122.116 -140.4832 169.4747
-127.1814 -136.7976 161.7337
-126.7615 -137.3246 167.5572
-122.1429 -139.0903 154.2414
-125.7121 -133.0815 152.4332
-127.8017 -129.5198 151.3413
-31.67843 -164.1831 159.8005
-37.29371 -163.6013 170.5626
-28.22121 -162.7743 160.8531
-31.04454 -163.3565 162.4632
-27.03721 -160.7514 167.9074
-33.50788 -164.6537 160.438
-118.297 -110.358 146.2454
-117.4079 -106.5315 149.3255
-114.3597 -103.964 150.6003
-117.1217 -106.5778 149.1924
-115.8247 -103.8319 151.1898
-97.4351 -92.82909 121.1533
-103.4259 -99.20067 125.642
-93.84209 -89.12288 119.7087
-108.0837 -104.1247 128.8093
-99.65321 -95.0426 121.2383
-108.6743 -104.5222 126.7529
-121.5467 -122.2443 92.31876
-122.416 -123.9066 90.64382
-122.4406 -130.1245 95.88354
-122.8259 -128.2024 92.8633
-122.6003 -122.427 88.71938
-121.7121 -118.5528 88.56654
-122.7868 -127.5751 92.46506
-123.0457 -124.5093 88.91548
-120.6079 -108.2993 83.71773
-101.1542 -93.00687 103.7505
-107.291 -100.4526 109.0138
-103.3124 -94.7499 100.6878
-112.9279 -105.3822 103.1303
-112.0173 -105.4605 108.9895
-112.8215 -106.1247 107.9306
-111.3159 -104.4222 107.3366
-109.8642 -104.433 116.038
-117.5143 -106.8512 92.22064
-117.9973 -105.8677 89.97163
-119.7548 -108.806 87.03512
-120.1462 -114.2147 90.20818
-117.6674 -105.9568 91.03864
-117.5975 -115.3912 98.84467
-117.1572 -115.1769 100.0005
-41.03441 -167.8023 101.264
-44.22053 -169.2137 97.40611
-45.05627 -169.5031 97.45502
-34.1572 -165.3549 101.7311
-37.42632 -166.905 96.43549
-48.4961 -174.2039 67.2625
-48.16519 -174.4818 65.17408
-56.3235 -174.6045 68.60644
-70.74957 -148.8204 194.1585
-83.161 -146.3466 195.5005
-74.2712 -145.732 197.5446
-82.62069 -144.6977 197.6542
-77.54652 -150.6548 190.8774
-43.97873 -159.0815 178.7728
-46.27286 -164.9108 172.726
-46.74759 -164.8607 172.9775
-39.55884 -162.6001 172.78
-32.64685 -159.9314 173.1823
-37.73299 -163.6373 170.8024
-40.44402 -164.3269 171.0718
-120.1895 -104.2733 152.1949
-124.2923 -109.5403 148.696
-121.7752 -104.5185 152.3985
-97.70681 -90.04189 107.0792
-96.0872 -90.35102 114.8441
-106.823 -100.9006 114.1072
-93.81939 -86.08253 106.7849
-96.79297 -88.75436 105.5733
-96.99028 -91.57275 116.1283
-92.05222 -86.80862 116.8228
-104.7334 -91.27583 90.53259
-117.9988 -104.0496 86.96353
-113.1049 -97.72414 84.87943
-114.714 -103.2125 92.75157
-107.5366 -92.51364 86.69678
-105.5901 -89.80582 85.46324
-106.9656 -92.69032 88.38228
-97.15425 -80.69534 85.65112
-108.4524 -95.79159 91.50249
-78.03193 -172.2194 56.31951
-70.40239 -173.4787 58.29646
-59.8689 -174.959 62.79744
-54.11442 -174.1835 61.94381
-63.85624 -173.8707 58.05472
-31.18183 -165.9962 88.35102
-35.86164 -168.4453 81.80396
-40.52295 -170.5422 77.35439
-34.14154 -167.9758 81.60614
-35.66883 -168.8342 79.11209
-27.78826 -161.5715 99.45283
-23.30718 -157.8861 97.85261
-28.43038 -161.6471 106.7152
-20.93865 -155.5809 102.5605
-28.29922 -161.3471 109.6559
-25.61569 -159.8923 97.00436
-44.77251 -173.5125 67.63538
-46.84341 -173.0486 73.60844
-43.77118 -172.5233 71.545
-27.17817 -159.8338 113.7084
-18.42605 -153.3369 103.0307
-15.08543 -150.01 103.7488
-15.79702 -149.1665 112.3797
-20.14184 -152.8673 114.9896
-22.41638 -156.312 137.1096
-14.5687 -148.7144 151.2027
-23.4508 -157.6891 139.0185
-16.5484 -150.4418 145.7502
-24.63562 -158.8778 137.3085
-16.46884 -149.5812 138.0375
-111.9731 -138.1741 196.948
-113.6246 -136.9767 197.6136
-106.8954 -140.4634 196.9609
-117.0829 -135.9425 196.8283
-118.5478 -138.9606 186.494
-119.9698 -139.1141 183.8683
-120.2086 -135.8014 192.3865
-129.0969 -144.4473 68.60244
-127.3635 -147.362 68.66238
-128.0291 -116.2724 75.52061
-124.4551 -107.6011 78.29362
-122.8432 -108.0301 80.46499
-130.1373 -118.4389 73.25947
-126.9818 -117.9775 77.23402
-122.3568 -109.1186 81.32363
-121.1578 -105.5201 82.10764
-97.03627 -76.50474 75.10616
-106.4742 -89.16369 81.56187
-102.4707 -84.92031 81.89775
-103.6271 -86.55898 82.92784
-102.4444 -84.86675 81.82998
-109.1179 -92.57444 83.00109
-116.8405 -101.2053 83.56901
-97.17037 -79.2153 82.10492
-95.6977 -166.6299 56.17054
-99.44156 -167.0474 57.14579
-79.49921 -171.8208 55.98063
-75.43637 -171.7288 55.60092
-20.69384 -159.5462 81.81585
-24.0447 -160.5932 89.12325
-28.42894 -166.0861 78.88165
-27.39071 -162.4358 92.5916
-22.47386 -159.6388 87.92393
-18.83239 -158.5561 79.71823
-18.22754 -154.3048 94.83852
-30.4526 -164.1504 95.47176
-18.15536 -155.7567 89.46665
-13.87112 -150.4951 95.68388
-17.38867 -153.7864 94.23646
-18.30346 -156.4651 87.37978
-37.82711 -171.5861 67.46647
-36.1563 -170.0837 72.81739
-30.39844 -168.0139 75.23018
-9.697297 -129.807 131.6127
-12.03224 -137.3967 132.9206
-9.56975 -129.4244 132.1642
-10.23781 -131.5422 131.4929
-12.66573 -139.4056 132.2988
-9.924151 -130.5417 131.6868
-15.55884 -147.9943 118.0516
-13.11294 -147.0722 100.8815
-13.33154 -143.9934 112.1642
-12.82048 -144.9903 105.3068
-13.98981 -148.8567 101.6454
-12.70597 -145.9524 162.0107
-13.85281 -147.9252 154.8238
-10.39607 -142.8515 160.3112
-92.38147 -137.6638 205.0043
-95.13342 -134.3434 208.7567
-97.51495 -130.1044 213.9475
-103.8367 -131.8514 209.2255
-39.62416 -147.3915 192.6374
-44.25172 -149.6965 190.9746
-39.51445 -146.0413 194.4041
-45.95852 -153.6915 186.1684
-39.53416 -152.2016 186.1967
-131.637 -130.7421 190.5778
-134.2566 -133.3047 179.1293
-130.1071 -134.3374 181.6998
-131.9477 -104.537 153.915
-128.0543 -99.55238 157.1251
-8.062173 -140.7141 174.6162
-9.982771 -140.7395 179.6928
-86.78465 -88.1828 140.4097
-82.30551 -87.85561 134.0449
-83.37514 -88.03408 144.378
-85.84134 -88.26826 152.6285
-84.8799 -88.0032 134.1482
-87.0614 -88.12881 134.2843
-89.80595 -88.44313 148.1845
-81.78421 -87.97625 147.2457
-88.161 -88.35038 148.2544
-125.4744 -95.89114 169.8073
-127.156 -96.33606 168.7996
-121.8843 -93.91744 175.8947
-12.44695 -156.36 74.32386
-9.981783 -155.6714 71.9988
-13.71887 -154.8193 79.42271
-10.88112 -154.5011 75.77049
-9.265595 -134.4511 112.9255
-11.06116 -140.5526 106.7554
-10.08671 -139.3781 104.8286
-10.35895 -137.9734 109.6452
-11.12278 -137.5437 145.5813
-8.013784 -126.8297 139.0749
-9.081242 -131.3457 143.3793
-6.944634 -140.2568 163.1057
-6.471507 -139.8317 157.822
-7.772593 -140.8901 165.9919
-143.6397 -129.5426 180.8611
-140.741 -131.1765 178.6879
-148.0266 -131.7291 163.9205
-147.26 -111.7297 150.3685
-140.3328 -107.9759 152.0967
-144.4219 -112.2775 149.6942
-133.393 -98.65676 160.227
-129.4967 -97.80971 163.3994
-135.1542 -99.12093 158.4806
-108.655 -91.07265 194.4682
-113.5559 -91.99966 198.7656
-113.772 -92.02365 198.5753
-110.4445 -91.60252 200.3427
-119.2862 -92.84778 190.0582
-118 -92.54382 182.0673
-125.7008 -94.10825 180.381
-63.28061 -85.51322 121.5606
-63.42009 -86.40722 129.333
-49.76543 -87.11484 128.7014
-58.98593 -86.01411 123.7603
-58.04292 -85.99059 123.0929
-53.13767 -87.38413 132.6838
-49.47712 -84.74988 112.0762
-63.56293 -83.55181 110.6604
-56.52147 -85.39436 117.5297
-58.49736 -83.07593 106.6772
-56.70308 -83.86127 109.9924
-63.61707 -82.0981 103.4754
-62.82438 -83.62624 110.7922
-3.656198 -141.8027 77.98854
-5.424178 -142.9177 80.26833
-7.58891 -147.7973 79.36482
-6.5309 -140.6681 87.79861
-8.299168 -145.8212 84.57165
-6.722436 -138.5183 92.51253
-4.804385 -137.9857 86.55714
-1.841456 -134.6242 82.10451
-21.08749 -164.3767 64.7972
-21.15318 -164.6157 66.13638
-17.48015 -161.8601 65.26455
-10.78318 -118.5916 127.299
-12.74009 -117.5218 120.7338
-8.603226 -129.6393 119.8383
-10.71224 -125.0394 117.9298
-8.688146 -125.2565 126.0537
-8.210198 -125.4969 127.6885
-11.05019 -123.6055 118.6685
-13.44725 -117.0857 113.004
-7.190154 -133.0013 100.8913
-8.964928 -128.5838 104.7797
-11.58616 -122.7804 113.8934
-13.97117 -116.072 115.5095
-8.449221 -131.4767 111.1736
-5.044997 -123.2334 141.6858
-1.908745 -118.5698 141.6736
-7.785063 -132.638 147.2771
-101.5463 -119.2651 218.0777
-102.2739 -121.0041 216.9873
-98.97917 -120.0345 218.599
-110.6198 -116.2263 216.3307
-111.3884 -117.7307 215.2502
-109.661 -123.7875 213.158
-126.1487 -115.3403 208.2205
-128.3438 -112.3131 208.0272
-123.7425 -114.7146 210.4597
-122.2575 -123.1851 207.289
-27.44464 -136.5139 203.7927
-24.73702 -135.7833 204.0546
-22.46737 -131.9467 208.3427
-24.29672 -135.6392 204.1291
-33.45883 -136.6527 205.3069
-37.26445 -140.3925 201.3303
-31.31241 -129.7488 214.3734
-29.746 -132.3293 210.1469
-32.6734 -131.5901 212.234
-137.3314 -125.4672 193.6347
-143.4659 -116.8512 193.7028
-141.6443 -121.6983 192.5087
-152.5264 -129.5635 172.4321
-145.6017 -129.3292 179.8448
-151.7353 -130.6451 166.4661
-142.1469 -128.4834 188.0236
-132.2607 -96.79602 167.3129
-131.4926 -95.96047 170.3182
6.140882 -134.224 173.8928
3.20328 -135.2946 172.7285
3.711819 -134.6195 160.535
1.716201 -135.5826 167.5538
-82.52638 -87.37312 163.5725
-85.02976 -85.89462 177.3622
-88.33618 -86.62579 172.5897
-87.36658 -87.52495 164.4525
-87.86166 -87.31812 166.4467
-80.37666 -87.46025 161.8581
-64.94827 -87.20526 157.0924
-81.49282 -87.37968 163.0508
-87.47957 -85.82306 179.0786
-56.17664 -87.60168 154.1569
-56.65831 -87.41703 143.9182
-55.43018 -87.60134 151.5878
-53.35134 -87.77658 155.7719
-53.76354 -87.73524 154.5177
-57.20087 -87.56022 154.983
-61.38851 -87.1251 141.2711
-60.24869 -87.34972 151.8364
-62.05854 -87.30626 155.2146
-109.9328 -92.4759 203.1669
-119.9127 -95.87423 204.6837
-38.80083 -85.15093 111.0148
-37.74599 -83.75827 104.2024
-41.60818 -83.36406 103.3934
-50.52401 -83.19094 104.9805
-37.56032 -86.12366 115.2411
-54.50647 -83.38058 106.9409
-49.2816 -84.37268 110.1861
-122.0447 -152.7611 59.86469
-125.5912 -142.0772 59.60369
-117.6803 -154.7369 52.3815
-114.4182 -156.3926 52.23082
-120.2765 -154.3199 49.04071
-115.0137 -156.6473 50.11847
-126.0598 -102.2945 64.01215
-118.3843 -94.58957 65.14901
-113.5886 -90.41559 63.98798
-104.8113 -82.133 63.74311
-107.5726 -85.15417 62.6054
-89.90572 -73.70545 62.07935
-95.41257 -73.60455 66.17515
-94.98276 -73.88753 63.25267
-91.89249 -163.7832 45.53024
-89.37106 -164.282 46.19115
-85.25249 -164.8255 39.48442
-84.24729 -165.0877 41.5657
-89.23195 -164.3761 48.13906
-115.263 -157.2105 45.58415
-108.2775 -159.8086 42.91708
-113.4971 -157.8279 46.704
-118.4085 -156.1107 43.59769
-111.6128 -158.6432 40.77008
-37.95053 -169.0944 56.49165
-11.29981 -120.6886 105.1324
-15.38695 -108.8162 110.1448
-14.53638 -107.4543 103.1428
-9.406866 -126.6528 103.5348
-14.46043 -111.3154 108.7097
-13.32045 -111.9282 103.116
-12.794 -117.7382 109.1259
-13.97607 -114.2203 110.4446
-20.26863 -100.3651 147.058
-10.99361 -118.2517 134.1001
-19.00687 -106.1867 135.1021
-16.68303 -110.2398 133.1443
-13.27449 -114.0553 136.6783
-8.646527 -121.7348 133.9592
-14.82645 -111.3613 137.9474
-9.464152 -110.0716 146.8813
-10.7808 -106.4149 149.6767
-14.98373 -105.1359 149.4573
-15.34505 -102.2596 151.8718
-14.6527 -105.616 149.1409
-15.43037 -131.9236 205.2571
-12.28752 -129.6371 206.7554
-16.77767 -131.0538 207.046
-23.00943 -127.576 212.691
-23.55396 -128.9526 212.2327
-20.70772 -118.5413 216.113
-144.2549 -125.4457 188.5411
-153.6355 -124.8462 181.0798
-145.3649 -122.6808 189.1259
-148.1308 -128.3057 183.7652
-150.8937 -120.3847 185.7866
-90.50567 -88.72665 203.0378
-100.3449 -89.95659 201.2727
-91.8764 -89.06443 203.7941
-92.69778 -87.48632 193.526
-50.89753 -86.79879 166.5229
-46.27824 -87.16871 165.4355
-57.83316 -87.0243 161.4676
-43.48278 -87.52551 163.639
-44.56336 -87.06838 167.0672
-46.05847 -87.80439 160.0905
-61.5786 -87.20692 158.2165
-53.4248 -86.61147 166.9887
-59.91102 -87.29095 158.248
-57.8087 -87.53342 157.1184
-32.60352 -90.6852 147.4215
-26.73834 -92.87659 152.6167
-36.2395 -89.47635 150.0447
-27.8534 -92.51199 153.6607
-35.57823 -89.53989 143.4631
-37.43776 -88.93076 145.1606
-34.85217 -86.15623 105.5416
-23.84087 -99.45218 114.7548
-31.62827 -89.37658 105.5311
-28.10407 -94.87351 113.4793
-35.51138 -86.0438 107.7426
-28.6445 -95.36672 117.6411
-33.30326 -87.66858 105.3962
-128.9955 -138.1437 53.40853
-130.2536 -136.4221 52.83641
-126.8485 -140.3393 55.25346
-121.8283 -147.4479 57.25696
-133.8192 -135.6579 46.40003
-126.6657 -147.7747 46.31292
-127.5173 -146.1785 46.54644
-126.8631 -148.6132 44.74353
-126.4771 -150.476 43.10713
-124.3216 -147.7664 51.58353
-123.1806 -108.0487 60.22794
-127.4448 -123.9842 60.87568
-123.4247 -111.7337 59.81096
-112.3895 -91.56593 61.5332
-121.922 -101.4048 61.46884
-122.0548 -103.4276 60.14782
-117.4948 -98.6908 60.19976
-86.87627 -74.04927 61.07524
-82.97522 -74.54617 60.26108
-73.43374 -75.60889 58.4162
-33.70211 -73.319 68.84215
-47.41031 -73.28263 61.36714
-38.75903 -73.51418 64.11112
-115.6726 -157.3574 38.09963
-116.1578 -157.3137 36.20938
-124.0794 -154.199 40.49005
-31.91522 -162.6533 41.51164
-26.55233 -161.5746 39.5923
-37.65577 -163.8954 46.07397
-34.29264 -162.9912 38.33289
-41.74902 -164.718 47.51695
-9.714101 -120.0711 97.35503
-9.396332 -119.1716 95.67226
-10.41269 -111.312 92.41124
-11.07034 -106.358 90.4072
-7.657921 -127.9496 97.49419
-9.758043 -119.1632 96.75669
-10.23999 -110.0837 90.90142
-25.01637 -99.21437 137.1157
-30.24083 -95.50308 134.1992
-23.90709 -94.1765 153.1194
-35.73687 -89.38606 136.9745
-20.96513 -104.4874 133.0523
-31.25629 -91.10627 143.3382
-30.13054 -93.62635 139.4236
-29.81888 -92.95098 141.9657
-14.20794 -96.92515 157.3267
-10.61352 -96.9747 161.92
-12.24757 -96.14565 163.1871
-18.82772 -95.28374 157.9864
-8.239983 -101.277 154.8634
-2.29789 -106.2173 151.6581
-3.731034 -106.4244 151.3127
-0.02339061 -113.0569 146.5348
2.574135 -111.3017 148.5704
6.045332 -114.4101 146.893
-100.3896 -104.7613 218.1814
-95.40186 -99.08466 218.2741
-101.1695 -103.4216 217.5852
-105.7688 -103.324 216.1071
-92.10062 -101.1576 219.7964
-91.12491 -104.8562 221.2025
-120.8771 -106.6044 211.2435
-113.1094 -98.78822 211.8445
-117.0886 -103.4315 211.7662
-111.1917 -100.0782 213.1488
-133.1577 -104.2744 200.0487
-129.4319 -96.53223 199.067
-121.5278 -98.61024 207.9337
-125.5154 -97.85088 203.6316
-7.461718 -132.2626 199.1679
-6.963864 -130.6245 201.5227
-19.87586 -124.9435 212.831
-12.0495 -113.4596 214.677
-14.86226 -114.9935 215.2552
-140.8844 -95.94881 170.8252
-146.4061 -96.47479 169.609
-141.4551 -96.0387 174.0221
-143.1911 -96.16483 169.9695
-24.60868 -91.32118 91.29027
-15.13931 -102.9787 94.09624
-21.78253 -94.39727 91.27774
-13.73399 -106.4475 98.17876
-19.14598 -98.00318 92.81829
-20.75036 -96.5023 93.34283
-12.45168 -102.5777 87.07087
-15.67836 -102.2707 93.84294
-32.34285 -79.73539 84.64567
-131.4544 -133.3208 51.0346
-123.3597 -103.7997 51.91948
-124.7174 -113.1292 54.11922
-124.2042 -109.5706 53.27039
-127.1075 -128.2292 57.28163
-133.2083 -133.7501 47.64242
-131.4115 -133.2979 51.11093
-127.9265 -128.4218 55.69342
-134.8578 -135.5246 35.56646
-127.5913 -148.7494 42.07705
-134.2778 -136.5801 35.77104
-123.9708 -113.7202 57.46707
-122.6032 -106.4646 56.99693
-124.4067 -113.8335 55.77581
-102.8618 -84.44736 59.20289
-101.8437 -81.40974 61.03551
-98.71886 -80.25068 59.04733
-95.29433 -77.5902 58.20426
-88.10982 -77.09283 58.12672
-90.29442 -76.11823 59.29583
-21.82 -83.92328 65.43012
-32.09085 -74.34422 67.77148
-7.421006 -96.23167 69.57573
-11.98401 -92.14065 69.52469
-30.1671 -76.17826 67.06873
-127.4245 -149.3293 36.45832
-126.9507 -150.3826 34.003
-124.8818 -153.6873 42.21819
-67.08335 -165.7485 31.50492
-75.01075 -165.2276 30.43166
-4.069444 -114.7584 79.12856
-2.9389 -110.361 76.7366
-3.067811 -111.1728 77.07521
5.073491 -131.5607 70.8932
-7.284403 -108.2025 81.887
-2.050273 -106.1361 74.69347
-4.096828 -109.4756 78.0432
-21.41755 -93.76637 162.0534
-22.52735 -91.73041 172.8403
-21.73553 -92.65619 168.2228
-18.49144 -91.62965 177.4693
-21.30133 -90.83472 179.3019
-100.5541 -95.35822 212.0275
-97.63599 -93.1563 209.1195
-90.8911 -89.37162 204.8184
-94.1051 -92.46556 209.2617
-27.55396 -109.9186 218.9683
-31.01966 -114.3134 220.7758
-26.67181 -114.6921 219.7088
11.7499 -120.213 193.8531
8.14078 -124.5533 194.1601
13.95378 -116.1242 194.4177
13.33715 -113.6522 148.4975
16.34104 -112.6459 149.4915
9.521984 -104.233 154.3819
-72.72525 -85.62544 191.4055
-67.38634 -85.61431 192.74
-85.17661 -88.11437 201.4969
-65.24232 -87.19938 201.7973
-78.5096 -87.38129 199.3079
-77.40473 -86.35305 194.0842
-75.32297 -85.96145 192.5285
-65.65228 -85.50516 192.6077
-24.9423 -89.68983 183.7428
-29.09162 -88.73763 189.8618
-24.84454 -89.68729 183.0526
-37.246 -86.15347 186.3042
-31.06986 -87.88648 184.0971
-128.8143 -113.3647 46.27246
-131.8467 -122.6946 44.89464
-125.7911 -107.3037 49.05229
-126.8524 -106.5268 46.81604
-135.101 -135.0649 43.97269
-134.3632 -132.0881 38.49725
-133.7337 -129.5487 38.25089
-133.9868 -130.5698 40.37812
-119.1925 -101.287 58.96322
-110.9355 -93.34013 58.33314
-120.5107 -101.1241 54.62107
-115.786 -96.73349 54.74663
-8.480668 -151.2476 58.42004
-6.195366 -145.6768 58.59499
-1.930395 -144.6134 61.28515
2.145281 -136.4304 61.96282
-11.80177 -92.41615 186.638
-12.68146 -92.21849 183.0029
-11.8156 -92.38361 181.0005
1.038577 -96.80199 167.1633
3.821303 -98.0229 162.4857
-0.6115911 -95.20224 173.3108
-81.13183 -88.77065 204.8577
-78.49524 -89.30146 206.0586
-73.11581 -89.20786 206.39
-87.60899 -92.23632 210.4965
-85.52309 -91.21977 208.8598
-89.64812 -94.34627 214.1064
-70.98174 -98.21632 222.5082
-74.77885 -100.3989 223.2345
-69.10107 -93.15118 216.6521
-70.62618 -92.60207 214.7449
-83.21442 -95.66295 218.1091
-65.72614 -93.21228 217.9686
-65.28576 -93.18314 218.0471
-75.10841 -93.32848 215.0283
4.287614 -111.7708 204.0277
1.062006 -110.1456 205.8803
-3.698946 -104.9092 207.5047
-6.269642 -109.151 211.1472
-25.84077 -101.8632 216.5326
-20.4328 -111.3977 217.3149
-30.70989 -101.8693 218.0721
-151.0024 -99.64198 183.5422
-154.4575 -102.041 182.1271
-155.7303 -103.4461 181.8916
-147.6831 -100.39 186.576
-152.648 -97.5437 181.091
21.63713 -129.6411 173.4068
17.05681 -128.4036 185.2196
20.71192 -129.0167 178.1702
19.75075 -130.5146 169.4901
-38.40145 -88.55038 201.841
-29.16376 -89.62835 199.7458
-27.37799 -90.11353 201.0074
-32.97112 -88.2929 195.2436
-33.76281 -89.33542 202.2565
-100.8899 -82.97083 53.62531
-113.8571 -94.57301 53.49866
-101.6495 -83.64486 53.56709
-107.14 -88.52635 53.23233
-71.09333 -77.12424 54.29028
-80.47339 -77.44854 51.46924
-65.72155 -76.73022 49.9125
-67.47118 -76.84191 50.85952
-0.000299646 -103.3598 71.05997
1.06246 -119.2854 63.76482
-1.998235 -103.2819 64.56556
0.3167212 -115.5951 63.81851
-7.503472 -101.9365 60.83083
-4.580337 -101.9382 62.92207
-12.62983 -97.42805 60.31749
-2.530046 -150.2193 43.34642
2.416472 -141.5573 43.88469
-2.988488 -147.8848 47.51136
-4.518945 -152.7287 44.43783
-7.283762 -150.8408 53.17757
-0.3479821 -146.7753 38.78112
-4.141756 -153.8404 39.14387
-3.270315 -152.492 35.0448
2.871315 -137.0835 48.62543
5.361259 -135.172 45.74289
3.604602 -135.4145 49.07067
-2.740135 -143.2519 52.94455
3.546414 -136.4338 47.9976
-9.603892 -92.84834 184.6453
-10.50672 -92.68504 187.8308
-8.192807 -93.10519 179.9581
7.586479 -98.82145 159.3217
2.966404 -95.07668 173.1541
-57.49457 -98.3663 222.3586
-42.6954 -99.71512 220.7371
-42.83949 -97.50915 219.7653
-44.43765 -99.40248 220.7999
-52.51396 -97.04209 220.683
-48.18973 -91.04616 208.9801
-41.48082 -92.2525 210.5289
-46.93564 -89.3808 205.8647
-46.49828 -92.41502 211.2879
-47.52279 -92.30953 211.1931
-55.38902 -88.36314 204.8178
-8.992089 -94.98507 203.2005
-11.24897 -94.30786 203.0077
-104.4836 -85.62106 33.22346
-125.5069 -101.9662 43.09056
-125.5562 -102.1723 41.80503
-112.0397 -91.6935 35.22709
-118.8191 -96.73207 40.22058
-46.05457 -77.50561 49.83861
-49.07427 -77.42307 51.37559
-53.98724 -77.18716 50.95279
-48.3064 -77.4229 50.37629
-16.48661 -93.1808 51.35192
-27.59124 -83.65022 55.13062
-20.33395 -89.66309 50.70669
-16.30517 -93.57532 53.45357
-3.10903 -125.1471 59.53972
-5.356882 -105.2085 61.08761
-2.047269 -120.448 61.1202
4.858213 -137.2453 42.21895
4.559725 -137.7885 41.07973
0.3519945 -145.4465 39.59693
1.402658 -122.5826 47.33566
3.277999 -129.6187 47.23622
0.5639982 -129.351 52.69801
1.834925 -134.0604 52.59896
0.4412744 -126.1854 51.25361
0.8584331 -125.3119 49.92352
-0.02262226 -126.312 52.27959
-2.247797 -113.3249 49.90978
-87.45769 -78.25699 41.22364
-75.36084 -77.61241 42.3732
-96.02619 -78.57732 42.30599
-84.77768 -77.80158 45.83012
-43.04094 -78.14452 41.75642
-62.30534 -77.06586 44.00178
-52.17837 -77.71841 41.74897
-61.90836 -77.32954 40.92739
-93.8338 -164.999 121.8811
-85.06125 -168.3902 132.3559
-89.28088 -166.8533 129.0804
-96.04876 -164.6807 129.2883
-93.8985 -165.3554 128.9317
-93.62756 -164.9355 119.4502
-85.46088 -167.9286 125.0448
-79.75025 -169.9911 127.9152
-79.42888 -170.0394 125.8937
-85.96154 -167.6142 120.4888
-80.60741 -169.6204 125.5173
-83.26585 -168.681 124.8478
-81.74805 -169.758 136.8136
-89.40823 -167.6944 142.1261
-87.17562 -168.1005 138.0134
-84.92458 -168.8331 138.1084
-93.4987 -165.8642 135.404
-85.55156 -169.0182 143.19
-105.1521 -157.6922 125.9445
-101.4791 -160.2059 116.6785
-103.4638 -158.5451 119.046
-101.6652 -161.2721 127.5653
-108.2127 -153.9044 118.8891
-93.41574 -165.1747 110.7826
-82.69975 -168.78 111.4818
-79.08802 -170.4648 106.1453
-81.20741 -169.8703 104.5996
-91.19082 -165.7546 112.9298
-85.12603 -167.8701 112.4349
-75.50798 -170.5484 125.9751
-71.10089 -171.1236 130.6613
-71.46178 -171.0681 129.9868
-67.36604 -171.5406 132.1938
-82.69812 -170.5898 152.2295
-98.45156 -164.9469 146.3661
-99.7103 -164.4471 145.1122
-97.16466 -165.2899 144.9489
-93.07384 -166.9417 149.4688
-95.6592 -166.2231 151.8428
-100.2928 -164.0724 142.2266
-65.64761 -172.9185 151.4402
-78.78151 -171.0956 143.4037
-74.05418 -171.6908 145.415
-79.17749 -171.1063 144.1102
-104.2234 -158.8062 129.1022
-111.9384 -150.0356 121.7417
-112.0602 -149.7628 130.5104
-109.9852 -152.1104 133.2421
-111.8716 -149.9959 129.4539
-111.4097 -152.3859 104.1752
-113.4488 -149.7885 107.8202
-106.9759 -155.3069 111.6804
-112.2126 -149.7029 115.0061
-112.5494 -150.1477 110.6632
-94.83313 -165.7511 96.82596
-88.53574 -167.6887 100.3794
-92.90119 -166.2226 99.52898
-83.24907 -169.7866 97.18021
-83.88743 -169.6906 95.503
-97.13734 -163.8063 111.74
-73.61317 -171.5733 97.14425
-74.89744 -170.9183 104.3853
-68.06564 -172.0522 96.29181
-75.32346 -171.5496 95.80192
-90.94284 -166.9012 157.1722
-87.72353 -167.0261 161.4298
-87.98526 -167.8022 157.4791
-85.9339 -169.3594 153.4188
-91.25957 -165.9217 161.1871
-92.18733 -167.1954 153.9561
-107.7939 -156.3517 149.2089
-106.6406 -156.9249 143.0902
-106.0094 -157.916 144.9571
-102.9816 -161.8473 147.577
-110.6336 -153.1603 150.5683
-104.2053 -160.1374 145.5859
-70.77866 -170.6284 160.4136
-71.4456 -170.9772 158.6478
-66.383 -172.0249 156.2358
-66.64747 -169.2056 168.1952
-114.3795 -148.8091 150.9336
-107.1742 -156.2706 142.8652
-108.4776 -154.4907 140.013
-112.8357 -149.2774 137.8723
-114.3143 -149.0148 152.2451
-107.0951 -156.2841 142.0908
-118.7126 -131.7335 128.7161
-115.5392 -142.1548 132.5623
-113.61 -147.622 118.0023
-118.7634 -131.5363 128.0602
-118.8119 -131.3591 127.6536
-117.5966 -135.1314 124.869
-100.5923 -161.3797 111.2864
-107.0291 -156.5114 102.3727
-106.6865 -156.9967 99.33175
-106.3259 -156.8722 106.0047
-105.8958 -157.4623 102.485
-106.0542 -157.3674 101.8775
-115.752 -146.544 103.9208
-115.3623 -147.3266 104.2932
-115.9305 -145.9723 104.4219
-114.0302 -149.0132 108.6788
-114.5099 -149.1725 104.6863
-85.93194 -169.5495 90.3448
-88.11105 -169.0013 88.5575
-90.46215 -167.8851 91.10883
-79.49754 -171.3721 93.88196
-81.4616 -171.0892 90.46825
-78.67065 -171.6726 91.40599
-69.79259 -172.1342 93.63899
-78.06944 -172.0661 87.46519
-75.37457 -172.1591 88.67467
-58.5629 -170.928 122.9043
-59.13287 -171.0588 124.9906
-62.59734 -171.4458 127.3479
-54.46788 -170.3153 116.1938
-54.15199 -171.0924 137.8991
-60.6558 -172.1936 144.6995
-60.43034 -172.0592 143.0245
-57.42081 -171.5207 139.4442
-101.5165 -163.2112 157.9523
-95.41067 -162.4567 170.1841
-102.8056 -160.5438 167.6533
-88.92325 -165.2439 167.5848
-94.34869 -164.4324 163.1558
-98.02361 -161.9548 168.5339
-78.5774 -168.0596 168.3754
-75.8727 -169.6516 162.5699
-76.80921 -170.8695 156.9246
-80.38302 -167.9668 168.054
-116.8623 -139.4775 140.3926
-115.1444 -144.7033 139.0493
-115.2889 -146.9615 151.8221
-114.0858 -147.5894 136.6534
-116.0755 -142.2197 141.4139
-116.3008 -140.724 137.7871
-115.5772 -144.2689 143.527
-114.3587 -150.9045 96.63124
-114.0743 -153.5474 88.06449
-106.2309 -157.8436 95.65403
-113.5939 -152.771 92.22496
-106.8195 -157.695 94.46651
-114.1313 -151.5322 95.06252
-120.8749 -136.283 103.0219
-119.4415 -137.9196 106.0811
-121.2328 -133.7304 107.551
-118.7406 -139.1836 106.4323
-94.85772 -166.4446 90.96159
-89.57275 -169.5923 81.25909
-91.75695 -168.2877 85.29117
-92.04346 -168.2905 84.76839
-89.93519 -169.1584 83.24259
-59.09149 -171.0377 108.1402
-59.92457 -170.9964 109.7073
-63.95853 -171.9077 101.5921
-64.49091 -172.0864 99.6961
-70.45985 -172.9664 83.23367
-75.11678 -172.9755 79.31136
-73.46619 -172.8156 82.6581
-70.80604 -172.854 84.35439
-65.77097 -173.6958 77.95974
-51.23187 -170.1687 120.8321
-52.48811 -170.5571 129.924
-50.98763 -170.5219 133.8808
-59.52786 -171.3584 133.3464
-62.411 -172.8385 151.6718
-54.78708 -171.6015 144.4226
-50.26726 -171.1074 143.5817
-58.69843 -172.1683 147.1616
-104.8768 -159.564 160.0429
-113.2342 -148.7048 170.7785
-103.4345 -160.8639 162.3241
-103.4696 -159.9837 168.3788
-105.0721 -158.1092 168.9416
-118.6976 -142.7322 161.5325
-115.8131 -146.9043 158.0749
-50.30325 -170.503 157.7327
-56.74576 -169.5563 164.4097
-52.87597 -168.766 166.2795
-52.46688 -169.3578 163.5548
-118.2082 -136.6694 145.2088
-120.2221 -128.2223 137.2623
-120.9812 -125.2685 134.8383
-119.0942 -126.7559 109.9918
-119.0654 -126.7895 110.5483
-115.4896 -117.3289 115.7622
-121.3126 -132.9707 108.3729
-120.1126 -128.9996 106.4005
-117.8476 -122.7061 108.2963
-119.5281 -129.0712 114.8171
-88.09701 -170.9453 75.79966
-87.37186 -171.284 75.08407
-93.35536 -169.4135 75.81296
-77.79247 -173.2697 75.02621
-66.14711 -175.0025 68.842
-69.70737 -174.4073 71.12727
-64.35001 -173.4235 82.23293
-60.53496 -173.26 81.1548
-58.94917 -173.0202 82.85201
-60.54502 -172.8614 86.14097
-46.4813 -167.5516 166.7493
-48.98066 -171.0296 154.5553
-43.13838 -168.713 156.4092
-42.07495 -168.4198 156.1578
-33.54763 -165.3379 157.491
-42.95708 -167.6016 161.232
-114.3493 -111.8962 125.2399
-112.3651 -110.1386 131.6669
-111.3464 -107.3641 124.5695
-117.8691 -117.7775 129.1852
-111.1064 -107.4595 127.0577
-112.987 -158.2365 75.95866
-108.4869 -160.0504 79.05753
-112.869 -156.847 78.99532
-106.0893 -162.5894 77.47427
-120.5579 -145.4221 86.032
-124.968 -138.7013 82.61615
-124.0085 -139.6585 84.3036
-119.3531 -149.5065 82.76121
-124.7242 -136.6969 87.24725
-93.75197 -171.1043 66.32834
-95.81688 -170.2239 67.90584
-101.1451 -168.1723 70.84076
-97.20362 -168.8537 72.98252
-74.75481 -174.2716 69.83957
-80.48286 -173.648 71.13339
-72.39919 -175.0033 66.03183
-49.11067 -172.3278 82.93591
-54.18628 -172.2499 88.07365
-62.53445 -172.3599 93.83479
-50.2185 -171.4163 94.16382
-38.96105 -166.8296 133.5348
-30.92469 -163.3288 116.5711
-35.15485 -165.5871 133.2648
-35.81852 -165.7115 131.5894
-43.99529 -168.4007 132.5385
-31.51839 -164.1891 129.0681
-93.80468 -147.0719 191.7469
-88.0715 -151.2598 187.9028
-92.27677 -146.3561 193.1633
-84.65875 -150.7596 189.6026
-106.2053 -151.7298 179.6526
-106.0371 -155.9007 173.4146
-112.2563 -147.5892 178.8149
-103.836 -158.8846 171.4381
-116.5107 -141.9936 182.3701
-68.27077 -153.4364 188.5038
-66.6884 -149.4299 193.9104
-69.27683 -151.2101 191.2693
-59.23709 -158.046 182.688
-53.79399 -163.3298 175.9505
-58.03163 -156.9916 183.7736
-55.42803 -160.583 179.3179
-53.01073 -155.1995 185.2828
-125.9018 -121.55 142.8313
-124.0665 -126.8078 145.5095
-123.0986 -126.9749 144.2046
-120.75 -137.4735 151.5636
-110.0033 -103.65 142.5396
-110.6982 -103.4312 146.2585
-110.2678 -104.4544 141.285
-113.1157 -107.8227 143.6949
-117.8584 -116.6932 137.8983
-110.1554 -106.0344 136.0364
-115.7681 -114.9228 134.0179
-112.8528 -161.2956 67.81116
-105.6814 -163.8697 75.25705
-99.89434 -167.262 76.81096
-103.5185 -165.5947 74.28944
-105.4883 -166.1252 68.05248
-123.3691 -152.5578 70.64207
-123.1858 -152.1864 71.39053
-124.1554 -144.4218 77.66099
-96.57188 -169.6043 63.44628
-90.07098 -171.3704 62.36712
-89.09206 -172.2097 64.16359
-70.23293 -174.0847 60.23629
-69.28334 -173.6279 58.45845
-36.17908 -167.1418 90.2936
-32.17223 -165.1884 95.07813
-43.92229 -170.1503 87.59077
-47.64779 -171.3358 88.52632
-41.09279 -169.4029 85.57298
-29.49189 -162.2761 118.4619
-26.64006 -159.49 118.374
-28.52874 -162.0768 124.9052
-29.88831 -162.8298 119.9257
-25.61983 -158.5505 118.8421
-25.39716 -158.2337 117.9687
-28.19999 -163.2342 138.8264
-18.07349 -152.4793 148.4937
-26.14684 -161.9253 147.4991
-18.49222 -153.0227 148.854
-22.70188 -157.5941 145.6094
-102.0487 -143.5332 194.3731
-103.727 -140.6298 198.0146
-95.86731 -145.6106 193.1503
-101.1812 -144.7874 192.8397
-102.4997 -147.1184 189.1763
-115.7013 -138.8407 192.2203
-110.579 -144.8615 185.6479
-118.0231 -136.7278 193.5119
-113.1586 -142.2966 187.6784
-59.27975 -149.4534 193.489
-60.76891 -149.3067 193.8682
-50.89644 -154.4507 185.9331
-122.7016 -138.6562 179.9912
-122.1502 -138.9427 179.896
-132.4564 -134.9731 164.9147
-135.5161 -133.7522 159.485
-131.9857 -125.5965 151.7281
-129.9477 -127.5307 151.5478
-131.5495 -116.8345 144.7174
-12.78791 -145.3539 170.4342
-18.99198 -152.8389 166.6142
-17.87359 -151.1329 169.8715
-22.26247 -156.2591 168.3839
-25.95286 -161.1608 162.8762
-20.23115 -154.3865 165.4727
-99.7764 -94.96584 137.9622
-94.99899 -90.36462 138.4839
-106.8007 -95.55297 153.5097
-106.0245 -94.8153 153.5683
-106.2278 -97.4892 147.0022
-104.8915 -97.29215 144.2699
-102.1104 -93.49111 147.5378
-106.594 -95.40625 153.3941
-111.5969 -94.76395 162.0083
-117.2063 -93.19273 176.022
-115.6097 -95.9433 162.5149
-112.4991 -94.72237 163.3896
-92.4083 -89.24944 129.4324
-93.12447 -88.81816 122.3506
-104.6688 -101.1685 131.8123
-96.31186 -93.4085 132.5227
-105.8496 -102.16 131.0393
-97.66045 -93.44541 124.6246
-107.4295 -164.6803 64.23062
-106.3297 -165.5891 65.07636
-106.5768 -164.8309 61.01992
-128.629 -136.6055 77.91226
-132.0527 -137.7017 71.74322
-126.5539 -140.5927 77.18614
-129.7117 -143.0788 70.08037
-131.6504 -128.6616 73.56302
-129.0744 -130.3925 78.03085
-125.7946 -116.5791 78.48691
-126.851 -127.6049 80.48842
-132.3683 -129.4369 72.72878
-128.1505 -121.1517 76.41177
-97.38766 -86.56386 96.94967
-101.0304 -86.86467 89.70483
-95.51714 -81.89478 91.59182
-93.87475 -79.69762 90.71288
-95.14172 -84.47125 97.5816
-105.3024 -95.76033 98.3867
-104.5031 -93.52548 95.61521
-94.55939 -80.27828 90.40516
-95.06828 -85.04343 98.89043
-99.96619 -168.1436 60.45854
-97.18044 -168.6202 59.08949
-95.48235 -168.7417 57.36023
-25.94524 -160.0261 133.2803
-16.87343 -149.6471 128.9881
-21.05942 -154.4863 127.663
-19.54714 -152.6979 130.7925
-16.92731 -149.8348 120.6731
-17.29469 -151.6377 159.2719
-19.38686 -154.2829 157.2916
-18.26702 -152.4408 163.4639
-11.97355 -144.5398 168.7511
-22.04951 -157.7643 153.3919
-20.24464 -155.3011 157.2741
-106.6968 -132.4399 207.7029
-93.50577 -142.213 198.5895
-105.563 -132.6235 207.7449
-102.832 -134.5809 205.941
-84.28246 -143.0865 199.7009
-71.23272 -145.4383 198.492
-54.99065 -148.1534 194.525
-47.05444 -153.4356 186.7393
-46.37164 -149.4746 191.6298
-47.75657 -145.9511 196.2648
-47.98296 -152.5302 188.0122
-134.8498 -134.3437 174.2823
-30.42257 -151.0208 184.926
-32.32122 -154.933 179.8242
-38.59793 -153.6891 183.7504
-37.11827 -156.2584 179.4869
-30.2114 -154.6205 179.5761
-30.38978 -156.8453 176.3731
-134.4173 -134.3322 164.9044
-134.6124 -134.5788 172.8397
-138.054 -133.2272 167.1712
-133.3538 -124.4695 151.834
-130.1595 -133.468 155.7943
-132.2848 -131.2356 155.3178
-128.6024 -102.4765 154.9685
-129.8612 -112.5452 147.1927
-135.0095 -112.6456 148.3491
-123.1454 -102.3605 154.317
-126.4603 -107.0506 150.9855
-119.8676 -99.1735 156.4575
-14.04673 -146.1288 173.691
-16.95762 -149.5851 172.7552
-11.24354 -142.0021 178.0329
-100.7981 -92.25187 149.0205
-97.9362 -91.20853 147.4982
-96.46349 -90.57219 142.8313
-95.33934 -90.30706 147.8841
-93.21363 -89.47286 144.4399
-90.11631 -88.68349 156.0627
-113.8837 -92.64567 174.885
-109.1117 -91.67764 175.857
-111.2716 -92.90977 170.739
-112.8165 -91.53557 180.3674
-121.4556 -97.81516 160.3637
-121.4201 -98.31445 158.3595
-118.6657 -94.48232 172.1962
-82.99579 -86.67332 122.3311
-67.47946 -85.43906 120.0485
-84.62582 -87.21111 126.5165
-73.87433 -85.86703 120.2089
-70.37764 -85.78199 121.5613
-73.49036 -85.70056 118.8384
-89.46114 -84.57437 108.5251
-86.97596 -82.98066 101.7225
-86.83537 -85.07029 111.5563
-75.36403 -82.91401 104.534
-79.04347 -83.0409 104.139
-80.46555 -84.52142 110.6969
-92.08197 -83.25945 101.6558
-120.7599 -155.7495 64.06985
-113.0664 -160.5429 62.26024
-115.4111 -159.0501 63.54421
-81.49107 -77.83752 87.57307
-84.60301 -79.70672 92.43673
-73.26377 -77.69785 88.606
-79.87217 -77.68249 87.40733
-70.49252 -76.13062 84.55636
-87.15804 -79.446 91.23626
-88.17486 -79.78774 92.04726
-83.58611 -77.00207 84.79034
-52.70315 -172.2892 56.06341
-45.86452 -172.7506 59.58696
-13.09648 -143.7525 146.8319
-13.9723 -147.7585 152.4437
-12.8714 -142.3033 143.4205
-13.66496 -145.9234 148.4599
-12.83917 -142.1545 143.2076
-11.36827 -135.7199 135.1596
-12.35605 -139.5 138.025
-113.1569 -130.3775 207.5344
-109.3083 -134.2164 204.3393
-108.3186 -131.7906 207.9866
-110.6833 -137.2808 199.2118
-117.9922 -132.4663 201.8483
-65.03351 -143.3213 202.4847
-65.78714 -144.9194 200.113
-84.91812 -139.7375 204.0493
-82.98929 -139.4829 204.809
-87.5197 -137.5333 206.4302
-92.84846 -133.0045 211.3257
-124.4906 -133.2404 193.4856
-126.1437 -133.5633 189.9853
-129.9387 -132.9649 186.1291
-60.24214 -146.0322 198.0351
-57.31971 -144.2673 200.1324
-49.18154 -143.6342 199.6568
-21.70312 -148.2355 183.6411
-22.79871 -155.0975 174.3822
-14.20261 -144.2036 180.9063
-16.89718 -144.8911 183.0605
-138.2978 -133.2059 168.3717
-138.927 -133.1941 172.4805
-140.3125 -132.9889 163.7567
-139.3037 -127.6554 155.5463
-142.2697 -124.1635 154.1571
-139.2196 -118.3147 150.1872
-137.7654 -116.412 148.8011
-99.24297 -91.45732 159.4261
-106.1303 -92.55325 167.5791
-105.2703 -91.5887 171.7853
-102.6031 -92.15517 162.3737
-99.90284 -91.77898 158.8398
-102.763 -90.99273 170.0607
-117.4349 -92.41949 180.0372
-115.7705 -92.13059 187.8358
-116.6913 -92.31486 187.9062
-111.5988 -91.28899 186.304
-89.12936 -88.19204 133.1342
-74.55154 -87.13866 131.2412
-67.20773 -86.27151 127.3881
-86.82287 -87.85493 131.3659
-80.51952 -87.15372 128.4299
-65.0444 -86.08439 126.8417
-66.94293 -83.8202 111.5243
-81.10012 -85.95623 117.5643
-66.46695 -84.02207 112.6772
-74.16695 -84.32847 111.7244
-70.79611 -84.57541 114.0295
-79.71259 -85.58543 116.1724
-84.05496 -86.0905 117.2813
-81.8668 -80.84843 96.1974
-73.87553 -81.03341 98.05045
-70.59434 -80.45146 96.92941
-76.08972 -81.73785 99.69863
-68.75926 -81.1264 99.16402
-69.42166 -78.63744 91.93475
-71.77374 -81.71076 100.3362
-117.3984 -156.6016 59.47326
-104.8272 -163.0848 56.8274
-126.3199 -148.1656 61.92575
-129.046 -143.6645 64.11768
-128.0064 -145.8905 64.2808
-125.9232 -101.8958 73.83749
-105.7777 -86.05195 75.21359
-122.8937 -100.2061 74.94095
-118.2537 -94.9673 73.20135
-108.771 -84.72208 70.24275
-118.9176 -101.8201 81.34647
-115.4836 -97.4419 79.41086
-113.6565 -89.33123 70.90118
-122.7355 -98.93117 73.46323
-132.68 -124.3822 69.09106
-131.9708 -121.2324 68.77615
-132.7412 -125.3854 68.58765
-69.76552 -73.03526 73.6571
-79.117 -76.05765 82.62228
-86.72263 -75.83466 80.10788
-82.11686 -76.43731 83.34078
-66.75497 -74.04517 78.02318
-67.49294 -74.3094 78.82474
-66.73555 -72.08025 70.84103
-74.6932 -72.95891 72.31431
-81.76923 -73.33168 72.21114
-75.3139 -73.31107 73.43878
-83.91933 -72.74036 69.67969
-95.55453 -73.36938 69.56713
-93.131 -75.14848 76.36822
-84.48601 -73.3101 71.58714
-86.16708 -168.5304 55.2668
-97.20554 -163.101 54.72876
-82.06174 -169.3078 55.02613
-75.39274 -169.4862 54.53353
-55.49977 -170.8008 55.00423
-55.94842 -171.2812 55.19545
-45.25457 -173.8168 63.86341
-45.5988 -173.5099 62.43793
-10.7524 -148.2469 89.08432
-9.35995 -144.4464 91.07158
-9.523845 -141.7021 96.88615
-7.517843 -137.4901 97.35526
-10.69709 -147.4381 90.40998
-18.48559 -162.1193 70.17007
-22.92791 -165.7076 68.02896
-18.87859 -163.1697 67.49804
-21.75508 -164.6927 68.82316
-11.1493 -135.4348 122.0613
-9.723359 -130.3559 126.7951
-9.256899 -131.7135 120.3604
-11.44055 -135.1177 124.676
-9.461259 -141.2849 153.7031
-11.4624 -143.533 152.5752
-11.27295 -141.7428 150.9702
-103.5243 -127.2574 213.6579
-103.8219 -122.43 215.7896
-108.7379 -121.6772 214.538
-117.3643 -121.1493 210.8532
-119.9185 -120.597 209.9593
-112.4921 -126.1491 210.728
-120.1942 -130.4121 203.6061
-123.3219 -131.4518 199.0493
-57.71121 -141.6981 203.8775
-62.65251 -145.1671 199.6738
-26.64829 -147.0845 189.2151
-39.04204 -144.8033 195.9108
-25.08345 -144.9745 191.763
-24.40314 -140.2108 198.3133
-38.94903 -134.416 210.0352
-46.78008 -141.606 202.1263
-40.20856 -138.2545 205.1779
-37.99547 -135.4373 208.4628
-136.2508 -131.0488 183.7169
-139.3344 -129.9423 185.1926
-137.0118 -131.3804 181.7621
-12.20577 -140.5986 185.1457
-15.4284 -142.2439 186.8781
-15.98196 -141.7808 189.2178
-14.0414 -139.702 191.1542
-143.8894 -130.0508 157.313
-145.791 -123.6048 154.2741
-149.3051 -124.1964 154.8915
-7.15111 -139.1725 178.5784
-2.475997 -137.0092 176.4394
-6.865907 -140.4722 170.6973
-2.80728 -137.7239 169.6156
-99.25818 -88.29873 181.9729
-94.82224 -87.8344 175.2977
-93.96788 -87.20225 178.6599
-100.1549 -88.80837 179.7616
-97.22363 -87.89317 180.5607
-92.71199 -88.34291 165.8754
-91.84065 -88.54862 162.0214
-71.85033 -87.58447 156.5531
-73.13888 -87.5078 147.2235
-72.74994 -87.48212 146.8983
-64.99251 -87.15358 152.2238
-83.50666 -88.17421 154.7333
-69.2242 -87.1862 139.8853
-65.74922 -86.97329 138.0407
-65.35957 -87.06988 145.5855
-63.69229 -80.25023 97.22064
-57.52054 -80.05099 95.62829
-42.61539 -82.00624 98.75185
-58.59606 -79.38412 93.8989
-53.9752 -79.71087 94.06802
-63.21846 -78.61386 92.46142
-55.05825 -79.1632 92.68088
-60.62564 -78.34779 91.27077
-102.7235 -161.5071 55.16322
-130.5221 -136.7812 61.59796
-127.4362 -143.5858 61.2371
-97.01952 -75.21067 62.36377
-96.37662 -74.14325 65.61094
-96.97575 -74.50085 66.80774
-122.5088 -96.97716 69.84779
-132.0083 -126.9474 64.77868
-129.5315 -112.0891 66.71767
-131.5424 -123.5996 65.51761
-128.1457 -106.6647 65.84741
-54.5536 -74.33772 77.36302
-52.28509 -74.64992 77.99815
-57.33265 -74.02026 76.82269
-46.21357 -75.18314 78.59216
-59.03555 -72.64065 72.15733
-60.70059 -72.12779 70.65353
-48.46304 -75.11128 78.83183
-68.26048 -72.21392 63.35682
-89.8108 -72.93436 68.9063
-78.05809 -72.18537 68.43986
-97.24505 -162.7822 50.91898
-103.1055 -161.5086 42.81353
-101.4156 -161.9004 48.53817
-100.0356 -162.1882 48.78204
-69.79086 -166.4234 51.85849
-80.33765 -165.5346 46.46414
-82.19549 -165.3818 45.61356
-79.72762 -165.6145 47.52045
-77.55643 -165.8642 50.37302
-50.39 -169.0625 54.61991
-48.06462 -168.9328 54.76046
-37.55949 -170.2767 59.91468
-27.49346 -167.8304 61.02849
-7.395251 -120.9336 136.879
-10.97371 -115.9693 139.53
-14.78743 -108.5343 145.4812
-1.870455 -132.0352 152.7519
-0.5782073 -124.0838 147.7593
-2.669928 -125.7912 147.4442
-131.5679 -116.0052 203.5494
-133.7198 -115.6843 201.8479
-128.0041 -121.0462 203.7357
-133.0815 -117.9076 201.1108
-23.42068 -146.5394 188.7782
-13.22246 -137.1897 195.7809
-21.05808 -145.4077 188.8706
-9.807585 -137.8425 188.3505
-10.63589 -139.7746 184.4653
-5.115938 -136.7022 184.0198
-142.6354 -102.0942 155.6516
-143.8368 -104.6288 154.3188
-149.2855 -111.5056 150.5252
-147.3202 -102.5166 155.0658
-103.2815 -90.10403 198.0764
-101.8152 -89.52827 194.9558
-104.9024 -89.98215 184.2402
-105.0892 -90.38833 192.2251
-99.88158 -88.88921 193.5797
-123.79 -93.91792 198.0943
-130.7386 -95.45474 191.9159
-124.7678 -94.00988 189.2355
-45.86141 -86.84852 123.9024
-48.78425 -86.20904 119.5379
-49.19453 -86.73712 124.8983
-51.88083 -86.12101 120.6126
-41.68875 -87.0862 123.6052
-38.27551 -87.21539 122.7316
-40.21305 -88.24226 135.3601
-39.03213 -88.41226 144.3938
-44.69077 -88.13645 148.4342
-39.84512 -88.49488 155.7119
-49.32754 -87.77852 140.1559
-42.65175 -88.14154 138.6949
-40.82325 -88.29288 142.8547
-40.07643 -88.44923 152.8583
-41.52436 -88.29734 146.7487
-43.65665 -77.18233 84.99543
-39.76132 -77.63683 85.62986
-34.93855 -78.31628 86.75301
-35.10321 -79.34907 89.76943
-37.42523 -81.21546 95.57409
-61.7257 -75.93645 84.54729
-43.24506 -80.40562 94.24785
-37.18079 -78.33221 87.19072
-129.52 -121.3526 62.64746
-130.5394 -122.9278 63.05727
-130.4454 -126.4246 62.43735
-36.6101 -75.97327 79.43325
-34.56356 -74.06512 72.25017
-37.04866 -76.20401 80.34035
-54.35977 -72.50909 70.71796
-43.10048 -73.26351 71.12608
-52.64816 -73.29759 73.17092
-35.72223 -76.01377 79.39805
-53.18373 -72.42436 65.63251
-48.47688 -72.71114 65.91415
-44.75269 -72.77202 67.33057
-66.00288 -166.4995 47.85119
-72.01585 -165.8581 41.47968
-79.22964 -165.2421 37.41228
-80.94543 -165.1284 37.21058
-70.29322 -166.1465 45.74584
-50.2174 -165.8546 52.28661
-54.63637 -165.8698 45.21741
-45.75405 -165.4745 49.89964
-51.26404 -165.8388 50.10612
-35.39905 -163.8125 54.41536
-32.47806 -163.4854 54.79459
1.28595 -141.3288 70.82109
2.084311 -139.9427 70.95842
0.0670362 -140.2239 73.70344
-2.431619 -139.3057 78.3191
-6.247298 -129.0747 93.67851
-6.464498 -120.8923 87.44246
-7.448314 -124.3982 93.95328
-5.553702 -123.4121 86.35448
-6.200145 -123.1195 88.40828
-4.916276 -123.571 84.21837
-6.246377 -120.7049 86.50434
-6.0873 -119.7724 85.13836
-7.018886 -154.9372 64.77558
-9.452881 -156.428 64.79311
-17.29294 -161.3583 61.90261
-17.40861 -108.6014 129.0012
-16.83155 -107.9332 120.5822
-16.29392 -109.6199 125.5631
-15.11013 -112.2485 130.503
-13.08082 -114.5717 126.8484
-3.107037 -114.4703 144.7881
-8.487177 -106.5969 150.2368
7.172958 -116.0538 147.9643
0.582624 -124.9837 149.3739
2.261084 -123.3945 149.5313
-0.4681291 -125.4656 148.8887
-97.37668 -111.574 220.3907
-102.0985 -113.8002 219.6018
-103.968 -111.0226 218.5438
-116.8093 -111.9266 214.5327
-109.9446 -111.2453 216.8322
-108.9771 -102.776 214.878
-110.1719 -107.7512 215.7992
-127.5755 -109.3857 207.5542
-127.7084 -107.9072 206.8679
-127.3314 -110.5654 208.2082
-136.1069 -122.3233 196.2035
-136.4983 -121.3837 196.4328
-137.0273 -122.6731 195.2967
-144.9976 -113.3231 194.437
-10.02643 -131.7169 202.2943
-13.27473 -132.8664 202.7785
-0.4051726 -134.0039 184.6725
-2.579849 -132.0752 194.1012
-4.693941 -133.2468 193.608
-141.8447 -97.15396 162.0313
-142.5051 -96.72057 163.0942
-142.4605 -97.84126 159.2329
-136.1288 -95.55294 173.8193
-131.3817 -94.96668 175.3824
-135.2542 -95.52605 176.3578
-0.2796571 -136.4004 171.3999
6.821065 -133.8257 165.6021
4.922423 -132.3948 182.1492
4.449939 -131.924 184.2688
2.499637 -133.9757 180.6133
2.658229 -129.7849 154.2345
2.074134 -131.1424 154.7867
2.560317 -129.7652 154.1865
-71.04458 -86.38157 166.6253
-84.02993 -85.39388 180.8951
-67.25051 -86.47344 163.9904
-68.37058 -85.72069 170.4282
-71.32336 -85.61789 172.723
-72.22369 -84.47547 182.0891
-71.13304 -86.14714 168.4986
-70.02168 -84.38108 181.712
-73.87476 -84.94704 179.2457
-73.47464 -85.62663 173.7426
-113.5854 -95.44963 206.6574
-107.632 -95.81525 210.1013
-108.2832 -95.7394 209.6609
-125.4904 -95.45904 200.1961
-125.6755 -94.59364 198.5713
-37.78234 -88.78683 133.3251
-33.69537 -92.32784 131.3508
-30.24691 -95.74013 132.4036
-31.94683 -93.36553 127.4496
-36.01625 -90.35963 132.745
-29.62224 -89.63734 98.72478
-19.07424 -100.2436 97.32208
-24.31487 -95.00837 98.0881
-34.99316 -84.05833 99.08022
-22.99267 -97.59483 100.4398
-31.69273 -82.03365 87.89685
-30.54186 -84.16333 89.69922
-28.94152 -88.2785 94.52554
-30.42118 -85.0918 91.30618
-32.26512 -77.46929 78.47476
-33.93587 -77.06304 82.33942
-18.26231 -93.69289 81.07089
-32.6487 -74.57268 71.71089
-13.21636 -99.73774 82.54852
-29.20718 -81.1152 79.32284
-11.8105 -101.3749 82.83178
-15.14394 -96.94975 80.67715
-103.4372 -161.2654 35.57218
-101.4802 -161.5543 33.13157
-79.44205 -165.0668 33.19946
-77.15349 -165.2835 35.21994
-82.67097 -164.8284 32.11169
-51.24642 -165.4581 40.41934
-62.10223 -166.4763 48.66519
-52.09098 -165.4865 39.87513
-57.52454 -166.1002 46.42931
-31.04618 -162.5791 44.73254
-40.56122 -164.611 52.93732
-27.36363 -161.8636 51.31933
-28.3177 -162.0486 49.55987
-19.6454 -160.0112 57.47077
-18.73914 -159.4737 57.62985
-0.7797094 -145.8199 68.1349
-0.07544589 -144.6016 66.49051
-0.5276371 -145.3803 67.37843
-0.7435277 -126.1709 77.80885
5.186831 -133.5403 71.23238
0.6703286 -128.437 76.4073
-2.791024 -117.6757 78.13547
-5.486099 -114.0001 81.0175
-2.58672 -127.8902 81.16268
-25.0176 -99.466 121.9387
-33.41724 -91.06095 121.3699
-28.44479 -95.86652 119.864
-27.97306 -96.6138 122.8778
-26.39073 -98.41192 125.3115
-18.7649 -105.8056 123.2595
-27.89249 -93.34615 105.6108
-25.71066 -96.39061 109.7116
-20.12777 -102.4805 110.6616
-29.42113 -91.9688 106.9789
-31.43309 -88.80559 101.2005
-28.94955 -91.42697 101.1309
-24.42133 -96.31221 101.5972
-27.8697 -92.99316 103.4939
-138.6439 -111.2335 199.5703
-142.9472 -112.0412 196.6364
-134.9678 -108.245 200.7933
-143.0997 -110.9926 195.9309
-7.619972 -116.7919 211.0468
-19.72079 -128.5663 211.0289
-8.689453 -118.0229 210.9562
-32.23798 -122.9889 217.9275
-27.75416 -123.3166 216.2117
-28.4769 -117.6858 219.1751
-153.8322 -113.5702 187.8129
-153.7706 -116.2483 186.2207
-159.2007 -115.9823 182.4728
-150.0409 -118.5133 187.5226
-141.0301 -96.16032 185.4458
-142.6453 -96.29613 186.9116
-137.4824 -95.98359 188.1275
-133.4511 -95.75426 189.7911
13.36506 -132.7067 160.699
16.08835 -132.4987 162.4787
12.6717 -132.7642 160.6045
7.859934 -131.8335 179.9458
10.00382 -132.5403 175.2442
8.744857 -121.7123 151.8383
8.357566 -122.6392 152.2826
11.45625 -119.813 151.3235
8.604571 -127.8404 155.2748
-103.7 -90.92549 203.0567
-103.0084 -92.53014 206.1265
-99.90466 -90.34025 203.3567
-86.45148 -85.61937 186.326
-88.44346 -86.12774 188.597
-67.48926 -84.0274 184.0088
-88.27383 -86.39524 190.251
-87.91112 -88.10313 200.5392
-71.05307 -84.25278 184.0055
-85.50642 -86.3503 191.0267
-73.2727 -85.27058 189.2189
-55.70066 -86.22867 168.9854
-59.49332 -86.29803 166.5267
-46.34811 -85.75069 177.4425
-62.78217 -86.43104 163.8263
-51.25196 -84.75771 182.7083
-59.50098 -84.8115 178.1178
-54.63913 -84.9307 179.6463
-51.21907 -85.02131 180.6688
-56.69555 -86.35953 167.4617
-41.05861 -85.48189 182.2136
-37.41239 -86.73012 177.0735
-30.34535 -88.42347 179.3864
-35.72455 -87.49078 174.575
-36.96227 -86.60848 179.1862
-34.56925 -88.54713 168.2771
-35.67519 -86.74507 181.0788
-23.5563 -92.81893 164.4387
-29.01099 -90.81625 165.1378
-30.29629 -90.90065 161.8261
-23.30095 -93.60883 160.0557
-27.53514 -90.56207 169.9232
-30.74198 -90.39551 164.0174
-29.86452 -90.4421 165.627
-50.62041 -74.97768 59.45427
-63.26891 -75.034 58.30632
-11.06788 -101.3234 81.71524
-15.66678 -93.25719 76.27286
-16.60183 -94.22448 78.53966
-16.81636 -94.11614 78.63245
-11.82863 -98.30694 78.63861
-4.932399 -102.7617 76.91392
-29.04581 -78.30532 71.45561
-8.724593 -99.22797 76.45974
-8.43682 -95.92445 71.87316
-1.686525 -101.7156 72.03605
-89.01487 -163.9384 34.41726
-92.17411 -163.2517 31.8846
-115.453 -157.457 31.9906
-106.7474 -160.4229 36.3809
-106.8041 -160.2954 33.05185
-46.18623 -164.7869 31.33924
-54.53688 -165.4155 34.46804
-29.5784 -162.0643 37.16528
-26.09339 -161.2513 32.39888
-28.14957 -161.6601 33.04971
-17.72119 -158.5512 49.59355
-10.54927 -156.0419 45.13242
-15.84407 -157.9319 46.72118
-25.17184 -161.2089 51.91022
-20.28196 -159.6351 42.62898
-18.4795 -158.6151 57.2924
-1.647601 -146.846 63.72985
1.040603 -140.7398 62.62123
-9.173933 -96.27741 165.5826
-7.474144 -95.77409 168.4818
-11.07723 -93.5425 175.5536
1.660832 -103.1073 154.8312
8.076844 -108.4119 151.4444
7.759334 -108.6138 151.3026
-72.71053 -95.36521 220.3776
-86.32496 -98.65073 220.264
-86.27956 -103.9579 222.6477
-73.73686 -97.45679 221.1954
-140.3996 -96.5601 190.1635
-140.1986 -98.79412 191.5234
-144.7401 -109.6549 193.9106
-0.7366035 -127.7013 199.5339
-5.022523 -128.1027 203.0651
-0.7918255 -125.9335 200.6253
1.734622 -122.8332 200.2331
-6.882267 -115.9782 211.0698
0.8355687 -113.1302 206.4051
-5.808591 -119.2025 208.5474
4.202812 -113.1157 203.7345
-16.08941 -105.745 214.2383
-17.45725 -109.4378 215.7401
-19.52421 -108.1024 216.1264
-147.7241 -104.5136 188.7881
-146.2343 -111.2266 193.6098
-150.4251 -104.9114 186.8816
-147.8277 -104.7913 188.8577
-156.0304 -109.8277 185.1497
-148.7403 -96.68528 179.2327
-147.2199 -96.58699 178.3371
-146.5511 -96.55215 181.639
-154.9586 -97.06443 172.8442
-151.5549 -96.84174 169.6643
16.65018 -131.5477 168.3297
15.17108 -129.9106 178.1317
13.95369 -131.9572 171.1591
17.87799 -130.7257 157.8599
19.95364 -127.1432 156.29
18.59077 -127.1239 156.1563
20.06398 -120.3491 152.964
-39.61088 -87.29593 195.164
-52.1846 -86.1319 192.9831
-47.02365 -85.92028 189.7805
-44.68481 -86.4184 191.86
-45.05756 -85.81113 188.3908
-64.14154 -83.8056 183.6614
-49.17757 -86.65726 194.9727
-79.06985 -77.47813 54.03708
-86.0865 -77.78014 53.51751
-79.68018 -77.47777 53.30236
-82.33954 -77.65136 54.63625
-39.35 -77.97867 57.35489
-45.01721 -76.48689 58.41241
-48.84111 -77.49637 57.07463
-6.976381 -98.06386 65.28416
-10.43608 -94.49077 66.0893
-25.96218 -80.45423 63.85992
-6.726591 -98.43409 64.89787
-60.19391 -165.5802 29.97589
-52.40716 -165.1841 31.81139
-53.40422 -165.2362 31.61076
-34.93657 -162.9384 33.18057
-42.60664 -164.4919 36.35845
-18.93202 -159.2171 32.9667
-16.33316 -158.4079 33.98259
-21.81397 -160.0891 31.06735
-7.26042 -154.7477 44.5089
-12.41726 -156.3627 48.12157
-15.16988 -156.8965 51.31143
-11.64569 -155.5437 49.79942
-19.2275 -159.423 38.34769
-5.849599 -154.6112 39.02005
-14.62766 -157.7524 38.8144
4.780591 -132.0597 67.75507
4.088168 -132.8916 64.61355
1.841909 -116.6341 68.17192
3.295985 -120.38 70.78481
-2.411697 -96.86539 166.4623
-5.515644 -93.84939 176.8023
12.14891 -116.1227 195.8009
11.68193 -115.9917 196.2355
12.04931 -116.7137 195.5402
5.344111 -123.9226 196.5899
-35.64812 -110.6337 221.7099
-37.32884 -105.2498 221.0395
-12.73252 -102.9485 211.9366
-7.801471 -107.2204 211.3033
-19.16675 -100.4142 213.8415
-13.36932 -103.4189 212.381
16.15777 -123.1833 188.9266
16.07449 -127.9495 186.3571
17.6139 -125.0252 186.6979
16.00974 -125.6858 187.664
11.21557 -100.2872 156.7618
20.0382 -101.1728 155.6189
15.17074 -106.6216 153.3055
19.37003 -99.97294 156.2671
-63.51652 -87.67128 204.25
-55.71299 -87.71114 202.4259
-44.91731 -88.36523 203.1133
-55.75608 -87.07912 199.049
-55.20127 -87.27955 199.9786
-50.88142 -87.68773 201.0387
-62.917 -85.60954 193.0406
-57.3754 -85.39357 190.4357
-19.76592 -91.2953 197.5584
-19.88372 -90.99866 191.537
-22.28801 -90.99091 199.1815
-21.12017 -90.6455 187.9298
-116.4087 -96.09041 49.9351
-117.8098 -97.52811 50.49873
-121.0792 -100.5896 51.06325
-115.3704 -95.03428 49.54121
-133.1044 -126.6978 44.29853
-129.2574 -110.6705 43.297
-132.3021 -123.6249 41.98572
-130.3916 -115.588 42.09487
-132.3106 -123.3772 44.19567
-27.38165 -84.09748 58.36102
-21.22366 -88.69789 60.11911
-23.98755 -85.64175 60.25446
-42.52839 -77.84624 54.7069
-47.19424 -77.6303 54.66107
-47.72819 -77.63051 55.3007
0.1272437 -134.9144 60.25994
-0.3001226 -116.1528 62.9815
-0.825228 -125.7339 61.10923
-46.26001 -95.82552 218.663
-63.05194 -89.11224 207.5572
-61.98186 -90.20142 209.9291
-61.27489 -93.46803 217.9047
-57.00512 -92.70114 214.5039
-47.16368 -95.25748 217.5451
-61.12182 -89.15457 206.9987
13.25813 -109.6259 195.7588
7.982695 -103.3193 196.427
4.363198 -100.4495 197.6897
4.078566 -106.369 201.3015
-1.763771 -98.71832 202.4679
4.562493 -108.0466 201.8158
4.703948 -110.2294 202.9567
-30.67 -95.28622 212.7688
-31.91874 -94.55419 211.9143
-36.4923 -92.69676 210.3128
-33.98862 -93.23994 210.311
-23.22247 -91.3965 203.1394
-17.25471 -96.41472 209.2345
-21.16569 -92.60977 204.3265
26.46144 -114.6027 186.0165
22.13201 -118.6857 186.5862
27.49752 -122.6503 180.2707
25.81335 -114.0105 186.8498
14.3952 -96.70176 162.3996
16.46618 -96.65374 161.173
16.36452 -96.74168 160.9329
-23.28948 -94.09912 207.9461
-26.5137 -92.93147 207.0156
-23.40147 -95.93965 211.2165
-104.0907 -83.84506 42.58804
-100.9065 -81.79819 46.68084
-116.9562 -94.84412 44.85823
-113.487 -91.98075 44.95286
-115.1338 -93.20612 43.98557
-68.95588 -77.09682 45.02011
-81.89089 -77.69352 45.44474
-73.99232 -77.44079 43.78539
-28.45479 -83.30614 57.27716
-26.0083 -85.52421 57.04014
-8.091379 -102.6775 58.12625
-27.95934 -83.58437 56.69856
-3.996426 -93.98722 185.0052
-6.292117 -93.60192 193.7686
-6.825105 -93.57194 198.985
1.198739 -95.42506 195.4493
4.671828 -95.55925 183.1727
3.288384 -95.3575 182.8813
4.238109 -95.52629 183.8464
1.994026 -95.08337 180.4525
10.17197 -102.3969 194.2344
14.42415 -102.8806 191.2456
11.31419 -101.0827 192.6635
-2.680675 -95.47388 199.6264
2.414396 -95.80696 196.6097
21.81886 -110.5732 189.5721
25.50469 -108.4011 185.506
22.48085 -106.6505 186.9469
25.87034 -111.6902 186.9825
15.15986 -96.45679 183.0609
12.48043 -96.02764 173.4058
16.12652 -96.48563 178.9707
13.72913 -96.27448 180.7214
-103.3481 -83.48685 39.764
-106.6314 -86.36544 39.53337
-98.78037 -79.27912 41.14861
-116.9146 -94.78607 41.92881
-103.4547 -84.14165 36.81539
-110.4406 -89.20008 41.9122
-35.37223 -78.3104 44.40383
-41.9996 -77.93192 45.20683
-49.33938 -77.36131 48.22093
-6.553521 -103.7637 55.15636
-3.805366 -117.951 55.77212
-6.069263 -111.2152 59.41005
-2.167981 -129.4048 58.65121
-26.67739 -83.62566 49.24001
-12.91592 -95.00408 47.75618
-25.40482 -84.44079 48.49596
-28.10567 -82.24577 48.88478
3.448982 -124.5835 35.59352
3.349982 -124.1841 39.3932
1.22032 -115.5919 36.70781
3.845985 -126.1853 38.67554
-3.08772 -106.6496 48.45479
-2.989802 -108.0608 48.89195
-3.580206 -106.9145 49.45102
-1.982812 -112.4245 48.98348
10.94129 -96.00607 180.2465
9.601597 -95.91611 180.5197
7.733797 -95.86452 183.8284
5.362644 -95.87505 191.0455
22.90092 -97.4453 181.6703
25.6159 -100.2412 181.0333
23.832 -99.65402 182.1237
22.66738 -103.1855 184.9397
20.41002 -96.70942 171.585
24.18836 -96.9324 168.9019
23.02731 -96.84779 167.69
18.38268 -96.65329 181.0644
19.96276 -96.69044 172.8408
-88.86658 -78.58944 39.62061
-70.88004 -77.79312 39.07423
-72.21529 -78.76285 34.23003
-75.77112 -77.78082 40.45041
-70.69838 -79.02709 32.4196
-81.43586 -79.27271 34.01694
-82.77271 -79.4359 33.52105
-90.44498 -79.18962 36.87228
-93.33343 -79.82784 34.30426
-11.65311 -95.02718 43.5779
-17.59161 -90.30086 44.94646
-27.30587 -81.89847 42.56109
-16.98506 -90.57914 43.39771
-54.50003 -78.81076 34.59951
-59.83562 -78.021 37.40672
-59.10579 -78.34889 35.84333
-44.67895 -78.76562 37.47239
-40.96899 -78.33377 40.78272
1.460538 -115.9832 43.04189
2.919121 -122.4292 40.54099
0.01202479 -110.3676 39.39658
-0.2489395 -109.2552 39.52515
-30.61925 -79.01796 40.95413
-26.32595 -83.22324 38.34109
-15.11517 -92.2234 41.896
-24.57407 -84.48802 39.63873
-26.15316 -82.87924 40.92503
-47.29188 -79.01095 35.47612
-49.11569 -78.97234 35.18853
-31.19401 -79.23198 38.64215
-33.11761 -79.55967 36.40854
-33.89883 -79.7439 35.23343
-10.82769 -96.77296 36.02967
-14.12779 -93.86457 37.15327
-14.73201 -93.4378 36.53431
-3.661222 -102.5863 37.50876
-15.53093 -92.75681 36.62614