# .PCD v0.7 - Point Cloud Data file format
VERSION 0.7
FIELDS x y z
SIZE 4 4 4
TYPE F F F
COUNT 1 1 1
WIDTH 10
HEIGHT 1
VIEWPOINT 0 0 0 1 0 0 0
POINTS 10
DATA ascii
-218.840424 417.197845 148.341522 
-203.369034 433.282379 214.738983 
-312.579712 400.178192 68.483246 
-231.464813 400.639557 90.074493 
-273.217285 390.512421 70.716248 
-219.538803 422.381134 152.070526 
-305.283539 478.817108 130.174652 
-353.443756 484.477081 289.708282 
-177.841904 473.551971 277.145905 
-335.990997 491.861786 63.149292 