# .PCD v0.7 - Point Cloud Data file format
VERSION 0.7
FIELDS x y z
SIZE 4 4 4
TYPE F F F
COUNT 1 1 1
WIDTH 2048
HEIGHT 1
VIEWPOINT 0 0 0 1 0 0 0
POINTS 2048
DATA ascii
-282.7376 400.2377 223.884
-301.5638 403.096 238.4156
-276.7716 400.6313 238.315
-287.6474 400.3594 218.5362
-290.3614 401.4392 230.4135
-282.5744 399.9935 220.5429
-297.2512 402.6126 237.5969
-279.8199 400.7502 235.6295
-289.8885 401.8672 237.3714
-286.2028 401.8145 241.9511
-284.4373 401.8649 245.255
-281.8227 400.1735 224.272
-297.942 402.848 240.0426
-304.0309 403.7926 245.0377
-320.1173 418.5308 279.9276
-326.4291 422.2151 278.1746
-312.4868 413.8541 280.7578
-330.966 425.3232 279.5772
-309.2441 409.0276 264.6739
-308.8548 409.5069 268.8729
-322.9131 420.7428 282.5094
-331.632 426.1295 281.8092
-317.093 415.5365 273.6523
-314.5936 411.51 259.4818
-300.9141 402.2961 225.3194
-300.045 402.6263 233.3193
-300.3002 400.6784 197.0704
-303.4269 401.4245 203.7064
-305.4028 403.5921 238.9626
-288.9 399.9489 209.3435
-303.4299 402.4562 222.5951
-302.1073 400.9915 198.7421
-298.5913 402.118 227.2789
-301.0035 401.5022 210.5766
-290.4029 400.5014 216.0818
-299.1719 400.5132 196.583
-297.3521 400.8939 207.6454
-271.1034 397.2038 178.9024
-270.0988 396.5811 159.4978
-264.5739 397.3397 161.5926
-250.2327 400.0253 185.6625
-248.9473 400.3621 190.3193
-271.8337 395.9828 149.4759
-259.5675 399.0259 189.4695
-257.9042 399.1671 187.8313
-266.3607 397.3976 168.8016
-250.9744 399.945 185.9419
-266.5124 397.0858 161.1778
-258.364 399.0987 187.5214
-237.693 407.575 229.134
-226.3459 416.9851 243.7094
-225.6476 417.3159 238.5499
-233.3426 411.0884 232.4213
-231.2842 412.8329 235.9787
-235.2441 409.6334 232.9506
-240.9417 404.6779 220.0135
-239.2291 406.9132 242.0895
-239.7963 405.1325 209.4058
-238.0624 407.5985 236.7041
-241.9111 404.3353 230.0181
-241.4065 403.7803 206.9246
-239.195 406.3559 227.8512
-244.4024 431.2171 301.3493
-252.1615 421.6699 295.3355
-242.2658 427.4816 297.2082
-209.4091 456.5909 201.5058
-210.3684 453.1757 205.6191
-214.0907 437.8764 237.1503
-217.4612 427.0757 242.4755
-210.8656 447.4781 237.6309
-213.0639 441.3488 234.1426
-209.8533 452.9651 218.9642
-210.2563 451.0623 224.2542
-208.5568 454.7757 234.749
-209.1262 455.3417 217.4604
-207.5597 459.0522 224.9471
-211.5726 448.7637 211.7287
-214.0123 439.2629 228.3886
-212.2235 445.6717 220.4138
-208.6258 455.9628 224.1444
-322.5588 445.7934 309.9214
-318.2072 443.0864 308.6227
-313.5723 445.9857 311.3582
-335.5412 447.9748 307.6697
-336.2979 445.4966 304.1335
-339.9096 441.9313 298.6426
-333.5594 430.7314 203.0248
-331.6389 425.1713 230.367
-339.2333 452.5966 192.235
-331.41 421.9402 200.5723
-331.486 422.6034 205.1907
-333.4266 432.2719 229.686
-331.4923 422.6431 205.379
-338.3217 449.7092 202.0188
-334.2838 434.2061 210.4379
-335.3334 438.0833 206.2838
-331.8486 424.5127 211.0888
-332.1161 426.4115 221.7513
-331.3748 422.8989 214.7199
-332.8488 427.967 204.0404
-333.5298 429.948 194.4694
-294.0757 396.231 125.9154
-304.6516 398.9081 140.0239
-279.5993 395.7485 139.7387
-297.7189 398.02 139.8017
-288.3603 395.1056 121.6376
-276.7556 394.5581 131.0448
-282.7221 394.554 123.2345
-294.2513 397.3963 137.8213
-285.1138 395.4861 129.8262
-278.3699 394.8176 131.645
-275.5204 394.4615 131.6468
-217.8183 415.3063 160.3763
-230.7382 405.9998 149.1777
-219.3219 414.0447 158.2534
-211.179 416.8295 151.1644
-233.6026 403.3617 144.0556
-216.83 417.8885 169.8212
-214.4091 414.8257 149.8474
-214.472 413.6869 144.7715
-229.5859 408.4964 157.8296
-224.3289 412.9135 165.2806
-227.3483 411.7167 167.1554
-216.4809 415.4688 157.8579
-222.0429 416.6766 176.9806
-207.2295 465.5013 241.1072
-204.9149 467.7034 249.7115
-206.6542 467.4619 244.4572
-210.0228 485.9945 250.5676
-203.8208 467.356 252.5887
-209.8967 465.5937 208.7638
-213.3302 481.2725 199.9293
-213.3517 483.1991 203.7771
-210.2576 469.1599 211.9314
-211.4173 466.5272 192.0187
-211.9692 472.6873 198.3704
-209.9322 467.931 213.3177
-208.5221 466.2797 227.1684
-207.1748 461.5035 233.5736
-210.3469 460.69 192.7463
-210.4147 473.4403 219.1343
-212.4718 478.2722 204.1015
-212.4224 480.0303 208.4636
-203.4133 455.5346 314.3774
-194.0576 452.4716 310.4182
-334.9182 435.6498 242.7467
-338.7689 450.0019 213.5536
-339.8694 454.575 200.1719
-341.1325 456.8325 216.7855
-335.5849 438.6676 231.9972
-333.9675 433.8132 231.7117
-340.5266 454.3324 223.961
-339.7971 451.6563 229.0353
-332.031 426.8718 243.4438
-334.9363 437.2069 226.6892
-339.1356 450.3583 221.5697
-341.4503 455.7749 238.3381
-339.0222 451.0674 210.3333
-341.3349 456.0302 231.8898
-337.7443 445.107 232.8226
-213.2364 429.6341 174.0162
-207.6519 424.1048 145.051
-209.4804 436.9661 165.1936
-214.746 427.3965 178.246
-214.1941 423.1764 171.8405
-209.0624 422.8339 149.7943
-202.6471 449.5557 148.4194
-210.7419 428.0733 161.9546
-209.0024 426.4056 152.985
-209.0119 437.8283 164.0423
-213.9912 419.4677 167.4049
-210.6068 427.0784 160.4233
-213.4818 421.2986 167.015
-205.8875 441.4658 154.3294
-215.0299 420.0521 172.3641
-187.3338 446.7064 295.2755
-182.9308 448.7015 297.0183
-194.3136 444.9838 295.8466
-177.4414 449.397 295.0427
-211.6584 489.5272 241.1044
-214.8367 491.811 204.6425
-210.7661 479.7777 229.6038
-211.0829 484.3193 236.2644
-212.0011 481.2141 216.7448
-208.0436 466.7065 234.3085
-208.4307 471.7401 241.217
-208.6145 470.4066 235.6111
-210.2896 484.7547 247.766
-211.3297 487.5143 240.6356
-213.5979 485.356 205.5732
-212.9529 491.981 229.8911
-214.5877 492.95 210.6454
-212.2252 482.6936 217.3213
-212.5418 490.3933 231.5228
-215.4157 491.6199 196.5516
-210.6353 478.7196 228.8021
-207.8076 467.881 240.2234
-203.1965 474.1362 257.4062
-205.9884 485.2747 257.8058
-206.6102 480.0794 255.3412
-212.3925 477.5361 183.6272
-210.6762 476.3062 172.636
-213.0206 475.4673 190.788
-209.8517 478.8616 163.436
-210.2418 468.2438 179.5117
-210.5022 471.2624 177.6513
-211.1434 484.4404 165.9101
-209.4062 476.3113 163.3629
-210.0244 482.5786 160.0647
-214.5632 486.2569 188.6006
-214.2227 484.0606 188.8525
-211.799 473.7578 184.0046
-209.9404 458.6944 189.2109
-210.5755 482.4001 164.3085
-218.215 477.782 318.6172
-206.9632 473.5265 319.2892
-195.243 470.2508 316.1973
-195.963 468.7958 316.0334
-233.2243 475.4716 322.1707
-227.7805 475.5774 321.3444
-221.0291 470.0284 319.5532
-350.3265 440.733 291.7523
-349.5469 439.874 290.754
-353.3341 443.1008 276.5029
-336.2715 465.9395 317.7636
-342.3456 466.1492 317.9029
-354.0919 453.1855 311.0814
-346.7595 466.2206 317.7406
-182.9104 444.2225 271.8758
-185.2034 444.7529 268.8785
-185.668 444.9446 267.2576
-188.4564 454.5434 307.5338
-170.0477 464.013 297.5704
-186.8749 454.0808 306.3118
-180.8953 459.4036 303.7199
-172.1669 467.2774 299.9664
-215.056 494.8508 212.7317
-221.7079 498.7165 224.0601
-216.6248 497.4829 231.1721
-230.4628 499.2001 196.7682
-225.1172 496.9495 195.51
-225.559 500.5018 226.4695
-216.0036 497.287 231.6278
-233.5128 500.1689 194.5959
-218.1834 497.6752 227.2878
-217.1716 498.8294 241.5335
-229.4865 498.3429 192.449
-238.187 502.101 195.3681
-233.7842 501.2396 203.4272
-210.3452 499.1442 269.9694
-211.4522 498.9307 265.4435
-211.0075 499.8142 280.0769
-221.4406 494.8249 176.3055
-211.671 491.8824 156.2442
-213.4331 492.5222 150.6294
-213.0794 492.4968 143.0408
-217.507 493.5898 172.4913
-222.3759 495.4678 147.6563
-216.1804 492.9654 188.7955
-217.7144 493.7418 165.3397
-221.3087 494.8333 171.9538
-223.6397 495.6277 168.9246
-215.539 492.9453 172.834
-218.5366 494.0794 159.4064
-185.3659 461.8817 307.6543
-179.5004 466.6113 304.9695
-187.9448 463.3091 309.9556
-186.1364 465.4333 309.3408
-191.3184 455.6889 309.9334
-196.8083 474.0565 316.0594
-203.4474 476.4282 317.6256
-335.7465 487.4077 181.7797
-337.7921 489.3179 163.8728
-339.4982 488.4946 152.3204
-339.9854 487.1277 150.6059
-336.5517 486.8481 176.567
-339.5728 486.6129 154.3998
-335.8431 483.1855 186.9721
-339.2111 464.0813 188.6395
-338.339 475.5698 179.0491
-338.1414 488.755 162.0596
-337.34 482.7413 176.4468
-340.0683 467.6893 177.2048
-336.9177 482.4343 180.0218
-337.0897 478.6807 183.9961
-339.1841 492.1786 254.9754
-343.0095 489.2067 258.5164
-339.3816 495.3652 256.2693
-362.4775 449.5041 301.5507
-356.2548 446.3114 298.224
-360.3409 448.4709 300.5544
-362.5144 447.4585 296.7908
-359.0479 444.3978 274.981
-361.4443 444.0536 276.7968
-316.8617 470.8964 321.4632
-318.3565 468.6878 320.9343
-312.2479 477.3743 323.0497
-343.2249 423.5236 135.5635
-343.172 423.37 135.6936
-341.8237 415.7912 134.7119
-340.9822 416.4632 140.4325
-344.7267 432.7821 137.6145
-345.4142 414.4426 112.084
-344.4293 426.2617 131.7131
-344.9188 434.579 138.5949
-347.4525 445.2525 136.2556
-345.2464 437.913 140.5832
-345.2217 436.6559 139.2539
-342.9301 481.8802 137.8334
-342.778 484.3758 135.0067
-342.9945 489.5005 125.2819
-343.1021 482.588 135.437
-343.3787 480.784 136.2448
-343.5812 486.1613 126.2237
-346.1982 471.4638 130.1125
-346.5277 467.836 133.4186
-344.9684 489.2705 111.0144
-341.8661 485.9933 139.2031
-334.9073 405.8824 97.85907
-327.3564 400.6812 88.18024
-321.5688 398.5936 95.98046
-327.2065 402.1406 100.5114
-317.4348 397.039 101.0443
-323.0976 397.7169 82.4748
-332.5852 404.7584 98.69322
-324.2464 400.8012 102.3242
-311.4882 392.8696 76.67017
-294.2903 391.7105 86.0174
-283.356 389.7802 79.64596
-300.9619 392.9159 90.18841
-306.6788 392.2241 75.96852
-306.6792 393.9502 93.77751
-290.3547 390.5178 78.58607
-310.1494 393.9744 89.72798
-270.046 387.9633 63.60012
-250.2605 390.8621 71.30797
-259.6311 389.1319 62.83535
-268.7751 387.4196 54.24397
-269.0569 387.1955 51.66692
-266.4166 387.7261 54.63558
-264.779 387.8448 53.63704
-271.3562 386.8148 50.17983
-250.3051 391.0172 73.47128
-249.9465 391.0712 73.63195
-205.2188 409.6925 94.59097
-216.1939 402.1838 82.98579
-215.9929 402.2216 82.74451
-203.9416 409.2131 89.78629
-200.1482 410.1863 86.41871
-207.5725 408.6144 94.52299
-208.2864 406.2915 85.42341
-200.2571 439.2767 115.86
-201.3216 440.5475 128.8555
-199.1168 447.5463 118.7487
-202.0579 428.7 115.6312
-200.665 449.2457 137.3893
-200.0224 451.6196 135.0274
-200.1695 444.1416 123.4643
-200.9793 433.7523 113.5288
-200.393 437.6417 114.3814
-203.75 413.6762 106.5397
-199.473 449.486 125.7404
-199.1704 457.4858 122.0219
-201.7935 475.3122 112.7785
-201.0181 471.5374 112.101
-201.2069 468.4211 121.4712
-199.7473 458.9012 125.7033
-201.5732 467.3354 128.3357
-199.9942 467.5544 108.9227
-198.6942 459.8405 110.9463
-201.1636 466.606 125.0928
-200.7477 468.9243 114.8232
-161.9892 450.4844 287.1419
-170.8925 446.1355 281.1549
-161.638 450.113 285.8905
-236.295 489.6656 321.5612
-243.1767 490.0818 322.8482
-176.5676 474.22 303.4799
-171.761 477.7504 298.6018
-176.0522 475.3129 302.6322
-176.4886 486.6743 297.7669
-178.4674 479.2967 302.4671
-179.5051 478.1258 303.7059
-313.1263 500.9933 191.7768
-327.4501 498.4222 220.1143
-333.8665 496.2466 223.4228
-311.4404 502.6053 200.4433
-314.5496 501.2176 198.9895
-332.4523 495.0967 207.7586
-334.2347 495.232 215.4574
-331.3162 496.262 214.323
-322.4786 498.914 206.6067
-313.6284 501.6703 199.8016
-332.2774 495.8304 213.8502
-310.7922 502.2947 195.2475
-321.3844 500.0692 213.2301
-321.7057 499.4958 209.1394
-333.4319 493.3379 151.9243
-324.7794 496.1712 150.3533
-334.8046 492.9303 148.3978
-331.0399 493.8972 171.6335
-331.4932 493.9655 152.2201
-333.257 493.0508 182.8721
-325.6374 495.9293 147.0024
-323.4766 496.4847 160.2957
-320.5792 497.5672 147.748
-323.7852 496.2915 168.6486
-332.776 493.2825 176.1099
-360.4106 497.3185 254.0692
-358.6688 497.8053 255.5381
-351.3431 488.9584 258.4489
-352.2072 494.7368 259.5254
-348.5434 489.9412 260.8699
-357.2981 486.3257 253.1369
-339.9234 499.4244 275.2306
-338.7168 498.6675 261.8771
-370.8069 448.9241 252.2334
-367.9424 449.299 254.2539
-360.9702 455.5875 254.9819
-364.5724 452.4102 254.5499
-359.0977 481.8397 250.4013
-359.8588 470.828 246.4826
-359.0272 473.1032 247.8081
-356.0053 480.5215 252.3674
-355.6255 469.9279 249.448
-371.3278 447.6542 290.8193
-368.793 444.0088 281.9615
-369.3694 446.3924 288.7438
-359.7219 451.8675 307.6785
-370.0147 454.6161 301.3775
-375.3051 454.333 297.6524
-377.7005 465.3974 299.1759
-380.8797 442.7873 268.0414
-372.0719 443.4399 273.2
-374.6514 443.5716 267.8033
-329.8472 471.6473 319.2894
-328.5457 477.3859 319.2611
-320.547 485.1338 321.0172
-339.982 489.7364 315.6359
-342.0671 481.4533 317.3703
-339.0712 486.002 316.8723
-360.6313 461.3197 309.9825
-363.122 467.5003 310.1763
-363.0071 464.4102 309.2707
-359.7896 454.6408 308.4499
-346.9717 472.622 122.9192
-349.9724 467.1648 111.5979
-351.0822 456.7929 120.0585
-347.8383 466.0208 127.2581
-348.4084 473.7697 111.8053
-348.9811 461.1308 127.2037
-347.5559 465.8138 129.4144
-351.015 459.325 116.6631
-351.5077 457.3396 116.4541
-350.1055 468.2072 109.1509
-347.9807 469.4178 121.1856
-339.9176 407.5985 92.98159
-326.9543 399.1682 80.10111
-339.0127 404.8995 79.94641
-343.2461 407.5422 83.518
-334.5484 403.8279 86.04276
-346.7874 410.6136 91.4553
-340.3159 406.0304 82.87051
-331.0547 400.4163 76.01859
-343.6133 407.0313 79.57169
-261.3214 387.6123 47.45673
-232.7892 391.8031 60.98143
-245.9005 389.6177 52.05812
-238.6869 392.2398 71.77797
-245.7797 390.4987 61.12078
-262.7036 387.4538 47.26573
-231.7447 391.2468 54.07322
-239.0527 391.7507 67.06255
-262.0557 388.0708 53.01629
-204.6687 405.1853 62.68704
-218.2938 399.9156 74.45091
-214.1149 401.4095 69.54561
-201.4431 407.2126 68.16591
-198.7146 408.4579 67.82323
-223.586 397.7537 77.79999
-198.6278 409.3745 77.10669
-223.3332 397.793 76.96176
-194.4867 435.6606 89.93018
-200.77 419.1969 99.63949
-193.1826 440.3866 89.20422
-198.8125 424.5002 96.78625
-195.5247 427.8135 86.48359
-198.4124 421.4233 92.10434
-193.3504 439.2785 88.80509
-197.0692 421.704 86.83836
-201.0329 428.7385 106.6264
-201.1187 427.6258 106.2838
-199.1733 438.6761 106.695
-199.4574 430.4344 103.195
-201.9674 422.1204 105.7489
-200.3293 426.7917 103.6906
-198.7172 443.432 107.9152
-202.1774 481.1312 106.1095
-202.2576 485.3687 101.5545
-199.5037 477.5764 93.69651
-200.0129 483.0215 90.37258
-199.7608 471.7012 102.3062
-202.1519 483.8983 102.6504
-202.4165 482.7401 105.6797
-227.7514 501.7368 99.02023
-217.6522 497.4378 98.31916
-229.777 502.9007 97.00417
-235.7449 504.6682 102.9431
-229.1597 502.1 100.8063
-208.5753 492.1282 108.0245
-219.8007 498.1046 100.2393
-170.026 460.0549 237.4442
-173.5714 458.657 241.3112
-170.9549 454.9304 241.8566
-169.1688 460.7325 236.2667
-161.6285 445.2359 247.7484
-164.334 443.3682 261.1238
-157.6084 443.3645 253.6206
-170.9536 499.4034 252.9848
-173.2978 499.1477 252.0418
-175.6412 498.3872 245.9861
-171.8672 498.9997 249.5386
-252.1993 504.9584 233.1988
-270.8646 505.1317 250.8774
-243.4865 503.8613 203.3814
-251.4278 504.2993 218.6323
-245.5458 504.9881 228.8375
-265.9572 504.9745 243.8595
-241.5307 504.86 223.1077
-274.016 505.1588 253.8147
-250.5416 504.1132 214.0192
-254.5747 504.5204 225.6849
-244.9962 504.7057 222.4328
-259.3924 505.3468 246.8358
-257.9838 504.8285 234.7812
-249.543 505.3283 239.0547
-253.957 505.5819 247.7482
-257.4026 504.3818 224.8662
-255.6283 505.7415 252.3889
-248.3146 502.4379 162.9578
-257.7815 503.3858 171.1179
-254.7309 503.6916 182.2713
-256.2643 503.1126 167.0752
-262.4719 503.9498 177.2889
-243.8248 502.6633 174.3078
-252.9876 503.2343 174.3926
-257.5103 503.6641 177.7716
-257.3897 503.4826 173.8473
-254.1868 503.0769 169.1711
-263.0167 504.3336 185.1826
-249.1113 502.8442 171.0081
-237.981 505.9554 260.17
-234.2901 505.0973 267.3535
-233.0606 504.5406 275.487
-227.7855 503.0196 292
-237.9502 504.6389 287.9904
-234.0378 504.8889 271.0184
-235.453 505.262 267.3305
-227.9366 503.6097 279.9385
-228.3299 502.9679 294.7185
-221.4909 502.6885 280.2415
-248.7067 502.0612 138.8535
-238.6193 503.7688 116.6733
-263.7213 503.9303 132.7912
-247.2474 504.3454 117.5972
-256.2329 502.6158 139.2017
-260.6808 503.9565 130.4337
-241.2708 502.8722 126.4702
-250.2625 503.9362 123.3304
-260.1728 503.7499 131.9088
-221.5782 498.7976 301.4789
-222.6975 496.7084 306.1593
-226.2275 499.4604 302.0991
-233.2824 502.0356 299.878
-234.0748 500.6402 303.023
-231.22 498.5276 306.0789
-200.0118 497.1627 298.2952
-193.7149 492.7464 309.1221
-311.4362 504.8964 236.2125
-319.667 503.5141 253.2681
-323.3138 501.1914 234.1049
-316.7742 501.8236 213.2702
-319.346 503.3324 248.922
-323.4109 500.9406 230.6412
-323.9688 502.0639 250.8132
-321.1771 502.2829 241.1235
-316.1949 502.7383 224.8423
-310.2862 506.2505 251.9696
-318.2723 501.7921 219.8131
-331.8223 499.4003 246.0771
-311.9042 505.4627 247.2585
-325.2806 501.2585 244.3882
-320.4133 498.3822 136.5741
-328.8552 495.1774 140.3523
-323.244 498.2507 130.2701
-320.7345 499.0193 130.6248
-310.6902 501.0327 140.5758
-328.9128 496.3124 131.0912
-323.05 498.6868 127.2737
-311.0955 502.2212 129.9816
-361.9474 499.2733 271.1234
-359.3007 498.5569 259.7835
-355.0148 498.6613 264.238
-354.0467 498.7118 265.7298
-347.9851 499.2493 277.0439
-349.2223 499.97 287.1901
-374.4098 445.2946 257.2835
-373.269 444.4166 263.2137
-361.4596 445.6503 263.9453
-373.3511 456.4616 244.7893
-365.4406 466.4311 243.0873
-372.3731 457.0511 245.0547
-369.4144 460.985 244.2664
-368.2214 492.9677 246.8105
-369.4223 482.9503 242.8633
-364.7772 496.2778 250.4342
-367.4341 486.3026 245.3915
-374.4497 487.0204 240.2697
-375.4579 491.6036 240.8901
-391.8079 450.3403 283.8881
-380.8395 447.1596 282.4764
-384.1276 450.5416 289.5526
-392.8234 451.6162 283.6072
-381.3285 452.8812 292.8646
-386.5034 455.0422 289.5233
-387.2683 445.2834 273.1077
-384.7118 447.188 279.9844
-387.0434 447.3352 278.8433
-353.7806 484.7148 312.4843
-353.8856 491.3001 310.4264
-350.9523 491.2534 311.5208
-373.099 490.3599 296.0343
-366.3538 483.3216 303.8268
-366.5806 478.557 305.8374
-363.6937 478.6082 307.7804
-374.6185 480.1388 299.6438
-348.7585 422.7701 101.3868
-353.5802 447.8176 102.6736
-349.2884 427.5092 104.3595
-351.7715 440.2511 104.7983
-356.2332 452.2496 90.05557
-350.6963 429.9752 97.82555
-351.5141 433.3799 96.84149
-351.218 433.7898 99.5395
-350.111 427.279 98.16051
-345.4815 489.3496 106.8132
-347.2777 490.5314 84.90513
-350.0621 474.9781 93.88232
-348.5011 479.6592 98.82318
-346.3736 485.1941 107.6447
-348.3664 483.3201 91.20569
-345.6815 489.1786 105.1214
-348.2328 482.7297 94.07671
-350.0206 472.5466 100.3261
-321.323 394.9501 69.29684
-322.1704 393.8533 56.39291
-335.0209 401.9035 72.48665
-332.7605 400.5149 69.8906
-322.5638 395.9238 72.53651
-330.8794 400.0401 73.5722
-327.4384 396.8994 60.8107
-344.9266 406.9197 74.68818
-315.4244 391.397 55.40464
-295.7332 388.7751 50.11658
-286.7323 387.6411 48.40118
-282.1556 387.2651 49.71785
-294.7143 389.0972 54.83447
-316.158 391.1053 51.35518
-282.5123 386.996 46.36099
-294.1467 389.3882 58.67949
-302.4917 390.0608 56.13888
-302.4117 390.1245 56.92836
-230.3123 393.6243 69.25555
-199.6804 406.7509 54.85134
-229.9751 393.1898 64.38501
-226.3783 395.0137 64.99339
-204.5504 404.549 56.20538
-206.5673 403.3271 54.24372
-219.0437 398.6341 65.42889
-229.1137 393.1448 60.60922
-196.7996 408.5099 56.33695
-195.8109 421.5858 70.64503
-191.7095 441.8318 60.87494
-196.4467 416.6537 68.51247
-195.7975 415.7601 58.63406
-195.5474 417.1846 58.42386
-191.1153 444.9807 59.89843
-198.018 412.4798 79.54088
-196.9695 413.942 69.49225
-197.7983 412.3242 76.49529
-192.0669 447.9281 84.55107
-193.1364 444.4488 81.36159
-192.4744 443.3125 86.55122
-195.1915 432.6488 80.23157
-237.5843 505.2291 103.2157
-238.0887 505.4104 102.0416
-262.6815 509.4102 86.2558
-254.5812 507.6422 95.31545
-250.7306 506.9747 98.13973
-243.4015 507.9077 84.63871
-245.4995 507.7062 87.94209
-245.527 506.9316 94.59899
-166.4769 500.3727 256.951
-160.9188 500.9326 253.885
-167.4877 500.1651 256.5425
-138.4852 468.8039 275.0274
-137.6001 468.7131 274.3159
-144.1337 453.2104 274.4509
-140.9253 463.4929 275.2293
-161.2623 478.5781 290.4376
-160.2021 484.7995 286.5905
-161.0475 477.8809 290.6184
-274.4746 505.2752 208.3598
-270.7213 505.0395 209.1591
-256.5281 504.1655 206.04
-270.6601 505.0269 212.2142
-263.3404 504.6223 194.4486
-261.3343 504.4876 197.9187
-253.9507 504.0035 206.6009
-249.564 503.7431 202.241
-259.5568 504.3929 192.3866
-254.2401 504.0027 213.1812
-267.802 504.8172 223.4025
-258.5101 504.2787 209.5775
-271.3847 505.1227 194.4654
-272.8855 505.1759 208.5101
-249.4631 503.7631 193.0518
-255.0678 504.0668 208.7678
-165.8115 496.3509 280.1322
-170.292 496.389 282.9342
-164.2857 496.3737 279.0533
-288.7995 503.8681 131.1587
-294.4561 503.5459 130.0589
-296.3225 503.1295 132.4433
-299.3682 503.1896 129.7814
-307.4339 504.4276 113.1746
-310.169 504.3655 111.8126
-300.9686 503.7954 123.295
-289.3883 503.1091 137.4714
-308.6139 502.9648 125.3089
-350.8576 499.7754 284.4152
-351.8656 499.6559 282.1915
-352.9347 499.3183 276.5725
-346.9571 496.2404 301.0676
-341.274 499.8606 294.3354
-378.0038 487.716 237.7608
-377.6723 474.842 234.0672
-380.4489 483.0865 234.4661
-378.3436 486.7429 237.2018
-366.8209 474.158 242.179
-396.0209 467.8729 286.1758
-394.0398 457.5039 284.4869
-393.508 470.7479 288.9763
-398.6081 448.3362 273.8882
-394.8752 449.0802 278.4059
-407.8804 449.3824 270.5668
-323.382 497.8968 305.2048
-320.8651 499.4659 303.1019
-327.1627 492.6747 314.1367
-334.5649 498.0944 300.1022
-320.1444 500.3968 301.5294
-330.5416 497.5781 302.835
-376.9734 487.4809 294.6617
-385.2398 482.9106 290.5759
-379.6768 481.8888 295.3171
-376.8013 486.9456 295.0532
-336.9333 400.6588 52.36272
-347.8517 408.3213 74.5961
-347.2662 408.0168 74.45468
-343.1502 403.5268 50.27176
-351.322 407.6809 51.31563
-350.8121 408.0036 56.99203
-343.3885 405.3027 66.62907
-341.7466 404.1715 63.4942
-192.8879 458.8744 82.99369
-191.7087 453.2663 81.87938
-191.9045 456.3808 85.39335
-199.1267 484.719 83.05605
-249.8416 506.5609 101.0194
-268.3627 507.9439 103.1104
-247.4914 505.8495 105.3516
-269.0475 507.5624 106.8995
-272.5989 509.9877 88.7693
-263.263 508.1102 97.84177
-272.9688 508.2016 104.3707
-272.5352 509.7553 90.71519
-276.3001 505.1559 222.409
-285.1504 504.6476 207.6388
-282.1906 504.8047 217.1097
-280.0677 505.0098 191.5252
-294.6763 504.0552 207.5825
-304.0858 503.5021 196.2865
-283.2265 504.7409 216.8643
-290.961 504.2907 206.0481
-280.959 504.8811 217.1665
-275.9128 505.1099 246.9735
-282.1294 504.7623 233.2661
-275.7319 505.1947 221.2167
-281.1908 504.8886 209.506
-302.4419 503.5971 198.8194
-279.1915 505.0587 193.4931
-295.4359 502.49 153.6373
-280.6477 503.354 144.0908
-279.367 504.4124 173.9449
-286.0055 502.9087 143.423
-282.1225 503.503 152.3802
-290.3067 503.2969 166.1519
-299.7227 502.1968 155.0753
-286.0675 503.7824 170.8329
-278.9467 504.6596 180.6213
-294.4505 502.8363 162.0096
-277.6175 504.675 177.8212
-295.7419 502.1718 144.469
-286.8414 503.6773 169.4648
-281.4674 504.0541 167.9534
-370.3484 500.0207 276.223
-367.732 497.9072 285.2978
-370.7577 499.6794 277.1324
-388.6706 474.2788 292.2233
-389.535 489.9122 283.9069
-394.0892 476.1619 287.2324
-387.5997 481.5509 289.4605
-364.6594 495.6464 295.3313
-354.2927 497.2971 296.7673
-365.5156 495.7415 294.5298
-311.9818 507.6772 80.27017
-289.5092 509.8515 70.84315
-311.888 507.6891 79.98955
-287.5841 509.9876 74.31935
-299.4487 508.8352 79.66956
-293.6958 509.3542 80.46749
-291.1595 509.5982 79.52555
-277.0621 510.8904 79.73846
-230.3492 504.3251 56.34468
-217.3685 499.5499 68.86649
-224.2674 502.3646 69.0643
-232.1778 505.7566 73.36629
-225.6039 503.1134 74.14152
-232.9532 506.2124 76.84065
-209.8903 496.0583 57.74873
-224.8686 502.1513 57.72922
-199.636 488.2953 78.3355
-199.6729 489.3532 68.02496
-195.2078 473.3166 64.37257
-198.7545 485.2776 75.95506
-197.6195 482.3563 62.1229
-198.7051 486.1761 63.89606
-200.1981 490.9227 71.99536
-193.6563 467.9055 61.29819
-253.7217 508.9185 61.63801
-244.1854 508.3047 74.72234
-238.5266 507.4515 73.91824
-262.7923 509.7456 53.45564
-261.119 509.5606 54.39747
-235.6528 506.3736 62.21009
-240.5742 507.2681 65.58353
-249.8393 508.6493 66.62668
-238.038 506.5616 59.5418
-408.608 479.576 274.6194
-400.847 478.8217 280.8244
-403.0612 476.7844 280.1691
-412.1241 477.5753 272.9678
-390.0992 498.5333 268.3804
-395.9084 496.8469 270.4499
-393.2131 496.2367 274.3181
-349.863 485.0439 74.25275
-353.1289 478.6002 59.70528
-358.7982 460.5388 52.91674
-350.1924 485.1909 70.64574
-351.201 485.1635 60.88327
-352.187 483.7404 55.08892
-350.6674 488.0197 58.41729
-352.1071 478.9866 68.63255
-351.9689 480.894 64.85905
-257.0477 403.3656 250.187
-259.6018 402.5932 247.3025
-274.1197 403.8866 262.8528
-266.56 405.4672 267.4259
-262.802 403.8032 255.9288
-265.6689 406.128 270.6316
-264.3007 403.5272 255.2321
-255.8866 403.0316 247.6473
-243.5911 412.1146 282.5839
-249.005 407.9968 267.8295
-256.1575 407.2365 269.2684
-245.9166 405.9741 256.6938
-242.8571 408.477 265.8181
-252.7857 409.3607 276.4875
-263.0964 406.5065 270.6977
-259.5978 408.9604 279.3061
-263.239 408.3554 279.0634
-261.0743 408.4955 278.2256
-281.6675 404.818 264.5037
-287.7643 404.1738 257.4052
-277.5657 405.3921 270.0704
-283.1883 403.4459 255.9236
-300.2215 404.398 251.5605
-292.7401 403.6382 251.5567
-293.9519 403.4859 250.0096
-299.8449 404.5198 252.4599
-278.0551 405.1126 268.2203
-268.1122 399.201 210.653
-273.2304 399.946 229.0014
-273.4112 399.0123 215.5848
-266.5936 399.4257 211.738
-269.0703 399.0425 209.7215
-266.9844 399.9919 220.6018
-273.3243 400.9166 243.3568
-259.5306 401.6578 234.1824
-262.1868 400.7454 224.6721
-261.8123 401.8835 240.8026
-267.0303 399.5912 214.7973
-255.932 402.5688 242.3011
-268.2353 401.0366 237.7235
-223.7278 421.8078 278.2093
-224.2761 421.4569 278.1832
-237.3441 409.5876 257.2575
-238.7732 409.8057 263.7466
-236.0058 410.9027 259.9774
-237.565 411.7689 270.6941
-240.792 407.4116 257.269
-223.8185 421.5838 277.2443
-224.4024 420.625 273.8289
-232.2616 416.7608 280.1991
-264.7925 409.4972 282.3403
-252.8297 413.8622 285.2126
-250.951 413.199 284.3875
-257.899 412.3934 284.3559
-263.8781 414.6793 287.1473
-300.6013 408.2611 268.9415
-287.3804 408.4394 278.6837
-293.2037 405.8491 263.1587
-282.811 407.9634 279.6463
-289.1709 408.9697 279.8441
-288.6637 407.392 273.131
-308.2218 410.9688 275.896
-292.3397 406.0852 264.7995
-304.1154 410.2379 275.4053
-295.6873 406.8409 265.9143
-259.2957 400.4438 215.4683
-264.6057 399.0109 201.1641
-245.6003 402.6624 225.3075
-262.811 399.1628 199.9098
-252.1783 400.9467 208.6763
-245.5754 402.0777 214.543
-246.9407 401.3957 205.1232
-245.2379 401.7791 208.3165
-253.1028 399.9832 193.1079
-255.8917 401.0517 218.9474
-265.9773 398.7906 200.2117
-249.5074 401.438 211.6679
-255.1648 401.3748 223.2316
-213.3955 428.5171 276.6154
-230.5738 414.2192 255.4141
-217.9927 423.9009 253.3758
-216.2563 426.1193 272.7113
-215.4365 426.7061 271.6003
-236.4258 409.2605 246.2352
-214.1835 427.719 272.4799
-213.0672 428.7551 276.2353
-234.2112 411.2186 251.5222
-211.5215 429.9461 276.0177
-215.0557 429.8389 286.4729
-218.6922 431.4534 289.6725
-219.1288 431.6375 290.0479
-223.2858 428.3362 289.0809
-214.8363 430.1883 286.6813
-222.0384 430.4792 290.4065
-221.9769 433.8609 293.4153
-232.5685 419.6513 285.7422
-236.4468 422.5175 290.1826
-261.1567 417.7313 290.3218
-268.1353 418.8602 292.0967
-257.159 418.4198 291.2173
-286.7625 410.6757 283.2396
-281.4889 411.4835 284.5584
-283.6572 415.6498 288.2725
-278.5792 412.6822 285.9985
-212.5931 431.0132 255.199
-205.1698 441.1577 264.7083
-208.8878 436.799 255.3468
-209.8115 433.5807 266.6172
-215.264 426.803 255.3441
-211.0948 431.3165 268.2232
-205.1001 440.8099 267.6187
-221.9962 444.0245 305.8365
-228.3991 441.9791 306.0037
-221.2475 444.5583 306.1877
-224.5085 440.0273 301.8836
-220.1541 443.9281 304.927
-222.1783 438.845 299.3992
-238.9373 438.595 306.2565
-283.4336 418.6263 291.7149
-300.8492 418.6581 291.3657
-278.648 418.7678 292.0261
-293 416.4772 288.4201
-313.7083 410.0455 252.7832
-329.3267 422.212 253.5349
-330.2173 422.5507 245.6815
-329.7705 423.3238 270.5897
-318.5754 413.7005 249.9833
-325.9391 419.719 256.6135
-327.6219 421.2833 262.3311
-333.9529 426.3919 266.568
-325.0885 419.1822 259.3722
-317.4915 418.9011 284.8
-323.3367 423.0326 285.701
-322.6133 429.3819 291.7536
-308.9455 431.1617 299.9261
-318.3514 435.0806 298.9235
-322.8882 431.7584 293.7566
-312.3625 429.9707 297.2126
-319.5303 435.1148 298.3872
-309.4708 429.0624 297.7873
-314.0482 409.6569 237.5096
-312.9367 407.776 212.6892
-307.9915 404.6593 230.3435
-310.6958 406.1459 215.38
-328.9964 421.5867 245.3253
-313.1492 407.8143 209.5984
-317.2249 412.1456 238.0356
-310.5245 406.8441 235.651
-311.204 406.6585 218.2539
-309.0789 404.4055 203.557
-323.4783 416.7737 232.462
-309.124 404.5196 205.4874
-308.0872 403.6177 203.1306
-276.1918 396.4944 167.3354
-277.726 397.6112 191.6481
-294.7457 399.2496 179.8497
-277.1252 397.3278 186.1588
-285.9353 398.0624 177.0797
-293.0975 399.0694 180.4295
-279.6692 397.356 178.7195
-283.9831 397.4749 167.9672
-289.2632 398.8583 187.2244
-285.3117 397.653 168.3628
-276.1101 397.0205 181.3729
-280.9237 397.1184 168.4655
-255.7804 398.3057 158.0923
-247.5135 400.3477 185.336
-265.5637 396.5969 144.9861
-255.9519 398.0877 152.7794
-252.3976 398.2159 144.2236
-265.1771 396.5515 142.4524
-254.0212 398.5927 159.9001
-254.913 398.0785 149.0145
-253.2654 398.2925 149.2294
-249.3394 399.0423 156.2195
-268.8959 396.2468 146.7919
-250.753 399.5129 173.7243
-252.5919 399.1537 170.234
-259.8189 397.9134 161.1455
-230.4286 412.3944 201.5098
-231.0984 412.0847 210.943
-220.7193 420.2191 199.5532
-236.6048 407.2526 196.1154
-237.2446 406.8344 200.1785
-229.619 413.2437 209.2985
-222.3878 419.7619 235.7419
-227.0804 414.918 193.779
-233.4812 409.9563 203.0142
-239.1105 405.2163 195.9381
-224.7296 417.4819 220.3501
-221.3292 419.5758 193.5423
-222.5884 419.0471 213.4335
-201.2039 440.6064 273.8806
-206.9342 455.6018 241.9843
-211.3285 435.4636 250.4803
-211.0085 438.5187 248.4151
-207.9871 444.5362 249.703
-205.8565 443.1716 255.7183
-210.5958 445.7284 242.7737
-207.9838 452.0376 242.879
-211.9585 441.1442 297.936
-208.5818 446.9299 305.3697
-234.529 445.6382 310.9079
-228.5271 449.3595 312.6905
-237.1001 441.0351 308.0011
-306.2224 428.4225 298.4159
-303.9154 426.4084 297.3788
-308.0547 427.3033 296.763
-297.8376 424.8385 298.05
-344.777 442.2083 262.4536
-342.5674 436.1235 279.1388
-340.6275 435.0672 266.5001
-336.412 429.1294 262.2262
-340.9767 436.0839 263.5128
-334.892 427.7836 255.6223
-341.0362 433.7476 278.9807
-319.2106 441.7705 306.5513
-320.3662 439.6963 303.4476
-332.8665 446.5454 306.7137
-334.8674 438.8284 296.1504
-332.915 436.8748 294.5285
-329.5312 442.3547 302.8697
-332.2919 436.7913 294.6901
-309.9065 404.739 195.9774
-324.9896 417.2465 215.2283
-327.7216 420.2253 236.2496
-330.2632 422.3341 239.5244
-329.2919 420.5606 214.489
-321.4409 414.3227 211.1645
-327.6566 419.3325 215.5457
-323.0469 414.7785 191.6835
-327.545 419.4815 221.3421
-328.2303 419.1515 200.1383
-325.6349 417.9993 221.405
-319.2751 412.3793 204.7756
-323.0795 415.6493 212.465
-324.8296 417.1182 215.1334
-300.7343 398.6294 142.7757
-289.5385 397.317 145.1806
-306.2491 399.9124 158.9256
-281.9831 396.4895 148.3899
-301.3919 398.7993 145.1624
-303.4221 399.1663 148.2376
-291.4242 397.5231 144.3706
-281.8296 396.3348 144.699
-297.7778 398.4431 147.7743
-295.7843 399.1959 175.0656
-286.7244 397.3123 154.6428
-290.4791 398.0428 161.7416
-302.2944 400.0193 175.3081
-299.4121 399.3051 165.6812
-261.4308 395.5598 126.88
-268.7827 393.1291 111.1391
-269.184 393.9203 119.9011
-258.5635 396.9485 137.6084
-258.4629 395.8536 126.0754
-258.8331 397.0698 139.2222
-273.7804 394.562 132.5677
-270.0681 393.782 119.6125
-270.3019 393.2334 114.2035
-274.4415 392.2806 109.6711
-262.3926 394.6581 118.7426
-237.1678 405.0551 175.4076
-234.0601 408.945 188.8745
-231.4178 410.4678 182.7119
-227.0774 414.4106 186.8141
-232.6405 409.2592 180.5899
-233.7807 409.0936 188.1004
-226.5907 415.1911 190.6144
-229.472 410.3744 166.1836
-238.735 402.0125 157.948
-223.5692 417.0339 184.5676
-228.4691 413.0392 184.441
-238.3781 405.5363 189.8651
-218.8082 422.6062 214.7062
-217.8587 426.1941 234.6649
-215.258 436.1097 196.7174
-218.4251 424.0684 207.6411
-212.2755 447.4348 201.3961
-211.6578 449.7876 194.9972
-216.4216 431.6607 226.9226
-215.511 435.1431 202.2843
-218.5426 423.5921 238.9151
-213.5596 442.5669 190.9106
-218.485 423.8483 199.706
-218.9483 422.0864 201.5857
-214.525 438.8936 197.2412
-212.1539 447.9039 194.1703
-216.4663 431.5 217.2949
-194.8363 445.2024 265.444
-201.5491 438.5826 285.1674
-205.6943 435.1312 285.387
-205.2542 455.2854 246.0728
-205.3763 459.4083 244.6672
-202.884 450.8978 258.8207
-203.0702 452.6906 257.5405
-208.209 462.437 316.5981
-202.2872 441.0192 296.4921
-203.8264 440.4853 295.9211
-196.2314 448.3541 305.9138
-197.8701 450.76 309.3837
-228.701 454.9853 315.6384
-224.4825 457.9674 315.9928
-233.5765 453.0228 315.7706
-341.2493 445.3121 248.4
-342.9262 456.6608 241.8215
-344.4692 452.6664 248.9154
-343.1952 445.9566 252.172
-343.674 451.9632 247.7745
-333.2227 426.8454 247.2372
-347.8888 442.3498 269.3073
-314.5542 405.7855 166.7454
-320.8621 411.7863 178.0512
-318.3394 410.9342 189.5737
-313.8965 405.1811 165.7867
-305.6046 401.023 189.5922
-314.0192 406.8784 182.3913
-309.2973 403.398 184.415
-310.738 400.7723 145.5714
-315.7101 406.3265 163.0254
-307.7323 402.8648 191.516
-306.8455 401.7064 186.6628
-308.6513 402.1375 176.5604
-308.1307 403.1136 190.8795
-237.809 397.0701 116.2957
-269.1004 392.3576 104.017
-237.8804 396.6067 112.2066
-247.2533 394.9027 105.9054
-255.6625 394.8386 113.3917
-261.9916 393.2231 104.9668
-244.3498 397.9374 130.3454
-244.6971 397.9691 130.9624
-249.665 395.9052 117.2104
-239.704 399.334 138.42
-241.4182 397.1524 120.4935
-250.3897 397.1423 129.003
-214.9355 434.7643 187.7554
-210.5898 437.4572 170.6433
-213.2175 441.9186 188.4801
-206.7763 447.8265 165.4731
-209.9788 446.6832 179.1186
-205.1876 449.3895 159.9288
-203.8573 452.7906 157.8596
-216.0447 430.596 187.8423
-211.3996 443.2324 181.5522
-207.61 444.1791 164.9058
-217.819 425.7158 190.179
-205.3186 450.741 162.2068
-207.9424 442.5126 164.4183
-213.5245 433.2909 179.312
-202.4068 458.5302 257.8252
-197.1981 446.8631 262.6183
-193.4108 444.631 273.0312
-198.9337 441.9243 274.0927
-195.2226 447.4009 302.9754
-197.6316 442.1159 292.8803
-216.3864 464.7541 317.2809
-217.1173 465.487 317.5532
-228.2257 467.3852 320.1787
-227.6188 465.5437 319.3692
-346.5682 446.286 259.454
-344.1917 462.5107 244.3985
-344.7774 455.4966 248.6889
-352.1409 441.9305 285.8892
-346.734 438.6972 277.5361
-354.9494 445.5368 264.7078
-327.073 453.5451 314.0207
-331.6549 451.5211 312.484
-325.794 460.2528 316.6925
-352.0354 448.4442 306.1667
-345.606 442.0901 298.1286
-343.8549 444.1975 301.2008
-346.774 441.0085 296.5236
-342.205 454.4712 314.4117
-339.5905 439.8141 170.9188
-341.0927 452.9354 180.9004
-345.8004 450.7021 151.0347
-340.6202 456.5756 188.7158
-345.415 451.1165 153.8064
-340.0643 455.1861 189.9108
-335.1876 429.9081 181.9328
-339.0903 450.6368 189.0218
-346.14 451.6293 150.4154
-336.3814 432.9987 179.5174
-340.4259 450.575 181.3549
-344.1168 448.0893 156.904
-337.7144 434.5365 174.1221
-336.5002 436.5227 183.8138
-320.7767 409.2015 159.7955
-318.2121 405.6568 149.138
-325.1691 412.3266 163.6609
-310.5227 400.307 142.9629
-328.8993 417.3818 178.6713
-330.7541 411.606 145.6485
-332.9391 413.3387 148.4413
-328.5472 410.7737 147.3102
-318.6843 405.1462 145.4188
-331.8454 415.6463 162.5499
-320.9181 407.1746 149.5292
-334.5735 416.0293 157.3411
-327.3165 414.8206 170.2695
-302.2805 395.7342 113.6586
-307.9326 397.3591 122.7632
-309.1295 395.3299 103.8596
-307.5144 397.0354 120.3037
-309.8832 397.1707 119.3295
-287.1395 392.8342 102.0221
-304.3826 394.72 102.8385
-301.6419 396.914 124.5972
-276.1499 391.5388 100.6821
-289.1788 394.0002 110.3961
-295.7969 395.0993 114.003
-295.7908 394.2539 106.5884
-260.7251 391.98 93.16172
-271.3947 391.2037 96.18497
-267.0199 390.5667 86.9511
-272.0336 391.4001 98.39822
-263.4178 390.7822 85.53996
-273.9112 390.2984 90.85397
-267.7187 391.7233 97.25285
-255.2169 392.5346 92.88773
-228.423 402.2039 120.7738
-215.8545 407.8934 114.8115
-237.7007 399.1981 132.5571
-207.5821 411.4386 109.6529
-230.4744 402.484 129.2194
-232.1602 400.6515 123.4087
-226.4206 400.4573 103.4228
-226.8282 402.1093 114.9697
-217.9023 405.1067 104.2857
-218.6134 407.3736 120.6276
-218.2246 406.2729 112.5502
-225.7549 403.2953 118.7887
-230.8894 403.9427 139.4548
-223.6826 406.8143 133.5894
-214.6122 411.7301 134.0758
-212.1907 412.5796 131.4076
-219.424 407.8618 126.1975
-217.7863 411.1527 140.8153
-209.5294 414.3568 133.5753
-221.1512 408.5281 135.7924
-211.4672 413.7897 136.3923
-201.714 456.8708 147.4461
-205.1079 473.0388 144.6888
-208.9675 470.947 167.9347
-202.0063 455.4514 150.8311
-208.393 483.8989 148.1896
-209.2705 456.8304 187.7345
-205.7666 474.521 146.2867
-209.3765 471.4848 169.42
-203.8563 455.4666 160.6626
-206.8326 474.0718 152.5414
-206.5374 473.8124 151.3034
-209.478 461.8346 182.3925
-208.2295 463.9479 173.0222
-206.88 463.681 166.1803
-189.3706 465.851 247.4763
-195.0333 463.2248 253.6337
-189.6526 455.7178 255.7816
-193.1103 458.9849 255.6465
-183.0564 443.6131 278.6827
-190.5268 444.8395 271.9716
-187.2002 443.125 282.9641
-339.6692 464.5798 203.1459
-336.328 480.9419 199.8814
-339.3337 464.6281 198.4427
-340.3916 465.0062 214.7297
-341.0413 466.0262 226.8923
-337.268 473.0795 191.8577
-337.6331 475.0181 202.4389
-339.0567 469.42 207.5994
-340.0995 458.9391 193.8716
-340.4484 465.6094 217.2026
-340.4037 463.7451 211.4429
-333.9439 491.0496 193.251
-333.9972 490.1768 191.6247
-340.4378 458.407 197.2882
-343.2843 462.07 241.1003
-344.243 467.6276 248.6462
-343.9543 465.2623 245.7808
-344.4148 463.4881 245.5964
-349.9894 459.4863 258.8979
-353.0933 446.3233 263.0818
-317.3057 457.5679 317.2018
-319.7459 461.8162 318.3559
-338.9547 418.0964 152.1064
-338.9257 435.2603 168.7231
-341.2435 421.4425 144.3923
-337.01 419.1929 162.4431
-345.2627 442.6771 145.5908
-341.2367 429.0335 151.7123
-337.0143 431.2245 173.9736
-337.8874 419.3005 158.3579
-343.3491 441.2368 153.3436
-341.5764 434.9189 155.7409
-340.7912 424.2079 149.2063
-344.469 439.7897 146.6078
-336.2649 419.2784 166.0824
-336.394 427.9479 173.7894
-336.5866 419.5921 164.8477
-342.0859 469.6169 161.1121
-341.0122 459.8832 181.7554
-341.8498 471.2629 160.3489
-342.3672 461.5798 170.5298
-341.7401 461.2155 175.1355
-342.4985 471.1865 156.2191
-341.5135 470.4985 163.6154
-343.3497 471.3484 150.4333
-342.6133 467.368 160.817
-340.9705 461.041 180.4066
-345.0724 465.3549 147.5751
-340.5628 464.9926 177.5352
-343.9622 468.9462 149.7964
-344.3804 468.7732 147.3079
-334.4097 410.995 131.4543
-342.2901 414.3361 126.5242
-324.8375 406.8232 136.7863
-318.5928 404.053 139.9837
-341.0372 413.9928 128.3947
-335.2246 411.6361 132.6535
-314.9865 402.3819 141.4184
-334.8687 412.1216 136.5556
-322.6725 405.3219 134.7675
-345.1494 412.7062 108.3028
-323.1288 404.4507 128.3047
-325.7247 402.6645 109.2538
-319.1527 402.3604 128.2765
-327.1187 402.7027 105.0597
-332.1726 405.8277 107.9282
-314.3978 396.0584 105.2312
-318.3868 402.6736 132.6033
-316.8365 401.2505 128.9122
-322.8264 402.943 120.1396
-325.0583 404.6884 123.6177
-343.4295 411.7146 107.8204
-280.3895 391.2058 94.21313
-305.5581 394.565 100.489
-303.5798 394.4074 100.8868
-283.4252 391.4851 93.91714
-275.1448 389.98 88.50568
-284.5994 391.8586 96.02386
-296.1454 392.9444 95.09376
-294.1454 393.3451 100.1814
-242.7408 392.5256 80.0715
-261.1534 390.6042 81.89964
-239.5611 393.0409 81.46233
-238.7901 393.8618 88.27258
-247.4424 392.6939 86.66772
-261.2502 390.3595 79.72738
-242.5051 394.2902 96.23273
-250.0592 391.5286 78.62811
-224.3466 400.6477 96.93963
-219.8672 402.403 92.40989
-221.2044 402.4973 98.20481
-213.7336 406.4091 97.72118
-223.6621 400.6265 94.16767
-221.7631 402.0892 97.40987
-232.8009 396.1514 96.98647
-207.461 420.0886 139.1603
-201.7817 447.5538 142.5608
-202.9041 429.4583 123.8278
-205.689 425.0259 135.0426
-203.4019 430.6295 128.6316
-204.0993 422.7959 121.8541
-206.0658 426.6068 139.6691
-207.5193 417.0047 135.1308
-205.0678 421.5033 126.1093
-204.5668 414.0324 112.3024
-204.3995 434.393 140.2792
-203.0693 468.4599 138.3835
-202.0781 464.0256 138.942
-206.0136 482.7782 134.6687
-201.5837 463.5398 136.1272
-205.7782 488.2631 123.0836
-203.0556 466.9995 140.8991
-201.6208 461.4318 140.1824
-205.4224 489.7931 117.6886
-202.7564 475.494 123.4432
-203.0674 470.6407 134.4609
-188.8705 450.956 258.8646
-181.6154 446.455 256.5151
-181.417 450.3888 253.2888
-181.8581 449.1069 254.6441
-195.9863 468.054 250.4936
-185.9877 490.7604 249.7254
-190.7883 477.7365 249.4512
-190.3709 481.6978 250.3323
-191.7003 482.4411 251.5744
-176.9571 447.488 289.1941
-175.7048 448.3485 290.686
-201.9551 497.2041 263.804
-201.6353 470.0457 255.4176
-190.0242 490.9445 252.866
-196.3396 490.2348 257.4494
-196.7348 491.8034 258.2199
-191.3344 488.8973 253.2471
-214.8981 490.257 316.8153
-209.6249 489.2755 315.7865
-234.9219 482.6133 322.9093
-229.2881 486.097 321.0453
-221.7323 476.1228 319.5726
-336.8283 494.6509 239.9365
-336.3227 483.9445 207.7171
-341.6362 467.1688 237.7481
-339.866 476.6034 236.9217
-341.4195 468.8408 238.8816
-337.1891 494.8283 245.1176
-336.8175 482.1881 210.0493
-339.0553 485.0547 246.401
-337.9744 482.374 225.7491
-338.6275 483.0971 236.0879
-339.2548 480.3176 237.7262
-335.1924 489.6639 206.462
-334.2538 490.9466 197.1449
-338.9539 474.4976 219.8686
-341.3754 466.684 233.1528
-337.0479 487.4134 225.5594
-335.5458 486.2497 202.9736
-336.3246 485.675 211.8718
-338.753 483.2856 238.1929
-354.8992 466.9227 250.3686
-359.3075 456.8716 255.2476
-356.6398 451.8447 261.1789
-352.752 467.9248 251.1058
-335.1487 473.1504 318.9765
-336.4505 481.6184 318.6906
-353.3159 459.3323 313.2944
-357.339 466.8281 314.0208
-218.9765 496.3923 114.9311
-205.1547 490.4763 112.523
-210.1953 492.482 118.052
-209.1984 491.3612 139.144
-227.329 499.9295 117.5427
-209.5733 492.4077 112.0631
-221.6817 497.3238 122.3361
-228.9143 500.5979 118.1316
-213.2473 493.7399 120.0661
-178.0321 464.185 240.4229
-175.1167 468.9512 234.8038
-184.4617 463.5726 245.4895
-175.455 463.6583 238.9636
-182.9847 445.3809 262.1098
-184.5328 445.0356 265.185
-174.6089 444.8427 259.612
-173.4926 445.734 253.6198
-163.1732 445.8972 245.6873
-164.7189 444.7567 253.4336
-182.2955 478.2356 243.1216
-179.0316 492.5057 244.9586
-180.8162 491.5709 246.0338
-185.2535 484.6247 247.3074
-179.6117 490.832 244.8933
-162.3928 445.8234 274.6829
-165.8914 442.8491 268.8976
-163.6563 447.4283 279.8885
-162.0233 458.5746 289.8388
-163.2088 457.735 290.5
-168.9428 456.9776 294.6977
-168.5948 464.087 296.5805
-240.7255 504.8365 222.7892
-228.7251 502.3748 240.6832
-216.7936 499.4921 251.6763
-220.3313 500.2873 247.4868
-234.8004 503.5699 230.8244
-231.3348 502.346 227.9774
-228.8788 501.7895 230.8168
-241.3937 504.0318 207.0788
-235.5177 502.3991 209.1635
-215.6983 498.9809 248.8326
-239.2868 503.4683 208.1686
-227.992 501.0255 223.0443
-234.5163 503.0524 224.0735
-238.4398 500.8581 148.3967
-236.0842 500.6776 184.3125
-233.3669 499.0197 156.4641
-230.4784 498.5128 186.8627
-225.9338 496.6228 182.4789
-225.5102 496.5134 185.2594
-223.9146 495.9004 186.137
-236.5831 500.8136 181.3819
-224.024 496.0444 190.9515
-226.4087 496.5929 172.0676
-236.124 500.2207 161.7258
-204.1693 499.6177 281.211
-202.6161 498.898 271.9455
-199.5331 499.9278 286.8506
-229.543 504.0702 263.2645
-214.8221 500.8883 282.537
-216.0391 500.9441 277.7295
-214.2949 499.7554 267.4268
-218.7303 500.524 258.6731
-214.3409 500.049 271.7661
-218.8194 502.1217 283.0314
-216.3037 500.4149 268.292
-187.6212 498.8251 263.0763
-196.9969 498.6998 266.4374
-188.461 498.5974 259.4694
-186.941 498.9632 265.1586
-237.6607 502.1217 129.1131
-225.0296 497.5278 133.1511
-232.3568 502.1069 115.4428
-237.79 500.5612 141.9759
-225.4574 496.5462 142.1429
-233.1868 500.7038 128.8638
-227.5317 497.7508 137.8661
-232.4501 500.5598 128.1043
-213.6006 497.3893 301.2113
-216.2683 493.3235 310.6655
-211.3408 494.0159 308.623
-193.6775 483.792 312.0144
-196.0837 484.1272 312.7977
-344.4141 479.0466 317.4376
-344.6149 477.0237 317.9425
-344.4516 482.5677 316.4282
-349.7176 436.2367 112.4569
-348.695 449.5784 134.0608
-346.8859 426.5954 117.7072
-347.0981 433.8484 124.964
-351.9297 452.9574 119.1201
-351.0117 445.2106 115.4089
-348.7693 439.6386 121.9826
-351.0871 452.8914 123.9665
-351.9286 442.5418 106.9254
-348.2338 449.946 137.1863
-350.8881 448.5297 120.0192
-326.9864 497.7748 118.2125
-343.7982 490.6403 113.4058
-340.624 491.883 117.5088
-324.6105 499.0332 111.2253
-315.5283 502.9648 111.4512
-319.3015 501.2579 113.612
-334.2496 494.4745 122.8127
-332.2902 495.6519 112.7776
-321.2883 500.2961 116.6773
-323.3617 499.5585 111.7262
-282.9801 388.3071 62.11813
-304.5047 391.5348 70.56996
-286.4938 389.0911 66.96772
-282.45 387.6929 54.69427
-276.4124 387.9922 68.58211
-294.141 389.492 59.9048
-291.3995 390.0119 71.39272
-278.9772 388.6112 72.75219
-306.2739 391.6145 68.75922
-180.4037 476.1611 241.0463
-178.4844 472.2887 238.387
-177.5999 480.1104 240.1072
-178.2578 470.5212 237.6712
-147.8847 447.3219 269.1148
-145.6483 449.4372 273.3987
-152.5843 447.8742 273.753
-161.2993 467.7982 292.1066
-156.3858 469.3509 288.8434
-155.6929 465.4531 287.1136
-159.077 460.2972 288.1009
-205.4232 495.1805 304.5768
-210.0264 499.0161 296.9637
-200.957 498.7711 269.7493
-192.4714 499.5319 278.3474
-195.3364 499.6551 281.3198
-184.1609 499.3846 268.3623
-175.53 500.3817 268.7249
-180.8276 500.0393 273.0629
-173.9315 500.5521 268.5513
-240.3279 500.228 306.5679
-237.7982 495.8539 314.3652
-223.1462 492.3488 315.1365
-234.9292 496.989 310.8122
-239.8907 503.4209 299.8852
-190.7079 473.4516 313.5575
-190.1102 481.4479 310.3028
-189.399 475.0274 311.9152
-190.629 481.8714 310.593
-169.4378 485.7929 293.1234
-161.2201 491.0436 284.3012
-166.6513 481.2317 293.2144
-161.9213 493.9482 283.4245
-309.9996 501.3388 152.8191
-324.7971 496.2281 187.0121
-312.1813 500.451 151.6924
-323.6774 496.4709 177.8139
-321.8105 497.4857 190.4991
-314.1093 500.4897 188.51
-309.7159 501.6677 162.7713
-311.5329 500.9602 163.2962
-314.8567 499.5781 160.2208
-318.9059 498.3936 179.407
-319.1852 498.3986 184.716
-326.9077 501.6943 258.8069
-329.0031 501.2128 261.1071
-327.0381 502.8784 277.7763
-331.4926 500.0907 255.3107
-319.348 504.1591 261.7917
-325.7014 502.5322 266.1779
-323.4329 503.5609 271.5553
-326.1616 502.7284 271.3644
-381.6725 443.7057 261.7115
-379.9569 446.3048 247.5984
-380.6866 444.4716 257.8775
-317.7791 489.4745 320.6818
-308.7312 485.7471 323.6011
-339.1249 491.1884 314.9252
-337.0186 491.4887 314.4497
-335.4712 494.5156 307.753
-319.2444 501.8046 105.8499
-325.008 499.6578 103.1011
-328.7272 499.0258 95.60384
-321.5487 503.1766 87.80631
-328.0508 498.0671 105.1235
-324.6506 499.1791 107.9193
-323.2421 500.6015 101.7705
-317.4011 504.0199 95.11482
-350.5504 417.2532 81.53214
-350.3663 419.3613 85.6446
-352.0502 431.6385 90.62576
-349.7289 423.5927 95.74201
-353.0497 429.2787 80.56258
-349.4126 421.5134 95.11222
-350.4693 426.5046 94.57633
-355.1404 442.5278 84.0555
-350.4382 423.3119 90.48112
-350.5094 419.8617 85.33523
-199.6022 482.7218 88.79182
-193.9011 464.5774 89.42093
-193.8646 455.2664 97.5855
-195.8262 453.0986 104.8338
-193.9184 464.9206 89.16335
-199.8138 483.4294 88.73807
-205.3742 492.4793 91.14272
-201.4524 490.7751 89.8843
-227.4566 503.1096 88.0403
-218.8932 498.3715 95.3076
-227.3217 503.2191 86.34102
-212.2415 495.8331 89.7053
-203.5768 491.5428 92.09724
-145.0687 446.3199 264.5349
-144.8918 446.1559 263.9738
-140.1017 449.0819 268.7365
-146.0411 469.6791 281.0615
-146.9894 464.7353 280.2592
-147.3567 462.9671 279.9937
-252.5978 505.1148 272.9337
-252.6776 505.7572 258.4167
-244.3968 505.3552 273.9989
-241.9509 504.5293 294.5121
-256.414 505.3587 264.4336
-242.1653 504.5276 294.3806
-252.751 505.8966 255.2224
-262.6991 505.1157 264.9404
-245.2391 504.6457 289.2976
-267.55 505.1836 259.5829
-250.5743 505.2886 270.62
-240.2885 505.3684 276.944
-273.187 504.798 178.3743
-261.4218 503.6394 171.2357
-269.7894 504.2092 168.3422
-268.1645 504.1396 170.1909
-261.2624 502.9943 151.3997
-264.2685 503.2353 151.4995
-253.3538 502.0914 142.7079
-272.07 503.7323 147.7259
-266.975 503.9503 167.2033
-239.7801 501.0078 142.4086
-270.0879 504.6305 180.8109
-252.3824 502.4628 156.7655
-260.4194 502.7194 144.8701
-252.029 502.3538 154.2241
-188.1292 497.8059 290.7081
-181.4163 496.1448 291.474
-176.6011 497.1997 284.2922
-171.2897 500.594 268.9761
-180.1421 498.5732 281.9005
-267.1162 505.3535 123.5899
-260.552 504.8563 122.9426
-267.5206 505.5419 122.3463
-265.2545 504.5296 128.9624
-271.4936 504.9373 130.1059
-272.2015 504.0771 137.6102
-263.6052 506.1669 114.4622
-273.1534 507.1969 112.9068
-246.4013 504.572 115.1398
-259.0292 498.3328 314.1663
-249.6046 496.9243 316.045
-252.7007 495.2667 320.1931
-242.1955 503.3794 300.525
-256.9152 495.0849 321.1772
-247.9039 496.6051 316.5301
-191.4506 496.8224 295.8809
-189.5368 494.345 302.0255
-190.3274 494.057 303.3562
-288.9977 504.6423 232.7216
-293.2048 505.6497 250.9433
-298.06 505.3639 241.2355
-300.4372 504.1482 213.6543
-292.8062 504.4815 226.4517
-301.7404 505.0966 232.8038
-295.5854 504.8488 232.1609
-300.5976 504.6158 223.4578
-281.2717 504.8366 242.6402
-286.1725 505.4706 252.4183
-307.3057 505.642 240.2023
-303.7141 505.4398 238.6051
-303.4759 504.4717 218.241
-288.4948 505.635 254.1644
-299.1394 503.8011 207.2619
-299.2388 505.5739 244.8087
-299.1313 504.5229 222.5847
-298.2688 504.8088 229.3005
-295.9152 503.5118 179.8475
-282.3745 504.8501 191.0902
-301.9935 503.4749 187.4769
-298.4247 502.6329 163.5805
-302.2892 501.97 154.0554
-306.5786 502.9277 181.5571
-283.2779 504.4279 182.8564
-308.7198 501.5001 152.4409
-292.6798 503.1888 168.0834
-304.7407 502.6259 172.2124
-279.9487 504.9639 190.2734
-278.4184 504.9189 187.1323
-363.3131 499.8646 280.3608
-367.8795 500.0427 274.6426
-370.4263 500.1625 271.7994
-316.4257 504.1488 283.8426
-312.0298 505.3001 272.5478
-318.6442 504.3722 272.4895
-312.0629 504.2024 295.722
-319.7044 504.1127 274.8281
-325.7574 502.6148 288.5294
-317.8751 504.6816 268.2239
-325.9663 502.9474 280.8546
-315.5307 503.6679 296.7086
-326.3441 502.215 295.2555
-388.9026 444.697 249.584
-387.8896 442.936 260.4747
-390.5574 444.2353 250.291
-374.1638 450.9944 248.2151
-378.7558 449.3853 245.6496
-377.2944 460.629 238.7996
-382.5709 447.1555 244.156
-380.3392 499.6875 254.605
-376.667 499.5156 255.4436
-375.2664 499.5773 257.0519
-379.717 500.1885 260.1168
-322.6626 491.4502 318.5662
-314.8732 500.5135 303.515
-313.9526 496.4162 312.2463
-303.3465 494.8706 319.9907
-311.8558 497.6613 310.624
-345.7025 493.1386 309.1812
-346.2595 494.3761 305.8987
-348.6152 495.8306 301.8582
-362.1958 488.2955 305.5901
-369.3647 490.796 298.7051
-365.3522 483.9799 304.4231
-361.8515 479.456 308.9221
-352.6398 465.9614 91.92419
-352.5737 467.9454 88.67768
-352.7605 471.7387 80.3047
-354.9979 460.5599 85.69156
-351.8598 466.8263 95.70593
-353.6609 457.0699 101.4566
-353.3011 464.4789 90.11569
-354.3014 455.664 99.65002
-326.2141 501.0252 86.6025
-331.5678 497.8215 94.71645
-344.3267 491.2361 99.94744
-327.7393 500.557 82.94174
-343.9813 492.5746 84.21725
-341.3949 492.7558 98.65908
-334.9565 496.231 93.97525
-327.0715 500.993 81.44221
-335.4288 495.8158 96.47214
-304.5494 507.2139 90.9865
-298.3396 508.8861 81.02644
-304.7501 506.5977 96.41316
-305.8459 505.9548 101.3284
-275.7849 510.9146 81.57632
-308.6325 507.3173 86.61391
-312.427 506.8456 87.70567
-297.0682 507.4249 95.36211
-359.4058 451.4332 62.2754
-358.0137 452.6492 77.82415
-355.0555 430.5846 65.03135
-356.9995 445.1217 73.50703
-353.6213 428.2809 74.43715
-356.1142 441.3221 74.89246
-354.4977 428.7938 67.02538
-354.0988 429.0031 71.22195
-355.8586 439.8983 74.68417
-357.5604 445.9431 69.6814
-196.5101 420.7828 76.92702
-192.3616 442.4518 67.94767
-190.7419 449.9264 63.39655
-191.0907 450.2475 66.42352
-191.501 447.1468 66.29637
-190.696 452.0186 65.26118
-209.8044 495.6249 77.37532
-221.41 500.8098 82.84259
-200.5119 491.7352 67.61993
-212.1724 496.6682 78.79167
-202.5042 491.9318 82.79994
-201.3063 492.5593 58.35924
-211.4857 496.3084 79.5541
-226.1528 503.0903 81.7591
-263.6559 510.16 74.51667
-265.777 510.3538 74.50837
-239.1928 507.8508 80.88876
-260.2251 509.909 69.19044
-260.9381 509.8703 78.05563
-256.0281 509.4219 78.04359
-257.7195 509.6124 74.97269
-268.938 510.6365 75.02287
-244.9284 508.4281 76.33328
-160.3447 501.2743 259.3958
-158.2185 501.4413 257.4117
-158.1601 500.1404 261.9348
-150.0422 473.4834 284.5089
-139.6202 472.8215 277.0054
-146.6591 475.1 281.1665
-142.0549 476.6226 276.9532
-147.7801 485.0294 277.1009
-152.5114 479.1087 283.6013
-150.6092 493.5445 275.0473
-154.1047 491.2587 278.8207
-270.5561 505.1145 275.2674
-269.6751 505.0651 263.6427
-273.4516 505.2197 290.4044
-265.9273 504.9998 272.6642
-272.4001 505.1567 274.8975
-273.498 505.1608 266.2173
-260.4705 504.9027 284.9434
-257.6467 504.8314 282.8185
-268.81 505.0717 274.4647
-268.3151 505.082 283.3058
-248.5365 504.6456 293.7874
-279.5341 505.8343 121.6419
-281.2153 504.5224 131.1142
-288.3815 505.6629 116.7116
-302.7689 504.9183 112.485
-275.1953 507.0798 114.6096
-288.0754 506.3611 111.2495
-278.9509 506.2933 118.3244
-289.9185 505.7939 114.5473
-279.6644 505.1837 126.8425
-281.7593 505.5 122.7712
-264.8008 500.6506 309.1729
-265.524 499.0506 313.2651
-259.2767 502.8171 303.309
-261.78 501.4171 307.0226
-264.1349 502.057 305.5736
-271.4121 499.8553 311.6512
-153.3138 497.2292 268.942
-153.5086 496.484 271.6526
-166.7969 499.4561 269.988
-308.3783 506.0117 261.8088
-301.9525 505.1343 276.4797
-306.647 505.9301 262.2779
-303.1004 505.6094 266.6962
-278.1689 505.1218 257.9877
-301.8964 504.9306 281.0187
-308.4991 504.8725 287.5388
-303.1635 504.6528 288.2698
-307.7896 506.1467 258.3069
-295.0321 505.4674 263.5223
-302.8483 505.149 276.8554
-298.2369 505.4571 266.2847
-362.712 497.8789 289.3444
-365.7961 497.4869 288.304
-403.1946 444.4692 260.3391
-396.2202 445.3981 267.4658
-397.0877 444.1255 263.4439
-383.2539 499.1121 245.1074
-391.7069 500.9761 249.6874
-382.0107 500.8134 262.4668
-383.2224 499.693 250.4566
-400.0004 465.8638 282.5232
-402.7246 463.643 279.761
-403.0677 464.1423 279.6535
-406.577 453.1646 273.5045
-408.0947 459.4998 274.3382
-407.0696 462.1866 275.9792
-405.9611 460.5189 276.3066
-276.9382 496.4473 320.2523
-296.2268 500.433 308.6604
-301.6171 501.4461 305.6472
-275.674 496.3921 320.549
-296.2962 495.6068 319.4978
-287.7567 496.8272 317.9211
-379.5946 496.673 281.6954
-376.1005 496.7326 283.7769
-379.4881 498.436 275.6367
-350.7735 480.2331 77.90316
-356.0689 462.2398 74.01841
-360.5279 454.4362 52.39771
-358.2549 460.5679 58.04042
-359.2979 456.0486 59.71113
-351.5207 478.9662 74.17812
-359.1101 456.6738 59.88055
-355.4427 464.3556 74.50716
-327.7959 500.8993 78.09431
-327.5999 501.2439 74.9359
-336.5805 497.344 69.07701
-332.6166 498.7639 75.48029
-330.4552 500.3446 68.75918
-337.5828 496.1664 77.82436
-326.5348 501.8284 74.08618
-340.5277 495.0156 74.28047
-275.1275 509.7856 91.76264
-307.9505 505.1569 106.7383
-294.8257 507.5311 96.26051
-282.8808 507.1663 108.3907
-275.9317 508.6328 101.046
-298.1225 506.3304 104.0767
-304.658 505.7578 104.064
-277.3346 509.0654 96.27762
-354.0187 420.0158 56.6869
-357.0419 437.3746 58.85329
-356.6759 432.352 53.81697
-352.9329 418.9932 64.42706
-360.3426 450.0836 51.01423
-352.4747 418.1618 67.04013
-352.9263 419.9228 66.00365
-357.6216 435.9056 51.42725
-357.6606 437.3726 53.48666
-354.916 425.977 58.65253
-191.9322 456.1538 71.60275
-194.2402 465.2999 75.26814
-191.38 456.6485 66.73059
-192.7385 461.6346 69.47952
-192.3462 457.2143 73.12385
-192.6827 460.4806 70.78027
-277.4487 505.165 281.5321
-294.3961 504.7703 282.1134
-287.558 504.9023 270.8793
-304.5625 504.5698 297.1188
-297.9171 504.7224 295.9997
-292.1637 504.8125 278.0814
-274.9404 505.2155 278.2387
-298.6374 504.6897 289.598
-288.6804 504.8871 275.3544
-275.6845 505.1613 263.4137
-282.4214 505.0685 289.4724
-282.779 500.4142 309.9066
-278.8809 502.9264 303.8389
-292.945 503.4301 301.5677
-279.2487 503.8245 301.5448
-279.7935 503.0913 303.3575
-282.8488 499.9364 311.1082
-282.8107 500.1895 310.4719
-384.1335 501.1081 263.2831
-385.7246 501.0406 262.4735
-381.2065 500.6706 266.7425
-392.6972 488.8016 282.0766
-396.0686 494.4297 276.7502
-405.3115 494.9716 269.4839
-403.5198 488.7863 273.8886
-328.996 500.7124 60.08372
-327.1832 501.416 59.94645
-331.887 499.578 60.0065
-324.8035 502.3759 60.64072
-322.261 503.4881 63.47651
-322.4619 503.5812 67.62771
-320.2546 503.827 52.69281
-327.4292 501.3501 60.67833
-311.3472 506.4955 56.85159
-303.5542 507.4652 54.68672
-294.3804 509.2944 64.1584
-302.7936 507.8356 59.29523
-283.4663 510.3122 55.17542
-303.303 507.4477 53.76381
-302.3581 508.5814 71.26488
-287.5562 509.7385 55.18082
-292.87 509.5096 64.21432