####
#
# OBJ File Generated by Meshlab
#
####
# Object border.obj
#
# Vertices: 620
# Faces: 336
#
####
mtllib ./border.obj.mtl

vn 0.768735 1.724483 -0.556607
v -0.690310 -5.959490 13.864221
vn 0.044351 0.118530 -0.015835
v -0.749127 -5.884404 14.015620
vn -0.545456 -0.967729 0.613702
v -0.761619 -5.785661 14.160222
vn 0.559508 2.711452 -1.244261
v -0.721774 -5.956820 13.829038
vn 0.451977 -2.567846 1.099514
v -0.746724 -5.793650 14.160863
vn 0.071416 0.718562 -0.373439
v -0.757886 -5.969323 13.798074
vn 2.170487 0.858862 -0.962445
v -0.754703 -5.876045 13.978166
vn 0.945951 -0.794683 0.118659
v -0.726508 -5.781022 14.122148
vn 0.532999 0.167108 -0.214659
v -0.770513 -5.871401 13.942525
vn 0.154730 -0.154206 0.030498
v -0.654710 -5.677041 14.283641
vn -0.481079 0.151098 -1.340442
v 3.522941 -4.108407 19.421497
vn -0.718011 0.255323 -1.327209
v 3.093642 -4.146593 19.627590
vn -0.120646 0.154926 -1.441226
v 6.228867 -4.101176 19.026241
vn -0.352825 0.305564 -2.939189
v 4.279712 -4.102515 19.237255
vn -0.342209 0.137502 -1.368219
v 3.755613 -4.105524 19.338585
vn -0.628326 0.190981 -1.352036
v 3.308397 -4.112031 19.519825
vn -0.092081 0.747369 -2.795529
v 6.507020 -4.102987 19.011173
vn -0.355431 0.315089 -2.920903
v 5.673844 -4.100005 19.080120
vn -0.430729 0.169069 -1.666868
v 3.756948 -4.071723 19.341648
vn -0.587474 0.183919 -1.599547
v 3.523845 -4.074763 19.424965
vn -0.687205 0.212034 -1.460189
v 3.307434 -4.078903 19.524952
vn -0.810891 0.391016 -1.323622
v 2.860329 -4.242291 19.738773
vn 0.143810 0.292013 -2.948374
v 7.642821 -4.114363 19.034660
vn -0.133832 0.198715 -1.671120
v 6.229445 -4.067441 19.029819
vn -0.023214 0.025776 -0.239645
v 5.951077 -4.066468 19.053226
vn -0.011987 0.010631 -0.100019
v 5.128183 -4.067519 19.156082
vn -0.376116 0.334407 -3.100204
v 5.674560 -4.066270 19.083672
vn -0.048449 0.025264 -0.246615
v 4.008565 -4.069736 19.278915
vn -0.941104 0.682167 -1.311528
v 2.633091 -4.394073 19.816261
vn -1.370163 1.198432 -0.902757
v 2.436562 -4.596884 19.822960
vn -0.748092 0.272772 -1.371286
v 3.089348 -4.115794 19.635838
vn -0.002590 0.035604 -0.158011
v 6.787469 -4.071744 19.010288
vn 0.265291 0.131653 -1.407572
v 7.907886 -4.115907 19.052013
vn -0.373247 0.322715 -3.104017
v 4.280508 -4.068757 19.240669
vn -1.841096 0.778941 -0.419731
v 2.360288 -4.806316 19.730812
vn -0.774051 0.384618 -1.252306
v 2.851179 -4.217091 19.751823
vn 0.295119 0.154956 -1.649013
v 7.906738 -4.082107 19.054958
vn 0.450996 0.122032 -1.338589
v 8.133995 -4.115461 19.095108
vn -0.745109 0.546985 -1.004616
v 2.619988 -4.379381 19.833305
vn -0.787022 0.650141 -0.482057
v 2.422862 -4.599254 19.840607
vn 0.153197 0.309994 -3.129863
v 7.642445 -4.080586 19.037987
vn 0.525633 0.148371 -1.623754
v 8.131586 -4.081658 19.097378
vn 0.589765 0.125289 -1.235679
v 8.337911 -4.106483 19.164742
vn -0.987209 0.384895 -0.257994
v 2.348771 -4.825299 19.746101
vn -1.400329 0.028740 -0.885578
v 2.493841 -4.977963 19.511753
vn 0.743278 0.160804 -1.600905
v 8.334648 -4.072690 19.166611
vn -2.263053 -0.183727 -2.180809
v 2.733070 -5.092278 19.248974
vn 1.605918 0.329959 -2.536524
v 8.729338 -4.071184 19.376369
vn 0.139278 0.030061 -0.262107
v 8.533582 -4.048647 19.263996
vn -1.237496 0.019717 -0.798602
v 2.486716 -5.006110 19.522106
vn -2.109991 -0.173382 -2.046044
v 2.730606 -5.124553 19.254250
vn -0.988855 -0.095413 -1.142421
v 2.973874 -5.129717 19.025692
vn 1.575785 0.323972 -2.490747
v 8.728384 -4.037767 19.380112
vn 0.890412 0.190758 -1.307626
v 8.916631 -4.100632 19.499138
vn -1.059342 -0.102256 -1.217534
v 2.974313 -5.163494 19.028133
vn 0.871141 0.184941 -1.279723
v 8.919046 -4.068287 19.505501
vn 1.234704 0.512520 -0.536536
v 0.111717 -4.600214 -2.658526
vn -1.031324 -0.804337 -0.638010
v -1.203673 -4.250372 -2.995446
vn -0.152081 -0.032684 -0.174619
v 3.210286 -5.159054 18.823509
vn -1.859572 -0.591687 -2.123635
v 3.429349 -5.113374 18.618958
vn 0.814286 0.245888 -1.290579
v 9.115831 -4.146470 19.628094
vn 0.845485 0.262911 -1.350110
v 9.109112 -4.175912 19.618153
vn 1.278224 0.303532 -0.553223
v 0.039177 -4.435615 -2.671663
vn -1.229801 0.350045 -0.399582
v 1.828087 -3.730624 -2.651969
vn -1.173977 -0.644501 -0.571186
v -1.301225 -4.088372 -2.976100
vn 1.101752 0.749230 -0.594682
v 0.216722 -4.744920 -2.647810
vn 1.532858 0.395622 -0.663740
v 0.026147 -4.444362 -2.706568
vn -2.550358 0.748748 -1.112955
v 1.684419 -4.278509 -2.638090
vn -0.269084 0.071243 -0.096465
v 1.784899 -3.917373 -2.682646
vn -2.222251 1.238902 -0.878829
v 1.908118 -3.556282 -2.657903
vn -2.440005 -0.449736 -0.985232
v -1.361737 -3.908769 -2.956289
vn -1.599146 -1.764614 -1.241274
v -0.940801 -4.526803 -3.030156
vn -0.270010 -0.233636 -0.177438
v -1.071769 -4.378218 -3.047490
vn -1.215747 -0.910099 -0.730322
v -1.195085 -4.234270 -3.029628
vn -0.980673 -0.106398 -1.435276
v 3.650799 -5.142596 18.433186
vn -0.782963 -0.069408 -1.169745
v 3.650338 -5.108644 18.431480
vn 0.754255 0.417591 -1.309127
v 9.328994 -4.278573 19.735859
vn 0.758415 0.436112 -1.325623
v 9.317619 -4.302158 19.721592
vn 1.439040 0.639466 -0.642059
v 0.101018 -4.611007 -2.693457
vn 0.278852 0.053467 -0.137106
v -0.022555 -4.265570 -2.720998
vn -0.262763 1.293622 -0.503873
v 1.060012 -4.878931 -2.626625
vn -1.643393 0.495588 -0.541988
v 1.838140 -3.736007 -2.687625
vn -0.275198 0.223933 -0.115256
v 2.027337 -3.404823 -2.699434
vn -0.927878 0.913397 -0.387567
v 2.163208 -3.254091 -2.669487
vn -0.219462 2.560415 -0.768365
v 2.534553 -3.111635 -2.686823
vn -1.376200 -0.706199 -0.660325
v -1.291953 -4.074606 -3.010690
vn -0.627242 -1.095315 -0.661017
v -0.786897 -4.638567 -3.044927
vn 0.820827 0.972009 -0.623664
v 0.352521 -4.853621 -2.639285
vn 1.237293 0.904823 -0.695522
v 0.207512 -4.758822 -2.682388
vn -0.069749 1.322447 -0.463464
v 0.880525 -4.916517 -2.626833
vn -0.467749 1.238377 -0.497343
v 1.231287 -4.814579 -2.626621
vn -0.691091 1.142039 -0.496550
v 1.386337 -4.721426 -2.627568
vn -1.063744 0.716750 -0.583500
v 1.618332 -4.448008 -2.633918
vn -2.725148 0.815872 -1.192092
v 1.697876 -4.284862 -2.673201
vn -2.633918 1.462350 -1.040347
v 1.917964 -3.563804 -2.693404
vn -0.683584 1.120891 -0.317829
v 2.337095 -3.152587 -2.676407
vn -0.364508 0.001460 -0.106388
v -1.372241 -3.710004 -2.969395
vn -2.931471 -0.488119 -1.165872
v -1.349940 -3.896966 -2.990893
vn -0.779434 -1.304139 -0.798447
v -0.782580 -4.620495 -3.078969
vn -1.916971 -2.079333 -1.468760
v -0.934457 -4.508706 -3.064056
vn -1.322486 0.108675 -0.289923
v -1.370181 -3.525689 -2.909703
vn -1.165634 0.670459 -0.089737
v -1.223634 -3.178796 -2.867861
vn -0.098674 -0.008960 -0.154589
v 3.884303 -5.158972 18.277863
vn 0.089933 0.064769 -0.107630
v 9.546618 -4.465754 19.798786
vn 2.393448 0.246713 -1.450062
v -0.059179 -3.887887 -2.717190
vn 0.111608 1.285937 -0.441657
v 0.697952 -4.927038 -2.628462
vn -0.114121 1.635038 -0.580254
v 0.882746 -4.928797 -2.662207
vn -0.350802 1.574607 -0.615465
v 1.064415 -4.891764 -2.661868
vn -0.908653 0.962060 -0.549564
v 1.517158 -4.597441 -2.630205
vn -1.327041 0.841027 -0.710657
v 1.632020 -4.456062 -2.668765
vn -1.185895 1.228202 -0.499724
v 2.169224 -3.263120 -2.705169
vn 0.042043 0.325185 -0.107764
v 2.741501 -3.134732 -2.734500
vn -0.851038 1.507547 -0.429510
v 2.339292 -3.161430 -2.712319
vn 0.505511 1.240812 -0.434014
v 3.166854 -3.265084 -2.723485
vn 0.285651 1.279055 -0.460353
v 2.959795 -3.174982 -2.710879
vn -0.499211 -1.137908 -0.688491
v -0.618770 -4.727400 -3.058060
vn -0.623112 -1.372381 -0.830114
v -0.615584 -4.708341 -3.091870
vn -1.214886 0.342766 -0.116252
v -1.316779 -3.341626 -2.885972
vn -0.937094 1.102680 -0.070285
v -1.092008 -3.065555 -2.851427
vn 2.433397 1.986678 -1.391940
v 9.743290 -4.704368 19.770149
vn 1.213272 0.363004 -0.513608
v -0.096475 -3.701720 -2.733999
vn 0.401395 1.168970 -0.525411
v 0.517441 -4.910200 -2.632724
vn 0.936034 1.216709 -0.745607
v 0.345128 -4.869426 -2.673648
vn 1.585617 0.437492 -0.705587
v -0.109042 -3.709422 -2.769129
vn 0.119137 1.676655 -0.577174
v 0.697428 -4.939127 -2.663793
vn -0.603512 1.499206 -0.607528
v 1.237582 -4.826358 -2.661871
vn -0.865260 1.352059 -0.606794
v 1.394804 -4.731617 -2.662791
vn -1.109857 1.114513 -0.662399
v 1.528638 -4.606583 -2.665190
vn -0.264126 3.050605 -0.915371
v 2.533247 -3.122481 -2.722592
vn -1.730455 0.178119 -0.357170
v -1.362092 -3.522373 -2.945358
vn -1.781120 0.550822 -0.167352
v -1.313474 -3.342302 -2.922504
vn -0.287173 1.504097 -0.035381
v -0.923171 -3.030259 -2.832721
vn -1.521172 0.955817 -0.116842
v -1.220365 -3.178023 -2.904548
vn -0.788766 -0.075147 -1.354319
v 4.341815 -5.204649 18.013939
vn 1.094600 0.631892 -0.472791
v -0.159196 -3.524238 -2.751413
vn 0.491198 1.570802 -0.686115
v 0.513330 -4.924432 -2.667529
vn 0.385064 1.603307 -0.575571
v 2.954501 -3.186639 -2.746552
vn 0.706899 1.141143 -0.459653
v 3.356003 -3.387354 -2.737530
vn -0.131339 -0.326743 -0.194256
v -0.439210 -4.778830 -3.103254
vn -1.000252 1.338411 -0.076938
v -1.085811 -3.062607 -2.887800
vn -0.821489 -0.080286 -1.420621
v 4.340049 -5.238431 18.016842
vn 1.934894 1.499135 -1.129877
v 9.756794 -4.709170 19.786903
vn 1.373213 0.118214 -0.841437
v 9.846117 -4.913739 19.671902
vn 1.470920 0.799507 -0.633799
v -0.169200 -3.533417 -2.786842
vn 0.646017 1.515394 -0.537218
v 3.160534 -3.275037 -2.759301
vn -0.731354 -2.255080 -1.313633
v -0.260407 -4.857848 -3.079791
vn 0.252603 1.566389 -0.059757
v -0.738025 -3.055257 -2.814586
vn -0.230607 1.567997 -0.039740
v -0.912826 -3.029127 -2.868564
vn -1.311655 -0.183703 -2.681361
v 4.562594 -5.241861 17.898525
vn 1.270748 0.146346 -0.778042
v 9.856435 -4.935305 19.685711
vn 1.198098 -0.086850 -1.072200
v 9.736292 -5.040901 19.471397
vn 0.939216 0.843837 -0.494063
v -0.259785 -3.363787 -2.769066
vn 1.260992 1.081145 -0.648153
v -0.268129 -3.375203 -2.804426
vn 0.869524 1.373703 -0.560866
v 3.347939 -3.396768 -2.773303
vn 0.814879 1.058175 -0.490952
v 3.534773 -3.530682 -2.751829
vn -0.862766 -2.632902 -1.534046
v -0.259174 -4.838547 -3.113611
vn -1.320746 -0.185934 -2.712473
v 4.562043 -5.275731 17.901115
vn 1.158524 -0.070222 -1.012302
v 9.742470 -5.070636 19.480709
vn 0.950206 1.123636 -0.452377
v 4.063021 -3.995666 -2.789987
vn -0.317365 -1.493598 -0.812047
v -0.075809 -4.885983 -3.122735
vn -0.248232 -1.224427 -0.659745
v -0.075931 -4.904346 -3.088609
vn 0.587354 1.345937 -0.253472
v -0.557502 -3.122895 -2.799858
vn 0.291902 1.512255 -0.083908
v -0.726911 -3.058398 -2.849939
vn -0.095446 -0.016978 -0.238506
v 4.797199 -5.282605 17.796963
vn 1.154818 -0.097776 -1.173251
v 9.512483 -5.148437 19.230019
vn 1.038203 -0.088691 -1.062609
v 9.509897 -5.115772 19.224766
vn 0.777080 1.051121 -0.460210
v -0.393973 -3.227596 -2.785651
vn 1.012227 1.306830 -0.590382
v -0.398633 -3.239555 -2.820834
vn 0.922563 1.194150 -0.551626
v 3.525298 -3.539954 -2.787540
vn 1.045658 1.245433 -0.481413
v 4.054808 -4.003325 -2.826262
vn -0.055886 -0.352433 -0.223054
v 0.110570 -4.919629 -3.130417
vn 0.684283 1.465152 -0.312912
v -0.553536 -3.131247 -2.835017
vn -0.850473 -0.196310 -2.741077
v 5.048204 -5.241766 17.704899
vn -0.934130 -0.215389 -3.006894
v 5.049382 -5.275689 17.706963
vn 0.136938 -0.011729 -0.143377
v 9.264061 -5.201982 18.991772
vn 2.018200 -0.167764 -2.098769
v 9.024242 -5.207818 18.767925
vn 1.722045 2.206911 -0.506223
v 4.244275 -4.145238 -2.800421
vn -0.359086 -0.108175 -1.645064
v 5.322467 -5.271624 17.633694
vn -0.317102 -0.096684 -1.477720
v 5.321851 -5.237706 17.631607
vn 0.172303 0.240773 -0.080443
v 4.424803 -4.296114 -2.844063
vn -0.259031 -2.263814 -1.645668
v 0.300220 -4.961105 -3.103213
vn 0.024381 -1.506746 -0.691547
v 0.677578 -4.968809 -3.152012
vn 2.178618 -0.180674 -2.261056
v 9.024725 -5.241615 18.771091
vn -0.199607 -0.108752 -1.589963
v 5.881547 -5.267137 17.513428
vn 0.166812 -0.015512 -0.176631
v 8.822009 -5.277679 18.573116
vn -0.177349 -0.099452 -1.451609
v 5.881866 -5.233230 17.511066
vn 0.423610 -0.012440 -2.775195
v 6.593863 -5.232617 17.529324
vn 0.088019 -0.098097 -1.387528
v 6.376231 -5.230574 17.493752
vn 0.738198 1.124283 -0.483088
v 4.628674 -4.416971 -2.813800
vn 0.031209 -1.273736 -0.562857
v 0.680263 -4.984183 -3.117072
vn 0.133235 -1.601999 -0.698654
v 0.867203 -4.961203 -3.158710
vn 1.838463 -0.212628 -2.297485
v 8.622279 -5.269151 18.391937
vn -0.006481 -0.018889 -0.271117
v 6.142714 -5.265545 17.481411
vn 0.327002 -0.120634 -1.414091
v 6.808721 -5.240361 17.559635
vn 0.874008 1.353568 -0.580535
v 4.621397 -4.427589 -2.849631
vn 0.641865 1.177443 -0.496375
v 4.834495 -4.530977 -2.819318
vn 0.115099 -1.268812 -0.552403
v 0.870582 -4.976171 -3.123626
vn 0.043309 -0.363448 -0.156393
v 1.056083 -4.941394 -3.164854
vn 1.910739 -0.221968 -2.401497
v 8.621395 -5.303051 18.394367
vn 0.123916 -0.017334 -0.196675
v 8.388386 -5.310601 18.231316
vn 0.126206 -0.113600 -1.759794
v 6.375123 -5.264468 17.496078
vn 0.371547 -0.128409 -1.663505
v 6.806012 -5.274173 17.561893
vn 1.136974 -0.255752 -2.662201
v 7.298649 -5.250449 17.718456
vn 1.103157 2.561305 -0.552804
v 5.047665 -4.630394 -2.823870
vn 0.754175 1.411703 -0.567456
v 4.827981 -4.542522 -2.855127
vn 0.092827 -1.558943 -0.496966
v 1.802150 -4.821947 -3.186455
vn 0.387480 -2.621805 -1.114808
v 1.247464 -4.925819 -3.134964
vn 1.397662 -0.233698 -2.786848
v 8.130920 -5.306401 18.086922
vn 1.304492 -0.218467 -2.606619
v 8.132360 -5.272496 18.084801
vn 0.076701 -0.022379 -0.250197
v 7.035134 -5.281952 17.615540
vn 0.542578 -0.110064 -1.314926
v 7.576712 -5.253244 17.844879
vn 0.073056 -1.306805 -0.410852
v 1.804162 -4.833109 -3.150594
vn 0.087834 -0.016907 -0.204735
v 7.856946 -5.296516 17.964134
vn 0.655462 -0.133538 -1.578901
v 7.575792 -5.287085 17.847332
vn 0.102316 0.276153 -0.095605
v 5.260984 -4.730556 -2.862258
vn 1.071119 0.325750 0.128824
v -1.148116 -3.822428 9.607688
vn -0.101103 -1.677158 -0.566511
v 1.988932 -4.809386 -3.193195
vn -0.096579 -1.287466 -0.438698
v 1.989298 -4.821590 -3.157460
vn 1.229485 -0.276815 -2.882313
v 7.296791 -5.284243 17.720909
vn 0.984787 0.523498 0.175367
v -1.327968 -3.432199 9.909423
vn 1.936620 1.666766 0.148498
v -1.498170 -3.200228 10.107636
vn -0.403654 -1.598624 -0.587382
v 2.173018 -4.820845 -3.200092
vn -0.551563 -1.205830 -0.428598
v 2.348270 -4.879184 -3.170542
vn -0.347875 -1.258190 -0.466834
v 2.171615 -4.833676 -3.164465
vn 0.388947 1.241120 -0.583223
v 5.489592 -4.786555 -2.828969
vn 0.455371 1.498257 -0.700283
v 5.485199 -4.801694 -2.864115
vn 2.307729 1.111723 0.111233
v -1.259562 -3.557847 9.809961
vn 0.445002 0.455107 0.043595
v -1.526219 -3.170534 10.322226
vn 2.646234 0.787244 -0.100537
v -1.103047 -3.969481 9.499579
vn 0.524670 0.208108 0.043405
v -1.208385 -3.650477 9.673997
vn 1.067850 0.109647 -0.095371
v -1.023749 -4.394972 9.212156
vn 2.035279 -0.819688 -1.143447
v -1.062350 -4.544056 9.145781
vn -0.253092 -0.523950 -0.465303
v -1.244838 -4.916471 9.390324
vn -0.692751 -1.114380 -0.389745
v 2.517326 -4.953400 -3.176544
vn 0.273920 1.267062 -0.562595
v 5.718431 -4.837409 -2.830994
vn 0.472057 0.326890 0.060659
v -1.421054 -3.277634 9.970754
vn 1.760890 0.923771 0.281545
v -1.340095 -3.396897 9.872141
vn 1.418153 1.416374 0.134466
v -1.619962 -3.064049 10.167477
vn 1.894049 0.574494 0.191308
v -1.154874 -3.786039 9.571863
vn 0.396613 0.066513 -0.028629
v -1.037181 -4.221295 9.261436
vn 0.115248 -0.975402 -0.999616
v -1.165780 -4.621875 9.083131
vn -0.664150 -1.525012 -0.544929
v 2.351162 -4.867812 -3.206258
vn -0.877933 -1.457776 -0.510826
v 2.522047 -4.943820 -3.212327
vn 0.322901 1.547697 -0.665736
v 5.714981 -4.852360 -2.866346
vn -2.587695 0.578676 0.896323
v -3.357865 -4.848940 11.542260
vn 1.514076 2.033419 0.496207
v -1.831962 -2.905721 10.402225
vn 0.730189 0.779508 0.095701
v -1.732118 -2.963747 10.265229
vn 2.019653 0.153887 -0.234219
v -1.030324 -4.361391 9.177145
vn 2.635623 -0.827753 -1.275560
v -1.069840 -4.512486 9.109818
vn -1.103612 -2.196693 -1.937672
v -1.328176 -4.636851 9.120791
vn -1.085444 -1.310865 -0.561586
v 2.684344 -5.042399 -3.218939
vn 0.364082 2.701070 -0.795552
v 5.950670 -4.874000 -2.831956
vn -1.056265 -0.472858 0.608504
v -3.340333 -5.284563 11.614761
vn -1.203180 -0.105343 0.509836
v -3.374360 -5.065007 11.586148
vn -1.664485 -0.788675 -0.503445
v -1.459350 -4.580985 9.198396
vn -0.831601 -0.971192 -0.426518
v 2.676841 -5.051615 -3.183325
vn 0.024588 0.295345 -0.070912
v 6.182885 -4.915508 -2.866612
vn -1.179506 0.289795 0.371850
v -3.237561 -4.233269 11.398658
vn -0.337708 0.087597 0.108430
v -3.290168 -4.444148 11.396134
vn -0.726105 -0.945927 0.659250
v -3.247113 -5.479359 11.619842
vn -1.685966 -0.096129 0.701009
v -3.393722 -5.075751 11.538235
vn 1.782653 2.454234 0.625927
v -1.855971 -2.878142 10.362467
vn -0.623475 -0.040392 0.029864
v -1.445294 -4.626702 9.430015
vn -1.269664 -1.073239 -0.623645
v 2.830415 -5.164507 -3.225697
vn -2.886896 0.627088 1.003837
v -3.376775 -4.859021 11.494175
vn -1.632141 0.385580 0.512158
v -3.255494 -4.244293 11.350366
vn -1.010503 -1.149496 0.852681
v -3.270793 -5.494048 11.572684
vn -1.495766 -0.594229 0.829806
v -3.362050 -5.297237 11.567215
vn 0.389294 1.366109 0.183378
v -2.024417 -2.836473 10.714856
vn 0.430887 1.113360 0.164120
v -1.995746 -2.818601 10.459165
vn -2.348378 0.178271 0.329178
v -1.461570 -4.477837 9.291562
vn -1.537403 0.537498 0.490690
v -1.397777 -4.502195 9.532286
vn -0.988077 -0.802155 -0.483109
v 2.820508 -5.173645 -3.190262
vn 0.095113 2.782409 -0.523845
v 6.419210 -4.916522 -2.829089
vn -0.004152 0.300198 -0.066073
v 6.654567 -4.931090 -2.863734
vn -2.628414 0.311827 0.776907
v -3.218980 -3.836711 11.310308
vn -0.384793 -1.212222 0.590476
v -3.086013 -5.621146 11.593166
vn -0.543920 -1.468278 0.751487
v -3.108949 -5.636751 11.546183
vn 0.124050 2.482799 0.829261
v -2.434264 -2.777172 10.778502
vn -1.389446 0.208890 0.386914
v -1.240359 -4.113555 9.586967
vn -0.673915 0.028750 0.190736
v -1.172259 -4.145101 9.832335
vn -0.293750 -0.211046 -0.117894
v 2.952609 -5.311101 -3.232209
vn -0.716740 0.157153 0.209348
v -3.131494 -3.418751 11.360813
vn -0.984693 0.191391 0.288465
v -3.224372 -3.652014 11.217934
vn 0.168742 -0.765921 0.212234
v -2.623315 -5.689602 11.619864
vn -0.053880 -0.796320 0.235609
v -2.828813 -5.673802 11.687227
vn 0.212862 1.013403 0.199250
v -2.304347 -2.757510 10.647297
vn 0.834464 3.002379 0.419118
v -2.146758 -2.780074 10.554419
vn -2.816646 0.989888 0.944948
v -1.392798 -4.353320 9.391172
vn -2.829792 1.050475 0.831997
v -1.310948 -4.233342 9.488157
vn -1.000754 -0.763800 -0.468627
v 3.267430 -5.824657 -3.216304
vn -2.339113 -1.476556 -0.747418
v 3.050820 -5.481423 -3.203091
vn -0.172845 2.742847 -0.693117
v 6.889257 -4.906762 -2.825987
vn -0.164568 -1.663154 0.531924
v -2.907697 -5.724990 11.496181
vn 0.108368 2.908813 1.000414
v -2.465898 -2.762059 10.737986
vn -1.240872 -0.301185 0.201357
v -1.142991 -4.020699 9.939608
vn -2.364968 -0.113139 0.617977
v -1.205321 -3.989604 9.692081
vn -1.278431 -0.966016 -0.587708
v 3.278252 -5.817056 -3.251803
vn -0.030107 0.299583 -0.096316
v 7.124629 -4.900267 -2.858980
vn -1.707930 0.422831 0.546885
v -3.196094 -3.460073 11.170663
vn -1.101084 0.489264 0.567795
v -3.116206 -3.271568 11.163151
vn 0.262600 -2.178883 0.617938
v -2.698249 -5.758410 11.431124
vn -0.544059 1.337033 0.421630
v -2.669700 -2.886273 11.081739
vn -0.276716 1.044225 0.311940
v -2.628793 -2.804873 10.826679
vn -1.681054 1.698245 1.138465
v -3.026195 -3.112581 11.101200
vn 1.649617 -1.964719 0.652971
v -2.316339 -5.625431 11.330400
vn 0.303779 -0.975579 0.292519
v -2.499351 -5.734807 11.358165
vn -3.019438 -0.760117 0.459451
v -1.202929 -3.866044 9.801567
vn -1.034608 -0.455128 0.077381
v -1.230247 -3.747433 9.913495
vn -0.762177 -0.997153 -0.532095
v 3.542735 -6.138800 -3.228053
vn -0.896231 -0.872971 -0.513807
v 3.393677 -5.988264 -3.222772
vn -1.202214 -1.142581 -0.675062
v 3.404412 -5.978509 -3.258071
vn -0.179767 1.306413 -0.508999
v 7.353609 -4.853181 -2.818998
vn -0.232664 1.595224 -0.618753
v 7.356428 -4.866769 -2.854869
vn -1.469171 0.714826 0.787807
v -3.141816 -3.276075 11.117371
vn 0.357741 -0.272988 0.016353
v -2.076158 -5.359660 11.574680
vn -0.480295 0.857960 0.351997
v -2.933452 -2.981433 10.987713
vn -1.150363 2.767413 0.889306
v -2.786735 -2.879987 10.910787
vn -0.937675 -0.817981 0.035994
v -1.272433 -3.692647 10.059550
vn -0.292105 1.292030 -0.479318
v 7.580777 -4.801108 -2.814598
vn -1.940445 1.947066 1.314079
v -3.056085 -3.112401 11.056796
vn 1.353800 -1.075393 0.106171
v -2.189801 -5.530437 11.209894
vn 1.862894 -2.302287 0.785665
v -2.329770 -5.651980 11.284448
vn -1.256906 -1.322608 0.005872
v -1.296895 -3.666135 10.024792
vn -0.533062 -1.138966 -0.442450
v 3.722404 -6.271452 -3.231119
vn -1.017610 -1.291841 -0.695670
v 3.552459 -6.127436 -3.263278
vn -0.371398 1.586524 -0.585422
v 7.584375 -4.813648 -2.850593
vn 1.220339 -0.843525 0.089989
v -2.079707 -5.390686 11.134378
vn -0.277109 -1.197383 -0.168438
v -1.382539 -3.666528 10.168485
vn -0.158908 -1.256022 -0.343737
v 3.926812 -6.362944 -3.234499
vn -0.751490 -1.527107 -0.611240
v 3.729529 -6.260993 -3.266627
vn -0.399464 1.275153 -0.445533
v 7.803045 -4.730686 -2.809208
vn -0.496047 1.241622 -0.443009
v 8.019234 -4.641967 -2.802308
vn 2.491931 -0.737290 0.314443
v -2.000504 -5.207875 11.104262
vn -0.305357 -1.832486 -0.248085
v -1.412501 -3.654514 10.132373
vn -0.268364 -1.737597 -0.491843
v 3.930476 -6.353600 -3.270336
vn -1.885354 2.113383 -0.135974
v 8.595285 -4.253677 -2.775012
vn -0.978077 0.912312 -0.392668
v 8.906228 -3.932115 -2.752543
vn -0.502121 1.564032 -0.547510
v 7.807464 -4.741925 -2.845337
vn 0.259222 -1.354984 -0.143844
v -1.516177 -3.689336 10.273555
vn 0.549252 -1.300827 -0.121839
v -1.651097 -3.747318 10.373889
vn 1.793056 -1.762098 -0.563594
v -1.767303 -3.843910 10.468270
vn 0.169806 -1.716987 -0.491286
v 4.150146 -6.379672 -3.276621
vn 0.156433 -1.287745 -0.370074
v 4.150094 -6.389993 -3.240729
vn -0.612054 1.185883 -0.435731
v 8.225419 -4.532811 -2.794160
vn -0.219542 0.224233 -0.054095
v 8.765476 -4.103460 -2.800048
vn 2.936858 -0.901753 0.389093
v -2.002383 -5.233946 11.058023
vn 0.762629 -0.237777 -0.129293
v -1.843053 -4.074510 10.764121
vn 0.386538 -1.699263 -0.177067
v -1.550447 -3.691904 10.235987
vn -0.623353 1.521062 -0.544141
v 8.024688 -4.652626 -2.838289
vn -0.755408 1.115650 -0.390902
v 8.417662 -4.401079 -2.785038
vn -0.951658 1.369810 -0.447816
v 8.424416 -4.409060 -2.820868
vn -1.234232 1.130221 -0.472659
v 8.915023 -3.938108 -2.788374
vn -2.291479 1.749487 -0.498355
v 9.042793 -3.757032 -2.740200
vn 0.516354 -0.076843 0.028274
v -1.960708 -5.061435 10.980902
vn 0.730200 -1.538916 -0.158532
v -1.684110 -3.757646 10.335334
vn 1.045383 -0.409389 -0.227340
v -1.863341 -4.003621 10.514085
vn 0.062603 -0.289759 -0.083795
v 4.379994 -6.349871 -3.283161
vn -0.773087 1.458827 -0.533884
v 8.231766 -4.542690 -2.829962
vn 1.207474 -0.103743 0.038172
v -1.941970 -4.855262 10.948503
vn 2.167456 -2.062175 -0.707272
v -1.794690 -3.859098 10.428625
vn 1.628087 -0.461075 -0.240025
v -1.902247 -4.171875 10.594028
vn 1.425011 -0.199724 -0.052430
v -1.918216 -4.317498 10.714729
vn 2.744134 -0.075575 0.051323
v -1.930001 -4.494318 10.791302
vn 1.035214 -2.469901 -0.745843
v 4.615325 -6.284062 -3.251816
vn -0.170399 0.156935 -0.071166
v 9.422045 -3.260039 -2.739328
vn 1.799053 -0.147148 0.055232
v -1.942739 -4.880926 10.903079
vn 1.191759 -2.823742 -0.853578
v 4.611474 -6.274857 -3.287644
vn 0.840080 -1.032799 -0.303380
v 4.834351 -6.164062 -3.257232
vn 1.681535 -0.205430 -0.046963
v -1.923621 -4.344520 10.670761
vn 1.069457 -1.358450 -0.401582
v 4.829750 -6.157264 -3.293115
vn -0.916924 0.896117 -0.448577
v 9.549445 -3.106061 -2.692143
vn 0.183602 -0.201201 -0.078624
v 5.019988 -5.999731 -3.302624
vn -0.696303 1.097034 -0.385840
v 9.865484 -2.869573 -2.670575
vn -0.817573 0.991451 -0.461320
v 9.700380 -2.975864 -2.681311
vn -1.191153 1.190687 -0.591204
v 9.559296 -3.113914 -2.727967
vn 1.988953 -1.924088 -0.980107
v 5.203499 -5.823277 -3.276625
vn -1.047999 1.306174 -0.590354
v 9.709759 -2.984761 -2.717054
vn -0.441369 1.215136 -0.309349
v 10.043856 -2.804204 -2.661716
vn -0.409494 -1.308509 -0.525427
v 7.223150 -5.113685 -3.286038
vn 0.921649 -1.200716 -0.571055
v 5.551702 -5.438903 -3.324589
vn -0.884772 1.469881 -0.499737
v 9.872168 -2.877969 -2.706509
vn 0.287424 2.542336 -0.698273
v 10.234579 -2.796784 -2.656525
vn -0.300070 -1.345365 -0.498522
v 6.981024 -5.057391 -3.289982
vn -0.437262 -1.283311 -0.488574
v 8.119707 -5.470457 -3.266560
vn -0.541533 1.666322 -0.427587
v 10.046824 -2.812315 -2.697811
vn 0.494229 -1.287644 -0.476696
v 5.988066 -5.164345 -3.296968
vn -0.565459 -1.357315 -0.598773
v 7.457532 -5.189766 -3.281703
vn -0.454945 -1.493498 -0.595420
v 7.226087 -5.100448 -3.321292
vn -0.180650 -1.373980 -0.527284
v 6.729455 -5.023870 -3.292780
vn -0.286003 -1.324590 -0.479073
v 8.331722 -5.545028 -3.259484
vn 0.669382 -1.194301 -0.495485
v 5.765274 -5.290985 -3.294171
vn 0.817009 -1.078744 -0.511647
v 5.560930 -5.448578 -3.289455
vn 0.340621 3.064385 -0.841570
v 10.234038 -2.806588 -2.692443
vn 0.009212 -1.376840 -0.552365
v 6.475608 -5.025329 -3.294882
vn -0.577294 -1.419567 -0.620849
v 7.461357 -5.175900 -3.316747
vn -0.330175 -1.536472 -0.571143
v 6.982778 -5.044650 -3.325422
vn -0.356869 -1.565973 -0.569235
v 8.334251 -5.532685 -3.295121
vn 0.789590 -1.371028 -0.575190
v 5.757612 -5.280614 -3.329520
vn 0.131247 0.343173 -0.099657
v 10.419216 -2.852055 -2.688996
vn 0.272083 -1.343461 -0.513825
v 6.226659 -5.073973 -3.296741
vn 0.587025 -1.474616 -0.551232
v 5.982512 -5.153297 -3.332569
vn -0.483526 -1.409070 -0.539171
v 8.123646 -5.458248 -3.302154
vn -0.183214 -1.537656 -0.592487
v 6.729383 -5.010339 -3.328014
vn -0.129052 -1.318819 -0.507727
v 8.550720 -5.595712 -3.252992
vn -0.174465 -1.596059 -0.610851
v 8.552593 -5.582199 -3.288568
vn 0.606688 1.151340 -0.351601
v 10.592785 -2.931674 -2.650220
vn 0.714810 -1.063565 -0.478644
v 9.379490 -5.498667 -3.218997
vn 0.333883 -1.533260 -0.584837
v 6.222861 -5.061224 -3.332086
vn 0.036782 -1.536925 -0.614056
v 6.473531 -5.011277 -3.329943
vn 0.849160 1.505995 -0.460860
v 10.587774 -2.939980 -2.686065
vn 0.535032 -1.187576 -0.442273
v 9.188608 -5.579766 -3.227832
vn 0.283681 -2.534571 -0.941928
v 8.984278 -5.617861 -3.237184
vn -0.011859 -0.324091 -0.122309
v 8.771460 -5.606344 -3.281482
vn 0.883265 0.949632 -0.296565
v 10.731400 -3.062045 -2.649166
vn 1.123356 0.627984 -0.365904
v 10.824638 -3.226480 -2.651886
vn 0.821797 -0.949868 -0.511162
v 9.553368 -5.387766 -3.209670
vn 0.902063 -1.393771 -0.615101
v 9.374310 -5.486173 -3.254495
vn 1.238639 1.246867 -0.414236
v 10.724665 -3.067008 -2.685117
vn 1.062620 -1.259858 -0.665490
v 9.546412 -5.374812 -3.244925
vn 0.650021 -1.536467 -0.572343
v 9.185709 -5.567766 -3.263561
vn 0.324468 -2.971401 -1.104121
v 8.983629 -5.604679 -3.272850
vn 1.229592 0.432335 -0.457808
v 11.034606 -3.952671 -2.670485
vn 0.920741 -0.871035 -0.488404
v 9.706692 -5.260266 -3.198839
vn 1.193924 -1.153543 -0.643817
v 9.699011 -5.248601 -3.234123
vn 2.149084 -1.785294 -0.591711
v 10.090674 -4.822930 -3.164544
vn 1.523081 0.812527 -0.505832
v 10.814841 -3.229781 -2.687629
vn 2.542925 0.737254 -0.962650
v 10.886637 -3.409048 -2.656554
vn 1.187720 0.595147 -0.442691
v 11.114601 -4.116907 -2.675268
vn 0.200892 -0.181829 -0.088379
v 9.836090 -5.110132 -3.222651
vn 0.410413 -1.272696 -0.468466
v 10.513559 -4.479121 -3.133869
vn 1.560156 0.574063 -0.580953
v 11.022626 -3.956233 -2.706025
vn 0.019377 0.107737 -0.026712
v 12.774280 -4.458620 14.219110
vn 1.126157 -1.214562 -0.593554
v 10.209101 -4.672112 -3.189463
vn 2.858796 0.832950 -1.082537
v 10.873987 -3.411722 -2.692018
vn 0.190956 -1.304546 -0.413155
v 10.686608 -4.425200 -3.123879
vn 0.854649 -0.952724 -0.481930
v 10.216266 -4.683464 -3.154315
vn 0.267703 0.084862 -0.099960
v 10.962069 -3.779161 -2.701451
vn 1.460817 0.767329 -0.558542
v 11.104052 -4.122324 -2.710853
vn 1.078712 0.787302 -0.500255
v 11.221027 -4.263638 -2.681017
vn 0.230658 3.037350 -0.734883
v 12.458870 -4.469504 13.946412
vn -0.002680 0.151915 -0.035936
v 12.293869 -4.503962 13.813050
vn 0.274067 -1.654139 -0.533191
v 10.686416 -4.413962 -3.159452
vn 0.635851 -1.145874 -0.520031
v 10.354408 -4.564907 -3.144315
vn 0.814761 -1.381561 -0.634310
v 10.348178 -4.552436 -3.179412
vn -0.043826 -1.283552 -0.446117
v 10.866438 -4.402241 -3.115256
vn -0.023284 -1.680750 -0.578339
v 10.868998 -4.389993 -3.150747
vn 0.533482 -1.534299 -0.579038
v 10.510045 -4.467247 -3.169206
vn 1.270966 0.980028 -0.611198
v 11.210946 -4.272284 -2.716362
vn 0.750775 2.650063 -1.151511
v 12.490774 -4.483090 13.914760
vn 0.482696 2.541393 -1.126892
v 12.482679 -4.474792 13.922282
vn 0.020799 0.050777 -0.033632
v 12.323991 -4.503476 13.780837
vn -1.037384 -2.485710 -0.572812
v 11.396738 -4.524639 -3.090529
vn 0.859309 0.979565 -0.544983
v 11.354011 -4.381637 -2.687336
vn 0.542143 1.161295 -0.496636
v 11.513681 -4.459677 -2.693832
vn -0.298117 -1.245571 -0.500644
v 11.047434 -4.412197 -3.107143
vn -0.345251 -1.605861 -0.635098
v 11.052146 -4.399109 -3.142511
vn 1.005923 1.228588 -0.661000
v 11.344751 -4.393059 -2.722467
vn -1.281618 -2.458646 -0.801693
v 11.733563 -4.689013 -3.076381
vn -0.157576 -0.336910 -0.093253
v 11.574909 -4.592487 -3.118778
vn -0.117864 -0.361204 -0.114916
v 11.230192 -4.445077 -3.134166
vn -0.511667 1.147164 -0.531238
v 12.210636 -4.415146 -2.737638
vn -1.401323 1.999097 -1.417700
v 12.683180 -4.116018 -2.782716
vn -0.585287 1.113757 -0.537050
v 12.846637 -4.019491 -2.798065
vn 0.049319 1.324414 -0.529976
v 11.868120 -4.510437 -2.712385
vn -0.223177 1.269341 -0.579561
v 12.044463 -4.482965 -2.724684
vn -0.674561 1.073099 -0.483419
v 12.369997 -4.322308 -2.751600
vn 0.280129 1.281250 -0.467342
v 11.688793 -4.501396 -2.701761
vn 0.656122 1.504710 -0.631755
v 11.506927 -4.471598 -2.729080
vn -0.092015 -0.220391 -0.149933
v 12.240437 -4.949380 -3.088192
vn -0.317490 1.537828 -0.703282
v 12.046414 -4.498570 -2.759613
vn -0.688685 1.479264 -0.683036
v 12.213958 -4.429896 -2.772689
vn -0.841378 1.329732 -0.618674
v 12.374089 -4.335615 -2.786849
vn -0.778570 1.431614 -0.724270
v 12.851139 -4.034031 -2.833125
vn 0.318261 1.614389 -0.595629
v 11.685287 -4.513529 -2.737126
vn 0.018857 1.588364 -0.646268
v 11.867653 -4.524484 -2.747532
vn -0.148369 0.329619 -0.118966
v 13.021030 -3.951188 -2.846472
vn 0.235450 -1.118312 -0.498821
v 13.135703 -5.213530 -2.994924
vn -0.776839 -2.025093 -1.612056
v 12.400025 -5.045417 -3.044453
vn -0.417850 1.107385 -0.269996
v 13.204085 -3.875976 -2.821290
vn 1.480907 -1.968687 -0.986131
v 13.669593 -5.024803 -2.942756
vn 0.435265 -1.047078 -0.504106
v 13.322924 -5.182930 -2.979040
vn -0.012683 -1.134264 -0.570224
v 12.946398 -5.205026 -3.009218
vn -0.417012 -1.563176 -0.905524
v 12.586244 -5.098199 -3.067885
vn -0.639404 1.765208 -0.404535
v 13.199123 -3.886423 -2.856459
vn -0.247906 1.103682 -0.105705
v 13.394217 -3.840057 -2.829891
vn 0.164361 -0.321686 -0.157101
v 13.502820 -5.100100 -2.995757
vn 0.635698 -1.615668 -0.771650
v 13.325463 -5.165391 -3.013278
vn 0.318898 -1.701337 -0.768926
v 13.140892 -5.197097 -3.029316
vn -0.281593 -1.112247 -0.616250
v 12.576468 -5.114542 -3.033921
vn 1.004948 -0.579318 -0.317377
v 13.810073 -4.899520 -2.923874
vn 1.834829 -2.347182 -1.178335
v 13.668287 -5.008456 -2.977352
vn -0.044459 -1.666747 -0.848472
v 12.953760 -5.187991 -3.043267
vn -0.180370 -1.115469 -0.629404
v 12.758745 -5.168376 -3.022144
vn -0.273161 -1.592854 -0.897030
v 12.767677 -5.150787 -3.055876
vn -0.408885 1.956300 -0.175617
v 13.384087 -3.845734 -2.865408
vn -0.069719 1.213592 -0.038179
v 13.582806 -3.833503 -2.839504
vn 1.126887 -0.323916 -0.333997
v 13.910535 -4.739619 -2.906448
vn 1.586376 -0.973907 -0.528364
v 13.806867 -4.885840 -2.958996
vn 1.762202 -0.552584 -0.525392
v 13.903556 -4.727632 -2.941620
vn -0.049354 1.935113 -0.058193
v 13.574604 -3.835111 -2.875640
vn 0.359121 -0.066188 -0.078258
v 13.960354 -4.547533 -2.924650
vn 0.329245 1.280309 -0.022787
v 13.749511 -3.879591 -2.847592
vn 2.668268 0.085560 -0.360125
v 13.984186 -4.361991 -2.871668
vn 0.545703 1.713072 -0.035967
v 13.745989 -3.879338 -2.884266
vn 0.980312 1.011563 -0.055517
v 13.873999 -4.001601 -2.851608
vn 3.140209 0.099939 -0.423878
v 13.979260 -4.359246 -2.907514
vn 1.323401 0.615768 -0.054973
v 13.953234 -4.171682 -2.857615
vn 1.533597 0.655079 -0.079428
v 13.952816 -4.174043 -2.894124
vn 1.237123 1.176860 -0.067405
v 13.873559 -4.003194 -2.888403
vn 0.097186 -0.028247 1.326818
v 13.206785 -4.460618 11.215503
vn 0.099996 -0.093852 1.352914
v 13.417706 -4.526410 11.199562
vn 0.098649 -0.087713 1.393841
v 13.618084 -4.624215 11.177876
vn 0.207006 -0.002567 3.005930
v 14.001224 -4.841060 11.141946
vn 0.033821 0.039482 1.312178
v 12.993460 -4.442698 11.219596
vn -0.093306 0.009675 1.335484
v 12.785851 -4.488515 11.205719
vn 0.120681 0.022627 1.494824
v 14.190973 -4.932313 11.129412
vn 0.130969 -0.118718 1.772769
v 13.411049 -4.545410 11.198736
vn 0.128126 -0.033810 1.808376
v 13.203744 -4.480287 11.215307
vn 0.122903 -0.109600 1.732602
v 13.609352 -4.642601 11.177337
vn 0.013143 -0.005904 0.182832
v 13.801999 -4.753415 11.156729
vn 0.159874 0.037229 1.528742
v 14.384168 -5.000008 11.114561
vn 0.130449 0.023416 1.634834
v 14.183872 -4.951255 11.130272
vn 0.038333 0.052889 1.827338
v 12.995067 -4.462387 11.220147
vn 0.211252 -0.002419 3.073771
v 13.992342 -4.859404 11.142542
vn -0.318055 -0.250806 2.611622
v 12.603447 -4.592131 11.179320
vn 0.164312 0.037908 1.593248
v 14.380080 -5.019656 11.115467
vn -0.128448 0.005154 1.793975
v 12.792650 -4.506870 11.206327
vn 0.021540 0.016153 0.191571
v 14.580151 -5.048573 11.095248
vn -0.415492 -0.327607 3.420312
v 12.615312 -4.606563 11.179379
vn -0.000239 -0.036874 0.179960
v 12.481859 -4.754290 11.144848
vn 0.137503 -0.311936 1.047294
v 12.418136 -4.913946 11.105661
vn 0.398745 0.465788 3.117699
v 14.778732 -5.003057 11.064549
vn 0.365545 0.427622 2.863296
v 14.783262 -5.021975 11.066796
vn 0.264292 -0.575646 1.959033
v 12.436060 -4.911625 11.103999
vn 0.731587 -0.415824 2.543968
v 13.010860 -5.320431 10.900889
vn 0.173953 0.364809 1.516996
v 14.978337 -4.949989 11.029617
vn 0.278316 -0.322656 1.423466
v 12.506052 -5.050136 11.058918
vn 0.452505 0.098642 1.363287
v 13.382949 -5.306643 10.781152
vn 0.926343 0.211848 2.760972
v 13.560452 -5.254731 10.717688
vn 0.171906 0.373248 1.516152
v 14.969250 -4.932854 11.026429
vn 0.307084 -0.351974 1.572089
v 12.521685 -5.040141 11.058127
vn 0.062300 -0.009193 0.192174
v 13.197387 -5.312860 10.843194
vn 0.546983 -0.511976 2.759988
v 12.665878 -5.162746 11.008149
vn 0.044511 -0.033016 0.190940
v 12.842482 -5.240122 10.957311
vn 0.450484 0.138935 1.399229
v 13.911057 -5.124539 10.590589
vn 0.152755 0.972582 3.021609
v 15.284931 -4.693563 10.927461
vn 0.015121 0.051831 0.180837
v 15.154292 -4.842740 10.983264
vn 0.931136 -0.528200 3.225897
v 13.015944 -5.301245 10.902563
vn 0.549778 0.120353 1.654823
v 13.379431 -5.286870 10.780889
vn 0.500291 0.152455 1.551030
v 13.904845 -5.105082 10.590657
vn 0.618859 -0.578908 3.113343
v 12.677549 -5.147188 11.008722
vn 0.062672 0.015130 0.188453
v 14.087197 -5.048065 10.526287
vn -1.079154 -0.193692 1.290727
v 14.808146 -3.322333 9.808562
vn 0.139817 0.890751 2.767825
v 15.300574 -4.705390 10.930477
vn -1.024650 -0.275391 1.264684
v 14.710163 -3.429130 9.709261
vn -2.108446 -0.132127 2.405364
v 14.919574 -3.247064 9.913380
vn -0.029816 0.522362 1.492006
v 15.406634 -4.543098 10.874043
vn -0.036005 0.518436 1.471486
v 15.389009 -4.534720 10.870660
vn 0.506975 0.089524 1.475851
v 14.280087 -5.028172 10.458820
vn -0.996384 0.138991 1.184256
v 15.171714 -3.232450 10.135297
vn -1.792308 0.715710 2.527771
v 15.297161 -3.281978 10.244082
vn -0.926598 -0.242804 1.140994
v 14.699863 -3.413084 9.704410
vn -0.928033 -0.157884 1.105082
v 14.800594 -3.304480 9.804927
vn -0.147997 0.005442 0.173131
v 15.042950 -3.199022 10.023037
vn -2.063706 -0.412636 2.255395
v 14.557646 -3.695116 9.527734
vn 0.514577 0.085216 1.490816
v 14.277711 -5.008106 10.458419
vn -0.136251 -0.031821 0.158816
v 14.615505 -3.537384 9.608996
vn -1.877710 -0.117400 2.144303
v 14.915642 -3.227737 9.910995
vn -1.156495 -0.215474 1.222662
v 14.502546 -3.863760 9.446449
vn -2.184702 -0.266473 2.417868
v 14.711166 -5.611463 9.551334
vn -0.976269 0.013668 1.050160
v 14.465684 -5.173731 9.339188
vn -0.140089 0.590020 1.531184
v 15.482609 -4.365794 10.813434
vn -0.132937 0.537658 1.387653
v 15.463717 -4.360846 10.809707
vn 0.545130 0.006815 1.473505
v 14.466288 -5.018910 10.388704
vn -1.138249 -0.198254 1.187990
v 14.461348 -4.043435 9.376046
vn -1.007597 0.156766 1.209677
v 15.175481 -3.213165 10.136203
vn -0.102897 0.065595 0.181351
v 15.416929 -3.357202 10.348166
vn -0.985709 -0.184629 1.044216
v 14.490666 -3.852967 9.437114
vn -2.007605 -0.400604 2.195360
v 14.546208 -3.682354 9.519603
vn -2.145409 0.051387 2.241644
v 14.429373 -4.976887 9.300691
vn -1.054259 -0.425121 1.162253
v 14.821279 -5.675710 9.647173
vn -0.908569 0.035823 1.110489
v 14.526047 -5.344305 9.396047
vn 0.545839 -0.004127 1.474093
v 14.467273 -4.998891 10.388247
vn 1.111618 -0.329401 2.890117
v 14.641667 -5.053303 10.316755
vn -1.625563 0.649069 2.293194
v 15.306188 -3.265002 10.245676
vn -0.557289 0.549667 1.244702
v 15.472931 -3.503007 10.437628
vn -1.016815 -0.177867 1.062101
v 14.449104 -4.034852 9.365747
vn -0.929079 -0.651839 1.263149
v 14.926164 -5.649018 9.756187
vn -0.979250 -0.374837 1.080668
v 14.824760 -5.693750 9.643732
vn -0.125352 -0.005090 0.145400
v 14.599251 -5.504375 9.461104
vn -1.080227 0.041008 1.311169
v 14.514809 -5.355948 9.387228
vn -0.501721 1.171877 2.835658
v 15.548254 -4.001766 10.675073
vn -0.025142 0.073551 0.184061
v 15.538641 -4.183411 10.748136
vn -1.090740 0.023306 1.123868
v 14.409255 -4.580745 9.272445
vn -1.130301 -0.026588 1.141695
v 14.417514 -4.397432 9.285094
vn -1.137220 -0.132051 1.160732
v 14.433941 -4.219828 9.320942
vn -0.624263 0.622375 1.413128
v 15.489576 -3.492440 10.440414
vn -0.451949 0.537231 1.268549
v 15.516773 -3.660932 10.521460
vn -1.158232 0.016642 1.244180
v 14.454166 -5.182227 9.328591
vn -0.119369 0.002828 0.123770
v 14.399670 -4.774956 9.267170
vn -0.806430 -0.543159 1.076894
v 14.935975 -5.665178 9.755064
vn -1.875465 -0.230418 2.081141
v 14.707542 -5.628562 9.546175
vn -0.280232 -1.990326 2.639729
v 15.063710 -5.437201 9.978163
vn 1.057866 -0.313506 2.753076
v 14.646757 -5.034108 10.316985
vn -1.081070 -0.031621 1.092675
v 14.405405 -4.393818 9.273190
vn -1.053005 -0.126088 1.076289
v 14.421752 -4.213639 9.309704
vn -0.351287 0.568865 1.351811
v 15.544690 -3.827741 10.600645
vn -2.082706 0.049183 2.176451
v 14.417275 -4.982149 9.289233
vn -0.067033 -0.098082 0.153137
v 15.026209 -5.570807 9.870133
vn -0.479043 1.119117 2.707438
v 15.567995 -4.001055 10.678272
vn 0.065302 -0.042466 0.185273
v 14.814539 -5.101671 10.243051
vn -1.100719 0.020581 1.132822
v 14.396878 -4.579885 9.260415
vn -0.518922 0.627365 1.481976
v 15.534965 -3.653668 10.524865
vn 0.367654 -0.796060 1.453821
v 15.054250 -5.308957 10.077865
vn -0.372858 0.615986 1.465093
v 15.563937 -3.823840 10.604005
vn 0.474908 -0.530164 1.533150
v 14.955314 -5.203535 10.164220
vn 0.281540 -0.685721 1.226036
v 15.070749 -5.300749 10.078187
vn -0.234006 -1.659360 2.209317
v 15.080480 -5.438590 9.978896
vn 0.402337 -0.473072 1.315426
v 14.968987 -5.189497 10.164839
# 620 vertices, 0 vertices normals


usemtl material_0
vt 0.709058 0.686243
vt 0.709985 0.685130
vt 0.710636 0.691033
f 1/1/1 4/2/4 2/3/2
vt 0.710789 0.695607
vt 0.710365 0.695627
f 3/4/3 2/3/2 5/5/5
vt 0.711084 0.684151
vt 0.710783 0.689848
f 4/2/4 6/6/6 7/7/7
vt 0.709737 0.694402
vt 0.707378 0.699511
f 5/5/5 8/8/8 10/9/10
vt 0.711242 0.688720
f 7/7/7 9/10/9 8/8/8
vt 0.516095 0.851374
vt 0.516191 0.851262
vt 0.532304 0.853665
f 27/11/27 18/12/18 26/13/26
vt 0.572984 0.859535
vt 0.565517 0.857550
vt 0.573099 0.859438
f 19/14/19 28/15/28 15/16/15
vt 0.579905 0.862171
vt 0.580006 0.862061
f 20/17/20 19/14/19 11/18/11
vt 0.586378 0.865173
vt 0.586333 0.865334
f 20/17/20 16/19/16 21/20/21
vt 0.592824 0.868583
vt 0.592883 0.868843
f 21/20/21 12/21/12 31/22/31
vt 0.483098 0.849053
vt 0.491485 0.849081
vt 0.499640 0.849670
f 32/23/32 17/24/17 24/25/24
vt 0.499731 0.849558
vt 0.507894 0.850411
f 24/25/24 13/26/13 25/27/25
f 27/11/27 25/27/25 18/12/18
vt 0.557449 0.856340
vt 0.557547 0.856233
f 34/28/34 26/13/26 14/29/14
f 34/28/34 14/29/14 28/15/28
vt 0.599955 0.872101
vt 0.600171 0.872514
f 31/22/31 22/30/22 36/31/36
vt 0.457758 0.849930
vt 0.457822 0.849825
f 41/32/41 23/33/23 32/23/32
vt 0.443253 0.851810
vt 0.449963 0.850375
vt 0.449923 0.850468
f 42/34/42 33/35/33 37/36/37
f 37/36/37 23/33/23 41/32/41
vt 0.607030 0.874555
vt 0.607386 0.875094
f 36/31/36 29/37/29 39/38/39
vt 0.613307 0.874769
vt 0.613718 0.875328
f 30/39/30 40/40/40 39/38/39
vt 0.616031 0.871856
vt 0.616414 0.872340
f 35/41/35 44/42/44 40/40/40
vt 0.437210 0.854001
vt 0.443256 0.851739
f 46/43/46 38/44/38 42/34/42
vt 0.431257 0.857082
vt 0.437188 0.853942
f 49/45/49 43/46/43 46/43/46
vt 0.612449 0.864927
vt 0.612722 0.865255
f 45/47/45 50/48/50 44/42/44
vt 0.605605 0.856614
vt 0.605749 0.856781
f 47/49/47 51/50/51 50/48/50
vt 0.425455 0.860756
vt 0.425500 0.860638
f 53/51/53 48/52/48 49/45/49
vt 0.598607 0.849627
f 55/53/55 51/50/51 47/49/47
vt 0.419867 0.864724
f 56/54/56 48/52/48 53/51/53
vt 0.591598 0.843153
vt 0.598545 0.849550
f 59/55/59 55/53/55 52/56/52
vt 0.414203 0.868604
vt 0.420010 0.864523
f 56/54/56 61/57/61 54/58/54
vt 0.585000 0.836681
vt 0.578496 0.830803
f 60/59/60 75/60/75 59/55/59
vt 0.408172 0.872015
vt 0.414467 0.868290
f 61/57/61 77/61/77 62/62/62
vt 0.684058 0.163016
vt 0.684464 0.161912
vt 0.685514 0.161453
f 63/63/63 67/64/67 80/65/80
vt 0.682270 0.163434
vt 0.682611 0.162329
f 57/66/57 79/67/79 67/64/67
vt 0.629156 0.162504
vt 0.631136 0.162664
vt 0.629443 0.163632
f 82/68/82 69/69/69 64/70/64
vt 0.716883 0.151123
vt 0.720513 0.152768
vt 0.720223 0.151686
f 73/71/73 58/72/58 74/73/74
vt 0.723049 0.153378
vt 0.722743 0.152283
f 74/73/74 65/74/65 86/75/86
vt 0.679475 0.163775
vt 0.679778 0.162681
f 66/76/66 89/77/89 79/67/79
vt 0.634528 0.162967
vt 0.634913 0.164078
f 94/78/94 68/79/68 69/69/69
vt 0.626409 0.162319
vt 0.626684 0.163443
vt 0.622814 0.162127
f 95/80/95 70/81/70 83/82/83
f 95/80/95 82/68/82 70/81/70
vt 0.724447 0.154003
vt 0.724071 0.152908
f 86/75/86 71/83/71 98/84/98
vt 0.713098 0.150600
vt 0.713326 0.151673
f 100/85/100 72/86/72 73/71/73
vt 0.571606 0.825889
vt 0.578435 0.830749
f 103/87/103 75/60/75 76/88/76
vt 0.402130 0.874009
vt 0.408561 0.871565
f 77/61/77 104/89/104 78/90/78
vt 0.636859 0.163110
f 94/78/94 110/91/110 68/79/68
vt 0.618293 0.161944
vt 0.618451 0.163072
f 111/92/111 83/82/83 84/93/84
vt 0.724320 0.153585
f 98/84/98 71/83/71 97/94/97
vt 0.708840 0.150130
vt 0.704080 0.149723
vt 0.709007 0.151208
f 99/95/99 117/96/117 87/97/87
f 100/85/100 99/95/99 72/86/72
vt 0.675941 0.162959
vt 0.675686 0.164046
f 123/98/123 89/77/89 88/99/88
vt 0.685767 0.161569
vt 0.686852 0.159923
f 105/100/105 80/65/80 124/101/124
vt 0.660126 0.163322
vt 0.665645 0.163272
vt 0.660164 0.164441
f 107/102/107 125/103/125 90/104/90
vt 0.654656 0.163333
vt 0.654758 0.164448
f 108/105/108 107/102/107 81/106/81
vt 0.649375 0.163332
vt 0.649536 0.164447
f 126/107/126 108/105/108 91/108/91
vt 0.640257 0.163225
vt 0.637247 0.164212
f 110/91/110 128/109/128 93/110/93
vt 0.613024 0.161716
vt 0.613070 0.162852
f 113/111/113 111/92/111 96/112/96
vt 0.601035 0.161014
vt 0.607185 0.161391
vt 0.607123 0.162522
f 112/113/112 129/114/129 85/115/85
f 129/114/129 113/111/113 85/115/85
vt 0.723852 0.155472
vt 0.723605 0.154344
f 97/94/97 101/116/101 130/117/130
vt 0.671073 0.163153
vt 0.665603 0.164390
f 125/103/125 136/118/136 106/119/106
vt 0.644503 0.163302
vt 0.644732 0.164416
f 127/120/127 126/107/126 92/121/92
vt 0.640577 0.164331
f 128/109/128 127/120/127 109/122/109
vt 0.594832 0.160634
vt 0.594650 0.161763
f 137/123/137 112/113/112 115/124/115
vt 0.699004 0.149364
vt 0.704217 0.150793
f 117/96/117 139/125/139 116/126/116
vt 0.721766 0.155065
vt 0.721862 0.156221
f 131/127/131 130/117/130 118/128/118
vt 0.718740 0.156792
vt 0.718642 0.155631
f 131/127/131 102/129/102 133/130/133
vt 0.714396 0.156160
vt 0.714586 0.157310
f 140/131/140 133/130/133 119/132/119
vt 0.558137 0.817539
vt 0.558264 0.817632
f 134/133/134 141/134/141 103/87/103
vt 0.396433 0.873636
vt 0.396823 0.873106
f 142/135/142 120/136/120 104/89/104
vt 0.686462 0.161035
vt 0.688248 0.159360
f 121/137/121 124/101/124 144/138/144
vt 0.670920 0.164255
f 136/118/136 123/98/123 122/139/122
vt 0.588916 0.160232
vt 0.588707 0.161365
f 145/140/145 137/123/137 114/141/114
vt 0.709191 0.156768
vt 0.709501 0.157902
f 148/142/148 140/131/140 132/143/132
vt 0.393977 0.870437
f 142/135/142 150/144/150 120/136/120
vt 0.687931 0.160481
vt 0.690833 0.158802
f 135/145/135 144/138/144 153/146/153
vt 0.583627 0.159791
vt 0.583367 0.160922
f 154/147/154 145/140/145 138/148/138
vt 0.693796 0.149037
vt 0.693875 0.150108
f 139/125/139 156/149/156 146/150/146
vt 0.551671 0.813888
vt 0.551762 0.813971
f 149/151/149 157/152/157 141/134/141
vt 0.397655 0.863952
vt 0.394235 0.870000
f 150/144/150 158/153/158 143/154/143
vt 0.688462 0.148749
f 156/149/156 160/155/160 146/150/146
vt 0.703741 0.157358
vt 0.704064 0.158476
f 163/156/163 148/142/148 147/157/147
vt 0.544802 0.810675
f 149/151/149 164/158/164 157/152/157
vt 0.404649 0.856021
vt 0.397773 0.863657
f 158/153/158 165/159/165 151/160/151
vt 0.690560 0.159921
vt 0.694404 0.158281
f 152/161/152 153/146/153 168/162/168
vt 0.578682 0.159342
vt 0.578380 0.160472
f 169/163/169 154/147/154 155/164/155
vt 0.563738 0.159271
vt 0.563999 0.158123
f 159/165/159 170/166/170 169/163/169
vt 0.683008 0.148507
vt 0.688506 0.149829
f 160/155/160 171/167/171 161/168/161
vt 0.698760 0.157831
vt 0.698859 0.158943
f 172/169/172 163/156/163 162/170/162
vt 0.537307 0.807828
vt 0.537267 0.807762
f 174/171/174 164/158/164 173/172/173
vt 0.412135 0.848483
vt 0.404653 0.855855
f 165/159/165 175/173/175 166/174/166
vt 0.694240 0.159394
f 168/162/168 172/169/172 167/175/167
vt 0.529198 0.805510
f 178/176/178 174/171/174 173/172/173
vt 0.553671 0.157564
vt 0.558692 0.158942
f 180/177/180 170/166/170 177/178/177
vt 0.666299 0.147825
vt 0.677475 0.149368
f 171/167/171 182/179/182 181/180/181
vt 0.419321 0.841501
vt 0.419261 0.841400
f 175/173/175 183/181/183 176/182/176
vt 0.512606 0.801705
vt 0.529142 0.805443
f 184/183/184 178/176/178 179/184/179
vt 0.425414 0.835237
f 183/181/183 185/185/185 176/182/176
vt 0.660658 0.147613
vt 0.666254 0.148930
f 182/179/182 191/186/191 190/187/190
vt 0.548130 0.157389
vt 0.547890 0.158523
f 195/188/195 180/177/180 189/189/189
vt 0.655012 0.147418
vt 0.660591 0.148723
f 191/186/191 198/190/198 197/191/197
vt 0.512521 0.801630
vt 0.504856 0.800692
f 186/192/186 193/193/193 184/183/184
vt 0.431319 0.829504
vt 0.431420 0.829581
vt 0.438348 0.824422
f 192/194/192 199/195/199 200/196/200
vt 0.497853 0.801082
vt 0.497960 0.801156
f 188/197/188 201/198/201 193/193/193
vt 0.542256 0.157217
vt 0.542037 0.158350
f 205/199/205 195/188/195 196/200/196
vt 0.632620 0.146734
vt 0.649302 0.148364
f 198/190/198 206/201/206 207/202/207
f 192/194/192 185/185/185 199/195/199
vt 0.445975 0.819853
vt 0.445857 0.819786
f 208/203/208 209/204/209 200/196/200
vt 0.491402 0.802208
vt 0.485201 0.803239
f 187/205/187 202/206/202 201/198/201
vt 0.485046 0.803168
vt 0.478422 0.804937
f 194/207/194 210/208/210 202/206/202
vt 0.454079 0.815968
f 209/204/209 208/203/208 213/209/213
vt 0.529828 0.156994
vt 0.535934 0.158207
f 215/210/215 205/199/205 204/211/204
vt 0.627052 0.146521
vt 0.632585 0.147869
f 206/201/206 217/212/217 212/213/212
vt 0.470537 0.808193
vt 0.470667 0.808271
f 203/214/203 219/215/219 210/208/210
vt 0.462398 0.812272
f 203/214/203 214/216/214 219/215/219
vt 0.462296 0.812194
f 211/217/211 213/209/213 214/216/214
vt 0.621617 0.146303
vt 0.627068 0.147652
f 217/212/217 222/218/222 218/219/218
vt 0.523335 0.156936
vt 0.523171 0.158048
f 226/220/226 215/210/215 225/221/225
vt 0.717920 0.551536
vt 0.718041 0.550402
vt 0.719329 0.553632
f 216/222/216 239/223/239 230/224/230
vt 0.616437 0.146109
vt 0.621687 0.147430
f 222/218/222 242/225/242 224/226/224
vt 0.516631 0.156867
vt 0.516496 0.157985
f 244/227/244 226/220/226 235/228/235
vt 0.722394 0.561079
vt 0.722676 0.559898
vt 0.724814 0.563017
f 220/229/220 237/230/237 236/231/236
vt 0.726930 0.567347
vt 0.730242 0.569239
f 221/232/221 236/231/236 238/233/238
vt 0.720642 0.557933
f 227/234/227 230/224/230 237/230/237
vt 0.733347 0.572330
vt 0.727697 0.574137
f 238/233/238 247/235/247 228/236/228
vt 0.716908 0.548118
vt 0.715510 0.540586
f 229/237/229 240/238/240 239/223/239
vt 0.715495 0.539029
vt 0.715616 0.537921
f 231/239/231 248/240/248 240/238/240
vt 0.716969 0.536930
vt 0.720208 0.534949
vt 0.717122 0.535792
f 232/241/232 241/242/241 249/243/249
vt 0.725058 0.536141
vt 0.723203 0.544672
f 250/244/250 241/242/241 233/245/233
vt 0.611536 0.145918
vt 0.616548 0.147239
f 242/225/242 243/246/243 223/247/223
vt 0.606940 0.145710
vt 0.611697 0.147050
f 243/246/243 251/248/251 234/249/234
f 232/241/232 249/243/249 248/240/248
vt 0.728826 0.538595
f 255/250/255 250/244/250 233/245/233
vt 0.502892 0.156859
vt 0.509688 0.157955
f 257/251/257 244/227/244 252/252/252
vt 0.736832 0.575406
vt 0.736181 0.576664
f 247/235/247 262/253/262 246/254/246
vt 0.602877 0.145498
vt 0.607183 0.146837
f 251/248/251 264/255/264 256/256/256
vt 0.786311 0.611237
vt 0.785728 0.612759
vt 0.782827 0.608130
f 265/257/265 245/258/245 259/259/259
vt 0.781357 0.606679
vt 0.780801 0.608207
f 266/260/266 259/259/259 258/261/258
vt 0.787292 0.612634
vt 0.786841 0.613554
vt 0.786694 0.614150
f 261/262/261 268/263/268 254/264/254
f 265/257/265 261/262/261 245/258/245
vt 0.740847 0.578465
f 246/254/246 262/253/262 270/265/270
vt 0.728510 0.545924
vt 0.728664 0.541542
f 255/250/255 263/266/263 271/267/271
vt 0.488936 0.156951
vt 0.495885 0.158047
f 275/268/275 257/251/257 274/269/274
vt 0.784569 0.613729
vt 0.780083 0.612893
vt 0.783834 0.615221
f 267/270/267 278/271/278 260/272/260
vt 0.786169 0.615058
f 268/263/268 267/270/267 253/273/253
vt 0.599576 0.145294
vt 0.603191 0.146619
f 282/274/282 273/275/273 264/255/264
vt 0.745241 0.581478
vt 0.741737 0.586555
f 270/265/270 288/276/288 269/277/269
vt 0.726825 0.549159
vt 0.726349 0.544692
f 271/267/271 272/278/272 289/279/289
vt 0.723657 0.547759
vt 0.721299 0.550884
f 290/280/290 272/278/272 280/281/280
vt 0.779375 0.605407
vt 0.779127 0.602482
f 266/260/266 276/282/276 284/283/284
vt 0.774309 0.611312
vt 0.779368 0.614379
f 278/271/278 294/284/294 277/285/277
vt 0.749865 0.584416
f 288/276/288 287/286/287 269/277/269
vt 0.754667 0.587286
vt 0.753762 0.588568
f 287/286/287 295/287/295 279/288/279
f 289/279/289 272/278/272 290/280/290
vt 0.719349 0.558648
vt 0.719986 0.554209
f 280/281/280 281/289/281 297/290/297
vt 0.591034 0.144680
vt 0.597039 0.146217
f 298/291/298 292/292/292 282/274/282
vt 0.474926 0.157101
vt 0.481921 0.158145
f 299/293/299 275/268/275 293/294/293
vt 0.777865 0.600984
vt 0.775858 0.607000
f 300/295/300 284/283/284 283/296/283
vt 0.768170 0.609254
vt 0.771856 0.617356
f 294/284/294 302/297/302 286/298/286
vt 0.759593 0.590093
f 279/288/279 295/287/295 304/299/304
vt 0.762219 0.606945
vt 0.765796 0.615225
f 302/297/302 307/300/307 285/301/285
vt 0.718206 0.562041
vt 0.719643 0.557672
f 297/290/297 296/302/296 308/303/308
vt 0.587648 0.144484
vt 0.591372 0.145803
f 312/304/312 291/305/291 298/291/298
vt 0.467977 0.157231
vt 0.468030 0.158366
f 314/306/314 299/293/299 313/307/313
vt 0.775849 0.599295
vt 0.775079 0.600744
f 315/308/315 300/295/300 301/309/301
vt 0.764443 0.592754
vt 0.760986 0.598164
f 304/299/304 318/310/318 303/311/303
vt 0.720191 0.561212
f 308/303/308 296/302/296 309/312/309
vt 0.772059 0.598782
vt 0.772945 0.597377
f 315/308/315 305/313/305 321/314/321
vt 0.757006 0.604612
vt 0.756549 0.606066
f 323/315/323 306/316/306 307/300/307
vt 0.769019 0.595190
f 318/310/318 317/317/317 303/311/303
vt 0.721322 0.565832
vt 0.721989 0.564732
f 309/312/309 319/318/319 324/319/324
vt 0.583586 0.144321
vt 0.587988 0.145601
f 326/320/326 311/321/311 312/304/312
vt 0.461098 0.157366
vt 0.461177 0.158505
f 327/322/327 314/306/314 320/323/320
f 317/317/317 321/314/321 305/313/305
vt 0.752586 0.602252
vt 0.749012 0.599861
vt 0.748839 0.613792
f 322/324/322 328/325/328 316/326/316
f 306/316/306 323/315/323 322/324/322
vt 0.578628 0.144217
vt 0.583899 0.145436
f 326/320/326 331/327/331 310/328/310
vt 0.725392 0.568136
vt 0.724530 0.569278
f 335/329/335 324/319/324 329/330/329
vt 0.572873 0.144101
vt 0.578863 0.145341
f 331/327/331 336/331/336 325/332/325
vt 0.454323 0.157532
vt 0.454430 0.158675
f 339/333/339 327/322/327 332/334/332
vt 0.566415 0.143902
vt 0.573002 0.145235
f 336/331/336 343/335/343 330/336/330
vt 0.746373 0.597443
vt 0.746260 0.598906
f 328/325/328 347/337/347 334/338/334
vt 0.729566 0.571414
vt 0.728544 0.572603
f 349/339/349 335/329/335 340/340/340
vt 0.447683 0.157754
vt 0.447821 0.158892
f 350/341/350 339/333/339 333/342/333
vt 0.424499 0.158958
vt 0.435290 0.158303
vt 0.429879 0.159752
f 346/343/346 352/344/352 337/345/337
vt 0.419699 0.159325
vt 0.419946 0.160459
f 353/346/353 346/343/346 338/347/338
vt 0.744756 0.595001
f 334/338/334 347/337/347 355/348/355
vt 0.559532 0.143695
vt 0.566439 0.145038
f 343/335/343 358/349/358 344/350/344
vt 0.441299 0.158016
vt 0.441465 0.159149
f 359/351/359 350/341/350 345/352/345
vt 0.733676 0.574558
vt 0.732673 0.575778
f 356/353/356 349/339/349 341/354/341
vt 0.737179 0.577511
vt 0.736333 0.578766
f 361/355/361 356/353/356 342/356/342
vt 0.739534 0.580217
f 357/357/357 361/355/361 342/356/342
vt 0.739089 0.588130
vt 0.741060 0.582749
f 348/358/348 362/359/362 357/357/357
vt 0.435472 0.159436
f 352/344/352 359/351/359 351/360/351
vt 0.415510 0.160847
vt 0.403164 0.160869
f 353/346/353 354/361/354 366/362/366
vt 0.743825 0.592536
vt 0.743746 0.593973
f 355/348/355 367/363/367 360/364/360
vt 0.552500 0.143553
vt 0.552406 0.144687
f 358/349/358 368/365/368 365/366/365
vt 0.741854 0.586569
vt 0.742074 0.585179
f 363/367/363 370/368/370 362/359/362
vt 0.545767 0.143378
f 368/365/368 371/369/371 365/366/365
vt 0.742594 0.588995
f 364/370/364 367/363/367 370/368/370
vt 0.539776 0.143076
vt 0.545645 0.144514
f 371/369/371 373/371/373 369/372/369
vt 0.398771 0.161227
vt 0.399046 0.162361
f 376/373/376 366/362/366 372/374/372
vt 0.394023 0.161571
vt 0.394282 0.162702
f 378/375/378 376/373/376 375/376/375
vt 0.533944 0.143897
vt 0.522768 0.142374
f 377/377/377 373/371/373 381/378/381
vt 0.388970 0.161904
vt 0.389150 0.163040
f 382/379/382 378/375/378 374/380/374
vt 0.383645 0.162178
vt 0.383715 0.163320
f 386/381/386 382/379/382 379/382/379
vt 0.378080 0.162348
vt 0.378042 0.163484
f 394/383/394 386/381/386 383/384/383
vt 0.472358 0.142476
vt 0.465546 0.142621
vt 0.472475 0.143592
f 389/385/389 396/386/396 380/387/380
vt 0.479452 0.142345
vt 0.479532 0.143466
f 397/388/397 389/385/389 384/389/384
vt 0.516311 0.142217
vt 0.522516 0.143486
f 381/378/381 399/390/399 393/391/393
vt 0.372687 0.162458
f 400/392/400 394/383/394 383/384/383
vt 0.446526 0.143087
vt 0.465691 0.143730
f 396/386/396 403/393/403 388/394/388
vt 0.486892 0.142262
vt 0.486920 0.143377
f 404/395/404 397/388/397 390/396/390
vt 0.440443 0.143311
vt 0.434076 0.143519
vt 0.440546 0.144438
f 398/397/398 406/398/406 391/399/391
vt 0.446669 0.144213
f 403/393/403 398/397/398 385/400/385
vt 0.509360 0.142119
vt 0.502028 0.142133
vt 0.509219 0.143245
f 402/401/402 409/402/409 387/403/387
vt 0.516107 0.143335
f 399/390/399 402/401/402 392/404/392
vt 0.494483 0.142201
vt 0.494452 0.143310
f 410/405/410 404/395/404 395/406/395
vt 0.367882 0.162552
vt 0.367715 0.163686
f 411/407/411 400/392/400 407/408/407
vt 0.501943 0.143252
f 409/402/409 410/405/410 401/409/401
vt 0.427638 0.143743
vt 0.434162 0.144644
f 406/398/406 414/410/414 405/411/405
vt 0.364102 0.162583
vt 0.363891 0.163721
f 419/412/419 411/407/411 415/413/415
vt 0.409492 0.144596
vt 0.404142 0.144898
vt 0.409366 0.145720
f 418/414/418 420/415/420 408/416/408
vt 0.415266 0.144310
vt 0.415207 0.145441
f 421/417/421 418/414/418 412/418/412
vt 0.421341 0.144017
vt 0.421351 0.145145
f 414/410/414 422/419/422 413/420/413
vt 0.399337 0.145238
vt 0.403964 0.146014
f 420/415/420 425/421/425 417/422/417
f 422/419/422 421/417/421 413/420/413
vt 0.361489 0.163637
vt 0.361787 0.162506
f 416/423/416 427/424/427 419/412/419
vt 0.399135 0.146355
vt 0.394966 0.145600
f 424/425/424 425/421/425 430/426/430
vt 0.386781 0.147435
vt 0.382936 0.146645
f 426/427/426 430/426/430 434/428/434
vt 0.360053 0.163492
vt 0.360434 0.162370
f 428/429/428 435/430/435 427/424/427
vt 0.356863 0.163058
vt 0.357226 0.161933
vt 0.358632 0.162076
f 423/431/423 432/432/432 438/433/438
vt 0.354853 0.162908
vt 0.355178 0.161783
f 429/434/429 439/435/439 432/432/432
f 438/433/438 435/430/435 428/429/428
vt 0.378547 0.146961
vt 0.382748 0.147757
f 434/428/434 445/436/445 437/437/437
vt 0.368209 0.147592
vt 0.362740 0.147867
vt 0.368228 0.148717
f 443/438/443 447/439/447 436/440/436
vt 0.373558 0.147283
vt 0.373479 0.148402
f 448/441/448 443/438/443 431/442/431
vt 0.352020 0.162728
vt 0.352338 0.161610
f 440/443/440 449/444/449 439/435/439
vt 0.314843 0.687836
vt 0.315760 0.688838
vt 0.306380 0.697466
f 450/445/450 441/446/441 433/447/433
vt 0.315065 0.688075
vt 0.320729 0.684618
f 451/448/451 442/449/442 441/446/441
vt 0.378389 0.148072
f 445/436/445 448/441/448 444/450/444
vt 0.357328 0.148128
vt 0.362843 0.148990
f 447/439/447 457/451/457 446/452/446
vt 0.348636 0.161418
vt 0.348336 0.162530
f 458/453/458 449/444/449 454/454/454
vt 0.319835 0.683599
f 450/445/450 452/455/452 451/448/451
vt 0.352149 0.148393
vt 0.342250 0.148882
vt 0.347384 0.149774
f 461/456/461 460/457/460 453/458/453
vt 0.357497 0.149247
f 457/451/457 461/456/461 456/459/456
vt 0.343999 0.161210
vt 0.343773 0.162326
f 469/460/469 458/453/458 455/461/455
vt 0.323297 0.149854
vt 0.337757 0.150224
f 460/457/460 470/462/470 459/463/459
vt 0.328057 0.160245
vt 0.333417 0.160627
vt 0.328081 0.161350
f 471/464/471 476/465/476 466/466/466
vt 0.322936 0.159831
vt 0.323002 0.160940
f 472/467/472 471/464/471 462/468/462
vt 0.317979 0.159382
vt 0.318071 0.160497
f 473/469/473 472/467/472 467/470/467
vt 0.303164 0.157914
vt 0.308326 0.159510
f 474/471/474 473/469/473 463/472/463
vt 0.297942 0.157491
vt 0.303265 0.159023
f 477/473/477 474/471/474 464/474/464
vt 0.338801 0.160957
vt 0.338671 0.162075
f 475/475/475 469/460/469 468/476/468
vt 0.333372 0.161739
f 476/465/476 475/475/475 465/477/465
vt 0.313369 0.150499
vt 0.318776 0.151240
f 470/462/470 484/478/484 479/479/479
vt 0.292517 0.157174
vt 0.292346 0.158287
f 485/480/485 477/473/477 480/481/480
vt 0.286187 0.152782
vt 0.281077 0.153363
vt 0.281074 0.154458
f 487/482/487 492/483/492 481/484/481
vt 0.291591 0.152228
vt 0.291705 0.153312
f 488/485/488 487/482/487 482/486/482
vt 0.297136 0.151721
vt 0.297326 0.152810
f 489/487/489 488/485/488 478/488/478
vt 0.302666 0.151279
vt 0.302922 0.152357
f 493/489/493 489/487/489 483/490/483
vt 0.308103 0.150880
vt 0.313695 0.151574
f 484/478/484 495/491/495 490/492/490
vt 0.286941 0.156891
vt 0.286628 0.158015
f 496/493/496 485/480/485 486/494/486
vt 0.276696 0.153943
f 492/483/492 499/495/499 481/484/481
vt 0.276631 0.155054
vt 0.273479 0.154491
f 491/496/491 499/495/499 500/497/500
vt 0.308407 0.151947
f 495/491/495 493/489/493 494/498/494
vt 0.281267 0.156567
vt 0.281020 0.157710
f 501/499/501 496/493/496 497/500/497
vt 0.273299 0.155604
vt 0.271397 0.155026
f 498/501/498 500/497/500 502/502/502
vt 0.276281 0.156295
vt 0.276177 0.157455
f 505/503/505 501/499/501 503/504/503
vt 0.270281 0.156700
vt 0.270421 0.155566
f 504/505/504 502/502/502 507/506/507
vt 0.270797 0.155987
f 504/505/504 507/506/507 509/507/509
vt 0.272770 0.156166
vt 0.272754 0.157330
f 510/508/510 505/503/505 506/509/506
vt 0.270779 0.157142
f 508/510/508 509/507/509 510/508/510
vt 0.282018 0.601225
vt 0.287446 0.601927
vt 0.287685 0.601901
f 520/511/520 512/512/512 518/513/518
vt 0.293556 0.602430
vt 0.293690 0.602424
f 518/513/518 511/514/511 519/515/519
vt 0.299840 0.602577
vt 0.299844 0.602559
f 524/516/524 519/515/519 515/517/515
vt 0.276548 0.600575
vt 0.281718 0.601242
f 521/518/521 513/519/513 520/511/520
vt 0.271136 0.600127
vt 0.270833 0.600108
f 525/520/525 514/521/514 521/518/521
vt 0.259990 0.599273
vt 0.265406 0.599713
vt 0.265658 0.599740
f 527/522/527 517/523/517 523/524/523
f 523/524/523 514/521/514 525/520/525
vt 0.305942 0.602140
vt 0.306103 0.602120
f 528/525/528 524/516/524 516/526/516
vt 0.254119 0.598634
vt 0.259825 0.599244
f 529/527/529 522/528/522 527/522/527
vt 0.311422 0.601288
vt 0.311742 0.601286
f 530/529/530 528/525/528 526/530/526
vt 0.315706 0.600197
f 530/529/530 526/530/526 531/531/531
vt 0.248036 0.597733
vt 0.248129 0.597662
f 534/532/534 533/533/533 529/527/529
vt 0.317412 0.598907
vt 0.317948 0.598959
f 535/534/535 531/531/531 532/535/532
vt 0.242091 0.596556
f 534/532/534 537/536/537 533/533/533
vt 0.315641 0.597482
vt 0.315156 0.597457
f 538/537/538 542/538/542 535/534/535
vt 0.236636 0.595088
vt 0.242323 0.596455
f 537/536/537 548/539/548 541/540/541
vt 0.295716 0.590660
vt 0.301072 0.592539
vt 0.301265 0.592486
f 543/541/543 549/542/549 536/543/536
vt 0.290198 0.588697
vt 0.290259 0.588689
f 539/544/539 550/545/550 543/541/543
vt 0.306082 0.594270
f 536/543/536 549/542/549 545/546/545
vt 0.311149 0.595877
vt 0.310769 0.595895
f 544/547/544 552/548/552 542/538/542
vt 0.284819 0.586689
vt 0.274274 0.582668
f 540/549/540 551/550/551 550/545/550
f 545/546/545 552/548/552 544/547/544
vt 0.274132 0.582666
vt 0.268739 0.580631
f 546/551/546 553/552/553 551/550/551
vt 0.231994 0.593417
vt 0.232432 0.593321
f 555/553/555 547/554/547 548/539/548
vt 0.228490 0.591629
f 555/553/555 558/555/558 547/554/547
vt 0.262974 0.578496
vt 0.263000 0.578483
f 560/556/560 567/557/567 553/552/553
vt 0.246689 0.554760
vt 0.246960 0.554606
vt 0.249736 0.551589
f 556/558/556 563/559/563 568/560/568
vt 0.243548 0.557901
vt 0.243732 0.557786
f 554/561/554 564/562/564 563/559/563
vt 0.240076 0.561216
vt 0.240150 0.561141
f 557/563/557 569/564/569 564/562/564
vt 0.236311 0.564686
f 557/563/557 565/565/565 569/564/569
vt 0.225845 0.589709
vt 0.228994 0.591522
f 558/555/558 573/566/573 559/567/559
vt 0.232566 0.568238
vt 0.232411 0.568267
f 561/568/561 577/569/577 565/565/565
vt 0.251800 0.549020
vt 0.252111 0.548762
f 566/570/566 568/560/568 580/571/580
vt 0.257431 0.576277
vt 0.257358 0.576263
f 575/572/575 584/573/584 567/557/567
vt 0.228954 0.571681
vt 0.228649 0.571731
f 562/574/562 586/575/586 577/569/577
vt 0.225568 0.574975
f 578/576/578 586/575/586 562/574/562
vt 0.255769 0.543898
vt 0.253807 0.546449
vt 0.254135 0.546154
f 588/577/588 570/578/570 579/579/579
f 566/570/566 580/571/580 579/579/579
vt 0.223781 0.587641
vt 0.226395 0.589591
f 573/566/573 594/580/594 574/581/574
vt 0.224229 0.577808
vt 0.223712 0.577896
f 587/582/587 598/583/598 578/576/578
vt 0.248288 0.552715
vt 0.244926 0.556237
vt 0.248351 0.552823
f 590/584/590 602/585/602 582/586/582
vt 0.251475 0.549790
vt 0.251620 0.549627
f 590/584/590 571/587/571 603/588/603
vt 0.254558 0.546933
f 603/588/603 571/587/571 591/589/591
vt 0.256377 0.544873
vt 0.256736 0.544594
f 591/589/591 583/590/583 592/591/592
vt 0.257790 0.543072
vt 0.258151 0.542737
f 592/591/592 572/592/572 600/593/600
vt 0.252305 0.574001
vt 0.252112 0.574009
f 585/594/585 605/595/605 584/573/584
vt 0.256975 0.542127
vt 0.255425 0.544224
f 607/596/607 576/597/576 588/577/588
vt 0.258803 0.541489
vt 0.258433 0.541851
f 609/598/609 600/593/600 581/599/581
vt 0.258868 0.540788
f 609/598/609 581/599/581 601/600/601
vt 0.242041 0.559877
vt 0.245181 0.556272
f 602/585/602 610/601/610 589/602/589
vt 0.222508 0.585428
vt 0.223095 0.585327
f 611/603/611 593/604/593 594/580/594
vt 0.247284 0.571670
f 612/605/612 605/595/605 585/594/585
vt 0.258521 0.540572
vt 0.257506 0.541351
vt 0.257857 0.540974
f 613/606/613 596/607/596 606/608/606
vt 0.256627 0.542483
f 606/608/606 597/609/597 607/596/607
vt 0.223277 0.580462
vt 0.222721 0.580570
f 599/610/599 614/611/614 598/583/598
vt 0.258156 0.540953
f 601/600/601 595/612/595 613/606/613
vt 0.222237 0.583076
f 611/603/611 616/613/616 593/604/593
vt 0.240140 0.563317
vt 0.240634 0.563293
f 619/614/619 604/615/604 610/601/610
vt 0.243334 0.569177
vt 0.242897 0.569197
f 617/616/617 620/617/620 612/605/612
vt 0.222817 0.582970
f 608/618/608 616/613/616 614/611/614
vt 0.240632 0.566446
vt 0.240124 0.566456
f 615/619/615 618/620/618 620/617/620
f 619/614/619 618/620/618 604/615/604
# 336 faces, 620 coords texture

# End of File
