# .PCD v0.7 - Point Cloud Data file format
VERSION 0.7
FIELDS x y z
SIZE 4 4 4
TYPE F F F
COUNT 1 1 1
WIDTH 2048
HEIGHT 1
VIEWPOINT 0 0 0 1 0 0 0
POINTS 2048
DATA ascii
-0.6963152 -3.911333 11.54895
-0.8078017 -4.216219 11.10994
-0.705054 -4.19112 12.5024
-0.5135322 -3.802379 12.23325
-0.8118976 -4.038517 10.92126
-0.3060758 -4.782598 12.57105
-0.6660164 -4.226021 12.8659
-0.3128548 -4.857563 11.70089
-0.231741 -3.668667 11.28992
-0.3403147 -4.895135 11.38161
-0.1278513 -3.680353 11.30505
-0.1908785 -5.016661 11.5562
-0.2332578 -3.752758 12.99999
-0.0155577 -3.718824 11.67273
-0.2356373 -5.040752 11.28411
-0.5767533 -4.013815 13.58317
-0.3406843 -4.628792 14.85673
-0.2088928 -5.158774 10.83641
-0.7186685 -3.781127 9.911487
-0.2869169 -3.610885 9.774264
-0.0380565 -5.303174 12.44033
-0.8545539 -3.969499 9.847239
0.06790083 -3.790482 13.11667
-0.3551761 -4.58542 15.13589
-0.1894167 -5.132966 11.12377
-0.892391 -4.085808 9.787536
0.1333272 -3.815833 13.3427
-0.5264023 -4.35291 14.44378
-0.05318662 -5.525114 12.52074
-0.8081968 -3.856032 9.474738
0.3569412 -3.877664 12.11149
0.4256262 -3.91999 10.95991
-0.03552323 -5.416359 13.80844
-0.8137655 -4.685266 9.276232
-0.4765689 -4.004402 14.7427
0.1838113 -3.765393 9.305194
-0.3545009 -4.540109 15.70122
-0.05624805 -5.492492 11.42024
-0.8412846 -3.886715 9.184777
0.5429209 -3.967134 13.04214
0.3091853 -3.918385 14.8558
0.5984427 -4.001882 11.89593
0.03719447 -5.630736 12.91967
-0.8034713 -4.772408 8.814496
0.6093424 -4.005781 11.97506
0.4371896 -3.991503 8.82625
0.6166987 -4.018104 11.63615
-0.01783498 -5.707837 13.28983
-0.3556638 -5.424454 9.257445
0.1106199 -3.894527 15.58238
0.6371735 -4.018045 14.72212
-0.1024947 -3.614847 8.424477
-0.401472 -4.394324 16.29605
0.03799178 -5.889492 12.48202
-0.3222423 -5.506434 9.231556
-0.7287397 -3.707358 8.36016
0.7351895 -4.064172 11.90642
0.3966658 -3.991388 8.09822
0.7403728 -4.12775 10.72119
-0.1853906 -5.447073 14.85176
-0.1371362 -5.599266 10.02941
-0.9295226 -4.508432 8.499518
0.3278577 -3.979415 16.36438
0.830618 -4.06241 13.82391
-0.03500897 -3.637743 7.835158
-0.2277594 -4.818747 16.16795
-0.05121642 -6.015378 11.48029
-0.6923602 -5.136235 8.042545
-0.9645388 -4.402572 8.254959
-0.278693 -4.019975 16.76688
0.8221403 -4.069149 16.01055
0.7175677 -4.33381 7.239038
0.9155349 -4.192377 10.92261
-0.244095 -5.829843 13.85558
-0.1754426 -5.903705 8.978561
-0.8572401 -4.853639 7.748121
-0.5573896 -3.573879 7.53395
0.1250097 -3.981085 16.87149
1.087726 -4.180125 11.68166
-0.05555218 -3.624079 7.518416
-0.2229863 -5.159124 15.87293
0.3448285 -6.043193 12.38384
-0.9110438 -4.905656 6.961765
-0.9238506 -4.68473 7.709983
0.2291567 -4.043723 17.65005
1.099536 -4.10095 15.6881
0.2912786 -3.909753 7.552921
1.101668 -4.404374 8.067613
-0.2892852 -4.946992 16.41902
0.1662191 -6.331113 10.91061
-0.8941477 -4.916122 7.087016
-0.9154617 -3.860472 7.318026
0.4079537 -4.07313 18.05301
1.121186 -4.152067 12.21836
0.552547 -4.264862 6.47895
1.236446 -4.305108 9.901286
-0.3899855 -6.103091 13.52775
-0.295488 -5.809042 8.107192
-0.7742991 -5.370045 6.214134
-0.4503984 -3.525438 6.835967
-0.3868743 -4.164156 17.2678
1.254899 -4.115763 14.31316
1.143438 -4.098826 16.6213
0.4348354 -4.142333 6.548607
-0.1523553 -3.579478 7.165039
-0.4528377 -4.291914 17.48238
0.2360105 -6.40445 10.97368
-1.031608 -4.636163 6.518944
-1.023361 -4.226557 7.10238
0.901649 -4.097831 18.60778
1.280055 -4.114686 14.53522
1.362328 -4.203982 11.31554
0.6377835 -4.388509 5.867752
1.454593 -4.310591 8.504786
-0.6939743 -5.929435 14.01668
0.2261392 -6.182258 8.967442
-1.046839 -4.593126 6.450362
-1.043283 -4.372137 6.773987
1.334005 -4.101471 18.62742
1.81778 -4.103491 18.36373
0.39586 -4.130092 18.93382
1.385373 -4.117299 14.04261
1.479638 -4.097504 17.65175
0.3755189 -4.098071 6.200696
1.11304 -4.496587 6.149855
1.519148 -4.240808 9.720218
0.1903466 -5.905735 12.91467
0.01362148 -6.003461 7.804183
-1.102117 -4.80898 5.073475
-1.028916 -4.114966 6.84506
1.894899 -4.105885 18.7821
1.905216 -4.100615 17.90334
1.489175 -4.120966 12.90938
1.537368 -4.102398 16.06229
0.3249414 -4.137755 4.930582
1.508298 -4.274642 8.876089
-0.4005708 -4.997714 16.66902
0.3828249 -6.277188 11.61778
-0.1707939 -5.919473 7.484372
-1.079633 -4.325111 6.304564
-0.8366674 -3.668338 6.191208
2.171423 -4.10704 18.83756
-0.09856216 -4.196518 18.99054
1.562247 -4.104515 14.74233
1.760105 -4.093744 16.7311
2.184378 -4.081697 16.21195
0.7171494 -4.485611 5.082631
1.617979 -4.187335 9.94995
0.3002886 -6.332131 12.42579
0.6335942 -6.335588 10.43478
-1.156348 -4.714391 4.646637
-0.3014599 -5.81955 6.471311
3.323919 -4.110965 18.30992
1.372159 -4.169005 19.28871
1.053842 -4.247556 19.37814
2.052643 -4.065936 14.28569
1.782239 -4.087036 13.6911
2.066878 -4.072374 15.22482
2.119344 -4.071981 15.36964
0.522361 -4.44018 4.004528
1.720612 -4.135012 8.880157
-0.2937867 -4.949468 15.92524
-0.02371925 -6.141297 13.23656
0.384097 -6.062355 8.613038
-1.059307 -5.083957 4.33409
-0.732259 -5.551961 4.704937
2.475862 -4.10778 19.00921
3.001211 -4.112498 17.7547
3.261725 -4.10428 18.83506
1.536284 -4.200769 19.41008
1.9793 -4.066707 13.47072
2.47159 -4.07845 15.74661
0.1942457 -3.916502 5.155517
1.0469 -4.566142 4.718907
1.782053 -4.088172 8.702949
1.867512 -4.039972 9.936349
-0.01183936 -6.305799 12.54701
0.6699269 -6.19753 10.01924
-0.778937 -5.511939 4.276548
-1.193022 -4.317182 4.582616
-1.071943 -4.057588 5.89738
1.931453 -4.140331 19.29647
3.68458 -4.120537 17.7608
4.004997 -4.107945 18.52176
3.22923 -4.122736 16.54494
1.847199 -4.074301 12.45322
2.351166 -4.048472 13.62652
-0.06003144 -3.625769 5.214025
0.9996288 -4.590126 4.343236
1.898325 -3.997089 8.859565
1.901407 -4.020093 9.955192
0.2090397 -6.516922 12.44378
0.8218161 -6.346856 11.24119
0.01856454 -5.841161 6.658266
-1.233691 -4.344435 3.876842
-0.5475619 -3.475934 5.131344
3.601392 -4.130557 17.02711
4.468836 -4.115795 17.91061
5.065542 -4.118823 17.93698
4.772157 -4.109629 18.87012
2.94202 -4.104975 16.04791
1.498982 -4.33749 19.57865
2.287897 -4.032705 12.83852
2.807125 -4.086169 15.18217
0.424368 -4.428059 3.006442
1.783764 -4.050436 5.34315
1.963739 -3.970495 9.454397
0.1364057 -6.431037 12.6323
0.8221329 -6.42941 11.55159
-0.8876989 -5.403969 3.657771
-1.247017 -4.243877 3.509305
-0.6209402 -3.481476 4.946147
3.685939 -4.151768 16.13969
4.691679 -4.125401 17.34709
5.034012 -4.117543 18.35289
5.447578 -4.109869 18.85689
3.132189 -4.116533 16.02326
-0.9443626 -4.499816 19.06181
2.849667 -4.079412 14.42856
0.2957185 -4.281499 2.687258
1.415501 -4.472931 4.236979
1.982988 -3.877145 7.281865
-0.6026143 -4.635934 15.85863
-0.5862824 -6.478536 13.58819
0.863923 -6.114931 11.17536
-0.0372396 -5.725062 5.889635
-1.293564 -4.258735 2.111462
-1.130875 -4.043254 4.76946
-0.7837157 -3.540621 4.74457
3.846255 -4.169019 15.63378
4.830492 -4.123128 17.09941
2.930578 -4.168033 19.49861
3.480335 -4.144011 15.48145
-0.3614771 -4.767649 19.19557
2.271601 -3.872128 10.1633
3.158561 -4.113093 14.94526
0.1618353 -3.992416 3.334737
0.9646714 -4.650465 3.336248
1.551224 -4.366903 3.95391
2.123903 -3.730501 6.544376
-0.9254948 -4.299196 18.23804
-0.4274552 -6.501521 12.80314
0.7787738 -5.881683 10.54782
-0.1416158 -5.708527 5.494501
-1.313946 -4.137135 1.060768
-1.123785 -3.908429 4.032594
-0.7838625 -3.525809 4.425097
4.395806 -4.143798 16.38674
6.02895 -4.128168 18.29534
4.537587 -4.106144 19.19741
-0.09487514 -5.027591 19.01436
2.66375 -4.009067 12.19988
0.003032898 -3.717125 3.488994
0.6688023 -4.681033 1.863432
1.160074 -4.64662 2.861505
1.841503 -3.948321 4.182952
2.099118 -3.709451 5.681439
2.336758 -3.781486 9.037762
-0.4407177 -5.420423 14.45452
-0.4423508 -6.26766 13.8152
0.6611837 -5.740393 9.557802
-1.170874 -4.921979 2.401735
-1.287223 -4.026408 1.780128
-0.1647424 -5.51757 4.358671
3.797528 -4.179013 14.71803
5.354364 -4.124682 17.1541
6.671134 -4.115095 18.72215
4.196379 -4.103724 19.24605
0.02487491 -5.027873 19.05408
2.498869 -3.753738 8.977759
3.400618 -4.129417 14.13969
-0.03901046 -3.663894 3.612753
0.2925784 -4.389995 1.473849
1.110696 -4.693408 2.146087
1.897911 -3.850098 3.765932
2.278435 -3.720265 7.732079
2.298445 -3.594628 5.79814
-0.88153 -4.393252 15.90077
-0.7358609 -6.505959 13.75973
0.6587192 -5.653221 9.793832
0.03931899 -5.552558 5.499364
-1.296007 -4.375226 1.226239
-1.160811 -3.826638 2.698982
-0.7833641 -3.498424 3.899105
4.613665 -4.131409 15.74041
7.032475 -4.134492 18.25629
3.640542 -4.158792 14.14089
0.4097157 -5.143341 18.78349
2.631317 -3.83406 10.01693
3.585659 -4.145846 13.26214
0.05881458 -3.82121 2.796433
0.6893939 -4.723245 1.32496
1.578029 -4.384069 2.185191
2.002034 -3.681708 3.130958
2.154608 -3.66483 5.664214
-0.4007846 -5.355004 14.48201
-0.5768647 -6.335406 13.94533
0.8730546 -5.936481 11.81344
0.2747941 -5.206183 6.389108
-1.176422 -4.880998 1.631984
-1.277932 -3.701344 -0.084759
-0.3411429 -5.524931 3.551442
2.140757 -4.816001 19.64564
4.85346 -4.105719 16.59076
2.847247 -4.249692 19.732
3.77803 -4.179762 14.44047
2.154619 -4.952014 19.48317
2.760144 -3.734873 8.47353
3.614993 -4.150352 13.55011
0.1480712 -4.166043 0.8529381
0.478636 -4.690827 0.289343
1.798013 -3.98946 2.534564
1.951952 -3.654589 1.147918
2.152634 -3.549114 3.368563
2.404866 -3.553684 5.548328
-1.250729 -4.387585 17.92981
-0.2220764 -6.754348 12.10697
-0.1351619 -5.721298 14.07697
0.6690514 -5.550065 10.66374
0.1590661 -5.358854 5.723995
-1.292831 -4.375758 0.5137973
-1.264378 -3.744186 0.4692482
-0.6556444 -5.428643 2.24049
4.302407 -4.222353 14.36561
5.107956 -4.075361 16.44187
1.404548 -5.099297 19.11329
2.794179 -3.942565 11.03372
2.819805 -3.955497 11.13901
-0.1315957 -3.579466 2.853328
0.34907 -4.693247 -0.8456659
1.58052 -4.388946 1.705421
1.841471 -3.870131 1.591777
2.058758 -3.47835 0.4052537
2.675287 -3.498068 4.962774
2.518812 -3.514568 5.23333
-1.353234 -4.427414 18.21408
-0.8999664 -6.540875 13.29295
0.3579068 -5.970927 13.85131
0.5984828 -5.424844 10.13564
0.1262487 -5.324306 5.443269
-1.257658 -4.467563 -0.2729537
-1.307212 -3.643569 -1.222656
-0.1309267 -5.363627 3.534725
-0.6299145 -3.430594 3.549948
4.986322 -4.059651 15.64528
6.98167 -4.123483 18.02501
2.184208 -5.124161 18.84307
2.893104 -3.883186 10.05442
3.128866 -4.035591 11.39547
3.89613 -4.182675 12.44518
0.16723 -4.405151 -0.6387357
1.138252 -4.752146 0.8557417
1.837671 -3.822814 -0.624659
2.2184 -3.399001 1.36934
2.726095 -3.50425 4.935493
-1.345873 -4.188048 17.3852
-0.3832275 -6.75707 12.02748
-0.7299182 -6.342507 14.18273
0.6058565 -5.296411 10.98876
0.2896622 -5.037596 6.250991
-1.301033 -4.203254 -1.364754
-1.317653 -3.584718 -1.816554
-0.8835079 -3.490408 2.574763
-0.3730386 -3.446487 3.39084
5.015861 -4.06332 15.42621
6.743486 -4.125246 17.53262
2.391411 -5.107848 18.96795
2.992459 -3.949763 10.55836
3.016219 -3.747664 7.370053
3.566742 -4.137003 11.09847
-0.01127491 -3.77301 0.3219776
0.5970869 -4.812308 -0.4908959
1.779612 -3.977134 0.2021251
2.036118 -3.481695 -0.6486613
2.384002 -3.366486 2.145535
-1.280782 -4.041757 16.69302
-0.638648 -6.528788 11.93799
-0.8352514 -6.240246 14.52653
0.6393582 -5.346709 11.46062
0.3685005 -5.030118 7.237623
-1.324148 -4.040807 -1.867496
-1.248809 -3.472679 -1.26844
0.02904719 -5.161575 3.523651
4.916917 -4.167506 13.65349
5.127563 -4.083545 14.78879
7.120083 -4.119096 17.88969
2.538802 -5.133173 18.67107
-1.118159 -4.984588 18.43049
3.082689 -3.776734 7.316239
4.266652 -4.219828 12.3254
-0.01114514 -3.759763 0.6811608
0.2280267 -4.677955 -1.822955
0.8987997 -4.819631 0.08422012
1.46713 -4.542655 0.7263082
2.057139 -3.43091 -1.612816
2.536703 -3.252725 0.5684432
2.604429 -3.354684 2.515973
-1.387712 -4.106971 17.16928
-0.6050454 -6.76869 11.87738
-0.9438468 -6.371982 14.47112
0.8213333 -5.750915 13.00228
0.3784441 -4.854051 6.521537
-1.176272 -4.440718 -1.74628
-1.064693 -3.429876 -0.03774755
-0.08486234 -5.274685 3.070398
4.823253 -4.20354 13.32981
5.310882 -4.113319 14.52948
8.789639 -4.09734 19.30586
0.8302205 -5.128149 18.47936
3.359497 -4.037835 9.830889
3.256042 -3.914497 8.088737
4.266625 -4.22045 12.29046
0.01390126 -3.867113 -0.2176452
0.661223 -4.897128 -1.535087
1.342074 -4.65898 0.4911091
1.694074 -4.221986 -1.214217
2.477542 -3.231896 -0.2115648
2.728315 -3.244184 0.2827402
3.041088 -3.563905 4.073742
-0.6620874 -6.397496 12.02855
-1.195258 -6.503644 13.64841
0.880475 -6.064781 13.09287
0.5635204 -5.038661 10.25869
-1.32658 -4.05194 -2.316345
-0.7712479 -3.349798 0.9223099
-0.4556089 -5.365829 1.521406
5.159345 -4.149113 13.56806
6.174296 -4.204617 16.36898
8.041459 -4.117096 17.95957
1.644346 -5.109798 18.25264
0.6004165 -5.191064 17.88343
3.452922 -4.061734 9.006902
3.353301 -3.962681 7.810645
4.276936 -4.247804 11.45422
-0.4445691 -3.405575 2.612772
0.09005816 -4.45627 -2.011152
1.287691 -4.73187 -0.6118847
1.518876 -4.5119 -0.5706973
3.177382 -3.662699 4.347732
3.031259 -3.520147 3.400718
-1.566888 -3.880038 16.46512
-0.6409636 -6.080986 12.26305
-1.36215 -6.304198 14.51714
0.7845105 -5.68714 13.43947
0.4646952 -4.79391 7.306065
-1.068481 -4.764286 -0.6918733
-0.6990189 -3.331533 0.8813688
-0.3944642 -5.357952 1.533594
5.230299 -4.145385 13.56378
5.462938 -4.172647 13.68383
7.375892 -4.138695 17.16287
8.84832 -4.13038 18.49283
2.722789 -5.127774 18.26631
0.5071323 -5.285308 17.73617
3.266264 -3.758031 4.976526
3.495634 -4.062837 8.347318
4.51317 -4.231566 12.58658
0.004155082 -3.996208 -1.284807
1.269829 -4.757267 -1.055362
1.787794 -3.870859 -2.50228
3.238014 -3.675167 3.867116
3.02025 -3.396654 1.38428
-1.713923 -3.990346 16.73178
-1.270017 -6.536579 12.27886
-0.7401633 -5.793213 15.14165
0.7158125 -5.451713 13.25945
0.4827297 -4.813516 7.839429
-1.192091 -4.318 -2.703815
-0.7611892 -3.299574 0.06331347
0.04512376 -5.12104 2.395345
4.857206 -4.22574 12.64937
5.805813 -4.232417 14.71547
7.307261 -4.143451 16.79724
8.414121 -4.128753 17.98303
9.719987 -4.154047 19.06577
2.219476 -5.149108 17.90537
0.8304957 -5.082874 17.94073
3.791128 -4.209 9.918806
3.564699 -4.056583 6.688047
4.627702 -4.234205 12.27098
-0.3424641 -3.371054 0.3818918
1.201828 -4.820732 -1.683915
1.75154 -3.983524 -2.119227
3.271685 -3.650999 3.013088
3.066955 -3.361386 0.2965415
-0.4892054 -4.658885 14.91746
-1.4782 -6.345243 13.0392
0.06308337 -5.77436 14.73325
0.6697048 -4.991072 12.11141
0.5070121 -4.687354 5.165073
-0.8275217 -4.953127 -0.8844728
-0.5420064 -3.286978 0.05654361
-0.4698302 -5.294517 0.6897463
4.923962 -4.228584 12.54732
5.870603 -4.245507 14.21638
7.325307 -4.149618 16.55721
8.686364 -4.143681 17.55211
9.571653 -4.140591 18.47216
10.1114 -4.160457 19.04461
3.159283 -5.140439 17.6596
1.413377 -5.054745 17.7446
0.5836237 -5.230644 17.52907
3.68046 -4.174208 8.52778
3.798681 -4.22432 6.994763
4.903388 -4.254559 11.80198
0.02500204 -4.264858 -2.394209
3.32448 -3.743332 3.923221
2.86189 -3.184175 -2.039325
-1.861669 -4.094925 16.69715
-0.494899 -5.960115 11.76301
-1.514654 -6.121083 14.47432
0.6916295 -5.400132 14.05905
0.7881854 -4.605533 8.992922
0.6554766 -4.610614 5.837074
-1.303541 -3.389539 -2.390331
0.1479864 -5.069248 1.829535
0.6695533 -4.723731 3.343726
5.658416 -4.224337 13.01803
7.037406 -4.150751 15.69697
8.612887 -4.145322 17.37935
10.5629 -4.139311 18.48222
10.85668 -4.147752 18.70384
3.218473 -5.167342 17.05838
1.695255 -5.085899 17.44807
0.6808483 -5.125545 17.50697
3.876758 -4.259696 8.978948
3.491493 -3.951153 5.296558
4.102445 -4.29572 9.814026
4.868106 -4.299799 10.79669
-0.1513381 -3.557933 -1.75583
1.539959 -4.514149 -2.11526
3.435345 -3.854473 4.303163
3.3153 -3.414253 -1.701723
3.345551 -3.637314 1.795288
-0.7482303 -4.404788 14.83699
-1.318015 -6.465387 12.13856
-0.5083214 -5.659202 15.25059
0.6776398 -5.040394 13.43817
0.6972433 -4.628463 8.386073
-0.8264269 -4.610611 -3.037501
-0.5320146 -3.261022 -0.7838236
-0.2430078 -5.281419 0.8053862
5.963407 -4.239907 12.37461
5.740634 -4.230768 13.02268
6.552384 -4.129439 15.88973
7.704966 -4.158214 16.18453
9.44729 -4.14379 18.04633
10.56029 -4.126872 17.85213
1.062564 -4.929013 17.04181
2.923136 -5.204102 16.77834
2.212994 -5.194305 16.05548
-1.207168 -5.56756 17.43744
3.698605 -4.084996 4.495703
3.884359 -4.271086 7.026445
4.772622 -4.364616 9.797444
5.19868 -4.253252 11.75113
-0.2042781 -3.456864 -1.303728
1.390438 -4.714128 -2.580613
3.488569 -3.778529 2.066241
3.382594 -3.591187 0.4728239
3.439947 -3.659767 0.765463
-1.052884 -4.120261 15.46691
-1.251468 -6.476194 11.78751
-1.480448 -5.866251 14.55556
0.6814926 -5.379497 14.49652
0.8001019 -4.591387 8.816468
0.850467 -4.582474 5.588492
-0.4983162 -3.257463 -1.091937
-0.1554125 -5.24805 0.552559
0.6379913 -4.839994 1.869712
6.317267 -4.255039 11.81163
6.500987 -4.259109 11.67161
6.408454 -4.193169 14.47331
7.12073 -4.166479 15.10164
8.246276 -4.118555 16.22715
10.04326 -4.308431 19.6076
10.34908 -4.111839 17.2984
1.198965 -4.876118 16.32965
3.534475 -5.157128 17.264
1.484163 -4.994721 16.73386
0.929442 -4.886889 16.44191
4.028751 -4.333484 8.225738
4.07808 -4.363202 5.978549
5.076836 -4.302567 10.69653
5.805589 -4.281277 10.75503
1.297086 -4.768266 -2.455918
3.772813 -4.002521 1.169356
3.725189 -4.032368 2.769911
3.52984 -3.591381 -1.736343
3.683886 -3.908836 0.9784955
-1.480883 -3.754297 15.77507
-0.7412114 -4.302101 13.86409
-1.121217 -6.438585 11.27077
-1.398206 -6.146816 15.04347
0.6696443 -5.103554 14.18141
0.8811096 -4.560071 8.5744
0.9218228 -4.588841 5.408892
-0.6651736 -4.800879 -2.396727
0.3536257 -5.027513 0.9670254
0.8213618 -4.690516 3.530679
6.605845 -4.272358 11.17537
6.536891 -4.185989 14.05244
6.878704 -4.160064 14.78326
8.393269 -4.137067 16.82349
9.777185 -4.507591 19.71107
10.75667 -4.115166 17.17629
11.95654 -4.201796 19.02422
4.326498 -5.154007 17.56125
3.221738 -5.196865 16.22723
1.799994 -5.062922 15.85791
0.7634819 -4.949004 16.16431
4.312689 -4.411728 8.295339
4.204335 -4.420612 6.225295
4.878016 -4.424906 8.772073
5.921467 -4.295879 10.00047
3.877587 -4.153005 2.651669
3.749102 -3.87053 -0.646753
-1.691464 -4.423254 16.76702
-0.9752395 -4.028389 14.06643
-1.052836 -6.50701 11.31525
-1.432005 -6.005645 15.34586
0.6784887 -5.06273 14.32395
1.085756 -4.554221 9.333879
1.023545 -4.629768 4.533245
-0.4871686 -4.971728 -1.788188
0.08277488 -5.165455 0.6798286
0.9687389 -4.70304 3.116474
7.04337 -4.234033 12.89281
6.70242 -4.277969 11.0576
6.559959 -4.186398 14.02579
7.099795 -4.199911 13.85191
8.411304 -4.125039 16.24248
9.873555 -4.12261 17.33651
10.15711 -4.093551 16.90329
11.73994 -4.135212 18.51341
1.102765 -4.810133 15.72215
4.774597 -5.168314 16.88811
2.869353 -5.258329 16.0622
1.917366 -5.099357 15.62586
-0.227672 -5.44395 17.12086
3.959661 -4.218281 2.726038
4.153559 -4.38539 4.148145
4.559502 -4.455576 8.037038
5.060718 -4.428462 8.439137
5.676771 -4.287724 10.57062
3.935094 -4.065001 -0.3500825
3.858196 -3.965113 -0.8159655
-1.359666 -3.761065 15.53061
-0.4224663 -5.438145 11.77368
-0.4265604 -5.052752 12.2874
0.02575485 -5.951259 15.43529
1.084737 -4.619514 10.80721
1.055215 -4.536252 6.733651
-0.4600317 -4.898891 -2.30049
0.195144 -5.132895 0.1725233
1.11892 -4.731169 2.385325
7.663544 -4.252935 12.69688
6.69681 -4.229254 12.85437
6.94274 -4.274215 11.43954
6.744953 -4.205317 13.38886
7.951139 -4.172461 14.81435
9.101524 -4.18772 16.83537
10.0472 -4.749819 19.65452
10.50554 -4.073578 15.90118
11.44115 -4.090532 17.6347
1.15947 -4.799663 15.43659
4.666185 -5.1881 16.2888
3.826158 -5.190994 16.23487
2.8077 -5.300317 15.45741
1.783878 -5.03631 15.28795
0.3418569 -5.576969 16.89339
4.154844 -4.357327 3.03756
4.257562 -4.443082 5.233467
4.94936 -4.462685 7.966438
5.940338 -4.315218 9.165547
4.134988 -4.272344 0.5478248
3.437915 -3.451876 -2.308593
-1.140693 -3.83352 14.34734
-0.4519603 -5.926167 10.89296
-0.4986127 -4.814003 12.30548
0.5864919 -5.871691 15.24494
1.155197 -4.60038 10.40183
1.113038 -4.52679 7.734697
-0.3991944 -4.883143 -2.701139
0.5904312 -4.987206 0.279371
1.239825 -4.708354 2.559653
6.141568 -4.317866 8.524814
7.171 -4.289025 11.32972
7.558198 -4.217115 13.73098
8.620358 -4.191869 15.7858
10.22648 -4.892346 19.5713
10.75294 -4.568231 19.58487
10.2819 -4.053943 15.79191
11.72834 -4.059565 17.67998
1.271282 -4.791936 14.77002
5.589846 -5.16535 16.75269
4.981551 -5.179796 16.31522
3.974261 -5.200802 16.1555
2.402706 -5.255348 14.13
0.6921905 -5.053075 15.70861
4.619421 -4.498822 6.923107
4.390612 -4.495497 4.426723
5.287298 -4.408543 8.387929
4.843289 -4.530884 6.229403
4.215467 -4.336588 0.9975596
-2.016986 -3.895013 15.82682
-0.9664342 -4.023532 13.42053
-1.184311 -6.205484 10.92429
-1.184175 -5.416875 14.18965
0.6579323 -5.364905 15.45389
1.240675 -4.589776 9.934262
1.251374 -4.577282 5.768238
1.089268 -4.848018 0.006854559
1.160749 -4.85687 -0.7025969
0.4098253 -5.07236 -1.178103
4.496499 -5.21346 17.90703
6.144501 -4.323795 8.168115
7.40674 -4.303111 11.23145
7.719725 -4.269041 12.23657
8.482121 -4.207512 14.9122
10.35524 -4.642478 19.64935
9.753881 -5.034375 19.50277
10.16932 -4.027052 14.98459
10.7232 -4.046069 14.06316
12.01101 -4.070552 17.97345
5.750293 -5.160454 17.22887
5.634952 -5.179839 15.84384
4.880443 -5.212318 15.37063
3.551517 -5.203635 15.3816
2.822323 -5.351994 14.04582
2.214683 -5.177608 13.86758
1.418742 -4.817266 14.15205
4.506094 -4.499427 6.279143
4.226314 -4.401577 3.075347
5.104848 -4.481846 7.114971
4.782714 -4.544808 5.7376
3.64466 -3.625981 -2.739438
-2.104088 -4.390432 16.27607
-0.8886827 -4.136344 13.12414
-1.447739 -5.752045 11.91518
-1.233714 -5.469321 14.02656
-1.150101 -6.031558 16.02071
1.250746 -4.598714 10.11832
1.303753 -4.554901 7.60511
1.648074 -4.646909 3.879817
1.371191 -4.787078 -0.5854208
0.8366288 -4.970476 -1.24425
1.451181 -4.708047 1.012764
8.298761 -4.235727 13.79957
6.515053 -4.363091 6.596997
7.003808 -4.346993 9.131714
7.327794 -4.336241 10.30555
9.352686 -4.209467 15.84984
12.16968 -4.72049 19.32039
9.995953 -4.033193 14.85064
10.47233 -4.009164 13.75215
10.95461 -4.066695 14.28048
1.179722 -4.753845 14.4134
6.334869 -5.164848 16.17475
5.471293 -5.193671 15.37961
4.4772 -5.246868 14.9424
2.029772 -5.112989 14.34352
1.639611 -4.887898 13.42546
-0.1906098 -5.593587 16.54008
4.593095 -4.55074 3.331338
5.158914 -4.468776 7.328827
4.924318 -4.54454 5.840469
4.451178 -4.425566 -0.6199424
-1.999845 -4.43609 16.31096
-0.5719652 -4.717752 12.01789
-1.311067 -5.525395 12.87728
-1.327365 -5.602444 15.57838
1.377586 -4.671526 11.103
1.450401 -4.587985 7.570827
1.750551 -4.654288 4.297843
1.49038 -4.758162 -0.7326358
0.578787 -5.014628 -2.171473
8.504821 -4.251963 13.21616
6.337809 -4.354229 6.799505
6.643027 -4.358399 7.134811
7.022699 -4.343532 9.340845
8.160011 -4.273395 12.28773
9.632112 -4.120214 15.44181
10.46607 -5.059469 19.22029
11.27574 -4.053984 14.83836
10.10803 -3.996878 13.789
11.72405 -3.988899 16.78171
5.772502 -5.183714 17.4038
6.39927 -5.17243 15.43454
5.757071 -5.193317 14.93011
4.974639 -5.221604 14.96649
3.981013 -5.238356 14.90503
2.699174 -5.32341 13.42112
2.049847 -5.069769 12.68633
1.398208 -4.761824 12.98138
4.64157 -4.557872 2.617339
5.342905 -4.526608 5.272566
5.821853 -4.404132 6.452276
4.103713 -4.053953 -2.249765
4.59622 -4.467831 -1.315367
-1.51225 -3.572801 14.86511
-0.5703127 -4.791936 11.62075
-1.105041 -5.289501 13.06421
-0.9213352 -5.127354 14.70859
0.4913669 -5.851329 15.57661
1.638484 -4.65582 7.738067
1.785591 -4.649811 1.937566
1.516034 -4.712336 0.3279231
0.8470359 -4.979261 -1.707211
8.483261 -4.254549 12.8774
6.519025 -4.386056 5.865226
6.770588 -4.397493 6.256773
7.121395 -4.376577 8.610287
7.551527 -4.357091 10.17718
8.514374 -4.252797 13.66155
9.509419 -4.141921 14.78926
12.15059 -4.960999 19.13988
11.58127 -3.973676 14.95036
10.00894 -3.980638 13.01232
12.06188 -4.006456 17.457
6.361725 -5.17486 17.28791
6.647487 -5.173775 15.49258
6.699324 -5.162906 16.35849
4.431304 -5.264964 14.47687
3.378862 -5.274262 14.41167
2.351573 -5.206487 12.37904
0.6022606 -5.549394 15.97228
4.786316 -4.585316 3.851209
5.399004 -4.419688 7.75412
5.383926 -4.503175 5.715005
4.722625 -4.558471 -0.2129931
-1.108631 -5.340738 16.38751
-1.552643 -3.402305 13.84528
-0.6397536 -4.703288 11.4305
-1.172619 -5.330421 12.54763
-0.7569376 -4.392255 11.87548
-1.379963 -5.771237 16.19096
1.607064 -4.68567 9.34046
1.837279 -4.652336 2.260021
1.988458 -4.691476 3.283945
1.124816 -4.926426 -2.160376
8.589939 -4.25861 12.18548
6.295082 -4.431928 4.533916
6.156796 -4.431768 4.71853
7.388775 -4.39596 9.10834
7.838446 -4.382117 10.09241
9.044198 -4.242347 14.81281
9.941825 -3.997307 13.32798
11.78268 -5.015311 19.12536
11.5326 -3.974211 13.70071
11.67717 -3.971298 16.15061
12.17433 -3.938516 16.80234
7.933647 -5.145587 17.31921
6.539895 -5.191235 14.17182
7.136638 -5.155649 16.79506
5.36096 -5.233847 13.89011
5.078963 -5.2624 13.26716
4.149805 -5.273872 14.19903
2.739402 -5.327812 12.90308
1.680381 -4.795006 10.984
4.663135 -4.535661 1.34126
5.725531 -4.490656 4.569461
4.41232 -4.285401 -2.271704
-1.059927 -4.452635 16.23118
-1.68603 -3.482248 14.6054
-0.5783707 -4.846815 11.35008
-0.9560264 -5.102612 12.97615
-0.9507204 -5.169616 15.214
1.731759 -4.725994 8.775391
1.757303 -4.662396 0.8036239
2.104158 -4.694215 1.811974
0.2791829 -5.008497 -2.739442
5.904321 -4.42723 5.516984
6.055238 -4.462178 4.172285
7.674882 -4.453651 8.728683
8.047934 -4.358706 10.66866
9.471717 -4.141734 14.30168
10.69622 -5.10911 18.75017
11.48412 -3.986045 13.18796
10.10818 -3.950219 12.60565
12.04925 -3.84433 15.6146
7.844314 -5.151351 16.88195
6.383048 -5.175377 14.68155
5.97432 -5.170019 14.2945
5.259284 -5.253144 13.19038
3.333783 -5.35977 13.09017
2.171562 -5.10265 11.27315
5.053144 -4.618045 2.601374
5.607678 -4.525777 4.183328
4.436254 -4.295115 -2.462161
4.953005 -4.597793 1.176606
-2.455663 -4.439082 15.08577
-1.125198 -3.736036 12.31324
-0.5509364 -5.204765 10.44981
-1.250066 -5.380266 12.01975
-0.9194956 -5.077561 15.99852
1.832895 -4.702416 6.128738
2.1323 -4.731621 2.962944
1.772217 -4.672554 0.2368092
8.515006 -4.31464 11.26334
6.589099 -4.464302 4.019452
5.752229 -4.535659 3.453073
7.371644 -4.498053 6.649362
7.258356 -4.52274 5.387276
7.56011 -4.466772 8.192624
7.86353 -4.477225 8.689635
9.33258 -4.161639 13.76428
9.733026 -4.015491 12.72114
9.600967 -5.126203 18.17881
10.84112 -5.101863 18.33936
9.004598 -5.170781 18.64634
12.07276 -3.809544 14.53038
12.20158 -3.85886 15.70356
7.871227 -5.151121 16.49347
6.382349 -5.177915 14.21803
7.114308 -5.178269 14.99063
4.904267 -5.301107 12.44196
5.488481 -5.24057 13.0549
3.447524 -5.354699 13.17195
2.206105 -5.122046 11.26512
5.203347 -4.627626 1.957781
4.740955 -4.475331 -2.242744
-1.02816 -5.227662 16.2111
-1.200359 -4.394852 16.2249
-0.7263835 -4.613936 11.04
-0.8710658 -5.814102 10.39083
-1.394918 -5.468908 10.78595
-0.7797439 -4.725436 14.58737
1.86165 -4.753541 7.412457
2.323886 -4.812489 2.283561
1.912871 -4.737008 -1.557062
8.681917 -4.285659 11.51609
6.910203 -4.514121 3.886263
7.386237 -4.549306 5.397535
7.684385 -4.521929 7.385122
8.167374 -4.4202 9.63263
9.451269 -4.101205 12.89417
10.26365 -5.113588 18.18401
11.16065 -5.069718 17.46829
12.76573 -4.951957 18.90046
11.87294 -3.839796 12.57332
10.73545 -4.002335 12.09616
12.96294 -4.119785 18.32232
8.397339 -5.149682 16.94775
7.02691 -5.180673 14.83235
6.919827 -5.195373 13.86469
7.509787 -5.174071 15.14824
4.960138 -5.302865 12.17252
5.108796 -5.264268 13.06159
4.019055 -5.303466 13.44782
2.628011 -5.330507 11.56769
5.441133 -4.625148 1.883743
5.180369 -4.68124 -0.5482318
-0.8517228 -4.940173 15.91808
-1.896832 -4.662362 15.29485
-1.974747 -3.35448 13.98838
-1.237533 -3.579639 11.08438
-0.6621686 -5.613502 10.34807
-1.197985 -5.242808 11.5453
-0.8119291 -4.821159 15.28782
2.152067 -4.849255 5.445201
2.388952 -4.810772 0.8333526
1.89512 -4.759993 -2.039201
8.825863 -4.263829 11.45282
6.376573 -4.54615 2.436687
6.014088 -4.516211 3.162614
7.473193 -4.552931 5.777239
7.832492 -4.574624 6.545351
8.49013 -4.412228 9.351491
10.1225 -5.117362 17.6209
8.914612 -5.14295 17.31256
11.36072 -5.092187 17.9805
8.745301 -5.226734 18.46886
12.23576 -3.816231 14.13835
10.22738 -3.812934 11.00153
6.454672 -5.240279 17.50724
7.523705 -5.179921 14.6953
6.468409 -5.202671 12.99175
3.983351 -5.331622 13.08004
6.218917 -5.205697 12.6342
5.467436 -5.255569 11.80001
2.772248 -5.396568 11.17814
2.024534 -4.949348 9.673613
5.355959 -4.710465 -0.6511185
-2.640804 -4.116014 14.22369
-2.772935 -4.761889 13.72035
-1.425343 -3.331794 11.95546
-1.281212 -3.506368 10.95908
-1.288029 -5.371612 9.930344
-0.7870665 -4.511331 13.76303
2.103855 -4.873924 6.616331
2.494905 -4.955618 2.229744
2.045993 -4.697326 -0.7437974
8.765512 -4.315744 10.10001
6.757553 -4.528952 3.135433
7.398037 -4.605561 3.975581
8.154535 -4.53396 7.844281
8.337384 -4.47624 8.710739
10.44568 -5.104842 17.97768
11.31603 -5.064164 16.88172
11.49578 -5.102459 16.74331
11.54159 -4.000376 11.5499
9.830116 -3.887638 11.31653
12.3053 -4.238578 16.95795
8.030078 -5.13772 16.03599
7.8241 -5.171317 15.13424
6.458288 -5.202892 12.76709
4.200753 -5.418288 11.6638
5.785614 -5.227264 11.93929
5.322702 -5.284992 11.07132
2.632932 -5.354473 10.81994
5.7731 -4.619354 1.582883
5.508665 -4.635631 1.300037
-2.896872 -4.487458 13.40274
-2.709704 -4.883575 13.73775
-1.191752 -3.673044 10.2183
-0.835878 -4.674512 9.746028
-0.8311591 -4.779169 12.77965
2.127032 -4.959237 8.029362
2.551453 -5.031554 2.482598
2.69915 -5.057098 -0.2043024
2.114877 -4.709956 -0.755923
1.274874 -4.926814 -3.034586
6.582904 -4.60521 1.690134
6.993137 -4.5708 3.030036
5.890702 -4.612222 1.601709
7.769597 -4.64014 4.450209
7.920182 -4.631364 5.078968
10.13445 -5.117252 17.22329
11.01017 -4.940738 15.16642
11.57411 -5.121027 17.18357
11.68605 -3.930223 11.78755
9.604244 -3.970759 11.21137
12.26772 -4.296816 16.09849
8.017584 -5.146272 15.7883
7.739375 -5.195687 13.83937
7.196016 -5.202435 12.657
6.831221 -5.187258 11.4676
4.405582 -5.451327 10.78889
6.368836 -5.184648 10.93075
6.136065 -5.197225 11.18007
3.584594 -5.496625 11.28574
2.38246 -5.222624 9.933324
5.554936 -4.72171 -0.477255
-3.027586 -4.447714 12.81085
-2.742604 -5.003995 13.42387
-1.57178 -3.173208 11.83245
-1.098514 -4.974357 9.446796
-0.7974995 -4.496997 12.87377
2.329568 -4.992389 5.336617
2.780895 -5.113395 -1.220871
2.261446 -4.756152 -1.163333
9.370888 -4.079719 11.06456
7.047389 -4.580783 2.976595
6.092604 -4.703614 -0.01288271
5.878909 -4.631951 1.215111
8.326615 -4.505085 8.171431
8.914415 -4.304259 8.683691
9.740053 -5.173162 16.41244
10.98815 -4.963192 15.61628
11.63907 -5.139597 17.18423
12.18902 -3.776108 12.70529
10.12078 -3.736094 10.24142
12.64514 -4.516655 17.37804
8.203961 -5.18921 14.65888
7.645025 -5.221682 12.27412
7.160725 -5.200078 11.87285
6.890213 -5.184959 11.18506
4.95673 -5.349107 10.91101
4.093457 -5.50046 10.75527
6.009202 -5.20611 10.74028
3.528316 -5.495758 11.31194
2.789457 -5.460343 9.979413
5.592921 -4.765268 -1.654987
-3.106459 -4.636236 12.54777
-2.232032 -4.887689 14.53191
-2.254844 -3.158374 12.77877
-1.117755 -3.914059 9.612412
-0.8248473 -4.708838 12.53825
2.489127 -5.139175 4.967112
2.813998 -5.158819 -1.081629
2.74056 -5.228822 1.629017
2.259125 -4.763959 -1.448685
6.506218 -4.707617 0.06483369
7.363263 -4.668751 2.136894
7.82485 -4.673603 3.210967
8.03257 -4.635905 4.719256
8.69246 -4.416625 8.163745
9.855144 -5.159341 16.39734
11.24673 -4.993794 15.43073
10.67228 -4.9748 15.35494
11.19431 -4.091106 10.96835
10.89531 -4.041113 10.86036
10.1532 -3.701749 9.854843
13.11857 -3.992086 18.09198
8.071012 -5.231864 12.82679
7.619013 -5.22532 11.73213
4.760034 -5.402996 10.53066
4.11006 -5.532454 10.36523
6.143378 -5.190904 10.3471
2.396894 -5.213134 8.412932
5.348902 -4.704991 -2.316626
-1.448152 -4.334599 15.15441
-2.397565 -3.49248 13.73299
-1.466231 -3.235825 10.35608
-0.9807391 -4.159173 13.2918
2.44614 -5.165462 6.158498
2.45366 -4.835829 -1.222073
2.918423 -5.508234 1.536221
2.902861 -5.389401 0.2469315
9.433868 -4.014772 10.47688
7.03018 -4.686784 0.9905071
7.519243 -4.692852 1.766728
8.496575 -4.499322 7.293571
9.137944 -4.1609 8.727545
9.757618 -5.195696 15.67669
9.479829 -5.21461 15.97741
10.74952 -4.963256 15.32925
11.79124 -5.307151 16.21281
12.19126 -3.759211 11.85758
10.10217 -3.691562 9.773636
13.0576 -3.977751 17.97926
8.570304 -5.183096 15.17069
8.361596 -5.240933 13.08491
7.823559 -5.240415 11.8563
5.043457 -5.355428 10.3337
6.593823 -5.141977 9.406801
3.53877 -5.611333 10.02099
2.402137 -5.229147 9.311639
5.551631 -4.771946 -2.490407
-1.41304 -4.292933 14.94504
-3.20184 -4.904917 12.20136
-1.512292 -3.182914 10.61274
-0.87188 -4.41816 11.80946
2.436557 -5.196935 6.979248
2.872853 -5.466897 1.985491
3.073698 -5.571057 -1.203576
2.940089 -5.462474 0.3730809
6.926038 -4.752043 -0.1887095
7.361676 -4.742492 0.4617421
7.804055 -4.701471 1.704972
8.602676 -4.477006 6.795188
8.375547 -4.587136 4.552085
8.795177 -4.3842 7.425683
9.155794 -5.198228 15.56148
10.99585 -4.898942 14.09854
10.1825 -5.097425 15.7729
12.79577 -4.924208 17.8638
12.3986 -3.826781 12.6501
10.01536 -3.676147 9.498842
12.91011 -4.101472 17.59504
8.520838 -5.187621 15.60716
8.805961 -5.265635 13.13208
7.33561 -5.191716 9.608469
4.669776 -5.456584 9.916009
6.194137 -5.159924 9.404295
3.69315 -5.687506 9.34416
2.595446 -5.381803 9.366721
-2.61074 -3.687291 13.59591
-1.796196 -4.712982 14.28717
-2.601315 -3.489867 13.15516
-1.077534 -4.06716 9.406232
-1.029974 -4.10223 12.98883
2.641176 -5.334184 5.128799
2.71391 -5.411347 4.846823
2.948873 -5.577301 2.065628
6.855665 -4.80745 -0.9289695
6.501145 -4.845314 -1.473876
8.107952 -4.672072 2.168776
8.509166 -4.546398 2.81715
9.302938 -4.027171 8.57994
8.766668 -4.401638 6.663274
9.285825 -5.239855 15.24781
11.18665 -4.932533 12.98645
10.29573 -5.055788 15.16947
11.9008 -5.35144 16.63867
11.73509 -3.956212 10.43188
9.758172 -3.766749 9.678976
10.14841 -3.591023 8.577601
13.0354 -5.113654 17.846
8.238277 -5.26557 12.17249
7.513564 -5.219745 9.942406
7.094409 -5.155317 9.088383
6.575463 -5.126282 8.913755
5.066866 -5.384049 9.43577
3.536558 -5.68526 9.344912
2.676023 -5.449872 8.602777
-3.203453 -4.370443 11.76237
-2.316502 -5.27705 13.13628
-1.998176 -2.932337 11.61854
-1.407114 -4.80211 9.748519
2.591212 -5.361334 7.071754
2.784338 -5.495102 4.813294
3.171229 -5.72097 -1.384896
7.209124 -4.821402 -0.9997993
7.97639 -4.699499 1.04922
8.646572 -4.468721 5.699368
9.438497 -3.87164 8.058533
9.768479 -5.2055 15.10659
10.80082 -4.857193 12.78011
10.12319 -5.105104 14.96232
11.75965 -5.486173 14.88315
11.80803 -3.91897 10.39539
9.792004 -3.690996 8.976606
13.27256 -3.845777 17.74291
8.584178 -5.310861 11.77677
9.06327 -5.219297 14.71122
7.633115 -5.241696 9.177728
4.605046 -5.515858 9.277843
6.555614 -5.110655 7.977972
5.638144 -5.251508 8.166218
2.839928 -5.562089 8.217486
-3.33856 -4.740338 11.5082
-2.316932 -5.339288 12.82191
-1.97592 -2.913982 11.4279
-0.9792444 -4.111268 11.86253
2.992602 -5.684694 3.563299
3.240972 -5.88262 0.3427636
3.240641 -5.845678 -0.9344038
6.69726 -4.903373 -1.96064
8.718994 -4.430643 3.560146
8.351023 -4.615661 1.517484
9.463808 -3.835505 7.87795
8.991566 -4.236345 5.911629
9.751646 -5.207748 13.66831
10.67118 -4.872966 12.69774
10.42647 -4.952753 13.01685
11.7539 -5.516849 14.70303
11.96966 -3.834904 10.53086
9.891155 -3.619371 8.625148
13.29111 -3.791645 17.622
8.924046 -5.298648 12.30567
7.878295 -5.260513 11.05309
7.57398 -5.232532 8.892232
4.840295 -5.462091 9.009936
6.667385 -5.103272 7.830928
5.944803 -5.175992 8.717155
5.721618 -5.231824 8.113852
3.063313 -5.687497 7.864765
-2.910671 -3.466839 12.19406
-3.228944 -5.239338 11.93365
-1.17448 -4.438795 10.04813
2.708743 -5.459273 6.33955
2.965623 -5.366415 -2.654949
3.258292 -5.905122 1.707209
7.469453 -4.813516 -0.9505202
8.629333 -4.482879 2.748735
8.388539 -4.598972 0.3413031
9.581952 -3.713982 7.643818
9.45091 -5.271547 14.02372
10.50438 -4.888173 12.09037
9.992021 -5.1258 13.48611
11.60327 -5.357443 14.03905
11.22307 -4.131474 9.480238
12.29277 -4.395814 13.67772
11.96526 -4.634469 15.45394
13.49892 -4.084931 17.69796
9.483098 -5.25965 13.51874
8.006691 -5.333172 9.225469
7.057323 -5.130912 7.816866
4.380469 -5.691594 7.672268
6.828865 -5.043165 5.953583
5.99798 -5.171959 8.239232
5.709814 -5.235485 7.770763
3.106179 -5.740586 6.934487
-2.898909 -3.589062 12.44081
-2.95849 -5.486172 12.049
-1.088553 -3.990449 11.52989
2.748823 -5.490296 5.977463
2.924732 -5.302095 -3.110276
3.351558 -5.939613 -2.16837
7.957788 -4.736247 -0.2776201
8.76532 -4.38987 2.085202
8.760009 -4.365121 0.5766615
9.214872 -3.993764 5.653083
11.45262 -5.193417 13.27372
10.62781 -4.787109 11.02947
12.30093 -5.58621 17.04176
12.76358 -4.975075 17.21925
12.5673 -3.91861 11.69839
10.13888 -3.513422 7.615659
11.89723 -4.715083 15.22983
13.56432 -4.044009 17.5451
9.479885 -5.257352 12.62251
8.20913 -5.382816 9.384343
7.686615 -5.270531 8.201186
6.919676 -5.061111 6.235382
4.247264 -5.797661 6.695294
6.755849 -5.025863 5.467015
5.031054 -5.437628 8.285962
3.439541 -5.841619 6.888564
-3.195302 -3.693686 11.35378
-2.943731 -5.528035 11.98598
-1.087137 -3.975878 11.30072
2.926124 -5.646063 6.242289
3.159029 -5.678423 -2.765726
3.338673 -5.946582 2.766041
7.960679 -4.734203 -0.7740744
8.97598 -4.20092 2.782884
8.589346 -4.481227 0.03585229
9.284339 -3.882712 5.090881
11.48105 -5.265409 13.15204
10.3003 -4.961109 11.92791
12.02769 -5.960992 15.0362
10.95983 -4.067035 8.924068
12.57552 -4.147686 12.17779
10.37825 -3.56123 7.186002
13.09637 -3.757958 16.87887
9.112849 -5.348212 11.37066
9.597342 -5.234653 12.61644
7.895012 -5.330524 8.352972
7.49602 -5.213872 7.1682
6.992529 -5.040707 5.015944
4.378288 -5.760152 6.65142
6.37063 -5.05779 6.188194
6.039757 -5.143003 7.011995
3.477745 -5.894517 6.038355
-3.165915 -3.548248 11.36827
-2.98743 -5.655399 11.59533
-1.37481 -3.918429 12.01373
3.132267 -5.800377 5.070542
3.484351 -6.060741 1.181259
3.604228 -6.158463 -1.283279
8.998755 -4.136426 1.37518
9.130306 -4.046958 4.145636
9.53775 -3.653593 6.201469
11.58115 -5.510873 13.21018
11.2072 -4.86584 11.04884
12.40349 -5.597532 17.09475
11.08313 -4.119223 8.991954
12.5548 -3.833349 11.03374
10.18057 -3.469027 6.876589
13.4591 -3.711437 17.34941
9.154091 -5.370813 11.0258
8.530782 -5.460477 9.341
7.714737 -5.287828 7.410245
7.211361 -5.117795 6.175204
4.020812 -5.822886 7.033554
3.937917 -5.841865 6.940976
6.384715 -5.022314 4.63395
5.551507 -5.285471 7.004467
3.363825 -5.90747 5.089041
-2.021083 -5.208693 12.46999
-1.155252 -4.033311 9.892125
3.51545 -6.054035 1.777071
3.637174 -6.189136 -2.320754
7.930339 -4.72903 -1.545726
9.111959 -4.041914 3.144177
8.604877 -4.400262 -1.431211
9.580238 -3.600001 6.000666
11.68249 -5.860692 12.74292
11.29099 -4.904519 10.73212
12.18585 -5.920629 15.75527
10.9344 -4.054886 8.797318
12.46846 -4.332865 12.38988
10.55263 -3.683852 7.21096
13.02493 -3.894766 16.64358
9.228852 -5.383396 10.75861
9.539098 -5.259182 11.87581
8.000072 -5.399901 7.044911
6.972917 -5.008249 3.715979
4.044863 -5.961423 4.781455
6.232899 -5.064889 5.202369
6.754394 -4.985548 3.768416
5.640846 -5.250716 6.252108
-1.877568 -4.944944 12.69634
-1.19502 -3.843213 9.943166
3.599302 -6.01721 3.688844
3.74562 -6.230813 -1.459963
8.267654 -4.622892 -1.151621
9.088981 -4.023218 1.566181
8.934078 -4.093723 -1.144358
9.251579 -3.874093 3.965028
11.54802 -5.539044 12.25596
10.01977 -5.081808 10.50208
11.90975 -6.144088 13.54758
11.20947 -4.160992 8.021666
12.58152 -4.238484 11.79362
9.81215 -3.457644 6.070496
10.84641 -3.987009 7.990484
12.9063 -4.322855 16.18892
9.186959 -5.434454 10.1228
8.7151 -5.585389 7.385389
7.849506 -5.338033 7.150696
7.273412 -5.093823 4.02832
4.611501 -5.70787 6.149617
3.699524 -6.010973 4.112553
6.465497 -4.99766 3.897142
5.507257 -5.303616 6.63288
-2.017736 -5.242702 12.08676
-1.669483 -4.28733 12.69954
3.691707 -6.052615 3.152072
3.749723 -6.247818 -2.291683
9.258247 -3.777897 2.0169
8.618176 -4.352186 -1.885703
9.385753 -3.622065 2.785079
11.51531 -5.417764 11.99705
9.922429 -5.143157 10.47965
11.91857 -6.230722 13.19241
11.11675 -4.142083 7.911021
12.30855 -4.46629 12.43323
10.03338 -3.366696 5.643402
12.99802 -4.035361 16.38617
9.463678 -5.348307 10.53196
8.802343 -5.548087 8.396329
8.219399 -5.485235 6.848938
7.961794 -5.416814 5.162759
7.490178 -5.18415 4.061183
4.294785 -5.877496 5.125048
6.461102 -4.990949 3.289692
5.84411 -5.177275 5.212996
4.801147 -5.647035 5.760723
-1.484723 -3.841445 11.3325
3.953789 -6.099747 2.355799
4.040562 -6.280856 -1.43996
9.173578 -3.810462 0.03659179
9.341989 -3.570407 0.7402651
9.729349 -3.381326 4.471031
9.680678 -5.25114 11.02003
11.45785 -5.161466 10.89056
10.52611 -4.723812 9.439525
12.65266 -5.379207 16.39571
12.17237 -3.797887 9.151995
11.81533 -4.70235 12.97779
10.71256 -3.795676 6.299935
12.71029 -4.620501 15.80161
9.270406 -5.489923 9.203217
8.680715 -5.602249 6.84758
8.04694 -5.453413 5.433883
6.901064 -4.991083 2.27684
4.128338 -6.010899 3.583833
4.220078 -5.94022 4.412201
4.370706 -5.967833 3.157592
6.17121 -5.054664 3.857678
6.639226 -4.971605 2.092059
5.226166 -5.440919 5.805616
-1.988883 -5.1983 11.76383
4.064266 -6.252227 -0.7650405
4.132787 -6.30827 -2.076236
9.334371 -3.52137 -0.2510717
9.378158 -3.52502 0.936792
9.838909 -3.35754 4.890194
11.53503 -5.391647 10.90048
11.06883 -4.679156 9.379181
12.43731 -6.171001 15.0551
12.71479 -4.923954 16.53916
12.59541 -3.798145 9.921606
11.70965 -4.803653 13.29632
10.70654 -3.809332 6.68523
13.42931 -5.543935 16.96163
9.293599 -5.490835 9.030094
8.897654 -5.649232 5.983773
8.121483 -5.501074 4.470949
7.04161 -5.028988 1.498868
7.694155 -5.285612 3.897827
4.1466 -6.080924 2.287985
4.396935 -6.021695 2.068485
6.303836 -5.009569 2.564163
6.399321 -4.989282 1.484353
5.455898 -5.35352 4.653148
-1.743187 -4.145456 11.52643
4.187262 -6.286871 -1.725392
9.350332 -3.435709 -1.448976
8.754097 -4.117479 -2.608261
11.58706 -5.649158 10.71163
11.12931 -4.707132 9.39295
12.11313 -6.385099 13.75193
11.40317 -4.196688 7.393361
12.265 -4.549606 11.67696
10.62523 -3.663052 5.745344
10.70955 -3.756211 5.584794
12.75987 -4.561031 15.66552
13.41076 -4.43779 16.67674
8.966144 -5.619872 6.692417
8.337603 -5.578339 5.060057
7.886562 -5.387649 4.257013
6.70378 -5.000847 -0.1588173
7.914732 -5.4108 2.215424
7.408163 -5.150274 1.999016
4.60223 -5.904924 2.580738
5.837073 -5.171501 3.054999
6.544171 -4.973298 1.50271
5.413992 -5.37633 4.530163
-1.751104 -3.928609 10.75663
4.397255 -6.067765 1.295923
9.414601 -3.358803 -1.016197
8.962825 -3.900405 -2.34597
11.61181 -5.798524 10.8343
11.4532 -5.023361 9.322264
9.973598 -5.107737 9.423825
12.63443 -5.00739 16.24234
12.0531 -3.942723 7.321569
11.64758 -4.882662 12.94865
12.19237 -5.033166 14.94637
13.64476 -5.102837 16.95032
9.23573 -5.543793 7.674565
8.666134 -5.67606 3.812461
7.356662 -5.144905 1.046846
7.000197 -5.039815 -0.4002424
7.569606 -5.232934 1.635602
4.840484 -5.733881 3.422153
5.635981 -5.274865 2.542998
5.990111 -5.100003 1.648503
5.380316 -5.4068 3.829831
4.478914 -6.131697 -0.4018488
4.464913 -6.22257 -1.938729
9.531886 -3.318789 0.8973098
10.08687 -3.273388 4.395441
11.61675 -5.878255 10.45377
10.62789 -4.627154 8.213766
10.15639 -4.936137 8.375448
9.977111 -5.106924 9.106534
12.60053 -5.200482 15.98738
12.08655 -3.972872 6.47038
12.78566 -3.990513 9.849524
11.59296 -5.137861 13.54339
11.08552 -4.131151 6.491271
13.50424 -5.6218 16.64053
9.509146 -5.431829 8.33618
9.174636 -5.600584 6.222756
8.585259 -5.672505 3.215434
7.468004 -5.198152 -0.1041459
6.803626 -5.006344 -0.3509279
7.845679 -5.379526 1.16208
5.340786 -5.449301 3.084963
4.716256 -5.984643 0.02224132
5.416717 -5.394556 3.334864
5.769571 -5.201427 1.513861
4.553452 -6.155981 -1.417416
9.552639 -3.162034 -1.926706
9.702056 -3.085691 -0.4512897
9.755148 -3.207939 2.102119
11.57205 -5.481349 9.467765
11.52599 -5.167752 8.90619
9.762469 -5.283987 7.152023
12.70439 -6.069915 14.82813
12.40135 -3.765247 8.30919
12.62473 -3.790582 9.122147
11.57416 -5.049232 12.91408
10.3397 -3.255511 3.317948
13.28004 -3.483041 16.03077
13.05246 -5.218407 16.23912
9.444346 -5.500214 6.378601
8.631808 -5.682434 2.064564
8.311906 -5.596257 2.680764
6.417141 -5.009448 -1.104589
6.998467 -5.031516 -1.971334
8.077723 -5.492529 0.939056
4.854476 -5.860027 0.7446375
6.117846 -5.063492 -0.004446012
4.613839 -6.118471 -1.330702
9.577421 -3.144547 -1.778226
9.939657 -3.182566 2.852149
11.66382 -6.175855 10.3499
10.51453 -4.652342 7.632552
10.12297 -4.946235 7.204713
9.914877 -5.14809 6.696835
12.55448 -5.196463 15.67922
12.24974 -3.897187 6.224237
12.43262 -4.539492 10.81942
10.84897 -3.895426 4.338056
10.97257 -4.059971 5.616548
12.90318 -4.812567 15.82489
9.644077 -5.375403 6.915716
8.810358 -5.697842 2.763847
7.820561 -5.361176 -0.3784594
6.252035 -5.031324 -1.73095
6.823699 -5.00341 -2.023583
5.27141 -5.503983 2.495776
4.924155 -5.821015 0.539798
5.671044 -5.290443 -0.4047202
-1.910728 -4.80284 11.20239
4.743178 -6.204403 -3.133163
9.809404 -3.00492 -0.9151329
11.82407 -6.482174 10.94661
11.55947 -5.225589 8.134263
10.42904 -4.691411 7.26473
9.804109 -5.252996 6.778886
12.36827 -6.67694 13.23839
11.68383 -4.189988 6.305654
11.72578 -4.226398 5.15027
11.93951 -5.191857 14.35192
10.70213 -3.598278 3.144937
11.13109 -4.166062 6.096953
12.84476 -4.745533 15.84278
9.495809 -5.47965 6.188769
9.180496 -5.645814 2.896237
8.495055 -5.641181 0.4461436
6.218375 -5.051523 -1.13071
7.468686 -5.187948 -1.079571
8.260185 -5.55132 -0.6912741
5.002284 -5.769102 0.3694554
5.622468 -5.299757 0.1057471
4.972611 -5.863171 -1.139427
9.631533 -3.038602 -2.331093
11.96524 -6.598958 11.41589
11.5884 -5.679593 8.216144
11.56344 -5.194116 7.691582
11.50682 -4.948679 7.146854
9.690664 -5.353711 4.964318
12.1416 -6.695649 11.94754
12.01684 -4.137426 4.297473
12.84385 -4.082856 9.579734
11.64445 -5.345712 13.39104
10.4912 -3.232074 1.741755
13.06757 -4.168775 15.32862
9.51539 -5.48078 5.063966
8.876329 -5.69699 1.707682
7.894769 -5.382743 -1.36502
7.780967 -5.318427 -2.062716
8.165398 -5.510086 -1.002792
5.288094 -5.532258 0.6432709
5.698248 -5.291845 -1.349912
5.063608 -5.691203 1.149246
5.006522 -6.002417 -3.084015
10.03619 -3.012211 0.5655353
11.59892 -5.950438 8.238496
11.59567 -5.300511 7.03574
10.55751 -4.580498 6.2114
9.974836 -5.081446 5.886424
9.790416 -5.265946 4.895457
11.58229 -4.234819 5.950881
12.49583 -3.811167 6.076333
12.05025 -4.759885 10.66662
10.923 -3.982408 3.622826
10.63458 -3.323494 0.9526547
13.98254 -3.721337 16.25502
13.81816 -5.300776 16.37579
9.388621 -5.555538 3.750582
8.878097 -5.681417 0.3938273
5.932538 -5.168726 -2.370888
8.118518 -5.47558 -1.574786
5.846174 -5.216211 -2.192644
5.088584 -5.904919 -2.89975
10.2233 -3.091676 1.644529
11.60624 -5.506581 6.79855
11.18748 -4.605249 7.172499
11.49204 -4.85822 6.480488
10.1158 -4.925982 5.663359
9.840451 -5.210086 4.191264
12.56647 -4.898139 15.53566
12.25779 -4.008459 4.03066
12.87622 -4.095674 9.249258
11.55265 -5.317002 12.33693
10.78574 -3.662434 1.922961
12.01361 -5.095747 14.15221
13.82829 -5.318034 16.3336
9.093332 -5.659577 0.7785435
8.417712 -5.568527 -1.820967
5.481981 -5.457589 -1.779354
10.091 -2.894796 -1.592778
11.79115 -6.497746 9.859645
11.62002 -5.068159 5.309559
11.05328 -4.539773 6.83503
11.28979 -4.654466 6.897005
9.893554 -5.148967 3.561542
12.69365 -5.766911 14.52413
12.4052 -3.930908 3.958368
11.42604 -4.28674 4.683182
12.11284 -4.816146 10.2176
10.93937 -3.96576 2.066371
10.79219 -3.579885 0.6645221
11.19639 -4.217341 4.886776
13.25914 -5.6354 15.55688
9.33273 -5.582901 1.196403
8.693484 -5.63977 -1.244887
6.735328 -5.03144 -3.051264
10.23102 -2.92497 -1.08629
11.74905 -6.42923 9.235318
11.59408 -4.998217 5.504989
10.84866 -4.44416 5.042993
10.18026 -4.829087 4.4533
9.581082 -5.43468 1.349315
12.79232 -6.148479 13.86801
12.38469 -3.958368 3.611469
12.33583 -4.020247 2.913877
12.93324 -4.09798 8.715561
11.63704 -5.663354 12.48311
10.78805 -3.647087 1.629639
10.88826 -3.788802 0.482442
13.08653 -4.162755 14.90661
9.469756 -5.509416 1.397264
8.997469 -5.628797 -1.587158
7.951262 -5.411977 -2.780155
5.397693 -5.602449 -2.894228
12.10909 -6.648553 10.3558
11.64275 -5.727075 6.20062
10.95961 -4.489006 6.072038
10.39843 -4.632226 4.762821
10.18219 -4.808571 3.356821
9.863216 -5.169682 2.326967
9.815109 -5.198089 0.3205588
12.81953 -3.847358 7.615372
11.7784 -4.314367 2.859815
11.55928 -4.339004 3.018466
11.87653 -5.265083 13.7582
11.03975 -4.105031 2.27269
10.89851 -3.761148 -0.3795748
13.31322 -3.396096 15.41161
9.409485 -5.544033 0.9672264
8.848645 -5.625485 -1.845941
7.772028 -5.333517 -3.041319
10.3834 -2.881619 -2.063351
11.66751 -6.061092 7.05299
11.65413 -5.043456 4.341974
10.69468 -4.413664 2.549119
11.47838 -4.70352 4.784247
10.12335 -4.861044 2.601277
9.579543 -5.417806 0.01732108
12.4378 -5.504976 14.12102
12.85105 -3.83316 5.412477
12.38377 -4.02375 2.279056
12.78226 -4.475967 9.346807
11.93606 -5.54752 13.07516
10.76345 -3.360959 -1.054736
10.54437 -3.023374 -1.635757
9.528498 -5.453336 -0.247291
9.418997 -5.498236 -1.307894
8.610439 -5.59403 -2.59666
11.87843 -6.47138 8.62623
11.65909 -4.949125 3.707628
10.74705 -4.391451 2.435427
10.97554 -4.394479 3.704428
10.22031 -4.74675 2.379344
10.02559 -4.949612 0.9905999
12.478 -5.570942 14.00765
12.90517 -3.838189 5.068649
12.11569 -4.263949 0.8921376
12.86919 -4.375822 9.149058
11.63048 -5.684549 12.12665
10.77621 -3.292203 -1.844966
12.91589 -4.92942 14.83836
8.852841 -5.608468 -2.551769
12.08719 -6.554939 9.482498
11.7957 -5.72342 4.563665
11.10914 -4.426577 4.018543
10.98115 -4.359352 2.370985
10.17291 -4.711213 -1.186923
10.22667 -4.734128 2.137758
10.04211 -4.910867 0.2945216
9.863494 -5.077676 -2.043096
12.79837 -6.484976 13.0201
11.83509 -4.321325 2.119963
11.434 -4.342204 2.433875
11.76047 -5.247856 10.55697
11.10448 -4.156761 0.7770519
12.51202 -4.500371 14.25394
8.789323 -5.631441 -2.726115
11.92118 -6.402178 7.829875
11.7831 -5.201038 3.063365
10.89083 -4.335135 0.06680914
11.11397 -4.374751 2.558587
10.38661 -4.542078 0.299169
9.817894 -5.127146 -2.455331
13.02298 -3.963562 6.583364
12.54914 -3.962002 1.769215
12.43751 -4.906442 8.697376
11.34594 -4.317126 2.270957
12.65669 -4.493572 14.24031
9.276888 -5.544921 -3.105807
12.12343 -6.48115 8.919172
11.91879 -5.896673 4.552766
11.90181 -5.579634 3.302378
10.93161 -4.329909 -0.04903423
11.03918 -4.348731 1.808213
10.07158 -4.81743 -1.975167
13.07649 -4.221806 7.358682
11.81761 -4.352494 1.617473
13.09355 -3.972801 5.578182
11.9523 -4.847239 13.5867
10.82716 -3.308714 -2.101835
12.80755 -4.817001 14.45557
9.750021 -5.227759 -2.923081
11.99561 -6.364603 7.456587
12.03471 -5.744971 3.30059
10.95867 -4.332462 0.6467789
10.43578 -4.488811 -0.571294
11.5031 -4.596274 2.727522
13.06741 -4.252774 7.487513
12.92483 -3.85807 2.427584
12.5205 -4.031181 0.5198974
12.52043 -4.949131 8.211536
11.36406 -4.338022 1.17234
11.21327 -4.259501 -0.2705953
9.563252 -5.398433 -2.841948
12.13503 -6.340858 7.658781
12.27777 -5.749624 2.498591
11.9565 -5.425626 2.316286
10.58097 -4.408385 -0.9194853
12.37866 -4.866725 14.58688
13.16049 -4.249694 6.517699
11.69419 -4.403391 0.6862968
12.34791 -4.197286 -0.3403007
12.40618 -5.068796 8.124033
11.42246 -4.372665 0.4899298
13.06788 -4.152747 14.6001
9.954216 -4.987432 -3.168565
12.11209 -6.22348 6.289588
12.4117 -5.800866 2.636858
11.67146 -4.744201 1.834358
11.00041 -4.375539 -2.415921
10.02222 -4.90954 -2.689174
12.22448 -6.460461 12.32271
12.93968 -3.860743 1.775341
12.34663 -4.222913 -0.6922832
11.5434 -4.398393 0.6778531
11.95583 -5.745284 11.28943
10.97634 -3.760675 -2.293614
13.65053 -4.314362 15.96306
12.22779 -6.012074 10.99551
12.25929 -6.054163 4.902608
12.13883 -5.62196 2.254883
11.18003 -4.364666 0.3305456
10.57467 -4.423099 -2.282259
12.42936 -5.753872 12.7824
13.24982 -4.323769 5.574028
12.13474 -4.396243 -1.416085
12.05668 -4.454605 -1.870017
11.93013 -5.673051 10.22517
11.17202 -4.185756 -2.371499
13.40851 -4.97385 15.77894
12.25575 -6.098337 8.507864
12.55167 -5.841105 3.090218
12.1014 -5.539813 1.969195
11.42215 -4.460441 0.3576154
11.54034 -4.557788 0.9745347
12.04981 -6.284772 12.03768
13.04059 -3.877406 1.603112
12.50216 -4.180609 -1.569932
12.74923 -4.897705 7.47384
12.0984 -5.828887 12.43248
14.01888 -4.153099 15.73687
12.13798 -5.873908 9.244805
12.43243 -6.011179 5.15671
12.70094 -5.550452 0.2637272
11.75074 -4.793176 0.931159
11.37212 -4.465646 -1.508405
10.43624 -4.522379 -3.121344
13.0959 -4.609994 6.607976
13.15928 -3.91028 1.470223
12.82903 -3.984818 -1.543143
12.06368 -5.404681 8.753301
12.19003 -4.556433 13.73821
13.7051 -5.088168 15.48128
12.22097 -5.97994 8.624586
12.57785 -5.886292 4.096324
12.80139 -5.611012 0.8879598
11.83613 -4.875651 0.5902438
11.26649 -4.477916 -2.624825
13.04683 -4.787168 6.344838
13.34119 -4.116877 3.056407
12.89881 -3.929718 -1.061494
12.57629 -5.181193 7.144116
13.18596 -3.670409 14.69409
13.11923 -4.694125 15.53317
12.49798 -5.923595 5.902147
13.03815 -5.526978 0.7772795
12.14624 -5.277627 0.3880593
11.42934 -4.519291 -2.417015
13.38766 -4.48649 3.88624
13.0178 -3.887168 -0.2577653
12.55905 -5.252196 7.037913
13.16966 -3.845854 14.39593
13.26988 -4.989653 15.21327
12.56722 -5.863363 5.587985
13.23475 -5.393986 0.5090829
12.71649 -5.432625 -0.7948949
11.65737 -4.627225 -1.611826
13.22333 -4.74217 5.206207
13.4483 -4.161589 1.679674
13.07737 -3.913803 -1.916784
11.53435 -4.44962 -2.217374
14.2338 -4.039729 15.28214
13.93246 -5.189645 15.15328
12.77831 -5.455171 5.629991
12.76502 -5.739542 4.00307
13.26158 -5.344961 -0.7457832
12.92503 -5.376966 -1.434398
11.87154 -4.808973 -1.026931
13.48922 -4.137617 0.9270027
12.56971 -4.160385 -2.34286
12.90348 -5.155764 5.810386
12.96584 -4.39279 14.1061
14.15015 -3.500241 15.14721
12.71911 -5.437858 5.987651
12.95513 -5.587139 3.122908
13.31563 -5.313791 -0.6880209
12.85619 -5.336126 -1.741074
12.0418 -4.917204 -2.0081
13.38887 -4.657964 3.821379
13.48753 -4.063567 0.1712196
12.95032 -5.215642 5.407197
13.44847 -3.296839 14.89001
13.60786 -4.377402 15.0481
12.73154 -5.632817 5.360323
13.30156 -5.314503 1.119417
13.64418 -5.007283 -1.343101
12.10326 -5.031483 -1.074251
12.04392 -5.298007 12.99305
13.50873 -4.595243 2.593852
12.10314 -4.615233 13.50678
12.89243 -5.055666 13.99718
13.11299 -4.555373 14.87434
12.94363 -5.369045 4.909205
13.26051 -5.243828 2.518583
12.50662 -5.243903 -1.711341
12.09074 -4.930386 13.53479
13.497 -3.982175 -0.8585283
14.02849 -3.319712 14.81281
12.95113 -5.220938 13.64411
14.05731 -5.263129 14.86617
13.17699 -5.295513 3.102192
13.72166 -4.856324 -1.260776
12.12837 -5.01969 -1.446727
13.62872 -4.452112 1.034175
12.40212 -4.535035 13.60918
13.26953 -5.659417 13.96325
13.17042 -4.483064 14.57196
13.26776 -5.138082 3.183114
13.70829 -4.765641 -0.6215882
12.42367 -5.168835 -2.000209
13.47028 -4.770637 2.744731
13.44062 -3.861788 -2.422807
12.9985 -4.346 13.56774
14.00141 -4.400622 14.6731
14.15048 -5.622145 14.64328
13.42794 -5.027627 1.951978
12.48566 -5.165881 -2.516557
13.71048 -4.358131 -0.04500982
13.34482 -3.521096 13.47696
12.87451 -5.230413 12.87399
13.52283 -4.413603 13.963
13.85645 -5.880258 14.41773
13.8784 -4.375551 -2.017691
13.63144 -4.70115 0.8220485
11.72134 -5.120088 12.74213
13.64684 -5.901786 14.22395
14.36968 -4.142281 14.63419
13.87538 -5.900478 14.27872
12.62967 -5.221349 -2.467961
12.60072 -4.602824 13.12735
13.09079 -4.228225 13.0416
14.25904 -4.394997 14.22638
13.59252 -5.128744 13.75823
13.8034 -4.15787 -1.687537
13.67715 -3.185139 13.62097
13.16139 -5.562353 13.31108
13.19781 -4.422524 13.83511
14.09387 -5.831406 14.14201
14.25382 -3.333759 14.09412
13.22432 -5.638958 12.96056
13.92442 -4.531836 13.71207
12.90095 -4.814331 13.87535
12.34693 -4.636367 12.87301
13.56817 -5.87948 13.2224
14.55753 -3.843027 14.12692
13.98267 -5.132362 13.51916
11.65976 -5.507843 11.95389
13.51341 -3.358046 12.87853
14.55294 -3.679669 13.96596
13.61647 -5.145064 13.29491
12.51569 -4.631036 12.77823
12.6492 -4.580513 12.72484
14.50195 -4.425151 13.58054
13.29856 -4.423295 12.96492
11.67866 -5.101139 12.00903
13.54426 -3.469271 12.13883
13.32934 -5.725124 12.5553
12.78893 -4.821634 13.3026
14.24717 -5.777669 13.59063
13.24177 -4.135616 11.90497
14.1925 -5.858008 13.43577
13.53707 -4.533203 12.13308
12.893 -5.114171 12.77839
13.64048 -3.303668 12.41369
13.06662 -5.533459 11.98239
13.80045 -4.670302 11.96775
13.63376 -5.168338 12.68966
14.219 -3.185232 13.15681
13.98801 -5.971281 12.92117
14.21766 -4.785189 12.2893
12.97711 -4.464551 12.62734
12.09943 -4.702089 11.74148
13.70501 -3.364339 11.72851
14.32636 -5.791605 13.12866
13.31141 -4.476814 11.55006
13.24107 -5.255913 12.35511
14.0317 -3.127571 12.45674
13.26055 -5.657588 11.77885
13.06751 -4.442543 11.32506
13.25412 -5.267138 12.20033
14.29108 -3.17185 12.73089
12.03574 -4.929829 11.53504
14.18833 -4.868816 11.64778
14.49659 -5.419587 12.57507
12.53526 -4.499225 11.39024
13.87111 -3.229497 11.73969
14.84055 -4.289735 12.84134
14.49271 -5.551038 12.66191
14.67894 -3.551327 13.10395
13.24338 -4.219681 11.24267
14.86455 -4.389032 12.60212
12.93825 -5.215295 12.21413
13.06886 -4.32802 11.16081
13.05845 -5.527383 11.21062
13.64718 -4.651743 11.17408
13.61144 -5.20811 11.59616
13.92709 -3.34271 11.04581
13.45177 -5.698277 11.20255
14.70013 -4.809586 11.86618
13.07397 -5.310294 11.40248
13.717 -3.745107 10.68877
13.50198 -5.696385 11.06203
12.54415 -4.814397 11.7166
12.48574 -4.581087 10.90832
14.28915 -3.192725 11.16991
15.00073 -4.039129 12.43629
13.65461 -5.223942 10.93886
14.26676 -3.244441 10.89011
12.89261 -5.294996 10.63358
15.04124 -4.591667 11.70827
14.02772 -5.087151 11.01554
14.72787 -3.278088 11.80609
13.53992 -5.605165 10.65734
14.6448 -5.299554 11.45222
13.70362 -4.140699 10.12715
13.10772 -5.164374 10.30586
15.07127 -3.877531 12.13892
12.98884 -4.59294 10.37162
14.91321 -3.445823 11.89199
14.12812 -5.777727 10.49404
14.72893 -5.389595 11.24985
14.50654 -3.329498 10.23408
14.23046 -5.532994 9.851302
15.15953 -4.833949 10.9802
14.98181 -3.233678 10.00327
14.6242 -5.794694 11.16725
13.88695 -4.036437 9.87394
13.5 -4.56504 9.941899
15.32755 -4.356825 11.19703
14.99391 -3.348219 11.26123
14.6495 -5.797244 10.40023
15.25705 -3.444419 10.8091
15.33388 -4.016093 11.2885
14.27523 -4.921307 9.389053
14.41771 -4.06638 9.39758
15.39865 -3.53981 10.63537
14.92477 -5.61069 9.989187