# .PCD v0.7 - Point Cloud Data file format
VERSION 0.7
FIELDS x y z
SIZE 4 4 4
TYPE F F F
COUNT 1 1 1
WIDTH 2048
HEIGHT 1
VIEWPOINT 0 0 0 1 0 0 0
POINTS 2048
DATA ascii
13.96857 9.03964 0.7266089
13.63302 8.769558 0.8230652
13.86037 9.005875 1.173696
13.63694 8.788744 1.672199
13.26253 8.318753 0.586689
13.75296 8.872303 3.83318
13.78193 8.874767 5.072958
13.98958 9.087048 1.376175
13.32438 8.391816 1.802248
13.52497 8.613762 3.22962
13.63254 8.711777 4.808426
13.92816 9.014412 4.64864
14.1042 9.144346 2.28612
13.08937 8.169512 0.3791076
13.57032 8.618237 5.727281
13.90489 8.943789 6.986099
14.06792 9.102753 4.766188
14.35397 9.181948 1.322449
13.00745 8.119181 0.2193482
13.45999 8.515929 3.783009
13.81697 8.840684 8.292891
14.13078 9.134058 4.830242
12.91486 8.047724 1.861981
13.2183 8.242473 3.376647
13.38352 8.392612 5.637642
13.84949 8.864922 8.613392
14.00662 9.011653 7.371689
14.43499 9.198716 2.187434
15.00057 8.982447 0.2588113
13.11205 8.155522 2.947851
13.32673 8.325345 5.940582
13.60434 8.641617 6.808039
14.24098 9.120002 7.424397
14.35829 9.197893 4.644056
14.93677 9.008545 0.485117
13.0455 8.091562 3.799056
13.14715 8.154613 5.660129
13.42914 8.409776 8.930137
13.89901 8.891836 9.2648
14.35024 9.184912 5.802911
14.69521 9.171381 2.762054
12.99335 8.051133 4.442303
12.93189 8.007203 4.876602
13.2842 8.272283 7.490539
13.92409 8.898407 9.625662
14.3766 9.195679 5.463472
14.71468 9.177318 3.637077
12.63749 7.899694 4.007333
12.80825 7.951699 4.629429
13.01063 8.054099 5.63818
13.50065 8.482181 9.560466
14.30098 9.054338 9.835209
14.5373 9.158122 7.060279
14.98128 9.04309 2.211522
12.47587 7.867883 4.288049
12.46431 7.881362 3.147593
13.00194 8.046942 6.449067
13.60881 8.588063 10.2876
14.2692 9.013775 10.8495
14.48695 9.200958 5.666774
14.90894 9.091565 4.70924
15.54937 8.648565 0.6672615
12.33545 7.881722 2.976774
13.04228 8.074124 7.067434
13.3764 8.352224 10.48652
13.88011 8.812154 11.3615
14.70125 9.090855 8.041139
14.9713 9.048682 4.936874
12.23538 7.864069 4.502206
12.20464 7.88732 3.092728
12.98553 8.039371 8.91724
13.05351 8.084264 8.953532
13.6633 8.627114 11.29403
14.1814 8.970765 11.23347
14.72022 9.074968 8.252394
14.87063 9.094322 5.64046
15.49372 8.68047 1.296477
12.23435 7.856674 5.663273
12.57158 7.867448 6.299334
12.78972 7.944641 7.959695
13.18627 8.188677 10.56638
13.77913 8.714283 12.06766
14.6682 8.998118 10.3541
14.94357 9.041556 5.856761
15.22347 8.879271 2.949821
12.07833 7.889502 3.913789
12.41496 7.879402 8.975859
12.00701 7.965478 1.465931
13.01411 8.077974 10.51856
13.373 8.344685 12.71005
13.73864 8.663788 12.74028
14.72137 9.004527 9.844036
15.06897 8.896657 6.456098
15.65051 8.546926 1.635212
12.07151 7.88002 5.597274
12.35447 7.873254 8.48632
12.0577 7.916124 2.604523
12.92937 8.036139 10.35503
13.22208 8.22847 12.24276
13.95778 8.824823 12.59736
14.95242 8.856079 9.24965
15.29024 8.691887 4.846519
16.27916 8.352834 0.4923681
11.87194 7.940006 4.747866
12.23876 7.883935 8.685768
11.60127 8.08761 0.2030111
13.01222 8.108693 12.22267
13.6205 8.557509 13.05171
14.09494 8.876145 13.05603
14.98196 8.86989 8.41047
15.22119 8.681748 6.027766
16.36452 8.287219 0.8273082
11.81698 7.954436 6.486952
11.92334 7.91549 6.677188
12.03664 7.911382 8.562674
12.63429 7.939758 10.4535
12.73359 7.991854 11.42932
13.65883 8.576241 13.65155
14.69002 8.8935 12.24905
15.06658 8.755487 8.307479
15.3249 8.549754 5.479005
15.80643 8.414471 1.817054
11.586 8.078101 2.397218
11.60684 8.045797 5.959363
12.04326 7.928404 9.516815
11.3352 8.20759 1.642969
11.06717 8.301373 0.5404778
13.25278 8.292865 14.32514
14.48442 8.917718 13.06417
14.98025 8.750697 10.26953
15.17524 8.705068 6.659505
15.551 8.473153 3.508727
16.69573 8.307417 0.6757823
11.57738 8.077112 2.666096
11.70232 8.022339 8.687806
12.09709 7.937385 10.19102
11.03893 8.33531 1.889067
10.76028 8.445657 1.520803
13.17345 8.252202 14.28367
14.83888 8.770189 12.4936
15.08801 8.589077 9.526982
15.25297 8.436188 6.994849
15.65919 8.433293 2.768411
11.37465 8.160319 4.811372
11.47493 8.118908 7.83143
11.56039 8.086488 8.763647
12.05731 8.005683 11.67656
10.89555 8.395327 1.835051
12.38426 7.983085 12.10555
13.337 8.344292 14.43339
14.79826 8.759377 13.22092
15.06474 8.540396 10.57895
15.2505 8.321353 7.452831
16.15076 8.240219 1.825426
16.79817 8.307311 0.8990364
11.21714 8.242353 5.129514
11.24175 8.22721 3.39692
11.32302 8.198915 7.798791
11.19529 8.265699 8.469335
11.71116 8.047806 10.09525
12.3656 7.977747 11.95863
10.63169 8.488179 2.068845
13.02563 8.190526 14.26737
13.73195 8.577232 15.38029
14.7303 8.781663 13.71964
15.07242 8.41387 11.40227
15.1146 8.390382 10.13256
15.36643 8.043502 7.104597
16.40152 8.235588 1.46646
10.90479 8.383573 4.047518
11.03395 8.350685 6.382482
11.19487 8.268613 9.317311
10.57488 8.504657 2.283206
10.39499 8.52025 0.7590623
12.77143 8.085759 13.77
13.6029 8.503808 15.40129
14.44923 8.832227 14.57977
15.05539 8.347063 12.78538
15.11308 8.060267 10.99996
15.25976 8.17403 7.767728
16.23846 8.190441 2.028301
16.6035 8.112862 2.970739
10.86723 8.402901 4.592944
11.27198 8.233066 10.23301
11.71168 8.081098 11.2126
10.62357 8.479656 3.142176
10.35149 8.535988 1.023433
12.38514 8.04779 13.57454
13.26431 8.336283 15.64843
14.59504 8.769007 14.94953
15.076 8.178519 13.22696
15.09973 7.995279 12.12066
15.12679 8.06557 10.47811
15.52939 7.893454 6.701097
15.85692 8.088604 4.052916
17.21671 8.542602 0.7374138
10.78838 8.461767 6.938239
11.28413 8.234322 10.56664
11.643 8.1411 12.25064
10.6355 8.505109 5.629511
10.24252 8.561061 1.935277
12.11617 8.10475 13.95113
13.2603 8.34833 16.15247
14.09767 8.683436 16.47476
14.90611 8.565055 14.33014
15.09106 8.032955 13.08694
15.14133 7.907825 10.28023
15.74248 7.903955 5.638069
16.07893 7.99648 3.974665
16.94775 8.363548 1.349224
10.75552 8.456777 8.337359
11.0173 8.330956 10.76718
11.47162 8.216845 12.96828
10.48862 8.527401 4.803577
10.44387 8.519522 3.704301
12.10602 8.153095 14.6239
13.3849 8.396137 16.50516
14.30459 8.734775 16.17866
14.94596 8.483909 14.5049
15.10905 7.693006 11.84323
15.19724 8.035123 8.963089
15.9078 7.857471 5.454096
16.53513 8.036093 3.924961
17.34856 8.691612 0.5305162
10.77739 8.424643 9.668691
11.08381 8.311048 11.69269
11.38902 8.243711 13.0823
10.49603 8.541927 5.914603
9.984394 8.519326 0.6636525
12.36453 8.207614 15.78781
13.15474 8.322085 16.66897
14.05893 8.611359 18.06715
14.94969 8.437007 15.04697
15.14843 7.590265 11.006
15.59464 7.699409 7.456995
16.22269 7.991421 3.876146
16.26211 7.876311 5.149969
10.56318 8.507862 8.396765
10.49717 8.42754 11.78947
11.10056 8.305486 12.1932
10.18681 8.563323 4.519734
9.775118 8.517116 1.845338
11.57612 8.218848 14.00041
12.86981 8.267936 16.6036
13.52081 8.419095 18.4417
14.33245 8.710214 16.65509
14.99535 8.307723 15.42417
15.11397 7.803308 14.86398
15.16657 7.306758 13.47337
16.03048 7.887762 4.990247
16.61975 8.061926 4.295897
17.41598 8.850863 0.8556117
10.56472 8.438132 11.07858
10.49459 8.414265 12.48923
9.843265 8.541598 3.860865
9.571684 8.442317 1.32887
9.866372 8.53244 3.347336
11.84417 8.19586 14.71399
12.71756 8.258406 16.89914
13.80444 8.508647 18.92511
14.2656 8.652334 18.14383
15.08114 7.945666 16.15495
15.12966 7.582823 14.31845
15.19386 7.234857 13.34936
15.95155 7.721443 6.517332
16.97746 8.359178 3.012353
17.31778 8.763045 1.331748
10.35368 8.557169 7.750822
10.17544 8.50906 10.0546
11.12974 8.311651 13.81534
9.944722 8.558346 6.283602
9.643141 8.480145 3.24947
11.43196 8.268276 14.67734
12.51122 8.244803 16.54679
13.59635 8.435381 18.92881
14.33501 8.675788 17.62529
14.745 8.594228 16.9381
15.21212 7.359793 11.4058
15.24588 7.640998 9.63082
16.16867 7.743132 6.846368
17.02057 8.416789 3.264077
10.02749 8.562256 7.144339
10.20889 8.492726 10.48953
10.66366 8.391524 12.89413
9.745385 8.527983 4.286667
9.920212 8.547976 7.316539
9.527526 8.459132 3.833332
12.02186 8.27765 16.87667
13.10548 8.303071 17.85765
13.7124 8.465798 19.53353
14.5271 8.649857 18.34638
14.83655 8.514361 17.32992
15.22179 7.339996 11.46921
15.46174 7.415267 9.645556
16.12611 7.687977 7.672609
17.13126 8.565514 2.919461
10.06206 8.532427 8.899743
10.13592 8.488708 10.64677
11.05857 8.322716 14.37103
9.813931 8.542936 5.578454
9.437057 8.387762 2.030172
11.40545 8.281657 15.18046
12.06566 8.290229 17.31203
13.96651 8.504792 20.52922
14.31498 8.564876 20.39372
15.01519 8.159492 17.05661
15.2422 7.315892 15.41946
15.30632 7.067184 14.55129
15.92729 7.57041 8.182724
16.80917 8.254384 5.097333
17.38915 9.207563 1.415744
9.710771 8.488677 8.406464
10.16106 8.414244 13.32533
10.01785 8.413762 13.24798
9.5687 8.474041 5.556827
9.208289 8.230378 0.7712839
9.128596 8.142256 0.5509297
11.15544 8.315919 15.21939
11.55494 8.317124 17.15654
12.17591 8.294291 17.59194
12.34623 8.303783 18.09254
13.87948 8.485481 20.51371
14.12644 8.515412 20.94526
15.07901 7.978664 17.04698
15.34288 7.1176 12.45893
15.40655 6.990982 13.68428
16.23627 7.769688 7.759407
17.06017 8.583332 4.19425
9.848787 8.480649 10.2696
10.62381 8.370963 14.15796
9.724837 8.402452 13.12242
10.65817 8.366984 14.30664
9.400163 8.397285 7.065915
9.011917 8.082376 0.7847087
11.0743 8.324672 15.49323
13.10613 8.298139 19.26322
14.52317 8.563562 20.55842
14.58472 8.52544 21.20533
15.26871 7.53634 17.11655
15.43815 6.937116 15.02047
16.3669 7.87053 7.122445
16.88183 8.371255 5.19745
17.40746 9.367877 1.12853
9.590631 8.414325 11.02204
10.03561 8.360742 15.71893
9.671536 8.392285 13.32203
10.22919 8.353009 16.41304
10.6729 8.353418 15.52666
9.391443 8.396362 6.303592
8.993839 8.094511 1.808596
11.12523 8.322305 15.79757
11.84257 8.33757 18.32178
11.50532 8.335048 17.86191
13.94616 8.461864 21.74776
14.35888 8.505209 21.5753
15.1602 7.820472 17.35162
15.35258 7.101768 15.5559
15.58849 6.950989 14.00792
16.57619 8.094083 6.921095
17.31644 9.1804 2.324081
9.43679 8.37576 11.09884
9.873416 8.359921 15.47699
10.36583 8.349995 16.84612
10.866 8.340133 15.86903
9.257964 8.330433 6.731853
8.843439 7.95983 1.594313
8.977496 8.104948 2.777396
11.07575 8.340299 17.44715
12.55445 8.346452 19.61922
13.37831 8.38653 20.75836
14.13381 8.461358 22.3707
14.71356 8.481394 21.9856
15.31002 7.526662 17.52351
15.24332 7.822695 18.16748
15.67323 6.824528 15.46657
16.32547 7.871213 8.042251
16.97609 8.534429 5.183558
16.99911 9.692944 0.488453
9.30787 8.345608 10.91146
9.682626 8.352875 15.39442
10.35503 8.350163 16.6779
8.778357 8.028905 5.495327
9.207522 8.306058 7.598507
8.574438 7.716715 1.511176
8.546019 7.752464 2.688513
8.787913 8.012911 4.574587
10.79026 8.343027 16.85551
11.05547 8.353639 18.15783
12.23063 8.360983 19.41805
13.63271 8.431243 22.21492
13.6788 8.434901 22.20601
14.98561 8.453743 20.89222
15.44294 7.172482 16.71041
15.65455 7.079657 13.10435
15.98998 7.639832 10.1509
16.74348 8.309328 6.625882
17.10414 8.803978 4.87004
9.100988 8.278367 10.54556
9.486878 8.343097 14.38398
9.374239 8.358468 12.86727
9.462955 8.332472 17.17052
8.900905 8.115485 5.584087
9.070891 8.235593 7.256172
8.378041 7.587642 2.053422
8.605639 7.824568 3.270067
10.83887 8.353642 18.04063
11.82225 8.361704 19.62608
13.2066 8.376467 21.14496
14.0316 8.439977 23.24247
14.8844 8.445883 23.39491
15.46106 7.190255 17.02831
15.30767 7.904581 19.03605
15.66019 6.843741 16.21799
16.24776 7.850471 8.846034
17.06364 8.763071 5.29368
8.917438 8.194845 9.934835
9.086324 8.270573 11.18018
9.597332 8.336973 16.72497
9.161337 8.300923 14.24861
10.1687 8.352569 18.38961
8.507479 7.828753 5.328218
8.986281 8.197174 7.957726
8.370923 7.618757 2.710658
8.546611 7.600343 0.5608148
11.90461 8.361669 19.79585
13.00585 8.37699 21.397
15.13834 8.334594 19.97981
14.37711 8.444743 23.61281
15.32249 7.96482 19.41773
15.87749 6.749133 16.07522
16.10319 7.797908 9.879966
16.4414 8.094664 8.473441
17.10321 8.88473 5.150407
8.702112 8.085469 9.599831
8.405087 7.930084 9.297102
8.89826 8.213699 11.89391
9.224706 8.314196 15.87647
9.101785 8.294741 13.68612
10.21845 8.354699 18.56567
9.047129 8.304729 16.95243
9.284737 8.335878 17.96332
8.589876 7.947518 7.055365
8.529968 7.935312 7.786045
8.292355 7.530435 2.198392
10.69159 8.36487 19.06058
11.32521 8.369859 19.38189
12.87286 8.382328 21.54652
13.76272 8.434175 23.438
15.22209 8.354011 21.37085
15.54799 7.548806 19.4498
15.8286 7.566843 11.6286
15.87431 7.70994 11.2942
16.5928 8.353333 8.481586
17.08746 8.983666 5.427719
8.221066 7.88233 10.16023
8.731319 8.07487 8.726737
8.845531 8.218964 12.60471
8.763453 8.214092 13.70337
8.844716 8.303367 17.81441
9.581923 8.371411 18.21889
8.627609 8.017396 8.540846
8.172591 7.431004 1.648223
8.046148 7.253892 0.3565468
11.91441 8.367093 20.47023
12.46894 8.394042 21.3916
13.25147 8.428463 23.24505
14.93464 8.476828 23.78768
15.37795 8.005593 20.0599
15.82293 7.595869 11.71473
16.24087 8.160259 9.99282
17.1099 9.101239 5.067724
16.88898 9.679515 0.8913578
8.189209 7.957053 11.74147
8.437243 8.071285 12.1789
8.88936 8.274655 15.50123
8.971612 8.266126 14.368
8.441922 8.289544 18.16029
8.677787 8.265695 16.4202
8.309068 7.769963 6.771184
8.211907 7.364516 0.6762491
8.100141 7.591357 5.426686
10.80821 8.381038 20.31609
12.29272 8.391305 20.94663
15.30071 8.145239 20.06947
13.89468 8.522779 24.14394
15.76106 6.929863 17.54663
15.76756 7.402502 13.8153
15.83836 7.305195 14.68407
16.78452 8.557228 7.754465
16.89201 9.653543 1.640272
8.029764 7.783192 9.672153
8.375593 8.033528 11.84804
8.818577 8.246383 14.72373
8.941216 8.261484 14.43641
9.971683 8.377915 20.25077
10.21933 8.38072 20.57911
8.396662 8.31664 19.29853
8.693559 8.310895 18.52929
8.384837 8.239884 16.67784
8.0916 7.608986 5.848807
7.957062 7.363281 2.393897
7.952455 7.530535 5.512191
10.3515 8.369958 19.62695
10.50278 8.390739 21.38817
12.54695 8.413781 22.50168
12.65988 8.421615 22.93555
15.54241 7.96447 20.92821
15.45298 8.496547 23.70589
15.98162 6.811279 17.5253
16.01936 7.032485 16.09642
16.41448 8.311821 9.493089
17.04759 9.132939 5.694271
16.79753 9.665651 1.274495
7.823229 7.751403 10.37428
7.985401 8.01055 13.63862
8.218396 8.116996 14.37891
9.853666 8.372313 19.29659
10.15584 8.38656 21.1041
7.981653 8.260506 18.07052
8.927883 8.337629 19.2422
9.31692 8.359818 19.09617
7.850063 7.365174 3.257099
7.958215 7.615209 7.035412
11.29072 8.395371 21.39666
11.15447 8.391542 20.88421
12.24082 8.400154 21.65332
15.45318 8.292175 22.0607
15.77497 8.654369 23.98244
15.88343 7.18236 18.81394
16.0154 7.031824 16.18462
16.69678 8.732431 9.215333
16.91812 9.541433 3.822804
7.809534 7.729679 10.08441
7.923862 7.624327 7.426327
7.844114 7.869369 12.18949
8.18408 8.078787 13.87456
9.465837 8.381256 20.96889
8.087277 8.290575 18.96172
9.095172 8.353534 19.69435
7.938991 8.216035 17.00492
7.784518 7.390757 4.040731
7.821927 7.419526 4.451186
11.03918 8.399025 21.86621
11.90143 8.386882 21.10413
12.03577 8.404467 22.57134
13.51501 8.610778 24.31611
16.08412 8.539248 23.65177
15.89147 7.158075 18.72133
15.92477 7.254243 15.87186
16.81739 8.764835 8.238435
16.87315 9.54836 4.271163
16.29122 9.498484 0.7118578
7.644338 7.517726 6.986347
7.731043 7.746047 10.71885
7.90587 8.132624 15.64006
8.055494 8.106934 14.7824
9.236648 8.382993 21.33212
7.87712 8.273868 18.70028
8.414142 8.355058 20.5493
7.720473 8.105926 15.60344
7.500093 7.311092 3.071322
7.529083 7.378924 4.57602
11.54983 8.399539 21.52908
13.32836 8.54377 24.23365
16.16076 8.74542 23.97595
15.99654 7.346745 19.43991
15.75478 8.062381 12.09389
16.39201 8.591123 10.59357
16.93564 8.889709 7.25806
16.58803 9.646441 2.047236
16.07703 9.366302 0.8020003
7.553531 7.486878 6.721664
7.774438 7.917151 13.20908
7.871955 8.0797 14.87237
8.728333 8.386588 21.61786
10.55452 8.387364 21.9651
7.821489 8.330872 20.49771
7.524263 8.225605 17.59545
7.492853 7.346163 3.953574
7.334674 7.234124 0.3067328
13.45206 9.111391 24.47754
15.96119 8.367379 23.04446
15.50228 7.797013 14.38082
15.97719 6.822382 16.7716
16.35333 8.572967 10.70851
16.8739 8.923888 7.965822
16.77116 9.593652 4.968393
7.328347 7.651404 10.30583
7.409534 7.757465 11.86199
7.465824 8.043116 15.17056
9.10936 8.391265 21.7938
8.142657 8.375996 21.41436
7.82115 8.311159 19.94495
7.455968 8.169899 16.81671
7.410973 8.177958 16.95727
7.32678 7.275118 0.9338624
7.334214 7.435298 5.76792
15.79703 8.02886 21.88093
15.43551 9.175505 24.12503
16.19553 7.493553 19.48428
16.18666 6.826067 17.17188
16.45603 8.7995 11.1419
16.8546 9.13087 8.263454
16.61081 9.665478 4.744271
7.318009 7.623508 9.803845
7.235904 7.512581 7.421428
7.437963 7.983259 14.47045
10.58574 8.367832 22.11219
7.525902 8.32018 19.76939
7.262764 8.100383 16.08379
7.241395 7.341339 2.797507
7.19526 7.442038 5.485184
12.22012 8.367951 23.01945
14.53366 9.228092 24.22185
15.99297 7.724729 20.84372
15.66921 8.212955 12.52681
16.47113 8.77306 10.93221
16.8411 9.239066 8.346231
16.5439 9.672261 4.89418
7.270679 7.623158 9.811199
7.292722 7.556785 8.474972
7.345122 7.939471 14.12284
6.972436 8.398647 22.12201
7.42452 8.318674 19.48569
7.601446 8.350385 21.05828
7.045108 8.185587 17.33645
7.16712 7.382829 3.479486
7.01994 7.535222 6.896794
13.01841 8.408976 23.99507
14.19986 9.264064 24.22904
16.19747 7.609133 19.77554
15.58872 7.416349 16.1202
16.67298 9.160391 10.55818
16.60497 9.651049 6.031283
16.06757 9.394275 1.743904
6.973031 7.584769 8.108014
7.079722 7.818369 13.03168
7.334988 8.383352 21.73817
7.157335 8.327129 19.31706
7.05806 8.288608 18.78938
6.839265 8.218825 18.1218
7.017552 7.516283 6.143597
6.919538 7.523081 0.6179529
14.85686 9.326025 23.98462
16.22797 8.518533 22.90327
15.32763 8.023614 14.82172
16.30807 8.749872 11.76645
16.75186 9.450051 8.584021
16.18824 9.570506 3.446982
6.952482 7.649385 9.761599
7.061185 7.814845 12.98623
7.379235 8.378156 22.55969
7.055268 8.342457 19.86483
6.780352 8.141809 16.74547
6.943779 7.506901 2.835599
6.933051 7.53805 5.381803
6.887754 7.554742 0.6970051
13.182 9.379458 24.00171
16.1589 9.311964 23.75179
16.20114 7.859364 19.46324
15.83121 7.20224 16.81926
15.8717 8.524843 12.54933
16.72801 9.552279 7.334236
16.21822 9.625597 4.536438
15.42231 9.052999 0.8211321
6.870418 7.79502 12.33426
6.649255 8.415324 22.61648
6.791134 8.377618 21.5398
6.8998 8.070661 15.77973
6.404116 8.174049 16.67049
6.947278 7.500699 3.38841
6.862541 7.62612 8.225071
12.50822 8.318922 23.68212
12.98869 9.393729 23.94017
16.35526 9.305549 23.50754
16.19402 7.814862 19.11428
15.67001 7.285349 16.79709
16.57155 9.585396 9.88085
16.15938 9.62627 5.257295
15.81517 9.269691 2.424823
6.783679 7.754896 11.10734
6.851391 7.859546 13.26965
6.473362 8.406558 23.04113
6.832207 8.36635 21.1298
6.55894 8.113448 16.00522
6.866804 7.589323 1.77522
6.762136 7.655682 3.960382
6.644202 7.929505 0.7922642
11.85303 8.243226 23.12247
12.78139 9.325642 24.31669
15.46901 9.393417 23.4851
16.18029 8.081286 20.31354
15.32652 8.322765 14.43185
16.13581 8.758354 12.64717
16.5602 9.650885 8.294906
15.97347 9.508037 4.720876
15.66512 9.181399 2.379782
6.5644 7.798933 9.210735
6.266755 8.419599 22.91423
7.954226 8.30187 22.6552
6.725751 8.347526 20.68357
6.33847 8.199709 17.1295
6.75733 7.727115 1.734058
6.634131 7.747375 7.446054
16.25289 8.439444 22.18857
12.50091 9.416363 24.25042
13.19047 9.404003 23.62101
16.47774 9.403007 23.0965
16.10378 8.254585 20.20114
15.62693 8.495543 13.42925
15.94678 8.717845 13.20856
16.55128 9.660387 7.795746
15.68776 9.240035 3.138051
6.635218 7.824789 11.69361
6.477378 7.923741 12.61255
6.169815 8.404671 23.36687
10.2679 8.274403 22.23689
6.543086 8.048111 14.83974
6.357598 8.193446 18.43392
6.568079 7.853053 4.996433
6.540689 7.815536 8.610817
11.53909 8.273275 23.21478
14.51426 9.412633 23.01122
15.17529 9.419576 23.14988
16.63379 8.538859 23.01749
16.1682 7.715499 17.98806
15.12676 7.927988 16.39023
16.39251 9.708769 9.488576
16.13047 9.636291 5.942341
15.38518 9.074829 2.019228
6.414764 8.01274 13.76443
5.945735 8.361775 21.86849
10.32225 8.269816 22.29308
6.315848 8.131195 15.1713
6.223828 8.212601 18.94581
6.484787 7.952438 5.372617
6.436073 7.898757 9.357266
11.33288 8.296086 23.19799
14.17449 9.412001 23.07613
12.69321 9.413295 23.22936
15.0481 9.449175 22.5733
16.84023 8.989847 23.09991
16.0539 8.423306 20.21527
16.0067 7.486729 16.86324
16.25732 9.743175 10.01603
15.92553 9.546537 6.075522
15.40711 9.051527 1.412734
6.403076 7.931472 10.88496
6.149601 8.320227 21.1742
8.495627 8.263824 22.49356
6.098023 8.271937 20.23686
5.969966 8.291928 16.10426
6.582229 7.918631 3.18408
6.422395 8.081933 4.762941
6.307135 8.015319 9.583694
12.33209 8.420752 24.08908
13.84873 9.418181 22.67344
14.48543 9.426559 22.41038
11.87587 9.426287 22.79371
16.33772 9.314501 22.78406
15.99947 8.525318 19.88295
15.2513 8.448724 15.12018
16.45305 9.211007 12.69168
16.03595 9.625076 6.862587
15.49882 9.190812 3.902655
6.261136 8.058635 9.79519
5.564768 8.413087 22.90738
6.040326 8.295405 20.68301
7.408894 8.399838 23.22615
6.159681 8.159229 14.19134
5.938441 8.307627 17.35777
6.476269 8.095167 3.243173
6.358404 8.20052 4.592804
6.283829 8.061847 8.813583
10.71728 8.286167 22.69907
13.15312 9.409235 22.69212
14.09006 9.435664 21.94081
12.25298 9.416865 23.00783
15.2623 9.503802 22.20893
16.79745 8.485838 22.79719
15.85371 8.015079 17.88761
15.07641 8.21657 16.46446
16.50273 9.397342 12.31826
16.13451 9.68629 7.387148
15.53572 9.237067 4.507854
6.274098 8.037 10.61529
5.351453 8.42533 23.32421
6.279345 8.45036 23.96271
7.060312 8.394588 23.32354
5.760435 8.395857 16.04809
6.432993 8.247597 2.161781
6.265493 8.364304 4.362318
6.282918 8.236574 5.742075
6.294338 8.443998 0.8631114
12.06436 9.462274 24.03536
13.76912 9.448919 21.61078
14.31449 9.435174 21.63171
14.86201 9.471096 21.65149
16.52857 9.531166 22.73581
16.04591 8.651443 19.899
15.97627 7.753285 17.13506
16.36708 9.156747 13.34928
16.11226 9.725656 8.923239
15.69199 9.436872 6.761062
15.03371 9.112567 2.358543
6.145283 8.165154 10.45008
5.017223 8.431763 23.30708
6.599355 8.38833 23.68416
5.968021 8.272584 13.73902
5.659955 8.391934 18.54418
6.256058 8.120482 8.203027
6.125103 8.508063 5.155791
6.064707 8.337506 8.791834
12.2019 9.487147 24.32913
12.97643 9.396298 22.14756
14.08019 9.450666 21.16783
14.64449 9.455903 20.57975
10.80933 9.432117 22.58043
15.07896 9.512764 21.51613
16.96791 9.159036 22.58707
15.66751 8.160773 17.69152
16.11457 8.95997 13.91035
15.96504 9.674735 8.804456
15.66017 9.418785 6.790615
15.48786 9.274739 5.759944
6.01051 8.273333 11.32264
4.760162 8.430997 23.66381
5.722527 8.49724 24.02453
7.280675 8.439049 23.77697
5.570549 8.509307 15.76555
5.697218 8.399855 17.6702
6.160962 8.522491 4.03139
6.110871 8.401123 6.985529
6.283789 8.459386 1.721531
12.05274 9.504673 24.14056
10.24011 9.43257 23.48497
13.33844 9.444762 21.22635
13.94071 9.484664 20.33871
14.43596 9.449783 20.44306
10.71059 9.425285 22.39921
14.97498 9.508512 20.85023
16.36417 9.333493 22.35521
16.17423 8.782332 19.97144
15.25239 8.671815 15.67075
15.99845 9.748994 10.43451
15.48282 9.319943 6.829844
15.24486 9.163136 4.786634
5.982877 8.308615 11.17523
5.052566 8.46292 22.5874
5.319847 8.467375 20.976
5.633715 8.494338 14.82097
5.627799 8.529084 13.91263
5.247588 8.629801 17.38643
5.606669 8.422002 18.30666
6.039639 8.569252 5.723307
5.886905 8.583331 8.109618
6.188094 8.548669 2.115968
11.812 9.472539 24.15739
9.66256 9.435283 23.39135
14.06306 9.48468 19.9415
14.86305 9.487706 20.60452
12.0322 9.404937 21.66452
10.28337 9.419468 22.13038
15.30775 9.6098 20.82751
16.9536 8.4379 22.46458
15.58139 8.299053 17.74907
15.19818 8.669085 16.31526
15.95388 9.695163 9.242667
15.09011 9.149199 4.481167
14.56827 9.55074 0.7011407
5.326732 8.436672 22.34312
5.219971 8.485431 21.37906
5.722136 8.473958 13.4205
5.231885 8.624039 17.75998
5.338387 8.492376 19.8303
5.928691 8.693287 5.298903
5.805276 8.570795 9.571299
5.918285 8.725911 1.76323
10.59921 9.416413 23.24948
10.68398 9.419484 22.81536
13.2637 9.453578 20.51959
13.85742 9.509283 19.71679
14.83502 9.502337 19.41465
14.39642 9.461674 19.73693
11.7657 9.418589 21.3259
15.14632 9.570602 20.43163
15.56325 9.703267 20.17161
15.62592 8.314547 17.9504
15.59588 8.867317 15.33899
16.16044 9.09438 14.46758
15.98514 9.783526 12.04527
15.10872 9.166531 5.135622
5.870832 8.399875 11.60003
4.759601 8.601749 24.2582
5.113622 8.49701 21.79783
5.443748 8.645113 14.28098
5.099967 8.656713 18.55573
5.28875 8.498805 20.25691
5.758662 8.799916 5.347127
5.705831 8.606671 10.57233
5.376234 8.747522 0.8554235
9.417834 9.438882 23.50996
13.03222 9.389087 21.46293
13.55053 9.519526 19.24837
14.02148 9.508588 19.16953
14.9992 9.556216 18.48251
14.66919 9.495626 18.00883
11.50479 9.408992 21.57314
10.72411 9.393039 20.80894
11.15149 9.38817 20.89407
16.32946 9.221782 22.05331
16.55024 8.365035 21.05531
15.4861 8.172482 17.38419
16.1574 9.759684 12.52629
15.13077 9.200638 6.365172
14.81139 9.234275 4.082764
14.62153 9.403112 1.953839
4.765245 8.690527 24.3476
5.04328 8.545769 21.22365
5.224027 8.755704 14.77791
5.550849 8.629877 12.85442
5.101771 8.630572 19.11449
4.927305 8.652083 20.22138
5.701199 8.832423 5.095447
5.604115 8.699798 10.22136
5.719316 8.802128 2.093161
7.878654 9.437366 23.78793
9.231757 9.421317 22.97874
12.86645 9.339939 20.41746
13.65415 9.560007 17.99057
14.85645 9.517491 18.55133
15.10622 9.589769 18.82902
12.47147 9.323732 20.77948
10.64705 9.392431 20.44417
11.23385 9.391165 20.81219
16.39918 9.372083 21.93601
16.49518 8.538152 20.52278
15.36892 8.070969 17.68668
16.0545 9.791173 12.40992
15.45798 9.51674 10.86602
15.24548 9.271271 7.870101
14.98018 9.197384 6.007429
4.867805 8.89056 24.40783
4.871391 8.56545 21.6556
6.047727 9.044038 24.66807
5.110361 8.78277 15.50903
4.980678 8.79636 16.4498
5.693604 8.758091 7.559152
5.511199 8.868324 6.334923
5.382661 8.789147 1.428157
8.840183 9.436645 23.85037
9.492891 9.416745 22.88319
13.01264 9.39412 19.63919
13.93651 9.572333 17.25241
15.27361 9.662418 18.17914
12.35003 9.351446 20.99262
10.35375 9.415225 20.27024
9.9887 9.410345 21.759
15.63475 9.727199 19.41628
17.04233 9.797656 21.99594
16.37473 8.71479 19.42096
15.13895 8.619342 17.15971
15.48941 9.572855 11.58027
15.13144 9.254589 8.065668
14.705 9.312789 4.234317
4.048099 8.580276 24.11952
4.4687 8.648946 21.22695
5.665277 9.342036 24.30458
5.407915 8.776671 11.37173
4.826062 8.779231 18.31525
5.608494 8.864325 4.358798
5.407209 8.878198 7.022455
5.541182 8.861212 3.167536
4.865548 8.639181 0.2473551
6.783352 9.443213 23.63959
8.049715 9.433188 23.03535
12.69074 9.317275 19.55785
13.34363 9.515406 18.23549
14.92744 9.537319 16.75096
12.02262 9.381371 20.3336
10.68217 9.38003 19.67107
9.680612 9.401795 21.72779
15.88054 9.557591 19.84749
16.67437 8.17188 21.45614
15.90049 9.031718 15.45847
16.25741 9.305839 14.63475
15.29887 9.35745 9.325719
14.70959 9.302944 5.683244
14.51519 9.595654 2.178294
3.766 8.437137 23.6378
5.905387 9.374637 24.2342
4.966671 8.850666 15.40319
5.203432 8.851428 12.54815
5.544497 8.880057 4.393844
5.370059 8.89308 6.042189
5.129282 8.773023 1.786157
8.40299 9.465451 23.94776
6.547468 9.443492 23.52231
8.464028 9.430319 22.82421
13.31391 9.525389 17.72743
15.02234 9.557131 16.45924
14.42613 9.508018 16.58711
11.51378 9.391009 19.63274
9.924886 9.396754 20.89121
10.89682 9.353243 18.86188
17.11572 8.383937 21.86659
16.62803 8.166918 20.38235
15.41973 8.344677 17.94252
15.21704 9.407966 11.12976
14.88688 9.245279 7.245687
14.38586 9.951166 2.018553
14.4227 9.927509 1.375834
3.731615 8.79524 24.1319
4.931646 9.23162 24.33459
4.838948 8.886796 15.48421
4.636774 8.821894 17.88535
5.464885 8.883122 4.004514
5.280989 8.896709 5.974694
5.017153 8.748135 1.793831
9.922655 9.474358 23.90151
5.970479 9.440491 23.45828
9.19854 9.450254 22.42772
12.89655 9.389705 18.51299
13.5946 9.618791 16.63315
15.1994 9.630441 16.61007
14.49956 9.49691 16.27689
11.33234 9.359607 18.96473
10.68038 9.350653 18.43452
9.20033 9.417008 21.94537
15.89593 9.583859 19.29968
16.87655 8.780082 21.79727
16.64483 8.120845 19.88942
15.08984 8.488354 17.51694
15.51266 9.629382 12.38099
15.09869 9.27307 8.79394
14.35539 9.908574 3.496197
14.27701 10.17867 2.476757
3.564525 8.430771 23.49769
4.053149 8.312401 22.61873
5.250319 8.884951 9.864779
5.00127 8.913491 13.43826
5.248528 8.883066 4.316726
5.301506 8.896719 5.376746
4.80814 8.662464 1.083295
3.990057 8.517517 0.7804971
8.480124 9.483911 23.96348
6.916618 9.427114 22.24864
7.271903 9.43481 22.843
7.772262 9.421972 21.96045
12.82194 9.362293 18.79344
13.2667 9.567388 16.52967
15.08609 9.571935 16.16537
12.36151 9.293724 19.45873
11.56728 9.344974 18.67083
10.26397 9.362082 18.38963
9.426363 9.314185 20.94001
15.92239 9.560588 19.06659
16.98893 8.592381 21.8412
16.71559 7.985056 20.03864
15.31751 8.839468 17.51546
15.17876 9.419393 11.63113
15.67579 9.734067 12.90027
14.47178 9.602802 4.578508
14.36267 9.874858 3.734502
3.611662 8.458663 23.67795
4.244161 8.525415 21.28675
4.875227 8.924239 14.36175
4.912257 8.936322 13.73494
5.051998 8.903363 7.765263
5.108727 8.893211 6.686249
4.676296 8.644311 1.603423
3.97098 8.562316 0.3264791
4.932025 9.431079 23.78815
4.851522 9.446126 23.40087
4.943029 9.447062 23.12886
7.206744 9.420535 21.9053
7.632296 9.423235 22.05693
8.318705 9.430217 22.43538
12.41055 9.311405 17.9866
13.45287 9.657623 15.9341
14.72812 9.473527 15.78586
12.16911 9.302974 18.9417
11.87887 9.300642 18.01637
10.11798 9.353029 18.15784
9.704703 9.322084 20.22167
15.68343 9.145979 20.20789
17.14656 9.350373 21.60336
15.48383 8.756305 17.99028
15.83637 9.79265 13.23269
15.07583 9.402519 12.11528
14.47663 9.546186 5.725083
14.33401 9.947423 3.662023
14.0337 10.63967 0.9539715
3.491612 8.615484 23.9569
4.859047 8.948257 13.75243
4.854922 8.968555 13.06661
4.566293 8.900797 15.63517
4.907095 8.953089 9.637444
4.962282 8.790111 3.087526
4.615525 8.708097 3.642238
4.356964 8.562963 1.112383
4.540717 9.460214 22.47967
5.946355 9.44394 22.54518
6.138721 9.440719 22.72493
7.583417 9.391401 21.00255
8.946167 9.428321 22.11648
13.36323 9.683555 15.41048
15.25617 9.641617 15.96339
12.19925 9.297547 18.72403
10.47944 9.301221 16.76751
9.945698 9.364979 19.13528
10.54303 9.310441 17.11802
9.161182 9.372029 20.96887
15.65012 8.856476 20.74299
17.20526 8.114556 21.39999
15.18272 8.267841 18.27795
14.8915 9.343088 11.05241
14.67987 9.340257 8.285701
14.41866 9.655241 5.411884
13.94703 10.65862 1.25902
3.169724 8.814896 23.98075
4.60188 8.940058 14.82361
4.330796 8.708145 19.38066
4.637315 8.87852 7.425865
4.841713 8.970967 9.938146
4.923357 8.868203 6.426422
3.927831 8.476503 3.167241
4.300931 8.556669 1.458349
4.234561 9.460793 22.8989
5.192586 9.451448 22.06816
7.184216 9.405545 21.1972
6.742732 9.425071 21.28967
7.998907 9.42195 21.67155
12.19057 9.302186 17.50346
13.01863 9.526577 15.57597
14.88523 9.468642 14.95883
14.38892 9.509892 15.61606
10.63849 9.295135 16.66765
9.651293 9.306475 17.70151
8.820944 9.457808 21.22126
16.67381 9.921864 21.17261
17.15864 7.848354 20.70951
15.17541 8.639963 18.0712
16.01377 9.782228 14.23276
15.05592 9.422995 12.70631
14.49822 9.491708 6.81046
14.11647 10.49259 1.533835
3.333943 8.463888 23.4595
4.581032 8.948977 14.57811
4.226882 8.583952 18.20316
4.625523 8.837045 6.562343
4.891106 8.868352 6.694449
4.788539 8.959801 9.39136
4.325974 8.576188 2.528819
3.566399 8.548434 0.7707585
4.623476 9.455948 21.98767
4.976799 9.446634 21.33156
7.452777 9.374556 20.22455
6.363099 9.448438 20.58076
7.862847 9.40177 20.98999
12.51181 9.346368 16.69372
12.99091 9.521338 15.30585
14.57885 9.456063 14.80894
16.0009 9.491271 17.96634
10.90482 9.27992 16.35627
9.463898 9.296755 17.94806
9.703229 9.295483 16.19504
10.2733 9.299852 16.5715
8.793963 9.488792 20.70461
16.40948 9.248384 20.92289
17.26793 8.26478 21.33718
15.13861 8.534396 18.11661
14.85632 9.353906 11.43521
14.68969 9.35381 9.707487
14.46635 9.529322 7.384291
14.16976 10.14959 5.128709
14.0518 10.51684 1.932621
3.779483 8.142582 22.42764
4.128807 8.279696 21.46832
4.601617 9.021037 11.96987
4.21846 8.656869 16.30269
4.614897 8.806791 5.930415
4.006353 8.493927 2.582008
3.738148 8.494576 1.538754
3.171842 8.663401 0.56868
4.94733 9.450354 22.08851
5.672463 9.452563 21.86086
5.751975 9.467899 20.63122
7.147409 9.392588 20.23602
6.010653 9.469028 20.28372
6.227269 9.461639 20.21622
7.546265 9.358951 19.65142
13.15685 9.665469 14.60171
13.65384 9.850297 14.00171
15.94506 9.686938 17.17893
10.38313 9.267028 15.39264
10.94063 9.238397 15.35061
9.415589 9.298575 18.6437
9.068498 9.314752 16.77067
9.288911 9.307072 20.41767
15.81569 9.191682 18.81066
17.13882 10.0597 21.10789
15.18283 8.363089 18.5311
16.00548 9.74715 15.30946
14.99338 9.43175 13.30761
14.39048 9.638714 7.165051
14.13894 10.2475 4.385675
3.700726 8.126696 22.3407
4.169628 8.185891 20.14557
4.512167 8.991258 13.33364
4.185346 8.459778 17.98849
4.18097 8.903973 8.555362
3.883974 8.47979 3.731582
4.334523 8.730089 5.314098
4.139374 9.50293 21.30514
5.183843 9.45096 20.90623
5.921061 9.477061 19.80819
4.887053 9.440852 20.37487
6.135848 9.488292 18.49273
6.379558 9.47285 18.39611
7.704864 9.346033 19.42343
12.55747 9.341105 15.92649
13.45105 9.844806 13.90163
14.64797 9.442483 14.52461
16.00572 9.581178 17.45314
9.808144 9.264739 14.69011
10.71579 9.254218 15.49307
8.793685 9.300042 16.2182
9.330729 9.277969 15.41539
8.53858 9.492023 20.52742
15.60727 9.041497 18.95992
17.26437 9.369865 21.17623
15.73201 8.867208 18.58028
16.0078 9.783168 14.54686
15.56247 9.745038 14.66248
14.23394 9.876502 7.492624
14.07227 10.29657 4.821138
3.480841 9.467899 22.94126
2.981012 8.301535 22.88089
3.875406 8.028355 21.70805
4.177245 8.337995 18.18757
4.356448 8.742129 5.42163
3.631229 8.38965 3.800668
4.129274 8.713778 5.673272
4.068661 9.50293 21.71535
4.549799 9.453841 20.65454
5.165643 9.450062 19.85307
5.003797 9.439537 19.23693
5.988813 9.497705 18.24
6.273773 9.491447 17.641
11.96078 9.280651 16.57373
12.80377 9.436609 15.06935
13.6142 9.883077 13.6431
15.52819 9.744559 15.17893
10.07747 9.251484 14.19876
11.40994 9.253129 16.05566
8.912673 9.347065 17.34942
9.148527 9.275512 15.36646
9.23408 9.256629 14.58111
8.9471 9.4109 19.31555
15.44652 8.917131 19.26917
16.91627 7.761883 19.80488
15.75793 9.801397 14.81027
15.45624 9.690363 14.35959
14.34259 9.685113 8.086187
13.7459 10.62223 2.393414
3.61365 9.463864 23.045
3.189616 8.241796 22.32962
3.82981 7.96591 21.53565
4.177714 8.297276 18.73149
4.063725 8.821943 7.511186
3.512107 8.372964 3.207593
3.999693 8.689904 5.893752
2.837351 8.8104 0.5185927
4.520363 9.453485 19.32591
5.054507 9.439688 18.32209
5.81946 9.499587 17.9803
4.941395 9.43089 18.13628
6.203757 9.494203 17.78356
7.628915 9.321778 18.78608
12.69957 9.398035 14.5702
13.4828 9.902232 13.23197
15.39037 9.670555 14.84242
10.52738 9.222413 14.08597
11.24871 9.173738 14.33135
11.6911 9.230178 15.68633
8.738225 9.329397 16.90947
8.591571 9.284612 15.78919
8.345328 9.318048 16.88044
9.42617 9.250524 14.11894
8.889948 9.419457 19.03693
16.52573 9.381742 20.5001
16.0592 9.640085 16.06838
14.3606 9.611763 9.84498
14.33148 9.692655 8.346517
14.17747 9.91831 8.365202
13.87941 10.47912 4.150252
2.702157 9.226645 23.71012
4.144185 7.961118 20.24871
4.271811 8.96917 11.75143
4.166283 8.818982 7.076541
4.197792 8.951494 10.74741
3.472673 8.330998 4.231601
3.375248 8.438702 2.22488
4.124427 9.517463 20.53883
4.549708 9.448964 18.25599
5.464813 9.476678 18.05783
7.094017 9.394324 18.81586
6.925768 9.41823 18.20558
6.361126 9.493552 17.21504
8.222026 9.41275 19.46096
11.95168 9.188241 14.6939
12.94411 9.589661 13.58832
14.23923 9.610128 13.67096
10.07541 9.236884 13.24577
10.36533 9.211832 13.03031
10.71255 9.199876 13.90447
9.148322 9.33609 18.0055
8.389781 9.229327 14.69527
8.115144 9.233155 14.69267
8.492667 9.442329 18.98903
16.66889 9.940331 20.54021
16.00223 9.047428 18.66776
14.23977 9.81189 8.67026
13.60254 10.63731 2.183438
13.46611 10.64862 1.46727
3.61183 7.988021 21.71327
3.959951 7.827987 20.71495
4.218696 8.143261 17.39922
3.920263 8.775582 7.831185
3.140971 8.317074 3.561121
3.856767 8.688908 6.834192
3.853072 9.606858 19.83329
4.479787 9.459533 18.45945
5.227245 9.452887 17.46778
7.208446 9.388162 17.69626
6.504632 9.495233 16.67089
8.134804 9.355886 18.55246
12.31687 9.24111 14.23654
13.17022 9.788555 13.01708
14.54232 9.451244 13.32962
9.968544 9.209916 11.45944
10.48888 9.201065 13.13638
10.81166 9.16895 13.3475
11.8141 9.176056 14.54821
9.152214 9.237341 14.11118
8.422359 9.190787 14.06025
8.129095 9.162526 13.57872
8.883198 9.215072 14.01175
16.11741 8.825882 20.26549
17.27133 7.754783 20.1841
14.41923 9.516424 12.14388
13.78457 10.34275 6.74182
13.75649 10.38712 6.242678
13.30157 10.53508 2.492506
2.859714 9.293845 23.22515
4.206608 7.9586 19.40059
4.231905 8.96268 11.15584
4.235543 8.070201 17.10532
3.974401 8.82442 10.01205
3.72137 8.579255 6.522962
2.476357 9.046412 0.6644328
4.132897 9.535645 19.20999
4.901886 9.407634 16.91489
5.095469 9.426124 16.81763
7.027676 9.415677 16.90232
12.26211 9.21806 13.99871
13.36561 9.937023 12.45537
9.98711 9.170551 10.01053
10.23797 9.179449 11.03651
10.69411 9.154785 12.38407
11.36929 9.123368 13.56469
11.85109 9.153508 14.09578
8.374422 9.160667 13.56987
8.083981 9.166743 13.60986
8.503457 9.112121 12.49781
9.236687 9.192507 12.35197
15.65725 8.530254 19.79481
15.68682 8.522747 19.16119
14.26988 9.699924 10.30429
14.05433 10.00667 9.118652
13.58202 10.50333 4.72002
13.1373 10.43628 1.96352
3.014485 8.129368 21.92962
4.120211 8.826337 12.82613
4.238965 8.024651 16.58256
3.970122 8.805329 10.38465
3.523839 8.395889 6.019137
2.555137 8.851811 1.636224
3.984514 9.591449 18.7318
4.623956 9.402028 16.66138
4.972811 9.391517 16.3134
6.52049 9.498482 16.47504
7.889695 9.301411 17.90847
12.90297 9.589446 12.86312
13.40132 10.01291 11.51856
13.61243 10.0184 11.82042
9.54176 9.16263 10.2123
10.83994 9.128878 12.40114
10.95397 9.10773 12.39715
8.679104 9.423276 18.34439
8.432737 9.084018 12.04172
7.758841 9.227019 14.07614
8.63138 9.118694 12.3934
9.046782 9.14601 11.73351
16.24051 8.973445 19.94484
15.91502 8.810527 19.34324
14.32338 9.574889 12.85134
13.71572 10.27474 8.027421
13.20405 10.42307 3.69135
13.16675 10.44351 2.598469
2.877226 8.0541 22.16475
4.068933 8.621331 13.96798
4.173065 8.152889 15.938
3.964992 8.771595 10.77613
3.560354 8.428538 6.324312
2.254951 9.311284 0.814241
3.983037 9.597746 18.41809
4.735285 9.390807 16.62349
5.052345 9.401999 16.2447
6.622737 9.499968 16.03507
12.31992 9.210279 13.33724
12.86656 9.585741 12.40772
14.06275 9.763845 13.07957
10.12731 9.128122 9.066603
9.742413 9.133664 8.93417
10.62694 9.13 11.35545
11.00716 9.062647 11.52705
8.15912 9.109768 12.67879
7.566639 9.339639 17.27453
7.559945 9.309082 15.1573
8.552752 9.083793 11.75313
8.891518 9.065336 10.19359
9.207177 9.115795 10.16963
16.64855 9.889804 20.07788
13.59739 10.3491 7.120265
13.73946 10.22626 8.612123
13.20694 10.41613 3.863137
12.89818 10.24153 0.6326044
2.431481 9.203071 23.26059
4.062739 8.415017 14.44921
4.250012 7.980803 16.511
3.773993 8.560201 9.646415
2.892692 8.245316 4.516376
2.464985 9.017201 1.167928
3.943914 9.625954 17.55105
4.699754 9.354104 15.90556
6.220062 9.605355 15.48593
7.046469 9.415002 15.84173
12.64959 9.39018 12.48251
13.77976 10.06748 10.71966
10.17835 9.100247 8.441625
10.42305 9.09534 9.25696
10.849 9.08499 11.33768
10.65598 9.04914 9.257051
10.97098 9.070396 11.56901
11.23133 9.020623 11.38715
8.060553 9.092214 12.06473
7.671285 9.240468 13.97925
8.622391 9.025683 10.01384
8.763244 9.095965 11.45888
8.783562 9.008691 9.046922
9.12235 9.061035 9.055025
16.02102 8.824172 19.74253
13.94732 9.990629 10.60013
13.672 10.21952 8.968236
13.20024 10.33456 5.190128
12.73712 10.03937 0.7686442
2.924848 8.051646 21.63296
4.037162 8.344922 13.89724
4.286602 7.896931 16.56551
3.615598 8.408223 8.231331
2.779695 8.275439 4.559917
2.513484 8.775347 2.379321
2.200081 9.424953 0.8364398
3.82517 9.684996 17.01568
4.572778 9.389843 16.2655
5.036846 9.382817 15.76425
6.922751 9.449121 15.45774
12.48261 9.273178 11.96955
13.04436 9.814142 11.27631
13.40335 10.11583 10.1128
10.28889 9.125674 9.460333
9.431229 9.064285 7.899278
10.79288 8.983466 8.217366
10.9166 8.984979 9.001291
11.44212 8.958572 10.36813
8.258774 9.018913 10.13671
7.734091 9.159656 12.57995
8.747178 8.992623 8.736961
15.83674 8.624179 19.58834
13.40537 10.37381 6.25753
13.09756 10.26556 4.819445
12.81404 10.05262 1.766223
12.5204 9.70165 1.139928
3.025819 8.076041 21.3891
4.012589 8.449804 13.46478
4.403172 7.596184 16.71694
3.714247 8.436463 9.437854
3.141769 8.158926 5.727362
2.317142 9.110079 1.897523
3.253844 9.625039 20.41105
4.853342 9.33626 15.50124
5.791978 9.639755 14.93034
6.855034 9.487621 14.78613
12.03028 9.075507 12.14419
12.90376 9.713573 10.62648
13.77761 10.13088 9.845497
10.38174 9.04733 7.826297
9.594863 8.990593 6.062176
11.6605 8.977314 10.85326
11.25355 8.945316 9.394363
11.79053 9.022908 11.83261
8.370317 9.012281 10.01319
7.563557 9.204933 12.1065
8.684071 8.960432 7.934907
16.55715 9.238577 19.22755
13.19842 10.27139 6.23764
12.82569 9.992443 3.245649
3.049842 9.12546 22.12935
2.25614 9.134437 23.11138
3.921775 8.557763 11.77415
4.199853 7.948832 14.84383
3.730659 8.239276 9.977841
3.2025 8.130745 6.469306
2.218683 9.393712 1.404169
3.175622 9.635836 19.76715
4.372099 9.397998 15.55717
5.376702 9.492146 15.00045
6.148278 9.758087 13.63374
12.21664 9.133584 12.0553
12.86863 9.68845 10.40109
13.38783 10.13864 9.731559
9.054178 8.953117 6.460271
9.746127 8.997132 6.054087
11.7976 8.995726 10.88419
11.6379 8.954154 10.1292
8.239645 8.995243 9.215865
7.718416 9.143954 11.62425
8.66205 8.951602 7.706888
13.25403 10.27257 6.746694
12.97168 10.10567 5.161597
12.65802 9.73318 2.808305
12.64783 9.710862 2.902773
3.089975 9.357784 21.18208
4.135397 7.364908 18.55812
4.26502 7.402167 18.18639
3.33314 8.108875 7.491025
2.583538 8.409699 4.454795
2.418448 8.769298 3.156721
2.245974 9.050697 3.905179
3.101903 9.555137 20.04331
3.944359 9.626478 15.39102
4.619959 9.308712 15.04321
5.714356 9.666315 14.23835
6.583377 9.619663 14.04316
12.1859 9.094431 9.98875
12.54451 9.337213 10.67389
13.07213 9.94751 9.669743
9.964898 8.980903 5.822304
9.58375 8.936386 5.157564
10.94265 8.887682 6.306196
11.58725 8.919717 8.84652
8.282731 8.986316 8.900419
7.554042 9.200762 11.39212
8.39517 8.942525 6.610135
13.12366 10.17832 6.71158
12.73643 9.712627 5.733576
12.65227 9.651073 4.132263
12.53525 9.543585 2.801106
2.799132 9.212078 22.51428
3.540855 7.56431 19.64561
4.17092 7.316317 18.22559
3.351242 8.062556 7.976898
2.522159 8.432472 4.723054
2.303928 8.831611 4.225396
2.264879 8.984887 3.891082
3.046872 9.459826 20.06005
3.984915 9.595072 15.08431
5.0274 9.323066 14.44801
5.791014 9.720538 13.68079
6.587743 9.644246 13.63311
12.34573 9.189089 9.579301
12.9197 9.776559 9.769591
10.09585 8.936145 5.237376
10.39888 8.966981 6.309898
9.170884 8.930213 5.408275
10.87595 8.903435 6.495945
11.31421 8.872616 6.830431
11.73095 8.929241 8.317699
8.111074 9.007524 8.850732
7.203438 9.377653 11.80073
8.114263 8.993167 7.838879
8.706637 8.922219 5.277215
12.94791 9.984604 6.7429
12.85964 9.869775 6.489504
12.48927 9.411769 4.217981
3.033778 8.861211 22.10656
4.050463 7.325209 18.47739
4.338651 7.272222 17.2712
3.612542 8.047289 9.61184
3.955158 8.127833 12.03449
2.398341 8.578853 4.828248
2.201225 9.293426 3.917907
3.149269 9.756667 17.51335
3.610024 9.799538 15.77894
3.110552 9.167166 20.9753
5.608861 9.651714 13.59893
5.966111 9.950128 10.49381
6.69439 9.620659 13.30238
12.61381 9.447838 8.653419
10.18245 8.852762 3.950504
9.647081 8.867426 3.932925
9.331144 8.833618 3.331843
12.064 9.033393 9.097664
11.45171 8.867359 6.49332
11.78885 8.928912 7.364382
7.805634 9.091737 8.709678
7.341055 9.310381 10.68411
8.242667 8.968707 6.975101
8.810467 8.907564 4.515601
12.56653 9.476827 5.15064
12.84229 9.787275 7.666222
12.19859 9.223463 1.886181
2.42879 8.425929 22.35415
3.822467 7.450647 18.9193
4.332338 7.417741 15.04551
3.883105 7.91844 11.46246
2.918056 8.048884 6.666131
2.213284 9.190767 4.554908
2.181246 9.722593 2.21181
3.04799 9.347449 20.29544
3.954109 9.595307 14.16061
4.761142 9.236576 13.92311
6.109483 9.949653 10.61828
6.367405 9.808218 12.26548
6.269464 9.910766 10.9286
12.28944 9.155019 7.21487
12.93748 9.911439 7.821668
10.36533 8.882543 4.737413
9.556009 8.819839 3.119999
9.120781 8.921488 5.246768
11.3213 8.852376 5.807682
11.87517 8.942508 6.604385
7.680922 9.14214 9.128156
6.971298 9.510431 12.29335
8.321548 8.95437 6.587461
8.587774 8.909097 3.954747
12.54836 9.417717 6.498425
12.34672 9.239336 4.692499
3.202387 8.951459 20.99138
2.058015 9.095283 22.67574
4.344755 7.162445 16.5579
3.556638 7.835173 10.03372
2.713296 8.145774 6.180134
2.209907 9.259295 4.919284
3.105462 9.788868 16.72502
3.589307 9.820933 15.25235
4.296607 9.32651 13.64819
5.31237 9.468476 13.63854
5.639546 9.749986 11.84154
6.520636 9.801617 11.41532
6.28153 9.945961 10.2893
12.53459 9.38143 7.654638
12.35464 9.221792 6.139214
10.51297 8.856824 4.476747
9.237982 8.809775 2.9179
8.968683 8.905364 4.628851
11.63096 8.869291 4.855852
11.98354 8.986114 5.788764
7.780303 9.108462 7.786488
7.133971 9.459232 10.41247
7.410233 9.302192 8.61794
7.99558 9.065862 5.523675
12.51591 9.370126 7.083819
12.02888 9.123231 1.476928
2.201677 8.99431 22.59825
3.055135 7.909899 20.20498
4.29507 7.24629 15.16833
3.669466 7.74398 10.84222
2.930708 7.963555 7.70764
2.293899 8.781622 6.020378
2.942682 9.561386 17.85403
3.758977 9.735599 13.50897
4.430694 9.250682 13.36428
5.544753 9.670729 12.27168
6.014948 10.03033 9.169591
5.889558 10.04445 8.374328
6.531139 9.916223 9.248445
10.01042 8.787186 2.875773
10.34001 8.827266 3.717292
8.872443 8.858973 3.438096
11.14316 8.802027 4.05679
11.60893 8.861614 4.476729
12.22661 9.128709 4.914585
6.835544 9.630262 11.28815
7.131032 9.471771 9.883409
8.072483 9.016395 6.356945
8.616937 8.89462 3.563519
12.04994 9.047503 3.073113
2.273293 8.032637 21.67149
3.92324 7.443652 18.17511
4.147883 7.525472 13.6167
3.564165 7.681859 10.85359
2.195959 9.857412 2.348112
2.295372 8.796357 6.432953
2.976607 9.27755 19.10402
3.879464 9.625675 13.08464
4.076477 9.425303 12.67756
5.472444 9.618543 12.24673
5.539085 9.739913 10.46529
5.889858 10.08327 7.680559
6.409129 9.98781 8.968212
10.74651 8.787192 3.525764
10.01085 8.677911 1.735953
11.63326 8.864717 4.355662
7.561771 9.269839 6.405584
7.022119 9.581805 9.194575
8.077152 9.047215 4.581686
12.08793 9.051468 3.892183
3.176947 8.530575 21.1015
2.545672 7.601593 20.80644
4.092776 7.326797 17.18624
3.283248 7.761343 9.839699
2.460735 8.364655 6.713603
2.239481 9.286406 6.546463
2.415557 8.446334 6.779937
3.068518 9.092172 19.57975
4.336847 9.22262 12.26348
4.919365 9.205549 12.33954
5.50456 9.698694 10.78865
5.567237 9.807143 9.470944
6.017616 10.17126 6.588387
10.68226 8.730045 2.544873
9.443099 8.711693 1.386938
10.38145 8.691937 2.005651
11.86445 8.933062 3.712259
7.75725 9.157982 6.120898
7.312483 9.414982 7.414168
7.928288 9.111903 3.844216
11.58262 8.878422 1.541223
2.519577 8.451029 21.79506
3.182799 7.886652 19.56494
4.188632 7.08682 15.39111
2.516487 8.280409 6.827054
2.239222 9.397305 6.277878
2.314591 10.2397 1.511389
3.163438 8.967163 19.83729
3.350959 9.930893 13.91848
4.566262 9.149924 12.09032
5.31552 9.492663 11.46431
6.141054 10.20897 5.892012
5.464861 9.718188 9.151195
5.702817 10.02656 7.12744
6.654507 9.86596 8.911843
6.437407 10.09954 6.811079
11.3493 8.783581 3.03067
7.343143 9.458833 5.666323
6.956948 9.647127 8.913556
8.24865 8.984809 3.298385
11.72544 8.895319 2.535448
2.502719 8.393584 21.60072
3.428185 7.878034 19.13992
3.957908 7.417854 13.17418
2.766798 8.006653 8.285205
2.757174 8.01414 8.498651
2.267514 8.999698 6.976873
2.815292 9.517339 16.60092
2.914873 9.75343 15.7926
4.029798 9.387107 11.42066
5.247173 9.427734 11.43783
6.398213 10.15674 5.943672
6.027005 10.24878 5.029301
5.591992 9.958648 6.664388
6.700148 9.917533 7.472585
10.77981 8.706334 2.04675
11.15055 8.748144 1.904875
7.302743 9.501281 5.450759
7.681323 9.240746 4.697912
6.96557 9.682552 8.032444
7.914273 9.11988 3.756864
11.41496 8.824355 1.456093
2.287436 8.034604 21.19738
2.65185 7.74695 20.18056
2.86221 7.932862 9.148139
3.71257 7.548861 11.93561
2.298802 9.007937 7.87396
2.426304 8.521831 8.021007
2.917623 9.208476 17.82219
3.282477 9.948491 13.60298
4.919919 9.19873 12.06938
6.438264 10.15048 5.836306
5.413689 9.672281 8.707535
5.589391 9.98908 6.031544
6.697289 9.981704 6.326215
10.45732 8.648629 1.325294
7.248733 9.553168 5.372744
7.368292 9.505266 4.007807
7.714433 9.239714 3.720675
11.32009 8.788577 1.696373
2.396838 8.188794 21.25477
3.343248 7.887525 19.03272
3.756423 7.275029 13.82163
3.588675 7.436498 12.80295
2.302404 9.050282 8.066445
2.326554 8.807634 7.603445
3.068567 8.983932 18.33578
3.605581 9.83143 12.12328
4.562263 9.094951 11.01833
5.324614 9.535188 9.470644
5.942935 10.32036 2.837875
6.408556 10.31803 2.428449
5.468939 9.939428 3.826439
5.727398 10.21182 3.444947
9.656727 8.683663 1.110368
7.099007 9.738542 4.529207
7.476436 9.443071 3.392711
6.84476 9.908602 5.682199
8.241982 9.027866 1.979802
2.697827 9.018149 21.44416
2.537418 7.535509 20.25189
3.992839 7.251531 15.97408
3.073774 7.804832 10.72255
2.53907 10.32794 1.888848
2.302855 9.534846 6.978645
2.774678 9.509441 16.11959
3.368717 8.428452 19.97378
3.656972 9.794626 12.12217
4.43515 9.100757 10.73794
5.248347 9.435683 9.731524
5.789996 10.26275 2.769413
5.363705 9.621162 7.655856
5.360413 9.662334 6.097039
5.636217 10.12265 4.005457
8.701197 8.895791 1.148798
6.951255 9.882335 4.492942
7.318538 9.63386 2.670735
7.519225 9.506673 1.785848
7.625021 9.371111 2.548241
8.440499 8.963696 1.397939
2.355321 7.469381 20.34566
2.579954 7.557182 19.93589
3.112762 7.826151 11.57884
2.664541 8.146693 9.086377
2.332081 9.034782 8.593144
2.380814 9.884059 5.238221
2.823028 10.39631 1.284596
3.278364 8.736572 18.62429
3.334886 9.962404 11.98507
3.976808 9.356395 10.3297
4.555775 9.057161 10.26806
5.176445 9.344509 9.268398
5.785743 10.27213 2.346888
5.130358 9.281714 8.876739
5.559472 10.07722 3.042285
10.56166 8.669076 0.9938914
7.089538 9.862548 2.548796
7.069345 9.934114 1.649243
7.778652 9.279347 2.134142
2.593561 8.575943 21.055
3.306116 7.813454 18.71428
3.648711 7.263088 15.0232
3.292687 7.658836 12.03878
2.674284 10.27991 2.809443
2.405003 8.931627 9.588473
2.471169 9.979797 5.349307
2.751541 9.537132 15.70809
3.11695 9.977918 12.38618
3.959694 9.269512 9.009879
4.754985 9.081916 10.33932
6.769851 10.14227 2.380022
5.223981 9.395836 8.31065
5.353306 9.69913 4.538552
5.47236 9.973101 2.446185
8.783278 8.853851 0.8964507
6.984491 9.934628 2.970285
2.936811 8.890575 21.05115
1.949009 9.126143 21.61059
3.719557 7.974939 17.8702
2.786297 8.061596 9.92466
2.712155 10.29212 2.719978
2.422956 8.82709 9.534005
2.687262 10.19514 4.235367
2.704534 9.452361 15.31914
3.067577 9.958803 12.78408
3.89065 9.427374 9.906559
4.650755 9.014996 9.298021
5.980167 10.41967 0.7736925
5.249606 9.448145 4.77408
5.454967 9.931033 3.245016
7.06782 9.996284 1.169751
2.541903 8.892825 21.26986
3.664196 7.970488 18.03004
3.611316 7.297069 15.20359
2.801191 8.118874 10.45244
2.827917 10.33619 2.125373
2.439713 8.885839 9.938131
2.687854 10.12983 5.398914
3.187492 8.80139 17.4188
2.919071 9.899034 13.12451
4.594617 9.005035 9.140272
5.04153 9.153063 7.572422
5.150048 9.262246 6.393282
5.380824 9.806755 2.22548
3.218408 8.570668 20.55677
2.248245 7.416227 20.04376
3.623484 7.910559 17.7475
2.8849 8.155339 11.43511
2.616358 8.533506 10.62149
2.461148 9.702774 8.773107
2.525594 9.858762 8.153829
3.288584 8.70364 17.03164
2.71392 9.660862 14.17952
3.535436 9.865296 10.06189
4.717191 9.017126 9.001771
4.957696 9.123993 8.793486
5.078684 9.139801 5.042743
7.429281 9.669568 0.9453058
3.160489 8.01792 19.68746
2.290796 9.118584 21.21816
3.6099 7.874058 17.72073
3.273069 7.991843 13.73285
2.943274 8.115523 11.78136
2.402677 9.198026 9.754791
2.813128 10.16388 5.673203
2.777571 9.12818 15.62697
3.29713 8.060108 19.32245
3.220745 10.01068 10.99906
3.901465 9.219886 7.535499
6.838688 10.17914 0.7714638
5.196173 9.328561 3.673349
5.2805 9.545461 2.395919
7.777671 9.376967 0.8289182
2.208003 7.974258 20.2153
3.084734 7.355618 18.32501
3.267837 7.807727 13.26407
3.055349 8.092805 12.60982
2.775199 8.467566 11.94914
2.425119 9.224359 10.10726
2.485042 9.187984 11.05366
3.074879 10.21403 4.257349
3.204227 8.745486 16.50917
2.770278 9.791567 13.1973
3.430159 9.945653 9.871058
3.892727 9.197963 7.129121
4.897548 9.023595 7.071801
5.02659 9.062336 4.891529
3.018042 8.805471 20.54024
1.983826 9.684789 21.00168
3.541154 7.642674 16.28049
2.927158 8.324499 12.58638
2.559281 9.812189 9.363157
2.911596 10.15409 6.302932
3.205393 10.16227 3.731423
3.433644 8.542955 17.16497
2.72097 9.829899 11.57705
3.789525 9.408889 7.798233
4.837773 8.970891 6.617878
4.915351 8.966276 5.296721
3.155892 7.953282 19.31817
3.174501 7.311279 18.08432
3.506027 7.738833 15.26027
3.284187 10.1157 2.695509
2.53127 9.122355 11.81591
3.142939 10.16916 4.644516
3.205913 8.700927 16.05579
2.64234 9.653013 12.79221
3.687718 9.609927 8.187169
4.267654 8.950213 7.503817
5.02304 9.015245 2.65907
5.247153 9.501073 1.229611
2.537741 9.243405 20.60115
2.711817 7.083183 18.42895
3.200422 8.191197 13.80737
2.492858 9.334094 11.18913
3.146972 10.14018 5.575907
3.381237 9.963435 1.916047
3.538569 8.282519 17.28362
2.651215 9.734843 11.87267
3.651368 9.653442 7.901357
4.21735 8.922465 6.657923
5.090052 9.08804 2.180244
3.220369 8.553086 19.94148
2.868644 7.091188 18.22159
3.193544 8.331711 14.28273
2.691366 8.740343 12.51485
3.263015 10.08989 5.091604
3.449688 9.745419 1.342448
3.48713 7.983213 17.94451
2.820143 9.940953 10.81877
3.628078 9.6426 7.004865
4.070792 8.979399 6.33178
4.8711 8.876516 3.329286
5.100152 9.105736 1.330471
2.150455 7.92509 19.63538
3.782789 7.67803 16.77007
3.427636 7.874712 15.75343
2.612966 8.922458 12.44216
3.332216 10.02273 5.408043
3.471526 9.686194 1.805469
3.432666 8.436479 16.34026
2.579043 9.31741 13.31077
3.189874 10.05945 9.035124
3.746982 9.274807 5.28256
4.324749 8.8658 6.329078
4.543065 8.843035 5.964625
2.311467 9.578471 20.48667
3.45822 8.197022 15.54657
2.902719 8.63666 13.90112
2.561157 9.269177 12.96105
3.018259 10.08288 8.704218
3.528775 9.358566 1.179451
3.154996 7.722466 18.54292
3.269507 10.03825 7.871835
3.674755 9.42451 5.191565
4.177286 8.868458 5.511434
4.49948 8.78888 4.869327
3.182379 7.158437 17.80431
2.713843 8.87294 13.58663
3.222494 10.06719 7.563384
3.236567 8.45155 14.98931
3.475894 7.7996 17.74101
3.639939 9.539661 5.618982
4.181001 8.84277 5.138797
4.48076 8.754484 4.241267
2.397286 8.258058 19.86977
2.599151 9.083298 13.17656
3.512593 9.760641 4.078564
3.434041 8.132353 16.0032
3.57973 9.675982 5.646781
3.797023 9.015919 3.423362
4.646876 8.695188 1.444159
2.460758 9.428276 20.28861
3.538302 9.737429 5.026202
3.580673 9.148565 1.394675
3.755798 9.048231 3.200942
4.343327 8.731672 3.73367
3.592951 9.516627 3.736985
2.988166 7.623131 18.43487
4.189216 8.780663 4.091305
2.900523 7.975066 18.88471
3.79872 8.808174 1.18863
4.308475 8.701293 3.169848
3.859756 8.74939 1.389642
4.258441 8.681292 2.643384
4.012933 8.679699 1.218874
4.011643 8.672254 1.530205
3.104233 8.813774 19.46928