# .PCD v0.7 - Point Cloud Data file format
VERSION 0.7
FIELDS x y z
SIZE 4 4 4
TYPE F F F
COUNT 1 1 1
WIDTH 2048
HEIGHT 1
VIEWPOINT 0 0 0 1 0 0 0
POINTS 2048
DATA ascii
10.25116 22.2897 18.52283
9.908092 22.29384 18.15203
10.48998 22.3336 18.71864
9.768631 22.33581 19.40249
10.54305 22.34867 18.72816
9.346898 22.33461 17.99705
10.16024 22.27587 20.33617
10.43229 22.30979 17.88352
9.416368 22.35096 18.53366
10.60313 22.39514 20.5825
10.64645 22.29667 16.56077
9.871352 22.29427 16.78532
9.091101 22.35998 19.0103
10.73715 22.44391 20.52854
10.84815 22.31093 16.85889
9.817816 22.26791 15.55423
10.10059 22.28801 16.47218
8.838347 22.32111 18.02063
9.685803 22.37671 20.43495
11.15803 22.40531 18.62785
10.45942 22.26843 15.63067
9.6366 22.26667 15.57321
8.557379 22.29934 17.57969
8.765929 22.33401 18.62177
9.612703 22.39854 21.06581
11.22329 22.33327 17.66976
10.23436 22.26154 15.31274
10.80683 22.26577 15.56994
9.737044 22.24112 14.13546
9.308363 22.26553 15.80504
8.886259 22.27522 16.54276
9.037783 22.38023 20.1619
10.32337 22.34539 21.20095
11.23144 22.45162 20.24562
10.43083 22.24978 14.96207
11.34961 22.28857 16.32627
9.566029 22.23379 13.95208
8.179806 22.33296 18.63705
8.354449 22.343 18.98014
9.23751 22.40231 20.65999
11.42643 22.35509 18.65359
10.04145 22.23496 13.84667
11.01853 22.22946 14.93345
11.62386 22.20944 14.4852
9.754101 22.22366 12.87962
8.674575 22.21552 15.14522
8.649219 22.2382 15.74705
7.829027 22.2784 17.37622
8.76516 22.36632 20.45526
10.02291 22.37152 21.53123
11.56844 22.38923 20.19898
10.72122 22.19698 13.86686
11.83229 22.23057 14.46824
9.980032 22.20866 12.13763
7.956882 22.39055 19.90678
7.724662 22.30065 18.47577
9.297846 22.39692 21.48041
11.82251 22.29054 18.3643
11.79954 22.30875 17.192
11.04626 22.106 12.56701
11.92145 22.29164 15.65337
11.87521 22.25774 14.86198
9.630573 22.1929 11.38747
9.286009 22.22402 14.17822
8.097281 22.39888 20.18808
7.792968 22.25976 16.52847
8.184685 22.39579 20.3264
10.23065 22.3984 21.91007
11.68285 22.39493 21.20999
10.4524 22.19565 13.19979
11.90691 22.28329 15.42903
11.69805 22.13937 13.20245
10.16758 22.17996 11.63149
9.988474 22.15093 10.0617
9.319923 22.19354 12.54441
7.717482 22.36594 19.83217
7.968155 22.25063 16.3824
7.404452 22.29011 17.24628
9.035923 22.39981 21.96781
10.68343 22.40616 21.78914
11.93622 22.36616 20.50148
10.86525 22.11505 12.39619
11.53167 22.08946 12.46118
12.17038 22.34277 17.28962
12.09888 22.29558 14.99091
10.32173 22.16769 11.79439
9.626266 22.12513 9.127389
9.331221 22.13898 10.3114
8.904198 22.13808 12.40321
7.940988 22.40903 20.27255
7.882738 22.18317 15.07251
7.257847 22.28103 19.12046
8.272264 22.39091 21.43886
9.943561 22.41786 22.11496
12.20558 22.39664 21.61493
11.12296 21.99065 9.741513
11.26426 22.00027 10.08582
12.30774 22.33811 14.90376
10.66794 22.11824 11.76161
10.65289 22.0309 9.35805
9.774886 22.12206 8.947813
9.847581 22.08868 8.062767
8.555739 22.12439 13.38106
8.276129 22.13254 13.94639
7.804949 22.14532 14.26779
7.159371 22.28759 18.54555
8.852747 22.41084 22.38505
11.32913 22.41557 22.40723
11.96548 22.40706 21.92251
12.2258 22.3381 18.09713
11.03535 21.97004 8.973578
12.33955 22.35519 15.5991
12.33893 22.35602 15.78838
11.79588 22.10692 11.83176
10.48513 22.02977 8.550168
10.38006 22.08977 9.742633
9.35036 22.10662 9.273238
9.038903 22.13012 11.53816
7.785686 22.40259 21.45939
7.679467 22.1405 14.07436
7.36449 22.29758 19.79308
7.866031 22.39816 21.88408
9.573651 22.42411 22.44979
11.52835 22.41413 22.32541
12.42369 22.37631 20.27189
11.42254 21.99332 9.644876
12.73104 22.41581 17.33961
12.45996 22.37958 14.31024
11.73983 22.08722 11.38939
10.5179 21.99594 7.797699
9.821947 22.03613 7.026542
10.15543 22.06153 8.094681
9.06513 22.06458 9.486592
8.717707 22.03525 10.69653
7.473934 22.35007 20.55451
7.942095 22.07566 13.2611
6.956931 22.30014 19.40392
6.795733 22.35064 18.77512
7.601803 22.39941 22.4897
12.3621 22.4232 23.0094
12.41568 22.38182 20.67495
12.65748 22.41337 22.3047
11.27319 21.95275 8.271213
12.62976 22.39329 18.95532
12.70164 22.40206 18.86276
12.5049 22.39693 13.46061
11.89012 22.11303 10.51559
10.64604 21.9491 7.08605
10.28593 21.99429 6.935945
8.713981 21.96944 8.903806
8.449467 22.03219 11.80033
7.169568 22.32318 20.97876
7.574215 22.13858 13.69932
6.78099 22.32261 19.88882
7.443216 22.38544 21.62741
7.316729 22.3955 22.67175
12.44171 22.43014 23.41542
12.56282 22.38581 19.79839
12.6633 22.39687 20.83994
13.13742 22.42265 22.52057
12.76484 22.41056 21.62849
12.7106 22.44911 15.12073
12.77201 22.51097 13.97596
12.33922 22.31946 12.20205
10.82783 21.9257 6.902396
9.793701 21.95431 5.628438
10.38493 21.94877 6.150465
8.610564 21.96817 9.445284
8.334157 21.98517 11.01637
7.409142 22.17515 13.69065
6.415687 22.43915 19.64831
7.061624 22.37484 22.00606
7.000846 22.38068 22.24382
13.48346 22.42818 23.55985
12.92923 22.42021 19.48741
13.0351 22.41935 20.99173
13.43115 22.42567 23.03698
12.02761 22.17569 9.397676
13.36642 22.49897 16.96226
12.45325 22.37746 12.58756
10.87819 21.90846 5.915687
9.782451 21.88104 4.465719
10.50277 21.92188 5.770155
8.015865 21.98358 11.48264
6.988389 22.29136 20.58444
7.543222 22.08328 12.49551
6.573137 22.38173 20.08949
6.502657 22.45362 18.02846
6.591739 22.39613 23.31175
9.385872 22.40431 22.87996
12.73208 22.42946 23.73319
13.13867 22.45423 18.23316
13.37915 22.44329 20.59791
15.4338 22.43679 23.5748
14.70714 22.4317 23.58742
11.65423 22.02451 7.552634
13.11154 22.56168 15.16828
12.93986 22.61285 13.37533
12.35836 22.34347 10.95871
11.02017 21.91634 4.972116
9.263707 21.93852 5.951325
8.733186 21.90614 7.059365
10.12422 21.87955 4.415576
7.967944 21.97118 11.11643
6.897268 22.34588 21.46558
7.549255 22.07187 12.20926
6.579457 22.3726 20.54125
7.725674 22.40736 23.4908
6.723133 22.38683 23.79244
11.25543 22.42042 23.31919
14.0828 22.41947 23.85954
13.42532 22.43333 21.67016
15.25072 22.4418 23.04135
13.56851 22.42942 22.62398
11.90873 22.12087 8.273441
13.4976 22.48621 17.80441
12.99301 22.63495 13.37447
12.4618 22.41894 10.8245
11.27684 21.93848 6.473006
9.5134 21.87838 4.576142
10.30734 21.80811 3.166195
8.815005 21.8959 6.39592
8.289133 21.8782 7.74444
8.022337 21.9152 9.242945
7.266311 22.18301 12.505
6.509469 22.54098 15.84006
6.159433 22.51083 18.7449
6.67231 22.38255 22.26697
5.531291 22.39826 23.14836
5.063119 22.38217 23.62508
8.42483 22.40801 23.48507
10.448 22.40772 22.99025
12.86551 22.41836 24.06775
13.60642 22.455 20.37398
15.41554 22.4485 22.96524
13.83192 22.46991 19.48895
13.96448 22.44168 21.7308
13.57123 22.51007 16.97943
13.18888 22.72145 13.18597
12.67245 22.57683 10.53436
11.46857 21.98175 6.150126
9.631651 21.83189 3.70276
8.839662 21.8791 5.875614
9.801352 21.80906 3.28402
8.390237 21.85773 6.676387
7.98238 21.90976 8.930385
7.066844 22.30386 12.16781
6.350115 22.59732 15.94178
6.088173 22.53682 18.06709
7.771217 22.41314 23.67262
5.800638 22.35132 24.0346
9.986526 22.42432 23.50204
11.90063 22.42187 23.95113
13.95876 22.41134 24.05873
15.19518 22.3457 24.05214
14.82766 22.43768 21.83173
13.95838 22.46014 20.32326
12.03983 22.25191 6.311972
13.36534 22.66156 14.5987
12.97231 22.75493 10.91983
12.25585 22.36659 7.419762
11.20549 21.94222 4.600234
9.135896 21.87538 5.062458
10.53321 21.8199 3.243369
8.43828 21.83328 5.487853
7.924067 21.90702 8.29347
6.991144 22.35764 12.68829
6.703091 22.55825 13.5502
6.261871 22.41719 21.69279
6.28001 22.40985 21.97978
5.93141 22.41718 22.23242
5.519883 22.33686 24.07358
8.663036 22.41278 23.74222
13.76531 22.47788 18.80647
15.48409 22.45031 22.95379
14.50193 22.4338 20.71445
14.10106 22.45856 19.90732
11.9309 22.20631 5.473527
13.55567 22.65244 14.92122
12.91589 22.67282 11.90542
12.6931 22.61597 9.92735
11.55746 22.03843 5.011273
11.03857 21.8806 3.324504
8.966673 21.80038 3.939796
10.72388 21.85493 3.700325
8.215004 21.83463 5.345119
7.813381 21.91917 7.464925
6.647612 22.63534 12.83811
7.292308 22.15741 10.23482
6.186566 22.66118 15.73724
5.855262 22.49862 19.78301
5.723485 22.43188 21.66119
4.544168 22.38842 23.46544
5.212726 22.29456 24.17213
13.96986 22.48718 17.43728
15.82173 22.33959 23.89921
15.68753 22.44141 23.32178
14.37839 22.44175 20.06779
14.35763 22.44238 18.63784
11.94708 22.22614 5.159052
13.56389 22.79153 13.0282
12.90446 22.80417 9.166611
12.44527 22.52584 7.321626
9.53257 21.73557 2.526205
8.677695 21.80511 4.414657
9.559719 21.71923 2.325853
7.814805 21.90915 6.337881
7.737763 21.92983 6.502051
6.970977 22.39078 11.77865
7.406884 22.09386 9.22576
5.873953 22.49039 20.15634
4.905478 22.41885 22.58145
5.258231 22.42486 21.40475
4.872461 22.26629 24.15226
13.79134 22.1544 24.49946
16.07857 22.26985 23.97029
15.63382 22.47432 22.40978
14.85145 22.42632 20.0707
14.29711 22.45015 18.22735
12.26959 22.48439 4.62834
13.755 22.67809 14.43954
13.45148 22.87069 11.6976
12.88745 22.83788 8.333857
12.5801 22.66956 6.790819
11.02434 21.87311 2.842356
10.61258 21.79865 2.507116
10.02917 21.71856 2.088717
7.486378 22.0427 7.223407
6.771367 22.57817 11.8541
6.902469 22.50005 10.37356
6.408156 22.72645 13.93982
5.782248 22.45953 20.98383
5.339601 22.44108 20.51907
3.669283 22.34971 23.61776
6.472588 22.28313 24.40972
14.56403 21.96063 24.49537
15.81528 22.48871 22.34673
15.11382 22.44234 19.97051
12.45396 22.63368 5.136881
12.43547 22.61343 5.196518
14.04415 22.52372 15.96674
13.57574 22.87578 11.64949
13.38165 22.9318 10.53428
12.87481 22.91147 6.836967
11.27555 21.94079 3.190386
8.497788 21.74467 3.011972
8.033183 21.84467 4.519102
7.457417 22.06027 7.14979
7.478335 22.05489 5.755473
6.557066 22.76403 12.13075
6.129429 22.80928 14.25868
5.708035 22.53542 18.11003
4.702636 22.46514 21.68787
4.207102 22.47438 22.60084
5.281501 21.97387 24.40986
14.16674 22.47268 16.89342
16.23311 22.45049 23.01484
15.93534 22.56889 21.27253
14.91186 22.42385 19.39334
12.53237 22.73693 4.614991
12.14798 22.48477 2.675361
13.68533 22.85502 11.81974
13.40439 23.02396 9.0544
13.11261 23.07491 6.446768
11.50504 22.02986 3.062158
9.21009 21.67431 1.998088
7.958855 21.84905 3.919878
7.62904 21.9808 3.807986
6.284386 22.90435 12.52864
7.084003 22.34753 8.874623
5.415878 22.45993 19.91179
4.696076 22.46765 21.60943
4.314201 22.53085 21.85309
4.93996 21.86019 24.33783
14.61724 21.7687 24.44981
15.82109 22.5875 20.4339
15.21962 22.46019 18.52272
12.6747 22.86936 4.679743
12.32172 22.60242 3.353173
12.23157 22.63458 1.466667
14.20707 22.49042 15.44288
13.77225 22.86896 11.13235
13.47176 23.11156 7.550009
12.93134 23.07507 4.703971
8.542997 21.72369 1.904532
7.246958 22.22194 6.195947
7.510548 22.04784 4.124324
6.165066 22.93912 12.57736
7.085286 22.3632 7.785423
5.549181 22.55442 16.98615
4.599879 22.49886 21.24211
3.868874 22.45012 22.70391
13.91148 21.66074 24.40354
16.36173 22.16196 23.99063
15.66275 22.57707 19.27967
15.15744 22.44877 17.98698
12.56633 22.95122 1.471052
11.9106 22.33729 1.864331
14.07041 22.5964 13.96756
13.74879 22.94778 9.900767
13.34888 23.17163 6.191237
12.83789 23.01428 4.555171
10.99366 21.88505 1.331289
10.36202 21.70512 0.7398635
7.269028 22.21354 5.348081
7.414914 22.12239 3.730737
6.300229 22.99736 11.16089
6.877368 22.6122 8.131604
5.371659 22.50661 17.69336
4.664837 22.50112 20.32613
4.478556 22.52369 21.30631
3.725384 21.71254 24.07143
15.07603 21.57562 24.26274
15.87321 22.60196 20.40659
16.1486 22.56212 21.45452
12.61871 22.9619 2.094428
11.84295 22.30773 1.527889
14.06728 22.63731 12.95474
13.75319 23.0972 7.132885
13.39409 23.15019 6.77245
12.91863 23.12186 3.553279
8.564689 21.71414 1.324245
9.78652 21.63692 0.8917456
7.049257 22.43765 6.17576
7.275437 22.29409 2.755099
6.710567 22.86263 7.718114
5.596954 22.66622 14.99307
4.616753 22.54508 18.31101
4.395159 22.59822 20.01011
3.24074 22.2901 23.59115
5.84894 21.52667 24.2316
15.96954 21.49096 23.87711
16.1507 22.64336 20.39736
16.22787 22.58107 21.26512
12.73383 23.09874 1.405164
14.13703 22.61622 12.12644
13.80156 23.03137 7.961483
13.478 23.30088 3.781984
13.01312 23.18077 3.459577
8.054006 21.82616 2.396781
7.175049 22.34393 4.176077
7.830147 21.93039 2.044794
6.343816 23.04352 10.14617
6.742236 22.82603 7.566667
5.811108 22.84578 13.62992
4.814534 22.50216 17.54957
4.377036 22.63061 18.73517
4.152837 22.63157 20.93621
3.935793 21.52404 23.83658
15.75122 21.46693 23.91969
16.06112 22.72501 18.35983
15.35386 22.48775 17.17524
12.93204 23.15483 3.081754
14.60112 22.35396 15.6066
14.24729 22.53228 11.60958
13.99397 22.89311 8.321554
13.74466 23.24508 4.118533
13.20463 23.2515 3.806256
8.798776 21.67888 0.7385688
10.84148 21.82521 0.6697869
6.938444 22.60514 5.839017
7.288541 22.2991 2.419331
6.678814 22.93898 7.092891
5.307996 22.52808 15.18778
4.479108 22.59972 17.85905
4.066244 22.69357 20.09662
5.444185 21.44544 23.89061
15.81967 21.34806 23.36705
16.31804 22.60737 20.6664
15.19664 22.43081 16.85639
12.39659 22.85612 0.8259935
14.33184 22.43909 12.31716
14.11158 22.75678 9.048702
13.9495 23.02901 6.358681
13.42307 23.35138 2.184637
11.18055 21.96323 0.6549627
6.869496 22.72673 5.540515
7.082013 22.59598 1.926881
6.353206 23.18388 8.09897
6.582561 23.03376 7.448035
5.296861 22.53248 14.6723
3.995367 22.72625 18.9852
3.166785 21.65936 23.55891
5.902288 21.43774 23.83767
16.16256 21.44264 23.6147
16.37315 22.60605 20.46173
14.90667 22.28752 15.13263
14.59967 22.30001 14.30253
14.17232 22.71236 8.246626
13.89626 23.20052 3.312678
13.2736 23.34724 1.650052
6.901985 22.72497 4.495756
6.744704 22.97406 4.709536
6.16424 23.13355 9.876908
6.611145 23.06063 6.429684
4.951014 22.46897 16.07898
4.426425 22.61902 17.19824
3.524884 22.10317 22.47586
6.410407 21.42993 23.67062
15.02157 21.41144 23.62048
16.27402 22.76246 17.84528
15.5748 22.56422 16.05008
16.54273 22.09597 22.02194
14.49179 22.31213 12.30598
14.32961 22.47461 9.058084
13.9638 23.14228 3.383677
8.498978 21.74145 0.5973195
6.891166 22.85533 2.524312
6.949213 22.79268 1.905636
5.730518 22.92827 11.90687
6.42 23.19952 7.135597
4.409015 22.6164 16.47593
3.772794 22.45516 21.06995
5.129987 21.42766 23.54596
6.846108 21.38266 23.74522
14.45339 21.41587 23.45361
17.27812 22.11174 23.39519
15.80599 22.68565 16.50726
16.52676 22.34893 21.22126
14.63395 22.22314 12.24301
14.22127 22.66695 7.393189
14.05607 23.04394 3.987384
8.190031 21.84694 0.7733344
6.714093 23.05625 4.056324
6.117687 23.23274 8.616425
6.594369 23.17025 4.891703
5.169977 22.47803 13.10162
3.79383 22.27669 21.37715
3.644778 21.35912 23.10695
4.657148 21.43826 23.11308
6.257346 21.4094 22.85981
13.75237 21.401 23.11731
16.96488 21.46547 23.47425
16.27788 22.81336 16.75759
15.34287 22.37167 14.55588
14.72955 22.21917 13.33319
14.26712 22.58008 8.04565
14.16905 22.84886 4.958728
13.70962 23.38374 1.035124
7.615847 22.16362 1.0642
5.548753 22.82864 11.57235
5.442206 22.6838 12.71339
4.085959 22.74341 16.64202
3.789097 22.29128 21.0859
4.976244 21.44225 23.00796
6.979736 21.41074 23.19953
6.906448 21.41063 23.10519
14.00749 21.40384 23.27207
16.19432 21.31326 22.84426
16.52648 22.69047 18.00154
15.69997 22.61899 14.62379
13.3326 23.41022 0.8057718
14.3517 22.44579 7.27988
14.24224 22.7163 5.035307
13.78095 23.36523 0.9181174
7.562647 22.22517 0.815692
5.505905 22.80705 11.26271
6.399571 23.36144 4.73481
4.248361 22.68198 16.23137
3.817152 22.26532 20.59907
4.958644 21.48795 21.63149
4.701149 21.45562 21.6287
6.718935 21.36684 21.52604
7.224264 21.40098 23.02271
14.00814 21.39951 23.06035
14.91615 21.44108 23.09851
17.18859 21.53371 23.35226
16.07077 22.8068 15.93236
15.45426 22.44486 14.67327
14.78329 22.16468 12.2947
14.55096 22.19169 8.396335
14.36736 22.42136 6.730993
6.61564 23.26417 2.616782
7.46644 22.31363 0.6020077
5.39393 22.66348 12.08808
6.141317 23.38777 6.19034
5.002413 22.40894 13.17556
3.767555 22.32438 20.28757
3.051272 21.49665 22.95315
5.364103 21.49166 21.48227
4.310011 21.3916 22.65253
7.46981 21.38739 21.74232
12.41185 21.38374 22.95873
14.30766 21.42806 22.31863
15.04393 21.472 22.83839
17.3153 21.81764 23.22049
16.3274 22.83308 16.26449
15.5191 22.44818 13.74187
14.78348 22.10799 10.64015
14.36334 22.44627 4.682388
14.22749 22.83361 1.49332
6.836215 23.08396 0.8853846
5.415477 22.76813 10.25305
6.188934 23.4105 5.650373
4.874883 22.40052 13.41474
3.757307 22.29534 19.82706
3.176449 21.56359 22.70277
5.515369 21.4726 21.64635
4.094244 21.30817 22.47161
7.927554 21.3874 21.79632
12.36491 21.37367 22.45193
14.4812 21.45682 22.20299
13.37551 21.33512 21.65939
16.72807 22.14803 22.32408
16.515 22.14035 20.74708
15.87637 22.7402 13.83069
14.93899 22.10886 11.6809
14.65023 22.11727 8.889761
14.46544 22.24789 6.234009
6.641249 23.32206 1.218273
5.787986 23.27369 7.349713
6.056681 23.43631 5.568789
4.305355 22.63847 15.44425
3.868972 22.17093 19.95494
2.661318 22.09586 22.70478
5.233872 21.54159 20.71474
5.950347 21.4209 21.55634
7.713534 21.37345 21.15077
12.04992 21.37365 22.55538
13.72302 21.31591 21.07152
14.00619 21.37559 21.32869
15.24689 21.52922 22.05939
17.24568 21.77508 22.88362
16.50281 22.83288 15.90109
15.59434 22.45959 12.68806
15.05287 22.13101 11.98408
14.36455 22.45059 4.285062
14.36684 22.45094 3.22618
6.227273 23.5721 2.388987
5.327073 22.70128 9.269391
5.040854 22.41951 12.46753
3.885659 22.77851 15.76492
3.85269 21.8369 21.19214
4.796277 21.51738 20.18828
5.7589 21.4673 20.61395
4.114157 21.26289 22.13993
7.907383 21.38551 20.92317
8.510128 21.38516 21.84513
12.36567 21.37094 21.79942
14.18235 21.41986 20.96031
15.36633 21.45575 22.09768
16.76974 22.51713 16.91614
16.17264 22.87797 14.56378
15.08574 22.1707 12.78586
14.54305 22.15623 6.981524
14.60345 22.05177 5.757756
14.30882 22.60568 1.699391
6.182371 23.55739 3.044633
5.18724 22.52881 9.764069
5.917106 23.48349 4.795631
3.600289 22.62349 16.79389
3.791464 21.79862 21.15902
4.856642 21.55737 19.3403
5.49778 21.53045 20.31348
6.132521 21.38955 20.68808
6.552763 21.31223 20.39027
8.499137 21.38241 21.57486
8.389657 21.37702 22.34495
11.76295 21.33909 21.03265
13.71259 21.30418 20.77099
14.30341 21.45729 20.90561
15.47055 21.33418 21.95114
17.40774 21.96684 22.84674
16.40621 21.90371 20.32383
15.79587 22.63521 12.26473
14.98335 22.01759 9.71771
14.53778 22.10954 4.413671
14.33436 22.61471 1.330809
5.673727 23.32778 5.715145
5.569214 23.14366 7.114357
4.60206 22.40088 12.77792
4.12924 21.93245 19.97692
2.650067 22.02663 22.47375
5.263946 21.6566 17.88021
5.806111 21.47314 20.00001
6.223246 21.36633 20.47185
6.666881 21.28549 19.84523
9.07161 21.37824 21.48462
7.993362 21.37994 20.3969
10.72935 21.37175 21.60669
11.05055 21.35733 21.00881
14.71717 21.59513 21.08746
14.77127 21.68145 20.10407
12.98057 21.3209 20.68998
16.78582 22.11235 21.98901
16.48559 21.95148 19.24906
15.57769 22.35717 11.36274
15.17983 22.05959 10.33332
14.54844 22.08534 4.040694
14.34392 22.57011 0.7850307
4.933722 22.37137 11.21006
5.148793 22.49518 8.705241
4.607638 22.38524 12.4302
3.664076 22.23076 17.3515
2.670811 21.76313 22.49686
4.708682 21.47186 18.84217
5.363649 21.65518 17.58727
4.278596 21.1836 20.74803
7.676179 21.35299 20.54875
8.316717 21.37607 20.16777
9.223812 21.37805 21.51323
9.537971 21.37637 21.504
11.22341 21.38266 22.10307
10.24893 21.36805 21.20783
11.23188 21.33588 20.41185
15.09881 21.72956 20.10648
12.64043 21.33936 20.28234
13.37618 21.21915 19.75311
16.75546 22.09401 21.88303
16.45758 21.89777 19.03114
15.4747 22.22326 10.75543
15.01191 21.93786 7.882395
14.4975 22.0924 1.688413
4.830502 22.34917 11.5705
5.428557 23.056 5.855986
4.443285 22.4969 13.68177
3.570114 22.37906 17.25631
3.114744 22.56605 21.65505
3.583806 20.96881 21.80824
5.382547 21.66924 17.11679
4.110801 21.16674 21.6721
7.304135 21.34949 19.57344
8.521076 21.3609 19.65796
9.932783 21.36328 19.88917
9.911763 21.35197 22.02113
10.11526 21.36613 20.67806
10.86818 21.34988 20.55375
11.55036 21.31742 20.23526
13.85753 21.32351 19.49708
12.49212 21.33849 20.15332
16.56557 21.12672 21.95902
16.81216 22.56317 16.23818
16.28478 22.94058 12.95413
16.49547 21.4375 21.07454
14.72473 21.91286 4.508497
14.53795 22.04757 1.161144
4.790462 22.32867 10.92402
5.164995 22.52757 7.965796
4.661759 22.33681 11.3444
3.506655 22.42056 16.29547
3.023447 22.74386 21.58172
3.374879 21.47072 21.78562
4.948922 21.62481 16.89563
5.912305 21.48044 18.12209
4.172315 20.883 20.15303
7.461668 21.35856 19.88712
6.345008 21.33375 17.85077
8.580407 21.35527 19.26069
9.633315 21.36736 20.56399
10.39273 21.35838 20.55267
10.73484 21.3401 20.05238
13.6784 21.26987 18.70546
14.4921 21.61663 18.93524
13.28968 21.1923 19.00386
16.974 20.77864 21.67229
16.66096 22.10156 17.93367
16.54514 22.89149 14.39545
15.69564 22.4534 10.95899
15.09428 21.89919 7.314919
14.92333 21.79836 4.433215
5.500119 23.2691 4.306187
5.070455 22.42657 8.293596
4.28762 22.54099 12.97132
3.59608 22.26866 16.76416
2.735552 22.86366 21.90794
3.484416 21.04116 21.66114
5.597853 21.66158 16.16396
5.875888 21.49736 17.94571
4.451483 21.14506 18.85255
7.879507 21.35041 19.74383
8.453318 21.35271 19.17212
9.389772 21.34112 18.64558
10.41821 21.33913 19.51818
11.04901 21.29813 18.77153
13.75244 21.31405 17.87745
13.86848 21.35222 18.14688
14.58539 21.68805 18.32674
13.06447 21.19422 18.67282
17.25081 22.20547 22.02701
16.39718 21.76717 18.08252
16.13959 22.89713 11.91271
15.71829 22.43593 10.33137
15.29495 21.91488 7.400787
14.98699 21.78023 4.604401
5.470459 23.2765 3.635808
5.144895 22.52253 6.537587
3.946337 22.75335 14.04089
3.570567 22.28469 16.55018
3.091265 21.39144 21.82137
4.663892 21.36271 17.70554
5.467064 21.7377 15.53888
5.916023 21.49685 17.22641
7.674605 21.33689 18.91894
7.813217 21.33871 18.82596
6.414552 21.3246 17.21839
9.21611 21.34076 18.61226
11.81699 21.29089 19.77537
10.95038 21.30406 18.84995
13.28796 21.1841 18.46995
14.0107 21.41858 18.03411
14.33439 21.58823 17.71764
12.81356 21.27017 19.29106
17.2984 22.26294 21.98136
16.30202 21.67237 18.59607
16.13345 22.89684 11.26078
15.41864 22.04165 8.724216
14.82886 21.80228 3.096972
5.545381 23.44737 2.467551
5.102656 22.46031 6.73374
5.344773 23.08139 3.629166
4.0302 22.69473 13.25491
4.170357 21.9207 18.30356
3.09384 22.58366 21.22382
3.349921 21.61211 21.5703
4.661133 21.32119 17.21724
6.25919 21.37214 17.03073
4.347085 20.80538 18.43224
8.108028 21.3298 18.20449
7.314878 21.29702 18.21642
6.315635 21.35329 17.01776
9.760342 21.34698 18.20185
10.82822 21.29748 18.36774
10.94886 21.28571 18.07619
13.30097 21.18937 18.26649
15.10969 21.79057 18.44237
14.45929 21.66342 17.39888
14.48744 21.7165 16.52397
13.21893 21.18343 17.75618
17.23409 22.20634 21.9284
16.27969 21.65607 19.07498
16.61771 22.9198 13.2352
15.72984 22.35772 9.19431
15.24074 21.8165 5.827451
14.8699 21.7367 1.186826
4.916867 22.30381 7.597349
5.287187 22.99857 3.06085
4.015553 22.64487 12.02607
4.22364 21.88246 18.14274
3.213847 22.16951 20.72976
3.453086 21.0579 21.23014
4.708364 21.42192 16.21707
5.463957 21.78239 14.85797
8.691669 21.33339 17.663
6.796117 21.26032 17.56513
9.531656 21.33374 17.58971
11.97742 21.27535 19.17042
10.52811 21.30064 17.63088
13.90101 21.39381 16.868
15.43249 21.4441 19.22059
12.47908 21.25639 18.46363
15.8016 20.84889 21.15129
17.12579 21.73361 22.01378
16.30845 21.15144 19.81878
16.13167 22.89214 10.60723
15.44362 21.91688 6.579746
14.84166 21.73349 0.7813264
4.931038 22.3098 7.450827
5.319804 23.21386 1.720068
3.735955 22.78607 13.58934
4.097498 22.50885 10.35301
3.699762 22.10478 16.4404
2.965081 22.89396 21.02369
3.455491 20.94027 21.07808
4.843164 21.66206 14.88031
6.250707 21.37595 16.51455
8.312401 21.31624 17.23985
7.286716 21.25646 17.1895
8.880502 21.33361 17.49429
9.659703 21.33956 17.99767
10.21973 21.33933 18.21657
11.73007 21.19012 16.92711
13.872 21.3894 16.30788
15.41097 21.5074 18.99662
12.02939 21.26438 18.62429
16.04905 20.84807 21.10888
17.35779 22.01345 22.08285
16.18193 21.42788 18.53885
16.3484 22.99185 10.94408
15.54473 22.06349 7.905303
15.26005 21.70884 3.615055
4.672172 22.24109 8.224695
5.257819 23.05465 1.70562
3.874469 22.65922 10.79948
4.042385 21.90692 16.35135
3.08066 22.4825 20.68973
4.43287 20.73317 17.32313
6.065419 21.4607 15.3054
3.905107 20.36223 19.39312
7.945767 21.28571 16.88982
7.242845 21.2394 16.7395
9.398064 21.34346 16.11697
12.20374 21.24351 18.10914
11.93456 21.15948 16.70054
10.70361 21.28348 17.05957
13.70398 21.30473 16.02267
14.14964 21.55815 15.79535
12.53411 21.19994 17.79309
15.46991 20.91619 20.18208
17.69975 22.47361 21.72934
16.23242 21.15797 19.25987
16.69936 22.92916 12.06797
15.73097 22.22469 7.551378
15.18626 21.681 2.939594
4.494984 22.27352 9.052208
5.090024 22.51192 3.898677
3.818123 22.7487 12.49526
3.789318 22.73864 11.93607
4.43816 21.6771 17.39975
3.078226 21.38357 21.3
3.454463 21.52324 21.00024
5.332419 21.87313 13.79751
6.010884 21.50348 14.61882
4.297873 20.50217 17.60178
7.748661 21.26639 16.74794
8.802409 21.32881 16.00586
9.385871 21.35264 15.36675
11.97787 21.18576 17.12283
12.10399 21.11196 16.24125
10.54963 21.28719 16.44294
14.90029 21.87097 16.03063
14.17616 21.57977 15.64145
14.31974 21.75714 13.50916
15.52188 20.9277 20.54114
17.38774 20.94476 21.43232
16.88645 22.14172 15.19722
16.84921 22.80537 12.65383
15.93725 22.62251 8.440828
15.68288 22.07633 6.362311
15.46347 21.76841 4.011362
4.645449 22.20789 7.09838
3.850575 22.59421 9.253074
4.343394 22.28188 8.273485
4.486792 21.57169 17.79218
2.6278 20.93938 21.38759
4.472824 20.71779 16.33281
4.814868 21.6492 14.73536
3.687375 20.42586 19.89579
8.341704 21.29775 15.9753
6.632519 21.22065 15.42357
9.264553 21.33702 16.67237
9.547386 21.36068 14.74783
12.29257 21.18779 17.38759
11.92144 21.09949 15.78693
10.29162 21.30998 16.28799
13.64582 21.2703 15.41403
15.4364 21.37032 18.28052
14.16404 21.64974 13.74875
12.89902 21.10502 16.37221
17.28718 20.5694 20.88217
17.92103 22.20991 21.8094
16.93569 22.19172 14.78197
16.00079 22.72786 8.76034
15.6858 22.06393 6.120009
15.5176 21.79937 4.194577
4.704123 22.20156 6.34778
3.577112 22.77627 12.99393
4.215049 22.3237 8.070955
4.493273 21.58292 17.39271
2.907321 21.0472 21.04436
4.511573 20.83986 15.93535
4.741119 21.60281 14.22332
5.779924 21.69827 13.6175
4.31929 20.4079 16.74991
7.209843 21.15834 15.32699
8.881812 21.34108 14.87535
9.653135 21.36984 14.18918
11.1951 21.19292 15.56405
10.17275 21.32098 15.55695
13.54228 21.22406 15.62361
15.43746 21.29272 18.44743
14.14364 21.70285 11.99165
12.76563 21.06655 15.93119
17.32026 20.57597 20.83058
16.74383 21.90571 15.43553
16.98656 22.48987 14.00588
15.92145 22.57347 8.068996
15.67049 21.9565 4.925692
4.396226 22.22511 7.233966
5.034532 22.45052 2.116145
4.060444 22.39034 7.729444
4.438993 21.30171 18.47867
2.250929 22.62986 21.38346
3.060405 21.33687 20.87302
5.359834 21.90864 13.08523
5.871276 21.64716 13.14252
4.074107 20.09563 17.38187
7.709589 21.21582 15.61456
8.633012 21.32077 14.27682
9.773751 21.3556 14.62219
11.86191 21.05104 14.9661
12.43405 21.08146 16.10728
10.70614 21.25624 15.20258
15.18669 21.84532 15.86441
13.92141 21.4866 13.2943
14.3086 21.78971 12.43594
16.5464 20.89166 20.44516
17.30581 22.03577 21.58606
16.1181 21.05105 17.96995
16.6572 22.99119 10.74182
15.77856 22.18625 6.181213
15.68574 21.88795 3.866875
4.666329 22.15547 4.039884
3.494831 22.76164 12.64363
3.525945 22.72684 9.707622
4.088859 21.81351 15.34682
2.16263 22.66277 21.09313
2.420102 22.28358 21.0501
4.532565 20.97302 14.93999
4.739865 21.63816 13.63139
6.115871 21.43735 13.33919
8.1037 21.26489 15.7464
7.291877 21.12289 14.74595
9.428239 21.40442 13.2549
9.831816 21.3528 14.56866
11.72882 21.02212 14.27565
10.67315 21.24565 14.03602
15.43374 21.46924 17.00376
13.98069 21.54031 13.11016
14.46819 21.87514 12.06119
12.68224 21.04247 15.63857
17.099 22.24718 20.80186
16.23048 21.55807 16.52967
17.03049 22.53119 12.61019
16.09252 22.82933 8.195481
16.46523 21.6991 20.06442
15.71179 21.94422 4.228361
4.593863 22.13799 4.093355
3.297767 22.62012 13.24083
3.463649 22.74373 10.20282
4.464711 21.60182 16.63234
3.028663 22.54217 20.03824
3.579766 21.42862 20.17846
4.516293 20.86732 14.65327
4.829403 21.7577 13.20554
5.965109 21.57973 12.64949
5.719452 21.7934 12.04746
8.273824 21.27865 15.27205
6.967858 21.05625 13.84587
9.204779 21.40191 12.97735
9.788983 21.38257 13.6058
10.8588 21.2155 14.48826
10.25974 21.33509 13.49281
15.34887 21.74347 15.68397
13.86209 21.4908 11.83821
14.51547 21.91056 10.83278
13.16538 21.04005 14.56886
17.27579 22.48295 20.81311
16.53673 21.66215 15.32612
16.17477 20.88343 18.12057
16.71457 23.02185 9.666382
15.87394 22.23641 4.990891
15.82322 22.10501 4.471669
4.391903 22.17854 5.73949
3.294592 22.63464 12.9369
3.944803 22.39999 6.573215
3.478641 22.04317 14.43437
4.341312 21.11447 18.16221
3.025286 21.24435 20.19162
4.350142 20.26332 15.55368
4.562231 21.2577 13.50327
6.42887 21.20861 13.24719
6.291058 21.29201 11.59662
3.398821 20.52916 19.55088
7.676095 21.15242 14.50105
8.142191 21.21812 13.74703
9.107552 21.40704 12.06709
10.23278 21.33562 13.64826
12.54373 20.94005 14.41961
14.83218 21.94223 14.04133
15.32511 20.74916 18.38277
13.90901 21.5617 11.13495
14.34085 21.86709 9.686288
12.90748 20.96272 14.32105
17.1401 20.4489 20.31189
18.11642 22.30173 21.19592
16.19514 20.79589 18.02874
16.87668 22.87842 10.94888
15.99568 22.61971 6.541014
15.80057 21.78142 1.407436
4.478168 22.13452 4.403941
3.494041 22.72067 9.18282
3.780837 22.48223 6.192735
4.037393 21.77667 14.8857
2.237854 23.02538 20.70412
2.283544 21.213 21.0462
4.530185 21.19188 12.45761
4.708394 21.66516 12.73474
5.924317 21.65108 10.92039
6.558788 21.09706 10.90592
3.767275 19.86946 17.67378
7.114863 21.0193 13.50193
8.492329 21.28707 12.37436
9.421424 21.47527 10.66233
10.26866 21.33885 13.03313
12.17176 20.91414 13.97203
10.83194 21.208 13.81541
15.41314 21.6815 15.60866
13.62179 21.24506 12.60993
13.71936 21.51436 8.848314
14.76508 21.96891 12.63139
14.04344 21.75118 9.197021
16.0355 20.54203 19.81965
16.47887 21.45786 14.62959
16.18689 20.7453 17.88758
16.88815 22.90517 10.16181
15.96653 22.5283 5.999287
15.9168 22.19508 3.693454
4.376626 22.07949 2.761664
3.571378 22.61396 6.687755
3.1909 22.65196 10.80896
4.41665 21.56947 15.78436
2.930882 22.93639 19.92175
4.084796 19.93027 16.11893
4.552709 21.31694 12.60452
6.607594 21.10314 12.74907
6.386714 21.20558 10.01097
6.285107 21.29536 10.82436
7.977792 21.18477 13.90674
7.334477 20.98338 12.38133
8.024632 21.16398 12.88534
8.773788 21.36425 11.23872
9.659228 21.45472 11.04272
9.769794 21.43247 11.39728
11.65054 20.96522 13.37065
10.89859 21.17975 13.07221
14.92938 21.97181 13.60466
13.48254 21.13066 11.90923
13.64963 21.51534 7.705523
14.79996 21.98009 11.00254
14.73639 21.96539 10.69813
13.03993 20.93977 13.71937
17.25088 22.12197 21.02374
16.06456 20.96705 17.2723
17.11363 22.5771 10.39743
16.0652 22.73407 6.189278
16.4276 21.54352 19.51684
4.270593 22.13132 3.877983
3.370811 22.69163 7.63326
3.213442 22.68709 9.930323
4.370676 21.47584 15.26235
3.300074 22.06057 19.48865
3.56586 21.26728 19.86728
4.515173 20.7275 12.49009
4.518404 20.79811 13.07682
5.596941 21.90059 10.98505
5.863738 21.72086 10.31613
6.776249 20.96715 9.633707
3.788172 19.74367 16.71237
7.146952 20.9921 12.92498
7.793416 21.0781 12.37645
8.850518 21.40004 10.41675
9.664513 21.46806 10.61992
10.2477 21.34236 12.68782
11.80595 20.87931 12.81938
10.59863 21.24281 12.09616
15.47616 21.5917 15.28933
13.53847 21.18012 11.93832
13.58236 21.45999 7.373765
13.91629 21.72041 8.140262
14.78359 21.94357 9.470355
17.01233 20.56029 19.85968
16.17536 21.25213 15.67255
16.38833 20.59111 18.16378
16.76023 23.05432 8.545991
16.63478 21.03933 19.14383
4.229616 22.10289 3.038777
3.524431 22.63463 6.70538
3.086417 22.61983 9.752272
4.41165 21.39616 15.4118
3.299703 21.81215 19.72556
4.02475 19.83775 15.65987
4.512537 20.86542 11.68923
4.939536 21.91511 11.6702
4.74619 21.86511 10.33351
6.537009 21.08805 8.76133
6.817413 20.97415 10.54617
3.347197 20.58147 19.12857
7.524013 21.00264 12.10216
8.617732 21.32349 10.83306
8.761016 21.3871 9.765201
9.941263 21.43368 10.55544
9.231951 21.52151 8.663177
11.87061 20.80739 11.87161
13.05967 20.87135 12.4933
15.40626 21.05441 16.25938
13.44875 21.10445 11.79134
13.47524 21.17453 9.783783
13.73 21.69016 5.8638
14.94612 22.00265 11.71659
12.87941 20.82471 12.68015
17.49818 20.80511 20.27902
16.18349 20.80114 16.87848
17.0948 22.21234 11.87088
16.70552 23.08064 8.07342
16.45345 21.31062 19.35927
4.232095 22.07565 2.432235
3.406087 22.6614 6.388165
3.066276 22.30208 11.89448
4.503901 20.94899 16.76344
2.62404 20.78772 20.36086
4.508895 20.70954 11.72797
4.779621 21.80514 11.74655
5.655347 21.91101 9.583219
5.922892 21.69303 9.040164
6.563187 21.06861 7.355824
6.209739 21.37551 8.590762
3.835576 19.78876 15.76401
7.149012 20.9113 10.63194
8.766005 21.39652 9.281988
9.712499 21.51763 8.281249
10.05248 21.41209 10.39246
11.80016 20.76716 10.91404
12.42338 20.7173 11.67624
12.95227 20.83051 12.42717
15.52076 21.55189 14.76107
15.27635 20.75087 16.59543
13.42799 21.1192 9.859012
13.38834 21.29844 5.921088
13.73258 21.7305 4.775462
14.89054 21.99252 10.95114
15.01911 21.96812 9.823023
16.84567 20.71743 19.62799
16.15359 20.99502 15.65124
17.03852 22.01732 12.47342
17.02693 22.85376 9.116289
16.08843 22.70941 4.152362
16.06979 22.28564 1.713752
3.041839 22.62012 8.71935
3.679857 22.44575 4.19669
4.183662 21.43974 18.2742
3.365838 21.84056 19.65065
4.431796 20.23041 13.64074
4.487533 21.5218 8.942386
5.171256 22.03251 10.35409
4.85252 21.93121 10.46509
6.148293 21.44498 8.682077
6.745231 20.95668 5.986644
6.901071 20.91206 8.344472
3.330586 20.48786 18.56855
7.441682 20.92038 10.48032
8.347202 21.23143 11.03568
8.804491 21.4339 7.710858
9.78497 21.49488 8.828435
10.26793 21.33862 11.27023
11.44471 20.94405 11.89744
12.26722 20.68685 11.05936
13.07568 20.84223 11.2802
15.5305 21.35993 14.90258
13.32063 21.00134 11.2293
13.28172 21.07464 6.887358
13.40731 21.37783 5.234637
13.8702 21.80354 4.716864
14.96487 21.92229 8.764767
15.88402 20.51198 19.17127
16.13211 20.89028 15.46941
17.09022 21.91662 11.16381
17.19493 22.20876 10.09266
16.43223 23.09288 6.449846
16.05828 22.1721 1.065046
4.13162 22.06941 1.841015
3.156274 22.67769 6.78022
2.972473 22.3126 10.80718
4.408626 20.98097 15.90805
2.28356 22.29423 20.84257
4.503045 20.51609 12.57936
4.450696 21.2711 9.065817
4.601389 21.73373 9.604551
6.001966 21.62935 7.61622
6.476421 21.13401 5.998686
7.125022 20.8785 9.307863
3.374471 19.93463 17.705
7.878377 21.04546 10.80391
8.285069 21.18456 8.952782
9.090787 21.52493 6.823967
9.849117 21.49725 7.962183
10.10655 21.40394 9.840577
11.64867 20.82601 11.10094
10.75678 21.1685 11.03561
13.24754 20.94321 11.00997
15.29063 20.72924 15.86469
13.21696 20.93636 8.347751
13.42077 21.43461 4.586635
13.48742 21.5465 3.941351
14.14791 21.87463 5.137944
15.16655 21.94951 9.418427
15.82273 20.44978 19.05651
16.20078 20.79449 16.67684
16.96467 21.82459 12.59259
16.64217 23.11911 7.044497
16.10555 22.43793 1.358531
2.901048 22.50489 8.222257
3.530475 22.46784 2.907441
3.750875 21.61965 13.11863
4.130183 20.82439 17.12927
3.591642 21.09583 19.22344
4.403849 20.21703 12.57492
4.447093 21.11827 9.327449
5.498877 22.02157 8.824036
5.802305 21.82815 8.205219
6.263041 21.35923 4.49598
6.546391 21.08088 5.224756
7.079203 20.87016 8.21637
6.344499 21.26635 4.977709
7.614059 20.94547 10.37652
8.06356 21.07277 8.566718
9.30407 21.55625 6.004141
8.671464 21.38171 7.023716
10.28517 21.34383 10.56744
11.73755 20.70967 9.574432
12.32283 20.60168 9.696976
13.2157 20.91735 10.53617
15.38457 20.84931 14.83971
13.10756 20.83189 8.252571
13.13243 20.98 4.5637
13.82398 21.78334 2.882539
15.24626 21.98966 11.54512
15.20922 21.90199 8.420233
14.91989 21.8493 7.074855
17.15568 20.24245 19.43826
15.97808 20.80026 16.824
17.19986 22.02293 9.949861
16.4466 23.11486 5.65795
16.09266 22.46949 2.085673
4.228636 22.02749 0.7391803
2.986258 22.62682 6.273793
2.90975 22.26209 10.12396
4.328795 21.04015 15.3546
2.774418 22.02504 20.90757
4.433057 20.3871 11.58871
4.484509 21.60004 8.28154
5.351342 22.12201 7.135792
4.584023 21.77464 8.626502
5.976737 21.68457 6.020095
6.089637 21.55969 5.305292
6.828188 20.93449 4.301845
7.135077 20.85129 7.187801
7.425491 20.86716 8.287363
3.405383 20.69755 18.42969
7.947394 21.01436 8.126205
9.267236 21.53538 4.385344
8.527045 21.30891 6.511775
8.284107 21.1787 7.493096
9.912824 21.489 7.169208
10.34703 21.32165 8.970706
11.58722 20.78128 9.941556
12.46528 20.58163 9.255997
13.14847 20.86421 10.03707
15.37114 20.80359 14.78289
13.03105 20.77517 7.064423
13.06766 20.95704 3.280629
13.31251 21.4037 2.41219
14.09289 21.86969 4.389384
14.78037 21.85344 6.881426
15.4441 21.92649 9.885899
16.72503 20.63336 19.18924
16.15966 20.55994 15.77435
16.69709 21.27531 12.42297
17.09197 21.76419 10.66028
16.7304 23.15653 6.021615
16.14245 22.57797 0.8042945
3.339561 21.8109 12.36627
3.374388 22.60044 3.995848
3.733037 21.56405 12.79265
4.099702 21.05316 17.33004
2.644994 21.58595 20.72895
4.352852 20.2917 11.42062
4.514538 21.67226 8.233008
5.499459 22.08096 6.565037
4.708097 21.90873 8.815338
5.965967 21.73006 4.501872
6.265271 21.38717 2.876514
7.097531 20.85353 4.675375
7.468419 20.85112 6.157761
3.380896 19.88035 17.30315
8.025541 21.04803 7.958048
8.893664 21.46572 5.952365
8.952904 21.47565 5.313334
8.344682 21.2084 6.417798
10.26454 21.35692 8.672059
10.06624 21.44235 7.042809
10.69619 21.18664 10.17543
12.00348 20.59123 8.758985
12.35472 20.51608 7.862644
12.90547 20.70523 9.482364
15.39597 20.81168 14.39498
15.83406 20.65228 18.79623
13.0861 20.87715 5.325743
13.12097 21.10875 2.454947
13.99941 21.83292 3.088669
14.2379 21.87618 4.143227
14.84154 21.7921 5.075443
15.23738 21.83117 7.056376
17.46429 20.31424 19.41788
16.08724 20.49035 15.31705
16.67826 21.15499 12.04008
17.10262 21.55144 9.727088
17.12858 22.86864 7.165151
16.19288 22.83575 1.751808
2.801825 22.32163 8.269163
3.276288 22.62382 3.61542
3.814026 21.45327 12.62918
3.644318 21.76435 19.12318
3.869258 19.98153 14.36657
4.316931 20.77174 8.663298
4.991625 22.10231 7.994613
5.614798 22.01621 6.527696
5.877848 21.81349 5.281835
5.797491 21.90195 5.044964
6.156301 21.51583 3.205707
7.390402 20.84441 5.795021
7.229306 20.85509 3.805891
6.506478 21.17588 1.629079
6.204754 21.50323 1.405484
7.74045 20.92419 7.333547
9.664008 21.54918 4.806471
9.253846 21.52287 3.050012
8.223331 21.14114 5.53955
10.31561 21.33648 7.773767
10.9711 21.04029 9.503525
10.7945 21.11107 8.85294
11.82572 20.54816 7.171663
11.67839 20.64762 8.02648
12.08301 20.53329 7.953441
15.52854 21.83741 11.93443
15.31036 20.45149 14.84206
12.94402 20.70977 6.582081
13.13352 21.16215 1.997844
13.61941 21.67901 2.177461
14.82356 21.75393 3.822351
15.48121 21.87404 8.488734
12.50114 20.49742 6.965749
17.34217 22.62606 20.44789
16.07289 20.47093 15.17835
15.74619 20.61907 16.99026
17.01406 21.40666 10.03654
17.33547 22.27002 7.721767
16.54473 23.18691 4.599977
3.944369 22.11515 0.8933777
2.844803 22.55877 5.620728
3.422176 22.45833 1.63653
3.574572 21.57244 12.21616
4.001901 20.3588 16.87589
3.659609 20.13574 15.56788
4.313296 20.39318 10.4672
4.4808 21.72895 7.074904
5.462187 22.13096 4.738158
5.711243 21.99278 4.176501
4.740233 22.00797 7.456842
7.31423 20.84403 4.484462
7.661217 20.89622 5.763816
3.314883 20.38713 17.60649
9.727531 21.53873 4.327275
9.051465 21.4925 2.461567
8.014611 21.03584 5.052165
10.44043 21.27326 5.888813
10.06626 21.46103 4.939414
10.73762 21.1284 8.155288
11.66073 20.55533 6.230565
12.26278 20.45883 6.718606
15.39545 20.706 14.09711
12.8703 20.65099 5.433666
12.86142 20.67948 2.780433
14.23666 21.78015 1.561109
14.58022 21.7835 2.788231
15.51505 21.86255 8.461627
12.75055 20.58149 6.687399
17.73389 22.08534 20.82404
16.10187 20.52339 14.58932
16.44019 20.83669 12.66416
17.10394 21.47629 9.301635
17.21033 22.7409 7.167853
16.44233 21.3228 19.10481
2.789401 22.17457 8.636013
2.878075 22.61472 4.273443
3.103359 21.67567 10.34482
4.201759 20.88235 14.98306
2.221949 22.30269 20.53596
3.798231 20.08148 14.45005
4.222183 20.47528 9.508893
4.372992 21.5145 6.765098
5.230855 22.18767 3.058544
5.031572 22.17814 5.707005
5.942229 21.81798 2.045259
7.281441 20.87156 2.876786
7.730877 20.91601 6.145384
3.826852 21.35112 18.74384
8.532202 21.29001 3.882428
9.369337 21.54331 2.31531
9.136337 21.51269 2.162451
10.6084 21.17686 6.307022
10.07054 21.46014 4.312682
10.93135 21.01773 8.004203
11.16761 20.8704 7.595571
12.30104 20.41533 5.607596
15.33075 20.36463 14.81276
12.7724 20.57837 5.588689
12.96814 20.91353 1.253533
14.25834 21.80708 2.10853
14.56722 21.76219 2.26444
14.90279 21.68852 2.789428
15.0707 21.73981 5.073603
15.38488 21.71797 5.653188
16.50054 20.528 18.57351
17.867 22.74662 20.54966
16.34515 20.69316 12.78503
17.03223 21.35325 9.566013
17.27433 22.64825 6.851689
16.31444 23.10837 0.8503504
2.830103 21.85941 8.84643
3.165755 22.57701 1.57535
4.225681 21.07321 14.04131
2.973436 22.68782 19.38387
1.995562 22.86913 20.31348
4.203213 20.36485 10.08594
4.42106 21.68971 6.302958
5.10273 22.2002 3.979128
4.831932 22.12055 5.895868
5.960658 21.80814 0.9606962
7.265578 20.88311 2.408206
7.636041 20.91437 3.163362
8.450922 21.26019 2.603803
9.526936 21.54597 1.592783
7.892904 20.99306 3.359233
10.60228 21.17981 6.051067
10.26272 21.34336 3.149141
11.12438 20.9128 8.065128
11.8853 20.39444 4.643704
11.50538 20.5203 4.375595
15.62422 21.21231 12.77265
15.52452 20.31294 17.23326
12.60862 20.44162 2.691883
15.6695 21.71172 11.06469
14.78313 21.68843 1.961044
15.09326 21.6054 2.037783
15.44627 21.67252 5.24405
17.36668 22.67072 20.30467
18.14862 22.71523 20.12787
16.15483 20.48316 13.26832
16.9969 21.2534 9.402062
17.24276 22.74106 6.558729
16.33435 23.14666 1.225171
2.63875 22.05247 6.799787
2.864034 22.61364 3.869496
3.884514 21.25903 12.39401
3.74077 20.25679 16.91167
2.885584 21.68459 20.31579
3.903519 20.22918 12.25421
3.844025 20.74613 6.539935
4.510281 21.84411 6.283147
5.389541 22.16601 2.369014
4.61007 21.95694 6.293008
7.388631 20.88763 2.400692
3.718665 20.95478 17.91246
9.74218 21.52323 1.509918
8.434226 21.25887 1.859867
9.191907 21.51248 1.118652
10.62115 21.16668 5.494845
10.09146 21.43065 3.337329
11.61561 20.44515 3.929871
11.43374 20.60643 5.186891
12.46802 20.41674 4.873881
15.44725 20.27922 14.43442
12.54721 20.44017 4.721482
13.2998 21.37764 0.787459
14.93511 21.65148 2.113102
15.76982 21.71267 8.916164
16.15759 20.76432 18.09272
18.30239 22.68178 19.84068
15.78019 20.26456 15.92898
15.85568 20.76526 17.27703
17.31488 21.96388 7.904636
16.77903 23.21363 4.32407
3.470759 22.40507 0.9135815
2.803473 22.59406 3.545464
2.962026 21.57288 9.056792
4.076792 20.79627 13.9512
3.616899 22.06362 18.48569
2.730789 22.11355 20.23458
3.865407 20.40925 13.29346
3.839518 20.61589 7.547344
4.23696 21.33899 5.846152
4.858394 22.15061 3.507639
5.604898 22.08274 1.233636
7.616684 20.94783 1.689042
7.857217 20.9996 2.321661
3.575576 20.11996 16.9103
9.977896 21.45863 1.583888
8.689734 21.36652 0.9209712
10.52231 21.17188 2.645783
11.45955 20.47772 2.98716
12.07984 20.31064 3.409744
11.17571 20.81913 6.52151
15.71292 21.58673 11.31019
15.48134 20.06568 15.95907
12.52158 20.39639 3.236139
14.0495 21.74514 0.9120229
15.018 21.61077 1.699421
15.81946 21.63217 6.778158
16.61634 20.12751 18.17614
17.65634 22.12164 20.06676
18.38572 21.87341 19.74659
16.09495 20.4458 12.98248
16.59606 20.86461 11.01607
17.28017 21.76663 7.765215
17.33577 22.63574 5.828331
16.44448 21.45908 19.17748
2.665515 21.89291 7.118412
2.840355 22.64049 1.906132
2.923342 21.53977 8.627753
3.926842 20.55892 14.42061
3.72515 21.8273 18.50976
2.09939 23.1227 19.94122
3.864177 20.40263 9.585539
3.882222 20.83345 6.106087
4.507331 21.89724 5.344591
5.38543 22.15019 1.243645
7.858518 21.03346 1.16376
8.083488 21.09688 2.073625
9.646695 21.52929 0.8503797
11.00504 20.87519 4.98986
10.69558 21.09912 4.501133
11.57044 20.34263 1.540539
11.27778 20.59628 3.044716
15.6914 21.15304 11.77221
15.50354 20.47926 17.06871
13.14851 21.1885 0.4376721
15.6687 21.52445 4.330078
15.7572 21.64405 6.346543
16.4449 20.28033 18.11382
17.54276 22.20833 20.15709
18.88943 21.95633 18.29405
15.67111 20.98421 17.4022
16.09255 20.31181 16.92463
17.02231 21.18061 8.348992
17.40159 22.28202 5.642592
16.95232 23.22699 3.349565
2.751122 21.73997 7.690735
2.693467 22.61007 2.249821
3.999912 20.95691 12.76503
2.885106 22.89461 18.78062
2.387915 21.45086 19.73793
3.836282 20.37968 11.53884
3.456836 20.77159 6.12394
4.170352 21.34729 5.163921
4.808641 22.1206 2.705272
5.789975 21.93398 0.730168
10.13388 21.39691 1.870437
10.34725 21.27818 1.685172
11.17772 20.65453 2.713646
12.20984 20.24317 1.35843
10.83237 20.96403 3.496492
15.63513 20.97136 12.18054
15.47606 20.03308 15.68236
12.85852 20.74199 0.2264806
15.80575 21.41666 10.60108
16.03104 21.39307 2.763516
15.95175 21.53074 7.529176
16.84134 22.11221 19.43811
17.55992 22.18677 19.94714
18.86807 21.63816 18.02907
15.54244 20.36266 16.39758
16.87873 21.02812 9.014448
17.15196 21.36717 7.664131
17.41282 22.49374 4.887461
16.62416 21.91246 19.11689
2.551228 21.9508 5.754072
3.255929 21.26223 9.693643
3.494987 21.18272 10.6506
2.816078 23.10802 19.18993
2.233718 22.19967 19.89226
2.142041 23.18257 19.76217
3.591627 20.59391 8.429152
3.314884 20.97779 3.868845
4.361749 21.7471 4.673799
4.627981 22.00621 1.462203
4.538115 21.98172 3.340821
9.013004 21.44193 0.5675611
10.65469 21.04388 1.482555
11.38714 20.43905 1.483272
15.69884 20.34747 13.37253
14.59357 21.65325 0.372448
15.94019 21.41955 2.501027
16.07789 21.38122 7.00441
16.65743 20.07606 18.10121
17.2383 22.26517 19.87643
18.94531 22.07875 18.09437
17.92455 22.94697 19.63879
16.43276 20.23891 17.5225
17.10787 21.27923 7.756054
17.4233 22.55408 4.023707
16.81726 22.13273 19.0773
2.458994 22.15271 4.320439
3.357921 21.13758 9.92492
2.919676 21.44814 8.170531
2.793833 23.13775 19.24325
2.333124 22.18153 19.81846
3.895756 20.60729 12.75373
3.523906 20.67744 7.300765
3.296728 20.95011 4.210066
4.245181 21.62896 4.161402
4.830753 22.05417 0.8285673
7.208206 20.922 0.1247652
9.146335 21.47927 0.1244835
10.99067 20.74398 1.496466
11.00387 20.73711 1.582576
15.6929 20.86686 11.80206
15.86042 21.22575 10.2393
16.30692 21.38219 2.704119
16.09047 21.37521 5.810666
16.14828 21.3319 6.479161
16.94309 21.59725 19.92686
18.65608 22.7009 18.59044
17.83369 22.98288 19.51007
16.63565 20.1862 17.52664
17.21503 21.46474 6.789621
17.35385 21.88811 5.312402
16.85939 22.21656 18.83224
2.418495 22.17619 3.837391
3.462135 20.90412 9.914354
2.847664 21.51083 7.78488
2.831722 23.02894 18.80101
2.70141 22.13832 19.5929
3.679469 20.60066 10.6198
2.974137 21.07563 3.843807
3.996089 21.24935 4.300031
4.469878 21.91822 1.583307
7.527316 20.93291 0.2375695
8.231327 21.15576 0.4792725
15.77009 20.79214 11.47253
15.81627 21.49497 1.392941
16.26367 21.13088 7.447655
17.60119 20.58351 19.02315
18.08307 23.02359 19.17613
18.75047 21.52366 18.07727
16.21395 19.97886 16.91401
16.80653 20.98445 7.892664
17.42874 22.54808 3.160925
16.84716 22.22141 18.65668
2.44611 21.9995 4.406909
3.13058 21.07094 8.007389
3.788643 20.78181 11.78355
3.229575 22.05354 18.48038
2.392493 22.1498 19.50291
3.744073 20.73637 11.39095
3.046069 21.01076 4.610901
3.434237 21.1178 2.691825
3.841545 21.16298 3.890226
7.592505 20.94606 0.215638
15.99075 20.80448 10.44898
16.39048 21.25631 4.245606
16.15619 21.32295 5.439369
17.37568 22.80847 19.27464
17.0697 22.22939 19.50876
19.23306 21.92826 16.80901
19.2341 21.72754 16.84478
16.23823 20.13075 17.41979
17.2753 21.61221 6.054081
17.39651 22.88106 2.888747
16.981 22.38674 18.51052
2.430968 21.90993 4.095626
3.036494 21.13988 7.463307
2.781556 21.43077 6.55588
2.9888 22.3761 18.11427
1.78107 22.79343 19.4925
2.412344 20.65384 19.17249
2.652874 21.3292 2.55824
3.608371 21.10652 3.269905
4.38837 21.86446 1.886287
10.98372 20.68591 0.7257639
15.16914 21.55526 0.3724113
16.23244 21.55505 1.076286
16.7519 20.00747 18.01966
17.11856 22.29029 19.35476
19.28688 21.88781 16.57038
19.13823 21.3871 16.90503
16.45943 20.00572 17.13526
16.68173 20.9242 8.015384
17.37976 22.12977 3.301658
17.29214 21.70498 5.013008
17.09937 23.43025 0.8427442
2.34759 22.29695 2.588848
3.104127 20.99165 6.886653
2.693403 23.18544 18.52936
1.793041 22.4325 19.46496
1.992001 20.87328 19.29522
2.618706 21.35638 2.580411
2.925149 21.26336 1.244403
4.134383 21.6193 2.677963
10.2204 21.3223 0.05406993
11.5735 20.22717 0.236145
15.83395 21.51648 0.9588565
16.51177 21.05062 6.727939
17.04747 21.38306 19.10246
18.0025 23.08451 18.99184
18.07657 21.68082 18.90389
16.87581 20.31188 17.40581
16.11802 20.81304 9.900768
17.40111 22.23101 3.043965
17.41696 23.0225 1.460799
16.82838 22.21394 18.23332
2.45586 21.79611 4.019941
2.851331 21.21111 5.52985
2.670366 23.20995 18.50192
1.715788 22.64656 19.31977
3.078042 21.66737 19.0561
2.388938 21.59432 1.439999
3.844909 21.31243 2.847712
3.952618 21.5939 0.472636
16.84915 21.30456 4.274193
16.562 21.07443 6.322697
17.38333 21.0108 18.70862
18.09527 21.57272 18.42077
19.42323 21.77536 15.97273
18.9977 21.2253 16.94052
16.64587 19.9452 16.60744
17.13509 21.37271 5.707268
17.26362 21.91329 2.804708
16.5018 21.64521 18.28919
2.592376 21.53694 4.565312
4.326978 21.56787 17.33371
3.464503 21.97556 17.97109
1.672385 22.69859 19.14253
2.223781 21.41885 18.57717
2.373609 21.67437 2.036667
3.916331 21.42657 2.392051
16.68261 21.18633 4.955719
16.86058 21.54375 2.600683
17.51091 20.83646 18.3994
18.40701 23.1914 17.91963
19.10843 22.95255 16.42242
16.81753 20.14891 17.0879
16.78325 21.10759 6.04862
17.21936 21.74009 3.532633
17.06548 22.5062 17.96878
2.457504 21.66135 3.274866
3.588074 21.95228 17.77589
2.394312 20.63146 18.74987
1.824995 22.21163 18.97219
2.545732 21.52178 3.717608
3.670135 21.34678 1.580681
16.92609 21.29208 4.761722
16.14931 21.55338 0.789907
17.20532 22.35988 18.73114
19.26879 22.54834 16.00047
19.27004 21.19395 16.30713
16.93965 20.00894 17.51531
17.16665 21.81091 2.549548
16.60505 21.85919 17.61247
4.280472 21.67583 17.2962
3.050429 22.25982 17.69909
1.709922 22.34941 18.98031
2.540369 21.39767 18.12041
2.522002 21.43664 0.7687588
3.711635 21.41804 0.8688789
17.0193 21.57505 3.119401
17.31659 21.10281 17.84595
17.90652 21.77291 17.80674
18.18128 21.37292 17.52475
16.68458 20.79584 17.21981
17.04491 21.45629 4.099577
17.13493 22.60685 17.53293
4.470912 21.15013 16.75131
2.76116 22.76715 17.13044
3.044931 21.05678 17.22443
2.405239 22.04341 17.96257
2.256941 21.92782 1.573103
16.4038 21.63943 0.6040652
16.88517 21.85716 18.70779
18.56442 23.24862 17.32282
18.66681 20.94327 16.30359
17.13895 19.9453 17.27627
16.81833 22.1057 17.09611
3.66931 21.92056 17.46203
3.554381 21.67049 17.35093
1.829084 22.10577 18.54493
2.770202 21.35627 17.71869
3.493246 21.3581 0.6798401
17.11834 21.34369 17.89373
17.99226 21.54438 16.82626
18.8557 23.25121 16.61228
16.72805 19.76803 16.16828
17.67282 23.16929 18.1128
17.41595 23.10555 0.9557939
1.703988 23.0661 18.53337
3.248331 21.23275 16.74889
1.781538 22.03528 18.19732
3.089979 21.45066 17.91158
17.60436 20.62818 17.82879
17.96956 21.60311 16.73601
18.35075 21.04646 16.19873
17.14013 19.87096 16.69122
17.59657 23.2208 17.27295
4.372902 21.57818 16.69452
3.804086 21.73038 17.13019
2.27365 21.97189 17.66792
1.854736 20.7936 18.23346
16.88224 21.90898 18.29782
18.48158 23.34366 17.14342
16.56882 21.0208 16.77288
17.46875 22.6186 0.6582384
16.87138 22.15882 16.82296
2.379417 23.3583 17.78774
2.38675 20.59536 17.57569
2.141274 21.92469 17.57874
1.79807 21.16233 18.07367
16.95076 21.61703 17.54511
19.21707 23.28076 15.44373
16.65499 20.36674 16.11121
17.70912 23.32575 16.86901
16.77068 21.99748 16.57858
2.196485 23.39905 17.58119
3.849489 21.69905 16.79921
1.628005 22.02649 17.81282
1.802435 21.21274 17.8732
16.99841 21.53995 17.33615
17.97334 21.6352 16.25161
16.52621 21.50219 16.96018
17.22336 22.78178 16.33558
2.118544 23.40924 17.44199
3.001127 20.98488 16.44113
2.26152 21.87996 16.7132
2.645312 21.34114 17.33066
16.9638 21.61345 17.33772
18.07715 23.44134 16.98965
16.5875 20.24804 15.67439
17.02445 22.45181 16.1466
3.597559 21.90545 16.66899
3.139366 22.18413 16.30379
1.439198 22.25844 17.85476
1.741287 21.19198 17.58746
17.59074 20.69749 17.00061
18.03685 21.49435 15.82251
16.52461 21.32738 16.71792
16.96454 22.31816 15.89128
1.875096 23.33727 17.6976
2.117143 20.56695 17.39842
1.694179 21.8944 17.3736
3.059964 22.0798 16.86698
17.12122 21.44201 16.55027
18.04702 21.50208 15.63529
16.60153 20.03212 15.49371
16.99027 22.36354 15.81785
1.467969 22.85214 18.00617
2.076089 20.56032 17.16858
1.570704 21.95272 17.38704
3.413622 21.83426 16.97141
17.62585 20.50425 16.95105
17.95441 21.84766 15.99318
16.5253 20.71415 15.61483
17.36656 22.99455 15.44092
16.76095 21.84464 15.66294
1.656934 23.26087 17.38956
2.949142 20.94218 16.02052
2.377695 21.87236 15.70644
1.624217 21.20739 16.88385
17.112 21.53745 16.11994
18.66722 23.69134 15.3015
17.32087 20.14979 15.69738
17.89733 23.49523 16.21866
3.363687 22.11136 15.93799
3.25931 21.09948 15.64804
2.129123 21.74104 15.8307
2.949953 21.25136 16.37945
17.08241 21.58816 16.14553
18.08301 23.59209 16.00768
17.03659 22.38282 15.19451
4.010483 21.83757 15.82115
2.363027 23.11319 15.65043
2.364188 20.6352 16.10359
3.313865 21.45723 16.8475
16.98142 21.77014 16.3461
17.91347 22.22727 15.77253
17.39601 20.24748 15.66935
17.02915 22.2224 14.50995
1.922277 23.40059 16.50249
3.864445 21.48309 15.25875
1.613118 21.66565 16.17802
2.977096 21.23101 15.95221
17.52155 22.61974 16.36952
17.4944 20.36706 15.80569
17.88707 23.55085 15.51635
2.067503 23.32608 15.78819
1.156792 22.30825 16.93887
3.114279 21.27415 16.3695
17.54493 20.52956 15.84379
18.28882 23.71553 15.16805
17.50922 23.2144 14.52648
1.547786 23.2334 17.0419
3.721404 21.54393 15.05494
1.978764 20.56452 16.11054
3.528913 21.67791 16.21116
17.44709 21.28334 15.03036
16.56539 21.35317 15.43552
16.62215 21.3765 14.96493
1.394304 23.08594 17.06469
1.836811 23.35724 15.64281
1.129534 22.11251 16.59913
2.966996 21.21074 15.52055
17.02056 21.95975 15.63755
17.37894 20.49748 15.05022
17.0355 22.07725 13.85636
2.020818 23.20314 15.08431
1.112093 21.96923 16.27228
2.335135 21.35824 15.40714
17.85618 22.54177 15.28393
17.1673 22.4189 13.68231
1.863023 23.32541 15.41053
3.062147 21.10973 15.0133
1.142082 22.81741 16.71935
3.021605 21.20968 15.28801
17.02671 22.25238 15.82535
16.96692 21.83955 13.84719
1.486007 23.32452 15.97182
2.805556 21.22617 14.55965
3.573169 21.49379 15.56549
17.30802 21.709 14.69234
17.47733 20.83456 14.7952
2.205549 22.86424 14.57118
2.692938 21.03906 14.79068
3.429757 21.36043 15.59564
17.09056 22.15634 15.03614
2.975891 22.08221 14.76664
1.370085 23.30298 15.68979
1.754487 20.63545 15.25917
2.220148 21.39626 14.94402
17.40067 22.77225 15.05478
2.851017 22.06041 14.4949
1.147813 23.13715 15.9228
1.93368 20.89476 14.31514
1.468001 21.32598 15.51006
16.88442 21.24277 14.18691
1.196869 23.2748 15.35612
0.8774973 22.21791 15.88724
17.13717 22.49127 15.21813
2.657011 22.01013 14.23774
2.323982 21.582 13.92924
1.758034 21.49516 14.75324
17.25196 21.49024 13.71688
2.136805 21.61541 13.79053
0.7119738 22.29496 15.3654
17.58484 22.85848 14.45571
2.413723 21.70575 13.94684
17.51173 21.66637 13.75161
1.858961 21.88348 13.56753
17.49942 22.06925 13.69796
1.861951 21.69676 13.58097
0.6249922 22.97071 14.74185
1.121119 21.02814 14.3248