<svg class="main-svg" xmlns="http://www.w3.org/2000/svg" xmlns:xlink="http://www.w3.org/1999/xlink" width="950" height="211" style="" viewBox="0 0 950 211"><rect x="0" y="0" width="950" height="211" style="fill: rgb(255, 255, 255); fill-opacity: 1;"/><defs id="defs-271fe1"><g class="clips"><clipPath id="clip271fe1xyplot" class="plotclip"><rect width="725" height="166"/></clipPath><clipPath class="axesclip" id="clip271fe1x"><rect x="35" y="0" width="725" height="211"/></clipPath><clipPath class="axesclip" id="clip271fe1y"><rect x="0" y="10" width="950" height="166"/></clipPath><clipPath class="axesclip" id="clip271fe1xy"><rect x="35" y="10" width="725" height="166"/></clipPath></g><g class="gradients"/><g class="patterns"/></defs><g class="bglayer"/><g class="layer-below"><g class="imagelayer"/><g class="shapelayer"/></g><g class="cartesianlayer"><g class="subplot xy"><g class="layer-subplot"><g class="shapelayer"/><g class="imagelayer"/></g><g class="minor-gridlayer"><g class="x"/><g class="y"/></g><g class="gridlayer"><g class="x"/><g class="y"/></g><g class="zerolinelayer"/><g class="layer-between"><g class="shapelayer"/><g class="imagelayer"/></g><path class="xlines-below"/><path class="ylines-below"/><g class="overlines-below"/><g class="xaxislayer-below"/><g class="yaxislayer-below"/><g class="overaxes-below"/><g class="plot" transform="translate(35,10)" clip-path="url(#clip271fe1xyplot)"><g class="scatterlayer mlayer"><g class="trace scatter traced6a1be" style="stroke-miterlimit: 2; opacity: 0.3;"><g class="fills"/><g class="errorbars"/><g class="lines"><path class="js-line" d="M133.12,23.36L188.17,23.36" style="vector-effect: none; fill: none; stroke: rgb(95, 95, 95); stroke-opacity: 1; stroke-width: 4px; opacity: 1;"/></g><g class="points"><path class="point" transform="translate(133.12,23.36)" d="M3.5,0A3.5,3.5 0 1,1 0,-3.5A3.5,3.5 0 0,1 3.5,0Z" style="opacity: 1; stroke-width: 0px; fill: rgb(95, 95, 95); fill-opacity: 1;"/><path class="point" transform="translate(188.17,23.36)" d="M3.5,0A3.5,3.5 0 1,1 0,-3.5A3.5,3.5 0 0,1 3.5,0Z" style="opacity: 1; stroke-width: 0px; fill: rgb(95, 95, 95); fill-opacity: 1;"/></g><g class="text"/></g><g class="trace scatter trace94708b" style="stroke-miterlimit: 2; opacity: 0.3;"><g class="fills"/><g class="errorbars"/><g class="lines"><path class="js-line" d="M133.12,23.36L141.71,160.72" style="vector-effect: none; fill: none; stroke: rgb(41, 97, 147); stroke-opacity: 1; stroke-width: 3px; opacity: 1;"/></g><g class="points"/><g class="text"/></g><g class="trace scatter trace9d617e" style="stroke-miterlimit: 2; opacity: 0.3;"><g class="fills"/><g class="errorbars"/><g class="lines"><path class="js-line" d="M188.17,23.36L196.76,160.72" style="vector-effect: none; fill: none; stroke: rgb(41, 97, 147); stroke-opacity: 1; stroke-width: 3px; opacity: 1;"/></g><g class="points"/><g class="text"/></g><g class="trace scatter trace685354" style="stroke-miterlimit: 2; opacity: 0.3;"><g class="fills"/><g class="errorbars"/><g class="lines"><path class="js-line" d="M141.71,160.72L196.76,160.72" style="vector-effect: none; fill: none; stroke: rgb(151, 193, 57); stroke-opacity: 1; stroke-width: 4px; opacity: 1;"/></g><g class="points"><path class="point" transform="translate(141.71,160.72)" d="M3.5,0A3.5,3.5 0 1,1 0,-3.5A3.5,3.5 0 0,1 3.5,0Z" style="opacity: 1; stroke-width: 0px; fill: rgb(151, 193, 57); fill-opacity: 1;"/><path class="point" transform="translate(196.76,160.72)" d="M3.5,0A3.5,3.5 0 1,1 0,-3.5A3.5,3.5 0 0,1 3.5,0Z" style="opacity: 1; stroke-width: 0px; fill: rgb(151, 193, 57); fill-opacity: 1;"/></g><g class="text"/></g><g class="trace scatter trace8749a3" style="stroke-miterlimit: 2; opacity: 1;"><g class="fills"/><g class="errorbars"/><g class="lines"><path class="js-line" d="M133.12,23.36L188.17,23.36" style="vector-effect: none; fill: none; stroke: rgb(95, 95, 95); stroke-opacity: 1; stroke-width: 4px; opacity: 1;"/></g><g class="points"><path class="point" transform="translate(133.12,23.36)" d="M3.5,0A3.5,3.5 0 1,1 0,-3.5A3.5,3.5 0 0,1 3.5,0Z" style="opacity: 1; stroke-width: 0px; fill: rgb(95, 95, 95); fill-opacity: 1;"/><path class="point" transform="translate(188.17,23.36)" d="M3.5,0A3.5,3.5 0 1,1 0,-3.5A3.5,3.5 0 0,1 3.5,0Z" style="opacity: 1; stroke-width: 0px; fill: rgb(95, 95, 95); fill-opacity: 1;"/></g><g class="text"/></g><g class="trace scatter trace577e86" style="stroke-miterlimit: 2; opacity: 1;"><g class="fills"/><g class="errorbars"/><g class="lines"><path class="js-line" d="M133.12,23.36L188.17,149.5" style="vector-effect: none; fill: none; stroke: rgb(41, 97, 147); stroke-opacity: 1; stroke-width: 3px; opacity: 1;"/></g><g class="points"/><g class="text"/></g><g class="trace scatter tracee65fb5" style="stroke-miterlimit: 2; opacity: 1;"><g class="fills"/><g class="errorbars"/><g class="lines"><path class="js-line" d="M188.17,23.36L243.22,149.5" style="vector-effect: none; fill: none; stroke: rgb(41, 97, 147); stroke-opacity: 1; stroke-width: 3px; opacity: 1;"/></g><g class="points"/><g class="text"/></g><g class="trace scatter traced14e7b" style="stroke-miterlimit: 2; opacity: 1;"><g class="fills"/><g class="errorbars"/><g class="lines"><path class="js-line" d="M188.17,149.5L243.22,149.5" style="vector-effect: none; fill: none; stroke: rgb(151, 193, 57); stroke-opacity: 1; stroke-width: 4px; opacity: 1;"/></g><g class="points"><path class="point" transform="translate(188.17,149.5)" d="M3.5,0A3.5,3.5 0 1,1 0,-3.5A3.5,3.5 0 0,1 3.5,0Z" style="opacity: 1; stroke-width: 0px; fill: rgb(151, 193, 57); fill-opacity: 1;"/><path class="point" transform="translate(243.22,149.5)" d="M3.5,0A3.5,3.5 0 1,1 0,-3.5A3.5,3.5 0 0,1 3.5,0Z" style="opacity: 1; stroke-width: 0px; fill: rgb(151, 193, 57); fill-opacity: 1;"/></g><g class="text"/></g><g class="trace scatter tracecd3b0a" style="stroke-miterlimit: 2; opacity: 1;"><g class="fills"/><g class="errorbars"/><g class="lines"/><g class="points"><path class="point" transform="translate(215.69,149.5)" d="M0,1.7l1.7,1.7l1.7,-1.7l-1.7,-1.7l1.7,-1.7l-1.7,-1.7l-1.7,1.7l-1.7,-1.7l-1.7,1.7l1.7,1.7l-1.7,1.7l1.7,1.7Z" style="opacity: 1; stroke-width: 0px; fill: rgb(142, 68, 173); fill-opacity: 1;"/></g><g class="text"/></g><g class="trace scatter trace13c2ac" style="stroke-miterlimit: 2; opacity: 0.3;"><g class="fills"/><g class="errorbars"/><g class="lines"><path class="js-line" d="M133.12,23.36L188.17,23.36" style="vector-effect: none; fill: none; stroke: rgb(95, 95, 95); stroke-opacity: 1; stroke-width: 4px; opacity: 1;"/></g><g class="points"><path class="point" transform="translate(133.12,23.36)" d="M3.5,0A3.5,3.5 0 1,1 0,-3.5A3.5,3.5 0 0,1 3.5,0Z" style="opacity: 1; stroke-width: 0px; fill: rgb(95, 95, 95); fill-opacity: 1;"/><path class="point" transform="translate(188.17,23.36)" d="M3.5,0A3.5,3.5 0 1,1 0,-3.5A3.5,3.5 0 0,1 3.5,0Z" style="opacity: 1; stroke-width: 0px; fill: rgb(95, 95, 95); fill-opacity: 1;"/></g><g class="text"/></g><g class="trace scatter trace1c5786" style="stroke-miterlimit: 2; opacity: 0.3;"><g class="fills"/><g class="errorbars"/><g class="lines"><path class="js-line" d="M133.12,23.36L227.99,123.06" style="vector-effect: none; fill: none; stroke: rgb(41, 97, 147); stroke-opacity: 1; stroke-width: 3px; opacity: 1;"/></g><g class="points"/><g class="text"/></g><g class="trace scatter tracea2e815" style="stroke-miterlimit: 2; opacity: 0.3;"><g class="fills"/><g class="errorbars"/><g class="lines"><path class="js-line" d="M188.17,23.36L283.04,123.06" style="vector-effect: none; fill: none; stroke: rgb(41, 97, 147); stroke-opacity: 1; stroke-width: 3px; opacity: 1;"/></g><g class="points"/><g class="text"/></g><g class="trace scatter traceab4e2d" style="stroke-miterlimit: 2; opacity: 0.3;"><g class="fills"/><g class="errorbars"/><g class="lines"><path class="js-line" d="M227.99,123.06L283.04,123.06" style="vector-effect: none; fill: none; stroke: rgb(151, 193, 57); stroke-opacity: 1; stroke-width: 4px; opacity: 1;"/></g><g class="points"><path class="point" transform="translate(227.99,123.06)" d="M3.5,0A3.5,3.5 0 1,1 0,-3.5A3.5,3.5 0 0,1 3.5,0Z" style="opacity: 1; stroke-width: 0px; fill: rgb(151, 193, 57); fill-opacity: 1;"/><path class="point" transform="translate(283.04,123.06)" d="M3.5,0A3.5,3.5 0 1,1 0,-3.5A3.5,3.5 0 0,1 3.5,0Z" style="opacity: 1; stroke-width: 0px; fill: rgb(151, 193, 57); fill-opacity: 1;"/></g><g class="text"/></g><g class="trace scatter trace35754a" style="stroke-miterlimit: 2; opacity: 0.6;"><g class="fills"/><g class="errorbars"/><g class="lines"><path class="js-line" d="M531.9,78.97L540.91,82.66L541.12,82.72L549.92,85.03L550.15,85.07L561.49,86.38L561.74,86.38L571.91,86.05L572.17,86.02L583.04,84.06L583.31,83.99L593.48,80.5L593.75,80.39L603.65,75.14" style="vector-effect: none; fill: none; stroke: rgb(142, 68, 173); stroke-opacity: 1; stroke-dasharray: 3px, 3px; stroke-width: 2px; opacity: 1;"/></g><g class="points"/><g class="text"/></g><g class="trace scatter trace3eae20" style="stroke-miterlimit: 2; opacity: 0.3;"><g class="fills"/><g class="errorbars"/><g class="lines"><path class="js-line" d="M536.83,23.36L591.88,23.36" style="vector-effect: none; fill: none; stroke: rgb(95, 95, 95); stroke-opacity: 1; stroke-width: 4px; opacity: 1;"/></g><g class="points"><path class="point" transform="translate(536.83,23.36)" d="M3.5,0A3.5,3.5 0 1,1 0,-3.5A3.5,3.5 0 0,1 3.5,0Z" style="opacity: 1; stroke-width: 0px; fill: rgb(95, 95, 95); fill-opacity: 1;"/><path class="point" transform="translate(591.88,23.36)" d="M3.5,0A3.5,3.5 0 1,1 0,-3.5A3.5,3.5 0 0,1 3.5,0Z" style="opacity: 1; stroke-width: 0px; fill: rgb(95, 95, 95); fill-opacity: 1;"/></g><g class="text"/></g><g class="trace scatter trace1a67bd" style="stroke-miterlimit: 2; opacity: 0.3;"><g class="fills"/><g class="errorbars"/><g class="lines"><path class="js-line" d="M536.83,23.36L545.42,160.72" style="vector-effect: none; fill: none; stroke: rgb(192, 57, 43); stroke-opacity: 1; stroke-width: 3px; opacity: 1;"/></g><g class="points"/><g class="text"/></g><g class="trace scatter tracee5921e" style="stroke-miterlimit: 2; opacity: 0.3;"><g class="fills"/><g class="errorbars"/><g class="lines"><path class="js-line" d="M591.88,23.36L501.67,127.3" style="vector-effect: none; fill: none; stroke: rgb(41, 97, 147); stroke-opacity: 1; stroke-width: 3px; opacity: 1;"/></g><g class="points"/><g class="text"/></g><g class="trace scatter trace19d98e" style="stroke-miterlimit: 2; opacity: 0.3;"><g class="fills"/><g class="errorbars"/><g class="lines"><path class="js-line" d="M545.42,160.72L501.67,127.3" style="vector-effect: none; fill: none; stroke: rgb(151, 193, 57); stroke-opacity: 1; stroke-width: 4px; opacity: 1;"/></g><g class="points"><path class="point" transform="translate(545.42,160.72)" d="M3.5,0A3.5,3.5 0 1,1 0,-3.5A3.5,3.5 0 0,1 3.5,0Z" style="opacity: 1; stroke-width: 0px; fill: rgb(151, 193, 57); fill-opacity: 1;"/><path class="point" transform="translate(501.67,127.3)" d="M3.5,0A3.5,3.5 0 1,1 0,-3.5A3.5,3.5 0 0,1 3.5,0Z" style="opacity: 1; stroke-width: 0px; fill: rgb(151, 193, 57); fill-opacity: 1;"/></g><g class="text"/></g><g class="trace scatter trace342a2b" style="stroke-miterlimit: 2; opacity: 1;"><g class="fills"/><g class="errorbars"/><g class="lines"><path class="js-line" d="M536.83,23.36L591.88,23.36" style="vector-effect: none; fill: none; stroke: rgb(95, 95, 95); stroke-opacity: 1; stroke-width: 4px; opacity: 1;"/></g><g class="points"><path class="point" transform="translate(536.83,23.36)" d="M3.5,0A3.5,3.5 0 1,1 0,-3.5A3.5,3.5 0 0,1 3.5,0Z" style="opacity: 1; stroke-width: 0px; fill: rgb(95, 95, 95); fill-opacity: 1;"/><path class="point" transform="translate(591.88,23.36)" d="M3.5,0A3.5,3.5 0 1,1 0,-3.5A3.5,3.5 0 0,1 3.5,0Z" style="opacity: 1; stroke-width: 0px; fill: rgb(95, 95, 95); fill-opacity: 1;"/></g><g class="text"/></g><g class="trace scatter traceefd493" style="stroke-miterlimit: 2; opacity: 1;"><g class="fills"/><g class="errorbars"/><g class="lines"><path class="js-line" d="M536.83,23.36L591.88,149.5" style="vector-effect: none; fill: none; stroke: rgb(192, 57, 43); stroke-opacity: 1; stroke-width: 3px; opacity: 1;"/></g><g class="points"/><g class="text"/></g><g class="trace scatter trace1e93e7" style="stroke-miterlimit: 2; opacity: 1;"><g class="fills"/><g class="errorbars"/><g class="lines"><path class="js-line" d="M591.88,23.36L536.83,149.5" style="vector-effect: none; fill: none; stroke: rgb(41, 97, 147); stroke-opacity: 1; stroke-width: 3px; opacity: 1;"/></g><g class="points"/><g class="text"/></g><g class="trace scatter trace87db01" style="stroke-miterlimit: 2; opacity: 1;"><g class="fills"/><g class="errorbars"/><g class="lines"><path class="js-line" d="M591.88,149.5L536.83,149.5" style="vector-effect: none; fill: none; stroke: rgb(151, 193, 57); stroke-opacity: 1; stroke-width: 4px; opacity: 1;"/></g><g class="points"><path class="point" transform="translate(591.88,149.5)" d="M3.5,0A3.5,3.5 0 1,1 0,-3.5A3.5,3.5 0 0,1 3.5,0Z" style="opacity: 1; stroke-width: 0px; fill: rgb(151, 193, 57); fill-opacity: 1;"/><path class="point" transform="translate(536.83,149.5)" d="M3.5,0A3.5,3.5 0 1,1 0,-3.5A3.5,3.5 0 0,1 3.5,0Z" style="opacity: 1; stroke-width: 0px; fill: rgb(151, 193, 57); fill-opacity: 1;"/></g><g class="text"/></g><g class="trace scatter trace8481ba" style="stroke-miterlimit: 2; opacity: 1;"><g class="fills"/><g class="errorbars"/><g class="lines"/><g class="points"><path class="point" transform="translate(564.36,86.43)" d="M0,2.55l2.55,2.55l2.55,-2.55l-2.55,-2.55l2.55,-2.55l-2.55,-2.55l-2.55,2.55l-2.55,-2.55l-2.55,2.55l2.55,2.55l-2.55,2.55l2.55,2.55Z" style="opacity: 1; stroke-width: 0px; fill: rgb(142, 68, 173); fill-opacity: 1;"/></g><g class="text"/></g><g class="trace scatter tracec03d1d" style="stroke-miterlimit: 2; opacity: 0.3;"><g class="fills"/><g class="errorbars"/><g class="lines"><path class="js-line" d="M536.83,23.36L591.88,23.36" style="vector-effect: none; fill: none; stroke: rgb(95, 95, 95); stroke-opacity: 1; stroke-width: 4px; opacity: 1;"/></g><g class="points"><path class="point" transform="translate(536.83,23.36)" d="M3.5,0A3.5,3.5 0 1,1 0,-3.5A3.5,3.5 0 0,1 3.5,0Z" style="opacity: 1; stroke-width: 0px; fill: rgb(95, 95, 95); fill-opacity: 1;"/><path class="point" transform="translate(591.88,23.36)" d="M3.5,0A3.5,3.5 0 1,1 0,-3.5A3.5,3.5 0 0,1 3.5,0Z" style="opacity: 1; stroke-width: 0px; fill: rgb(95, 95, 95); fill-opacity: 1;"/></g><g class="text"/></g><g class="trace scatter trace83e899" style="stroke-miterlimit: 2; opacity: 0.3;"><g class="fills"/><g class="errorbars"/><g class="lines"><path class="js-line" d="M536.83,23.36L631.71,123.06" style="vector-effect: none; fill: none; stroke: rgb(192, 57, 43); stroke-opacity: 1; stroke-width: 3px; opacity: 1;"/></g><g class="points"/><g class="text"/></g><g class="trace scatter trace6a6f77" style="stroke-miterlimit: 2; opacity: 0.3;"><g class="fills"/><g class="errorbars"/><g class="lines"><path class="js-line" d="M591.88,23.36L591.8,160.99" style="vector-effect: none; fill: none; stroke: rgb(41, 97, 147); stroke-opacity: 1; stroke-width: 3px; opacity: 1;"/></g><g class="points"/><g class="text"/></g><g class="trace scatter trace9f9fbd" style="stroke-miterlimit: 2; opacity: 0.3;"><g class="fills"/><g class="errorbars"/><g class="lines"><path class="js-line" d="M631.71,123.06L591.8,160.99" style="vector-effect: none; fill: none; stroke: rgb(151, 193, 57); stroke-opacity: 1; stroke-width: 4px; opacity: 1;"/></g><g class="points"><path class="point" transform="translate(631.71,123.06)" d="M3.5,0A3.5,3.5 0 1,1 0,-3.5A3.5,3.5 0 0,1 3.5,0Z" style="opacity: 1; stroke-width: 0px; fill: rgb(151, 193, 57); fill-opacity: 1;"/><path class="point" transform="translate(591.8,160.99)" d="M3.5,0A3.5,3.5 0 1,1 0,-3.5A3.5,3.5 0 0,1 3.5,0Z" style="opacity: 1; stroke-width: 0px; fill: rgb(151, 193, 57); fill-opacity: 1;"/></g><g class="text"/></g><g class="trace scatter tracea855cf" style="stroke-miterlimit: 2; opacity: 1;"><g class="fills"/><g class="errorbars"/><g class="lines"/><g class="points"/><g class="text"/></g><g class="trace scatter tracebe5ee9" style="stroke-miterlimit: 2; opacity: 1;"><g class="fills"/><g class="errorbars"/><g class="lines"/><g class="points"/><g class="text"/></g><g class="trace scatter trace84f11d" style="stroke-miterlimit: 2; opacity: 1;"><g class="fills"/><g class="errorbars"/><g class="lines"/><g class="points"/><g class="text"/></g><g class="trace scatter trace4b5ab6" style="stroke-miterlimit: 2; opacity: 1;"><g class="fills"/><g class="errorbars"/><g class="lines"/><g class="points"/><g class="text"/></g><g class="trace scatter tracee1e9d2" style="stroke-miterlimit: 2; opacity: 1;"><g class="fills"/><g class="errorbars"/><g class="lines"/><g class="points"/><g class="text"/></g></g></g><g class="overplot"/><path class="xlines-above crisp" d="M0,0" style="fill: none;"/><path class="ylines-above crisp" d="M0,0" style="fill: none;"/><g class="overlines-above"/><g class="xaxislayer-above"/><g class="yaxislayer-above"/><g class="overaxes-above"/></g></g><g class="polarlayer"/><g class="smithlayer"/><g class="ternarylayer"/><g class="geolayer"/><g class="funnelarealayer"/><g class="pielayer"/><g class="iciclelayer"/><g class="treemaplayer"/><g class="sunburstlayer"/><g class="glimages"/><defs id="topdefs-271fe1"><g class="clips"/><clipPath id="legend271fe1"><rect width="166" height="105" x="0" y="0"/></clipPath></defs><g class="layer-above"><g class="imagelayer"/><g class="shapelayer"/></g><g class="infolayer"><g class="legend" pointer-events="all" transform="translate(774.5,40.5)"><rect class="bg" shape-rendering="crispEdges" width="166" height="105" x="0" y="0" style="stroke: rgb(68, 68, 68); stroke-opacity: 1; fill: rgb(255, 255, 255); fill-opacity: 1; stroke-width: 0px;"/><g class="scrollbox" transform="" clip-path="url(#legend271fe1)"><g class="groups"><g class="traces" transform="translate(0,14.5)" style="opacity: 1;"><text class="legendtext" text-anchor="start" x="40" y="3.9" style="font-family: 'Open Sans', verdana, arial, sans-serif; font-size: 10px; fill: rgb(42, 63, 95); fill-opacity: 1; white-space: pre;">Frame (AB = DC)</text><g class="layers" style="opacity: 1;"><g class="legendfill"/><g class="legendlines"><path class="js-line" d="M5,0h30" style="fill: none; stroke: rgb(95, 95, 95); stroke-opacity: 1; stroke-width: 4px;"/></g><g class="legendsymbols"><g class="legendpoints"/></g></g><rect class="legendtoggle" x="0" y="-9.5" width="160.90625" height="19" style="fill: rgb(0, 0, 0); fill-opacity: 0;"/></g><g class="traces" transform="translate(0,33.5)" style="opacity: 1;"><text class="legendtext" text-anchor="start" x="40" y="3.9" style="font-family: 'Open Sans', verdana, arial, sans-serif; font-size: 10px; fill: rgb(42, 63, 95); fill-opacity: 1; white-space: pre;">Crank / rocker (AD, BC)</text><g class="layers" style="opacity: 1;"><g class="legendfill"/><g class="legendlines"><path class="js-line" d="M5,0h30" style="fill: none; stroke: rgb(41, 97, 147); stroke-opacity: 1; stroke-width: 3px;"/></g><g class="legendsymbols"><g class="legendpoints"/></g></g><rect class="legendtoggle" x="0" y="-9.5" width="160.90625" height="19" style="fill: rgb(0, 0, 0); fill-opacity: 0;"/></g><g class="traces" transform="translate(0,52.5)" style="opacity: 1;"><text class="legendtext" text-anchor="start" x="40" y="3.9" style="font-family: 'Open Sans', verdana, arial, sans-serif; font-size: 10px; fill: rgb(42, 63, 95); fill-opacity: 1; white-space: pre;">Crossed link (AD)</text><g class="layers" style="opacity: 1;"><g class="legendfill"/><g class="legendlines"><path class="js-line" d="M5,0h30" style="fill: none; stroke: rgb(192, 57, 43); stroke-opacity: 1; stroke-width: 3px;"/></g><g class="legendsymbols"><g class="legendpoints"/></g></g><rect class="legendtoggle" x="0" y="-9.5" width="160.90625" height="19" style="fill: rgb(0, 0, 0); fill-opacity: 0;"/></g><g class="traces" transform="translate(0,71.5)" style="opacity: 1;"><text class="legendtext" text-anchor="start" x="40" y="3.9" style="font-family: 'Open Sans', verdana, arial, sans-serif; font-size: 10px; fill: rgb(42, 63, 95); fill-opacity: 1; white-space: pre;">Coupler (DC)</text><g class="layers" style="opacity: 1;"><g class="legendfill"/><g class="legendlines"><path class="js-line" d="M5,0h30" style="fill: none; stroke: rgb(151, 193, 57); stroke-opacity: 1; stroke-width: 4px;"/></g><g class="legendsymbols"><g class="legendpoints"/></g></g><rect class="legendtoggle" x="0" y="-9.5" width="160.90625" height="19" style="fill: rgb(0, 0, 0); fill-opacity: 0;"/></g><g class="traces" transform="translate(0,90.5)" style="opacity: 1;"><text class="legendtext" text-anchor="start" x="40" y="3.9" style="font-family: 'Open Sans', verdana, arial, sans-serif; font-size: 10px; fill: rgb(42, 63, 95); fill-opacity: 1; white-space: pre;">ICR path (centrode)</text><g class="layers" style="opacity: 1;"><g class="legendfill"/><g class="legendlines"><path class="js-line" d="M5,0h30" style="fill: none; stroke: rgb(142, 68, 173); stroke-opacity: 1; stroke-dasharray: 3px, 3px; stroke-width: 2px;"/></g><g class="legendsymbols"><g class="legendpoints"/></g></g><rect class="legendtoggle" x="0" y="-9.5" width="160.90625" height="19" style="fill: rgb(0, 0, 0); fill-opacity: 0;"/></g></g></g><rect class="scrollbar" rx="20" ry="3" width="0" height="0" x="0" y="0" style="fill: rgb(128, 139, 164); fill-opacity: 1;"/></g><g class="g-gtitle"/><g class="g-xtitle"/><g class="g-ytitle"/><g class="annotation" data-index="0" style="opacity: 1;"><g class="annotation-text-g" transform="rotate(0,195.64,15.01)"><g class="cursor-pointer" transform="translate(143,5)"><rect class="bg" x="0.5" y="0.5" width="105" height="19" style="stroke-width: 1px; stroke: rgb(0, 0, 0); stroke-opacity: 0; fill: rgb(0, 0, 0); fill-opacity: 0;"/><text class="annotation-text" text-anchor="middle" x="53.125" y="15" style="font-family: 'Open Sans', verdana, arial, sans-serif; font-size: 13px; fill: rgb(95, 95, 95); fill-opacity: 1; white-space: pre;"><tspan style="font-weight:bold">Parallelogram</tspan></text></g></g></g><g class="annotation" data-index="1" style="opacity: 1;"><g class="annotation-text-g" transform="rotate(0,635.21,96.43)"><g class="cursor-pointer" transform="translate(623,87)"><rect class="bg" x="0.5" y="0.5" width="23" height="17" style="stroke-width: 1px; stroke: rgb(0, 0, 0); stroke-opacity: 0; fill: rgb(0, 0, 0); fill-opacity: 0;"/><text class="annotation-text" text-anchor="middle" x="11.984375" y="13" style="font-family: 'Open Sans', verdana, arial, sans-serif; font-size: 11px; fill: rgb(142, 68, 173); fill-opacity: 1; white-space: pre;">ICR</text></g></g></g><g class="annotation" data-index="2" style="opacity: 1;"><g class="annotation-text-g" transform="rotate(0,599.36,15.01)"><g class="cursor-pointer" transform="translate(531,5)"><rect class="bg" x="0.5" y="0.5" width="135" height="19" style="stroke-width: 1px; stroke: rgb(0, 0, 0); stroke-opacity: 0; fill: rgb(0, 0, 0); fill-opacity: 0;"/><text class="annotation-text" text-anchor="middle" x="67.765625" y="15" style="font-family: 'Open Sans', verdana, arial, sans-serif; font-size: 13px; fill: rgb(95, 95, 95); fill-opacity: 1; white-space: pre;"><tspan style="font-weight:bold">Antiparallelogram</tspan></text></g></g></g></g></svg>