####
#
# OBJ File Generated by Meshlab
#
####
# Object border.obj
#
# Vertices: 589
# Faces: 314
#
####
mtllib ./border.obj.mtl

vn -0.083461 -0.021380 -1.564072
v 1.655789 15.629185 -4.810871
vn -0.076366 -0.007157 -1.559232
v 1.473207 15.653154 -4.801610
vn -0.080035 0.029338 -1.593097
v 1.832160 15.575901 -4.821248
vn -0.119218 -0.042291 -2.999564
v 0.767295 15.450661 -4.767601
vn -0.072892 -0.005605 -1.579865
v 1.112012 15.598070 -4.783970
vn -0.081429 0.016201 -1.593090
v 1.290059 15.644039 -4.792849
vn -0.077671 -0.008052 -1.577893
v 1.473721 15.669891 -4.801712
vn -0.083629 -0.018644 -1.572420
v 1.659345 15.645517 -4.811284
vn -0.058813 0.079071 -1.580310
v 1.994027 15.490711 -4.832105
vn -0.056489 0.069194 -1.500868
v 2.133105 15.371036 -4.842798
vn -0.078722 0.014374 -1.543896
v 1.287779 15.660703 -4.792563
vn -0.076459 0.031307 -1.545283
v 1.838770 15.591218 -4.821298
vn -0.122697 0.133303 -2.945436
v 2.506115 14.933016 -4.878104
vn -0.229129 0.116301 -2.961961
v 0.101768 15.093767 -4.735063
vn -0.006888 -0.001298 -0.158947
v 0.931752 15.544754 -4.775464
vn -0.072388 -0.004295 -1.559229
v 1.107403 15.614319 -4.783815
vn -0.057928 0.077475 -1.555502
v 2.003344 15.504676 -4.831753
vn -0.060133 0.073382 -1.592581
v 2.144404 15.383579 -4.842645
vn -0.004974 0.000235 -0.099417
v 0.591402 15.380366 -4.759619
vn -0.008174 0.011371 -0.227075
v 2.654527 14.807144 -4.889983
vn -0.249343 0.126532 -3.222888
v 0.094426 15.109049 -4.733895
vn -0.037286 0.081935 -1.408302
v 2.795793 14.668335 -4.901799
vn -0.151558 0.128907 -1.683352
v -0.249221 14.960958 -4.711748
vn -0.129725 0.111559 -1.436762
v -0.244039 14.944948 -4.713459
vn -0.054152 0.047460 -1.373699
v 2.967896 14.556974 -4.911980
vn -0.046676 0.098347 -1.723332
v 2.805564 14.682063 -4.901259
vn -0.134654 0.130424 -1.639250
v -0.612846 14.871839 -4.685836
vn -0.070319 0.058917 -1.763506
v 2.975361 14.571975 -4.911756
vn -0.067395 0.013299 -1.367122
v 3.156495 14.475381 -4.921625
vn -0.117714 0.114409 -1.436996
v -0.611555 14.855156 -4.687270
vn -0.087004 0.017744 -1.771398
v 3.161252 14.491469 -4.921703
vn -0.064698 0.022778 -1.425298
v 3.358575 14.438469 -4.931507
vn -0.061076 0.037266 -1.444619
v 3.570745 14.436804 -4.940690
vn -0.145289 0.115605 -1.746114
v -0.797356 14.862739 -4.671446
vn -0.114820 0.090286 -1.378782
v -0.798687 14.846050 -4.672428
vn -0.131822 0.150521 -1.749248
v -0.979012 14.893882 -4.654279
vn -0.077393 0.028117 -1.710432
v 3.360566 14.455137 -4.931331
vn -0.052671 0.011484 -1.434879
v 3.789612 14.460949 -4.948228
vn -0.102890 0.119656 -1.373028
v -0.983259 14.877757 -4.655366
vn -0.071034 0.042236 -1.690262
v 3.570133 14.453633 -4.940230
vn -0.102551 0.173309 -1.705307
v -1.153349 14.957989 -4.635628
vn -0.062084 0.012132 -1.703419
v 3.786789 14.477613 -4.947991
vn -0.044543 -0.017084 -1.444368
v 4.007953 14.510463 -4.955200
vn -0.083915 0.144833 -1.414220
v -1.160615 14.943048 -4.636727
vn -0.115196 0.139270 -1.713534
v -1.315898 15.047782 -4.616787
vn -0.056354 -0.011342 -1.744061
v 4.003377 14.526790 -4.955252
vn -0.152912 0.186710 -2.968656
v 4.218559 14.584900 -4.962681
vn -0.095332 0.112923 -1.409139
v -1.326082 15.034692 -4.617147
vn -0.003601 0.002908 -0.106691
v 4.875304 14.883310 -4.977741
vn -0.148221 0.123870 -1.786065
v -1.451868 15.167806 -4.597970
vn -0.112176 0.092079 -1.338663
v -1.464662 15.157308 -4.597620
vn -0.036877 0.011266 -1.549318
v 5.116118 14.942699 -4.983041
vn -0.104887 0.148162 -1.787580
v -1.546466 15.322608 -4.579395
vn -0.037505 0.011074 -1.590294
v 5.111714 14.959088 -4.982817
vn -0.076871 0.112032 -1.339857
v -1.561351 15.315516 -4.579134
vn -0.029132 0.000001 -1.562637
v 5.359427 14.998498 -4.987435
vn -0.074283 0.152279 -1.749643
v -1.601988 15.498959 -4.561464
vn -0.028956 0.001015 -1.576419
v 5.356638 15.015185 -4.987383
vn -0.057392 0.120079 -1.376874
v -1.618149 15.495615 -4.561082
vn -0.177665 0.149414 -1.755381
v -1.620722 15.683626 -4.544578
vn -0.019261 0.024835 -1.600831
v 5.612823 15.032809 -4.990192
vn -0.141625 0.115425 -1.357792
v -1.637055 15.683901 -4.542851
vn -0.018206 0.024718 -1.539866
v 5.612180 15.049650 -4.989923
vn -0.309902 0.202273 -1.767026
v -1.595536 15.864866 -4.531798
vn -0.011430 0.045508 -1.611000
v 5.868674 15.031871 -4.992245
vn -0.234431 0.151864 -1.309199
v -1.610611 15.869104 -4.528607
vn -0.010849 0.042310 -1.529193
v 5.870526 15.048585 -4.991786
vn -0.274271 0.340001 -1.749526
v -1.519285 16.030928 -4.526189
vn -0.011213 0.023079 -1.580872
v 6.119344 14.981924 -4.994524
vn -0.201556 0.256721 -1.294897
v -1.531355 16.039953 -4.522521
vn -0.010874 0.021674 -1.560047
v 6.123856 14.998090 -4.994320
vn -0.029401 0.483614 -1.862316
v -1.395951 16.150599 -4.521661
vn -0.006527 -0.003781 -1.574129
v 6.359694 14.889851 -4.995038
vn -0.010700 0.309376 -1.177997
v -1.403784 16.163811 -4.518120
vn -0.005384 -0.003816 -1.567346
v 6.366765 14.905123 -4.995104
vn 0.133031 0.409667 -1.835132
v -1.229512 16.192665 -4.512125
vn 0.020587 -0.005030 -1.571500
v 6.584593 14.762534 -4.991794
vn 0.093758 0.271761 -1.227674
v -1.232400 16.208036 -4.508943
vn 0.021191 -0.005078 -1.569855
v 6.593840 14.776636 -4.991718
vn 0.157292 0.246933 -1.736840
v -1.043504 16.181292 -4.500437
vn 0.035285 -0.006225 -1.549760
v 6.790504 14.604245 -4.986548
vn 0.123804 0.187769 -1.356879
v -1.041882 16.197414 -4.498058
vn 0.034143 -0.007555 -1.547921
v 6.801400 14.617211 -4.986352
vn 0.138664 0.067615 -1.719564
v -0.861472 16.140652 -4.489452
vn -0.040536 -0.095211 -1.446613
v 7.322217 14.043417 -4.963181
vn 0.112718 0.048097 -1.407422
v -0.856918 16.156725 -4.488538
vn -0.047637 -0.115078 -1.732587
v 7.333274 14.056152 -4.964329
vn 0.012705 -0.008328 -0.215274
v -0.685281 16.076368 -4.477538
vn -0.020062 -0.112879 -1.387289
v 7.512455 13.885883 -4.953066
vn -0.024145 -0.139869 -1.743588
v 7.521685 13.899851 -4.954336
vn 0.127900 -0.254946 -2.871828
v -0.508934 16.009117 -4.463714
vn 0.002046 -0.073065 -1.415907
v 7.730731 13.768291 -4.947245
vn 0.008330 -0.011584 -0.155309
v -0.354625 15.898864 -4.447054
vn 0.003449 -0.086925 -1.722526
v 7.737370 13.783573 -4.948024
vn 0.286318 -0.034901 -3.042289
v -0.031884 15.707533 -4.414485
vn 0.021610 -0.031854 -1.394230
v 7.962211 13.693276 -4.942476
vn 0.092101 -0.101198 -1.593688
v 0.121399 15.597865 -4.398801
vn 0.027823 -0.040581 -1.748634
v 7.965615 13.709548 -4.942795
vn 0.084784 -0.098258 -1.501937
v 0.128247 15.613251 -4.399421
vn 0.089824 -0.105134 -1.541194
v 0.291452 15.528429 -4.384659
vn 1.573315 -0.785993 0.757769
v 2.997224 15.145835 19.771910
vn 0.082174 -0.086972 -2.745717
v 8.192059 13.663475 -4.935519
vn 0.092750 -0.108624 -1.588274
v 0.295791 15.544577 -4.385510
vn 0.985513 0.081613 0.911578
v 3.299450 14.939010 19.330965
vn 0.819395 0.052873 0.664087
v 3.097672 15.016949 19.574062
vn 0.100823 -0.107258 -3.385810
v 8.191706 13.680000 -4.936053
vn 0.090598 -0.049188 -1.532827
v 0.473430 15.502080 -4.372230
vn 0.709382 0.106017 1.145710
v 4.268481 14.790874 18.377218
vn 0.835268 0.101075 1.072440
v 4.067679 14.797649 18.532791
vn 2.025365 0.378957 1.863210
v 3.720715 14.852703 18.891850
vn 1.624447 0.075748 1.298617
v 3.111445 15.051137 19.554346
vn 0.189787 -0.153195 0.170661
v 3.108558 15.341413 19.835592
vn 0.003997 -0.001686 -0.150332
v 8.407501 13.705526 -4.929516
vn 0.027539 0.012993 -1.435719
v 8.612676 13.782154 -4.924887
vn 0.094845 -0.047799 -1.603479
v 0.474552 15.518664 -4.372658
vn 1.191512 0.006399 2.491340
v 4.726143 14.806555 18.122335
vn 0.983795 0.089205 0.982577
v 3.895074 14.820380 18.703176
vn 1.298441 0.105858 1.190573
v 3.304650 14.985355 19.321194
vn 3.280670 -1.420185 1.699302
v 3.018755 15.161398 19.743349
vn 0.493319 -0.514935 0.972728
v 3.271073 15.564956 19.871510
vn 0.030586 0.018088 -1.705808
v 8.604865 13.796721 -4.924905
vn 0.075540 0.005533 -1.572967
v 0.659341 15.513168 -4.361564
vn 0.600882 0.106504 1.195602
v 4.967853 14.818409 18.011070
vn 0.183951 0.015514 0.336653
v 4.488338 14.846254 18.235966
vn 0.960107 0.140030 1.510390
v 4.266791 14.841735 18.373558
vn 1.115310 0.130501 1.390056
v 4.066805 14.848480 18.528681
vn 1.229648 0.125216 1.216912
v 3.895037 14.871159 18.698603
vn 0.232205 0.032040 0.214166
v 3.516384 14.938779 19.096457
vn 0.813683 -0.806797 1.590674
v 3.290402 15.535768 19.846256
vn -0.012860 0.063519 -1.446259
v 8.789746 13.915711 -4.921323
vn 0.074120 0.008633 -1.565149
v 0.656918 15.529619 -4.361588
vn 0.551670 0.122349 1.235051
v 5.207459 14.825016 17.890694
vn 0.802621 0.128372 1.605186
v 4.966813 14.869169 18.007071
vn 0.551803 -0.297226 0.997942
v 3.459408 15.729636 19.810547
vn -0.014816 0.074396 -1.696941
v 8.779029 13.928546 -4.920664
vn 0.071992 -0.003640 -1.572709
v 0.841206 15.556046 -4.352715
vn 0.724839 0.157031 1.601914
v 5.205194 14.875738 17.886681
vn 0.943085 -0.480929 1.673003
v 3.473819 15.689045 19.790489
vn -0.007943 0.061002 -1.442794
v 8.937793 14.064638 -4.915784
vn 0.071457 -0.004354 -1.564258
v 0.835277 15.571550 -4.353029
vn 0.143223 0.040182 0.420202
v 5.428601 14.879726 17.786495
vn 0.317753 0.115003 1.238075
v 5.630073 14.833079 17.739120
vn 0.644962 -0.185889 0.971966
v 3.642578 15.845522 19.708433
vn -0.007944 0.070802 -1.698282
v 8.925251 14.075966 -4.915236
vn 0.079477 -0.013199 -1.513903
v 1.006643 15.636276 -4.345381
vn 0.328801 0.213942 2.750697
v 6.001083 14.839256 17.676304
vn -0.185840 0.101014 1.380100
v 6.200467 14.839175 17.662357
vn 1.094299 -0.304167 1.627747
v 3.651203 15.799594 19.693926
vn 0.700398 -0.142256 0.942028
v 3.812145 15.914661 19.591642
vn 0.036221 0.092430 -2.938076
v 9.063953 14.226091 -4.909117
vn -0.813670 0.059883 1.101849
v 8.142715 14.926691 18.421211
vn 0.085925 -0.014764 -1.623356
v 0.997454 15.650089 -4.345993
vn 0.421998 0.155297 1.690003
v 5.625737 14.883783 17.735523
vn 1.407605 -0.277904 2.019482
v 3.976507 15.941914 19.472010
vn -0.724776 0.192149 2.732714
v 6.905302 14.825775 17.807405
vn 0.039870 0.101686 -3.230376
v 9.050363 14.236280 -4.908964
vn -1.073517 0.188401 2.420109
v 7.358296 14.816008 17.963333
vn -1.443865 -0.194912 2.396343
v 7.751968 14.855565 18.172953
vn -2.005479 -0.144795 2.043869
v 8.532444 14.937110 18.747366
vn 0.049885 0.017809 -1.520392
v 1.143275 15.759421 -4.339269
vn 0.368441 0.239768 3.082794
v 5.998655 14.890045 17.672644
vn -0.185048 0.128903 1.753522
v 6.199482 14.890018 17.658503
vn -0.053298 0.023086 0.320116
v 6.424117 14.885601 17.689075
vn 1.172719 -0.235808 1.576221
v 3.814948 15.865764 19.582174
vn 0.001711 0.003925 -0.115580
v 9.376359 14.742611 -4.888091
vn -0.217117 -0.000311 0.396226
v 7.559374 14.872917 18.058321
vn -0.969838 0.083361 0.931302
v 8.926227 14.922760 19.136961
vn -0.245014 -0.000131 0.289239
v 8.344605 14.992315 18.566732
vn -0.987990 0.061154 1.354835
v 8.141647 14.977481 18.417662
vn 0.051132 0.021111 -1.621007
v 1.131259 15.770864 -4.339499
vn 1.884905 -0.371948 2.702561
v 3.974622 15.891672 19.466410
vn -0.135622 0.029253 0.393864
v 7.142274 14.873023 17.874004
vn 0.024133 0.054177 -1.576715
v 9.511790 14.878640 -4.881344
vn -1.285141 0.226310 2.907385
v 7.358574 14.866816 17.959501
vn -1.227201 0.091720 1.182767
v 8.926557 14.973354 19.132776
vn -2.176751 -0.337301 2.256332
v 8.725253 14.977530 18.939417
vn 0.008601 0.044238 -1.553833
v 1.252334 15.911905 -4.333843
vn -0.804683 0.212929 3.027749
v 6.906367 14.876653 17.804110
vn 0.252556 -0.052684 0.432118
v 4.139812 15.881433 19.357792
vn 0.636747 -0.132387 1.208824
v 4.314926 15.910589 19.268744
vn 0.025677 0.051749 -1.562253
v 9.499907 14.890627 -4.881114
vn -0.207633 0.016228 0.184933
v 9.132456 15.006230 19.344252
vn 0.006288 0.046615 -1.585413
v 1.238153 15.920824 -4.333637
vn 0.459796 -0.122345 1.229040
v 4.489284 15.902534 19.202902
vn 0.054783 0.018784 -1.540703
v 9.657861 15.000749 -4.874155
vn -2.165089 -0.014304 1.456673
v 9.350103 15.073549 19.612553
vn 0.011132 0.042057 -1.578008
v 1.335060 16.080153 -4.328568
vn 0.792838 -0.170224 1.576841
v 4.310376 15.859878 19.265587
vn 0.057890 0.017445 -1.598788
v 9.647858 15.014256 -4.874346
vn 0.073412 -0.017419 -1.545619
v 9.820158 15.099327 -4.867121
vn -0.701739 -0.654552 0.746437
v 9.403649 15.447110 19.914370
vn -0.987739 -0.577541 0.441807
v 9.470299 15.242644 19.827724
vn 0.011310 0.041379 -1.562258
v 1.319579 16.086914 -4.328501
vn 0.032965 0.032038 -1.605675
v 1.396270 16.258728 -4.323395
vn 0.595286 -0.169598 1.696603
v 4.486169 15.851830 19.199020
vn 0.272191 -0.131518 1.283601
v 4.682489 15.902115 19.162542
vn 0.075032 -0.017195 -1.593605
v 9.812387 15.114225 -4.867658
vn -2.780430 0.025529 1.942778
v 9.336257 15.106815 19.592300
vn 0.033981 0.031194 -1.594197
v 1.380136 16.263987 -4.323636
vn -0.045320 0.047917 -1.635085
v 1.542232 16.805861 -4.309578
vn 0.098702 -0.143870 1.336388
v 4.909900 15.903477 19.146330
vn 0.063077 -0.004149 -1.575006
v 9.991043 15.175336 -4.860664
vn -1.167136 -1.040364 1.155952
v 9.382715 15.436635 19.885504
vn -1.531042 -0.827974 0.702903
v 9.449253 15.256491 19.798773
vn 0.106217 -0.425374 2.799353
v 5.154898 15.905906 19.139658
vn 0.340675 -0.180216 1.747894
v 4.681230 15.851432 19.157616
vn 0.062280 -0.002944 -1.565620
v 9.985699 15.191273 -4.860920
vn -1.257667 -0.543925 2.129905
v 9.030220 15.785375 19.824478
vn -0.168090 -0.118403 0.242617
v 9.213916 15.610660 19.879416
vn -0.041321 0.042555 -1.443193
v 1.527364 16.813366 -4.308931
vn -0.022334 -0.153132 1.356865
v 5.886315 15.913639 19.124090
vn 0.123029 -0.198868 1.764072
v 4.909589 15.852825 19.140900
vn 0.055410 0.016364 -1.566392
v 10.169188 15.222303 -4.854105
vn -0.086511 0.084530 -1.798153
v 1.630343 16.965755 -4.307386
vn -0.080245 -0.154404 1.354982
v 6.125468 15.915259 19.138462
vn 0.000473 -0.038890 0.309178
v 5.645971 15.860794 19.114170
vn -0.308321 -0.340401 2.824358
v 6.364936 15.916133 19.160774
vn 0.055946 0.014921 -1.573065
v 10.166321 15.238903 -4.854033
vn -1.662893 -0.728691 2.840393
v 9.020130 15.741972 19.807436
vn -0.065786 0.064172 -1.338615
v 1.617540 16.976139 -4.306259
vn -0.037943 -0.199458 1.765329
v 5.887046 15.863035 19.118391
vn -0.111156 -0.200653 1.759866
v 6.126399 15.864658 19.132751
vn -0.163439 -0.167829 1.472814
v 7.072840 15.915194 19.258789
vn 0.058399 -0.009553 -1.509354
v 10.353273 15.233761 -4.846767
vn -0.216251 -0.067830 0.361761
v 8.821496 15.825257 19.703735
vn -0.629742 -0.151787 1.095468
v 8.638502 15.905346 19.609636
vn -0.060982 0.058810 -1.810119
v 1.764101 17.089985 -4.308004
vn -0.333231 -0.356186 3.102809
v 6.365996 15.865531 19.155079
vn -0.183424 -0.194171 1.630268
v 7.073911 15.864586 19.253141
vn -0.211770 -0.147093 1.348766
v 8.036208 15.913198 19.375946
vn 0.061096 -0.013900 -1.595536
v 10.352724 15.250628 -4.846895
vn 0.082380 -0.224466 -3.019730
v 10.540055 15.221200 -4.839597
vn -0.043775 0.042180 -1.330595
v 1.754431 17.103167 -4.307268
vn -0.441523 -0.689989 3.030348
v 6.603931 15.865707 19.184114
vn -0.040324 -0.030530 0.276875
v 7.803315 15.863449 19.333954
vn -0.363378 -0.141566 1.307058
v 8.252577 15.911425 19.435701
vn -1.090390 -0.289150 2.420922
v 8.452836 15.908794 19.514881
vn 0.002652 -0.003186 -0.086006
v 10.728619 15.212969 -4.833841
vn -0.919676 -0.221417 1.624898
v 8.638177 15.855200 19.602501
vn -0.045266 0.021488 -1.772800
v 1.928729 17.175762 -4.310701
vn -0.299541 -0.189892 1.742683
v 8.037599 15.862542 19.370640
vn 0.055882 0.049407 -1.489768
v 11.286122 15.101753 -4.816617
vn -0.034394 0.015211 -1.367050
v 1.922989 17.191093 -4.310386
vn -0.055812 0.068911 -1.764701
v 2.109438 17.220299 -4.314752
vn -0.499032 -0.186592 1.704076
v 8.254420 15.860733 19.430723
vn 0.062474 0.055662 -1.662672
v 11.288098 15.118635 -4.815983
vn -1.278499 -0.338979 2.838051
v 8.454407 15.858219 19.509548
vn -0.043830 0.055522 -1.371461
v 2.108166 17.236561 -4.314053
vn 0.057926 0.065131 -1.452815
v 11.664627 15.074339 -4.802956
vn -0.045602 0.125884 -1.825891
v 2.292252 17.214705 -4.320821
vn 0.066336 0.076193 -1.668167
v 11.664627 15.091314 -4.802195
vn -0.032199 0.092027 -1.307646
v 2.295380 17.230833 -4.319763
vn 0.049360 0.134336 -1.454787
v 12.231635 15.123518 -4.779983
vn -0.058141 0.095691 -1.813824
v 2.463190 17.150082 -4.329578
vn 0.058090 0.160362 -1.730878
v 12.228780 15.140194 -4.778540
vn -0.042959 0.068715 -1.324737
v 2.470037 17.165178 -4.329017
vn 0.038231 0.140556 -1.429423
v 12.418014 15.157165 -4.771810
vn -0.085043 0.060683 -1.743015
v 2.622717 17.044727 -4.340216
vn 0.044813 0.166565 -1.682388
v 12.414207 15.173628 -4.770293
vn -0.069113 0.047290 -1.392866
v 2.632446 17.058386 -4.340235
vn 0.070343 0.328308 -2.894884
v 12.781415 15.264318 -4.751085
vn -0.072411 0.078278 -1.712116
v 2.771291 16.916931 -4.351927
vn 0.005552 0.027123 -0.238819
v 12.950215 15.349807 -4.737288
vn -0.059663 0.065945 -1.423443
v 2.782909 16.929234 -4.351844
vn -0.038224 0.105102 -1.729605
v 2.907394 16.771936 -4.364349
vn 0.029734 0.157817 -1.386185
v 13.124785 15.422653 -4.725250
vn -0.030989 0.090377 -1.469469
v 2.920161 16.783110 -4.363931
vn -0.014827 0.105434 -1.559704
v 3.414250 16.094017 -4.416732
vn 0.036309 0.198871 -1.734711
v 13.115609 15.436749 -4.723842
vn 0.015911 0.182769 -1.412395
v 13.276662 15.534441 -4.709386
vn -0.014212 0.102792 -1.518853
v 3.427182 16.105040 -4.416107
vn 0.018060 0.221068 -1.702158
v 13.265853 15.547275 -4.707847
vn 0.000070 0.112747 -1.571603
v 3.564514 15.927920 -4.429379
vn -0.002065 0.194121 -1.400897
v 13.413974 15.664930 -4.691762
vn 0.000832 0.115169 -1.600783
v 3.576728 15.939688 -4.428526
vn -0.001615 0.235553 -1.710180
v 13.401553 15.676128 -4.690192
vn -0.015350 0.086743 -1.572809
v 3.907676 15.620514 -4.451317
vn 0.012112 0.165158 -1.352042
v 13.537290 15.808878 -4.672760
vn -0.015298 0.083716 -1.529051
v 3.917789 15.634088 -4.450675
vn 0.016897 0.214977 -1.767371
v 13.523297 15.818066 -4.671763
vn -0.037478 0.054983 -1.585676
v 4.101664 15.485956 -4.460625
vn 0.028290 0.150085 -1.343173
v 13.634158 15.968542 -4.652614
vn -0.037708 0.052378 -1.553056
v 4.110439 15.500457 -4.460349
vn 0.035532 0.199570 -1.778668
v 13.618823 15.975245 -4.652188
vn -0.001120 0.167120 -1.380336
v 13.692145 16.146181 -4.631552
vn -0.037634 0.040819 -1.584929
v 4.310184 15.375235 -4.469422
vn -0.002278 0.210685 -1.737666
v 13.675870 16.149830 -4.631097
vn -0.036879 0.039456 -1.554825
v 4.317517 15.390522 -4.469208
vn -0.014834 0.172127 -1.382215
v 13.714446 16.333143 -4.608683
vn -0.028964 0.029550 -1.599743
v 4.528866 15.285309 -4.476891
vn -0.013623 0.216763 -1.734254
v 13.697782 16.333586 -4.608449
vn -0.027487 0.027958 -1.540585
v 4.534740 15.301223 -4.476707
vn 0.063964 0.182450 -1.364328
v 13.704297 16.520775 -4.583111
vn -0.030271 0.000729 -1.603995
v 4.753346 15.213131 -4.482206
vn 0.034750 -0.072460 -1.539930
v 6.857006 15.241453 -4.496683
vn 0.087591 0.235403 -1.743927
v 13.687924 16.518282 -4.584212
vn -0.029079 -0.000578 -1.536863
v 4.757830 15.229500 -4.482297
vn 0.046162 -0.045748 -1.607745
v 7.081221 15.312592 -4.494707
vn 0.030059 -0.061872 -1.516476
v 6.627224 15.190788 -4.499056
vn 0.007720 -0.043201 -1.584364
v 6.159320 15.127640 -4.499339
vn 0.154909 0.213201 -1.335005
v 13.655679 16.700846 -4.558798
vn -0.033966 -0.023261 -1.595595
v 4.982568 15.159701 -4.486523
vn 0.044560 -0.045931 -1.567301
v 7.086798 15.296571 -4.494091
vn 0.035850 -0.074716 -1.597390
v 6.861425 15.225083 -4.495813
vn -0.006477 -0.023461 -1.583560
v 5.687638 15.112058 -4.496277
vn 0.203959 0.280781 -1.742265
v 13.640771 16.695122 -4.561442
vn -0.033059 -0.023559 -1.544835
v 4.985777 15.176378 -4.486846
vn -0.018306 -0.019153 -1.594148
v 5.217576 15.142881 -4.491220
vn 0.040680 0.004218 -1.576735
v 7.522045 15.485538 -4.486971
vn 0.030901 -0.064225 -1.586027
v 6.630556 15.174147 -4.498311
vn 0.007030 -0.043883 -1.587677
v 6.160749 15.110695 -4.498870
vn 0.173568 0.240030 -1.252352
v 13.562570 16.865124 -4.539697
vn -0.018896 -0.019256 -1.583253
v 5.215458 15.126012 -4.490993
vn 0.084132 -0.000675 -1.421602
v 9.600704 16.908415 -4.358795
vn 0.089664 0.044263 -1.304610
v 10.002913 16.881718 -4.335197
vn 0.039320 0.005191 -1.528027
v 7.514224 15.500626 -4.487121
vn -0.017068 -0.109262 -3.076287
v 5.924307 15.095388 -4.496998
vn 0.245787 0.351484 -1.809144
v 13.550845 16.855310 -4.543203
vn 0.082522 0.029108 -1.393289
v 9.808958 16.920666 -4.346126
vn 0.064387 0.001067 -1.320956
v 10.172981 16.780027 -4.327591
vn -0.006663 -0.021979 -1.589341
v 5.687370 15.095050 -4.496040
vn 0.033091 0.016164 -1.542478
v 7.720808 15.615558 -4.481274
vn 0.034592 0.016241 -1.598188
v 7.729629 15.601030 -4.481237
vn 0.096237 0.300561 -1.210789
v 13.428016 16.980541 -4.521879
vn 0.024495 -0.038173 -1.374100
v 10.314868 16.638325 -4.321489
vn 0.102976 0.034612 -1.738678
v 9.807239 16.904287 -4.346570
vn 0.124957 0.060987 -1.829671
v 9.997180 16.866333 -4.336113
vn 0.080426 0.026951 -1.409346
v 9.387704 16.856508 -4.371615
vn 0.090237 0.004175 -1.817783
v 10.163478 16.766668 -4.328065
vn 0.035989 0.053507 -1.580651
v 7.927131 15.733100 -4.475616
vn 0.036390 0.055721 -1.593888
v 7.917402 15.747034 -4.475351
vn 0.132795 0.457069 -1.831677
v 13.420793 16.967163 -4.525774
vn 0.069729 0.061979 -1.417863
v 9.181671 16.768110 -4.385179
vn 0.101085 0.000684 -1.710781
v 9.602802 16.891920 -4.358663
vn 0.033886 -0.046603 -1.760723
v 10.302277 16.627474 -4.321412
vn 0.242688 -0.002429 -2.993585
v 8.816907 16.503193 -4.415220
vn -0.091533 0.366152 -1.327224
v 13.255031 17.014021 -4.501415
vn 0.076097 0.062214 -1.469922
v 8.994267 16.646379 -4.400074
vn 0.027301 -0.035095 -1.390441
v 10.424241 16.479343 -4.315075
vn 0.097858 0.034836 -1.725179
v 9.393012 16.840616 -4.371616
vn 0.034150 -0.044318 -1.747204
v 10.409698 16.470922 -4.315148
vn 0.003540 0.001226 -0.069416
v 8.298319 16.026768 -4.456875
vn -0.122920 0.459630 -1.691572
v 13.253310 16.999001 -4.505440
vn 0.084678 0.074987 -1.717829
v 9.189479 16.753172 -4.385448
vn 0.045010 -0.028073 -1.380350
v 10.504066 16.307140 -4.308927
vn 0.090695 0.067160 -1.692949
v 9.003819 16.632380 -4.400172
vn -0.195096 0.258738 -1.352737
v 13.069116 16.984749 -4.481601
vn 0.056200 -0.036199 -1.758621
v 10.488413 16.300777 -4.309308
vn 0.044979 -0.040415 -1.722056
v 10.541056 16.120794 -4.303931
vn 0.037660 -0.034549 -1.461547
v 10.557306 16.125774 -4.303630
vn -0.949061 -0.033591 -1.103146
v -2.435237 14.698145 8.325077
vn -0.999929 0.001618 -1.001140
v -2.356920 15.073693 8.246947
vn -0.983504 -0.002313 -0.981668
v -2.338944 15.270403 8.228440
vn -0.244258 0.313812 -1.705355
v 13.072738 16.969563 -4.485028
vn -0.837252 -0.059065 -0.953732
v -2.507342 14.550796 8.392054
vn -1.030545 0.006250 -1.070954
v -2.389914 14.881983 8.280205
vn -0.990891 0.001127 -0.957619
v -2.338679 15.469238 8.227769
vn -1.061019 0.145253 -1.006598
v -2.362863 15.860998 8.281230
vn -0.170969 0.065346 -1.372624
v 12.895741 16.911901 -4.465727
vn -0.036894 -0.061077 -1.602353
v 10.628517 15.752399 -4.292969
vn -0.036390 -0.057414 -1.490034
v 10.644329 15.758286 -4.293582
vn -1.231214 -0.083141 -1.404959
v -2.520400 14.572582 8.402168
vn -1.093158 -0.034562 -1.258373
v -2.452382 14.714244 8.339337
vn -1.218410 0.001589 -1.219590
v -2.375586 15.079628 8.265600
vn -1.240697 -0.002579 -1.235299
v -2.357885 15.272709 8.247411
vn -1.146398 0.006516 -1.187618
v -2.407906 14.892243 8.297578
vn -2.031021 0.134897 -1.902777
v -2.349020 15.667128 8.245264
vn -0.212056 0.073467 -1.742432
v 12.903415 16.897593 -4.467364
vn -0.058815 -0.076386 -1.575710
v 10.710185 15.587086 -4.288863
vn -0.221146 0.038793 -0.227578
v -2.623353 14.494208 8.497401
vn -1.268627 0.004567 -1.224014
v -2.357263 15.467795 8.246997
vn -0.200953 0.030607 -0.198131
v -2.404571 16.036299 8.350489
vn -1.205455 0.161036 -1.141601
v -2.381265 15.852468 8.299396
vn -0.093272 -0.084655 -1.382449
v 12.740838 16.803593 -4.450639
vn -0.057079 -0.074748 -1.560505
v 10.695532 15.579019 -4.287925
vn -0.003999 -0.023033 -1.596069
v 10.947401 15.311530 -4.282508
vn -0.029632 -0.058491 -1.597422
v 10.813567 15.436564 -4.285060
vn -1.936434 0.325308 -1.984129
v -2.423862 16.225037 8.400313
vn -2.348821 0.150959 -2.201866
v -2.367225 15.662008 8.264333
vn -0.115874 -0.109484 -1.746799
v 12.751599 16.791018 -4.450595
vn -0.007307 -0.020601 -1.585996
v 11.104623 15.216790 -4.281529
vn -0.030307 -0.057553 -1.542646
v 10.800891 15.425862 -4.284433
vn -1.591817 0.651331 -1.495973
v -2.739640 14.461735 8.608799
vn -2.270549 0.381501 -2.326415
v -2.442322 16.210623 8.415966
vn -0.152138 0.034438 -0.173070
v -2.548854 16.528648 8.571992
vn -0.061473 -0.123115 -1.369032
v 12.610334 16.667944 -4.433184
vn -0.006978 -0.020334 -1.555521
v 11.097095 15.201830 -4.281300
vn -0.005297 -0.024265 -1.544732
v 10.937202 15.298333 -4.282292
vn -2.573214 1.052943 -2.419361
v -2.730245 14.487305 8.609935
vn -0.864910 -0.141081 -0.945132
v -3.093506 16.798576 9.107462
vn -0.078308 -0.158606 -1.758096
v 12.623535 16.657772 -4.432862
vn -0.052183 -0.132020 -1.381342
v 12.511405 16.509729 -4.414477
vn -0.010517 -0.023997 -1.570095
v 11.272970 15.135295 -4.281246
vn -0.010720 -0.024225 -1.570793
v 11.277790 15.151383 -4.281527
vn -0.429036 0.692700 -0.562076
v -2.855201 14.665867 8.840550
vn -0.688911 0.514597 -0.680632
v -2.828636 14.540686 8.728835
vn -1.297116 0.932341 -1.278003
v -2.810073 14.560052 8.724688
vn -1.596755 0.410967 -1.912580
v -2.608039 16.680763 8.654122
vn -1.742101 0.089344 -1.901689
v -2.838291 16.824455 8.874270
vn -0.062865 -0.168008 -1.745029
v 12.526385 16.502228 -4.414326
vn -0.842323 -0.367943 -1.076988
v -3.192193 16.697039 9.212870
vn -0.220672 0.033528 -0.251153
v -2.724544 16.745531 8.765277
vn -0.227163 -0.012840 -0.249231
v -2.967926 16.807667 8.991184
vn -0.005659 -0.157869 -1.445889
v 12.451247 16.333725 -4.395634
vn -0.014266 0.005378 -1.560267
v 11.459459 15.114350 -4.281886
vn -0.014250 0.003763 -1.581154
v 11.457215 15.097663 -4.281923
vn 0.568884 1.183634 -2.287959
v -2.658777 14.914843 9.013425
vn -0.026313 0.160284 -0.207479
v -2.763872 14.791433 8.925585
vn -0.970756 1.484080 -1.240868
v -2.831672 14.674184 8.832840
vn -2.169657 0.558441 -2.598729
v -2.623556 16.657095 8.661991
vn -0.653565 -0.501935 -1.162566
v -3.266211 16.556446 9.309458
vn -1.009109 -1.004289 -2.258538
v -3.315538 16.400751 9.398164
vn -2.273228 0.116647 -2.480700
v -2.842453 16.795279 8.876712
vn -1.229519 -0.227939 -1.362152
v -3.084410 16.771257 9.103216
vn -0.004960 -0.176231 -1.616608
v 12.467314 16.328762 -4.395155
vn -0.026613 0.008656 -1.527489
v 11.644777 15.104020 -4.283574
vn -1.001257 -0.462108 -1.317567
v -3.175359 16.674606 9.207368
vn 0.067851 -0.161281 -1.615321
v 12.364760 15.777577 -4.344430
vn -0.027390 0.008951 -1.614559
v 11.645388 15.087369 -4.283679
vn 0.482843 0.294879 -1.141440
v -2.338119 15.041718 9.164253
vn 0.406773 0.416966 -1.125992
v -2.506076 14.995658 9.090211
vn 0.725264 1.505263 -2.903186
v -2.639673 14.895424 9.008129
vn -0.774531 -0.609068 -1.405914
v -3.242833 16.539824 9.303492
vn -0.097743 -0.124946 -0.276038
v -3.310728 16.227505 9.472670
vn -0.337584 -0.581133 -1.257422
v -3.334525 16.063227 9.554982
vn 0.063590 -0.155421 -1.567322
v 12.381182 15.773689 -4.343352
vn -0.027412 -0.073808 -1.536709
v 11.828876 15.118715 -4.287549
vn -0.028478 -0.072026 -1.598513
v 11.833110 15.102839 -4.286862
vn 0.504483 0.128635 -1.192687
v -2.164262 15.054550 9.236636
vn 0.583659 0.630809 -1.650607
v -2.492077 14.969779 9.085685
vn -1.244269 -1.238032 -2.785379
v -3.288898 16.389017 9.391479
vn 0.026424 -0.138128 -1.572187
v 12.316058 15.598785 -4.329080
vn 0.009447 -0.136326 -1.489196
v 12.005116 15.159485 -4.292651
vn 0.712445 0.202655 -1.684334
v -2.161870 15.024808 9.234440
vn 0.698633 0.447298 -1.671690
v -2.329880 15.013305 9.160398
vn -0.405324 -0.712214 -1.548382
v -3.305509 16.060598 9.548407
vn -0.519814 -1.096021 -2.473493
v -3.308259 15.886326 9.626206
vn 0.024462 -0.136130 -1.556806
v 12.331759 15.592865 -4.328296
vn 0.012969 -0.154673 -1.639079
v 11.997077 15.173721 -4.294058
vn 0.093542 0.109354 -1.568793
v -1.089168 15.516983 10.109057
vn 0.177082 0.058213 -3.094380
v -0.882094 15.565929 10.128835
vn 0.114808 0.004652 -0.289695
v -1.989339 15.011825 9.306017
vn -0.122510 -0.511013 -1.263015
v -3.196872 15.525546 9.760065
vn -0.003746 -0.129060 -1.601396
v 12.241187 15.432140 -4.315131
vn 0.015862 -0.145056 -1.644396
v 12.134693 15.284326 -4.303355
vn 0.014194 -0.131788 -1.487697
v 12.146185 15.272716 -4.302220
vn 0.069265 0.088873 -1.598772
v -1.277757 15.413537 10.090745
vn -0.117203 -0.012853 -1.542495
v -0.463924 15.522473 10.121587
vn -0.164621 0.110463 -1.615113
v -0.273886 15.440465 10.094674
vn 0.086182 -0.002645 -1.406075
v -1.633788 15.172920 10.063746
vn 0.479788 -0.092993 -1.294072
v -1.807530 15.011841 9.373423
vn -0.048856 -0.130419 -0.306232
v -3.236693 15.709985 9.689304
vn -0.002529 -0.123834 -1.528309
v 12.255376 15.423514 -4.314469
vn 0.232890 -0.077775 -2.692591
v -2.011470 15.003902 10.041006
vn 0.071597 0.090936 -1.601162
v -1.292178 15.440373 10.091612
vn 0.095958 0.102224 -1.557484
v -1.099751 15.545116 10.110387
vn -0.006027 0.000907 -0.272799
v -0.666550 15.595568 10.136374
vn 0.100009 0.000948 -1.652356
v -1.648483 15.199665 10.062795
vn 0.020178 -0.004826 -0.292368
v -1.828366 15.103697 10.051950
vn -0.032125 -0.477605 -1.308117
v -3.093305 15.359146 9.815904
vn -0.148957 -0.657753 -1.639230
v -3.169535 15.535458 9.753403
vn 0.187610 -0.077792 -1.365909
v -2.215426 14.961444 10.023584
vn 0.169157 0.055088 -2.905749
v -0.886420 15.595248 10.129139
vn -0.123409 -0.003333 -1.580401
v -0.454509 15.550869 10.120635
vn -0.017052 0.329691 -1.911598
v -0.107478 15.324744 10.069360
vn 0.925495 -0.220112 -2.646163
v -1.629990 14.966021 9.438863
vn 0.627511 -0.124816 -1.704254
v -1.813570 14.981889 9.373336
vn 0.335464 -0.636292 -2.454655
v -2.626696 14.987760 9.963158
vn 0.233613 -0.094919 -1.744689
v -2.218023 14.991158 10.021535
vn 0.282654 -0.094740 -3.274569
v -2.019346 15.033114 10.039481
vn -0.141096 0.112602 -1.482547
v -0.257982 15.463450 10.094625
vn 0.879051 -0.292851 -2.840950
v -1.110401 14.769425 9.629891
vn -0.030950 -0.593228 -1.642106
v -3.068199 15.373899 9.809901
vn 0.056410 -0.418364 -1.309329
v -2.960748 15.209043 9.867206
vn 0.038581 -0.043093 -0.275839
v -2.420998 14.981062 9.994231
vn 0.009136 0.226739 -1.212603
v -0.084658 15.335613 10.071031
vn 0.503676 1.105035 -3.657199
v -0.027519 15.198054 10.037382
vn 0.299161 0.277437 -1.339520
v -0.247007 14.980510 9.934830
vn 0.380169 0.244985 -1.412130
v -0.580635 14.814563 9.816257
vn 0.516048 -0.095172 -1.509523
v -0.933614 14.730112 9.690353
vn 0.080390 -0.023380 -0.247380
v -1.295119 14.809978 9.568964
vn 0.110832 -0.374886 -1.263630
v -2.805193 15.079300 9.917920
vn 0.452405 -0.856561 -3.302671
v -2.615297 15.014428 9.957803
vn 0.334245 0.284548 -1.384827
v -0.409594 14.890675 9.876769
vn 0.481113 0.092577 -1.520016
v -0.756168 14.753099 9.753294
vn 0.494450 -0.097952 -1.459268
v -0.935874 14.700252 9.691463
vn 0.879703 -0.293019 -2.841326
v -1.117545 14.739929 9.630721
vn 0.078371 -0.533097 -1.678134
v -2.938923 15.228601 9.861897
vn 0.158602 -0.510648 -1.739793
v -2.787947 15.102860 9.912443
vn 0.276511 0.606738 -2.007632
v -0.001008 15.194691 10.040017
vn 0.053390 0.077837 -0.301142
v -0.073496 15.068021 9.991706
vn 0.376067 0.346087 -1.672130
v -0.229173 14.957219 9.933989
vn 0.391912 0.325686 -1.607267
v -0.395088 14.863902 9.874769
vn 0.470784 0.071887 -1.475761
v -0.751639 14.723947 9.752952
vn 0.431005 0.257786 -1.576448
v -0.569746 14.786627 9.814342
vn 0.507275 -0.539419 -2.713668
v 15.830733 15.113464 10.453403
vn 0.404744 -0.080118 -1.237659
v 15.577180 14.324344 10.515769
vn 0.441803 -0.407077 -2.509097
v 15.822778 14.684490 10.533325
vn 0.298809 -0.058817 -1.231607
v 15.731362 14.484550 10.543841
vn 0.046341 -0.049514 -0.260999
v 15.825753 14.901480 10.492980
vn 0.018882 -0.025413 -0.111907
v 15.681672 15.912724 10.252419
vn 0.436783 -0.166980 -1.229467
v 15.383687 14.217840 10.461528
vn 0.561045 -0.111024 -1.747606
v 15.561818 14.347180 10.509267
vn 0.434597 -0.098492 -1.822758
v 15.708573 14.500590 10.537546
vn 0.588767 -0.543960 -3.345605
v 15.795705 14.692102 10.527323
vn 0.587873 -0.625745 -3.144141
v 15.801232 15.108490 10.448877
vn 0.031879 -0.039746 -0.181117
v 15.704938 15.510221 10.347751
vn 0.438793 -0.629932 -2.793968
v 15.661750 16.312302 10.159492
vn 0.432733 -0.214939 -1.241700
v 15.174287 14.179006 10.393501
vn 0.602163 -0.223027 -1.704443
v 15.376819 14.245238 10.455367
vn 0.587314 -0.286781 -1.682903
v 15.174994 14.208130 10.388706
vn 0.479457 -0.645963 -2.844839
v 15.669375 15.707766 10.296889
vn 0.276968 -0.269157 -1.251817
v 15.598079 16.703009 10.062649
vn 0.482456 -0.692610 -3.071999
v 15.631835 16.307693 10.155833
vn 0.053627 -0.062721 -0.284531
v 15.610839 16.502171 10.108655
vn 0.373561 -0.360254 -1.254616
v 14.773822 14.254669 10.245661
vn 0.419510 -0.266731 -1.268144
v 14.965508 14.195421 10.319093
vn 0.548172 -0.342492 -1.650410
v 14.973254 14.223783 10.315690
vn 0.762801 -0.545508 -2.498962
v 15.531661 16.885345 10.007554
vn 0.397119 -0.374520 -1.747601
v 15.570127 16.692347 10.058757
vn 1.185315 -0.191257 -2.263852
v 15.315221 17.178215 9.872109
vn 0.539710 -0.910576 -2.420236
v 14.488952 14.499373 10.090818
vn 0.070110 -0.089395 -0.270144
v 14.631692 14.377510 10.168069
vn 0.494120 -0.462280 -1.644972
v 14.788499 14.280127 10.242721
vn 0.945906 -0.674767 -3.104737
v 15.506469 16.870073 10.003198
vn 0.114762 -0.044462 -0.275414
v 15.416640 17.027208 9.939063
vn 0.684026 -1.154039 -3.066995
v 14.513766 14.516284 10.089989
vn 0.412895 -1.061224 -2.438993
v 14.344674 14.836527 9.927741
vn 0.053374 -0.110395 -0.273228
v 14.429551 14.678080 10.009896
vn 1.579682 -0.255428 -3.014630
v 15.300569 17.153103 9.866559
vn 0.149803 -0.008184 -0.276073
v 15.158195 17.237110 9.785928
vn 0.153609 -0.539966 -1.201454
v 14.314981 15.010587 9.847148
vn 1.358052 0.048742 -2.339813
v 15.007195 17.318945 9.702139
vn 0.216353 -0.738057 -1.644699
v 14.345052 15.015043 9.848990
vn 0.503460 -1.293996 -2.973952
v 14.373881 14.844526 9.929205
vn 1.634339 0.058947 -2.818338
v 15.002389 17.289444 9.698735
vn 0.029786 -0.086950 -0.193902
v 14.341344 15.189049 9.770313
vn 0.588691 -1.183191 -2.654340
v 14.324971 15.537855 9.611199
vn 0.166636 0.028814 -0.273027
v 14.846021 17.320318 9.606576
vn 0.293621 -0.546696 -1.266891
v 14.320861 15.710529 9.532937
vn 0.675584 0.209751 -1.075572
v 14.686872 17.353962 9.513173
vn 0.350783 -0.656563 -1.518037
v 14.350310 15.716564 9.537158
vn 0.973777 0.308102 -1.552515
v 14.692058 17.324244 9.510635
vn 0.424384 -0.661813 -1.527479
v 14.326985 15.888992 9.457345
vn 0.356819 -0.547433 -1.262969
v 14.298436 15.879725 9.453296
vn 0.693794 0.262437 -1.122496
v 14.534690 17.324852 9.413511
vn 0.559475 -0.638903 -1.498921
v 14.283467 16.053429 9.373775
vn 0.942867 0.370735 -1.528957
v 14.543437 17.295727 9.412108
vn 1.366189 0.705805 -2.257117
v 14.390096 17.273560 9.312362
vn 0.471489 -0.524252 -1.232103
v 14.257360 16.039898 9.369542
vn 0.149498 -0.080800 -0.260605
v 14.218246 16.204653 9.284472
vn 0.181055 0.113104 -0.309832
v 14.269132 17.184271 9.211224
vn 1.833382 -0.399625 -2.442263
v 14.113032 16.306519 9.183347
vn 0.611964 0.470614 -1.095559
v 14.127978 17.134392 9.110951
vn 1.709509 -0.368830 -2.291451
v 14.127074 16.330984 9.189885
vn 0.764688 0.593429 -1.374283
v 14.145961 17.109760 9.110415
vn 1.055230 0.019835 -1.327445
v 14.005734 16.420742 9.090444
vn 0.901248 0.035770 -1.121459
v 13.999366 16.392982 9.084441
vn 1.046886 1.292467 -2.313534
v 13.907439 16.941639 8.909627
vn 0.192346 0.079283 -0.229120
v 13.872632 16.468018 8.984986
vn 0.689252 1.489892 -2.287555
v 13.532641 16.335190 8.397849
vn 0.135167 0.881019 -0.943630
v 13.727538 16.073082 8.429813
vn 0.334893 1.088300 -1.149422
v 13.652007 16.309097 8.642324
vn 0.121842 0.935170 -1.063168
v 13.859590 15.822168 8.220523
vn 1.292574 1.362495 -2.675322
v 14.033160 17.019665 9.010106
vn 0.094797 0.140966 -0.235885
v 13.747764 16.708160 8.706814
vn 0.413331 0.697414 -1.120176
v 13.651738 16.602488 8.605591
vn 0.132805 1.800544 -2.085764
v 13.797614 15.951809 8.327052
vn 1.831009 1.544541 -2.094625
v 13.760795 16.445091 8.868939
vn 0.500344 0.857095 -1.372504
v 13.678346 16.587385 8.606006
vn 0.087951 0.199107 -0.305600
v 13.513404 16.183390 8.293185
vn 0.290265 0.701424 -1.076080
v 13.452964 16.042480 8.185032
vn 0.233132 0.401921 -0.733102
v 13.603293 15.602359 7.976473
vn 0.266411 0.684394 -0.908910
v 13.748668 15.614285 8.024456
vn 0.132433 0.713813 -0.815272
v 13.860810 15.703285 8.117286
vn 0.183036 1.255927 -1.355761
v 13.698428 16.069996 8.422762
vn 0.053935 0.233682 -0.248543
v 13.642419 16.191082 8.527791
vn 0.535258 1.043487 -1.048329
v 13.678493 16.402559 8.754809
vn 0.140393 1.133450 -1.291361
v 13.830798 15.823907 8.218753
vn 1.596731 1.347685 -1.831589
v 13.746251 16.466900 8.872307
vn 0.591045 1.268240 -2.172363
v 13.454404 15.883877 8.087627
vn 0.247095 1.369793 -1.563820
v 13.836617 15.712205 8.121166
vn 0.340671 1.027300 -1.078833
v 13.623532 16.315502 8.640092
vn 0.568365 1.002144 -1.036646
v 13.654056 16.416393 8.756102
vn 0.400205 0.961956 -1.482709
v 13.482160 16.036800 8.189205
vn 0.068313 0.128477 -0.232904
v 13.523736 15.725367 8.018612
vn 0.609287 1.077968 -1.924661
v 13.609733 15.620765 7.988612
vn 0.435412 1.169876 -1.535423
v 13.738481 15.630434 8.033630
vn 0.777885 1.671854 -2.859168
v 13.481025 15.884093 8.094996
# 589 vertices, 0 vertices normals


usemtl material_0
vt -2.441302 -2.258362
vt -2.424006 -2.256196
vt -2.449886 -2.064519
f 7/1/7 2/2/2 11/3/11
vt -2.032354 -2.832537
vt -2.016804 -2.824720
vt -2.104893 -2.651374
f 8/4/8 1/5/1 7/6/7
vt -3.099615 -1.431416
vt -3.082277 -1.430434
vt -3.088485 -1.236311
f 12/7/12 3/8/3 8/9/8
vt -2.835109 -1.315606
vt -2.767730 -1.134886
vt -2.851662 -1.309892
f 6/10/6 16/11/16 11/12/11
vt -3.280402 0.214645
vt -3.263942 0.208766
vt -3.196784 0.389552
f 17/13/17 9/14/9 12/15/12
vt -1.951572 -2.179655
vt -1.916733 -1.985346
vt -1.909227 -1.788131
f 15/16/15 4/17/4 19/18/19
vt -2.429186 -1.816343
vt -2.388139 -1.624809
vt -2.446415 -1.812844
f 5/19/5 15/20/15 16/21/16
vt -3.338134 -0.106678
vt -3.320762 -0.109352
vt -3.304174 0.084185
f 18/22/18 10/23/10 17/24/17
vt -3.332050 -1.119100
vt -3.307147 -0.917678
vt -3.347843 -0.316452
f 20/25/20 13/26/13 18/27/18
vt -2.412145 -0.103679
vt -1.904763 0.199672
vt -1.915003 0.214097
f 19/28/19 14/29/14 21/30/21
vt -1.948588 0.043428
vt -1.668769 0.317110
vt -1.959771 0.057136
f 14/31/14 23/32/23 21/33/21
vt -3.484495 -0.243150
vt -3.469323 -0.251969
vt -3.395244 -0.059177
f 26/34/26 22/35/22 20/36/20
vt -1.365453 0.535531
vt -1.057428 0.778711
vt -1.374571 0.550594
f 24/37/24 27/38/27 23/39/23
vt -3.270565 -1.826823
vt -3.253701 -1.831278
vt -3.240227 -1.618076
f 28/40/28 25/41/25 26/42/26
vt -2.032452 -3.455955
vt -2.015063 -3.454329
vt -2.077304 -3.249643
f 31/43/31 29/44/29 28/45/28
vt -0.952461 0.856330
vt -0.823331 1.001481
vt -0.963979 0.869482
f 30/46/30 34/47/34 27/48/27
vt -0.958969 0.972905
vt -0.944683 0.962871
vt -0.863694 1.140392
f 34/49/34 35/50/35 36/51/36
vt -2.497963 -3.325819
vt -2.480910 -3.329639
vt -2.464616 -3.117329
f 37/52/37 32/53/32 31/54/31
vt -3.166304 -2.951240
vt -3.068805 -2.754203
vt -3.180936 -2.941571
f 33/55/33 37/56/37 40/57/40
vt -0.545119 1.212526
vt -0.530828 1.202609
vt -0.450946 1.382519
f 36/58/36 39/59/39 41/60/41
vt -2.202060 -3.983828
vt -2.146075 -3.762033
vt -2.218387 -3.977265
f 38/61/38 40/62/40 42/63/42
vt -0.061156 1.408804
vt -0.046814 1.399070
vt 0.038400 1.575665
f 41/64/41 44/65/44 45/66/45
vt 0.525242 -4.760628
vt 0.542674 -4.757855
vt 0.477565 -4.534267
f 46/67/46 43/68/43 42/69/42
vt -5.207871 -2.453664
vt -4.482128 -2.260195
vt -4.270499 -2.164755
f 49/70/49 47/71/47 46/72/46
vt -0.364232 1.629618
vt -0.347339 1.626026
vt -0.336693 1.817422
f 45/73/45 48/74/48 50/75/50
vt -0.775711 1.694688
vt -0.758813 1.698069
vt -0.837797 1.874089
f 50/76/50 51/77/51 53/78/53
vt -3.386699 -4.885641
vt -3.254307 -4.663905
vt -3.401675 -4.876268
f 52/79/52 49/80/49 54/81/54
vt -0.099712 2.049540
vt -0.082757 2.052227
vt -0.155862 2.234571
f 53/82/53 55/83/55 57/84/57
vt -1.911155 -5.884315
vt -1.870294 -5.626378
vt -1.928528 -5.881421
f 56/85/56 54/86/54 58/87/58
vt 0.297139 2.253350
vt 0.313834 2.257419
vt 0.232547 2.436304
f 57/88/57 59/89/59 60/90/60
vt -5.959157 -2.279724
vt -5.737216 -2.130701
vt -5.969376 -2.265460
f 61/91/61 58/92/58 63/93/63
vt -1.251489 2.111008
vt -1.088688 2.011230
vt -1.078167 2.024709
f 64/94/64 60/95/60 62/96/62
vt -6.586863 0.189476
vt -6.580760 0.173063
vt -6.326285 0.256030
f 67/97/67 65/98/65 63/99/63
vt -1.750540 1.506664
vt -1.562299 1.478680
vt -1.557470 1.494600
f 68/100/68 64/101/64 66/102/66
vt -6.739154 -1.242851
vt -6.727587 -1.255947
vt -6.524783 -1.080497
f 71/103/71 69/104/69 67/105/67
vt -0.926715 1.696038
vt -0.748802 1.676754
vt -0.744722 1.692377
f 72/106/72 68/107/68 70/108/70
vt 1.831642 -6.840740
vt 1.841732 -6.826418
vt 1.621431 -6.670099
f 75/109/75 73/110/73 71/111/71
vt 0.983642 1.596737
vt 1.158313 1.557683
vt 1.165986 1.572186
f 76/112/76 72/113/72 74/114/74
vt 3.319429 6.357620
vt 3.302875 6.351780
vt 3.392838 6.096107
f 79/115/79 77/116/77 75/117/75
vt 1.876714 1.274057
vt 2.063618 1.220693
vt 2.071679 1.235223
f 80/118/80 76/119/76 78/120/78
vt 2.756895 6.743529
vt 2.741633 6.734700
vt 2.882804 6.501856
f 83/121/83 81/122/81 79/123/79
vt 2.301564 1.214395
vt 2.483052 1.144466
vt 2.490882 1.159611
f 84/124/84 80/125/80 82/126/82
vt 6.829305 -4.365337
vt 6.823909 -4.348587
vt 6.091082 -4.686620
f 87/127/87 85/128/85 83/129/83
vt 2.999903 0.198678
vt 3.133452 0.055724
vt 3.146980 0.066695
f 88/130/88 84/131/84 86/132/86
vt 7.757757 -2.675965
vt 7.750841 -2.659913
vt 7.536180 -2.802273
f 90/133/90 89/134/89 87/135/87
vt 1.115671 -3.191792
vt 0.890881 -3.512884
vt 1.023565 -3.367271
f 93/136/93 88/137/88 91/138/91
vt 8.255965 -0.741979
vt 8.248607 -0.726251
vt 8.034957 -0.869496
f 94/139/94 92/140/92 90/141/90
vt 2.557915 -0.538417
vt 2.809294 -1.070453
vt 2.652029 -0.711342
f 97/142/97 93/143/93 95/144/95
vt 7.340192 4.105785
vt 7.327757 4.117824
vt 7.186728 3.908630
f 98/145/98 96/146/96 94/147/94
vt 1.947842 -2.139596
vt 1.963927 -2.146598
vt 2.029304 -1.965980
f 97/148/97 99/149/99 100/150/100
vt 7.112758 4.799759
vt 6.959378 4.614292
vt 7.123271 4.786127
f 102/151/102 98/152/98 106/153/106
vt 2.100160 -1.921233
vt 1.973891 -2.065669
vt 1.988240 -2.075562
f 107/154/107 100/155/100 103/156/103
vt 6.466583 5.898507
vt 6.282608 5.762837
vt 6.295026 5.750914
f 113/157/113 102/158/102 106/159/106
vt 1.745665 12.685000
vt 1.711069 12.711380
vt 1.664419 12.372830
f 111/160/111 105/161/105 118/162/118
vt 2.786249 15.100540
vt 2.765379 15.135380
vt 2.696397 14.870070
f 119/163/119 101/164/101 111/165/111
vt 3.815447 18.152050
vt 3.582079 18.082661
vt 3.608154 18.051531
f 112/166/112 101/167/101 119/168/119
vt -3.313803 8.420144
vt -3.294937 8.192883
vt -3.296620 8.419251
f 114/169/114 113/170/113 121/171/121
vt 2.581004 -0.701613
vt 2.483527 -0.869567
vt 2.499466 -0.876315
f 122/172/122 107/173/107 115/174/115
vt 0.996175 5.434951
vt 1.019387 5.157845
vt 1.048799 5.427772
f 108/175/108 124/176/124 125/177/125
vt 1.594755 11.369310
vt 1.547122 11.383160
vt 1.528211 11.051140
f 118/178/118 104/179/104 128/180/128
vt 4.319493 10.946470
vt 4.325985 10.990940
vt 4.042839 10.927710
f 129/181/129 120/182/120 112/183/112
vt 1.182404 7.300957
vt 1.214408 7.562574
vt 1.161768 7.569511
f 125/184/125 126/185/126 109/186/109
vt 1.392710 9.875993
vt 1.340061 9.882695
vt 1.353081 9.626497
f 127/187/127 117/188/117 126/189/126
vt 1.113533 11.109290
vt 0.986338 10.822140
vt 0.971850 10.550920
f 128/190/128 110/191/110 127/192/127
vt -9.306690 -1.364404
vt -9.093455 -1.447639
vt -9.298412 -1.349078
f 130/193/130 121/194/121 135/195/135
vt 2.355264 1.070932
vt 2.332874 0.877496
vt 2.350175 0.876975
f 136/196/136 122/197/122 131/198/131
vt 0.780200 2.737901
vt 0.816826 3.013565
vt 0.764609 3.022735
f 137/199/137 133/200/133 123/201/123
vt 1.749880 2.739567
vt 1.728839 3.291826
vt 1.686116 3.017683
f 133/202/133 124/203/124 116/204/116
vt 4.121946 8.554399
vt 4.152034 8.593658
vt 3.890924 8.663548
f 138/205/138 134/206/134 129/207/129
vt 0.483318 1.680059
vt 0.529672 1.930718
vt 0.477615 1.940773
f 141/208/141 137/209/137 132/210/132
vt -9.532560 -0.565259
vt -9.350296 -0.684385
vt -9.521138 -0.551860
f 139/211/139 135/212/135 144/213/144
vt 2.648563 0.814719
vt 2.554794 0.647686
vt 2.570530 0.640543
f 145/214/145 136/215/136 140/216/140
vt 3.745919 8.458470
vt 3.789369 8.485056
vt 3.584179 8.635347
f 148/217/148 143/218/143 138/219/138
vt -0.419948 -1.504269
vt -0.368781 -1.518495
vt -0.302897 -1.316985
f 142/220/142 153/221/153 141/222/141
vt -8.606856 4.237276
vt -8.527085 4.039925
vt -8.589882 4.242199
f 150/223/150 144/224/144 156/225/156
vt 2.900828 0.592065
vt 2.750413 0.473412
vt 2.762965 0.461533
f 160/226/160 145/227/145 152/228/152
vt -1.194753 -3.309452
vt -1.145957 -3.330309
vt -0.984513 -2.971195
f 146/229/146 161/230/161 153/231/153
vt -4.698186 7.555339
vt -4.851471 7.739231
vt -4.744248 7.528947
f 147/232/147 163/233/163 162/234/162
vt 3.588520 8.811204
vt 3.637823 8.827507
vt 3.487100 9.003679
f 164/235/164 149/236/149 148/237/148
vt -8.643532 4.967024
vt -8.538876 4.347027
vt -8.521830 4.351693
f 165/238/165 150/239/150 156/240/156
vt -3.616182 -4.057447
vt -3.463540 -3.913844
vt -3.501515 -3.876778
f 162/241/162 161/242/161 146/243/146
vt 3.641569 8.598732
vt 3.532780 8.788163
vt 3.589797 8.589096
f 154/244/154 164/245/164 171/246/171
vt -0.715263 16.901449
vt -0.688612 16.181400
vt -0.643848 16.411091
f 169/247/169 166/248/166 158/249/158
vt -3.015518 14.756630
vt -2.976726 14.526820
vt -2.924435 14.535710
f 166/250/166 174/251/174 157/252/157
vt -1.245136 19.689791
vt -1.287989 19.136690
vt -1.217090 19.404770
f 176/253/176 168/254/168 159/255/159
vt -2.553672 17.802160
vt -2.522784 17.541389
vt -2.470136 17.547590
f 168/256/168 169/257/169 151/258/151
vt 2.078829 2.276688
vt 1.975521 2.111025
vt 1.991308 2.104013
f 177/259/177 160/260/160 170/261/170
vt -3.795994 10.546930
vt -3.663318 10.048090
vt -3.744870 10.561230
f 178/262/178 163/263/163 155/264/155
vt 3.695016 7.304753
vt 3.721805 7.519885
vt 3.670212 7.509331
f 179/265/179 154/266/154 171/267/171
vt -3.516246 11.756060
vt -3.462516 11.505610
vt -3.410762 11.517420
f 172/268/172 178/269/178 155/270/155
vt -8.483998 5.504877
vt -8.412917 5.317990
vt -8.467615 5.511237
f 173/271/173 165/272/165 181/273/181
vt -3.258761 13.344020
vt -3.221642 13.104680
vt -3.206809 13.354710
f 174/274/174 172/275/172 157/276/157
vt -2.745125 20.264681
vt -2.692691 19.960011
vt -2.640187 19.966040
f 182/277/182 175/278/175 167/279/167
vt -0.368910 20.002991
vt -0.406276 19.714800
vt -0.396405 19.428570
f 175/280/175 176/281/176 159/282/159
vt -1.154771 3.054627
vt -1.092884 2.869450
vt -1.077012 2.876676
f 187/283/187 177/284/177 183/285/183
vt 3.757539 5.428729
vt 3.690677 5.624363
vt 3.704893 5.421777
f 180/286/180 179/287/179 188/288/188
vt -1.173485 10.098820
vt -1.189993 10.104620
vt -1.251002 9.913555
f 189/289/189 185/290/185 181/291/181
vt -0.336185 3.251039
vt -0.318609 3.251603
vt -0.326425 3.447382
f 187/292/187 193/293/193 194/294/194
vt 4.009800 3.098485
vt 3.918986 3.279225
vt 3.957960 3.087286
f 184/295/184 188/296/188 195/297/195
vt 4.376004 9.342065
vt 4.248304 9.187908
vt 4.389218 9.330593
f 190/298/190 189/299/189 197/300/197
vt -2.688871 21.117870
vt -2.570137 20.788389
vt -2.655289 21.144760
f 198/301/198 182/302/182 186/303/186
vt 1.563449 3.088214
vt 1.578009 3.078212
vt 1.923075 3.555501
f 194/304/194 199/305/199 200/306/200
vt -1.603656 21.889959
vt -1.454864 21.640631
vt -1.419465 21.665079
f 204/307/204 198/308/198 186/309/186
vt 4.772708 1.077300
vt 4.636668 1.242951
vt 4.724632 1.054931
f 196/310/196 195/311/195 206/312/206
vt 2.795815 10.166100
vt 2.720016 9.984601
vt 2.812000 10.159450
f 202/313/202 197/314/197 207/315/207
vt 5.062544 20.913151
vt 4.803324 20.867050
vt 5.055653 20.875080
f 191/316/191 209/317/209 203/318/203
vt 2.977197 21.741871
vt 3.174046 21.645090
vt 3.197544 21.677389
f 203/319/203 204/320/204 192/321/192
vt 5.984302 1.789779
vt 5.757393 1.880603
vt 5.954192 1.746124
f 201/322/201 206/323/206 212/324/212
vt -4.111878 1.297129
vt -3.930119 1.241566
vt -3.924458 1.257969
f 214/325/214 200/326/200 210/327/210
vt 6.564525 4.141147
vt 6.079937 4.312639
vt 5.818796 4.321005
f 216/328/216 205/329/205 212/330/212
vt -0.982648 10.703340
vt -0.959681 10.510870
vt -0.965227 10.705360
f 213/331/213 207/332/207 218/333/218
vt 1.933989 18.640760
vt 1.687244 18.531080
vt 1.723418 18.497049
f 209/334/209 208/335/208 219/336/219
vt 5.831828 5.849129
vt 5.592246 5.757860
vt 5.840214 5.796780
f 211/337/211 216/338/216 221/339/221
vt 4.492170 7.917281
vt 4.297251 7.752970
vt 4.517388 7.870646
f 215/340/215 221/341/221 222/342/222
vt 0.978911 19.095079
vt 0.860479 18.869900
vt 1.017073 19.063299
f 208/343/208 225/344/225 219/345/219
vt -4.341560 1.018649
vt -4.151760 1.028032
vt -4.150190 1.045160
f 227/346/227 214/347/214 220/348/220
vt 3.483471 9.185429
vt 3.324352 8.985274
vt 3.517507 9.144776
f 217/349/217 222/350/222 228/351/228
vt 3.155394 10.474900
vt 3.137959 10.477050
vt 3.125769 10.282590
f 231/352/231 224/353/224 218/354/218
vt 2.795717 10.079410
vt 2.586814 9.932439
vt 2.625889 9.896604
f 234/355/234 217/356/217 228/357/228
vt 4.910828 11.213380
vt 4.256491 10.854690
vt 4.495297 10.945320
f 229/358/229 217/359/217 234/360/234
vt 3.988836 10.694500
vt 3.406493 10.196370
vt 3.444046 10.158940
f 235/361/235 223/362/223 229/363/229
vt 11.396160 1.409058
vt 11.214830 1.333146
vt 11.042320 1.236904
f 238/364/238 232/365/232 231/366/231
vt -0.501136 18.243561
vt -0.626849 18.051130
vt -0.576183 18.036520
f 225/367/225 226/368/226 239/369/239
vt -4.533132 1.062315
vt -4.349907 1.123789
vt -4.352801 1.140578
f 240/370/240 227/371/227 233/372/233
vt -4.721925 -0.132662
vt -4.733195 -0.119876
vt -4.851352 -0.276896
f 240/373/240 243/374/243 244/375/244
vt 2.568747 12.042710
vt 2.524613 12.072130
vt 2.428827 11.839340
f 241/376/241 230/377/230 235/378/235
vt 0.567689 14.264060
vt 0.517825 14.282190
vt 0.483971 14.045310
f 245/379/245 236/380/236 241/381/241
vt -6.617755 9.808629
vt -6.629243 9.795158
vt -6.149855 9.447723
f 246/382/246 242/383/242 238/384/238
vt -0.601174 17.391670
vt -0.700193 17.194559
vt -0.648602 17.182570
f 239/385/239 237/386/237 247/387/247
vt -0.132809 16.003929
vt -0.183740 16.018471
vt -0.194629 15.788850
f 247/388/247 237/389/237 245/390/245
vt -4.635540 1.424275
vt -4.489804 1.546960
vt -4.499256 1.561082
f 250/391/250 244/392/244 248/393/248
vt -7.884038 9.299318
vt -7.560594 9.072762
vt -7.872288 9.312541
f 249/394/249 246/395/246 251/396/251
vt -3.967434 2.583297
vt -3.821658 2.705859
vt -3.830272 2.720675
f 254/397/254 250/398/250 252/399/252
vt -11.420220 5.744759
vt -10.877800 5.508492
vt -11.411440 5.760099
f 253/400/253 251/401/251 255/402/255
vt -4.616558 1.534375
vt -4.533813 1.715708
vt -4.548185 1.725280
f 258/403/258 254/404/254 256/405/256
vt -12.137540 4.712803
vt -12.145750 4.697168
vt -11.959820 4.629360
f 259/406/259 257/407/257 255/408/255
vt -4.962567 -0.670664
vt -4.985152 -0.467547
vt -5.002605 -0.467887
f 262/409/262 258/410/258 260/411/260
vt -12.886430 4.355502
vt -12.733240 4.230843
vt -12.379250 4.057303
f 263/412/263 261/413/261 259/414/259
vt -4.905950 0.274053
vt -4.902215 0.481440
vt -4.919776 0.482819
f 265/415/265 262/416/262 264/417/264
vt -4.480344 1.729786
vt -4.497253 1.734899
vt -4.669023 0.867357
f 265/418/265 267/419/267 268/420/268
vt -13.101690 4.328979
vt -13.113940 4.316387
vt -12.950710 4.205547
f 269/421/269 266/422/266 263/423/263
vt -13.739930 2.864971
vt -13.581730 2.748145
vt -13.727560 2.877407
f 270/424/270 269/425/269 272/426/272
vt -4.255740 1.920512
vt -4.124530 2.113699
vt -4.139440 2.123238
f 273/427/273 268/428/268 271/429/271
vt -14.176750 1.605030
vt -14.021280 1.483023
vt -14.163940 1.616935
f 274/430/274 272/431/272 276/432/276
vt -4.235843 2.169160
vt -3.876346 2.487431
vt -3.888972 2.499802
f 277/433/277 273/434/273 275/435/275
vt -14.038440 3.033312
vt -13.907620 2.884048
vt -14.023210 3.041848
f 278/436/278 276/437/276 280/438/280
vt -4.819947 1.253276
vt -4.646583 1.427741
vt -4.659486 1.439761
f 281/439/281 277/440/277 279/441/279
vt -13.564940 4.843224
vt -13.581920 4.839318
vt -13.497740 4.662776
f 284/442/284 282/443/282 280/444/280
vt -5.140337 -1.100297
vt -5.031557 -0.879723
vt -5.047792 -0.872807
f 286/445/286 281/446/281 283/447/283
vt -14.460250 2.269982
vt -14.382740 2.091263
vt -14.443340 2.273923
f 285/448/285 284/449/284 287/450/287
vt -5.092535 -1.928832
vt -4.990051 -1.704906
vt -5.006491 -1.698483
f 290/451/290 286/452/286 288/453/288
vt -14.692960 1.295348
vt -14.636590 1.107216
vt -14.675720 1.297311
f 289/454/289 287/455/287 291/456/291
vt -5.163952 -2.214248
vt -5.049624 -1.996965
vt -5.065585 -1.989410
f 294/457/294 290/458/290 292/459/292
vt -12.482920 7.166468
vt -12.540930 6.978460
vt -12.467690 7.158301
f 293/460/293 291/461/291 296/462/296
vt -1.974602 -5.523401
vt -2.034989 -5.285906
vt -2.051931 -5.290913
f 302/463/302 294/464/294 297/465/297
vt -9.623191 9.948091
vt -9.475284 10.070490
vt -9.484336 10.084700
f 296/466/296 306/467/306 301/468/301
vt 7.363390 3.749803
vt 6.904730 3.566318
vt 6.912487 3.550441
f 309/469/309 303/470/303 298/471/298
vt 7.781957 0.958671
vt 7.538241 0.924249
vt 7.541462 0.906871
f 303/472/303 304/473/304 295/474/295
vt 7.531987 1.002018
vt 7.292646 0.944622
vt 7.297097 0.927506
f 304/475/304 310/476/310 299/477/299
vt 1.595917 -5.911990
vt 1.426527 -5.734978
vt 1.414338 -5.747788
f 313/478/313 302/479/302 307/480/307
vt 7.347126 -0.980055
vt 6.854071 -1.001057
vt 6.855708 -1.018690
f 310/481/310 311/482/311 300/483/300
vt 6.210628 -3.229822
vt 5.969840 -3.176345
vt 5.723720 -3.155746
f 311/484/311 317/485/317 305/486/305
vt -9.501696 9.742500
vt -9.328127 9.824997
vt -9.332035 9.840856
f 306/487/306 318/488/318 312/489/312
vt 1.439971 8.340811
vt 1.349134 8.110738
vt 1.365772 8.104726
f 323/490/323 309/491/309 316/492/316
vt 5.539243 -3.791698
vt 5.302480 -3.722563
vt 5.297810 -3.739645
f 317/493/317 321/494/321 305/495/305
vt 3.019904 -5.774077
vt 2.642633 -5.457750
vt 2.632088 -5.471965
f 321/496/321 313/497/313 308/498/308
vt 0.042415 10.718980
vt 0.057779 10.726600
vt -0.063354 10.890990
f 326/499/326 319/500/319 327/501/327
vt 0.130267 8.467160
vt 0.147359 8.462589
vt 0.204550 8.703143
f 323/502/323 322/503/322 330/504/330
vt -12.437330 6.275792
vt -12.272880 6.347704
vt -12.275790 6.363777
f 318/505/318 332/506/332 324/507/324
vt 3.973214 10.012530
vt 3.958813 9.799443
vt 3.975967 9.797124
f 326/508/326 334/509/334 314/510/314
vt 3.438586 10.677390
vt 3.585739 10.535030
vt 3.599487 10.545160
f 335/511/335 329/512/329 320/513/320
vt -1.394240 10.850170
vt -1.224617 10.740480
vt -1.212896 10.752960
f 329/514/329 327/515/327 315/516/315
vt 0.083837 10.309990
vt 0.101265 10.310640
vt 0.057039 10.533620
f 340/517/340 328/518/328 334/519/334
vt 11.138700 2.863526
vt 11.132610 2.665867
vt 11.149740 2.663438
f 341/520/341 335/521/335 325/522/325
vt -5.752964 7.078636
vt -5.596822 6.610918
vt -5.580409 6.617523
f 342/523/342 330/524/330 331/525/331
vt -14.696010 -1.214521
vt -14.534920 -1.137117
vt -14.540450 -1.121799
f 332/526/332 343/527/343 337/528/337
vt -3.765472 9.592284
vt -3.692528 9.373047
vt -3.675509 9.377330
f 340/529/340 344/530/344 333/531/333
vt -2.967100 9.376620
vt -2.949486 9.377638
vt -2.985377 9.606975
f 346/532/346 338/533/338 344/534/344
vt 3.710205 9.026806
vt 3.072527 8.296287
vt 3.573803 8.832942
f 346/535/346 342/536/342 336/537/336
vt 8.530517 7.598486
vt 8.544599 7.609035
vt 8.398287 7.742198
f 348/538/348 345/539/345 349/540/349
vt 10.773840 4.051755
vt 10.817880 3.861539
vt 10.835210 3.863911
f 348/541/348 341/542/341 339/543/339
vt -13.570350 -6.451107
vt -13.401830 -6.359868
vt -13.408330 -6.344553
f 343/544/343 354/545/354 347/546/347
vt 9.593768 6.265774
vt 9.814861 5.939270
vt 9.830114 5.948236
f 360/547/360 349/548/349 350/549/350
vt -1.708154 6.635287
vt -1.690726 6.612576
vt -1.563501 6.735856
f 363/550/363 351/551/351 362/552/362
vt -2.203047 6.815455
vt -2.004543 6.870105
vt -2.205493 6.843354
f 353/553/353 364/554/364 365/555/365
vt -8.628726 -12.142300
vt -8.495832 -12.003160
vt -8.506893 -11.990260
f 354/556/354 368/557/368 359/558/359
vt -1.615049 6.734861
vt -1.564752 6.900845
vt -1.638625 6.750806
f 355/559/355 370/560/370 362/561/362
vt -1.779452 6.828959
vt -1.604446 6.917729
vt -1.790019 6.855041
f 356/562/356 363/563/363 366/564/366
vt -2.402186 6.879419
vt -2.197578 6.907846
vt -2.400661 6.907258
f 357/565/357 365/566/365 371/567/371
vt -1.989455 6.843052
vt -1.800484 6.917631
vt -1.995602 6.870525
f 352/568/352 366/569/366 364/570/364
vt 8.210403 -8.438952
vt 8.054822 -8.554122
vt 8.065438 -8.568126
f 375/571/375 360/572/360 361/573/361
vt -2.534688 6.995498
vt -2.327016 6.997992
vt -2.528735 7.022821
f 367/574/367 371/575/371 379/576/379
vt -2.652993 7.328566
vt -2.478091 7.229612
vt -2.466692 7.255560
f 372/577/372 358/578/358 373/579/373
vt -2.569073 7.216020
vt -2.380285 7.139303
vt -2.373149 7.166341
f 373/580/373 367/581/367 379/582/379
vt 6.264860 -13.178980
vt 6.240888 -12.986590
vt 6.223667 -12.987090
f 368/583/368 380/584/380 374/585/374
vt 7.615639 -9.171511
vt 7.431469 -9.231016
vt 7.438424 -9.247002
f 382/586/382 375/587/375 369/588/369
vt -2.758145 7.337576
vt -2.740151 7.360731
vt -3.048135 7.591867
f 378/589/378 384/590/384 385/591/385
vt -2.567753 7.263774
f 384/590/384 378/589/378 372/592/372
vt 11.050070 -4.212799
vt 11.222690 -4.126036
vt 11.041870 -4.197487
f 376/593/376 387/594/387 388/595/388
vt 9.315470 -7.442214
vt 9.128887 -7.496537
vt 9.135624 -7.512454
f 388/596/388 382/597/382 377/598/377
vt -0.325332 7.701134
vt -0.248292 7.853814
vt -0.276632 7.855356
f 370/599/370 383/600/383 389/601/389
vt 10.354900 -9.680765
vt 10.337890 -9.684224
vt 10.413370 -9.864974
f 391/602/391 386/603/386 380/604/380
vt 10.545810 -6.004911
vt 10.350100 -6.008918
vt 10.352270 -6.026216
f 393/605/393 387/606/387 381/607/381
vt -0.311808 7.969835
vt -0.273214 7.810396
vt -0.244876 7.808832
f 397/608/397 389/609/389 383/610/383
vt 11.055880 -8.833803
vt 11.021340 -8.645059
vt 11.003970 -8.646599
f 391/611/391 400/612/400 392/613/392
vt 10.257130 -6.845906
vt 10.065920 -6.804020
vt 10.063720 -6.821364
f 406/614/406 393/615/393 394/616/394
vt 0.388389 8.248269
vt 0.470133 8.104687
vt 0.497849 8.110200
f 409/617/409 397/618/397 396/619/396
vt -2.917548 7.663185
vt -2.889654 7.675710
vt -2.952512 7.840440
f 398/620/398 410/621/410 402/622/402
vt -2.779627 7.532192
f 410/621/410 398/620/398 385/623/385
vt -3.590373 7.486228
vt -3.635698 7.656963
vt -3.666257 7.653222
f 402/624/402 413/625/413 399/626/399
vt -4.196035 7.392431
vt -4.225624 7.398950
vt -4.214030 7.220912
f 414/627/414 390/628/390 403/629/403
vt -3.671260 7.612056
vt -3.640706 7.615836
vt -3.647006 7.792997
f 399/630/399 413/631/413 403/632/403
vt 13.092530 -4.556447
vt 13.037570 -4.372691
vt 13.020670 -4.377281
f 400/633/400 415/634/415 404/635/404
vt 1.393113 8.306252
vt 1.517376 8.188958
vt 1.542757 8.198702
f 408/636/408 409/637/409 395/638/395
vt -4.656565 6.352425
vt -4.602274 6.519436
vt -4.630691 6.528256
f 414/639/414 417/640/417 401/641/401
vt -6.188035 -10.882690
vt -6.129519 -10.695420
vt -6.146612 -10.691540
f 419/642/419 406/643/406 405/644/405
vt 3.087491 4.490343
vt 3.158323 4.314843
vt 3.114096 4.501596
f 422/645/422 408/646/408 407/647/407
vt -4.802284 5.062702
vt -4.733815 5.235748
vt -4.762364 5.246481
f 417/648/417 423/649/423 411/650/411
vt 13.413950 1.433206
vt 13.107210 1.933941
vt 13.093020 1.923520
f 415/651/415 426/652/426 418/653/418
vt -5.788739 -11.368430
vt -5.713034 -11.187540
vt -5.729322 -11.181570
f 428/654/428 419/655/419 416/656/416
vt 2.992407 4.742455
vt 3.096140 4.583223
vt 3.122905 4.594090
f 430/657/430 422/658/422 407/659/407
vt -4.743872 4.353771
vt -4.666676 4.525158
vt -4.694915 4.538163
f 423/660/423 431/661/431 412/662/412
vt -4.666891 4.512895
vt -4.563614 4.671835
vt -4.695100 4.525964
f 431/663/431 424/664/424 412/665/412
vt 11.035590 -6.499897
vt 11.025750 -6.513904
vt 11.183250 -6.617246
f 428/666/428 427/667/427 433/668/433
vt 2.950605 3.682810
vt 3.039887 3.513575
vt 3.069126 3.523844
f 435/669/435 430/670/430 421/671/421
vt -4.331832 3.273000
vt -4.359318 3.287536
vt -4.423872 3.105783
f 436/672/436 425/673/425 424/674/424
vt 13.353530 -0.723204
vt 13.267630 -0.547288
vt 13.252730 -0.556450
f 426/675/426 438/676/438 432/677/432
vt 2.334144 2.168206
vt 2.391573 1.981946
vt 2.422191 1.987652
f 442/678/442 434/679/434 429/680/429
vt 2.733480 3.077132
vt 2.814449 2.903591
vt 2.844161 2.912636
f 434/681/434 435/682/435 420/683/420
vt 12.969400 -1.647879
vt 12.813210 -1.542226
vt 12.806110 -1.557763
f 446/684/446 433/685/433 439/686/439
vt -4.013842 2.994993
vt -4.159822 2.845822
vt -4.234981 2.661895
f 452/687/452 437/688/437 436/689/436
vt 12.944980 -3.355531
vt 12.870590 -3.176438
vt 12.855570 -3.185017
f 438/690/438 453/691/453 444/692/444
vt -3.604389 1.899478
vt -3.629652 1.917538
vt -3.714767 1.725803
f 461/693/461 443/694/443 452/695/452
vt 13.123870 -1.429304
vt 12.993770 -1.285087
vt 12.983190 -1.298457
f 453/696/453 446/697/446 445/698/445
vt 2.344263 1.802304
vt 2.511975 1.388515
vt 2.373272 1.815154
f 447/699/447 458/700/458 455/701/455
vt 2.318962 2.090747
vt 2.427158 1.891639
vt 2.346413 2.105827
f 440/702/440 455/703/455 456/704/456
vt 2.609745 0.751907
vt 2.648393 0.526780
vt 2.640377 0.755598
f 441/705/441 456/706/456 463/707/463
vt 2.515846 0.940127
vt 2.581753 0.723298
vt 2.611355 0.731990
f 457/708/457 441/709/441 463/710/463
vt 2.043881 -1.011190
vt 1.965003 -1.211563
vt 2.071188 -1.027452
f 450/711/450 459/712/459 458/713/458
vt 1.570420 1.132142
vt 1.538613 1.131895
vt 1.534349 0.933543
f 451/714/451 467/715/467 442/716/442
vt 1.227974 -1.577539
vt 1.059913 -1.715411
vt 1.084990 -1.734533
f 459/717/459 454/718/454 470/719/470
vt -2.506247 0.722144
vt -2.477962 0.735212
vt -2.577049 0.936955
f 464/720/464 448/721/448 457/722/457
vt -1.946732 2.530922
vt -1.917637 2.531352
vt -1.908398 2.753180
f 471/723/471 449/724/449 464/725/464
vt -3.154960 1.134422
vt -3.180010 1.152601
vt -3.271457 0.963246
f 473/726/473 460/727/460 461/728/461
vt 0.920367 -1.286097
vt 0.857201 -1.493835
vt 0.947898 -1.300607
f 462/729/462 475/730/475 469/731/469
vt 1.351683 -1.416265
vt 1.282380 -1.621246
vt 1.378869 -1.432246
f 454/732/454 469/733/469 470/734/470
vt -0.214614 3.808948
vt -0.190309 3.798720
vt -0.041267 3.953229
f 476/735/476 465/736/465 471/737/471
vt 1.402712 1.534579
vt 1.451796 0.932613
vt 1.479990 1.134233
f 481/738/481 467/739/467 466/740/466
vt -1.143690 -0.027142
vt -1.328453 -0.140319
vt -1.304762 -0.159850
f 475/741/475 468/742/468 483/743/483
vt 1.282920 1.347764
vt 1.251440 1.350573
vt 1.262052 1.141989
f 472/744/472 487/745/487 481/746/481
vt -2.558864 0.391624
vt -2.584104 0.409630
vt -2.671989 0.215217
f 488/747/488 474/748/474 473/749/473
vt -1.382585 -0.211423
vt -1.405764 -0.191287
vt -1.500915 -0.381725
f 483/750/483 468/751/468 489/752/489
vt 0.714228 4.828221
vt 0.740777 4.819468
vt 0.854502 4.930537
f 490/753/490 477/754/477 476/755/476
vt 0.727899 4.668770
f 490/753/490 491/756/491 477/754/477
vt 1.494438 2.115766
vt 1.435516 1.920791
vt 1.466515 1.917292
f 494/757/494 486/758/486 480/759/480
vt 1.273637 1.590933
vt 1.253137 1.388327
vt 1.284620 1.385553
f 486/760/486 487/761/487 472/762/472
vt -2.032205 0.115364
vt -2.056365 0.134671
vt -2.145904 -0.062610
f 489/763/489 482/764/482 488/765/488
vt 1.380740 4.060130
vt 1.406582 3.853952
vt 1.436980 3.856993
f 491/766/491 492/767/492 478/768/478
vt 1.459818 3.887283
vt 1.497692 3.683245
vt 1.528705 3.690116
f 492/769/492 493/770/493 484/771/484
vt 1.613579 3.513110
vt 1.644447 3.306874
vt 1.675033 3.313411
f 493/772/493 495/773/495 479/774/479
vt 1.740608 2.699268
vt 1.712420 2.490943
vt 1.743112 2.492122
f 495/775/495 494/776/494 485/777/485
vt 13.614840 11.864450
vt 13.461740 12.035780
vt 13.446040 12.010290
f 500/778/500 498/779/498 505/780/505
vt 13.370590 12.311380
vt 13.213090 12.471420
vt 13.344960 12.293080
f 496/781/496 500/782/500 506/783/506
vt 6.849809 17.207670
vt 6.825731 17.225719
vt 6.738564 17.012550
f 510/784/510 502/785/502 511/786/511
vt 4.368440 18.132509
vt 4.247236 17.933649
vt 4.388662 18.111120
f 497/787/497 510/788/510 503/789/503
vt 4.557665 17.868811
vt 4.383225 17.718929
vt 4.569459 17.841511
f 499/790/499 503/791/503 504/792/504
vt 11.234480 14.271690
vt 11.009950 14.291380
vt 11.223970 14.243650
f 498/793/498 504/794/504 505/795/505
vt 13.689490 11.975050
vt 13.663310 11.957550
vt 13.870860 11.566470
f 496/796/496 506/797/506 507/798/507
vt 14.955060 9.862558
vt 14.724260 10.226870
vt 14.817370 10.032470
f 501/799/501 507/800/507 512/801/512
vt 15.382030 9.040529
vt 15.353790 9.026049
vt 15.452230 8.841162
f 508/802/508 514/803/514 515/804/515
vt 15.026920 9.579458
f 514/803/514 508/802/508 512/805/512
vt 8.087442 16.383980
vt 8.059961 16.397739
vt 8.008621 16.174370
f 511/806/511 509/807/509 518/808/518
vt 13.956110 11.694700
vt 14.068460 11.518450
vt 14.096700 11.532180
f 515/809/515 520/810/520 513/811/513
vt 9.393173 15.332980
vt 9.363931 15.342670
vt 9.339558 15.124830
f 518/812/518 517/813/517 524/814/524
vt 12.359000 13.866950
vt 12.473350 13.696990
vt 12.501350 13.710280
f 520/815/520 525/816/525 519/817/519
vt 13.909550 9.962299
vt 13.846420 9.760676
vt 13.877610 9.758520
f 523/818/523 522/819/522 527/820/527
vt 11.656510 13.241360
vt 11.626830 13.249370
vt 11.616160 13.038050
f 524/821/524 516/822/516 523/823/523
vt 12.825660 13.469670
vt 12.797310 13.457140
vt 12.873500 13.272340
f 519/824/519 525/825/525 526/826/526
vt 13.873030 9.791242
vt 13.841840 9.793378
vt 13.883630 9.584139
f 527/827/527 522/828/522 529/829/529
vt 6.625058 17.870569
vt 6.734610 17.710979
vt 6.762891 17.723200
f 526/830/526 530/831/530 521/832/521
vt 6.629867 17.766470
vt 6.601681 17.754030
vt 6.665137 17.573380
f 521/833/521 530/834/530 531/835/531
vt 14.740090 7.555425
vt 14.717820 7.350902
vt 14.749170 7.354541
f 529/836/529 528/837/528 535/838/535
vt 3.604169 18.470490
vt 3.665082 18.286631
vt 3.695567 18.293800
f 531/839/531 536/840/536 533/841/533
vt 15.072150 5.900180
vt 15.040770 5.895669
vt 15.117920 5.706694
f 534/842/534 532/843/532 537/844/537
vt 14.760460 7.387403
vt 14.729110 7.383847
vt 14.796590 7.192269
f 535/845/535 528/846/528 534/847/534
vt 3.836367 18.259520
vt 3.805828 18.252590
vt 3.843017 18.064581
f 533/848/533 536/849/536 539/850/539
vt 14.728490 7.795097
vt 14.475660 8.339730
vt 14.622050 7.968059
f 542/851/542 537/852/537 538/853/538
vt -0.494433 18.403641
vt -0.443067 18.221880
vt -0.411920 18.226669
f 539/854/539 543/855/543 541/856/541
vt 14.584260 8.171757
vt 14.554290 8.161771
vt 14.647810 7.982883
f 542/857/542 540/858/540 544/859/544
vt 14.200280 9.197903
vt 14.170120 9.188722
vt 14.255860 9.008605
f 544/860/544 545/861/545 547/862/547
vt -1.338918 17.990110
vt -1.307334 17.992670
vt -1.365346 18.176229
f 548/863/548 546/864/546 543/865/543
vt 13.193000 11.080710
vt 13.163390 11.071790
vt 13.248110 10.893640
f 547/866/547 550/867/550 551/868/551
vt -3.206557 17.742161
vt -3.178614 17.370750
vt -3.153813 17.557739
f 548/869/548 552/870/552 549/871/549
vt 6.496218 16.131390
vt 6.574567 15.963520
vt 6.602692 15.974360
f 551/872/551 553/873/553 555/874/555
vt -5.848783 16.680429
vt -5.832090 16.498249
vt -5.800352 16.499220
f 552/875/552 556/876/556 554/877/554
vt 6.160300 16.221479
vt 6.132459 16.209930
vt 6.227130 16.045589
f 555/878/555 553/879/553 557/880/557
vt 2.806660 16.797041
vt 2.778048 16.787069
vt 2.861332 16.621880
f 557/881/557 558/882/558 560/883/560
vt -7.886615 15.666800
vt -7.867109 15.484840
vt -7.829212 15.302550
f 556/884/556 565/885/565 559/886/559
vt -8.981938 14.877310
vt -8.954656 14.336610
vt -8.931199 14.698180
f 565/887/565 566/888/566 559/889/559
vt -10.588180 13.188220
vt -10.590120 13.009240
vt -10.558270 13.008500
f 566/890/566 570/891/570 567/892/567
vt -6.779969 14.959250
vt -6.723285 14.799550
vt -6.696168 14.804180
f 560/893/560 569/894/569 580/895/580
vt -11.592150 12.092720
vt -11.612970 11.534190
vt -11.564780 11.721060
f 570/896/570 571/897/571 561/898/561
vt -14.340190 7.734770
vt -14.183910 8.059255
vt -14.295930 7.907027
f 579/899/579 576/900/576 568/901/568
vt -13.849410 8.994635
vt -13.819940 8.983949
vt -13.743200 9.143177
f 562/902/562 576/903/576 577/904/577
vt -12.794130 10.743370
vt -12.820770 10.573960
vt -12.763840 10.740050
f 563/905/563 577/906/577 583/907/583
vt -14.133210 8.368882
vt -14.124290 8.213021
vt -14.103260 8.366106
f 564/908/564 582/909/582 579/910/579
vt -6.760594 14.844840
vt -6.711639 14.687870
vt -6.733485 14.849520
f 569/911/569 584/912/584 580/913/580
vt -11.969940 11.126510
vt -11.998180 10.938720
vt -11.967830 10.931200
f 571/914/571 585/915/585 572/916/572
vt -13.885670 8.776847
vt -13.774320 8.645873
vt -13.859210 8.782910
f 575/917/575 588/918/588 582/919/582
vt -11.296520 12.307650
vt -11.286950 12.147470
vt -11.267310 12.309460
f 578/920/578 583/921/583 584/922/584
vt -11.791600 11.151600
vt -11.854860 10.975860
vt -11.829600 10.962090
f 585/923/585 589/924/589 581/925/581
vt -11.126570 11.783140
vt -11.130390 11.759530
vt -10.994480 11.841420
f 587/926/587 573/927/573 586/928/586
vt -11.622850 11.163500
vt -11.485280 11.300150
vt -11.510060 11.314760
f 586/929/586 581/930/581 589/931/589
vt -12.584550 10.454640
vt -12.447320 10.395280
vt -12.568560 10.469830
f 574/932/574 587/933/587 588/934/588
# 314 faces, 934 coords texture

# End of File
