# .PCD v0.7 - Point Cloud Data file format
VERSION 0.7
FIELDS x y z
SIZE 4 4 4
TYPE F F F
COUNT 1 1 1
WIDTH 2048
HEIGHT 1
VIEWPOINT 0 0 0 1 0 0 0
POINTS 2048
DATA ascii
1.711143 15.63695 -0.4186346
1.604075 15.68403 -1.429979
2.050048 15.44889 -2.462551
1.850274 15.51116 2.157134
1.508223 15.69381 -0.5655079
2.13293 15.30853 0.03580949
2.125628 15.37462 -2.600748
1.385125 15.69292 -2.947619
1.53958 15.66909 1.056942
2.085879 15.32608 1.399343
1.996387 15.39945 2.167612
1.371279 15.70927 -1.627582
1.492372 15.65789 1.758186
2.055052 15.33987 2.310019
1.901063 15.44939 3.069208
1.298779 15.70414 -1.430455
1.364669 15.65516 2.258682
2.008351 15.37519 2.77387
1.92582 15.43118 3.130875
1.220658 15.69651 -0.9535148
1.196783 15.59833 3.128763
2.103404 15.27946 3.071099
1.87148 15.45658 3.813787
1.653249 15.64639 -4.043959
1.201627 15.68271 0.34058
2.449826 14.96469 -2.299531
2.230825 15.13728 3.297253
2.45852 14.91831 -0.5439578
0.9838688 15.61423 -1.288403
1.694898 15.48773 5.551315
1.066884 15.63193 0.7341484
2.439986 15.02319 -3.908063
2.409143 14.93225 3.090044
2.603271 14.78799 -2.384107
0.950465 15.59519 -1.712877
1.300462 15.62805 -4.365582
1.869266 15.3882 6.044154
2.576192 14.85534 -4.147823
2.266025 15.08733 3.93689
2.63779 14.71833 -0.1716459
0.7942619 15.47596 -3.57364
1.057385 15.50472 3.849394
2.005689 15.45977 -4.759259
2.596362 14.74243 2.340543
2.740806 14.68925 -3.484269
2.665605 14.70366 -1.089558
0.8529084 15.50993 0.2678728
1.080552 15.47425 4.702168
0.9483902 15.44147 3.423567
2.643708 14.70141 2.109644
2.849168 14.59571 -3.046176
0.6755751 15.41604 -2.323662
0.6156351 15.34408 -4.503888
1.001924 15.40027 5.084588
0.8087231 15.33947 2.601828
2.535619 14.79067 5.233023
2.946225 14.55066 -3.575727
0.5921201 15.34562 -2.635556
0.3637476 15.20604 -4.62455
0.9794133 15.38876 4.941684
2.09602 15.40505 -4.839845
2.408924 14.90768 6.461935
3.104834 14.43694 -1.661258
2.917295 14.49981 1.257383
0.5591052 15.26273 -1.136263
1.849771 15.34513 7.623515
0.8962702 15.28347 5.131806
0.764673 15.24776 2.830825
2.582007 14.75197 5.481599
3.108478 14.48537 -3.881252
2.937491 14.48925 1.490688
0.3488163 15.14357 -3.080423
1.859114 15.33107 7.889802
0.8692376 15.20099 5.745293
0.6983523 15.07407 2.903428
2.744822 14.63047 5.220068
3.297929 14.38129 -1.299601
3.121599 14.40422 0.6857604
0.343856 15.10264 -2.438009
0.09165889 15.00447 -4.004246
0.8445304 15.10268 6.326526
0.7372639 15.019 4.350482
2.91344 14.5484 5.919058
2.450783 14.86888 8.562475
3.430352 14.37312 -1.750495
0.2948414 15.07492 -2.764679
0.1172908 15.00346 -3.672311
0.8522117 15.02909 7.494891
0.7545964 14.72135 6.440416
3.057472 14.50085 -4.719831
2.951332 14.55021 6.829246
3.500976 14.34372 0.3781047
3.267483 14.36942 1.603991
0.3738016 14.75981 0.3234541
1.824977 15.29501 8.945164
0.7890857 14.90579 6.653762
0.7458406 14.52982 6.336767
0.5837831 14.69019 2.565531
3.171066 14.48596 6.813519
2.476725 14.85653 8.916863
3.570044 14.41494 -3.413444
0.3984283 15.01621 -0.8768424
-0.09265127 14.8827 -3.698878
1.090247 15.23571 9.010363
0.7361427 14.50778 5.817111
0.7587408 14.557 7.445014
3.446979 14.41309 -4.504345
2.787915 14.64624 8.111952
3.633728 14.35426 0.9658614
3.713574 14.45183 -4.139801
0.3111656 14.81024 -0.4378781
1.569008 15.332 9.532982
0.7782345 14.69414 8.050152
0.7559733 14.32448 8.569502
0.630841 14.58381 3.464733
3.148559 14.51772 7.794968
3.87368 14.40708 -0.7302456
3.845783 14.41748 -1.998496
0.2447399 14.73499 -0.5373349
-0.3177751 14.82062 -3.96384
0.968514 15.08007 9.460176
0.746044 14.19515 6.751285
0.6657553 14.4083 4.398372
3.16066 14.523 8.024767
2.757362 14.72942 9.67344
3.908033 14.40934 0.3535291
3.461482 14.37584 4.167714
0.4139057 14.39309 2.153774
1.668954 15.27299 10.21856
1.022112 15.11792 9.767825
1.876236 15.20857 10.15924
0.6089811 14.32529 3.991009
3.507973 14.46356 6.728727
3.988314 14.43255 0.9632874
4.043991 14.52584 -3.931093
0.1071641 14.67366 -1.003499
0.06068965 14.50446 -0.188312
1.249839 15.21644 10.67164
2.550776 14.8409 10.40963
0.7236207 14.04408 6.602131
0.5682754 14.26941 3.779598
3.357703 14.52301 8.380263
2.765357 14.73827 9.924319
4.094657 14.47418 2.182115
3.807316 14.38649 2.360202
0.4615239 14.10285 3.796857
-0.4629776 14.65701 -2.831789
0.861355 14.80984 10.39619
2.385722 14.92483 10.99477
0.6737744 13.78358 7.726909
0.5106638 14.25146 3.388053
3.735657 14.55942 8.344047
2.632309 14.81832 10.70411
4.295903 14.56441 1.786561
3.923243 14.42691 3.270599
-0.1124016 14.5715 -1.306017
0.0662578 14.25412 1.452681
0.9193365 14.92264 10.55726
0.7093233 13.98283 9.372297
1.783582 15.14049 12.09126
0.6391164 13.6958 8.058475
3.951861 14.5629 7.255576
3.154298 14.67842 10.33419
4.381612 14.60875 -1.38329
4.189468 14.51212 1.524255
4.56852 14.72937 -3.931784
0.3887032 14.03914 3.855581
-0.5313032 14.61325 -2.461228
1.301771 15.18247 11.67281
2.232815 14.96994 12.38155
0.5508785 13.87992 5.565172
3.957882 14.5381 6.611887
3.747021 14.61112 9.099474
4.411156 14.62037 -0.2193642
4.52325 14.69103 -2.622886
4.604105 14.72869 1.277435
4.857554 14.84826 -3.95672
-0.2289846 14.32904 0.4206778
-0.7889392 14.77071 -3.851751
1.064958 15.0626 11.54205
0.6520735 13.89534 10.18836
2.167458 14.98777 12.78421
0.3863837 13.71998 6.089636
4.09195 14.573 6.539869
4.188884 14.61662 6.849026
3.529545 14.68439 10.50895
2.720747 14.81115 11.60334
4.655405 14.7482 0.2473737
4.684581 14.7555 -1.534419
4.681343 14.77531 2.553677
4.528181 14.69838 4.099964
4.112698 14.5521 5.7363
-0.1384456 14.18411 1.929374
1.549071 15.13915 13.63274
0.9711729 14.96201 12.3045
2.567201 14.85737 12.05086
2.423394 14.89299 12.82718
0.4239318 13.43561 9.946712
4.288962 14.64318 6.673347
4.262392 14.7127 9.072749
3.095523 14.75981 12.04099
4.726965 14.79654 3.296866
4.64648 14.75692 4.678243
0.169955 13.95293 4.002906
-0.6307402 14.54616 -1.57195
1.669405 15.11729 13.69448
0.6916525 14.24805 12.03257
2.513325 14.84906 13.678
0.4054715 13.856 5.09657
5.132948 14.95059 -3.598604
4.78588 14.80827 7.136581
3.598161 14.72272 11.10127
5.010839 14.9058 -0.5325121
4.95808 14.90886 2.816203
4.500528 14.69982 5.531674
-0.4732328 14.37722 0.3603884
-1.173719 14.9083 -3.902766
0.8379219 14.67676 12.3069
2.00281 14.99863 14.66496
1.717318 15.04842 15.15071
0.4059075 13.47762 10.70409
4.903943 14.84019 7.990047
4.131247 14.71704 9.849023
3.138517 14.76299 12.39982
5.221164 15.00893 1.159117
4.89735 14.85782 5.010716
0.01179642 13.94494 4.723849
-0.01755416 13.98855 4.178005
1.17695 15.07905 14.76317
0.6402516 14.29513 12.84338
2.187217 14.9426 14.83486
0.2027341 13.49352 8.726546
5.51238 15.04345 -3.121756
5.01259 14.8656 6.755028
4.682317 14.80583 9.875591
3.229884 14.7621 12.46158
5.217106 15.00884 1.944654
5.024076 14.89437 5.203506
-0.6983493 14.50216 0.05055245
-1.116012 14.85226 -3.205007
1.137197 15.06268 14.95545
0.4801105 13.83752 12.1373
0.4492589 13.64621 11.26897
1.508162 15.04339 15.76743
0.3450258 13.50266 11.29243
5.563243 15.04267 -2.042363
5.129802 14.90806 5.969885
4.872038 14.82754 9.823855
5.512378 15.05232 -0.2070825
5.338671 14.99998 -1.687124
5.175265 14.95669 4.29544
-0.2910416 14.19222 2.837382
1.289262 15.02606 16.1375
0.3893975 13.66806 11.96235
2.767186 14.79281 14.3968
1.509031 15.01071 16.34973
0.1886947 13.32186 11.11292
5.695554 15.04824 -2.425709
5.305925 14.91642 6.79844
4.309933 14.78169 11.03258
3.581515 14.78726 12.6804
5.617932 15.05464 -0.5372995
5.424994 15.05152 1.948297
5.312247 14.97738 4.655217
-0.4762126 14.36295 2.872819
-1.542793 15.31229 -4.039233
0.4505705 13.93147 12.96614
0.5417181 14.34068 13.87035
2.627795 14.83004 14.90821
1.68007 14.98213 16.74555
0.02199682 13.26021 11.02704
5.65182 15.04262 -2.038937
5.350275 14.93601 6.285861
4.726696 14.81379 10.29774
4.007915 14.80552 12.52738
5.566984 15.06581 0.9643185
-1.009933 14.76136 -0.834631
-0.2931234 14.23825 4.174596
1.210683 14.98233 16.95596
0.3254592 13.9232 13.83505
2.663152 14.84991 15.63841
1.565322 14.96976 17.19814
0.08467187 13.91604 7.620161
5.899069 15.04502 -3.624032
5.44011 14.85651 10.54224
5.608799 14.99875 5.095988
4.796257 14.82498 11.33834
3.722344 14.8301 13.57511
5.600526 15.06604 0.3852904
5.624951 15.00862 4.821152
-0.6587484 14.50818 1.937402
-1.133887 14.91739 -1.014281
1.100195 14.96118 17.49491
0.3434515 14.10121 14.45284
2.743916 14.8492 15.85797
1.681579 14.95107 17.63328
0.08410032 13.99689 7.467977
6.010325 15.02529 -3.702381
5.275312 14.84838 10.77471
5.642568 14.90562 8.424137
4.85149 14.83093 11.50642
6.05924 15.02379 -1.436639
5.918218 15.04048 2.723825
-1.104287 14.9043 -0.5960695
-0.4903515 14.45024 3.558647
-1.523204 15.4335 -3.73434
1.040113 14.94079 18.36078
0.4650797 14.42319 14.84323
3.153121 14.84832 15.38127
1.816621 14.93871 18.05186
0.07957049 14.20295 7.167533
6.237948 14.95426 -3.803154
5.255445 14.84293 11.62722
5.732698 14.84968 11.26259
5.693033 14.93395 7.145317
4.874279 14.83185 11.45933
4.575512 14.85452 13.75189
3.695303 14.85091 14.20616
5.95194 15.04912 1.06244
5.981765 15.01883 3.470509
-0.7661787 14.67891 2.159434
-0.5122771 14.57049 3.971895
0.817274 14.93065 16.62728
0.1851802 13.55708 12.87805
3.423285 14.87157 14.87666
1.893377 14.93674 18.09925
-0.06503899 14.3409 6.153716
6.458266 14.84587 -4.005947
5.266292 14.84511 12.42369
5.883754 14.86298 9.987417
5.887202 14.9131 8.085311
5.888772 14.98053 5.483039
4.132912 14.85464 14.2285
6.098805 15.02294 0.4839601
6.00411 15.01539 3.402552
-0.357066 14.67615 5.171488
-1.403643 15.34778 -2.310698
0.6667234 14.87372 16.51561
0.2998791 14.42038 15.85754
2.626979 14.90518 17.18421
-0.05047083 14.35119 6.25609
6.533832 14.79884 -4.226144
6.039403 14.84684 12.79758
6.127221 14.85053 10.34646
6.012956 14.93306 6.55674
5.470873 14.84941 13.62899
6.520845 14.85781 -1.425091
6.20793 14.97899 2.584371
6.24068 14.93579 5.228322
-0.648755 14.89833 4.328376
-1.479659 15.47683 -3.051756
0.9833161 14.97342 18.81408
3.556673 14.87461 15.39634
2.802446 14.89514 16.97552
0.2335615 14.14643 9.377993
6.360331 14.86849 -4.571325
6.075576 14.84435 12.61786
6.865942 14.80102 12.34081
6.205245 14.89656 7.790504
5.335153 14.86034 14.16943
3.879241 14.8517 15.20132
6.276424 14.96385 1.701292
6.386739 14.89881 5.087042
-0.7332057 15.09234 4.537147
-1.5665 15.8228 -3.869501
2.053627 14.9975 19.07341
-0.09179892 13.51808 13.22698
3.428721 14.88517 15.48956
0.3194425 14.45939 8.230248
0.1141679 14.03111 10.25602
6.334945 14.86533 8.469289
6.29241 14.84089 10.00245
7.011202 14.78805 12.06817
6.333942 14.84563 12.85513
5.0546 14.86594 14.50209
6.645861 14.79538 -1.0808
6.347397 14.92855 2.903989
-1.233822 15.29965 0.1024032
-0.8657127 15.26039 4.112031
0.4577658 14.80532 17.00743
-0.1432222 15.04305 18.73989
-0.1723636 13.65951 13.76514
3.078205 14.91411 17.80748
0.2332574 14.63499 7.667077
6.766959 14.60674 -4.359472
6.176478 14.87082 13.38407
6.7112 14.80233 11.6701
6.419686 14.85847 7.317764
4.628839 14.88668 15.26631
6.781844 14.71963 -0.2717181
6.547225 14.8447 3.553491
6.528834 14.84731 5.856325
-0.7952031 15.32682 4.874803
0.4480175 14.826 17.17556
-0.1927765 15.12654 18.894
-0.3754753 13.44258 12.7
3.500298 14.91047 17.62763
0.06488345 13.82355 11.03505
6.977418 14.46417 -4.119889
5.771442 14.86467 14.56404
7.176586 14.75827 11.31738
6.782458 14.82421 13.66312
5.439507 14.87228 15.22631
5.280472 14.87592 15.44646
6.848986 14.66171 -0.9588967
6.687053 14.78278 2.583919
7.139546 14.6117 5.574049
-0.5252933 14.99086 5.286339
-1.38764 15.72052 -1.854774
2.355795 15.08965 19.28817
-0.1206922 14.95597 18.40672
4.225769 14.8998 15.68599
3.842144 14.89781 17.58415
0.4648633 14.33502 10.72969
7.108586 14.33595 -4.21167
5.933022 14.87167 15.06881
5.431954 14.87548 15.50199
7.611423 14.76037 12.78716
7.132482 14.81137 13.73734
6.757194 14.79655 10.8153
4.979706 14.88688 16.23118
4.579256 14.89165 15.78867
7.25191 14.36492 -0.5777241
6.884061 14.66183 0.8098432
6.826387 14.72054 3.693645
7.127768 14.62232 5.823023
-0.4307813 15.02469 5.854146
-1.316222 15.71793 -1.010453
2.695428 14.97647 19.06655
-0.3078496 15.38166 19.02756
4.207623 14.89857 15.83877
0.4155876 14.59797 8.693103
6.865872 14.51832 -4.370196
7.08744 14.34085 -4.264348
6.041578 14.86782 14.35493
5.891318 14.88217 16.25701
7.630417 14.81266 14.59718
7.556263 14.71076 11.23707
6.653267 14.83786 13.91388
4.299507 14.89892 15.96861
7.083005 14.47093 -1.329397
6.932675 14.65415 2.737588
7.085416 14.62426 4.972042
6.992653 14.68247 6.249195
-0.2809702 14.98166 6.360011
-1.063769 15.56056 2.469902
-1.275568 16.14035 -3.788071
0.03556413 15.44069 19.11113
-0.3875496 13.96833 14.0801
-0.3359113 13.59059 12.05322
7.51075 14.04133 -3.235589
6.53074 14.87181 15.64751
7.876518 14.77858 13.91155
7.008068 14.84395 14.81867
7.791464 14.67631 11.12331
7.156437 14.71949 9.675944
7.483439 14.13756 -1.764933
7.244527 14.44474 1.811203
7.618316 14.37522 4.965367
7.485792 14.45747 5.560442
-1.186978 15.49275 1.075554
-1.020038 15.61357 3.016821
-1.285046 16.07935 -3.289471
0.2196726 15.53832 19.12292
-0.2912212 14.10291 15.0327
0.07386857 14.92782 7.549386
7.45436 14.05935 -3.70477
6.632589 14.86938 15.68206
6.66853 14.85488 14.90078
7.870792 14.81277 14.95109
7.157621 14.84853 15.16631
8.10813 14.70818 12.21217
7.627515 14.61246 9.343702
7.473437 14.27654 1.169158
7.272511 14.49562 3.733744
7.151223 14.64342 6.942884
-1.1447 15.59301 1.443206
-1.00835 15.65238 3.152384
-1.268738 15.98252 -2.32685
1.328603 15.68548 19.28141
-0.2654822 14.3846 16.12253
0.3537153 14.89787 8.675509
7.184693 14.18298 -4.767755
7.469584 14.594 8.202093
7.120637 14.87316 16.2256
8.081212 14.78141 14.1514
8.262706 14.62591 11.17098
7.627232 14.60695 9.240222
7.528906 14.25937 1.469618
7.787429 14.22402 3.322952
7.53337 14.54531 7.6884
-0.8115284 15.75135 5.575972
-1.161148 15.94318 -0.9918108
3.052484 14.84943 18.7802
-0.1501492 15.72212 18.96141
-0.2826249 14.49605 14.4755
-0.0819744 15.05893 7.489705
7.585529 13.99128 -3.179094
7.412349 14.59533 7.867054
7.520724 14.87869 16.63663
7.264702 14.86444 17.1854
8.039448 14.60034 10.39371
8.457479 14.77252 13.45266
7.829493 14.54559 9.018718
7.682122 14.27518 3.404702
8.023979 14.25395 5.461504
-1.119634 15.93441 -0.4426149
-0.7971294 16.0044 4.581815
-1.017759 16.15221 -3.466259
1.049268 15.84755 18.88288
-0.301754 14.71805 15.90864
0.3750375 14.94984 8.956529
-0.3247377 14.15257 12.7724
7.88314 13.92605 -1.430934
7.93354 14.86756 16.37196
8.225242 14.81381 15.19148
8.609244 14.60422 11.21175
7.827376 14.58707 9.624321
7.766035 14.12781 1.332521
7.916725 14.15858 3.035948
-1.075224 15.93234 0.2439975
-0.7038349 16.09493 4.843339
-0.8977999 16.1492 -3.111833
1.779201 15.86008 18.95293
-0.6900523 15.16105 18.36863
-0.2061469 14.64913 14.52015
0.01295822 13.86457 11.88562
7.873039 13.89049 -2.193933
8.064139 14.39055 7.912613
8.527 14.88599 16.9884
8.557306 14.83936 14.96687
8.469823 14.49741 9.752853
8.652871 14.70527 12.56604
8.217875 14.18837 5.213128
8.208159 14.01217 1.969633
8.035008 14.34829 7.03254
-0.9121763 16.03493 1.633156
-1.003504 16.07005 -1.150684
3.735997 14.74888 18.27337
1.636632 15.87402 18.81694
-0.3021289 14.31941 13.65374
4.15227 14.77534 17.81652
0.6908386 14.28995 11.42595
8.143991 13.78546 -2.691379
8.23042 14.49724 9.414303
6.036443 14.83425 17.10422
8.794452 14.53826 10.46433
8.935552 14.73284 13.29132
8.376081 14.02067 2.615673
-0.9755198 16.00547 1.010942
-0.7698271 16.13074 1.771805
-0.6303667 16.13336 -2.555675
4.040397 14.7421 18.15767
3.011443 15.89202 18.9336
-0.1515809 15.86219 18.49573
-0.1828588 14.49242 13.83441
-0.2974882 15.36822 8.20522
8.076796 13.6691 -4.868589
8.105136 13.92223 -0.1133782
8.610047 14.87081 17.69357
8.679266 14.85601 15.72027
8.940073 14.57792 10.95997
8.434512 14.16323 5.415764
8.430735 14.24908 6.775014
-0.7236389 15.87824 6.397356
-0.6563684 16.17433 2.978185
4.156751 14.76521 18.31192
3.18801 15.89834 18.81703
0.01748805 15.88945 18.32524
-0.2630844 15.01742 15.61773
-0.07727504 15.26719 8.55516
8.027025 13.6745 -4.789606
8.349928 13.85257 -0.8108233
9.2434 14.90326 17.96049
8.995068 14.80886 14.59885
9.064378 14.77473 14.20871
8.40583 14.10013 4.200391
8.36725 13.90971 0.3258917
-0.7277645 16.15571 0.986827
-0.692533 16.16762 1.59812
-0.5584047 16.10653 -2.797023
3.052792 15.55664 19.76959
3.209613 15.90922 18.28703
0.3812497 15.97959 17.61017
0.03740612 14.70039 13.45178
0.2562517 14.22697 11.89147
8.365872 13.74081 -3.74222
9.486244 14.89009 17.30932
8.965676 14.81209 14.59043
9.168262 14.74317 14.02511
9.434484 14.69156 12.72973
8.486423 13.87992 -0.2464178
8.62872 14.04201 3.172431
-0.5407248 15.63442 7.992507
-0.4510644 16.21068 3.131522
4.568162 14.75132 17.80828
1.639928 15.90619 18.02652
2.689375 15.90355 18.34364
0.1322612 15.96127 17.66869
-0.4418365 15.17959 16.53169
0.0597433 15.31101 9.276573
8.316765 13.68451 -4.371758
8.597456 13.89328 -0.328558
7.531346 14.75918 17.49689
8.808536 14.34222 8.337119
9.484737 14.62823 10.66486
8.756367 14.18729 5.972654
8.791104 14.06159 3.156298
-0.6398658 15.79584 7.427531
-0.382753 16.25008 6.002006
0.1864785 15.62677 -4.092503
2.432171 15.90757 17.93886
1.306101 15.92479 17.377
0.6908943 15.95828 17.5217
-0.8378618 14.99693 17.94055
-0.2018692 15.41879 8.987374
8.468497 13.71013 -4.532664
9.711496 14.91743 18.111
9.580828 14.82703 16.32315
9.462903 14.7836 15.59561
9.72392 14.70995 10.63494
8.802875 14.19789 6.111149
8.936417 14.25195 6.7629
-0.4902018 16.18842 6.553078
-0.2291139 16.18632 3.04259
5.127074 14.77789 17.68791
2.694205 15.90435 17.77238
1.494334 15.9269 17.12684
4.552017 15.93179 17.62797
0.4151509 16.07018 16.71972
-0.4543674 15.32622 15.04924
0.441351 14.46162 12.40154
8.631164 13.81956 -3.297004
9.826608 14.8527 16.82743
9.570704 14.76041 15.32775
9.615512 14.61503 9.241544
9.541242 14.69411 13.5307
8.951406 14.06132 1.077529
-0.3222316 16.08979 -0.8508427
-0.1643272 16.25353 5.636535
-0.1224347 15.93784 -1.56615
5.503458 14.76513 17.33885
2.481282 15.91008 17.44854
1.105682 15.94379 16.97579
4.621089 15.93454 17.64301
-0.3842625 15.69729 17.74456
-0.4120054 15.31926 15.01776
0.3576641 14.63403 12.3387
8.7129 13.88101 -2.085066
9.986461 14.91723 18.48232
9.71291 14.78845 15.76661
9.07961 14.28737 6.943113
9.909186 14.79112 10.27645
9.078784 14.25525 6.176491
8.918331 14.03206 0.4771493
-0.5484226 15.8242 8.398072
-0.07530648 16.18341 4.35681
-0.09688511 15.87685 -2.278866
4.376153 15.90329 18.29918
2.604891 15.91883 16.49034
1.780836 15.94288 16.3414
4.183995 15.91288 17.41673
0.9967691 15.97345 16.25686
-1.086859 15.33737 17.69012
-0.01133725 15.21168 13.89513
0.4208576 15.32328 10.88182
8.952725 14.02743 -1.128355
10.19357 14.89594 17.47566
8.042648 14.88371 18.2495
9.805943 14.72719 9.722208
9.189174 14.31746 6.89663
9.057575 14.11543 0.5257486
-0.4269179 16.21611 6.957882
-0.09342499 16.26542 6.602775
0.1085226 15.77438 -1.801863
4.742673 15.91991 18.47175
4.561529 15.93452 17.88711
2.047894 15.9602 16.21402
1.163597 15.96025 15.26968
4.422967 15.9079 17.05509
0.7123825 16.02289 16.5409
-1.135082 15.68826 17.45319
-0.4179812 15.33573 14.54762
0.3618883 14.55669 12.19273
8.890756 13.98215 -1.539849
9.98605 14.93093 18.68804
8.576066 14.90828 18.48647
9.935484 14.80453 9.527205
9.958161 14.78524 14.49785
9.274804 14.28194 3.630447
-0.1359103 16.0362 0.1786297
0.04536093 16.19999 5.863801
0.2662927 15.87291 1.83451
0.3217469 15.61105 -2.847628
5.944319 15.92968 18.72094
2.329203 15.98145 15.58004
1.527193 15.96322 14.70098
3.36422 15.88732 16.95424
5.570462 15.90753 16.68415
0.0331935 15.78761 16.86635
-0.852753 14.74842 17.22056
0.0677191 15.47776 10.5821
9.030576 14.14879 -4.71378
10.65156 14.93651 18.82613
10.27558 14.89786 17.1309
9.323791 14.38151 7.154437
10.08651 14.885 11.36133
9.237288 14.27046 0.9893101
9.245502 14.29204 0.2277939
0.2271498 16.04679 4.702931
0.2799522 15.81579 0.8403403
6.331292 14.82292 17.64342
5.215943 15.91649 17.79373
2.383574 15.98399 15.4012
1.692919 15.96864 15.0238
0.8597768 16.03083 14.84174
4.407115 15.9032 16.62009
4.718077 15.88894 16.18921
0.123998 16.18631 15.17451
-0.7300459 14.78564 15.99404
-0.4605057 15.83267 9.188346
0.3299554 14.96369 12.71593
10.85363 14.94132 18.86299
10.30546 14.89872 16.3044
9.47575 14.46688 7.453361
10.20805 14.9567 10.87163
10.1995 14.91429 12.58044
9.373034 14.39206 1.987284
9.219565 14.33154 -1.825779
0.3152508 15.97851 4.405809
0.3416187 16.05328 6.039133
0.3991337 15.7989 1.77882
0.5173647 15.57885 -2.542754
6.480522 15.93393 18.51584
2.525202 15.96486 15.32648
1.950086 16.04188 13.15992
0.8363392 16.05859 13.32084
1.167931 15.99321 12.81816
4.044994 15.91335 16.34229
5.756269 15.90624 16.43461
0.01465359 15.98229 16.15032
-0.8427819 14.60864 16.27602
-0.1583698 15.60098 10.41167
9.2104 14.43203 -4.817944
10.66129 14.92923 18.05809
10.03022 15.13965 19.33805
10.08384 14.92681 8.517818
10.51506 15.12771 11.08148
10.43259 15.0665 11.59744
10.49046 14.97013 15.13087
9.318306 14.4189 -0.636768
-0.1948036 16.28239 7.624786
0.1684766 16.19019 6.857106
0.419163 15.66549 -1.052489
5.783694 15.91495 17.8153
7.364862 15.93332 18.61208
5.992974 15.9155 17.86879
2.475066 15.99049 14.44613
1.078692 16.00427 12.91916
0.4164072 16.20147 14.10788
3.078009 15.8202 15.79817
5.983442 15.91007 16.89464
0.1556476 16.20544 14.83165
-1.132406 15.66595 17.18348
-0.4741186 15.21544 13.92859
0.5198544 15.33223 12.00019
10.72255 15.08677 19.28393
11.41238 14.92148 18.45899
9.676118 14.60624 6.433893
10.00232 14.89064 7.228254
10.57448 15.0562 13.72625
10.41381 14.95626 14.43923
9.527703 14.49561 4.317757
9.282892 14.43943 -1.931725
0.553084 15.86855 4.568756
0.5094689 15.71952 0.7708262
6.508728 15.94714 18.83177
6.801058 15.9178 17.92513
2.466758 16.00558 13.76838
1.765084 16.03617 12.63463
1.353838 15.99053 12.76559
4.242659 15.9229 15.61602
6.212771 15.90513 16.88441
0.1496962 16.2289 14.19091
-1.132492 14.62488 16.91951
-0.05229837 15.60607 11.38539
0.3242848 15.4591 12.11673
11.082 15.07068 19.23461
10.26653 15.51177 19.49706
10.02193 14.91389 7.080111
10.75845 15.22896 11.7475
10.617 14.99821 15.68518
9.575787 14.58265 3.286319
9.399721 14.5973 -1.35059
0.5765126 15.6525 -0.4382899
0.6735753 15.72996 2.326987
0.604188 15.61708 -1.427806
9.058589 15.93847 18.62823
7.672538 15.92714 18.00482
2.619916 15.97505 13.72686
1.879154 16.0899 11.67553
0.3380823 16.23608 13.35795
4.520693 15.88173 14.77628
5.669341 15.91499 15.25165
-0.06284075 15.96659 14.77152
-0.9010164 14.45909 15.74067
0.5200294 14.78019 12.2378
9.455421 14.78965 -4.84297
10.90415 15.0224 16.86791
9.741275 15.17034 19.60324
10.01036 14.92995 6.422832
10.32765 15.17425 6.94173
10.80758 15.11216 14.92524
9.549555 14.67399 1.021282
9.692561 14.67264 4.469615
9.499984 14.74079 -0.9886039
0.7214723 15.83315 5.25095
0.7720348 15.66883 0.2928353
4.616224 15.95929 18.91862
9.119139 15.93711 18.38338
7.103186 15.92339 17.74655
2.255881 16.08976 11.98317
0.5496382 16.17209 12.4782
3.552572 15.80165 15.07183
5.268574 15.86973 14.16032
4.921293 15.8489 13.92352
-0.8946673 16.36623 16.81639
-0.1982295 15.72169 11.00979
0.4296119 15.42044 12.76992
11.44101 15.30237 19.32264
10.87805 15.10722 15.604
9.785856 14.74632 5.246994
10.70568 15.28145 10.01874
10.91839 15.30671 11.51968
9.774642 14.85741 3.118571
9.638682 14.89402 -0.05028829
0.6382592 15.96152 7.270156
0.2460019 16.19695 7.872775
1.086959 15.73222 -3.462982
9.882485 15.93098 18.91855
8.0103 15.92943 17.88532
2.924294 15.88538 13.81675
2.075017 16.10387 11.80436
0.252745 16.24919 12.86416
4.506414 15.85266 13.88406
5.405814 15.84228 13.07315
6.353193 15.87375 16.46888
0.1306068 15.68252 15.50112
-1.255077 14.46677 16.23928
0.5693468 14.51992 11.8018
0.07432512 15.60038 12.38898
11.86931 14.90337 18.56663
11.13462 15.21851 15.19732
9.928661 14.90818 5.153136
10.64102 15.31982 8.268793
11.06452 15.2816 13.37029
9.772195 14.88953 2.577054
0.8494516 15.6456 -1.123834
0.8857907 15.82103 5.556781
0.9395821 15.69645 0.1965022
6.581429 15.96728 18.99238
10.45265 15.92926 18.79136
9.380045 15.93295 17.83244
7.684673 15.92559 17.46932
3.325289 15.82318 12.90391
2.621167 16.03011 11.92054
0.8435444 16.03386 10.97045
3.926778 15.82113 13.96887
6.765464 15.92796 17.18873
5.032597 15.83325 13.17815
4.739477 15.82622 13.13705
-0.7122067 16.20703 16.37774
-1.044262 14.3173 15.18155
0.5126587 14.74014 13.55272
9.966739 15.16727 -4.289416
11.22695 15.22412 15.38123
9.498295 15.68292 19.74701
10.81219 15.33228 9.963799
10.67295 15.35513 7.63236
10.99362 15.35321 10.98523
9.758951 15.09003 -1.129027
1.004805 15.83101 5.711107
0.9967788 15.74366 1.963849
1.17365 15.8233 -3.079396
9.66766 15.88696 19.24121
11.05618 15.9428 18.24496
10.84687 15.94003 18.45794
9.373735 15.93151 17.15434
8.364587 15.91344 16.87068
3.454127 15.78982 14.07269
2.834356 15.96732 11.93858
2.061371 16.16809 10.89664
1.433077 15.99835 10.65539
4.208584 15.80355 12.90766
5.404946 15.83418 12.82114
6.89645 15.91382 16.83006
-0.7249237 16.25346 16.1769
-0.2540474 15.89945 11.27252
0.313269 15.10283 13.45457
9.808706 15.10713 -4.180974
11.40529 15.19549 15.6039
9.96531 15.02674 3.874439
10.71332 15.38658 7.023516
11.25582 15.30835 13.26538
9.756728 15.10538 -1.689544
9.676446 15.05403 -3.079443
1.163226 15.86087 5.216305
1.027332 15.72433 -0.2367583
8.339407 15.95744 19.27102
11.28024 15.94707 18.02393
10.36485 15.94473 17.31758
9.012175 15.92125 16.72458
7.527225 15.91812 16.83326
2.676706 16.05205 11.24929
1.091034 15.95889 10.41125
3.859768 15.81052 13.83936
4.64307 15.80748 12.63368
5.858222 15.83494 12.96066
6.27442 15.80032 14.54948
0.1749264 15.61917 14.87944
-0.9961023 15.4981 16.30801
0.7045453 14.64425 11.71473
0.406341 15.43061 13.25341
12.00376 15.77118 19.02312
11.50945 15.09592 16.22859
10.27385 15.26802 3.853673
10.79357 15.41317 7.304677
11.28037 15.35921 11.6113
9.956031 15.23801 -0.7990842
0.5118446 16.11039 8.978696
1.226365 15.86001 1.231131
1.350686 16.22717 -3.925366
10.9587 15.94757 17.28842
9.702492 15.93686 17.37038
9.1512 15.92192 16.23923
7.815866 15.91849 16.71819
3.696907 15.79406 12.79038
2.295881 16.2483 10.09429
0.2977064 16.26001 11.16065
5.480666 15.79336 11.597
6.221367 15.79447 13.13479
7.029491 15.95978 16.13835
-0.6758244 16.10525 16.01752
-0.2342109 16.05472 11.31363
0.6191629 14.82819 13.7559
-0.005135222 15.34061 13.13719
12.30628 15.40941 19.10233
8.948293 15.91813 19.56857
10.67725 15.40423 4.262803
10.1956 15.29124 2.037345
9.791219 15.15034 -2.724461
1.125593 15.87513 6.646712
1.165316 15.84089 4.275684
1.305656 16.00412 -2.210506
11.44966 15.9045 18.85641
11.34229 15.95526 17.25232
9.844999 15.93966 17.22888
9.766262 15.94281 16.80988
8.041225 15.89056 15.9104
3.634489 15.80031 11.87854
2.624685 16.16868 9.921784
0.7949903 16.02615 10.24938
5.470835 15.76819 10.6138
4.081996 15.78813 12.39853
6.443995 15.78755 10.96972
6.264193 15.78392 10.84131
6.927206 15.93815 15.90467
-0.5613241 15.77074 16.02057
-0.6292049 14.8689 14.13656
0.3341944 15.37193 12.34246
-0.1843232 15.9744 12.27957
11.90797 15.89114 18.7975
11.63936 14.96795 16.22444
10.37182 15.31726 3.790348
10.23103 15.32263 1.669336
10.04057 15.28167 -2.379357
10.33436 15.36316 1.222811
0.9829794 15.90338 8.112524
1.397898 16.07831 0.4643373
1.613657 16.97878 -4.284727
10.34844 15.95708 16.05643
10.05914 15.95566 16.14541
10.88618 15.94 15.92865
9.773029 15.96056 15.39328
9.583323 15.94504 15.91676
8.320695 15.84839 14.46159
2.665454 16.18616 9.424369
1.230642 15.94145 9.686426
-0.139197 15.94181 13.01774
5.135123 15.77035 11.06275
6.383971 15.79191 13.44376
6.585091 15.80989 11.90166
7.207064 15.97452 15.94922
-0.7627203 16.34064 15.78935
0.01345993 16.28868 10.21924
-0.08057088 15.53263 13.58002
10.37171 15.2775 -3.823836
11.60946 15.09862 14.38786
10.83605 15.42512 3.979194
11.52075 15.21863 12.94563
10.22764 15.35483 -0.589255
1.18424 15.89476 7.287941
1.340994 15.96917 2.312327
1.361803 16.07104 -1.058825
12.33576 15.93014 18.48221
11.36902 15.9547 15.8966
10.31162 15.96667 15.03554
10.09685 15.98116 14.2338
9.719716 15.97016 14.52053
7.714 15.91819 15.65365
3.433396 15.81611 11.29005
2.878472 16.07051 9.325446
1.078805 15.92669 9.396051
6.005169 15.76105 9.797251
5.284454 15.74258 10.07393
6.386091 15.79893 12.5583
6.533585 15.77517 10.50795
7.330886 15.98333 15.63917
-0.8735211 16.48847 15.8782
0.5929179 14.92045 11.56089
0.5985556 15.16754 13.97826
12.31019 15.79324 18.89931
11.16879 15.45675 9.252034
11.16836 15.49697 8.039531
10.13123 15.29797 -2.853226
1.384657 15.99356 5.932362
0.7371574 16.02055 9.574902
1.442566 16.19553 -0.2517895
1.390013 16.18462 -2.457642
1.633233 16.95966 -3.811396
11.89577 16.00067 16.99192
11.14298 15.93618 15.08562
10.14437 15.98181 13.92898
9.821581 15.99685 12.86026
9.249043 15.94178 13.94129
3.876024 15.7583 11.20928
2.934493 16.04163 9.163184
0.9328591 15.94101 9.144113
5.731328 15.75378 9.744169
4.693987 15.7584 11.16026
6.905596 15.82629 12.04968
7.531744 15.764 10.52255
6.193433 15.75176 9.177376
7.103285 15.9686 14.74619
-1.55993 14.70971 15.66568
-0.2731721 15.50663 13.15688
10.45713 15.33141 -2.600178
12.8366 15.25376 18.9222
11.43957 15.38731 9.976633
11.24339 15.51347 7.307902
11.53619 15.29864 10.72763
1.497835 16.09088 5.726709
1.460807 16.1048 3.201478
1.486073 16.35329 -1.230548
2.075934 17.21535 -4.313955
12.21732 15.99499 17.45422
10.6006 15.95042 13.66423
9.898649 15.99236 13.32189
10.9481 15.92349 13.12256
9.328747 15.95799 13.11551
7.988518 15.83751 14.0725
3.16403 15.88889 9.543887
2.041102 16.36805 8.34633
5.890314 15.73056 7.913202
4.681735 15.66693 9.173306
6.712575 15.83627 13.45882
6.841945 15.74926 9.856257
7.193813 15.81125 11.69664
6.167741 15.73542 8.243332
0.4801951 15.28381 14.55382
0.2599124 15.20079 11.82179
-0.1632274 15.47717 14.17535
10.54653 15.27794 -3.605804
12.71545 14.89492 18.08234
11.733 14.70213 16.00804
11.00981 15.4111 3.273222
11.6764 14.87022 12.92487
10.59582 15.38571 0.08199216
1.581934 16.19414 5.174772
1.521764 16.20226 2.793484
1.543581 16.45695 -0.8511196
1.782404 17.0985 -3.880516
12.02187 16.00922 17.0106
11.28119 15.94319 13.77139
10.27895 15.98728 12.68713
8.84063 15.90241 13.55994
9.085799 15.92878 13.67719
8.091498 15.81274 13.73261
4.080047 15.68826 9.948183
2.378115 16.41848 7.986478
6.034368 15.73018 7.724767
5.52573 15.71582 8.297346
4.41857 15.68667 9.876847
7.474697 15.8286 12.20066
7.730888 15.80599 11.47474
6.339865 15.72351 7.938943
-0.6632641 15.84444 15.49166
0.4569542 15.08497 11.44939
-0.3441809 15.22416 13.22451
11.25817 15.07314 -4.517078
11.67689 14.84016 13.84837
11.10654 15.42206 3.552996
11.39983 15.50192 7.323089
10.59941 15.36431 -1.331478
1.67016 16.20725 7.022356
1.622197 16.3245 3.537823
1.651328 16.58171 0.3157493
1.834048 17.12329 -3.822561
11.61442 15.99646 14.91512
11.01748 15.91835 12.50393
8.70603 15.88744 13.3133
9.139597 15.954 11.83859
7.67755 15.84537 13.29862
4.05047 15.67374 9.617798
1.939136 16.36416 7.793237
6.180872 15.71684 6.961695
5.361051 15.6801 7.528014
4.858694 15.62972 8.127033
4.042233 15.66285 9.399066
6.946858 15.72041 9.204489
7.93294 15.79661 11.03785
7.014439 15.70647 8.980097
7.08792 15.91953 13.46351
-0.6683695 14.77829 13.48776
0.5051038 15.20472 11.27382
10.75886 15.30722 -2.18733
12.8567 14.83749 17.99564
11.98605 14.47137 16.51862
11.14929 15.37949 2.5087
11.69081 14.92489 11.55564
10.85324 15.37397 1.585223
1.854071 16.53937 4.282304
1.647576 16.67789 -1.097978
12.05918 16.11826 14.79561
11.566 15.99465 13.55881
10.4065 15.98553 11.62804
10.87529 15.90831 11.80274
7.835086 15.82306 13.38596
3.12352 15.93218 8.441297
2.358157 16.52655 6.568637
6.139706 15.68077 5.615825
5.084396 15.64159 7.488995
4.501318 15.57861 7.957348
7.775127 15.81047 12.37472
8.014645 15.77788 10.35613
6.692058 15.70868 8.382421
6.542559 15.71513 8.129628
0.2103368 15.02684 14.79365
-0.5397863 14.95206 13.16328
-0.5393151 15.57634 13.09777
11.08653 15.1471 -3.886571
12.92244 14.70158 17.66031
11.59304 15.38742 8.676491
11.38692 15.39269 2.978385
11.58947 15.43822 7.525518
11.03612 15.27167 -1.155916
10.95691 15.34932 0.9645483
1.749372 16.55825 2.462924
1.686083 16.77944 -1.649004
12.16666 16.17677 13.98121
12.3705 16.05475 16.66833
10.12663 16.04855 11.14557
9.628267 16.09442 10.55848
7.401163 15.8494 12.61837
3.219894 15.86941 8.112041
2.447417 16.47886 6.898078
5.863454 15.63461 4.117831
6.266451 15.64855 4.772775
4.571581 15.58672 7.985601
7.24996 15.92323 13.53357
8.226171 15.81514 10.86149
8.1176 15.76579 9.796911
6.655786 15.67669 7.165633
-0.355714 15.44058 14.96803
-1.464633 14.2753 15.06769
-0.4571043 15.55154 12.13666
11.00181 15.1851 -3.461165
11.68105 15.02343 -4.285633
11.64153 14.55967 13.98799
11.51579 15.36649 2.561437
11.72517 15.34339 7.503365
11.00966 15.32769 0.5415915
1.926785 16.64175 3.577326
1.801839 16.88482 -1.302956
12.22878 16.19116 13.98373
11.51759 15.98112 12.48141
10.30348 16.02609 10.94293
9.536774 16.0882 10.42767
8.097304 15.80313 12.62586
3.017709 16.06308 7.107421
1.795463 16.29661 7.374084
5.652979 15.62287 4.267523
5.56003 15.64007 5.084822
4.710969 15.50479 5.79355
7.622885 15.54922 6.236056
8.24569 15.75479 9.138871
6.939561 15.67677 8.136225
6.735987 15.6106 5.552545
6.901642 15.57035 5.196616
-0.6941551 14.69253 13.17065
0.4910862 15.19504 10.8064
11.32776 15.10954 -3.128268
11.52416 15.10004 -1.678558
13.05349 15.81437 18.52648
11.64065 14.52971 14.2045
11.57504 15.3645 2.62183
11.66595 15.44011 6.025776
11.72572 14.84886 10.70737
1.982921 16.75061 2.475159
1.972005 17.09412 -2.859959
12.20002 16.21038 13.18597
12.77856 15.79533 17.36354
9.476388 16.09128 10.23752
3.804488 15.60346 7.873548
2.651564 16.44328 6.148452
5.631153 15.57359 2.983273
5.42905 15.57998 3.98123
5.096622 15.58942 6.102264
4.949324 15.57891 6.601116
4.750973 15.51042 5.757409
4.278738 15.51611 7.046802
7.46228 15.52416 5.538992
8.359536 15.8026 9.764595
7.10659 15.54845 5.357294
7.006264 15.51409 4.116896
6.515015 15.59574 4.150784
-0.876497 14.44774 13.80057
-0.1381694 15.42472 11.39286
-0.6384826 14.70498 12.52248
11.47897 15.138 -1.130027
12.60216 14.65714 16.96244
12.28457 14.42616 16.37058
11.53084 15.29505 1.389355
11.61362 14.5161 11.62872
2.127618 16.71899 3.683319
2.125735 17.15884 -3.24497
12.52994 16.11885 15.67431
11.51133 15.9593 11.65679
10.43136 15.9961 10.72164
9.525323 16.12099 9.969298
3.779685 15.59974 7.646839
3.111939 16.0019 6.294604
2.414701 16.5958 5.443166
5.515779 15.57383 3.432571
6.436154 15.52892 2.23973
5.055839 15.51164 4.200413
4.78131 15.47859 4.791815
7.603791 15.51331 5.109795
8.165368 15.69084 8.197293
6.5848 15.54991 3.212033
-0.9646043 14.35113 13.87017
0.0331308 15.43368 10.86124
-0.7568265 15.98559 14.41216
11.80415 15.0294 -1.288217
13.07626 15.78505 18.26903
11.81939 14.13512 14.82319
11.83412 15.35689 4.887399
11.83221 15.20449 7.593694
1.999628 16.60768 4.745649
2.229106 17.16451 -3.406491
12.66342 16.09825 15.25889
12.83223 15.65366 17.41052
10.06372 16.13487 9.930968
8.86966 15.93352 10.14045
3.30211 15.83038 6.140079
2.604452 16.50886 5.679764
5.455457 15.5334 2.691319
5.309801 15.53484 3.357376
4.779622 15.43375 3.468611
4.34399 15.42092 4.229435
7.709081 15.51655 4.946495
8.221612 15.67331 6.870585
7.19275 15.46599 3.369112
-1.655423 14.65338 15.11443
-0.6153367 15.67684 11.41986
-0.7562752 14.5499 12.53212
11.84837 15.03015 -1.0229
12.4326 15.05689 -4.167281
11.5789 14.1369 13.64266
11.83723 15.33184 3.19914
11.54566 14.15674 13.31127
11.7521 14.74938 9.831686
2.19324 16.91273 1.072142
2.516621 17.11202 -3.643876
11.9666 16.15639 11.39035
11.27781 15.83321 10.43365
9.948261 16.21508 9.063752
9.043528 16.00816 9.506122
3.213402 15.92311 5.626729
5.701262 15.51855 1.750174
6.565135 15.45454 0.9643824
4.942504 15.42324 2.359919
4.603814 15.39992 3.086643
7.692572 15.51135 4.84104
8.148088 15.6481 6.921499
7.083031 15.41889 1.136943
-1.709606 14.54997 14.85124
-0.704964 15.7589 11.9504
-0.3661118 14.91912 11.64439
11.68618 15.18712 0.2852463
13.17679 14.36031 16.94017
11.83382 15.01889 8.526254
11.88577 15.29318 5.469217
11.52793 14.3158 12.07587
2.301918 16.88178 1.531991
2.37926 17.07327 -1.941179
12.77022 16.02937 15.05164
11.6915 16.01095 11.07122
11.09739 15.78434 9.859074
9.486537 16.21888 8.574594
3.656473 15.60553 6.099999
3.439756 15.73225 5.27302
2.882455 16.32825 4.821378
5.902852 15.38064 -0.7066654
6.300375 15.45929 0.6470773
4.878171 15.38345 1.446522
4.121483 15.44098 4.341591
8.641247 15.85904 8.051898
7.504869 15.45477 2.915089
-1.281707 15.72552 15.68705
-0.2503308 14.94159 11.19027
-0.8929822 16.10518 12.46202
-0.5787584 14.68497 11.87264
11.76911 15.1877 0.5789541
13.38822 14.47129 17.27397
11.839 15.0104 8.444549
11.95559 15.04297 6.395099
11.72513 14.61292 9.655262
2.45585 17.05504 -1.952572
12.68723 16.2724 12.298
12.09202 16.22407 10.84764
12.74638 15.66398 16.63393
9.931186 16.29122 7.954548
9.554128 16.30244 7.591603
3.447216 15.73685 4.084038
2.950294 16.24537 4.887969
2.476249 16.71053 3.50935
5.466897 15.47408 1.52194
6.407159 15.43044 0.2134571
5.319641 15.4813 2.041082
4.389917 15.3693 1.844054
7.96226 15.56161 4.58018
8.568551 15.82217 7.663034
7.710489 15.48148 2.905973
7.182193 15.42103 -0.03380463
-1.555431 14.20133 14.14497
-0.2457854 15.52983 10.19865
-0.5986599 14.65104 11.76107
11.93483 15.05921 -0.2201516
13.05801 15.6642 17.65162
11.95769 13.96876 14.50449
12.00882 15.21903 3.466421
11.4395 13.96898 12.15392
2.423853 16.93725 0.3088006
2.741092 16.82209 -0.8900192
12.77139 16.1543 13.48041
11.89729 16.10412 9.895075
10.92701 15.76947 9.063693
10.01086 16.34147 6.718289
9.592566 16.36697 6.581904
3.287004 15.89417 3.730964
2.670977 16.63556 3.093601
6.548096 15.31313 -1.932444
5.965551 15.31909 -1.704678
4.829582 15.34116 0.1334962
4.234002 15.386 2.046544
8.144511 15.62512 4.804256
8.690026 15.89027 7.262183
7.699372 15.47789 2.131373
7.154096 15.41912 -0.02379526
-1.755961 14.6086 14.51283
-0.946762 16.0477 11.74967
12.43701 14.91101 -2.568892
12.03243 15.05809 0.3006429
13.49692 14.86267 17.66477
12.53825 14.32153 15.54524
12.09135 15.01826 4.686676
11.69085 14.48446 9.414355
2.60913 16.9077 -0.5856709
3.014765 16.65908 -3.84689
12.38249 16.32589 11.06608
11.60284 15.8823 9.300831
10.81928 15.79591 8.674242
10.20777 16.1981 7.954583
9.488111 16.37138 6.139513
3.353957 15.82292 3.704457
2.986846 16.30129 3.005743
5.419723 15.38888 0.05137288
6.125868 15.33189 -1.58537
6.573575 15.41816 0.08454999
4.326581 15.35798 0.4907137
3.830003 15.50244 2.353761
8.835546 15.96311 7.774478
7.621058 15.46489 1.758981
7.176468 15.40691 -0.6767838
-1.175712 15.02404 15.35039
-0.6987359 15.72048 10.56268
-1.124717 14.21106 12.51957
12.13426 14.99989 0.3316518
13.44817 15.13166 17.6665
11.70583 14.42755 8.819331
11.97007 14.95265 6.443187
11.59533 14.21434 9.50657
2.893863 16.691 -1.652353
12.81792 16.23842 11.9331
12.25951 16.31559 10.2123
11.55945 15.84924 9.15856
10.56836 15.94496 8.491999
10.1555 16.27259 6.92714
9.309831 16.21161 7.730679
3.601307 15.62679 2.042534
3.51142 15.69867 1.900031
3.009681 16.29773 2.431781
5.412405 15.33231 -0.9719287
6.748955 15.34262 -1.477832
4.764062 15.3052 -0.74986
3.90696 15.46488 1.057643
8.313941 15.72293 3.185118
8.869566 16.06081 5.383911
8.350364 15.74407 3.189893
7.432961 15.45018 -0.4564387
-1.478852 14.09979 13.03641
-0.7517369 15.76377 10.76953
-1.192558 16.79226 13.5894
12.70029 14.72859 -0.4174892
13.3696 15.52673 -4.291571
11.74429 13.82038 13.3977
12.23094 14.96778 2.80989
11.96228 14.74801 6.450572
2.752505 16.69649 1.005745
3.037105 16.51354 -2.450006
12.80784 16.27078 11.58033
12.03206 16.17996 8.417839
12.67314 15.48728 15.77775
10.30102 16.14334 8.058201
9.779545 16.59898 2.902747
9.963305 16.54072 3.365891
3.678138 15.58596 0.9095883
3.147261 16.11791 1.884761
2.880784 16.49285 2.101891
5.429045 15.31025 -1.368301
6.850735 15.3674 -1.107417
4.750311 15.28349 -1.234501
3.997159 15.4238 -0.4747412
8.293661 15.72448 2.61707
8.948097 16.11261 5.461241
7.845146 15.53394 1.362549
7.111705 15.36903 -1.50659
-1.627577 14.8446 14.4286
-0.2066871 15.32793 9.873163
-1.135508 16.75821 14.50727
12.33569 14.88433 0.9543805
12.88506 15.60129 17.01589
12.40235 14.18142 14.62913
12.3212 14.90146 1.259612
11.85155 14.54638 7.412483
2.889838 16.55372 0.8094485
3.055961 16.4659 -2.15748
12.90246 15.88898 13.71446
11.77767 15.95038 8.244348
11.34449 15.69009 7.853051
10.39514 16.10475 7.234608
10.2807 16.24009 5.983953
9.141722 16.24346 5.472681
3.406138 15.80614 0.9368086
3.199042 16.06122 1.369902
5.278461 15.23761 -2.311895
6.977554 15.33228 -2.120655
4.456686 15.32568 -0.5573884
8.270279 15.75832 1.20715
8.853785 16.08348 4.43841
7.772097 15.53913 -0.6233099
-1.811167 16.30786 15.16647
-1.79357 14.26529 13.66728
-1.100135 16.31631 11.27197
-1.189202 16.74847 14.91025
12.38465 14.83885 0.4719878
13.39094 15.01218 17.30676
12.5496 14.66574 1.772309
11.8504 14.48448 7.36754
2.924828 16.53973 0.1973862
3.159687 16.27005 -1.815629
3.583307 15.90597 -3.980827
12.79216 16.33475 10.69704
11.55714 15.71904 7.033035
10.58557 15.9343 7.196
9.582992 16.56423 3.219352
10.06049 16.5347 2.806956
3.343362 15.93773 -0.8505245
3.211857 16.07568 0.3791573
5.056138 15.21764 -2.597646
6.430984 15.23539 -3.168383
4.275873 15.33616 -1.192083
8.257352 15.75986 0.9040884
8.701589 15.99875 3.505164
7.887515 15.58766 -0.9060395
-1.670532 16.62472 14.90356
-0.508174 14.60837 10.49173
-1.321479 16.85583 13.1367
12.98297 14.83577 -1.259332
12.98506 15.62735 16.97748
12.06564 14.06434 13.84846
12.21049 14.64228 4.536121
11.64555 14.07299 8.932954
3.337288 16.06743 -2.972012
13.00825 15.98524 12.10093
12.59356 16.41447 9.606613
11.44175 15.65743 6.733486
10.51042 16.01145 6.796858
9.460866 16.61005 1.769552
10.36874 16.24094 4.063954
10.15757 16.60698 0.4556632
9.178659 16.3805 3.332048
3.793529 15.53748 -1.557478
6.98216 15.32358 -3.09674
4.041589 15.40737 -1.698189
8.219489 15.75914 0.06491553
7.995471 15.63881 -0.8478075
-1.729836 15.82993 14.91331
-0.9679087 14.35458 11.09137
-1.180277 16.30429 10.73469
-1.460163 16.7689 14.62648
13.33027 15.26034 -2.626831
13.14552 15.62808 17.04596
12.03996 14.12182 13.56861
12.69336 14.66365 0.6385538
11.77943 13.83269 12.31323
3.521037 15.88319 -3.43336
12.66954 15.42635 14.77135
11.34776 15.64916 6.985946
12.79753 15.44388 16.70892
9.482257 16.652 1.090198
9.853914 16.7448 -0.100897
10.22437 16.44142 2.57156
9.151959 16.42604 2.201679
3.652216 15.70158 -2.80314
4.685287 15.24805 -2.806871
8.597502 16.02108 0.8151079
9.036102 16.34028 2.244418
8.741052 16.09771 2.010273
7.255574 15.38687 -2.900767
-1.243939 14.94997 14.09104
-0.4804527 14.82658 9.822577
-1.502997 16.87729 11.80357
-1.472033 14.0812 11.85443
13.48654 15.51423 -3.042447
13.35156 15.60929 17.04671
12.54204 14.51622 3.078718
11.81741 13.87763 12.59075
3.64783 15.80584 -3.741323
12.94767 16.2614 10.46381
11.49136 15.63736 6.155646
10.48148 16.08364 4.942528
9.668166 16.84518 -2.355912
10.26842 16.48581 0.9550785
9.289626 16.57613 0.9609007
5.850919 15.13401 -3.759586
3.888671 15.51276 -2.558095
8.713532 16.14306 0.5242161
8.793265 16.15851 1.713426
7.067832 15.34292 -3.409281
-1.238609 14.94858 14.04452
-1.228432 15.24975 8.991138
-1.554476 16.8729 13.26001
12.98327 14.66146 0.3916468
13.71144 16.13906 -4.290368
12.32422 14.33115 14.15846
12.4328 14.4821 3.791631
11.6483 13.57584 10.97354
13.05028 15.71885 11.60791
13.01161 16.19372 10.71338
11.65398 15.67491 5.462379
10.70589 15.83359 6.250768
9.423388 16.78889 -2.051995
9.562835 16.83757 -2.35384
10.38089 16.35114 0.9615256
9.187184 16.52779 0.7993416
6.306952 15.19392 -3.912319
4.10966 15.43236 -3.197797
8.826753 16.27508 0.05717294
8.150875 15.74307 -1.291153
7.578154 15.50258 -2.91247
-1.990713 14.33049 12.84575
-0.5554611 14.66909 10.01529
-1.281435 16.35592 10.39835
-1.853551 14.10782 12.07317
13.60846 15.56485 -1.303812
12.90867 15.54671 16.63755
12.06114 14.31392 13.47516
12.33809 14.30653 5.017323
11.93653 13.91825 8.039313
12.90292 15.61554 12.8464
12.76499 16.40159 9.482709
11.98789 16.0343 6.079949
12.51944 14.84114 15.1538
9.373041 16.72451 -0.9562005
9.387645 16.8242 -3.341813
10.42607 16.27558 1.122429
10.21198 16.64146 -1.636182
6.424171 15.19732 -4.120052
4.453512 15.31438 -3.519545
8.544409 16.09696 -1.697263
8.362358 16.03667 -3.388353
8.028338 15.7075 -2.248868
-1.239655 15.6501 14.23363
-1.135138 14.36703 10.26896
-1.256812 16.22877 10.24686
-1.653692 14.05596 11.80223
13.65781 15.93748 -3.176943
13.34027 15.61147 16.82931
12.80625 14.34407 14.41171
12.52123 14.40679 3.799496
11.80033 13.69746 11.01392
13.06146 15.69877 11.31975
13.10358 16.05107 10.64811
12.08647 16.12065 5.448582
11.47022 15.56078 4.926282
10.78556 15.74973 5.244088
10.04698 16.78153 -2.763479
10.61689 15.90486 0.2441212
10.19021 16.68287 -2.545602
6.240475 15.14689 -4.474017
8.682852 16.32938 -3.297692
8.154378 15.82933 -2.828136
-1.070448 15.6481 14.33118
-0.9724112 14.58225 9.773395
-1.396254 16.41606 10.05867
-2.001003 14.18824 12.09448
13.65438 15.8708 -2.103729
13.68704 16.21836 -3.553471
13.366 13.99355 15.40477
12.86718 14.44792 2.772002
11.77613 13.80691 11.336
12.81122 15.45057 12.4746
12.82137 16.44283 7.904689
11.72778 15.63881 4.333944
10.70876 15.8176 4.895939
9.843416 16.90202 -3.706757
10.48801 16.239 -0.8671601
10.42925 16.3692 -1.697954
5.385724 15.14272 -4.435749
8.895744 16.48757 -2.640414
7.806567 15.6682 -3.792465
-1.000518 14.89351 13.15295
-1.596561 14.68104 9.059369
-1.740207 16.90789 11.48398
13.4232 14.96707 0.4329716
13.58802 15.37888 0.3029761
12.93449 15.44692 16.3066
13.94858 15.87313 16.96833
12.85211 14.37204 3.642502
12.10132 13.82623 8.401566
12.43901 14.95866 14.306
12.6143 16.48469 7.056049
11.81649 15.66727 3.796635
12.69176 14.86151 15.59404
10.64756 15.863 2.431122
10.52208 16.17108 -1.581399
7.323954 15.42676 -4.438026
-1.558886 15.60865 13.98132
-0.9489834 14.89435 13.11734
-1.782915 14.54157 9.074897
-1.695863 16.86576 11.0104
-2.138647 14.55835 12.10054
13.64159 15.73241 0.002786921
13.33525 14.87777 16.01053
13.20539 14.06693 14.58787
12.21848 13.95668 7.493381
12.0193 13.58601 10.29406
12.44786 14.7827 14.38255
12.19569 16.21645 4.675078
10.90851 15.63868 4.703536
10.6337 15.87403 -0.2188629
10.74965 15.68262 1.1855
8.262294 16.02238 -4.158839
-1.296291 15.60773 13.51655
-1.707997 14.22917 9.927896
-1.84867 15.27668 8.567006
-2.056714 16.40203 14.01507
13.6631 16.03526 -0.966388
13.25449 15.19006 16.22933
12.85429 14.16959 14.01756
13.08847 14.50203 3.566216
12.30063 13.90906 9.187065
12.65115 15.28084 12.37223
12.64877 16.49811 6.42585
11.22376 15.49484 3.935221
10.93126 15.5593 2.787357
10.77119 15.6411 0.4830595
8.768022 16.48361 -4.109603
-0.7447626 15.53285 13.73649
-1.966034 14.1001 11.17146
-1.676509 16.63453 9.911294
-2.156029 14.31922 11.65054
13.64556 15.85771 0.3808352
13.36934 15.73595 16.16967
14.13192 15.66445 16.6752
12.83525 14.33047 4.992742
12.35227 13.96106 8.126987
12.41519 14.76473 13.94092
12.93946 16.44425 6.735283
11.96318 15.7361 2.636066
12.62595 14.98505 15.47031
10.71732 15.70987 -1.346684
10.63228 15.8646 -3.035978
-1.686119 15.55863 13.52734
-1.655632 14.91955 12.5312
-2.286375 16.81687 9.787793
-2.150165 16.03725 13.82565
13.62435 15.83487 1.18424
13.48741 16.86802 -4.041635
13.91949 16.01658 16.56335
13.21445 14.62472 3.248911
12.53816 14.12989 7.322194
12.90173 15.40294 11.03059
13.17688 16.12974 8.803622
12.17001 16.16511 4.194973
11.86089 15.64739 2.926953
10.73692 15.67288 -1.464608
10.5549 16.08779 -3.405293
-1.013065 15.6302 12.92812
-2.218497 14.24754 9.493681
-2.19233 16.78148 9.678747
-2.220375 16.00954 13.55223
13.60633 15.60816 1.760528
13.57866 15.95633 16.34533
12.29846 14.36421 12.92641
13.06325 14.49747 4.386383
12.42445 14.21092 9.14054
12.72063 14.48667 14.61388
12.56134 16.50959 4.568279
11.73778 15.48669 2.091018
10.79035 15.57831 -1.948104
10.56654 16.13833 -4.049899
-1.110524 14.85034 12.33189
-1.789181 16.28507 9.054151
-2.44423 16.50024 12.02971
13.6194 16.21126 -0.5508358
13.38147 14.84502 2.454358
13.46768 15.57496 16.20017
13.24 14.6747 3.627908
12.58174 14.18781 7.632488
12.66781 14.30553 7.489381
13.16214 15.61701 9.538113
12.48662 16.47744 4.179771
11.82408 15.54622 1.991962
10.88033 15.48323 -0.9813401
10.61475 15.96502 -3.913267
-1.121504 14.84684 12.25594
-2.255408 16.85081 10.52828
-2.459514 16.18412 12.50352
13.56091 16.05828 1.615215
13.41231 16.88806 -3.818516
13.20509 15.06293 15.46561
13.22262 14.72399 4.261035
12.75592 14.3739 6.90708
12.65656 15.14179 10.76389
13.16948 15.57646 9.275034
12.46533 16.462 3.587227
11.43075 15.39874 2.200125
10.96022 15.38465 -1.980055
-2.188223 15.76249 13.28808
-2.362726 14.36602 10.57297
-2.372242 16.68398 9.036541
13.49303 16.47038 -0.8819038
13.48186 16.47224 -0.762338
13.18902 15.13001 15.47152
13.34516 14.86313 3.533918
11.91953 14.41926 11.87065
12.8013 15.19578 10.2709
13.15249 15.536 9.294467
12.52925 16.50217 3.350642
11.99032 15.60586 0.4912969
12.98315 15.44427 15.39524
10.80321 15.50518 -3.321444
-1.404738 15.50039 12.46164
-1.103928 14.82091 11.89025
-2.42853 14.58802 8.417483
-2.653152 16.50258 11.19409
13.57107 15.7566 2.757852
13.42753 16.4443 0.1326811
13.70598 14.39957 14.9195
12.97751 14.59095 6.026474
12.34956 14.30338 10.276
12.94151 15.30149 9.97889
13.16405 15.48502 8.941809
12.80896 16.56861 4.166255
12.11784 15.71519 -0.4783261
13.00855 15.51572 15.09039
10.87121 15.42786 -3.164725
-1.517303 15.43251 12.24909
-2.334438 14.52622 10.85667
-2.751654 16.81866 9.267558
-2.161387 14.82902 11.11873
13.43847 16.3639 0.9638252
13.3989 15.0437 3.747034
13.74376 13.9001 14.55436
11.93939 14.23242 11.92826
12.921 14.71745 7.215797
12.40433 14.86341 11.31074
13.27882 15.78135 8.244122
12.81439 16.57871 3.651328
12.14 15.82714 0.2390896
11.40012 15.30257 0.3570361
11.29585 15.29338 0.02581675
-1.126294 15.53961 11.4675
-2.282061 14.73034 10.81917
-2.697374 16.12529 11.58968
13.21896 16.85791 -3.263459
13.47202 16.21614 2.021497
13.75533 16.20406 15.72354
13.27907 15.0295 5.205719
13.01359 14.82184 6.869758
12.70798 14.96292 9.618752
12.31678 14.32626 12.41581
13.27646 16.2503 5.25274
12.20585 16.03331 0.8674262
12.97181 15.50798 14.88413
11.26396 15.25109 -1.174515
-1.687848 14.94519 11.71706
-2.284531 16.4095 8.642654
-1.967752 14.93596 11.21529
13.46908 15.88598 4.172515
13.25202 16.65136 -0.8393354
13.39774 13.54937 13.63931
13.17113 14.99001 6.162951
12.77711 14.92781 9.049748
12.31059 14.33531 12.16946
13.3069 16.20997 5.160285
12.32937 16.28012 0.8589935
12.09152 15.54846 -1.646143
12.64784 14.96609 14.57287
-1.832507 15.33428 12.0394
-0.7418589 14.77107 11.4235
-2.408163 16.26205 8.438232
-2.062428 14.91393 10.99858
13.32729 15.18093 5.304688
13.18959 16.65729 -0.2376911
12.00063 14.00727 11.85531
12.53354 14.79345 9.815506
13.29076 15.65253 7.748752
12.45629 16.45315 1.177046
11.73535 15.26561 -1.374912
11.17309 15.21673 -3.821805
-0.7330292 15.59444 11.23236
-2.527567 14.73743 9.814362
-2.499968 15.67056 12.05497
13.38153 15.45201 5.492759
12.70724 16.76912 -3.763506
13.1504 15.1186 6.988875
13.21747 15.47292 8.221398
13.17515 16.47818 3.487093
12.37413 16.32587 -0.4693215
12.88777 14.54253 13.98726
-1.819981 15.2536 11.47266
-1.431508 14.89101 10.78778
-3.15755 16.64452 9.44121
12.92895 16.79359 -2.224983
13.19651 16.56432 1.541667
13.65165 16.19774 15.58425
13.24155 15.31091 6.847031
13.41163 15.93863 5.080927
12.45338 16.45209 0.6020917
11.96009 15.28778 -2.7456
-1.876268 15.21545 11.30233
-0.9672817 14.74381 10.87916
-2.619209 14.88019 9.252946
12.82825 16.73595 -1.32865
13.37401 15.64613 5.944909
12.66808 16.71149 -3.219646
12.44609 13.94321 12.36925
12.38047 16.33934 -0.8806709
12.06009 15.35569 -3.003746
11.64924 15.13643 -3.614217
-0.626012 14.75865 10.92693
-3.193373 16.42992 9.690538
12.87481 16.69409 0.1910396
12.77497 13.60503 12.84169
12.34066 16.19649 -1.896931
13.22092 15.74418 15.05767
-0.8648999 14.72199 10.42718
-2.880506 15.74869 10.87656
12.6219 16.63889 -1.366723
14.39814 15.58185 15.67692
12.36927 16.29125 -1.595174
-2.434855 15.29191 11.24106
-1.774285 14.96888 10.13906
12.58018 16.58968 -0.5776127
14.52782 16.00606 15.26305
12.35373 16.07861 -3.031265
-1.081286 15.49322 10.38214
-1.633866 14.93475 9.862729
12.43862 16.41996 -2.261101
14.23598 16.11261 15.78231
12.38336 16.14465 -3.41159
-1.601462 15.18871 10.15074
-3.02114 15.58438 10.26168
13.16548 15.32471 15.05644
12.69725 13.92246 12.76644
-1.716302 15.12969 10.15508
13.41379 15.65384 15.53448
14.49226 16.15323 15.01522
-1.24115 15.42637 10.15432
13.21208 15.00566 14.71468
14.47441 16.20364 14.94373
-2.5436 15.13162 10.46346
13.2167 15.55037 14.95935
14.82856 15.49867 14.40817
13.79692 13.79728 13.74583
-1.476615 14.91498 9.791691
13.5021 14.65049 14.02702
14.73512 15.35188 14.36688
13.56658 16.17298 15.01812
-0.5612069 14.81865 9.980251
13.18374 15.07664 14.27815
15.15038 15.29965 13.05586
13.81316 13.82325 13.68592
-2.87014 15.16174 9.98664
14.84376 16.16215 13.84204
14.71235 15.16486 13.91216
13.41869 13.503 12.90706
-0.1641872 15.03697 9.968919
13.62593 14.51702 13.50874
14.98525 16.18452 13.2641
15.45655 15.28517 11.87208
12.54995 13.46608 12.10558
13.77142 14.29988 13.55903
14.36066 16.54424 14.01006
14.93245 15.04779 13.20394
13.74096 13.65035 13.04012
12.9 15.47557 13.97273
13.15696 15.16311 13.7573
15.45891 15.53192 11.76579
13.72261 16.35185 14.67382
12.94315 14.46407 13.27688
13.18002 15.60179 14.19176
14.67392 16.54551 13.36026
14.58049 14.96784 13.27272
13.46216 13.48165 12.43041
12.71661 13.63705 12.31993
13.4973 14.68286 12.69052
14.67411 16.56146 13.30435
15.29502 16.10169 12.08349
15.62734 15.24446 11.14694
13.01285 14.35266 13.1393
13.35432 15.82166 13.97812
14.35851 15.0476 13.33657
15.65744 15.29882 10.93167
15.46105 14.83848 11.56965
12.97554 13.60289 12.16785
12.7939 14.70454 13.12641
13.53868 15.86586 13.75751
15.18963 16.33185 12.18243
15.17008 14.55943 11.5657
12.6469 13.4722 11.15653
13.61874 16.38404 13.65436
14.16976 15.2188 12.84698
15.36652 16.45961 11.32018
13.85411 13.76681 12.39211
13.46085 16.20797 13.51342
13.54838 14.66491 11.98432
15.09426 16.58513 11.97194
14.68469 14.57536 11.62719
12.94133 13.47793 11.12128
13.23696 15.91659 12.58164
13.61424 14.59998 11.79572
14.10746 16.74766 13.09506
14.55904 14.64287 11.65213
12.87936 13.30991 11.10074
13.66312 16.54412 12.42849
13.14393 15.34785 12.36894
14.6615 16.78541 12.49684
14.46835 14.71325 11.7037
12.98757 13.65566 11.24202
13.06912 15.67022 12.28774
13.14415 15.37063 12.28051
15.7177 15.32472 10.72656
13.65589 13.55721 11.57943
13.77921 16.62453 12.8109
13.30092 14.99087 11.86149
14.12478 15.40147 11.94518
15.05348 16.9412 11.11977
12.9551 13.84709 11.30043
13.26919 15.94814 12.08359
13.19588 15.7438 12.72217
15.70522 15.53691 10.52586
15.35111 14.2469 10.58012
12.75953 14.80691 12.08977
13.63906 14.64779 10.83391
14.17782 15.26579 11.38983
14.79982 17.02067 11.28723
12.85761 14.39659 11.78758
12.77671 15.13099 12.17283
14.01431 15.76861 11.9032
14.50649 14.54767 10.50261
12.77613 15.08647 12.01638
12.9503 15.42176 11.61444
13.18693 15.68306 11.84778
14.83669 17.12199 10.75377
12.83221 13.54007 10.47126
13.17255 15.57183 11.55338
14.14643 15.58583 11.15754
14.81523 14.24756 10.32392
13.91815 16.82908 11.67592
13.65636 16.57126 10.98212
13.25173 15.83362 11.59729
14.58068 17.14761 10.80784
12.76722 14.85905 11.61188
13.76894 14.01041 10.71941
14.27576 15.16194 10.32653
13.56606 13.7232 10.50445
12.98287 15.4175 11.10029
13.60346 15.03321 9.803432
14.76754 17.23057 10.22003
12.95121 13.81825 10.11054
13.17142 15.69289 10.38502
13.45356 15.17825 10.07233
14.58637 17.18056 10.56967
13.5355 16.38318 10.09855
13.71887 14.11188 10.17936
14.73626 17.27294 9.970131
13.50348 16.32429 9.911016
13.74966 14.44855 9.853457
14.66247 17.27481 9.934425
13.35762 16.0418 9.993261
13.31089 15.91356 11.01103
13.7578 16.18302 10.90001
13.49258 16.30085 9.722955
13.71464 14.5675 9.421352
14.25958 15.7537 9.745841
13.74706 16.72578 9.549436
13.70728 15.15918 9.193316
13.41828 13.99994 9.857923
13.4156 16.04678 9.035501
13.61059 15.52541 9.07672
12.93361 14.76172 9.509735
13.10983 15.31787 9.23749
14.2612 15.89866 9.55177
13.60806 14.71197 9.06069
13.32095 14.26283 9.529678
13.61288 14.8917 8.843176
13.31036 15.53072 8.499702
13.84778 16.29715 9.795259
13.50795 16.12323 9.158389
13.42371 15.19801 8.468972
13.62096 16.34672 9.290592
13.36313 15.82477 8.358935
13.43698 15.83905 8.112707