####
#
# OBJ File Generated by Meshlab
#
####
# Object border.obj
#
# Vertices: 553
# Faces: 297
#
####
mtllib ./border.obj.mtl

vn 0.085735 0.002583 0.359501
v 44.448238 5.399692 18.900812
vn 0.269212 -0.220865 2.921638
v 44.681622 5.403999 18.860851
vn 1.215723 -0.278410 2.559677
v 44.206532 5.379598 18.976828
vn 0.412196 -0.351016 2.906195
v 44.647560 5.366542 18.861158
vn 0.089950 -0.485483 2.880049
v 45.121227 5.406853 18.846239
vn 0.016236 -0.034333 0.339712
v 44.875919 5.367572 18.847279
vn 0.967527 0.292205 2.857810
v 44.269676 5.420413 18.951277
vn -0.119320 -0.084581 2.501197
v 45.748741 5.412201 18.827225
vn 0.191082 0.690242 0.448652
v 43.972736 5.430637 19.104757
vn -0.024253 -0.029722 0.617111
v 45.687740 5.374115 18.823027
vn 0.306918 1.842444 0.793688
v 43.897949 5.448660 19.091839
vn -0.269891 -0.280806 2.786211
v 46.331264 5.414420 18.863779
vn -0.030148 -0.028647 0.356360
v 46.198612 5.376709 18.847486
vn -0.136717 -0.189674 1.483112
v 47.039169 5.413726 18.945189
vn -0.365592 -0.772703 3.019185
v 46.570259 5.377106 18.883169
vn -0.150947 -0.214278 1.620640
v 47.040237 5.376276 18.940498
vn 0.153897 0.222921 0.278380
v 43.787659 5.412241 19.219030
vn 1.492970 -1.044894 2.153314
v 43.608906 5.362168 19.318668
vn -0.022087 -0.012563 0.167727
v 47.769646 5.375434 19.007629
vn -0.327001 -0.113950 2.196790
v 48.084446 5.412155 19.056393
vn -0.807971 -0.041324 2.471987
v 48.419163 5.408990 19.157898
vn 0.952074 -1.112092 2.111128
v 43.227337 5.159681 19.456762
vn 0.207424 -0.211782 0.409443
v 43.338371 5.190865 19.423115
vn -1.178631 -0.146313 2.479252
v 48.604832 5.406438 19.236609
vn -0.152261 -0.042732 0.895831
v 48.121025 5.374216 19.059870
vn -0.273722 -0.303536 0.984001
v 43.052891 4.995096 19.448734
vn -0.239841 -0.020051 0.631841
v 48.492538 5.373655 19.181290
vn 0.007410 0.671256 0.480631
v 49.056850 5.329261 19.391569
vn -0.059824 0.158230 0.248468
v 48.804424 5.376334 19.329718
vn -0.146602 -0.094661 0.353674
v 42.609142 4.984163 19.261869
vn 0.495489 1.105654 2.258210
v 49.262333 5.219671 19.459068
vn 0.863002 0.614002 0.300719
v 49.861252 5.110715 19.225199
vn 0.086907 -0.099057 0.269967
v 49.871971 5.066718 19.260578
vn 1.475077 1.040273 0.464681
v 49.876595 5.065328 19.273838
vn -0.692413 -0.724816 1.791007
v 42.964157 4.844442 19.371630
vn 0.039712 1.842825 1.376893
v 49.002888 5.311372 19.417385
vn 0.014915 -1.355775 0.824603
v 43.062160 4.751066 19.209362
vn -0.057153 -1.106745 0.602351
v 42.998444 4.738315 19.179888
vn 0.450931 1.769097 2.562575
v 49.198643 5.205886 19.479792
vn 0.471742 -0.147914 0.884739
v 50.017002 4.923143 19.161209
vn 2.215439 0.361350 1.371032
v 49.948242 4.911737 19.179159
vn 0.899435 0.543825 -0.201575
v 49.959763 4.897690 19.192669
vn 0.089706 -0.066868 0.223632
v 49.898849 4.895178 19.226049
vn 2.136875 0.209364 2.253788
v 43.270981 4.725646 18.997019
vn 2.081617 0.196730 2.165009
v 43.265778 4.691350 19.005138
vn 0.786805 -0.818262 2.065216
v 49.435318 4.916075 19.418234
vn 0.339150 -0.099173 0.953360
v 49.367619 5.067293 19.490606
vn 0.494529 0.026292 0.735561
v 43.976002 4.625164 18.380423
vn 0.102685 -1.188802 0.753895
v 49.382973 4.781134 19.212578
vn 0.022804 -1.202780 0.845073
v 49.314556 4.791152 19.237694
vn -1.146879 0.094430 1.114309
v 49.098782 4.741092 19.016178
vn -1.125628 0.093114 1.075407
v 49.103653 4.706992 19.024229
vn 1.194266 0.059657 1.799016
v 44.002739 4.588036 18.363905
vn 0.642083 0.129981 1.248550
v 44.234810 4.581730 18.212978
vn -1.080874 0.083914 1.264534
v 48.892563 4.679325 18.844009
vn 0.792805 0.149412 1.509796
v 44.233120 4.619366 18.209929
vn 0.861756 0.020394 2.170738
v 44.495747 4.586133 18.079683
vn 0.336148 0.020184 0.807452
v 44.454666 4.622710 18.095648
vn -1.744223 -0.289490 2.157467
v 48.338322 4.694145 18.390388
vn 0.061624 0.010706 0.153336
v 44.933144 4.639667 17.905539
vn -0.905077 0.061983 1.061145
v 48.884689 4.715049 18.834908
vn 0.802898 0.251075 1.974992
v 45.332649 4.610360 17.746853
vn 0.373074 0.122058 0.985793
v 45.356968 4.647398 17.732258
vn 0.286559 0.136509 1.296943
v 45.596401 4.612961 17.682980
vn 0.053056 0.127492 2.950588
v 46.097511 4.617944 17.614944
vn 0.364510 0.172427 1.679788
v 45.592064 4.650482 17.679989
vn -0.256943 -0.045005 0.371122
v 48.239365 4.735266 18.315903
vn -1.307522 -0.260645 2.602878
v 48.051579 4.675746 18.215611
vn 0.062185 0.133382 3.082565
v 46.096447 4.656203 17.613310
vn -0.027025 0.011041 0.203918
v 46.390446 4.651828 17.641418
vn -0.647330 0.227657 2.876856
v 46.871628 4.607556 17.739698
vn -0.069021 -0.001602 0.162007
v 47.525703 4.642441 17.948109
vn -0.686435 0.241186 3.047570
v 46.872696 4.645205 17.736959
vn -0.779890 0.066759 2.002376
v 47.223503 4.601694 17.831766
vn -0.148006 0.314104 -0.074075
v 52.834343 5.082680 17.446512
vn 2.132694 1.245724 -0.795401
v 52.745090 4.980015 17.046410
vn -1.746030 2.004925 -0.325024
v 52.847862 5.079292 17.352989
vn 0.552483 0.397341 -0.218188
v 52.754471 4.916015 16.971329
vn 1.850980 1.822838 -0.810945
v 52.705242 4.894320 16.810198
vn -0.344922 0.035913 0.923781
v 47.193802 4.639726 17.818930
vn -1.295482 0.358668 0.175555
v 52.785736 4.979838 17.073244
vn 0.560992 -0.271630 0.225392
v 53.686802 5.163728 17.962879
vn 0.155113 2.056947 0.386594
v 53.663010 5.208295 17.735298
vn -1.297872 0.294031 0.199982
v 52.790333 5.044274 17.008339
vn -1.978155 0.855757 -0.138732
v 52.756741 4.924210 16.878149
vn -1.317206 0.465299 0.021364
v 52.744328 4.902106 16.918797
vn 0.883937 -1.368870 0.212041
v 53.620132 5.095929 17.803118
vn 0.208822 0.270140 -0.107234
v 52.708408 4.763509 16.523388
vn 1.275719 2.008718 -0.742613
v 52.664173 4.728285 16.352119
vn -0.346484 0.065088 0.007865
v 52.714516 4.770580 16.532574
vn 0.302200 0.931401 0.238540
v 53.867249 5.221025 17.585619
vn 0.036421 0.369812 -0.119401
v 52.691582 4.683520 16.278118
vn 0.667499 0.640346 -0.333918
v 52.587563 4.654832 15.967948
vn 0.566537 -1.155443 0.093867
v 53.842590 5.213522 17.634899
vn -2.677016 0.275305 0.147085
v 52.707291 4.762319 16.416538
vn 0.317831 0.531562 0.175922
v 53.839382 5.311073 17.363878
vn 0.248674 0.420726 -0.254282
v 52.690620 4.595349 16.059889
vn 0.390239 -0.990303 0.035270
v 53.766113 5.175636 17.417309
vn 1.447318 0.400838 0.578924
v 53.920731 5.237360 17.439638
vn 1.069729 1.144881 -0.427969
v 52.509720 4.592379 15.584628
vn 1.242791 1.253865 -0.566278
v 52.655552 4.568811 15.938897
vn 1.737094 1.925652 -0.635504
v 52.656422 4.495727 15.692758
vn -1.076984 -0.633826 0.327664
v 52.691875 4.521638 15.738857
vn 1.815264 2.211016 -0.692046
v 52.591003 4.491932 15.536588
vn 0.192261 0.679751 0.025664
v 49.945473 6.123901 -0.119926
vn 0.355037 0.513590 -0.109562
v 52.518631 4.507388 15.374518
vn 0.145696 1.753310 -0.021955
v 49.776230 6.166059 -0.647403
vn -0.221350 2.204659 -0.246359
v 49.555313 6.161583 -0.545225
vn -0.133113 0.384310 0.001938
v 49.123093 6.043151 -0.157721
vn -2.369237 -0.881368 0.193106
v 52.673019 4.608683 15.904799
vn 0.903792 1.567610 -0.285326
v 52.677143 4.420620 15.481439
vn 0.848093 2.960541 0.112331
v 49.972500 6.135945 -0.641402
vn -0.481957 1.736892 -0.056297
v 49.345455 6.122666 -0.652597
vn 0.185873 0.411702 -0.060885
v 52.554222 4.429594 15.166858
vn -2.105609 -1.464370 0.651490
v 52.631382 4.570991 15.663678
vn -0.436041 -0.286132 0.163024
v 52.591152 4.699290 15.781259
vn 0.887548 1.627153 -0.026666
v 50.144535 6.061375 -0.630983
vn -0.284266 2.916896 -0.325143
v 49.567112 6.148683 -0.671268
vn 0.870888 2.398908 -0.319873
v 52.734909 4.374405 15.345285
vn -1.344654 -1.166716 -0.173197
v 52.731716 4.401791 15.371267
vn 1.286088 1.433325 -0.240365
v 50.291794 5.960293 -0.514865
vn 0.119516 0.756213 -0.075342
v 52.680721 4.360413 15.118888
vn -1.118740 -0.842258 0.240693
v 52.571190 4.622042 15.562549
vn -0.398316 1.024736 -0.285363
v 52.811642 4.348237 15.204358
vn -0.314016 0.738995 -1.095817
v 48.954002 5.962533 -0.688733
vn -1.606648 -1.308281 0.029822
v 52.660316 4.478101 15.473113
vn -0.515272 1.470096 -0.107674
v 49.141357 6.052121 -0.682005
vn 0.650950 0.566055 -0.198874
v 50.398876 5.834307 -0.627897
vn 2.002243 2.231664 -0.374229
v 50.281033 5.948917 -0.640279
vn -0.597126 -0.502790 -0.041896
v 52.601673 4.558564 15.343297
vn -1.015542 -0.909071 -0.194620
v 52.709492 4.456577 15.231328
vn 2.251379 0.778153 -1.144927
v 50.534492 5.572914 -0.593871
vn 1.874568 0.921645 -1.223825
v 50.480442 5.707749 -0.598269
vn 0.220313 0.194269 -0.010355
v 50.710213 5.193599 -0.079679
vn 1.071301 0.262568 0.845146
v 54.308945 5.353412 16.374355
vn -0.373038 0.892525 -1.416450
v 48.970154 5.944443 -0.705561
vn 0.202712 -0.002736 -3.010594
v 48.783234 5.848846 -0.718060
vn 0.168387 0.226432 -0.012461
v 50.812790 5.083259 -0.077701
vn 0.837065 0.513930 -0.123406
v 50.632851 5.307704 -0.491920
vn 0.710516 0.301432 -0.416528
v 50.493008 5.642620 -0.628069
vn -0.988606 -0.325097 0.278261
v 39.056816 4.939676 16.258575
vn 0.002696 0.001218 -0.062879
v 48.264641 5.496291 -0.752658
vn 1.868801 1.475190 -0.152593
v 50.698845 5.180038 -0.575952
vn 0.493102 -1.576950 0.599031
v 54.303253 5.227277 16.421125
vn 1.216915 2.089670 -0.090585
v 50.920849 4.974297 -0.597472
vn 1.271259 0.754545 -0.222360
v 50.623325 5.295392 -0.607809
vn 0.024929 0.051380 -1.311853
v 47.883732 5.289287 -0.768004
vn -0.052023 0.266181 -0.100543
v 46.816353 4.924479 -0.774716
vn -0.252317 1.332663 -0.517164
v 46.590103 4.888729 -0.756455
vn -0.997383 -1.110347 0.168951
v 38.853836 5.208714 16.226828
vn -0.846360 -2.379107 0.167862
v 38.651718 5.273606 16.188873
vn -0.078072 -1.836722 0.332035
v 39.781155 3.386869 12.949628
vn -0.026202 -0.855052 0.164270
v 53.882954 5.166176 16.362982
vn 1.898315 2.131160 -0.115893
v 50.799965 5.064898 -0.584653
vn -0.276638 2.767170 -0.726995
v 46.357864 4.861651 -0.757305
vn -0.067624 2.828314 -0.480294
v 45.889324 4.830186 -0.754772
vn -1.778462 -0.138063 0.352973
v 39.040504 4.947817 16.210133
vn 0.059654 -1.999050 -0.195770
v 39.810997 3.377402 12.755441
vn 0.090934 -0.574298 0.169682
v 54.157284 5.155951 16.353516
vn 0.034486 0.071871 -1.840515
v 47.893459 5.278976 -0.768223
vn 0.126359 0.284429 -0.009485
v 51.091812 4.915764 -0.075140
vn 0.024971 0.104224 -3.025027
v 47.687134 5.191995 -0.772923
vn 0.129979 2.790914 -0.629407
v 45.419277 4.837407 -0.752031
vn -0.306907 1.521482 -0.558555
v 47.042519 4.978151 -0.752786
vn -0.281101 1.545444 -0.583604
v 46.593456 4.877175 -0.787864
vn -0.016096 0.264452 -0.056846
v 46.123497 4.830116 -0.788155
vn -0.416742 0.952322 0.622648
v 38.319981 5.808244 15.900831
vn -0.976585 -1.283470 0.168774
v 38.851376 5.200356 16.157377
vn -0.590387 1.092003 -0.258751
v 38.889858 4.865817 16.207796
vn -0.828247 2.292665 -0.381117
v 38.688690 4.794652 16.141775
vn -0.310487 -0.337054 -0.037176
v 39.632168 3.419228 13.093597
vn -0.293904 -0.086020 -0.035933
v 39.753765 3.401144 12.495567
vn 0.662008 -0.621801 0.111709
v 53.233448 5.081355 15.977290
vn 0.677512 -2.054979 0.076857
v 53.336411 5.161537 16.081787
vn -0.076919 -2.149051 0.364286
v 53.931183 5.152993 16.302055
vn 0.816120 -0.796744 0.767138
v 54.347717 5.220438 16.366520
vn 0.088050 0.316815 -0.006167
v 51.258232 4.864971 -0.074701
vn 0.307941 2.656601 -0.637848
v 44.954926 4.877057 -0.745856
vn -0.250682 1.244582 -0.479813
v 47.050678 4.968250 -0.784239
vn -0.548797 -0.359073 0.128951
v 39.002682 5.074555 16.223829
vn -1.066237 0.006143 0.276502
v 38.390198 4.545117 15.974729
vn -0.933366 -0.817676 0.309273
v 38.281673 5.502061 16.067650
vn -0.008879 -1.571285 0.060959
v 39.716446 3.367530 12.827435
vn -0.692081 0.599350 0.240753
v 53.555672 5.584330 15.866368
vn -0.123840 -1.337036 -0.107008
v 53.518250 5.200106 16.191278
vn 1.638460 1.877311 0.489221
v 54.244644 5.508801 16.274509
vn -0.288599 0.246318 -0.059629
v 53.073551 4.167738 14.346508
vn 0.054094 -0.028568 -2.986783
v 47.480553 5.106945 -0.777780
vn 0.052038 0.335962 -0.007644
v 51.435322 4.840466 -0.076019
vn 0.976464 2.639991 -0.071649
v 51.075665 4.905556 -0.596362
vn 0.002948 0.001122 -0.200343
v 47.558319 5.119328 -0.776490
vn 0.630170 2.682300 -0.511610
v 44.505489 4.967703 -0.737206
vn 0.980640 2.473163 -0.463854
v 44.289299 5.033356 -0.731108
vn 0.388782 1.232314 0.364317
v 38.753326 6.024276 15.567375
vn -0.355724 -0.483216 0.106074
v 38.414680 5.349182 16.064865
vn -1.976097 0.982303 -0.846019
v 39.709595 3.442854 12.940178
vn -0.635463 0.396267 -0.158049
v 39.722862 3.367489 12.821684
vn -1.887069 1.490001 -0.025053
v 39.778008 3.434587 12.658498
vn -0.427631 0.912598 0.186558
v 53.705452 5.648661 15.981769
vn 0.424706 0.500805 -0.905825
v 52.249763 4.036307 12.784848
vn 0.613424 2.745877 -0.057450
v 51.248142 4.857626 -0.596091
vn 0.050341 0.338486 -0.076664
v 44.827927 4.884592 -0.775786
vn -0.015234 0.224215 -3.018264
v 43.543056 5.431851 -0.729111
vn -0.228506 2.445594 0.880939
v 38.585300 5.995906 15.687348
vn 0.743778 0.875674 0.429774
v 38.908867 5.994798 15.444488
vn -0.756543 1.525713 -0.336739
v 38.916893 4.864157 16.139105
vn -0.787150 1.048061 -0.179531
v 38.503128 4.689747 16.029558
vn -2.391329 0.000699 0.442014
v 38.231621 5.665744 15.993064
vn -0.070355 -1.988517 -0.160837
v 53.554508 5.202183 16.123365
vn 0.289634 1.108159 0.092538
v 54.083912 5.617633 16.183588
vn -1.776035 -0.847357 0.242671
v 52.664402 4.582788 14.705414
vn 0.003167 0.267942 -0.053067
v 45.648140 4.819204 -0.785484
vn 0.021781 0.268504 -0.062503
v 45.187286 4.841577 -0.781449
vn 0.111994 0.258065 -0.063666
v 44.080879 5.112877 -0.747744
vn 0.635925 1.356030 -0.409451
v 43.890873 5.211613 -0.715849
vn 0.588050 1.255969 -0.402513
v 43.883125 5.205650 -0.747631
vn -0.014482 0.240282 -2.973924
v 43.393509 5.554211 -0.718797
vn 0.157390 0.328147 0.005242
v 42.632141 6.247115 -0.162597
vn -0.260405 2.749699 0.993315
v 38.537643 6.012570 15.628725
vn 1.136590 0.878883 0.151801
v 39.146519 5.843904 15.193418
vn -1.099981 2.968293 -0.500607
v 38.706879 4.789573 16.071693
vn -1.514146 -1.958812 0.950230
v 38.444229 4.278556 15.764864
vn 0.134122 -0.295456 0.003916
v 49.627403 4.735041 -0.565321
vn -0.295930 0.240902 0.103465
v 53.443031 5.529044 15.680198
vn -2.518512 1.443172 0.901084
v 53.343262 5.422131 15.572577
vn -0.036169 1.178061 0.052939
v 53.893673 5.670095 16.083269
vn 1.073430 0.418801 0.725270
v 54.370201 5.357134 16.295551
vn 0.160010 0.513688 -0.997453
v 52.090508 3.951883 12.663504
vn -1.030867 0.137246 -0.002947
v 52.616821 4.830479 14.931508
vn 0.243360 1.701226 -0.011081
v 51.430405 4.829365 -0.597394
vn -0.868847 1.356375 0.848437
v 38.269753 5.818069 15.852186
vn -1.438297 -1.046155 0.442935
v 38.282093 5.475921 15.999807
vn -1.093585 1.570436 -0.272354
v 38.516289 4.693796 15.995491
vn 0.100142 -0.308858 0.007778
v 49.947941 4.866598 -0.554101
vn -0.754018 1.882209 0.338166
v 53.725571 5.672709 15.910249
vn 2.345229 -0.044796 0.037040
v 53.176033 4.856183 15.728108
vn 1.860444 2.343873 0.553390
v 54.264732 5.508156 16.209707
vn 0.022242 1.947547 0.098350
v 53.921436 5.673827 16.019188
vn -0.189217 0.264387 -0.056175
v 53.051338 4.080378 14.093144
vn -2.101216 1.272115 -0.239606
v 53.090496 4.163648 14.247600
vn 0.864764 0.970307 -0.379985
v 52.309273 3.979439 12.908870
vn -0.008657 0.422560 -0.855281
v 51.943027 4.047799 12.712385
vn -0.265077 1.112787 -0.201936
v 52.860027 3.986317 13.825942
vn 0.058540 2.806600 0.451922
v 51.610592 4.822403 -0.577498
vn -0.001138 0.018029 -0.230461
v 43.447567 5.480609 -0.725007
vn 0.092836 0.135020 -0.100573
v 42.885643 6.055855 -0.675793
vn 0.937874 0.559690 -0.141303
v 39.206013 5.729293 15.058137
vn 0.493804 0.446254 0.136774
v 39.041245 5.966180 15.273701
vn -2.843454 0.260129 0.476108
v 38.218586 5.652292 15.922565
vn 0.535812 -0.882792 -0.074271
v 49.493992 4.637369 -0.979590
vn 0.901295 -2.317435 0.044572
v 49.790600 4.802263 -1.083027
vn -0.015760 0.036199 -0.021080
v 53.185013 5.268819 15.375818
vn 0.933657 -3.056004 0.043559
v 53.396481 5.178995 16.019043
vn 0.574531 1.886863 0.179725
v 54.107742 5.616802 16.118954
vn -0.792873 0.737452 -0.106806
v 52.685780 4.960539 15.050061
vn -1.825421 -1.558386 -0.036914
v 52.738262 4.467363 14.592278
vn 0.165056 0.510532 -0.096488
v 44.374783 4.992786 -0.766695
vn 1.415930 2.035472 -1.261081
v 42.759090 6.169926 -0.633767
vn -0.397127 0.423349 0.039719
v 41.599918 6.176924 -0.096496
vn 0.099701 0.674204 0.032767
v 42.280968 6.366482 -0.105962
vn 1.036060 2.004796 -1.920527
v 39.212162 5.631590 14.886828
vn 0.822641 1.640710 -1.042971
v 39.245617 5.404971 14.667837
vn 0.172961 -2.410188 0.508750
v 38.704487 4.160718 15.522529
vn 0.410436 -1.121097 -0.008013
v 39.001404 4.221991 15.255158
vn -1.715727 0.146303 0.394775
v 38.373314 4.571604 15.909033
vn -0.613038 -0.248351 0.251942
v 38.352333 4.412874 15.831653
vn -0.157535 -0.716509 0.212444
v 38.524807 4.182477 15.594767
vn 0.895802 -0.953126 -0.522631
v 49.041111 4.158165 -1.096916
vn 0.551284 -1.895313 0.045029
v 49.959110 4.857074 -1.076106
vn -1.499296 1.473490 0.533762
v 53.561954 5.618925 15.798303
vn 0.905259 0.891829 -0.274460
v 53.303619 4.653096 15.481168
vn 0.711203 0.372863 -0.056462
v 53.205864 4.775272 15.555738
vn 1.503467 -1.660595 0.282756
v 53.269604 5.107029 15.905931
vn -0.573537 4.396009 -1.344805
v 52.905540 3.995093 13.814559
vn -1.076694 0.559892 -0.555389
v 52.196823 5.064254 -0.604063
vn 1.217140 1.308417 -2.408227
v 52.838364 5.081007 15.098578
vn -0.131903 -0.253798 0.109477
v 52.986046 4.271285 14.371286
vn -0.294708 1.151037 -0.452382
v 51.791092 4.834864 -0.581264
vn -0.387730 1.670145 -0.576590
v 51.796627 4.824114 -0.612222
vn 0.765957 1.538559 -0.057847
v 42.607235 6.266813 -0.647886
vn -0.553620 1.971028 -0.153184
v 41.887341 6.367082 -0.505230
vn 0.430523 1.728301 0.512597
v 38.719799 6.048432 15.521445
vn -0.177692 0.604360 0.320077
v 38.386169 5.933503 15.753551
vn 1.272791 1.917644 -0.099839
v 39.425068 5.196535 14.451913
vn -1.495656 -2.204062 0.936875
v 38.405010 4.278957 15.703197
vn -0.159613 -0.710307 -0.014588
v 43.128258 4.327227 -0.602904
vn 1.009848 -1.187507 -0.582342
v 49.366493 4.532122 -1.079625
vn 0.884594 -1.398723 -0.177148
v 49.485218 4.641987 -1.097778
vn 0.340005 -2.164246 0.039061
v 50.137814 4.886535 -0.999288
vn 1.367883 2.224211 -0.216570
v 53.604248 4.424505 15.124288
vn 0.648339 0.965002 -0.167201
v 53.405472 4.570239 15.351508
vn 1.359688 1.056267 -0.742752
v 52.532352 3.915878 13.309955
vn 1.088784 0.446324 -0.243705
v 52.383305 3.948653 13.060205
vn -1.166774 0.144256 0.273302
v 51.974541 3.940109 12.800427
vn -0.746249 -0.112516 0.046298
v 52.603710 4.728536 14.770150
vn -0.615853 0.979689 -0.549738
v 51.956013 4.876732 -0.587062
vn 2.225068 0.935646 0.888731
v 40.414421 4.877235 13.628693
vn 1.173547 1.193776 0.628827
v 40.300747 4.984954 13.756471
vn -0.092518 1.816999 0.019439
v 42.074619 6.399729 -0.620239
vn 0.457480 3.059664 0.148539
v 42.263927 6.394403 -0.628606
vn 0.226172 -2.887600 0.593567
v 38.652260 4.143877 15.460501
vn -0.019923 -0.118219 -0.107763
v 39.187721 4.408644 14.908604
vn -0.807187 -1.913738 -1.988742
v 39.088795 4.286784 15.066020
vn 1.234679 -1.996843 -1.233255
v 48.765800 3.925699 -1.107296
vn 2.068459 -1.760304 -0.809398
v 49.257713 4.412159 -1.085241
vn -0.000304 -0.798790 -0.285430
v 50.504372 4.891911 -1.038854
vn 3.035308 0.053401 0.119077
v 53.177784 4.896134 15.665558
vn 0.736165 -0.333153 0.025199
v 53.199314 5.010741 15.786518
vn -0.008124 0.140036 -0.054559
v 53.040684 4.059140 13.958826
vn 0.735556 2.417106 -0.925850
v 52.706894 3.931340 13.561158
vn -0.856293 0.781065 -0.548835
v 52.091812 4.957171 -0.594594
vn -1.198191 1.197572 -0.249025
v 52.717136 4.984837 14.985058
vn -1.127620 -0.665691 0.104777
v 52.654968 4.576268 14.613603
vn -0.839426 1.434394 -0.776796
v 51.964664 4.865000 -0.617661
vn -0.416642 0.057110 -0.705958
v 39.969639 4.095584 12.715208
vn 1.210867 -1.128377 1.110278
v 40.438614 4.638353 13.373801
vn -2.171566 2.250084 0.213875
v 41.576218 6.203541 -0.617159
vn -2.136293 1.184838 -0.684850
v 41.273926 5.543435 -0.614630
vn -0.806400 2.877874 -0.223631
v 41.889347 6.357867 -0.631050
vn -0.932377 1.637976 0.040785
v 41.714031 6.299263 -0.614195
vn 0.884042 1.480777 0.631756
v 40.145519 5.065664 13.890174
vn 1.085309 1.444385 0.657162
v 38.893047 6.029084 15.402008
vn 1.448668 0.915790 -0.283514
v 39.173592 5.772166 15.012765
vn 0.384975 0.766384 -0.502160
v 39.222813 5.416612 14.668163
vn 0.246321 0.390945 -0.067667
v 39.296131 5.285658 14.519987
vn 1.210567 -2.561091 -1.251340
v 39.368797 4.683578 14.587278
vn 0.905478 -0.906635 0.121891
v 39.484264 4.832119 14.487799
vn -0.072475 -0.316095 -0.001198
v 41.824001 5.145408 -0.524082
vn -0.688037 -3.054948 -0.062717
v 43.119629 4.339955 -1.128222
vn -1.064541 -1.973936 -0.812451
v 42.755165 4.481465 -1.091053
vn -0.060234 -0.077122 -0.080388
v 42.217857 4.899443 -1.051180
vn 0.329918 -0.956697 -0.049894
v 48.591892 3.825875 -1.015907
vn 0.969690 -1.952911 -0.027054
v 49.631844 4.730134 -1.087699
vn 2.052687 1.363630 -0.186814
v 53.810535 4.179640 14.858793
vn -2.446101 -3.584218 0.799951
v 53.021702 4.210184 14.272597
vn -1.723810 0.103000 0.488960
v 51.962730 3.882220 12.780559
vn -2.338507 -1.995491 -0.046808
v 52.712448 4.499037 14.531627
vn -1.940923 0.463027 -0.039401
v 52.621552 4.864569 14.864223
vn -1.195292 1.156593 -0.790709
v 52.102688 4.947320 -0.625582
vn 0.348335 -2.390803 -0.509711
v 40.178001 4.142541 12.713358
vn 1.339982 -1.238563 -0.343965
v 40.315926 4.204937 12.831594
vn 0.657481 -0.893388 0.459877
v 40.351112 4.403701 13.080790
vn 0.557224 -0.175565 0.326566
v 40.484684 4.778452 13.465940
vn -2.353872 0.828865 -1.294986
v 41.421898 5.945715 -0.602320
vn -1.660860 1.721659 -0.462190
v 41.193932 5.421900 -0.618856
vn 1.327726 0.968929 0.084328
v 39.125401 5.882310 15.129177
vn -0.044630 2.132453 -0.187621
v 39.552246 5.170727 14.335080
vn 0.511416 -1.594352 -0.106073
v 38.953804 4.204962 15.199546
vn 1.188927 -2.478596 -1.320265
v 39.349316 4.675882 14.584183
vn 1.424584 -0.958245 0.817485
v 39.682922 4.992427 14.232318
vn -0.527353 -1.894565 0.041855
v 41.793571 5.154356 -1.044163
vn -0.149528 -1.681475 -0.101329
v 43.322098 4.311851 -1.134349
vn -0.116645 0.136271 -3.030596
v 42.472443 4.686914 -1.102524
vn -0.109384 -0.415170 -0.002476
v 46.071091 4.709631 -0.665952
vn 0.605638 -1.663756 -0.152707
v 48.582542 3.828803 -1.133875
vn 0.236203 -0.337565 -0.202560
v 48.836189 3.987389 -1.136712
vn 0.924730 -1.037847 -0.504980
v 49.353230 4.536420 -1.111389
vn 0.045595 -0.509940 0.017177
v 48.161697 3.752958 -0.738422
vn -0.166813 -0.396843 -0.004180
v 46.531197 4.553011 -0.664199
vn 1.168158 1.258204 -0.344503
v 53.257252 4.682141 15.422613
vn 0.968048 1.454019 -0.240133
v 53.358047 4.592834 15.298020
vn -0.440729 0.704444 -1.218770
v 51.941376 3.939760 12.659024
vn 0.843233 0.980506 -1.388886
v 52.267090 3.953778 12.747344
vn -0.512748 -0.137491 0.275486
v 52.065811 3.884823 12.973718
vn 0.071398 0.418657 -0.161377
v 52.833546 3.928275 13.653777
vn -0.198673 0.074467 -0.120951
v 52.318111 5.248707 -0.653247
vn -0.753451 0.768257 -0.801082
v 40.073006 4.138733 12.659368
vn 0.852916 2.295035 0.070909
v 42.441044 6.346312 -0.634631
vn 0.240034 1.208399 -0.092399
v 39.458519 5.167503 14.320732
vn 0.179920 -0.711246 0.051277
v 38.807785 4.150550 15.333042
vn 0.526253 -0.447068 0.177574
v 39.565849 4.890640 14.317021
vn -0.392188 -2.447856 0.009462
v 41.622036 5.193656 -1.036341
vn -1.028168 -2.069681 0.284167
v 41.952576 5.084115 -0.980442
vn 0.062837 -2.117513 -0.318029
v 43.540245 4.302371 -1.028127
vn -0.269209 -0.491521 -0.269403
v 42.719681 4.512468 -1.119884
vn -0.652811 -0.832100 -0.908826
v 42.094585 5.018538 -1.073069
vn -0.969143 -1.377440 -0.993063
v 42.086674 5.007101 -1.056169
vn 0.386666 -2.745144 -0.534650
v 45.327511 4.725942 -1.162017
vn 0.255992 -1.541715 0.012231
v 48.380707 3.759212 -1.134108
vn 1.093657 -1.148342 -0.624263
v 49.032406 4.167295 -1.128487
vn -0.295104 -2.701363 -0.984688
v 51.061073 4.823305 -1.025044
vn -0.368330 -2.214239 -0.164571
v 47.924290 3.760868 -1.029869
vn 0.432545 0.479128 -0.039856
v 53.677261 4.363655 14.960507
vn -0.486029 -0.549015 -0.019889
v 53.032059 4.204148 14.186119
vn 1.222124 1.141611 -0.467485
v 52.350861 3.935297 12.890797
vn -2.027695 -0.656707 1.088200
v 52.041832 3.835613 12.904527
vn 1.535097 0.665959 -0.375836
v 52.400558 3.894943 13.038920
vn 0.861212 0.776549 -0.500979
v 52.561707 3.880750 13.313737
vn -1.478258 0.825128 -0.780527
v 52.209503 5.057453 -0.635501
vn -0.551603 0.213323 -0.415339
v 52.433434 5.780475 -0.709107
vn -0.363835 -0.375822 -0.018838
v 52.873951 4.337776 14.361162
vn 1.737012 -1.203048 0.474475
v 40.342033 4.281894 12.944615
vn -1.169022 0.815601 -0.019525
v 41.484814 6.084939 -0.627570
vn -0.134698 1.584042 -0.426936
v 39.848373 5.160676 14.067077
vn 0.221898 0.576241 0.121194
v 40.019718 5.132678 13.909138
vn 0.788486 -0.852805 0.415099
v 39.698612 4.962460 14.169849
vn 0.471618 -2.436465 0.218294
v 39.819706 4.990755 14.107458
vn -0.031300 -0.333298 0.003738
v 41.479259 5.213010 -0.506186
vn 0.046842 -0.651115 -0.123749
v 43.754368 4.327899 -1.155792
vn -0.437330 -1.293466 -0.076203
v 42.931095 4.399292 -1.121923
vn -0.711998 -2.075071 -0.017189
v 46.320923 4.646926 -1.188814
vn -0.193196 -1.159433 -0.092176
v 45.830395 4.743210 -1.072643
vn -0.035410 -1.961858 -0.315060
v 45.574223 4.745809 -1.121384
vn 0.031480 -0.160785 -0.049341
v 43.976810 4.365091 -1.135069
vn 0.087990 -0.690145 -0.036247
v 50.253307 4.903390 -1.070711
vn -0.801833 -1.878698 -0.447136
v 47.474182 3.907005 -1.133080
vn -0.154200 -0.606860 -0.066863
v 47.689419 3.818495 -1.147171
vn 0.074802 -2.040401 0.015194
v 48.159870 3.739332 -1.138098
vn -1.535972 -1.765660 0.810565
v 52.192104 3.812083 13.138028
vn -2.130804 0.291734 -1.621837
v 52.385872 5.679585 -0.664767
vn -0.558452 0.440343 -0.465174
v 40.054703 4.223557 12.757931
vn 0.585349 -0.606623 0.505573
v 40.499973 4.620074 13.288306
vn 0.924577 0.807780 0.473637
v 40.315655 5.008689 13.683590
vn 2.674862 0.874828 0.957894
v 40.427341 4.903981 13.568188
vn -0.326108 0.162670 -0.125173
v 41.337051 5.640647 -0.643356
vn -0.343566 0.692931 -0.021283
v 40.930115 5.231115 -0.248082
vn -1.024416 0.390006 -0.112314
v 40.302826 4.666824 13.497952
vn -0.255583 -1.779658 -0.163839
v 45.833321 4.751955 -1.188775
vn -0.044174 0.037057 -1.775415
v 44.847176 4.638246 -1.185667
vn -0.006608 -2.083275 -0.744795
v 50.481209 4.903598 -1.071536
vn 0.059545 -0.066657 -3.039504
v 47.288544 4.028611 -1.173187
vn 2.413383 0.032326 -0.268454
v 53.835056 3.955064 14.606579
vn -0.311990 -0.504429 0.163509
v 52.292419 3.747958 13.188435
vn -1.821119 1.170063 -1.356006
v 52.467731 5.860475 -0.686138
vn -1.214895 -1.003338 0.941701
v 40.096897 4.333776 12.929799
vn 1.176539 -0.976535 -0.048298
v 40.361237 4.258540 12.815096
vn -0.185046 0.211451 -0.115858
v 40.067326 4.231420 12.732661
vn 1.223467 -1.459899 0.726146
v 40.422661 4.437787 13.044715
vn 0.644213 0.912489 0.415093
v 40.171936 5.087134 13.802884
vn -0.621889 0.513167 -0.184600
v 41.235092 5.453483 -0.649116
vn -1.467642 2.936526 -0.090834
v 40.951420 5.229756 -0.636250
vn -0.110823 1.435578 -0.355061
v 39.815495 5.150125 14.038303
vn 1.055895 -1.096933 0.104617
v 39.449799 4.790138 14.431567
vn 0.463011 -3.022662 0.332935
v 39.793331 4.981006 14.055628
vn -0.395623 -1.207017 0.015976
v 39.953461 4.961259 13.983928
vn 0.821759 -2.695550 -0.433432
v 40.911797 5.120179 -0.985780
vn -0.135433 -1.962022 -0.028044
v 41.442532 5.210617 -1.027097
vn 0.511521 -2.621442 -0.865353
v 43.864658 4.352172 -1.164524
vn -2.308097 1.163185 -0.176428
v 40.081711 4.351828 12.929441
vn -0.492839 -2.027152 -0.043412
v 46.085804 4.708790 -1.175015
vn -0.129953 0.214108 -3.043058
v 44.184887 4.429308 -1.172772
vn -0.034027 0.029524 -1.347326
v 44.841633 4.650132 -1.185281
vn -0.494777 -2.982420 -0.221619
v 47.928574 3.769536 -1.156082
vn -0.017480 -0.178306 -0.138451
v 51.232613 4.814469 -1.052213
vn -0.622303 -1.199360 -0.315494
v 46.744106 4.432240 -1.121568
vn 0.113456 -1.261412 0.311218
v 53.516884 3.676073 14.253168
vn 0.574692 -1.189313 0.123667
v 53.655422 3.732292 14.377438
vn 0.656666 0.185392 -0.083627
v 53.840485 4.078021 14.670191
vn 2.598349 1.674709 -0.263220
v 53.781940 4.213712 14.793300
vn -0.624208 0.818469 -0.083822
v 52.569691 5.989497 -0.607463
vn 0.110742 0.406992 -0.027048
v 40.079109 5.231468 -0.293332
vn -0.066537 0.386614 -0.009499
v 40.765686 5.175468 -0.133716
vn 0.049628 0.634533 -0.030124
v 40.415241 5.155550 -0.167856
vn 0.329033 -1.058613 -0.207557
v 40.229378 4.156238 12.669787
vn -0.459786 -1.759422 0.060313
v 39.913265 4.973773 13.933986
vn 0.047984 -2.059778 -0.224385
v 41.267521 5.198196 -0.950502
vn 0.050078 -0.760863 -0.088845
v 41.165241 5.204305 -1.028453
vn -0.742921 -1.706292 -0.083805
v 46.541306 4.554252 -1.185383
vn 0.019610 -0.146312 -0.074210
v 45.118790 4.702205 -1.191090
vn 0.097330 0.129291 -3.010908
v 51.599907 4.789968 -1.041392
vn -0.650971 -1.255974 -0.353079
v 46.757435 4.444036 -1.192702
vn 1.722464 -1.122000 -0.113474
v 53.778904 3.840891 14.496948
vn 1.047388 -0.433775 -0.085954
v 53.822857 3.908932 14.491356
vn -0.501071 -2.815544 0.099978
v 52.602623 3.723268 13.501306
vn -0.255000 0.627736 0.003544
v 52.725212 6.094095 -0.489324
vn -1.075337 1.312239 -0.233623
v 52.573841 5.980628 -0.724967
vn -0.220864 2.556355 -0.099329
v 40.586758 5.131855 -0.655448
vn 0.459977 -2.290785 -0.657614
v 40.088154 4.143737 12.646347
vn -0.706728 1.075081 -0.071477
v 41.088409 5.313410 -0.643789
vn -0.251076 -0.615708 0.045707
v 40.060234 4.923927 13.807508
vn -0.800798 -1.653247 0.219265
v 40.213451 4.843306 13.759208
vn 1.003963 -2.604044 -0.750852
v 40.574970 4.998542 -0.973280
vn 0.115173 -0.332145 -0.075406
v 40.725666 5.067457 -1.010790
vn -2.134553 -1.154012 -0.496080
v 40.284206 4.751032 13.615732
vn -1.327462 1.972275 -0.499740
v 40.213516 4.507908 13.215590
vn 0.007254 -1.026013 -0.170312
v 45.514412 4.758800 -1.195556
vn 0.015177 -0.101205 -0.100430
v 52.093292 4.819448 -1.024177
vn 0.138867 -1.069832 -0.481571
v 52.384460 4.839195 -0.984084
vn -0.346335 -0.816749 -0.271890
v 47.455757 3.923084 -1.167597
vn -0.100330 -1.797819 0.310700
v 53.217083 3.622354 14.007048
vn -0.591780 -3.012065 0.001935
v 52.680256 3.707989 13.460106
vn 0.441290 1.536429 -0.123367
v 40.099232 5.199197 -0.696531
vn 1.129978 2.185123 -1.298278
v 39.625355 5.422557 -0.713797
vn 0.204089 2.947835 -0.141245
v 40.440006 5.129685 -0.671884
vn -1.808345 0.493239 -0.203208
v 40.323025 4.707096 13.453560
vn -0.629239 0.531195 -0.174727
v 40.299381 4.609363 13.329843
vn -0.465878 0.691594 -0.136359
v 40.210285 4.476390 13.037957
vn -0.956103 1.956173 -0.037906
v 52.722500 6.094307 -0.722000
vn 0.533666 2.547139 -0.139612
v 40.263821 5.156699 -0.662125
vn 1.030747 2.415227 -0.502406
v 39.938538 5.269904 -0.686303
vn -0.664050 2.526317 -0.062673
v 40.795570 5.167797 -0.655251
vn -0.701565 -1.028227 0.020635
v 40.209843 4.834944 13.682982
vn -0.047007 -0.360591 -0.035996
v 39.083138 4.571236 -0.392346
vn 0.066272 -0.198088 -0.094335
v 40.071507 4.807557 -0.984101
vn -2.774836 -1.367103 -0.543723
v 40.277386 4.780062 13.577546
vn -1.533942 2.289886 -0.568151
v 40.282661 4.543859 13.173804
vn -0.110415 -1.236534 0.209162
v 53.229935 3.606328 13.918466
vn 0.007933 -0.667270 0.138221
v 53.408844 3.625731 14.088511
vn 0.310653 -1.837021 0.400450
v 53.560020 3.668403 14.206355
vn -0.366331 -1.872547 0.264249
v 53.035572 3.618099 13.754620
vn -0.199549 -1.031112 0.162639
v 52.968433 3.639615 13.808653
vn -0.461815 1.377316 0.156744
v 52.903370 6.167849 -0.734150
vn 0.087927 0.153440 -0.175208
v 39.480862 5.471600 -0.757015
vn -1.878438 2.345080 -0.831388
v 40.140553 4.390967 12.906892
vn 0.008674 -0.351130 -0.042617
v 39.270462 4.552781 -0.406312
vn 0.839821 -1.408568 0.115427
v 53.708912 3.751746 14.315955
vn -0.307643 1.948966 0.450361
v 53.087151 6.192021 -0.653934
vn -0.480475 2.840651 0.665406
v 53.055367 6.213190 -0.767256
vn -0.121945 -0.902851 -2.842430
v 39.179859 5.576641 -0.777466
vn -0.175687 -0.264318 -0.008459
v 38.587460 4.767805 -0.344967
vn -0.668873 -1.821741 -0.436429
v 38.820801 4.662513 -0.779597
vn -0.139615 -2.814448 -0.312532
v 39.169357 4.612858 -0.921882
vn 0.747674 -2.370584 -1.296323
v 39.908508 4.734803 -0.945068
vn 0.217985 -1.666020 -0.797994
v 52.374458 4.851837 -1.015053
vn 0.067324 0.365055 -3.018661
v 52.747742 4.932078 -0.997024
vn 0.171620 0.379500 -0.120229
v 39.853016 5.298450 -0.724532
vn -0.239195 -0.202664 0.002644
v 38.463497 4.889992 -0.359877
vn 0.052315 -1.429047 -0.211807
v 39.357971 4.619697 -0.939842
vn 1.007142 -1.878755 -0.963151
v 53.095421 5.035872 -0.945487
vn 0.106570 1.563377 0.367300
v 53.228916 6.231002 -0.779105
vn 0.036441 1.406726 0.103082
v 38.897266 5.629887 -0.782255
vn 0.028980 1.042176 0.132216
v 38.880680 5.615508 -0.665279
vn -0.385810 -1.947761 -0.272274
v 38.976318 4.636967 -0.911309
vn 0.065503 -0.273543 -0.133005
v 39.730186 4.687068 -0.960625
vn 0.427612 1.072354 0.252896
v 53.415333 6.142156 -0.555961
vn -0.954299 -1.658856 -0.156558
v 38.635109 4.753028 -0.872832
vn 0.410443 -2.605934 -1.096626
v 39.549789 4.643813 -0.925356
vn 0.269476 -0.493933 -0.310425
v 53.055096 5.031027 -0.978203
vn 0.448711 -0.600507 -0.232183
v 53.244221 5.119080 -0.952199
vn 1.185087 -1.456152 -0.505116
v 53.388042 5.192232 -0.825654
vn -1.666519 -0.470528 -0.235303
v 38.345211 5.081321 -0.715257
vn -1.821427 -2.063407 -0.026727
v 38.496193 4.844900 -0.858379
vn 0.220391 -0.175228 -0.026705
v 53.585930 5.337746 -0.391152
vn 1.432731 1.478233 0.359200
v 53.534607 6.119493 -0.812444
vn 1.058958 2.707084 0.639823
v 53.398785 6.205735 -0.797575
vn -0.464495 1.058517 0.222354
v 38.565594 5.553496 -0.549426
vn 1.432191 -1.294107 -0.282859
v 53.515007 5.329806 -0.924372
vn 0.921038 0.508688 0.168303
v 53.591091 5.974398 -0.581643
vn -0.562142 0.130685 0.107541
v 38.364483 5.221819 -0.568862
vn -1.795883 -1.144115 -0.081884
v 38.396473 4.962817 -0.841348
vn 0.323122 -0.143118 -0.025858
v 53.663673 5.493387 -0.492480
vn 2.776367 1.477741 0.502307
v 53.622925 5.996031 -0.821239
vn -0.183975 1.602579 0.276839
v 38.725979 5.634850 -0.783831
vn -1.180771 2.660710 0.559300
v 38.558456 5.601676 -0.793698
vn -0.430198 0.243975 0.107871
v 38.476116 5.482370 -0.552984
vn -2.081743 0.143590 0.178421
v 38.318245 5.228623 -0.818827
vn 1.587578 0.383236 0.054770
v 53.678196 5.867127 -0.843498
vn -2.002299 1.625279 0.531901
v 38.429638 5.508645 -0.797769
vn -1.871705 0.718318 0.408370
v 38.356556 5.384066 -0.807462
vn 2.301108 -1.425549 -0.231620
v 53.609463 5.446346 -0.909535
vn 2.161982 -0.669341 -0.229071
v 53.669781 5.578346 -0.886390
vn 1.792741 -0.019146 -0.253373
v 53.697861 5.697639 -0.755452
vn 2.933936 -0.020490 -0.412418
v 53.680698 5.723154 -0.878817
# 553 vertices, 0 vertices normals


usemtl material_0
vt -0.313218 -1.165091
vt -0.312256 -1.158858
vt -0.313348 -1.165051
f 2/1/2 1/2/1 4/3/4
vt -0.312154 -1.158957
vt -0.310417 -1.153421
vt -0.310501 -1.153276
f 1/4/1 7/5/7 3/6/3
vt -0.313646 -1.172311
vt -0.313789 -1.172301
f 2/7/2 4/3/4 6/8/6
vt -0.314494 -1.195682
vt -0.313822 -1.180090
f 10/9/10 5/10/5 6/8/6
vt -0.307974 -1.147996
vt -0.305057 -1.142676
vt -0.308069 -1.147861
f 7/11/7 9/12/9 3/13/3
vt -0.313853 -1.210906
vt -0.314382 -1.203336
vt -0.314004 -1.210935
f 8/14/8 10/15/10 13/16/13
vt -0.301903 -1.137458
vt -0.306024 -1.141251
f 17/17/17 9/12/9 11/18/11
vt -0.312649 -1.226097
vt -0.313265 -1.218509
vt -0.313415 -1.218542
f 15/19/15 12/20/12 13/21/13
vt -0.310829 -1.241019
f 16/22/16 12/20/12 15/19/15
vt -0.308698 -1.264177
vt -0.310680 -1.240985
f 19/23/19 14/24/14 16/22/16
vt -0.299205 -1.132348
vt -0.298822 -1.132074
vt -0.296659 -1.126716
f 17/25/17 18/26/18 23/27/23
vt -0.307730 -1.271616
vt -0.307590 -1.271572
f 25/28/25 20/29/20 19/23/19
vt -0.304067 -1.284849
vt -0.303927 -1.284800
vt -0.306146 -1.278500
f 27/30/27 21/31/21 25/32/25
vt -0.298946 -1.296505
vt -0.301428 -1.290694
vt -0.301616 -1.290684
f 29/33/29 24/34/24 27/35/27
vt -0.295188 -1.120892
vt -0.294522 -1.120279
vt -0.295469 -1.115119
f 23/36/23 22/37/22 26/38/26
vt -0.294698 -1.114403
vt -0.300626 -1.100331
vt -0.297148 -1.111584
f 26/39/26 30/40/30 35/41/35
vt -0.295762 -1.303132
vt -0.296508 -1.305046
vt -0.298659 -1.296635
f 36/42/36 28/43/28 29/44/29
vt -0.293689 -1.309483
vt -0.294365 -1.311570
f 39/45/39 31/46/31 36/42/36
vt -0.301790 -1.330586
vt -0.300667 -1.330926
vt -0.303822 -1.335531
f 32/47/32 34/48/34 40/49/40
vt -0.303228 -1.112692
vt -0.302366 -1.114773
f 35/41/35 38/50/38 37/51/37
vt -0.293392 -1.314988
f 47/52/47 31/46/31 39/45/39
vt -0.303252 -1.333348
f 40/49/40 33/48/33 41/53/41
vt -0.300171 -1.331361
vt -0.302823 -1.333714
f 34/54/34 42/55/42 41/53/41
vt -0.301763 -1.331780
vt -0.295677 -1.317104
f 43/56/43 47/52/47 46/57/46
vt -0.308777 -1.121180
vt -0.309035 -1.121345
f 37/51/37 45/58/45 44/59/44
vt -0.314961 -1.128067
f 48/60/48 44/59/44 45/58/45
vt -0.301351 -1.313288
vt -0.302191 -1.315400
f 46/57/46 50/61/50 49/62/49
vt -0.308426 -1.306377
vt -0.308171 -1.306532
f 50/61/50 51/63/51 52/64/52
vt -0.334025 -1.151893
vt -0.329934 -1.145543
vt -0.329825 -1.145571
f 56/65/56 48/66/48 53/67/53
vt -0.314003 -1.299840
vt -0.313893 -1.299830
f 51/63/51 61/68/61 55/69/55
vt -0.333928 -1.151946
vt -0.337653 -1.158927
f 54/70/54 58/71/58 56/65/56
vt -0.346864 -1.181687
vt -0.343689 -1.174118
vt -0.343584 -1.174151
f 63/72/63 60/73/60 62/74/62
vt -0.340649 -1.166477
f 60/73/60 58/71/58 57/75/57
vt -0.319102 -1.293449
vt -0.328930 -1.281363
vt -0.324167 -1.287327
f 61/76/61 67/77/67 59/78/59
vt -0.350755 -1.195177
vt -0.350850 -1.195039
vt -0.349506 -1.188780
f 64/79/64 66/80/66 63/81/63
vt -0.352412 -1.206956
vt -0.352508 -1.206879
f 65/82/65 69/83/69 66/80/66
vt -0.352780 -1.213287
vt -0.352075 -1.220388
vt -0.352881 -1.213256
f 65/84/65 70/85/70 69/86/69
vt -0.332862 -1.274919
vt -0.342338 -1.256432
vt -0.339315 -1.262547
f 67/87/67 72/88/72 68/89/68
vt -0.349041 -1.235699
vt -0.348954 -1.235665
f 73/90/73 70/85/70 71/91/71
vt -0.347198 -1.243189
f 80/92/80 73/90/73 71/91/71
vt -0.358106 -1.425020
vt -0.361232 -1.425411
vt -0.365928 -1.423523
f 75/93/75 77/94/77 81/95/81
vt -0.344943 -1.250057
vt -0.344843 -1.250048
f 72/88/72 80/96/80 74/97/74
vt -0.373350 -1.422445
vt -0.370966 -1.422148
f 75/95/75 78/98/78 76/99/76
vt -0.380880 -1.421467
vt -0.378466 -1.420883
f 78/98/78 88/100/88 79/101/79
vt -0.372175 -1.423584
vt -0.368888 -1.423896
f 84/102/84 86/98/86 81/103/81
vt -0.341869 -1.452047
vt -0.350202 -1.456092
vt -0.349094 -1.451292
f 82/104/82 91/105/91 83/106/83
vt -0.376309 -1.422517
vt -0.383687 -1.421735
f 85/107/85 90/108/90 86/100/86
vt -0.346941 -1.449930
f 82/104/82 87/109/87 94/105/94
vt -0.388099 -1.421057
vt -0.395360 -1.420449
vt -0.393010 -1.419579
f 88/110/88 92/111/92 89/112/89
vt -0.390965 -1.420948
f 95/113/95 92/111/92 90/110/90
vt -0.354362 -1.457895
vt -0.358481 -1.459474
vt -0.360887 -1.456891
f 91/114/91 99/115/99 96/116/96
vt -0.405208 -1.417146
vt -0.402289 -1.420418
vt -0.407077 -1.418950
f 93/117/93 97/118/97 101/119/101
vt -0.359190 -1.454565
f 94/114/94 98/120/98 99/115/99
vt -0.413945 -1.419332
vt -0.417378 -1.414675
f 101/119/101 102/121/102 100/122/100
vt -0.404989 -1.420139
vt -0.409297 -1.420235
f 110/123/110 103/124/103 97/118/97
vt -0.418903 -1.417255
f 102/121/102 104/125/104 100/122/100
vt -0.420654 -1.419990
vt -0.424049 -1.414958
f 104/125/104 111/126/111 106/127/106
vt -0.915998 -1.333260
vt -0.931871 -1.334084
vt -0.932163 -1.327815
f 105/128/105 112/129/112 107/130/107
vt -0.929501 -1.320872
vt -0.933500 -1.321244
f 108/131/108 107/130/107 118/132/118
vt -0.931676 -1.339605
f 105/128/105 117/133/117 112/129/112
vt -0.917198 -1.307149
vt -0.929835 -1.314145
vt -0.933191 -1.307740
f 109/134/109 113/135/113 127/136/127
vt -0.411135 -1.417260
vt -0.414868 -1.418537
vt -0.411887 -1.420323
f 116/137/116 115/138/115 103/139/103
vt -0.427294 -1.421613
vt -0.430642 -1.416088
f 111/126/111 119/140/119 114/141/114
vt -0.932838 -1.314314
f 108/131/108 118/132/118 113/142/113
vt -0.418079 -1.416626
vt -0.418714 -1.420368
f 123/143/123 126/144/126 115/138/115
vt -0.928537 -1.344255
vt -0.932517 -1.343919
f 121/145/121 129/146/129 117/133/117
vt -0.429451 -1.424261
vt -0.432165 -1.420104
f 119/140/119 124/147/124 122/148/122
vt -0.931351 -1.347704
f 121/145/121 128/149/128 129/146/129
vt -0.428595 -1.421017
vt -0.425471 -1.421899
f 131/150/131 124/147/124 120/151/120
vt -0.425040 -1.417594
vt -0.421778 -1.418752
f 130/152/130 120/151/120 126/153/126
vt -0.934591 -1.302293
vt -0.934589 -1.301990
vt -0.934203 -1.308188
f 136/154/136 125/155/125 127/156/127
vt -0.931185 -1.350245
vt -0.932185 -1.349926
f 128/149/128 133/157/133 140/158/140
vt -0.936087 -1.279894
vt -0.934988 -1.296359
f 136/154/136 142/159/142 137/160/137
vt -0.931045 -1.351961
vt -0.930796 -1.354807
vt -0.932046 -1.351616
f 132/161/132 146/162/146 140/163/140
vt -0.914657 -1.360797
vt -0.930501 -1.364271
vt -0.927597 -1.360406
f 138/164/138 145/165/145 154/166/154
vt -0.914720 -1.357540
vt -0.927696 -1.357279
f 134/167/134 154/166/154 143/168/143
vt -0.927808 -1.355084
vt -0.930679 -1.356905
f 139/169/139 143/170/143 146/162/146
vt -0.396116 -0.987374
vt -0.396107 -0.985797
vt -0.396155 -0.986825
f 141/171/141 180/172/180 157/173/157
vt -0.391052 -1.472162
vt -0.391151 -1.466668
vt -0.391400 -1.466872
f 176/174/176 144/175/144 159/176/159
vt -0.936581 -1.268108
vt -0.936574 -1.267800
f 142/159/142 160/177/160 147/178/147
vt -0.936207 -1.226727
vt -0.937137 -1.234132
vt -0.937199 -1.226836
f 149/179/149 148/180/148 165/181/165
vt -0.396399 -0.985639
vt -0.396951 -0.981028
vt -0.398964 -0.980960
f 180/182/180 150/183/150 168/184/168
vt -0.392584 -1.459087
vt -0.394489 -1.459996
f 159/176/159 153/185/153 175/186/175
vt -0.914576 -1.369656
vt -0.930474 -1.369194
f 161/187/161 190/188/190 145/165/145
vt -0.936091 -1.241091
vt -0.937084 -1.241251
vt -0.936151 -1.233992
f 164/189/164 179/190/179 148/191/148
vt -0.936234 -1.219353
vt -0.937207 -1.211980
f 155/192/155 165/181/165 166/193/166
vt -0.936154 -1.204477
vt -0.937126 -1.197005
f 156/194/156 166/193/166 212/195/212
vt -0.396453 -0.986679
vt -0.399768 -0.983095
vt -0.397805 -0.982323
f 157/196/157 206/197/206 169/198/169
vt -0.496468 -1.005812
vt -0.501239 -1.007381
vt -0.501039 -1.010543
f 171/199/171 183/200/183 152/201/152
vt -0.510806 -1.009245
vt -0.515455 -1.009673
vt -0.510844 -1.012258
f 183/202/183 172/203/172 158/204/158
vt -0.394599 -1.473650
vt -0.392636 -1.472579
vt -0.391300 -1.472449
f 227/205/227 135/206/135 176/207/176
vt -0.936729 -1.261838
vt -0.936730 -1.261558
f 191/208/191 162/209/162 160/177/160
vt -0.398552 -0.974060
vt -0.401982 -0.967192
f 151/210/151 195/211/195 168/184/168
vt -0.399961 -0.975696
vt -0.401911 -0.976445
f 170/212/170 206/197/206 221/213/221
vt -0.501339 -1.008271
f 196/214/196 197/200/197 171/199/171
vt -0.510283 -1.010443
f 198/215/198 172/203/172 197/202/197
vt -0.914562 -1.374940
vt -0.930474 -1.374632
f 177/216/177 201/217/201 190/188/190
vt -0.936067 -1.189553
vt -0.936993 -1.182080
f 163/218/163 212/195/212 213/219/213
vt -0.935871 -1.174810
vt -0.936877 -1.174720
f 178/220/178 213/219/213 202/221/202
vt -0.936881 -1.255247
vt -0.936885 -1.254999
f 191/222/191 179/190/179 188/223/188
vt -0.404355 -0.970327
f 170/212/170 221/213/221 233/224/233
vt -0.402252 -0.962909
vt -0.404276 -0.962762
f 182/225/182 232/226/232 195/211/195
vt -0.396930 -1.453415
vt -0.398117 -1.446696
vt -0.400056 -1.447752
f 175/227/175 185/228/185 209/229/209
vt -0.395474 -1.469758
vt -0.397544 -1.470408
f 186/230/186 227/205/227 237/231/237
vt -0.914604 -1.380562
vt -0.930480 -1.380330
f 189/232/189 230/233/230 201/217/201
vt -0.410530 -0.967381
vt -0.414096 -0.972383
vt -0.414343 -0.972109
f 283/234/283 204/235/204 219/236/219
vt -0.407260 -0.963395
vt -0.407347 -0.963894
f 283/234/283 231/237/231 167/238/167
vt -0.406841 -0.965898
vt -0.408408 -0.965454
vt -0.404992 -0.966380
f 265/239/265 266/240/266 181/241/181
vt -0.410327 -1.448054
vt -0.414021 -1.444287
vt -0.408440 -1.447591
f 270/242/270 224/243/224 184/244/184
vt -0.404769 -1.452639
vt -0.406712 -1.453335
f 199/245/199 235/246/235 270/242/270
vt -0.400428 -1.465412
f 186/230/186 237/231/237 254/247/254
vt -0.458267 -1.433183
vt -0.462367 -1.432195
vt -0.456688 -1.432576
f 240/248/240 239/249/239 187/250/187
vt -0.935596 -1.160540
vt -0.936757 -1.167483
vt -0.936610 -1.160400
f 192/251/192 202/252/202 257/253/257
vt -0.935174 -1.147130
vt -0.935403 -1.153676
vt -0.936412 -1.153503
f 214/254/214 193/255/193 257/256/257
vt -0.417871 -0.977782
f 204/235/204 282/257/282 219/236/219
vt -0.425755 -0.987359
vt -0.421769 -0.982965
vt -0.421798 -0.982752
f 248/258/248 322/259/322 205/260/205
vt -0.417902 -0.977800
f 322/259/322 282/257/282 194/261/194
vt -0.403251 -0.969965
f 207/262/207 233/224/233 265/239/265
vt -0.404636 -0.961296
vt -0.406635 -0.960923
f 208/263/208 249/264/249 232/226/232
vt -0.401639 -1.442008
vt -0.402746 -1.442560
f 209/229/209 174/265/174 253/266/253
vt -0.398361 -1.464655
vt -0.403581 -1.459490
f 210/267/210 254/247/254 238/268/238
vt -0.506756 -1.406575
vt -0.509516 -1.401244
vt -0.506271 -1.406421
f 363/269/363 228/270/228 200/271/200
vt -0.934918 -1.141026
vt -0.936179 -1.146928
vt -0.935923 -1.140812
f 215/272/215 214/273/214 216/274/216
vt -0.935940 -1.140491
vt -0.935362 -1.129595
vt -0.935339 -1.129983
f 216/275/216 245/276/245 203/277/203
vt -0.411890 -0.967333
vt -0.411649 -0.967654
f 266/240/266 285/278/285 222/279/222
vt -0.408323 -0.962610
f 231/280/231 249/264/249 208/263/208
vt -0.401546 -1.458615
f 226/281/226 238/268/238 235/246/235
vt -0.405361 -1.438513
vt -0.409347 -1.436618
vt -0.405648 -1.438747
f 173/282/173 308/283/308 273/284/273
f 174/265/174 273/284/273 253/266/253
vt -0.502419 -1.408528
vt -0.502566 -1.409092
f 241/285/241 385/286/385 363/269/363
vt -0.935012 -1.125235
vt -0.935028 -1.124824
vt -0.933636 -1.109137
f 217/287/217 245/288/245 246/289/246
vt -0.426773 -0.987029
vt -0.429799 -0.990393
vt -0.431563 -0.989792
f 248/290/248 220/291/220 346/292/346
vt -0.415396 -0.971490
f 222/279/222 285/278/285 267/293/267
vt -0.930139 -1.323161
vt -0.946092 -1.323297
vt -0.945902 -1.328362
f 223/294/223 333/295/333 251/296/251
vt -0.414310 -1.444553
vt -0.421786 -1.438009
vt -0.417761 -1.441140
f 224/297/224 252/298/252 225/299/225
vt -0.412822 -1.435830
vt -0.414589 -1.435920
f 308/283/308 236/300/236 307/301/307
vt -0.467835 -1.430204
vt -0.471929 -1.426969
vt -0.467719 -1.430349
f 274/302/274 243/303/243 239/304/239
vt -0.439929 -1.418209
vt -0.442067 -1.417490
vt -0.438115 -1.418075
f 338/305/338 295/306/295 229/307/229
vt -0.930525 -1.386127
vt -0.931621 -1.391989
vt -0.931517 -1.386144
f 244/308/244 279/309/279 230/310/230
vt -0.919834 -1.100867
vt -0.932008 -1.100300
vt -0.931707 -1.095058
f 218/311/218 280/312/280 368/313/368
vt -0.434094 -0.992282
vt -0.435815 -0.991384
f 346/292/346 247/314/247 323/315/323
vt -0.943292 -1.318925
vt -0.946286 -1.318736
f 250/316/250 288/317/288 333/295/333
vt -0.929783 -1.333338
vt -0.945733 -1.333729
f 234/318/234 251/296/251 269/319/269
vt -0.416902 -1.437224
f 307/301/307 236/300/236 272/320/272
vt -0.509793 -1.396492
vt -0.509567 -1.396845
f 228/270/228 362/321/362 242/322/242
vt -0.436493 -1.421147
vt -0.434674 -1.420198
f 312/323/312 338/305/338 255/324/255
vt -0.445683 -1.418795
vt -0.445412 -1.419039
f 295/306/295 313/325/313 211/326/211
vt -0.450701 -1.421164
vt -0.448885 -1.421931
f 313/325/313 337/327/337 256/328/256
vt -0.932312 -1.105092
vt -0.933317 -1.104779
f 258/329/258 246/289/246 280/330/280
vt -0.931106 -1.067565
vt -0.931183 -1.064605
vt -0.915254 -1.068288
f 317/331/317 393/332/393 259/333/259
vt -0.931136 -1.071966
f 259/333/259 320/334/320 317/331/317
vt -0.915554 -1.089912
vt -0.931458 -1.089395
f 260/335/260 368/313/368 300/336/300
vt -0.439533 -0.992477
vt -0.443653 -0.992626
f 323/315/323 261/337/261 324/338/324
vt -0.447190 -0.993827
vt -0.451194 -0.995209
vt -0.447439 -0.993536
f 262/339/262 325/340/325 324/341/324
vt -0.419350 -0.976358
vt -0.421033 -0.974744
vt -0.425126 -0.979781
f 263/342/263 301/343/301 370/344/370
vt -0.429533 -0.984210
vt -0.427839 -0.985786
f 370/344/370 348/345/348 264/346/264
f 267/293/267 301/343/301 263/342/263
vt -0.455808 -1.429423
vt -0.456068 -1.429074
vt -0.459513 -1.431996
f 277/347/277 335/348/335 240/349/240
vt -0.454153 -1.424477
f 337/327/337 391/350/391 256/328/256
vt -0.930645 -1.391858
vt -0.931793 -1.397329
f 278/351/278 314/352/314 279/309/279
vt -0.931313 -1.083339
f 260/335/260 300/336/300 299/353/299
vt -0.928231 -1.077414
vt -0.932224 -1.077477
f 281/354/281 299/353/299 319/355/319
f 281/354/281 319/355/319 320/334/320
vt -0.931332 -1.116813
vt -0.947093 -1.110488
vt -0.947340 -1.116549
f 286/356/286 400/357/400 329/358/329
vt -0.946468 -1.314877
vt -0.947463 -1.314542
f 288/317/288 287/359/287 357/360/357
vt -0.418645 -1.436376
vt -0.420806 -1.439727
vt -0.422543 -1.438436
f 272/361/272 271/362/271 360/363/360
vt -0.424780 -1.443115
vt -0.426523 -1.441673
f 360/363/360 291/364/291 361/365/361
vt -0.505776 -1.397683
vt -0.505847 -1.397155
f 294/366/294 362/321/362 336/367/336
vt -0.932717 -1.407457
vt -0.932349 -1.405080
vt -0.931369 -1.404740
f 366/368/366 389/369/389 275/370/275
vt -0.425508 -1.434575
vt -0.432789 -1.425551
vt -0.432810 -1.425109
f 252/371/252 312/372/312 276/373/276
vt -0.930829 -1.397094
vt -0.932038 -1.401698
f 296/374/296 339/375/339 314/352/314
vt -0.437731 -0.991171
vt -0.433652 -0.988112
vt -0.433659 -0.987640
f 302/376/302 303/377/303 348/378/348
vt -0.449882 -0.997479
vt -0.445554 -0.995611
f 302/376/302 349/379/349 326/380/326
vt -0.947603 -1.123036
f 286/356/286 329/358/329 352/381/352
vt -0.947017 -1.304546
vt -0.948189 -1.300197
vt -0.948013 -1.304202
f 268/382/268 356/383/356 380/384/380
vt -0.946646 -1.311423
f 357/360/357 305/385/305 380/384/380
vt -0.945563 -1.339338
vt -0.946735 -1.333638
vt -0.946562 -1.339294
f 289/386/289 269/387/269 405/388/405
vt -0.428792 -1.446854
vt -0.434332 -1.449550
f 361/365/361 290/389/290 383/390/383
vt -0.468822 -1.431203
vt -0.473759 -1.429505
vt -0.472975 -1.428210
f 309/391/309 365/392/365 274/393/274
vt -0.497725 -1.410993
vt -0.498157 -1.411246
vt -0.503379 -1.409450
f 293/394/293 387/395/387 385/396/385
vt -0.492023 -1.413936
vt -0.492502 -1.414408
f 292/397/292 388/398/388 387/395/387
vt -0.481623 -1.420935
vt -0.482232 -1.421845
vt -0.486998 -1.418189
f 310/399/310 365/400/365 388/401/388
vt -0.931068 -1.401406
f 389/369/389 339/375/339 311/402/311
vt -0.508482 -1.016527
vt -0.510255 -1.019809
vt -0.508541 -1.023143
f 315/403/315 468/404/468 340/405/340
vt -0.483478 -1.032299
vt -0.487572 -1.031923
vt -0.487703 -1.032325
f 343/406/343 316/407/316 412/408/412
vt -0.480494 -1.031077
vt -0.479677 -1.031057
f 414/409/414 297/410/297 343/406/343
vt -0.454035 -0.998790
vt -0.454985 -0.997949
f 325/340/325 284/411/284 369/412/369
vt -0.928829 -1.075403
vt -0.944424 -1.068987
vt -0.944704 -1.074481
f 328/413/328 372/414/372 351/415/351
vt -0.946831 -1.104968
vt -0.947820 -1.105188
f 330/416/330 375/417/375 400/357/400
vt -0.944445 -1.290284
vt -0.947528 -1.283611
vt -0.947433 -1.290101
f 332/418/332 379/419/379 355/420/355
vt -0.947347 -1.295805
vt -0.948429 -1.289874
vt -0.948335 -1.295496
f 304/421/304 355/422/355 356/423/356
vt -0.945174 -1.351005
vt -0.946369 -1.345138
vt -0.946180 -1.351069
f 306/424/306 405/425/405 420/426/420
vt -0.438313 -1.452864
vt -0.440661 -1.455946
vt -0.442442 -1.455085
f 383/427/383 334/428/334 449/429/449
vt -0.500626 -1.400612
vt -0.500274 -1.400580
f 336/367/336 386/430/386 364/431/364
vt -0.457699 -1.428106
vt -0.461703 -1.431186
vt -0.460599 -1.431354
f 391/432/391 384/433/384 335/434/335
vt -0.507127 -1.019232
f 367/404/367 315/403/315 411/435/411
vt -0.476745 -1.027570
f 413/436/413 297/410/297 414/409/414
vt -0.932573 -1.060241
vt -0.932702 -1.058319
vt -0.931705 -1.057938
f 415/437/415 430/438/430 318/439/318
vt -0.449638 -0.997791
vt -0.453978 -1.000041
f 326/440/326 349/379/349 433/441/433
vt -0.452349 -1.001028
vt -0.457800 -1.003443
f 327/442/327 433/441/433 371/443/371
vt -0.460245 -1.007783
vt -0.460314 -1.007424
vt -0.456202 -1.004145
f 396/444/396 350/445/350 371/446/371
vt -0.944833 -1.129894
vt -0.948846 -1.129793
f 374/447/374 352/381/352 399/448/399
vt -0.945278 -1.083921
vt -0.946264 -1.084148
vt -0.945565 -1.087908
f 377/449/377 376/450/376 331/451/331
vt -0.944735 -1.368680
vt -0.945574 -1.374756
f 381/452/381 420/426/420 444/453/444
vt -0.445231 -1.457082
f 449/429/449 334/428/334 448/454/448
vt -0.934472 -1.411749
vt -0.933122 -1.409003
vt -0.933015 -1.410166
f 390/455/390 366/456/366 410/457/410
vt -0.510553 -1.019611
vt -0.509358 -1.024489
f 340/405/340 468/458/468 454/459/454
vt -0.493364 -1.032344
vt -0.496852 -1.028610
vt -0.497992 -1.030696
f 412/460/412 342/461/342 428/462/428
vt -0.472993 -1.022982
vt -0.475893 -1.027853
f 429/463/429 298/464/298 413/436/413
vt -0.931314 -1.062636
vt -0.932308 -1.063038
f 344/465/344 393/466/393 415/437/415
vt -0.931839 -1.055398
vt -0.932837 -1.055733
vt -0.932000 -1.052019
f 345/467/345 430/468/430 469/469/469
vt -0.469270 -1.017957
vt -0.472125 -1.023479
f 395/470/395 321/471/321 429/463/429
vt -0.947508 -1.100703
vt -0.947195 -1.095991
vt -0.946260 -1.084507
f 375/472/375 353/473/353 376/474/376
vt -0.933334 -1.210248
vt -0.946288 -1.210515
vt -0.949280 -1.218166
f 354/475/354 440/476/440 401/477/401
vt -0.933278 -1.224857
vt -0.949202 -1.225240
f 359/478/359 401/477/401 458/479/458
vt -0.949084 -1.186640
vt -0.949962 -1.178859
vt -0.950078 -1.186584
f 378/480/378 459/481/459 476/482/476
vt -0.935635 -1.276625
vt -0.947702 -1.276522
f 358/483/358 408/484/408 379/419/379
vt -0.944888 -1.269087
vt -0.948013 -1.261750
vt -0.948893 -1.269222
f 382/485/382 407/486/407 443/487/443
f 382/485/382 443/487/443 408/484/408
vt -0.495811 -1.404396
vt -0.496351 -1.405217
f 409/488/409 386/430/386 423/489/423
vt -0.505921 -1.028553
vt -0.505281 -1.028065
f 426/490/426 341/491/341 454/459/454
vt -0.920066 -1.047022
vt -0.929188 -1.047499
f 416/492/416 469/469/469 431/493/431
vt -0.457879 -1.002704
vt -0.466417 -1.011705
vt -0.458797 -1.001712
f 347/494/347 432/495/432 369/496/369
vt -0.465233 -1.011134
vt -0.464278 -1.011767
f 396/444/396 434/497/434 397/498/397
vt -0.928261 -1.064458
vt -0.944182 -1.063278
f 398/499/398 437/500/437 372/414/372
vt -0.944997 -1.079535
vt -0.945696 -1.074593
vt -0.945982 -1.079732
f 373/501/373 351/502/351 377/503/377
vt -0.946246 -1.202606
vt -0.949221 -1.202686
f 402/504/402 418/505/418 440/476/440
vt -0.949835 -1.171389
vt -0.949823 -1.171213
f 459/481/459 419/506/419 442/507/442
vt -0.949162 -1.194627
vt -0.950151 -1.194629
f 403/508/403 476/509/476 418/505/418
vt -0.948165 -1.254796
vt -0.949172 -1.254942
f 407/486/407 406/510/406 479/511/479
vt -0.501818 -1.020468
vt -0.501935 -1.020037
f 425/512/425 439/513/439 411/435/411
vt -0.500957 -1.028616
vt -0.502184 -1.029917
f 428/462/428 392/514/392 426/515/426
vt -0.932359 -1.042728
f 416/492/416 431/493/431 491/516/491
vt -0.469199 -1.015176
f 397/498/397 434/497/434 455/517/455
vt -0.948046 -1.136802
vt -0.949044 -1.136742
vt -0.948228 -1.143755
f 399/518/399 438/519/438 404/520/404
vt -0.446240 -1.456589
vt -0.448987 -1.456861
vt -0.449998 -1.456806
f 448/521/448 422/522/422 463/523/463
vt -0.935462 -1.416800
vt -0.934969 -1.413659
vt -0.933975 -1.413341
f 466/524/466 390/525/390 424/526/424
vt -0.502651 -1.020996
vt -0.507989 -1.020105
f 504/527/504 427/528/427 439/513/439
vt -0.466206 -1.011962
vt -0.470174 -1.017000
f 394/529/394 395/530/395 432/495/432
vt -0.468200 -1.016013
vt -0.472913 -1.019564
f 435/531/435 455/517/455 470/532/470
vt -0.943955 -1.057531
vt -0.944947 -1.057381
f 456/533/456 457/534/457 437/500/437
vt -0.949426 -1.150361
vt -0.949229 -1.143529
f 442/507/442 441/535/441 438/536/438
vt -0.945213 -1.386774
vt -0.945557 -1.374819
vt -0.945193 -1.386774
f 460/537/460 444/538/444 477/539/477
vt -0.949469 -1.249253
vt -0.949439 -1.248902
vt -0.950050 -1.232366
f 479/540/479 421/541/421 461/542/461
vt -0.949069 -1.231727
vt -0.950193 -1.225483
vt -0.950055 -1.232020
f 445/543/445 458/544/458 461/545/461
vt -0.931477 -1.416579
vt -0.931972 -1.421034
vt -0.934470 -1.416535
f 450/546/450 488/547/488 466/548/466
vt -0.921503 -1.020003
vt -0.930240 -1.025785
vt -0.933588 -1.020599
f 451/549/451 489/550/489 482/551/482
vt -0.916435 -1.041802
vt -0.925349 -1.036745
f 452/552/452 491/516/491 467/553/467
vt -0.920804 -1.030816
vt -0.932880 -1.031474
f 453/554/453 467/553/467 484/555/484
f 453/554/453 484/555/484 489/550/489
vt -0.943488 -1.046441
vt -0.944281 -1.040784
vt -0.944713 -1.051728
f 436/556/436 473/557/473 457/558/457
vt -0.459637 -1.446941
vt -0.459652 -1.446652
vt -0.463546 -1.442186
f 499/559/499 446/560/446 498/561/498
vt -0.455706 -1.451051
vt -0.457376 -1.452686
f 447/562/447 499/559/499 506/563/506
vt -0.453775 -1.455577
vt -0.452769 -1.455173
f 463/564/463 462/565/462 506/563/506
vt -0.483555 -1.418038
vt -0.487817 -1.413721
vt -0.484692 -1.419811
f 464/566/464 423/567/423 481/568/481
vt -0.927726 -1.421517
vt -0.932461 -1.426853
f 465/569/465 502/570/502 488/547/488
vt -0.497057 -1.022120
vt -0.498305 -1.023836
f 439/571/439 487/572/487 504/527/504
vt -0.471910 -1.020441
vt -0.476609 -1.023467
f 471/573/471 470/532/470 492/574/492
vt -0.943092 -1.035746
vt -0.943423 -1.019653
f 472/575/472 494/576/494 473/557/473
vt -0.484618 -1.027190
vt -0.488306 -1.026068
vt -0.483794 -1.026733
f 485/577/485 486/578/486 417/579/417
vt -0.480523 -1.026055
vt -0.479622 -1.026167
f 495/580/495 485/577/485 474/581/474
vt -0.493910 -1.026446
vt -0.492716 -1.024446
f 486/578/486 496/582/496 475/583/475
f 475/583/475 496/582/496 487/572/487
vt -0.943435 -1.410698
vt -0.944607 -1.404776
vt -0.944392 -1.410694
f 478/584/478 477/585/477 514/586/514
vt -0.476892 -1.429143
f 500/587/500 464/566/464 481/568/481
vt -0.475640 -1.024132
f 492/588/492 495/580/495 474/581/474
vt -0.464438 -1.443257
vt -0.467466 -1.437134
vt -0.468325 -1.438192
f 498/589/498 480/590/480 497/591/497
vt -0.471432 -1.432134
vt -0.472926 -1.434009
f 497/591/497 501/592/501 500/593/500
vt -0.933980 -1.015540
vt -0.934572 -1.020494
vt -0.934969 -1.015410
f 490/594/490 482/595/482 516/596/516
vt -0.934853 -1.005596
vt -0.936267 -1.000263
f 483/597/483 516/596/516 503/598/503
vt -0.932952 -1.433008
vt -0.935747 -1.431719
f 502/570/502 507/599/507 508/600/508
vt -0.924647 -0.988381
vt -0.940361 -0.985284
vt -0.940806 -0.991228
f 493/601/493 523/602/523 512/603/512
vt -0.925090 -0.994328
vt -0.941207 -0.997239
f 505/604/505 512/603/512 518/605/518
vt -0.942196 -1.014586
vt -0.942853 -1.008674
f 513/606/513 524/607/524 494/576/494
vt -0.936256 -1.437598
f 507/599/507 520/608/520 508/600/508
vt -0.936942 -0.980052
vt -0.939343 -0.974277
vt -0.940830 -0.979572
f 511/609/511 526/610/526 523/611/523
vt -0.943482 -1.427591
vt -0.943846 -1.422232
vt -0.944352 -1.410573
f 528/612/528 515/613/515 514/614/514
vt -0.936632 -0.994664
vt -0.936946 -0.989070
vt -0.936922 -0.989215
f 503/615/503 521/616/521 509/617/509
vt -0.923143 -0.972643
vt -0.938813 -0.969817
f 510/618/510 532/619/532 526/610/526
vt -0.933313 -0.981953
vt -0.936176 -0.983021
vt -0.936446 -0.977033
f 522/620/522 521/621/521 543/622/543
vt -0.938324 -0.966627
vt -0.926408 -0.968362
f 540/623/540 532/619/532 517/624/517
vt -0.941570 -1.003197
vt -0.942516 -1.002913
vt -0.941900 -1.008984
f 527/625/527 518/626/518 524/627/524
vt -0.941795 -1.438157
vt -0.942209 -1.433271
vt -0.943164 -1.433134
f 529/628/529 519/629/519 528/630/528
vt -0.929842 -1.443428
vt -0.936781 -1.442958
f 525/631/525 535/632/535 520/608/520
vt -0.938404 -1.442561
vt -0.942281 -1.442316
f 530/633/530 529/628/529 537/634/537
vt -0.937242 -1.447137
f 525/631/525 534/635/534 535/632/535
vt -0.938835 -0.965046
vt -0.934899 -0.964952
f 546/636/546 540/623/540 531/637/531
vt -0.940278 -1.449601
vt -0.924609 -1.448844
vt -0.940821 -1.446504
f 550/638/550 533/639/533 537/640/537
vt -0.930657 -1.449008
vt -0.937750 -1.450095
f 534/635/534 538/641/538 542/642/542
vt -0.929634 -0.971949
vt -0.936673 -0.971740
f 536/643/536 543/622/543 544/644/544
vt -0.938416 -1.451790
f 542/642/542 538/641/538 547/645/547
vt -0.936786 -0.967788
f 536/643/536 544/644/544 548/646/548
vt -0.934049 -0.966189
vt -0.937348 -0.964289
vt -0.930251 -0.965563
f 549/647/549 546/648/546 539/649/539
vt -0.939722 -1.451522
vt -0.927826 -1.451313
f 551/650/551 541/651/541 550/638/550
vt -0.929747 -0.969108
f 548/646/548 549/647/549 545/652/545
vt -0.940090 -1.451856
vt -0.936176 -1.452398
f 553/653/553 552/654/552 551/650/551
f 547/645/547 552/654/552 553/653/553
# 297 faces, 654 coords texture

# End of File
