# .PCD v0.7 - Point Cloud Data file format
VERSION 0.7
FIELDS x y z
SIZE 4 4 4
TYPE F F F
COUNT 1 1 1
WIDTH 2048
HEIGHT 1
VIEWPOINT 0 0 0 1 0 0 0
POINTS 2048
DATA ascii
45.291 5.423719 18.80592
45.59746 5.448724 18.66619
47.80862 5.456161 18.80737
45.82179 5.375418 18.82947
47.8753 5.430729 18.97556
44.32621 5.419755 18.58088
45.43731 5.421898 18.3672
48.92664 5.434896 19.11536
45.37082 5.418587 18.18698
43.23172 5.203077 19.41192
46.75341 5.42713 18.40481
44.75091 5.411927 18.23385
49.15998 5.404648 19.17893
46.18623 5.41372 17.94078
43.55653 5.408751 18.49165
47.91608 5.427967 18.349
46.26011 5.410832 17.8159
43.4367 5.430859 18.9324
47.36899 5.423065 18.06917
49.05627 5.430022 18.51354
44.78383 5.407783 17.86113
49.40912 5.424725 18.71119
50.14706 5.429132 18.43698
48.45682 5.426666 17.97506
44.70787 5.425255 17.76716
42.97683 5.398097 18.62442
49.29416 5.42799 18.08145
48.70014 5.426613 17.95975
46.05203 5.42626 17.59302
42.7949 5.402659 18.41725
50.57336 5.427407 18.50592
49.30144 5.427011 17.80295
48.54807 5.423496 17.69475
48.65013 5.426119 17.89366
43.32122 5.409946 18.17278
42.68176 5.402957 18.37282
49.89729 5.386435 18.90775
51.18064 5.434245 18.24901
50.58137 5.433985 17.68147
49.99543 5.428854 18.01639
49.32898 5.425653 17.16074
48.29849 5.415765 17.14802
47.1321 5.424078 17.46848
44.09762 5.422861 17.71562
43.44343 5.403674 17.52084
42.24944 5.403311 18.24494
42.76479 4.707118 18.99999
50.95736 5.427202 18.48489
51.45225 5.440914 17.84418
49.84164 5.429682 17.69401
49.15831 5.420002 16.7467
47.53138 5.418055 16.80609
46.57407 5.43674 17.36082
42.91118 5.343269 18.96824
43.98006 5.413466 17.5572
41.31392 5.39885 18.26201
42.89493 4.670659 18.86157
50.76653 5.35261 18.90818
50.6284 5.436945 17.00963
49.80753 5.431614 17.28099
49.6079 5.429674 17.21063
48.04639 5.395885 16.23732
47.11337 5.418842 16.8437
44.81503 5.412975 17.22152
42.54076 5.404819 18.19296
41.62361 5.41921 17.28076
41.18681 5.394987 18.38847
50.27183 5.091539 19.14058
51.53616 5.456532 16.95435
51.20461 5.440433 17.07758
50.84709 5.435181 16.98596
48.7719 5.401011 15.93323
49.33897 5.430213 15.86314
47.97341 5.396796 16.11794
46.93354 5.41874 16.73616
44.98458 5.403402 16.78359
42.79454 5.399694 17.32817
41.48851 5.417007 17.43129
41.77605 5.419529 17.27764
41.82696 5.353568 18.81839
49.90806 4.712178 18.6778
51.9097 5.408767 18.5026
50.45817 5.441457 16.05849
50.14681 5.448225 16.06351
50.82998 5.431472 15.85892
48.44574 5.38243 15.54587
49.67211 5.441004 16.13804
49.47069 5.443174 15.15506
47.87037 5.405435 16.36658
46.04265 5.412146 17.05001
42.35119 5.189056 19.12721
41.3149 5.423805 17.22942
41.56702 5.42705 16.67928
40.34198 5.39749 18.27317
41.66478 5.249087 19.01714
43.61753 4.577784 18.34162
51.70439 5.211837 18.91389
51.7182 5.452959 17.51847
51.13745 5.432414 16.03748
50.43274 5.445472 15.62934
50.22496 5.448777 16.01962
49.25638 5.428393 15.46146
49.64069 5.443595 15.84585
47.79996 5.39352 15.25233
46.57721 5.405815 16.91581
44.78567 5.391423 16.30968
42.61449 5.408561 16.99862
41.19801 5.42567 17.24973
42.12455 5.446087 16.48652
40.55502 5.407503 18.1164
43.97813 4.592312 18.38521
50.46022 4.852837 19.04289
52.16076 5.363286 18.57679
51.81045 5.474475 17.02099
51.17802 5.434695 16.22511
50.4319 5.448121 14.99083
50.86175 5.426545 14.66113
49.83488 5.475924 13.61985
49.38926 5.447279 14.30622
48.04309 5.368223 15.07648
45.98232 5.397425 16.66894
44.81032 5.383051 15.98396
44.12327 5.421961 16.02018
43.07696 5.371078 16.64488
41.30437 5.427355 16.80359
41.81112 5.446718 16.05542
40.14697 5.396802 18.22315
43.54828 4.559454 18.14882
49.65339 4.665555 18.49862
52.49227 5.340275 18.55755
52.03571 5.512099 16.61612
51.25986 5.436293 15.17398
50.59064 5.438744 14.40607
49.91614 5.476744 13.54135
50.86448 5.421056 13.67122
49.16239 5.433309 14.16035
47.52456 5.434042 15.90598
47.37835 5.453156 15.95428
45.21921 5.396872 15.90319
44.35442 5.406441 16.26816
41.02223 5.064437 18.97575
43.18419 5.363354 16.50997
41.14904 5.43556 16.68464
41.91528 5.470539 15.42365
40.54675 5.47484 17.28421
39.92942 5.23171 18.77078
49.1507 4.645962 18.55873
49.0791 4.670307 18.24529
52.29905 5.446975 17.90215
51.90249 5.504471 16.40998
51.17245 5.429893 14.90082
50.34694 5.458283 13.57897
50.85606 5.419911 13.43635
48.87821 5.410117 14.25784
49.45853 5.483133 12.60627
47.5106 5.423495 15.02449
46.41391 5.377371 16.54382
45.05767 5.381687 15.33027
44.43174 5.401794 15.71138
41.16738 4.873673 18.93932
42.45712 5.45426 15.69977
43.37042 5.358916 16.31055
42.33117 5.467127 15.67762
41.65031 5.467875 14.69797
41.31514 5.442064 15.35695
39.6744 5.316438 18.57746
48.77959 4.654603 18.26678
51.00142 4.684472 18.48616
52.07108 4.88434 18.81467
52.12423 5.550246 16.02515
51.40754 5.450549 14.64006
50.21452 5.473265 13.13243
48.60575 5.386873 13.87654
48.94296 5.418715 13.42793
48.89993 5.418162 13.10678
47.51121 5.413178 14.73439
46.29639 5.354672 16.35629
45.18703 5.384366 15.04092
43.9751 5.400563 15.50306
42.45883 5.458864 15.45384
41.00144 5.462845 15.55324
42.28552 5.477401 15.30721
41.86314 5.492345 14.35573
41.42135 5.457387 14.49781
40.00837 5.415488 17.877
44.99571 4.578054 17.73279
50.40181 4.676579 18.16359
50.01941 4.670949 18.02224
52.62636 5.415443 18.20773
51.77948 5.525415 14.45288
51.30183 5.432537 13.38153
50.13552 5.48778 12.70722
48.5735 5.3845 13.7087
48.64428 5.395693 12.78681
47.31359 5.438339 14.7715
46.13731 5.357224 16.22215
45.18533 5.373525 14.49379
44.43399 5.389679 15.16736
41.09016 4.845274 18.89934
42.72973 5.407239 15.38449
40.9467 5.482106 14.82033
41.17639 5.461803 14.36656
41.69827 5.497101 13.60865
40.6469 5.514974 16.29015
41.59857 4.694235 18.49551
45.23578 4.565119 17.49285
51.21838 4.680688 18.29585
49.92609 4.667587 17.90597
53.03742 5.296782 18.4744
52.08176 5.597075 14.54846
52.62255 5.413808 17.36973
49.84798 5.499472 12.72224
49.54219 5.528176 11.91659
47.03701 5.453205 15.34977
48.05666 5.338579 13.21959
46.11434 5.34276 15.71448
45.37542 5.35823 13.75083
44.46261 5.375148 14.74714
40.3273 4.777207 18.65675
42.55017 5.458766 14.77133
40.87795 5.500102 14.37423
40.64801 5.535034 15.66527
41.94958 5.530977 13.16289
40.61534 5.525815 16.2038
41.54845 4.693421 18.47226
43.1922 4.662765 18.25006
50.47621 4.679555 17.55383
49.02777 4.649109 17.99934
49.98114 4.656446 17.55805
52.54719 4.954352 18.74191
52.28489 5.581186 15.74703
51.47353 5.461373 13.43815
50.46497 5.453149 12.40888
48.37262 5.367331 13.05543
48.56571 5.385164 12.39684
47.17982 5.402987 13.84672
48.07693 5.341387 13.1788
45.67223 5.394997 14.94335
45.19622 5.354501 13.7641
44.00436 5.372017 14.91772
40.91326 4.698563 18.4122
42.78699 5.413743 14.36982
43.52269 5.328697 15.31491
40.76331 5.53172 13.79708
40.62503 5.53532 15.88631
41.3698 5.473609 13.36558
39.45781 4.912013 18.62364
42.08121 4.683471 18.19983
44.25149 4.591817 17.65597
50.95917 4.689342 18.06725
49.41301 4.648835 17.16764
48.59847 4.640302 17.72101
52.30567 5.633934 14.64879
52.05647 5.620064 13.27854
52.71899 5.351852 17.37035
48.06147 5.347232 12.7554
49.04839 5.451566 11.99654
47.03083 5.435431 14.83581
48.00233 5.343199 12.90874
45.86169 5.367579 14.44272
45.586 5.345555 13.28099
44.17976 5.333878 13.74432
42.62506 5.45809 13.95002
43.55404 5.330315 15.11724
40.3187 5.641617 14.44052
41.64773 5.509865 12.81962
39.85283 5.338364 17.5924
41.85068 4.688818 18.10078
42.17099 4.681986 17.65681
43.19292 4.67373 17.78666
47.92854 4.638299 18.05134
50.34769 4.671672 16.79412
48.13917 4.638748 16.65343
49.84758 4.653423 17.54729
52.47959 4.73192 18.46786
52.54461 5.580842 15.6271
51.75287 5.528265 12.96382
50.8887 5.361729 11.69343
48.07805 5.34435 12.38956
49.27625 5.530559 11.15802
48.65036 5.392191 11.41152
47.06835 5.364614 13.1819
46.42953 5.324392 15.23115
45.86498 5.354615 13.90022
45.48799 5.33052 12.84274
45.1843 5.330687 12.99522
43.7175 5.323667 14.16146
43.37189 5.319728 14.97917
42.63191 5.463609 13.70504
41.05533 5.476367 12.74804
40.24638 5.648801 14.62807
41.94776 5.55871 12.53346
39.23568 5.1243 18.46946
41.67163 4.695271 17.74913
42.51316 4.670236 17.30192
43.08811 4.666695 17.36838
46.38731 4.593148 17.55709
50.4595 4.695606 16.56335
48.0509 4.643718 16.81577
49.16871 4.623575 16.39791
48.07987 4.651467 17.48451
52.35148 5.672263 13.61037
51.72025 5.516938 12.61227
50.323 5.50522 11.35419
48.10411 5.335015 12.02485
49.04697 5.476696 11.22169
46.6566 5.349944 14.00429
47.08632 5.349076 12.8992
46.19162 5.32632 14.48195
45.81788 5.328808 12.68681
45.35041 5.322646 12.60169
43.35054 5.325861 14.29781
42.95328 5.375815 14.53965
41.07772 5.473469 12.63898
40.34064 5.645364 13.79096
41.56144 5.505258 12.32619
39.73211 5.191792 17.43925
41.5349 4.708421 17.39432
42.08167 4.688319 17.26775
43.10487 4.647318 16.58372
43.47085 4.668892 17.49821
46.57889 4.571651 17.40938
51.25362 4.804696 16.98145
51.56667 4.660432 17.97197
48.03304 4.633824 16.49139
48.31187 4.633189 16.52302
49.62795 4.599215 16.39222
53.17643 4.79796 18.43463
52.60518 5.581482 15.2852
51.39372 5.38848 11.81693
50.92247 5.33511 11.26449
49.88514 5.656698 10.18304
47.8573 5.313678 11.81687
48.9629 5.464376 11.0384
46.61988 5.3436 14.10751
47.51413 5.332571 12.56156
46.01216 5.338067 13.24932
45.9413 5.304728 11.36481
45.74608 5.321465 12.33824
45.64874 5.309388 11.77764
44.22356 5.321141 13.24286
43.81219 5.321595 13.40212
43.36944 5.340292 13.49562
41.07451 5.464032 12.24817
40.05095 5.619349 14.84976
41.69654 5.537453 12.04997
40.00177 5.185 16.8667
41.36669 4.731203 16.88424
40.72606 4.692148 17.7352
43.12551 4.643501 16.35204
44.1038 4.659128 16.8441
44.80759 4.65319 17.20482
51.2421 4.832236 16.67816
51.41131 4.731399 17.51089
47.43453 4.627473 15.94969
48.4987 4.630765 16.32658
49.84631 4.580009 15.77654
52.95201 4.631991 18.05652
52.69675 5.531505 15.48615
51.84946 5.556822 11.80744
51.1981 5.32634 11.22096
49.78599 5.703649 9.466681
49.54675 5.623771 10.5491
49.21301 5.560232 10.37122
47.51293 5.300463 11.65168
46.67854 5.345671 13.5045
46.60159 5.331748 12.60511
45.76999 5.301498 11.32192
45.09307 5.303068 12.04765
43.49086 5.333468 13.45021
39.64699 4.721923 17.9977
40.49539 5.605167 12.33178
42.46838 5.575028 11.97284
39.95864 5.49683 15.77612
40.96922 4.735034 16.05596
41.50042 4.742621 16.54234
42.50816 4.647342 16.35159
44.15918 4.658417 16.57748
44.7399 4.65808 16.92488
47.38393 4.569188 17.64292
50.24875 4.655846 15.79881
51.42757 4.810769 16.64751
46.46107 4.645601 16.42336
46.87707 4.637938 16.06059
48.48761 4.627035 16.0705
49.77175 4.569079 15.65752
52.41848 4.663197 18.02466
52.60671 5.650135 13.97528
52.01923 5.628676 11.79213
51.33088 5.324738 10.85857
50.33022 5.523692 10.61667
49.97092 5.656761 9.999635
49.6193 5.716351 9.160903
46.4059 5.329893 13.27249
47.21776 5.330335 12.45346
46.40443 5.311628 11.69727
45.62085 5.293846 11.12385
44.84351 5.268167 11.25637
43.74229 5.32292 12.97526
43.00335 5.415618 12.56577
40.72984 5.52502 12.13506
42.40187 5.641649 11.29929
39.91338 5.437439 15.38639
40.8481 4.703036 15.93909
41.88438 4.716783 16.38639
42.35022 4.659962 16.10233
43.31736 4.655362 16.24023
44.5023 4.655078 16.37683
44.47581 4.656839 16.71639
46.59137 4.568495 17.26658
50.56399 4.747509 15.45157
51.57908 4.704711 17.13309
46.42617 4.64405 16.19849
48.28016 4.618685 16.05866
47.20837 4.620149 15.42392
48.93411 4.626345 15.95732
49.40099 4.562059 15.60782
52.58229 4.617739 17.7517
52.68236 5.612986 14.19028
51.98783 5.617031 11.1971
51.15349 5.282684 10.48323
49.87881 5.746072 8.610072
50.04316 5.669917 9.433008
49.32882 5.635951 9.661608
48.26079 5.304115 10.58301
46.55268 5.317185 11.97045
46.80328 5.305809 11.52978
46.10326 5.282465 9.900599
45.59857 5.284721 10.65561
44.55806 5.269395 11.57694
42.97593 5.425817 12.15602
39.91187 5.512646 14.91801
42.37666 5.655247 11.17374
40.03202 5.238603 16.44202
40.84736 4.704276 15.82985
41.79086 4.754463 15.5799
40.60037 4.626513 16.57044
43.23748 4.637452 15.75984
42.82312 4.600879 15.62261
44.87746 4.651057 16.21679
44.98413 4.647419 15.9136
46.64982 4.632781 17.14074
50.1587 4.636553 15.22877
46.88474 4.649859 17.06114
45.83279 4.64611 16.03889
48.51008 4.620014 15.6154
47.44174 4.598048 14.89543
49.60081 4.526133 14.83376
53.13618 5.283603 17.71403
52.78914 5.366525 15.51963
51.70186 5.45656 10.8112
52.65365 5.108247 16.5709
49.72375 5.79719 7.778077
50.00164 5.749106 8.042245
47.60527 5.252359 10.64784
49.65991 5.78713 7.962961
48.346 5.298706 9.955192
47.25505 5.310907 11.90304
47.50739 5.236418 10.35829
46.12788 5.277316 9.55351
44.91578 5.259678 10.9361
44.57143 5.249936 11.12354
43.89903 5.281122 11.93123
43.18191 5.369164 11.67074
40.16381 5.681767 12.40648
43.08046 5.399381 11.74229
39.9223 5.377969 15.02607
39.25869 4.752362 17.85598
41.54654 4.821129 14.67617
40.34711 4.609698 17.39571
43.42905 4.650113 15.81595
44.26484 4.663295 15.74939
45.56421 4.648285 16.23091
45.69304 4.65149 16.61953
51.13628 4.919369 15.26842
50.54008 4.74237 15.39372
46.27759 4.640758 15.44687
47.89376 4.584614 14.99622
46.92535 4.612659 14.8261
47.23225 4.588922 14.13014
49.16513 4.561284 14.92829
49.84142 4.571882 13.75529
53.49508 5.224824 17.84179
52.45792 5.734488 12.11234
51.75041 5.44676 9.891455
51.08479 5.249989 9.802627
49.66318 5.840913 6.925206
50.07126 5.722891 8.176276
49.2545 5.635186 9.160654
49.32027 5.735349 7.605975
48.58008 5.361635 9.710445
46.80167 5.28567 10.90845
46.4968 5.281011 10.28409
46.17491 5.267948 8.902643
45.33971 5.268968 10.47682
44.61846 5.192278 9.873405
44.44098 5.247754 11.16995
43.85691 5.267521 11.60664
39.6666 4.599943 17.51366
40.16081 5.68319 12.03481
42.60615 5.623074 10.77135
41.71286 5.593935 10.80631
39.57364 5.158088 17.04417
41.49838 4.851598 13.8861
41.66215 4.816092 14.44403
40.34216 4.584791 17.21806
43.64213 4.637802 15.59145
43.12506 4.604499 15.20519
45.704 4.641006 15.5459
51.48523 4.872768 15.30006
50.78056 4.841921 14.89579
48.35594 4.603792 15.22016
47.09175 4.602242 14.57803
47.56613 4.574665 14.13326
49.75549 4.551414 13.87366
53.22111 4.447637 17.60556
52.85835 5.553204 13.53893
52.09231 5.660042 9.724871
51.58921 5.315697 9.073569
50.4495 5.481878 9.875634
49.656 5.895454 5.819246
50.08754 5.762186 7.201758
49.81499 5.905187 5.601033
49.29565 5.769812 6.754123
49.04049 5.545637 9.420284
47.28259 5.23429 10.20836
46.84424 5.26486 10.34227
46.01032 5.252892 8.026113
45.19444 5.246553 9.955256
45.52641 5.260003 9.368992
44.80204 5.220493 10.13504
43.902 5.246975 11.16241
39.56955 4.754424 17.59999
40.34277 5.64552 11.74627
42.69959 5.617864 10.32993
42.12569 5.754597 10.06146
39.23064 4.681918 17.63185
41.37112 4.853522 13.85016
41.66551 4.824 14.1788
42.29085 4.664157 15.40141
42.4398 4.634056 15.03195
43.24011 4.610495 14.932
45.01076 4.631197 14.44639
45.70568 4.627513 14.32958
51.58072 4.776276 15.66969
50.74771 4.889067 13.35088
51.65413 4.643857 16.47011
48.53631 4.615101 15.22562
46.97847 4.595394 14.13021
47.07829 4.589857 13.89868
47.48986 4.567762 13.7173
49.71352 4.544349 13.7948
53.49438 4.980474 17.83661
52.62904 5.75298 11.66533
51.96142 5.566723 9.354375
50.67542 5.361989 9.756785
49.59558 5.942979 4.83889
50.13739 5.808899 5.70813
49.14849 5.64045 8.272959
49.28912 5.791939 6.262499
46.70835 5.263831 10.05741
47.02971 5.238674 9.966042
46.51872 5.263216 9.602166
45.99525 5.240329 7.508776
46.18938 5.258613 8.438295
45.24043 5.23909 9.518103
45.46786 5.250455 9.150819
44.21775 5.190815 10.13214
43.44209 5.306747 11.43241
40.72496 5.488134 11.02554
39.83365 5.383929 13.67871
42.44575 5.747281 9.836798
42.1098 5.782399 9.661073
39.23973 4.667969 17.5498
40.97798 4.746744 13.64347
42.22131 4.685913 14.51952
40.44532 4.4652 15.98491
43.4313 4.625008 14.83879
42.861 4.570009 14.58918
44.27664 4.633108 14.97928
45.41833 4.632604 14.72814
51.379 4.937599 14.2777
50.31194 4.702297 14.19905
50.57929 4.79822 14.17741
45.97825 4.638986 14.75668
48.1187 4.551776 13.84844
47.05267 4.581072 13.4137
48.90802 4.542162 14.06312
52.24348 4.437813 17.21066
52.86283 5.650568 12.33475
52.33297 5.749925 11.01988
51.55215 5.269027 8.537655
50.72203 5.329437 8.964751
50.29216 5.63206 7.798831
50.18713 5.735723 6.7983
49.90667 5.948369 4.373707
48.78559 5.464806 8.370882
49.30999 5.835772 5.55978
47.29968 5.171276 8.812939
46.81695 5.247038 9.745687
46.55273 5.208373 7.651727
46.31406 5.232296 7.768039
46.0457 5.215373 6.603521
45.33309 5.22472 8.490185
44.19939 5.182168 9.988304
39.53873 4.777942 17.3516
40.10045 5.688831 11.68875
43.06368 5.423785 10.66343
41.75688 5.654951 9.930886
39.69167 5.036 16.52673
41.17016 4.851521 12.49224
42.13865 4.708835 14.44854
40.22705 4.376077 16.53761
40.12099 4.223396 16.22595
44.04483 4.629799 14.95218
42.64082 4.606388 13.23453
45.1791 4.62407 13.74943
51.06433 4.984235 12.93165
50.15886 4.674727 13.20188
50.62442 4.853432 13.12161
51.79849 4.440707 16.72686
46.34967 4.626123 13.83012
48.02224 4.491539 12.53275
47.0502 4.571192 12.6479
49.25999 4.501909 13.60076
52.8364 4.476446 17.32297
52.94808 5.591459 12.30067
52.50086 5.773341 11.09614
51.58112 5.263577 8.244732
52.5543 4.712752 15.9382
50.36053 5.595666 7.532093
49.56794 6.010039 3.336443
50.39447 5.601694 6.410024
49.94952 5.973931 3.621535
47.87556 5.188596 9.109712
49.12609 5.734218 5.993562
49.38299 5.915162 4.479244
46.81102 5.241968 9.578792
47.22738 5.163324 8.426587
46.82349 5.170395 7.460629
46.856 5.161356 7.306634
45.82884 5.175672 5.406289
46.14767 5.180723 5.655026
45.20419 5.212439 8.636886
44.73569 5.15858 8.906646
43.49545 5.281016 10.53495
41.32402 5.453899 10.65744
40.00403 5.239295 14.28039
42.48791 5.759256 9.491544
39.257 5.58041 17.1186
41.50786 4.923314 11.90097
41.59909 4.916031 11.9481
41.98022 4.791093 12.71846
40.23563 4.265174 16.06358
43.15832 4.582592 14.46409
44.42516 4.62241 14.00294
42.80168 4.582205 13.3077
45.61123 4.62249 13.83638
51.15467 4.982482 13.19058
50.22064 4.71904 12.19416
52.0172 4.391713 16.96302
47.51529 4.530481 12.49021
46.23005 4.614312 13.25015
47.0176 4.574927 12.75435
49.03932 4.504955 13.45443
49.97373 4.620442 12.52136
53.01655 5.451387 12.62802
52.65616 5.77189 11.08984
51.8488 5.436706 8.343649
50.73238 5.319375 8.69021
49.53193 6.014279 3.078184
49.90224 6.044391 2.170981
50.18154 5.834793 4.516207
49.97299 6.008648 2.599812
48.70389 5.438917 7.888947
48.977 5.630966 6.544154
49.27468 5.858876 4.827282
47.28518 5.130956 7.541432
47.73145 5.129833 7.248376
47.14635 5.112206 6.700544
46.97041 5.11674 6.357692
46.63164 5.147056 6.029715
46.3463 5.175648 5.91901
46.07216 5.173992 5.373386
45.28993 5.160744 6.547576
45.1622 5.187803 8.00307
44.91618 5.147593 7.936373
44.37734 5.103427 8.329535
44.51966 5.102918 7.985132
43.57219 5.240412 9.870345
40.68014 5.488808 10.61632
39.78178 5.52948 12.74768
42.6792 5.6906 9.351736
42.34492 5.869102 8.347167
38.87088 4.994453 17.44258
41.06129 4.818368 12.06937
42.32673 4.681647 13.04039
40.50002 4.251705 14.54063
44.69324 4.61749 13.54766
44.05119 4.613484 13.9972
42.9539 4.562206 13.99251
45.66791 4.620207 13.41342
50.92614 4.987003 12.17573
51.66095 4.455585 15.65921
52.04517 4.342036 16.77102
48.32251 4.526554 13.36779
48.01122 4.470496 12.09141
46.16337 4.614514 12.55965
48.82336 4.527599 13.71472
49.43055 4.477308 12.23406
49.87454 4.588396 12.26873
53.64651 5.336471 17.26211
52.87873 5.696496 11.50012
51.58579 5.235186 7.747009
50.59468 5.406692 7.878085
49.51788 6.071834 1.702327
50.54354 5.454407 6.259286
50.07416 5.965879 2.780749
48.54223 5.369072 7.253172
49.06739 5.754649 5.006938
48.26783 5.251591 7.768746
46.98689 5.099259 5.869091
46.89035 5.084433 5.093345
45.95081 5.160973 5.047134
46.31183 5.147073 5.072769
46.05526 5.166125 5.17936
44.95211 5.092727 6.072414
44.8573 5.062745 5.577639
43.39792 5.298481 10.16644
41.17897 5.414359 9.937589
39.81097 5.645916 11.61109
43.13699 5.405872 9.772029
42.42865 5.851504 8.35183
41.39033 5.473016 9.915019
39.47379 5.216869 16.38695
40.71719 4.307335 13.06665
42.01855 4.803028 12.00954
40.26379 4.115928 15.34628
43.70561 4.603914 13.97893
43.67628 4.584898 13.48784
42.79184 4.583278 12.86174
44.91245 4.613539 12.52601
45.63581 4.619471 13.15379
51.37312 4.958135 13.30794
50.7574 4.948263 11.91657
48.49197 4.518764 13.31084
47.69804 4.47541 11.59259
48.38407 4.468454 12.4918
46.16529 4.6168 12.16607
48.674 4.508564 13.26323
49.71158 4.537655 12.14483
53.38284 5.217232 17.20253
52.75208 5.106839 14.24426
52.55006 5.796681 10.34498
51.6075 5.227356 7.441635
50.82519 5.270859 8.381005
49.36834 5.956761 3.523692
49.68689 6.117207 0.4914495
50.5885 5.407948 6.034645
50.33119 5.774577 3.170178
47.88165 5.147188 7.194073
48.91437 5.660961 5.136036
49.0551 5.821459 3.492316
46.98205 5.063741 4.601542
45.64023 5.142303 4.9235
46.52464 5.104246 4.509766
45.20459 5.106563 5.342033
44.69218 5.057383 6.035551
44.58065 5.039119 5.74239
43.36318 5.304964 9.763044
39.49325 4.853821 16.97399
39.93972 5.695197 11.12582
40.05837 5.17112 13.16719
42.504 5.852558 8.003971
41.51432 5.53802 9.401188
39.34177 4.742329 17.07223
41.34629 4.952132 11.2881
42.05904 4.797174 11.74874
40.2143 3.945717 14.78104
44.38905 4.598321 12.84441
43.26001 4.557489 13.04552
45.10116 4.618543 12.30785
45.52276 4.625598 12.28971
51.43295 4.946849 12.98839
50.33981 4.794434 11.43962
51.90405 4.258201 16.20493
47.13437 4.549133 11.86322
48.55426 4.418343 11.89483
46.3089 4.614555 11.58346
46.74391 4.579953 11.50709
49.48666 4.480914 12.08094
52.92651 5.143168 16.77765
52.87856 5.1738 13.38902
52.65693 5.796976 10.36807
51.93288 5.467604 7.722213
52.45834 4.634306 15.44509
49.16051 5.936856 2.322472
49.74675 6.115571 0.5824121
50.51597 5.49021 5.558579
50.40554 5.652246 4.196403
50.13431 5.970034 1.932208
48.62701 5.427602 6.61526
48.86377 5.614648 5.440433
48.5464 5.399531 5.920138
47.73646 5.11337 6.259941
47.06969 5.055599 4.433756
45.95644 5.095409 3.737243
46.34152 5.108971 4.240344
45.0666 5.071741 4.911338
44.58667 5.03057 5.378409
43.49128 5.23711 8.773242
41.00895 5.393031 9.447441
39.83949 5.273058 12.74471
43.13248 5.423748 8.740795
41.89251 5.832908 7.837734
39.26394 5.619252 16.51897
40.62542 4.191381 13.34504
41.04228 4.84885 11.27294
42.26673 4.714011 11.88357
44.10688 4.585698 12.9104
43.21653 4.557082 13.00127
44.98489 4.615056 12.23079
45.45642 4.627993 12.05044
45.60319 4.638232 11.1553
51.55933 4.848131 13.52167
50.25316 4.76366 11.05594
51.91218 4.27303 16.27734
47.76039 4.447048 11.16766
48.46377 4.397491 11.53969
45.74601 4.636591 11.30471
46.59266 4.591424 10.87836
49.09089 4.41993 11.88305
52.514 4.369905 16.54371
53.01858 5.246651 12.44968
53.01879 5.631676 11.21745
52.11563 5.631432 7.701704
51.77435 5.283864 6.919059
50.97533 5.211599 8.152466
49.07768 5.913457 1.834609
49.26144 6.063718 0.03644762
50.54294 5.46353 4.466791
50.09729 6.010809 1.190732
48.69666 5.533424 4.809917
48.44899 5.346473 5.944788
47.37436 5.066656 5.145375
47.28701 5.061635 4.733233
45.5653 5.086594 3.907666
46.60649 5.062288 3.582863
44.99216 5.054368 4.715908
44.51914 5.019054 4.99389
44.06925 5.065417 6.576546
39.75298 4.295995 16.57047
40.05445 5.689638 10.67315
43.1214 5.439727 8.380325
42.41829 5.884943 7.879547
41.67536 5.661218 8.645348
38.70454 5.732806 16.90591
40.78509 4.430479 12.54585
42.28613 4.706699 11.4763
40.09069 3.9032 14.92075
44.34719 4.586038 12.48277
42.725 4.57864 12.04691
45.06132 4.618696 11.9664
45.0722 4.627187 10.74943
50.87999 5.01007 11.26717
50.10988 4.700442 10.65224
50.7589 5.006571 10.42037
47.59146 4.464715 11.05994
48.27891 4.359587 10.80543
46.38373 4.614015 10.66358
49.02859 4.380277 11.3301
49.80133 4.545119 10.85643
53.50798 5.074745 17.24783
52.63363 4.960684 13.445
52.22872 5.7158 7.799466
51.50589 5.148688 6.703237
49.01581 5.914878 1.079761
49.89305 6.120543 -0.07067519
50.57076 5.428224 3.070746
50.59841 5.382984 3.652078
50.19937 5.960869 0.5433126
48.49212 5.445611 3.652943
48.73835 5.615326 3.576826
48.85791 5.781144 1.820734
47.4893 5.07181 5.122732
46.80161 5.047427 3.425185
45.65642 5.06623 3.415322
45.28335 5.059339 3.905449
46.29387 5.084921 3.665919
44.90962 5.015769 3.795449
44.47137 5.001601 4.100861
44.13057 5.046772 5.858875
43.69487 5.155695 7.546913
39.65475 4.484691 16.53933
40.43719 5.542625 9.710175
40.555 4.873668 14.54856
43.07083 5.49986 7.787959
42.50223 5.907724 7.10719
42.11024 5.922733 7.42975
39.02229 5.805132 16.66863
38.76947 5.3311 17.00467
40.85453 4.635999 11.59478
42.04835 4.841779 10.48941
40.45061 4.001117 13.78177
43.97449 4.571826 12.6918
42.47691 4.637449 11.78116
44.89978 4.615295 10.87
51.38639 4.995187 12.11159
51.76597 4.160421 15.46501
50.92311 5.039095 10.78147
47.23612 4.512913 10.9936
48.66655 4.332884 10.78269
46.31821 4.620486 10.5942
49.13794 4.387712 11.27843
53.07637 4.260569 16.67693
52.75376 5.038532 13.19766
52.70507 5.834661 8.809853
51.92363 5.354122 6.228124
51.25882 5.128222 6.943382
48.80417 5.79237 0.8947298
49.69553 6.156819 -0.3009247
50.81825 5.226635 6.367538
50.42896 5.716466 0.60728
48.10542 5.20906 5.043385
48.29338 5.285236 5.21932
48.66492 5.59701 2.779693
48.45762 5.476464 2.210943
47.75106 5.108512 4.826363
47.35226 5.065615 2.853116
45.35192 5.039555 3.349345
46.12348 4.988112 1.74481
46.36763 5.049932 3.001824
44.81271 4.992229 3.154059
44.36982 5.002043 3.96289
43.81189 5.111061 6.093038
43.52139 5.219662 7.767753
40.15218 5.660943 10.167
40.07592 5.125765 12.61604
42.4701 5.937 6.855804
41.69153 5.735903 7.354145
39.24445 5.665312 16.18641
38.85789 5.194838 16.9118
40.84072 4.63815 11.31298
42.08387 4.830935 10.20536
40.46842 3.909001 13.05965
43.31958 4.497151 11.63519
43.29296 4.491934 11.55369
44.92986 4.623254 10.09427
51.46525 4.992318 11.54468
49.94016 4.611294 10.70887
50.25346 4.859175 8.291708
50.28329 4.904459 7.519154
48.28938 4.345426 10.64489
45.9194 4.667376 9.787173
46.66897 4.591039 9.928824
49.36469 4.39884 10.81925
53.45697 5.298659 16.89657
52.46127 4.821884 14.34821
52.76075 5.833139 8.689746
51.32866 5.112214 6.509
48.65348 5.721721 0.2391904
49.17751 6.06316 -0.3876025
50.49372 5.584392 2.15735
50.51249 5.562655 1.294915
48.5554 5.585568 1.450843
48.64519 5.655384 1.36525
47.61929 5.086854 4.238002
46.86884 5.041536 3.078428
45.68976 4.980721 1.811322
45.2897 5.018872 3.016832
46.14726 4.960309 1.284615
44.91355 4.993837 3.051834
44.20291 5.002595 2.60543
43.87926 5.082771 4.699543
43.47459 5.240596 7.250558
40.7517 5.407413 9.040787
40.14653 5.654354 9.829234
40.3772 5.036501 12.94624
42.85338 5.713562 6.999532
42.14177 5.978371 6.683506
40.44715 4.723509 14.87551
38.8821 4.85413 16.9148
41.62194 5.025043 9.843117
42.42344 4.644775 10.84351
39.95116 3.828428 14.75105
44.17708 4.558143 11.78675
42.86228 4.50692 11.05933
44.70504 4.598864 11.26842
45.16633 4.649563 9.817822
51.61618 4.501513 13.4227
50.10538 4.77399 8.214212
50.74067 5.047142 8.37742
47.94272 4.325944 9.837983
48.62339 4.263859 10.04527
45.67435 4.684347 9.076624
47.23943 4.483331 9.908631
49.14527 4.352551 10.70251
53.49459 4.147426 16.48886
52.63976 4.946588 12.90219
53.11019 5.582355 10.6679
52.19446 5.663115 6.655947
51.45708 5.108088 6.102423
50.15073 6.045348 -0.3621286
50.72322 5.240283 4.177394
50.38643 5.790262 0.04655034
48.39003 5.546365 0.09089027
48.19803 5.388803 0.7319679
47.69157 5.100102 4.158236
46.79833 5.030954 2.623638
45.62278 4.942173 1.248028
45.0683 5.005346 3.082911
45.88985 4.92382 0.8740075
44.82917 4.963886 2.337492
44.04932 5.036936 3.703928
43.49099 5.234336 6.51731
40.24648 5.605468 9.382524
39.88903 5.191827 12.33081
43.11146 5.495511 6.788313
42.78695 5.788273 6.589149
42.01564 6.000945 5.92874
41.23789 5.417933 8.400234
38.91423 4.336277 16.55737
40.72143 4.286029 11.38741
41.01818 4.886025 10.3652
39.83802 3.828792 14.74063
43.79163 4.510235 11.49436
44.44779 4.572796 11.35711
45.05308 4.64186 9.369271
51.22581 5.070721 10.77089
51.73049 4.11094 15.19545
50.00973 4.728851 7.801317
50.80828 5.060918 8.685366
50.55056 5.002509 7.694114
47.7809 4.355986 9.739823
48.80862 4.24449 9.807737
45.85942 4.682238 8.908894
46.87159 4.55086 9.426808
49.79312 4.529991 9.908715
53.25667 5.174584 16.51319
52.56231 4.908527 13.13857
53.11633 5.627448 9.90835
52.14936 5.602133 6.155974
51.39499 5.086329 5.793913
50.25783 5.972431 -0.3086864
50.78614 5.159647 3.134676
50.33024 5.895138 -0.1290037
47.94506 5.206546 1.984677
47.77298 5.125595 3.903074
47.42209 5.064795 2.126802
45.2525 4.937474 1.442639
44.91192 4.960814 2.240543
45.94965 4.890766 0.4824596
43.56338 5.200653 5.334057
44.06705 5.02751 2.430122
43.75122 5.122746 3.168419
39.69254 4.666497 16.09315
40.4918 5.466591 8.50506
40.12539 5.07045 12.07447
43.01202 5.616262 6.038619
41.66926 5.782265 6.153675
42.27301 6.02134 6.010036
38.88525 5.880373 16.34682
38.62722 4.490179 16.67394
40.65168 4.078712 11.90082
41.63825 5.04399 9.311123
42.05651 4.874021 9.211691
40.05611 3.716776 14.12446
44.04587 4.515358 11.00189
43.09089 4.405621 10.02412
44.57727 4.572105 9.821977
45.23285 4.664897 8.930895
51.62146 4.521505 13.02313
49.87445 4.57781 9.727205
49.94614 4.747444 6.537711
51.03412 5.085303 9.943978
50.89773 5.083456 8.028301
47.73544 4.347694 9.435603
48.60406 4.216615 9.46188
45.64695 4.735596 7.284887
45.96572 4.671253 9.462966
46.47832 4.617029 8.885815
52.51739 4.224342 15.76956
53.49045 5.107298 16.92131
52.42402 4.484472 14.60068
53.01795 5.734203 9.149587
52.02724 5.439909 5.863391
51.412 5.064375 5.39926
50.72144 5.208367 1.700022
50.55795 5.461648 0.237384
48.05002 5.327372 0.3079189
47.61404 5.101318 1.886138
45.21679 4.909645 0.9991592
46.50068 4.93224 0.6746042
45.62114 4.866014 0.3158063
44.77009 4.928432 1.461755
43.94394 5.056463 2.036719
40.67588 5.381623 7.930305
39.96453 5.688637 9.698598
40.62655 4.871626 12.84824
42.80189 5.847144 5.270178
42.31169 6.044229 5.547873
38.48069 5.575845 16.61407
38.5971 5.399209 16.64439
40.72134 4.282423 10.62814
40.87497 4.768096 10.13733
42.11213 4.851187 8.693938
42.3873 4.657437 9.378112
40.21136 3.681342 13.45609
43.48923 4.440358 10.66103
44.28886 4.538335 10.68391
45.32183 4.683575 8.390347
51.66821 4.733379 12.14534
49.74011 4.504287 8.69809
49.94429 4.732428 6.812714
50.1606 4.9713 4.054401
50.75087 5.047972 6.339448
50.3597 4.975117 6.207161
47.83728 4.29596 8.900626
49.0871 4.269154 9.744716
45.61794 4.731351 7.391784
45.99173 4.679812 8.578676
47.04253 4.493627 8.782331
52.40814 4.161359 15.65203
53.24709 4.768162 16.49106
52.39496 4.779584 12.77235
53.03288 5.748411 8.739549
52.13138 5.56948 5.930249
51.07725 5.074532 4.89401
50.7482 5.176043 1.758505
50.60127 5.387647 -0.05010188
47.89275 5.183347 2.303493
45.23129 4.889229 0.6416001
46.66105 4.93365 0.2519731
45.5887 4.846581 0.1008608
44.8558 4.907621 0.9519998
43.97247 5.049929 1.564313
39.5931 4.859484 16.19226
40.18993 5.518119 6.971146
40.14605 5.583856 7.92096
40.27677 5.010995 11.82637
43.04914 5.606937 5.311282
41.61662 5.731296 6.205039
42.4551 6.083596 4.489478
39.66408 5.024738 15.42288
38.92469 5.169163 16.36105
40.72575 4.301669 10.38831
40.882 4.83663 9.276127
42.55761 4.551671 8.228845
42.41831 4.638181 8.493917
40.11234 3.585642 13.28936
43.22016 4.372391 9.481102
44.17402 4.48596 9.594805
44.80124 4.603751 8.733033
45.25107 4.696681 7.639313
51.66048 4.530103 12.14386
49.66818 4.456046 9.187816
49.76178 4.636294 5.771131
49.98086 4.917203 3.45449
50.9888 5.095434 9.117547
50.3223 4.972327 5.810693
48.71786 4.204175 9.256802
48.81388 4.213479 9.378639
45.91201 4.711725 7.769326
47.49224 4.384997 8.857378
46.58666 4.596467 8.366609
53.51115 4.055151 16.08617
52.61588 4.861721 12.04823
53.1383 5.608529 9.870983
52.21026 5.655197 6.007786
51.5251 5.076724 5.29094
48.67701 5.79448 -0.3741072
50.64953 5.274979 0.3770367
48.22937 5.495996 -0.5686877
47.68772 5.159514 0.4198193
44.99688 4.892458 0.6680697
43.52703 5.235632 3.070823
44.48952 4.940207 1.115168
43.57791 5.239507 1.563568
40.43886 5.443265 7.629765
39.60212 5.274117 11.03918
43.18893 5.476439 4.808703
42.83062 5.853108 4.756389
41.50589 5.620603 6.041553
42.58479 6.039812 4.357602
39.47369 5.148237 15.4369
40.40047 3.695132 12.18832
41.25535 5.05838 8.915139
42.83698 4.446584 9.607077
42.30893 4.713608 8.60885
42.74899 4.462879 8.805429
40.04782 3.542778 13.27113
43.50467 4.36873 9.343602
43.99807 4.455143 9.77984
44.06486 4.430973 8.632647
45.03782 4.666582 7.34023
51.29586 5.109801 9.420948
51.53405 4.302818 12.96231
49.66695 4.462617 8.165286
49.74663 4.622347 5.754418
49.867 4.852037 3.448495
51.12481 5.110927 8.07228
51.05675 5.095739 7.365817
47.87289 4.22096 7.654142
48.64916 4.139618 8.012912
45.99282 4.707528 7.636124
46.26546 4.660666 8.035879
46.40264 4.642367 7.760947
53.60888 4.106986 16.13336
54.03471 5.194404 16.54998
52.33797 4.403648 13.84425
52.82967 5.856806 7.492592
51.96363 5.214251 3.692541
53.02406 5.077468 15.92485
50.88033 5.07175 2.324623
50.67491 5.246325 -0.2539529
47.45779 5.0672 0.9827082
43.3019 5.420394 2.721627
44.76413 4.907868 0.5321562
44.23001 4.987951 0.8615309
39.58465 4.914941 15.91912
40.56898 5.395514 7.587375
40.33566 5.423583 6.315661
40.42536 4.618651 14.47841
43.22801 5.462528 3.855307
41.57279 5.728621 5.237982
42.3782 6.11485 4.217819
38.3896 5.596544 16.37557
38.60223 5.347905 16.34801
40.72504 4.30839 9.924697
40.81075 4.755162 9.01874
42.21665 4.790227 7.768135
42.75715 4.445746 7.684178
39.58928 3.940204 14.59786
43.56897 4.357033 8.86205
43.92625 4.405027 8.711482
44.70515 4.58421 7.832689
44.99794 4.665198 6.93044
45.07556 4.694104 6.197126
51.62635 4.373451 11.45914
51.52511 3.94283 13.83924
49.60995 4.487223 5.793645
49.58864 4.583606 3.759845
49.89415 4.881541 3.029909
51.16947 5.114465 8.101882
50.99587 5.040165 5.657679
47.5118 4.379027 8.846794
47.82856 4.249978 7.977063
48.66313 4.091622 7.097769
46.17174 4.690537 7.513824
45.6889 4.76838 5.874043
46.64864 4.586719 7.835827
53.31873 4.017812 15.84005
54.25679 5.215998 16.42622
52.39965 4.313275 13.96086
52.68456 5.88723 6.804182
52.10868 5.42837 4.111691
51.45426 5.009034 4.215299
52.79176 4.421422 15.03823
51.15132 5.008108 3.835646
47.54023 5.117375 0.2516743
46.98114 4.979276 -0.03211137
44.91354 4.88098 -0.04631564
43.78901 5.149947 0.7628796
40.8603 5.330108 7.036336
40.14042 5.522849 6.602818
40.57373 5.346582 6.413615
40.36461 4.627665 14.4257
42.95839 5.790391 3.323451
42.80137 5.93047 3.766649
41.76944 6.010113 3.819368
42.23931 6.142928 3.957827
39.16692 5.774506 15.62443
39.23547 4.570081 15.75734
40.72185 4.279293 9.218974
40.73288 4.58321 8.566545
41.85785 5.028125 7.420971
42.04111 4.927415 7.187322
42.76498 4.431329 6.783435
39.54977 4.017931 14.51163
43.45316 4.349517 8.816819
44.32099 4.475531 7.955379
45.06543 4.689182 6.395792
51.36758 5.099119 9.518596
51.43289 4.08889 12.39782
49.60114 4.428282 7.430437
49.51472 4.490261 3.861083
49.69766 4.757183 2.704067
50.01319 4.9447 2.764601
51.08262 5.056098 6.096874
48.05843 4.133948 6.835823
48.7812 4.092318 6.921364
48.3723 4.11394 7.341119
46.02291 4.726801 6.513881
45.44946 4.774863 5.221391
47.54813 4.318946 7.822861
53.66413 4.081683 15.90014
53.66466 5.207106 16.41492
52.65262 4.259683 14.50745
53.17871 5.702213 7.626284
52.27968 5.69387 5.081678
51.77803 5.060153 3.459458
52.6286 4.814855 15.34645
51.15782 4.994883 3.452843
47.48247 5.102347 0.06016548
46.16277 4.853573 -0.5941144
44.61518 4.926497 0.05133658
43.8689 5.122178 0.5870259
39.76924 4.638904 15.4655
39.86916 5.659214 7.769969
39.50069 5.524278 10.15705
40.74308 4.519262 13.09056
42.98817 5.763189 3.091114
41.38097 5.512823 5.61741
42.13103 6.146915 3.912959
41.17519 5.384799 7.179171
39.22417 4.544523 15.35848
40.63351 3.817459 10.38031
40.7222 4.623932 7.847738
41.59708 5.128284 7.105053
41.94659 4.986088 7.192615
42.75215 4.431669 5.553943
43.07962 4.337967 7.357394
42.503 4.583077 6.044669
43.71583 4.337431 7.892076
43.91767 4.375658 7.984288
44.36797 4.488878 7.965171
44.90717 4.650073 6.425354
51.47353 5.093931 8.931107
51.48956 4.159663 11.91574
49.44537 4.326576 6.522216
49.50079 4.549803 2.723091
49.95092 4.932086 1.750655
51.37233 5.114823 8.250225
50.86413 5.025835 5.147069
51.1699 5.047262 5.826713
47.72005 4.216751 6.707116
49.10031 4.166018 7.165968
48.60522 4.040732 5.921475
45.88852 4.768315 4.994273
46.39694 4.653522 6.761739
49.29468 4.244714 7.401689
53.6248 5.585235 15.94967
52.36032 4.575538 12.49605
53.24856 5.360095 9.716523
52.77702 5.900802 6.213081
52.14169 5.430024 3.394618
51.87059 5.05464 2.520319
52.79674 4.431663 14.89847
50.89349 5.003882 0.01815894
46.41348 4.877076 -0.6079292
44.07075 5.075758 -0.118715
43.60019 5.315776 -0.009402768
39.95245 5.575755 6.156737
39.50532 5.597575 9.276405
40.73394 4.667351 12.39572
43.04143 5.742031 2.242963
41.44456 5.616202 3.940061
41.55499 5.787694 3.693766
42.3144 6.170022 3.453384
39.94402 4.96725 14.72841
39.09216 4.355444 15.83214
40.70924 4.052816 8.977254
40.95649 4.955849 8.373773
41.64366 5.114528 7.142474
42.00238 4.966838 6.665632
42.85318 4.382512 5.338464
43.09042 4.33067 7.125982
42.41802 4.647699 5.858554
43.66001 4.329068 7.865624
43.31134 4.29386 6.961804
44.26054 4.441136 7.174847
44.34959 4.463043 6.463765
44.91563 4.667856 4.926477
51.75992 4.787717 10.46024
51.70648 3.832606 13.85136
49.32758 4.299138 3.797496
49.56768 4.630902 2.694818
49.78294 4.854063 1.48806
50.3964 5.022628 2.791667
51.29585 5.016683 5.154081
51.28132 4.988902 4.465386
47.70813 4.220939 6.71909
48.71819 4.073201 6.638466
46.25002 4.695562 5.872999
45.48656 4.783543 3.688975
46.92688 4.497934 6.963168
47.46917 4.322904 7.370631
53.55471 3.965879 15.58932
52.36826 4.491871 12.28161
53.16322 5.081625 10.01819
52.84471 5.898421 6.252861
52.15335 5.349866 2.232768
51.13071 4.891492 0.1785886
47.60262 5.167161 -0.485925
46.91476 4.951921 -0.695
43.32347 5.539306 0.04126816
40.30037 5.381467 5.090813
40.78303 5.293953 5.772324
40.03426 4.947769 10.54322
43.07922 5.742698 1.287008
41.40437 5.54475 4.647956
41.7757 6.08844 2.656974
42.63404 6.133039 2.126315
39.33638 4.758528 15.15618
40.65114 3.832431 9.765369
40.69099 4.512877 7.359137
41.54688 5.139645 6.976481
41.00593 5.025304 7.629712
42.40286 4.672156 4.480274
42.89073 4.368274 5.247988
42.92505 4.360686 5.983496
42.52534 4.577753 4.190133
43.57905 4.327944 8.119614
44.05286 4.373833 6.926332
44.5284 4.522122 5.918216
44.72208 4.599765 5.143604
51.75716 4.82887 10.25382
51.82622 3.886125 13.84193
49.36066 4.294088 4.966541
49.20325 4.282441 1.045582
50.13168 4.98439 1.783772
50.53759 5.017914 2.28127
51.07328 5.009332 4.77736
51.36438 4.970476 4.195548
48.01456 4.046443 4.829288
48.17175 4.025551 4.987077
47.90506 4.090065 5.114517
48.27421 4.04906 5.81714
46.40697 4.65505 6.01372
45.79605 4.783672 4.09262
46.61142 4.592308 6.137369
47.06629 4.452757 7.063967
53.34206 3.947501 15.51443
52.37273 4.490197 11.94998
53.01402 4.920651 10.25755
53.11864 5.796879 6.75278
52.26305 5.625734 3.201728
51.89901 5.03609 1.980531
51.17656 4.918024 1.489228
47.43526 5.10396 -0.6355715
45.55326 4.840174 -0.4959062
43.81135 5.214221 -0.1774108
39.58891 5.659158 8.121649
40.08185 5.472502 4.972043
39.43383 5.319138 10.01123
40.7468 4.505333 12.57865
41.38301 5.551664 3.529089
41.50703 5.820596 2.081374
42.29815 6.216981 2.557485
42.70284 6.094669 2.048208
39.1669 4.427373 15.15539
40.45371 3.621677 10.43572
40.71727 4.780923 6.563832
41.55709 5.160212 6.309254
42.14555 4.887508 5.139097
42.21414 4.82491 5.545615
43.12481 4.30236 5.511882
42.47839 4.629637 2.41014
43.41297 4.281323 6.791131
44.0808 4.378585 6.783866
45.50546 4.772205 2.267132
45.24618 4.74229 2.960472
44.48652 4.502195 4.328442
51.69109 5.025039 8.42423
51.46612 4.020647 11.47065
49.1429 4.15955 5.853272
49.22175 4.267306 1.754187
49.42496 4.491522 2.167456
50.21532 4.992053 1.40203
50.40254 5.014577 1.97009
51.13568 4.976206 3.925331
51.56482 4.995615 4.931121
48.0991 3.971517 3.597575
47.86108 4.079824 4.668968
48.76321 4.0122 4.551425
48.35823 3.968853 4.179337
46.47871 4.636666 5.417905
46.33876 4.679834 4.718923
45.7796 4.786488 3.490341
46.70674 4.558789 5.464786
53.40166 4.534659 15.79065
52.82761 4.755766 10.42459
53.2201 5.162198 9.766705
52.50163 5.854516 4.721798
52.02703 5.101035 1.468535
51.28129 4.862806 0.5659109
44.87901 4.891439 -0.6600723
43.57274 5.407446 -0.5495098
39.86304 5.569534 5.122666
40.11794 5.416823 4.084819
40.63411 5.26779 4.496185
40.64076 4.660235 11.72109
41.28304 5.445939 3.539438
41.56063 5.898994 2.157036
41.90163 6.220728 1.557959
42.42543 6.225584 2.02557
39.27809 5.274529 14.88606
39.86465 3.500531 11.91545
40.69257 4.128272 8.004575
40.62021 4.518443 5.887857
41.59155 5.169842 5.749124
41.02254 5.090886 6.552004
42.31636 4.756478 3.867151
42.99146 4.327535 3.493124
42.70398 4.466185 2.480427
43.35453 4.265276 5.085087
39.52584 3.990647 14.04018
43.55417 4.280788 6.415601
44.05889 4.361224 6.109755
44.33129 4.446519 5.513686
45.58678 4.773489 2.178689
45.16731 4.724748 3.024656
44.49228 4.50421 4.149893
51.79141 4.666481 10.25842
51.69638 3.817392 13.35627
49.14225 4.156435 3.630687
49.24891 4.365944 0.6463845
49.84332 4.879138 0.3945455
50.68486 4.987262 1.651261
51.13514 4.973619 3.846498
51.52609 4.936979 3.859837
47.45551 4.235362 4.899144
47.73087 4.095026 4.125914
48.46198 3.931548 3.295882
46.66047 4.573815 5.180096
45.86421 4.778449 2.546137
46.82685 4.513693 5.533342
53.308 3.938004 15.27637
52.3982 4.39353 12.03344
53.09625 4.950299 9.828203
53.07047 5.862939 5.783329
52.20324 5.43638 2.032988
51.68309 4.924651 1.768043
51.58857 4.901303 1.643412
43.06464 5.858215 -0.1261271
39.57787 5.652536 6.588531
40.06768 5.423158 3.719388
40.80455 5.261887 4.581242
40.43077 4.578079 13.89239
42.83197 6.061936 0.1325877
41.59965 6.080894 0.4634707
41.8647 6.206441 1.451884
42.30185 6.253652 1.901588
39.38554 5.193404 14.78347
40.22223 3.573093 10.60152
40.62653 4.220507 6.7534
41.17168 5.098806 7.6081
41.35893 5.210154 5.216599
40.83532 5.012438 5.588136
42.17315 4.88306 3.957519
42.26097 4.808849 3.679894
43.10376 4.304196 2.110143
42.73541 4.451248 2.082031
43.46827 4.253191 4.692627
39.5032 3.895092 13.80434
44.10028 4.359859 4.964294
45.13991 4.705348 2.223313
44.21619 4.397357 3.898864
51.804 4.911198 8.899678
51.41602 3.852685 11.90171
49.02908 4.084646 3.222014
49.04306 4.12865 0.7097054
50.29591 4.985958 0.9203856
50.52492 4.989499 1.144899
50.97087 4.928079 1.498499
51.70501 4.912367 3.879794
47.9609 3.954534 2.732585
47.39178 4.295126 5.739125
47.65139 4.122204 4.087504
48.93072 4.044982 3.728945
46.59584 4.596139 4.038004
46.40631 4.669068 2.89576
47.12101 4.397325 5.651471
53.68277 4.261479 15.45368
53.10599 4.944354 9.655516
53.36216 5.569408 6.503951
52.54347 5.882701 4.009951
51.99265 5.000118 0.7376367
51.50511 4.835593 0.3213677
39.38303 5.575647 8.086967
40.34051 5.317166 3.884308
40.84795 5.267024 4.708621
40.31854 4.767271 10.53178
41.21869 5.395009 3.60549
41.4012 5.70028 0.9744534
41.84236 6.254375 0.5199205
42.41438 6.289809 0.4528725
39.90505 3.592836 11.56728
40.62127 3.988003 7.765601
40.6056 4.403732 5.993986
41.6903 5.177324 4.243034
41.89237 5.077131 4.475761
42.18716 4.898929 2.422843
42.22842 4.837096 3.789128
43.23474 4.284287 1.778945
42.79591 4.427872 1.303731
42.53059 4.620407 0.4931696
43.70943 4.267245 4.158593
45.80175 4.769027 1.005175
45.14573 4.703657 1.665543
44.15081 4.375206 2.824887
44.57032 4.52729 2.43751
51.43834 3.820837 11.79913
49.00357 4.075066 3.670099
49.12141 4.25216 -0.3797313
50.42128 4.941658 -0.1691113
49.66462 4.76316 -0.5204332
50.85231 4.899741 0.1050903
51.27966 4.877944 2.050908
51.67377 4.976018 4.850669
51.63299 4.884356 3.268659
47.84282 3.953741 1.991019
47.1204 4.388488 5.256601
47.42187 4.223851 4.265266
47.61005 4.035441 1.844677
46.73169 4.53932 3.895651
46.37247 4.68003 2.18369
46.02645 4.760472 2.065057
52.35103 4.433495 11.38044
53.29914 5.036878 7.934195
53.40331 5.403981 6.853496
52.51337 5.869388 3.620752
52.23144 5.30744 0.714844
51.63566 4.85605 0.7046427
43.24192 5.698805 -0.4601686
39.59129 5.617934 4.706445
40.20328 5.307921 2.526081
39.34816 5.242026 9.200241
40.68061 4.258762 12.50693
41.33298 5.537982 1.994508
41.90947 6.307843 0.06223107
40.18162 4.990349 14.04279
40.22799 3.60419 10.24021
40.5532 4.221863 6.146854
41.18268 5.185888 5.43004
41.83841 5.127363 3.612817
40.90626 5.074982 5.480984
42.05719 5.004174 2.616113
42.20955 4.90028 1.429621
42.31476 4.827506 0.1703653
43.45464 4.256746 2.754047
43.00349 4.348093 1.123203
42.77452 4.450412 0.6452233
42.5718 4.606692 -0.2090087
43.85292 4.295468 3.198795
44.03253 4.340114 3.283864
44.70798 4.577942 2.279065
44.91193 4.64298 1.646975
43.9734 4.327415 2.090906
51.85853 4.882758 8.383702
51.55931 3.72431 12.58436
48.94208 4.033043 1.538468
50.17826 4.927965 -0.4244393
51.51945 4.824733 2.049324
51.03061 4.879007 0.5465574
51.79656 4.90983 4.191916
51.70474 4.854951 3.066983
47.90836 3.873152 0.6940652
48.20415 3.827344 0.7053199
47.15386 4.350968 4.408563
47.53722 4.077374 2.10593
46.75114 4.529923 3.649412
46.27045 4.705989 1.818781
52.36573 4.386753 11.09087
53.06021 4.842555 9.403563
53.30081 5.719951 5.807811
52.34756 5.727999 2.149436
51.86995 4.896123 0.3012943
39.26192 5.479943 7.907331
40.40165 5.27308 3.236826
41.03543 5.30009 3.968316
40.2991 4.69665 10.17861
41.12827 5.336554 3.315966
41.37127 5.64878 0.8218733
42.25303 6.3018 0.9416954
39.80843 3.671424 12.10709
40.50741 3.894126 7.615015
40.68395 4.902171 4.736004
41.65844 5.219578 2.013646
41.29486 5.24234 3.765502
41.89599 5.099653 3.331113
42.28101 4.860177 0.1926736
43.11089 4.319118 0.9332277
39.53195 3.949291 13.48762
44.53571 4.513277 1.830264
45.96609 4.754891 0.5169119
45.20279 4.726327 0.4499712
44.28882 4.424586 2.046005
51.68646 4.131666 9.862189
52.05706 4.305903 14.00374
48.83955 3.978949 0.2091442
51.18024 4.832121 0.1574897
51.47833 4.784803 0.401334
51.76257 4.855627 3.257637
47.73556 3.905307 0.186316
48.01006 3.818543 -0.1536743
47.43717 4.15367 2.729256
48.75121 3.944417 2.067818
46.53468 4.612941 1.788239
46.55762 4.61208 2.162585
52.32691 4.370154 11.48128
52.89804 4.62773 9.351877
53.38623 5.609528 5.854695
52.39125 5.780309 2.055387
51.68074 4.831575 -0.487993
39.4819 5.632809 5.179674
40.03852 5.365233 2.205149
39.80787 4.871738 9.409508
42.79532 6.139266 -0.4607461
41.19368 5.391067 1.850534
39.91249 3.810482 11.56448
40.48211 3.807575 8.166808
40.61088 4.814532 4.408869
41.0154 5.14643 5.156126
41.6631 5.219743 1.482202
41.9718 5.095479 0.7993216
42.15434 4.978292 -0.340565
43.37452 4.278073 1.221593
43.0863 4.355314 -0.418824
43.89743 4.326534 1.046318
45.9011 4.766138 0.1591657
44.64827 4.567603 0.4322129
45.21083 4.721693 -0.2406227
51.91565 4.818182 8.130417
51.58418 3.705622 11.63855
48.78815 3.947308 1.19734
50.29721 4.923583 -0.4898532
51.78407 4.748244 1.733456
51.63837 4.76028 0.7968298
51.98407 4.861991 6.778827
47.68616 3.95484 0.7898347
48.55476 3.859788 0.632243
47.22624 4.222311 1.402847
47.28015 4.214552 2.06115
46.43101 4.630556 0.8100877
53.39201 5.476946 15.62103
52.53891 4.35404 10.24352
53.15888 4.81927 8.349289
53.39267 5.625359 5.543866
52.47519 5.868021 1.756081
52.62429 4.856503 14.90859
39.54772 5.61099 4.047726
39.5556 5.594754 3.269432
39.53038 5.025165 9.279922
40.28935 4.322362 13.01624
41.14967 5.352988 1.301717
39.18846 5.759985 15.06319
40.18251 3.719799 9.198099
40.28791 4.10025 5.467341
40.6673 4.926558 4.22185
41.51547 5.248385 1.582521
41.05427 5.210815 3.489329
43.707 4.281979 1.662789
43.34484 4.293705 0.5936463
42.57116 4.59029 -0.8413247
43.88422 4.324126 1.029299
46.0914 4.730947 -0.4549729
44.68848 4.582878 -0.3977363
44.21846 4.413765 0.8581117
51.73234 4.224206 9.521369
51.92024 4.288679 13.69917
48.72751 3.91735 0.2211311
50.0847 4.888813 -0.737925
51.89392 4.71452 0.7396467
52.10701 4.799856 5.429949
47.43744 4.064819 0.5915595
48.37225 3.793049 -0.4922371
47.06973 4.35385 2.663922
46.59941 4.558254 0.4175966
46.99919 4.395293 2.792597
52.38583 4.057523 12.25726
52.8964 4.510567 8.784196
53.43584 5.116004 6.64407
52.86605 5.986273 3.276321
52.34017 5.559507 0.1850329
39.14077 5.389783 7.24202
40.64732 5.21891 2.734426
39.97444 5.361703 1.554703
39.48398 5.032466 9.097221
40.50739 4.01409 12.58868
41.33891 5.694526 -0.2005084
41.65266 6.250435 -0.5406114
39.9963 3.932984 11.48302
40.27256 3.921687 6.742223
40.28759 4.237277 4.608754
41.29403 5.259708 1.825362
40.90623 5.15771 3.336889
40.79549 5.069433 3.95926
42.97 4.385003 -1.016844
39.84768 3.60817 12.77353
46.40067 4.63378 -0.2467479
44.19354 4.428031 -0.09273543
51.79364 4.32707 9.219563
51.68599 4.123732 12.99604
49.26514 4.416319 -0.9300281
52.10253 4.691808 2.46477
51.82566 4.741535 0.1360268
52.10169 4.79883 5.699124
47.22638 4.202549 0.8358124
46.85722 4.4365 1.232724
46.36909 4.653215 0.2585001
52.32448 3.962742 11.85735
53.06443 4.70271 8.540332
53.21275 4.70049 7.271744
53.46945 5.464417 5.560117
52.70961 5.99775 2.102357
52.21465 5.091971 -0.6103668
39.44939 5.605378 3.22756
39.44391 5.600942 2.722049
40.43501 5.199835 1.612997
40.16748 4.602435 9.400951
40.88241 5.228878 1.834831
41.17953 5.377175 0.3390285
40.04827 3.892248 10.27285
40.16906 3.997054 5.982159
39.97762 4.190274 4.002157
40.29963 4.359452 3.971814
41.49659 5.240175 0.1367349
40.75855 5.082709 2.981444
43.07582 4.346406 -0.7416658
40.03618 4.409595 13.58412
44.36497 4.47471 0.2246125
52.07949 4.022559 8.792128
52.28887 4.300468 13.98943
50.95527 4.8308 -0.7957358
52.37033 4.631294 1.465035
52.31618 4.624302 4.713912
46.9893 4.332283 0.3469082
47.97533 3.786955 -0.6049498
53.21642 3.780817 14.54275
52.29763 3.981398 10.6844
52.82765 4.372299 8.496484
53.52703 5.357388 5.217003
52.98491 5.987221 3.030618
52.34571 5.621866 -0.2907844
39.11682 5.534888 4.556721
40.099 5.261208 0.7924585
40.55501 5.189504 1.574328
39.80365 4.742289 8.703593
40.15747 4.126512 12.77673
41.01184 5.263333 0.8144578
40.08674 3.979136 10.11459
40.14278 3.949979 6.404555
40.09411 4.254993 3.811451
40.19187 4.383313 3.330338
41.67043 5.21205 -0.313068
43.55612 4.318818 -0.4009533
39.72535 4.121113 13.20363
45.16347 4.690129 -0.7851899
51.98147 4.042755 8.933381
52.16229 4.342623 13.84886
51.38364 4.780602 -0.439992
52.55283 4.618917 1.458964
52.36267 4.57118 4.791656
52.16476 4.606104 6.417256
52.96376 3.814287 14.26904
52.279 3.94073 10.61303
53.13298 4.578416 7.308635
53.5427 5.250734 5.163704
52.9314 6.008271 2.613226
39.26011 5.108818 8.089138
39.28884 5.602576 3.480774
40.02551 5.261999 0.2765208
39.4649 4.973191 8.674907
40.17056 4.061616 11.85677
40.90471 5.21052 0.5259913
40.06951 3.948632 9.661345
40.02879 3.986519 6.124762
39.70523 4.291667 2.7556
40.62414 4.966353 3.037918
41.013 5.185051 0.322758
41.95024 5.088729 -0.6234741
40.0276 3.818326 12.79705
45.04005 4.663408 -0.7741378
52.04171 4.210466 8.06224
52.17266 3.86946 10.2175
50.9506 4.835296 -0.9702663
52.72651 4.631148 1.401151
52.2357 4.598593 5.764727
47.95141 3.764275 -0.9347777
51.72145 4.193507 12.59487
52.97799 4.418931 7.604021
53.55936 5.223507 4.84549
52.95239 6.014407 2.424912
39.3322 5.069221 8.394261
39.10083 5.541586 4.032617
39.94074 5.297297 0.1525987
40.39332 5.161872 0.4514166
40.39151 4.336327 10.43024
40.81053 5.175298 0.2244016
40.05116 4.011925 9.121381
39.85184 4.053106 5.741598
39.63702 4.333514 2.27485
40.56134 4.913582 2.761322
40.87584 5.139307 0.2786362
40.67796 5.045139 2.333032
39.75211 4.083495 12.99396
44.55218 4.527581 -0.9886035
52.37718 4.040306 8.691442
51.84719 3.986837 12.22907
51.49699 4.762146 -0.6461893
52.69292 4.604813 1.675087
52.42337 4.439898 5.422193
47.43124 3.942376 -1.040737
53.83298 4.031262 14.68842
53.10906 4.483425 6.94125
53.53869 5.147965 5.143929
53.08512 5.990321 2.486166
39.35082 5.012051 8.255801
39.00132 5.459608 4.317353
39.53026 5.501585 0.35532
40.53782 5.148764 0.4330534
39.74718 3.991737 12.87365
40.14553 4.126788 9.640285
39.5744 4.205954 4.302774
39.54394 4.319472 2.421259
39.98924 4.368776 2.671293
40.74783 5.095271 0.6507032
40.65445 5.03812 1.978038
46.4881 4.57392 -0.9294823
52.44561 4.082574 8.295561
52.2027 4.436587 6.686039
52.85822 4.689605 1.079226
52.66615 4.485652 3.496247
52.92744 3.740682 14.03206
52.97209 4.346518 7.006905
53.36816 4.68596 5.410955
53.43267 5.744349 3.43179
52.67461 6.025806 0.3545009
38.93292 5.209693 5.258705
39.43319 5.587599 1.959535
40.68669 5.163363 0.6569515
40.30762 4.294404 10.03414
39.81458 4.095558 7.064073
39.3232 4.352259 2.646173
39.86328 4.402255 2.018755
40.70709 5.075984 0.644936
41.36549 5.206218 -0.9383035
52.25487 4.117543 7.879581
52.25687 4.309921 6.872998
52.94414 4.683083 1.300238
52.63834 4.374333 4.979109
52.81166 3.746062 13.88518
53.15372 4.452661 6.111666
53.61669 5.342684 2.961977
53.01297 6.045731 1.590398
39.04389 5.082752 6.375546
39.20236 5.58948 1.905789
39.42874 4.720366 7.258074
39.99681 4.175934 8.565985
39.3552 4.320019 3.517948
39.21779 4.416737 1.94554
40.22809 4.645898 1.903327
40.55805 4.994758 0.1257284
52.47068 4.132094 7.550359
52.85273 4.511294 2.819659
52.61193 4.788997 -0.1514181
52.38289 4.323479 6.303067
52.89891 4.28408 6.419094
53.63176 5.486763 2.036895
53.36529 5.906598 2.032992
52.53145 5.934843 -0.6905289
38.85138 5.312699 3.812752
39.21498 5.58676 0.9716867
39.23971 4.810314 6.774521
39.7924 4.217769 7.421355
39.13424 4.442811 2.863876
38.85929 4.616964 0.8133384
39.20378 4.494311 0.6255167
40.13201 4.584226 1.755709
40.50996 4.955453 1.012156
53.02544 4.590638 2.321747
52.55771 4.802056 -0.4645802
52.67805 4.301376 5.64651
53.18774 4.457492 5.369341
53.62458 5.58712 1.780574
53.01677 6.091652 0.615698
39.00283 4.967718 5.730809
38.9301 5.522071 1.832517
39.21956 5.575222 0.09938706
39.51463 4.576122 7.070737
39.43576 4.347859 5.675754
38.82565 4.647004 1.497501
39.03052 4.539266 0.6461627
39.41857 4.541872 -0.02548888
40.23835 4.812846 -0.006461729
52.51182 4.251089 6.404708
52.8569 4.829337 -0.01902303
52.95094 4.412972 4.233166
53.47859 3.649595 14.15981
53.48626 4.849559 4.315613
53.57114 5.079451 2.98402
53.0727 6.137179 -0.04902272
38.79153 5.360614 2.76369
39.5404 5.460119 -0.7142245
39.69629 4.454483 7.5061
39.1538 4.474276 3.966403
38.73141 4.75668 1.594649
39.99036 4.589446 0.9543312
40.22178 4.788785 0.2707665
52.93557 4.319192 5.632618
53.2179 4.868671 0.846242
53.01414 4.440659 4.0294
53.39733 4.679964 4.364969
53.60682 5.679179 1.740523
39.2929 4.603014 6.152492
38.82885 4.980899 4.203736
39.33781 4.461042 5.695699
39.08924 4.551019 4.069763
38.8613 4.631298 0.02400286
40.17282 4.779603 -0.01580573
53.29165 4.938861 0.6667969
53.01024 4.364815 5.250446
53.61488 5.340474 1.370821
53.53747 4.965067 3.24045
39.02015 4.863799 5.533751
38.85499 5.555395 0.6404562
39.13135 4.576844 4.740272
38.66791 4.791563 0.9750305
39.59887 4.578802 -0.1606823
53.30263 4.798535 1.799405
52.87421 4.896346 -0.6000224
53.59352 5.311323 0.5878052
53.47287 4.839259 3.162962
38.87459 4.889495 4.344012
38.87605 5.614602 -0.2493053
38.71935 4.835971 2.098908
38.88829 4.642696 -0.7263389
39.93177 4.678836 -0.199796
53.41394 5.008598 0.9283426
53.58402 5.288179 0.5911712
53.51643 5.068148 1.501519
38.62598 5.222546 2.045018
38.9819 5.612911 -0.2714112
38.56097 5.075249 1.291371
39.75927 4.686213 -0.899538
53.52998 5.287311 -0.2416761
53.40371 6.10442 -0.1307437
38.58307 5.260559 1.486882
38.84024 4.845592 3.701193
39.65983 4.599801 -0.4409849
53.49266 6.050846 -0.1101606
38.58947 5.55591 -0.2732645
53.25239 5.075611 -0.6621721
38.5157 5.447752 0.02984273
53.5404 6.093331 -0.7509646
38.54254 5.53495 -0.5341783
53.66115 5.828924 -0.5541478