# .PCD v0.7 - Point Cloud Data file format
VERSION 0.7
FIELDS x y z
SIZE 4 4 4
TYPE F F F
COUNT 1 1 1
WIDTH 2048
HEIGHT 1
VIEWPOINT 0 0 0 1 0 0 0
POINTS 2048
DATA ascii
6.282731 15.11036 24.63262
6.225041 14.96072 24.48622
7.019426 15.57019 24.84965
6.935242 15.68562 24.66564
6.190934 14.91273 24.25274
6.072314 15.02653 24.48274
7.294109 15.88449 24.25658
6.122173 15.50313 24.53717
8.659796 14.64664 22.695
5.881665 14.88104 24.13464
6.595903 15.77168 24.02397
4.388977 15.23146 24.26047
5.889026 14.82576 23.79897
9.485922 14.66072 22.36556
4.048584 15.34518 24.21895
7.749771 15.79692 24.48092
6.671953 14.81113 23.55505
8.427871 14.70013 22.56353
5.14397 15.57746 24.34864
4.464272 15.04244 24.20259
6.815965 14.80406 23.23188
7.936115 14.74162 22.64575
5.282021 15.74888 23.95294
3.8661 15.57871 24.11996
7.774658 15.80607 23.93586
6.788868 14.80029 22.98817
6.432847 14.78613 22.27969
10.24922 14.68047 22.6189
5.599728 15.75999 23.89749
3.303975 15.39852 24.05109
8.900925 15.84107 24.00302
5.4075 14.81878 23.4596
7.082771 14.79354 22.6029
6.671101 14.77821 22.0556
10.05949 14.66275 22.39059
6.064418 15.78575 23.46035
3.802041 15.70465 23.87688
8.600207 15.83088 24.05783
4.703582 14.84212 22.38473
7.267813 14.78426 22.04078
5.699576 14.82399 22.41071
6.578006 14.75381 21.4075
7.438162 15.79659 23.66527
5.417721 15.79013 23.08539
5.098741 15.78324 23.34647
3.674527 14.88509 23.66892
9.043416 15.81855 23.83202
10.95805 15.8572 24.07907
5.19384 14.84801 22.45858
4.347758 14.8233 23.20423
7.679627 14.77849 21.71758
6.453754 14.77037 21.75563
9.469177 14.72626 22.16578
7.972258 15.81192 22.77176
6.902561 15.78368 22.76793
5.481749 15.79649 22.76356
4.089088 15.75649 23.6707
9.927624 15.81396 23.43973
10.15784 15.8211 24.1833
5.444819 14.86056 21.81201
7.609725 14.76945 21.36202
6.412381 14.75468 21.30899
8.210803 14.78162 22.08908
11.26997 14.65448 22.77508
7.364341 15.78827 22.51374
5.161466 15.80026 22.65656
4.522629 15.78679 23.36987
3.536936 14.77851 23.20171
8.838248 15.79297 23.33941
4.856186 14.92794 20.55779
4.576083 14.83266 20.86616
8.08303 14.77822 21.20214
6.725914 14.7453 21.12086
8.311066 14.77572 21.63284
9.975856 14.74801 22.02204
8.862509 15.80077 22.2945
8.092701 15.79351 22.23663
5.042721 15.8114 22.30395
4.814929 15.80613 22.82273
3.192488 15.68244 23.60563
11.13062 15.81607 23.81518
9.687368 15.75416 24.18154
5.050425 14.9644 20.20992
4.451092 14.78403 21.27437
8.227434 14.77686 20.87664
6.246818 14.73899 20.29757
9.029377 14.75554 20.1643
8.909966 14.75636 20.16176
9.618621 14.76794 21.51784
9.982446 14.71737 22.1491
8.257736 15.79188 22.1039
7.248118 15.77646 22.12514
6.032252 15.82263 21.7388
5.233775 15.81429 21.6774
3.693148 14.70965 22.9614
11.7136 15.81718 23.73438
10.45134 15.81805 23.5359
10.60182 15.79163 24.29016
5.151553 14.99586 19.50007
4.324376 14.74859 21.86133
7.362285 14.75556 20.56506
7.103151 14.76017 20.02045
9.038994 14.77191 21.60373
9.532318 14.76156 20.8194
10.81356 14.68987 22.3854
9.29217 15.79042 21.62433
6.466674 15.78017 21.6891
5.070734 15.81931 21.43138
5.25497 15.83355 20.42753
3.736661 15.79333 23.09144
10.72075 15.8191 23.92616
10.1903 15.79834 22.90379
4.595676 14.84657 20.09446
5.677873 14.87068 20.41948
3.9688 14.74387 22.86428
6.035582 14.78423 20.08347
6.715803 14.69869 20.20755
9.816981 14.75625 20.00874
10.03065 14.76101 20.94687
11.09959 14.69908 22.45566
8.48417 15.76769 21.09097
6.979204 15.75259 21.73134
4.952514 15.81758 22.11227
5.480837 15.85319 20.36128
4.568295 15.86115 21.91376
3.340312 14.88757 22.97132
12.57325 15.82303 23.64729
11.82732 15.81577 23.3431
12.74424 15.81396 24.37476
4.844857 14.97442 18.7378
5.423844 14.95798 19.63959
8.148033 14.77536 20.32235
6.082369 14.77203 19.82082
6.440432 14.67541 18.60933
9.050416 14.74498 19.29767
10.57083 14.75887 21.27141
11.0679 14.76584 21.74134
8.75692 15.78313 21.37102
8.646327 15.77312 21.1818
7.665534 15.8007 21.0958
6.323818 15.80535 21.34343
4.638751 15.8696 21.13339
5.680253 15.88544 19.79826
5.002621 15.85366 19.05735
3.195611 15.69719 23.05916
13.81233 15.81503 23.87955
12.21953 15.82041 23.33452
10.49225 15.81013 22.74792
5.115026 15.06404 17.41867
5.333542 15.03669 17.81654
4.328603 14.56114 19.67064
7.610439 14.74019 19.92015
5.810041 14.86476 19.19489
6.452656 14.67401 18.40731
9.049739 14.73895 18.91773
9.881201 14.75502 19.39401
11.04752 14.74901 21.03323
11.5395 14.7654 21.9649
8.999298 15.77971 20.70021
8.417945 15.76332 20.70366
7.14886 15.74151 21.32961
4.710608 15.88006 19.72565
6.093745 15.88938 19.51022
5.542933 15.8804 19.50351
5.118296 15.8459 19.50448
3.659739 14.55004 22.45811
13.56202 15.81814 23.86527
12.10067 15.81471 23.00394
4.549926 14.78696 19.16833
5.274621 15.09084 16.65924
4.137389 14.4524 20.74853
7.721139 14.73933 19.58923
7.525839 14.72844 18.98054
6.354202 14.71033 17.73021
8.968153 14.73204 18.16622
10.28202 14.74243 19.94921
11.21701 14.74427 20.93146
12.29098 14.78545 23.38117
8.86847 15.76527 20.28968
8.58093 15.74436 19.69791
7.345068 15.73009 20.6223
6.322101 15.83601 20.02894
4.739082 15.87597 19.62213
5.930269 15.94096 17.92899
5.024849 15.86804 18.1688
3.824015 14.57971 22.40501
13.97252 15.79287 24.14421
12.77206 15.81014 22.51618
11.5162 15.80866 22.49447
10.97689 15.81214 22.52014
4.757664 14.92745 17.45616
5.51075 15.01009 17.38405
4.163654 14.38165 20.24603
8.090605 14.74117 19.17653
6.107482 14.76964 18.68997
7.909505 14.72628 18.5233
8.786259 14.73273 18.06456
9.748279 14.75451 18.55196
10.56134 14.73055 19.80048
11.59044 14.72577 20.85282
12.50483 14.77646 22.19522
9.950232 15.84941 22.34265
9.461283 15.79794 20.21816
7.680257 15.77778 20.15921
6.586884 15.76489 19.55022
4.227549 16.04517 19.48617
4.415345 15.94682 20.57108
5.546379 15.94178 17.38977
3.902787 15.98932 21.56563
2.659086 15.16445 22.89685
14.24497 15.82323 23.19392
14.61522 15.82835 22.8425
14.56085 15.82438 23.41619
12.92188 15.81205 22.29358
12.09768 15.7969 21.91903
10.58641 15.81197 22.31707
4.801376 14.97956 16.49659
5.73656 14.92707 17.6547
4.38656 14.45406 18.57556
8.351305 14.72228 17.88509
7.076831 14.6662 18.01194
6.916491 14.65326 17.83853
9.040328 14.72815 17.59863
10.6363 14.70108 18.80406
11.80463 14.72359 20.97126
11.97542 14.77746 22.75505
9.139061 15.76458 19.30626
8.654261 15.72402 18.59294
6.769312 15.70364 20.10963
6.160359 15.91361 17.9905
4.247318 16.05259 18.66776
4.197547 16.02725 20.40408
5.111609 15.88101 17.42351
3.498944 14.50213 22.19086
13.68874 15.68837 24.42448
14.8793 15.83479 22.67052
13.5477 15.8211 22.72681
12.26957 15.78424 21.40991
12.03091 15.78596 21.53708
10.58418 15.80735 22.17087
4.719606 14.89709 16.57834
5.74067 14.95305 16.71836
4.223673 14.13562 18.80552
7.522369 14.69799 18.05706
7.32075 14.68529 18.03706
6.681962 14.65511 17.02234
8.736612 14.72319 17.38542
9.397988 14.72549 17.32535
10.76263 14.695 18.7182
11.83375 14.71339 20.73592
12.86388 14.78734 22.40177
12.88587 14.82315 24.34993
9.170366 15.73792 18.43147
8.3961 15.72917 18.86794
7.856537 15.73646 19.18195
6.328271 15.86602 18.36492
4.27964 16.04563 18.04215
5.881102 15.99813 16.73445
3.743338 15.67625 21.79544
2.611283 15.32902 22.7268
15.21631 15.8127 23.76026
14.33005 15.83057 21.76713
12.43557 15.7895 21.42108
13.15008 15.81756 21.82708
11.39893 15.79909 21.37699
4.493319 14.52678 17.85664
5.103406 15.16083 15.3927
3.742232 14.23957 21.41748
4.282048 14.21097 18.57406
8.166377 14.71013 17.53146
6.795219 14.64567 17.15448
8.493902 14.71537 16.93225
9.829474 14.72563 17.5998
10.11414 14.74619 18.48475
11.19751 14.68387 18.99955
12.21719 14.72991 20.66264
13.47662 14.79187 22.94292
12.68649 14.80839 24.22202
8.604001 15.70769 18.02373
10.07698 15.74176 21.39846
7.668241 15.72092 19.23288
6.971683 15.67562 19.89584
6.398512 15.86792 17.7162
4.403371 15.99718 17.28656
5.976043 16.02389 16.33675
3.759614 15.97721 20.89682
2.994169 15.99335 22.38339
15.5072 15.78579 23.8557
15.0722 15.83819 22.14157
14.66442 15.82424 21.47187
12.45762 15.78164 20.91833
12.97422 15.81354 20.80383
11.68016 15.79026 21.47445
13.05284 15.4346 24.95323
5.098986 15.16943 15.23172
5.775838 14.98382 15.49942
3.999816 13.89936 19.44533
8.069921 14.68557 16.74718
6.648443 14.64746 16.53837
8.422155 14.70227 16.21476
9.27873 14.7471 15.18166
10.35444 14.70268 17.81445
11.18388 14.66858 18.38097
11.99104 14.7024 20.26676
13.4237 14.79579 23.02626
9.658221 15.74505 19.67611
9.223022 15.71811 17.80585
8.17876 15.7015 18.08033
7.803052 15.69227 18.24165
7.029999 15.70014 18.23213
6.424406 15.884 17.05131
4.160643 16.0927 16.89309
5.944325 16.04179 16.16845
3.698616 15.76802 20.77093
2.861355 14.68656 22.50821
15.78823 15.6807 24.02865
14.71405 15.82623 21.57674
13.64846 15.83958 21.0907
14.6704 15.8215 20.80448
12.29816 15.76066 20.05402
13.03533 15.82192 20.11798
13.36341 15.84568 20.02441
11.36681 15.80808 21.08251
4.468921 14.2859 16.75366
5.960416 14.88586 15.11623
3.876182 13.94681 20.10013
7.964393 14.66805 16.39668
6.55379 14.64968 16.01554
9.00825 14.72854 16.33273
8.773073 14.73244 14.41754
9.645629 14.73739 15.72552
10.56598 14.68955 17.80432
11.44064 14.6318 17.72643
11.53165 14.63792 18.03636
12.99036 14.75589 21.84995
12.68153 14.79327 23.33364
9.903063 15.6794 18.34077
9.221166 15.69402 17.25381
8.415307 15.67774 17.2127
8.172091 15.68412 17.58121
7.006299 15.72326 17.56236
6.500465 15.86209 17.04875
3.922622 16.13603 18.21796
5.83222 16.05332 16.0082
3.733639 15.43892 21.77892
3.043853 15.97255 22.0139
14.49157 15.32797 24.514
15.54591 15.84804 22.83137
14.38828 15.8291 21.15919
14.03475 15.85332 19.68872
13.91891 15.86083 19.33372
12.10235 15.74203 19.75012
13.33731 15.86407 18.4074
12.03436 15.72773 19.4121
4.4631 14.2595 16.55596
4.910261 15.13176 14.9189
3.846366 13.76112 19.44929
7.828272 14.66194 16.5261
6.607489 14.6072 15.49565
8.661327 14.72001 15.01681
9.485963 14.75855 14.4956
10.32358 14.69961 17.35799
11.95236 14.67257 19.238
12.36206 14.72415 19.88157
13.39518 14.74356 22.00329
9.915854 15.6848 19.14485
9.485352 15.69001 16.9755
9.150124 15.67248 16.51142
7.572646 15.67438 18.11681
6.493366 15.89682 16.28507
3.775445 16.11572 18.09825
5.548645 16.02924 15.53707
3.232613 15.5575 21.84379
2.483018 15.83683 22.26575
15.89587 15.77582 23.78105
15.12772 15.84488 20.97593
14.32938 15.83407 19.51573
13.66151 15.87374 18.4687
12.26705 15.7476 19.08717
13.1124 15.83577 19.34857
11.43325 15.7867 19.79818
4.414989 14.10981 16.3568
5.026701 15.20996 14.38232
3.416029 14.36398 21.31027
3.40594 14.30341 21.10714
6.567979 14.60271 15.16713
8.247869 14.68392 15.84794
8.975573 14.7672 13.57698
9.895363 14.7333 15.05401
10.60844 14.67192 16.63295
10.92851 14.64952 16.89697
12.14732 14.68135 18.94895
12.6376 14.71665 20.06385
13.74571 14.80103 23.32551
13.74439 14.77807 22.72565
9.739493 15.70045 17.69797
9.748001 15.65868 15.51502
9.528088 15.67891 16.57475
9.405141 15.65034 15.36208
7.883697 15.6704 17.35093
7.373566 15.68173 17.48871
4.828852 15.85653 15.94885
3.644839 15.93981 19.27903
5.440517 16.00133 15.27698
3.151629 15.74125 21.71066
2.609977 15.42166 22.2408
16.1452 15.70113 23.86674
15.17057 15.85214 20.2262
14.7811 15.81253 19.09152
13.90849 15.87736 17.56466
14.41718 15.82636 18.35012
12.41244 15.76383 19.21595
13.27757 15.87297 17.54682
11.61204 15.73993 19.33498
4.403267 14.07275 16.11469
4.619859 14.86029 14.73641
5.537819 15.20526 13.44195
3.393529 14.44619 21.1498
6.622262 14.57905 15.04925
8.449741 14.69714 14.94556
9.223488 14.78834 13.37686
9.720108 14.74725 14.65777
10.23338 14.70209 16.69418
11.2172 14.60908 16.52522
11.54414 14.56314 16.35443
12.85452 14.68868 20.07676
13.84041 14.78469 22.9189
10.13309 15.67997 19.07223
10.14923 15.68105 16.46829
9.447125 15.66264 15.82309
9.18943 15.64049 15.23936
8.307342 15.66916 17.01063
6.739068 15.80474 16.42513
3.842113 16.14604 17.31085
6.684349 15.83465 15.84259
3.37417 15.3548 21.66753
2.985277 14.70165 21.98562
15.68557 15.50113 24.22687
15.3084 15.87626 20.17414
15.91938 15.88787 22.38097
14.83696 15.80962 18.20496
14.44838 15.82358 18.23707
12.0624 15.71149 18.63897
13.22718 15.88677 16.92616
11.30172 15.7957 19.43759
4.45297 14.2332 15.69437
4.718539 15.03692 14.1484
5.724618 15.09161 13.58068
4.213139 13.72636 16.89231
7.120698 14.49722 14.56599
8.365001 14.68747 15.08583
9.187254 14.80532 12.44525
9.894633 14.77792 13.18189
10.25164 14.69951 14.97964
12.19779 14.60132 17.70752
11.89843 14.55794 16.83186
13.55423 14.6637 20.41278
13.62724 14.69618 20.92879
9.996744 15.68741 17.20134
10.07583 15.65185 15.19262
9.58 15.6375 14.51193
9.325766 15.62892 14.60652
8.509752 15.63566 15.97559
6.975079 15.73801 16.35848
3.984605 16.14919 16.46508
6.816481 15.7806 15.66421
3.769402 15.60907 19.96042
3.408816 14.72167 21.11418
14.37466 14.90307 24.23067
16.44962 15.76199 23.61046
15.8648 15.91342 21.94936
14.9214 15.81597 18.00074
14.50501 15.81047 17.37344
12.62954 15.80006 17.95171
12.56674 15.79537 17.32467
11.18124 15.81812 19.40278
4.402131 14.02231 15.66345
4.563979 14.81315 13.79797
3.516968 13.78475 19.67544
7.490856 14.49491 14.0955
6.941226 14.46046 14.06643
8.168246 14.64918 14.57294
8.508325 14.69833 12.54669
9.527574 14.81001 12.51846
10.44639 14.67298 14.83219
11.28197 14.57775 15.99118
12.31189 14.5548 17.12038
12.13248 14.52614 16.61038
13.18944 14.58919 19.30518
14.43935 14.80731 23.39244
10.16712 15.68342 17.64049
10.47519 15.64941 15.25621
11.26313 15.68381 16.41826
9.948187 15.63682 14.32825
10.84837 15.86877 19.88979
8.513247 15.59274 14.92791
7.704702 15.63663 16.23322
4.40621 15.95672 15.5418
6.628601 15.89324 15.05373
6.022521 16.21819 14.1044
3.660497 15.18838 21.21002
2.640581 14.43709 21.78055
14.99551 14.85559 24.03669
15.78846 15.98833 20.39108
15.25189 15.86842 19.55995
16.08662 15.93346 21.78556
13.71547 15.92384 16.5757
13.18506 15.90424 16.44156
11.24054 15.77743 18.74629
4.313079 13.76031 15.85961
4.515274 14.59577 14.52672
6.208868 14.72355 14.00693
3.407937 13.92226 19.87785
7.315347 14.42761 13.48089
6.693263 14.45851 13.39697
8.364128 14.67091 13.12873
9.290895 14.85279 11.01706
9.608375 14.8293 11.54622
10.58273 14.65081 14.83157
12.45442 14.6318 18.27983
12.3366 14.45743 15.90638
13.16396 14.57211 18.5232
14.45489 14.80872 23.32342
10.44524 15.72553 18.23696
10.53918 15.64136 15.09339
11.24496 15.6306 15.17362
10.29776 15.6263 14.24764
9.639895 15.61739 13.14087
9.267195 15.61538 14.02904
8.351541 15.57226 14.72254
7.673388 15.60678 15.62712
7.083181 15.68602 15.47762
3.644898 16.11016 16.82359
6.50148 16.01293 14.27871
3.782527 15.56727 19.44481
2.57016 14.43934 21.7907
14.63702 14.82843 23.9512
15.80724 16.03511 19.2575
16.04224 15.94619 21.65298
14.04216 15.88834 16.35907
12.21166 15.74943 17.33443
12.39972 15.77653 16.74141
11.8626 15.68392 17.89732
4.49045 14.48782 14.52404
5.432083 15.29461 12.36806
5.982511 14.91312 12.11128
6.287385 14.65137 13.12741
4.00932 13.40273 16.78515
6.620132 14.48397 13.43133
7.736843 14.50712 13.36581
8.383636 14.66369 12.34064
8.954908 14.82335 10.74151
9.531342 14.8614 10.74828
9.7889 14.8111 11.50446
10.31346 14.70764 12.86456
10.77539 14.62641 15.12151
12.8086 14.56714 17.59436
12.02562 14.44067 15.34515
12.40243 14.50154 16.47869
14.39391 14.82774 22.63381
14.16256 14.81828 21.42293
11.06262 15.66222 15.916
11.50207 15.67148 16.02339
10.06465 15.5997 12.56711
10.84065 15.84245 19.30106
9.216412 15.59611 13.25546
8.095115 15.56246 14.81062
7.880943 15.56931 14.98134
4.936821 15.82318 14.62852
3.56992 15.97671 17.63101
6.310833 16.19228 13.40449
5.357936 15.99381 14.32934
2.966335 16.15402 21.39627
2.337016 16.07468 21.92895
16.4212 15.77283 23.02236
15.79906 16.05122 18.59693
15.04277 15.80843 16.97569
13.83375 15.93363 16.16945
13.28614 15.97095 15.6103
11.32844 15.70802 17.6758
11.85031 15.70538 17.3219
4.489937 14.54589 13.65452
5.417126 15.30425 12.25238
6.311417 14.62277 11.59887
6.208408 14.70567 11.49718
3.859935 13.31249 17.37396
7.268141 14.38276 12.60614
6.404096 14.57613 12.97291
7.952444 14.54108 12.57612
8.724803 14.77303 10.50454
9.656546 14.85396 10.73252
9.889612 14.81201 11.00415
10.74717 14.62013 14.57681
12.79059 14.56194 17.42442
11.89746 14.38441 14.45278
13.40857 14.60347 19.09155
15.14003 14.80466 23.48499
10.72044 15.77395 18.10748
10.97865 15.60722 14.67115
11.56583 15.65416 15.53397
11.32323 15.61426 14.86931
10.15712 15.5807 12.05351
9.624971 15.58351 11.26574
9.109832 15.57942 13.01299
8.618922 15.52487 13.27389
8.052597 15.56966 14.97446
6.961715 15.72282 14.90039
3.631975 16.12937 15.92133
6.460751 16.11778 13.12651
5.956635 16.32855 12.86584
3.052878 14.87875 20.9976
2.583386 15.56339 21.45984
16.70932 15.67131 23.28913
15.62881 16.00451 17.82379
14.90269 15.74178 16.07546
11.98246 15.7254 16.87141
12.02081 15.72477 16.52891
4.144783 13.47438 16.13733
4.498262 14.62458 13.47553
4.821837 15.22553 12.65938
6.068033 14.84051 10.9085
6.088551 14.81472 11.6651
3.81252 13.26797 17.35796
6.588567 14.48445 12.98238
8.050777 14.54944 11.81852
8.631088 14.74104 10.80391
9.168443 14.92559 8.128745
9.757049 14.83314 10.94363
10.10832 14.74981 11.62835
10.86429 14.57277 13.50482
10.9652 14.56621 14.18868
13.03379 14.56809 17.79445
12.62707 14.39955 15.20056
13.63851 14.66831 18.69292
14.45505 14.90892 21.2202
10.95863 15.59497 14.4323
11.71166 15.70388 16.71624
10.86996 15.53069 13.03473
10.18752 15.59683 12.86308
9.575581 15.56444 10.60289
9.950537 15.58344 11.49742
8.832847 15.52912 12.45503
9.040249 15.54482 11.92882
8.039404 15.47291 13.31574
4.792546 15.79502 13.80592
3.595003 15.67906 17.7131
5.55825 16.18436 13.07095
3.994433 15.12255 20.36067
2.399151 14.50919 21.56721
15.9657 14.82369 23.6538
16.2091 16.05037 20.06305
15.5955 16.00117 17.04171
16.56022 15.51935 22.57545
14.56388 15.74888 15.77234
12.89639 15.94342 14.60983
12.25756 15.7375 15.27921
4.470351 14.3661 13.67992
4.515167 14.88803 11.59336
5.978203 14.93745 10.46519
6.41486 14.53764 10.36392
3.330572 14.07059 19.66774
3.401255 14.48006 20.13213
7.058481 14.33637 11.52262
8.479417 14.69691 9.248518
8.696442 14.79982 8.295679
9.384078 14.92252 8.695744
10.21642 14.72533 11.54964
11.32054 14.48714 14.18967
13.18539 14.57218 17.29309
12.27036 14.30389 14.09029
14.97365 14.95266 22.14586
14.62241 14.94484 21.50336
11.80106 15.69892 16.28514
11.56596 15.50599 12.90498
10.38514 15.55154 12.06712
10.56126 15.51506 11.69495
9.634651 15.53372 9.562147
9.278207 15.53123 10.3167
8.413625 15.45956 12.56216
7.051558 15.68931 14.14059
3.834363 16.1735 15.20141
6.90826 15.76621 13.52266
5.715058 16.33805 11.98432
3.165053 15.56683 20.82337
2.765685 15.197 21.25569
16.58697 15.50178 22.70398
16.0633 16.14953 17.67636
14.79392 15.7128 15.6388
13.88213 15.98058 15.2033
12.87895 15.9268 14.80847
4.044784 13.29277 15.8001
4.460659 14.14988 12.81175
4.49233 14.81916 11.40464
5.573338 15.2887 10.50643
5.680463 15.20968 10.80548
6.498684 14.48443 10.31875
6.141571 14.77446 9.346087
7.387108 14.34316 11.26925
6.757192 14.34019 9.444659
7.961709 14.49507 11.09846
8.159113 14.55339 10.09854
8.981855 14.9061 7.178676
9.815316 14.86988 8.732294
10.21552 14.72856 11.34062
11.16276 14.4301 12.12586
11.24071 14.46838 13.49619
12.85143 14.4445 15.5966
12.40809 14.30151 14.12084
13.75965 14.70706 18.89263
14.7507 14.95666 21.75393
14.58688 14.9817 20.80999
11.34444 15.46145 12.1236
10.69524 15.5486 13.0617
10.69577 15.50843 12.06325
10.32025 15.48621 9.861821
10.09232 15.5082 9.533578
9.409599 15.49716 8.920354
9.270613 15.51793 9.931951
8.442751 15.45156 12.29244
7.425335 15.53945 13.55547
4.442032 15.87449 13.84609
3.494589 15.7986 16.84282
6.514754 16.11476 12.59362
5.847252 16.38342 11.96396
4.115455 15.30164 18.97332
3.025081 14.79332 20.76702
2.693336 15.43775 21.14529
16.17656 16.14896 18.05374
15.65601 16.03164 16.47797
14.95931 15.71597 15.53551
13.9606 15.97973 14.70646
12.92892 15.96249 14.4613
3.961146 13.22925 15.75594
4.451506 14.37321 11.38229
4.490022 14.86797 10.90317
5.551803 15.30246 10.43422
5.994155 14.93195 9.629524
6.285428 14.63518 8.51684
6.176774 14.74133 8.971534
3.406285 13.30604 17.84787
6.831011 14.33387 10.03969
7.885154 14.4607 10.86527
8.26295 14.60004 9.418042
9.315671 14.94894 6.988256
8.532376 14.72997 8.08608
10.42341 14.66914 11.01311
11.39509 14.40065 13.11238
13.05306 14.49082 15.8609
11.98876 14.24088 13.16841
12.64892 14.24977 13.52987
13.94921 14.78857 18.71952
14.57471 15.03942 19.70019
14.33371 14.93198 19.62018
11.2669 15.41548 10.79879
11.02483 15.43035 10.94907
10.86933 15.45447 11.23082
10.6764 15.44736 10.37029
10.29073 15.44774 8.644642
10.21417 15.46204 8.696161
9.870889 15.4663 7.87668
8.900903 15.41883 9.085945
8.860721 15.44712 10.10705
8.618979 15.47283 12.08166
8.469028 15.3657 10.03253
8.199429 15.34719 10.48406
7.054729 15.67911 13.59153
3.460344 15.90682 16.3379
6.647419 16.01358 12.33558
5.769592 16.40162 11.40767
4.191726 15.23316 18.95798
2.887311 14.48485 21.01509
15.84859 14.68189 23.1038
16.32594 16.12068 18.36153
15.67628 16.04346 15.9942
16.47086 15.65582 21.47317
14.50679 15.73585 15.06509
13.38033 16.16622 13.22518
12.23429 15.71879 14.50433
4.447937 13.92821 12.8737
4.48306 14.91772 10.3387
5.37245 15.4048 9.910824
4.737415 15.24511 11.11295
6.622612 14.38387 6.359034
6.685892 14.36655 8.961399
3.280757 13.9461 18.80593
7.23329 14.28491 10.06172
7.591081 14.33618 9.997414
7.98431 14.45813 8.808996
9.346622 14.95376 6.411584
8.498578 14.71793 7.375189
10.7644 14.53556 10.99426
10.23269 14.73808 9.315909
11.4891 14.32765 12.39342
13.02058 14.44044 15.10862
12.15737 14.19249 12.87766
13.7723 14.74184 17.62803
14.70315 15.11611 19.25585
14.41256 14.99613 18.98945
12.16344 15.6931 14.28228
11.02785 15.36814 9.240775
10.67016 15.35968 7.94761
9.469514 15.44197 7.451181
10.18738 15.40837 7.338315
9.858742 15.41487 6.86517
8.855321 15.40533 8.976821
8.585252 15.34448 8.848841
7.425093 15.49105 12.51983
4.028686 16.08537 13.99735
3.844487 15.45237 17.52595
6.324047 16.33583 11.35784
5.223173 15.94578 12.81419
2.788339 16.41662 20.80289
2.182674 16.18929 21.24577
16.92111 14.87307 23.51981
16.47951 15.83678 20.53084
15.47446 15.91041 15.29512
14.67393 15.66613 14.57806
13.60939 16.22086 12.31774
13.29166 16.18134 12.80765
4.423031 13.78398 13.30048
4.428697 14.90654 8.946257
5.052667 15.39396 10.9421
4.775177 15.33072 10.13457
6.169143 14.7625 7.231761
6.622849 14.39234 8.326206
6.623907 14.39531 8.882105
3.360419 14.21566 19.32287
7.46017 14.29116 9.361395
7.75237 14.3673 9.262268
8.832117 14.85998 6.328459
9.076325 14.91193 5.171969
8.096622 14.49655 6.864528
8.585763 14.75685 6.223251
9.860443 14.88195 6.90684
10.5951 14.5843 9.363746
11.41624 14.30517 11.53936
13.05206 14.37213 13.98267
12.26902 14.12862 11.99741
14.00948 14.84273 17.77188
14.58178 15.08235 18.86144
14.45287 15.08915 17.20502
11.50998 15.44405 11.23244
12.33709 15.74764 14.19535
11.07322 15.35185 8.689594
10.60622 15.3327 6.875096
10.17671 15.39137 6.862734
8.765572 15.35177 8.029223
8.531087 15.32312 8.485228
8.254393 15.31738 9.380355
7.280201 15.54775 12.59487
4.130635 16.01118 13.45567
7.149743 15.60411 12.11595
6.480965 16.21932 11.43269
5.929316 16.49636 10.45696
4.171013 15.2591 18.61244
3.005152 15.92652 20.60609
2.389431 14.88737 21.09558
16.70776 15.48572 22.65959
16.27753 16.21278 16.53228
15.3073 15.77991 14.64817
14.41512 15.74472 14.12427
13.84945 16.09755 13.36519
13.06298 16.06335 13.63978
3.912908 13.23097 15.21175
4.436568 14.09417 11.16788
4.850922 15.3441 10.71229
5.628945 15.29751 9.191213
5.910095 15.06142 7.597557
6.777948 14.30974 5.801037
6.781713 14.31902 8.05965
3.26518 13.85048 18.47595
7.303179 14.25583 8.354626
7.09349 14.25826 8.553631
7.809284 14.37185 8.206001
8.838168 14.86058 6.109801
9.370236 14.93435 4.042537
9.221372 14.91508 3.4112
8.577295 14.74963 5.933183
9.923408 14.87168 5.900569
10.04314 14.82154 7.079684
10.70773 14.54142 9.803091
10.44181 14.64865 8.622805
13.67224 14.70931 16.05052
11.74366 14.15064 10.79658
12.31349 14.1321 12.11615
13.04988 14.3188 13.24094
15.16713 15.06531 20.52181
14.7119 15.14837 18.50245
14.5711 15.1244 17.65145
12.32047 15.73065 13.40269
11.78329 15.49951 11.23309
10.85776 15.32125 7.240619
9.771292 15.30772 5.027738
10.31157 15.33496 6.027026
7.836064 15.36489 10.98661
7.959908 15.32386 9.893291
7.504347 15.44213 11.39925
4.236739 15.91525 12.6932
4.005382 15.36673 17.35026
6.670304 16.06502 10.89644
6.346659 16.37596 10.59538
5.845038 16.48493 10.46957
4.201618 14.97384 19.57648
2.985543 14.68491 19.96982
16.36716 14.70508 22.79359
16.52745 16.0098 18.32725
15.74478 16.0841 14.58836
15.30215 15.75501 14.22497
14.47451 15.70813 13.92241
13.96644 16.05234 13.05529
12.88246 16.01581 13.19278
12.84874 15.99407 13.30569
4.354708 13.62789 12.57152
4.471701 15.04465 8.804984
5.327988 15.48302 7.991567
4.700894 15.31382 9.558846
5.928102 15.05569 6.686583
6.085848 14.87136 6.416045
6.364492 14.59389 3.92139
6.254568 14.7085 3.756652
3.284808 13.95054 18.43213
7.18903 14.2514 8.582882
7.729665 14.33255 7.314736
9.666156 14.93498 4.698258
8.942821 14.8574 3.562071
8.202873 14.55146 5.488069
10.30064 14.70868 7.2271
10.07949 14.81371 6.000621
10.85573 14.45771 9.375431
10.95861 14.4254 10.02523
11.48856 14.18474 9.864879
13.27156 14.4565 13.91892
12.60456 14.13517 11.90469
13.12889 14.33415 12.95693
15.43253 14.74031 22.34624
14.67457 15.17688 17.37312
12.22406 15.68321 12.79317
11.37272 15.35688 7.794464
10.84832 15.30306 6.294504
9.638117 15.31139 5.102947
8.782101 15.3133 6.961011
8.597415 15.25536 6.095921
7.934857 15.28782 8.199271
5.106017 15.87176 12.47619
3.373806 15.87657 15.3549
7.17299 15.59314 10.6875
6.310563 16.46687 9.624084
5.111439 15.87895 11.93426
2.832151 16.39432 20.48871
2.175907 15.78568 20.97708
17.37816 15.491 23.0829
16.18032 16.23056 16.09028
15.39959 15.76052 13.15169
16.42048 15.07305 21.58615
13.44588 16.35784 10.16366
13.72139 16.36385 9.322771
13.12839 16.26016 10.68472
12.6357 15.88241 13.35929
4.349463 13.74697 11.42358
4.326797 14.60913 8.066971
5.087563 15.48791 8.794862
5.513432 15.40139 7.913966
4.845966 15.41136 9.39824
6.034507 14.95082 5.280442
6.913578 14.27989 4.128685
6.561299 14.43154 4.668762
6.353608 14.62681 2.507346
3.495478 13.13231 16.50308
7.167334 14.22878 6.284434
8.588274 14.73416 3.984021
9.431833 14.92739 2.886212
9.148481 14.91056 2.78932
8.188784 14.5405 4.777223
10.44664 14.63865 7.436931
10.16637 14.7829 5.057751
10.72386 14.52108 9.339725
11.78359 14.09848 10.1492
13.5194 14.59795 13.86205
12.04909 14.05876 10.49453
13.87346 14.82044 15.71133
15.40376 14.74435 22.02608
14.41682 15.13225 15.8476
12.28895 15.71316 12.66374
12.03131 15.59364 9.636215
10.59179 15.30179 5.53195
9.527771 15.28639 4.763085
9.048973 15.32739 6.286256
10.22413 15.26213 4.251971
7.615883 15.37399 9.696869
8.068778 15.26414 7.414412
7.813342 15.32086 8.997764
4.464204 15.78183 12.01487
3.897055 16.11604 13.15917
4.1956 15.2486 17.3466
7.098982 15.65454 10.07482
6.645216 16.18959 9.100088
5.778112 16.55827 9.196679
4.271539 14.89143 19.29198
3.024106 14.77692 19.74484
16.61908 14.61449 22.79093
16.60716 15.80578 18.71391
15.87036 16.16275 14.67619
15.39508 15.72486 12.62488
14.18352 15.90502 12.93752
13.47096 16.40302 9.327937
13.8297 16.25955 10.34449
13.00153 16.20401 10.77637
12.78158 15.98191 12.74357
4.347714 13.65596 12.12864
4.295705 14.61827 7.582575
5.333683 15.52567 6.116258
5.171441 15.53567 7.110599
4.540369 15.24133 7.856257
5.947898 15.05911 5.14147
6.210322 14.78889 2.385137
6.540113 14.46458 2.998416
3.569895 14.3549 18.50001
7.380914 14.24096 5.612288
7.104003 14.23871 5.052173
8.486902 14.68997 4.375697
9.650006 14.91266 3.237901
8.573917 14.73566 2.767329
7.846235 14.38062 4.074101
10.51391 14.59304 6.591461
9.784029 14.90675 3.774073
11.49372 14.11322 8.483475
11.82854 14.0979 10.35087
12.52571 14.04317 10.3843
12.17056 14.02279 10.10168
13.0517 14.26047 11.60336
15.36624 14.83217 20.55127
14.50079 15.1673 15.96168
11.75268 15.47195 9.276114
12.10056 15.6368 9.32443
11.28731 15.34492 6.416461
9.372859 15.3014 5.18732
10.13521 15.22567 3.625434
9.910656 15.2333 3.768698
7.639019 15.36418 9.541051
8.006508 15.25022 6.07571
7.859561 15.29 7.562662
4.020382 16.02841 12.53919
3.683566 15.4606 16.32802
7.335352 15.49454 9.766928
6.795672 15.98432 9.464686
6.516592 16.33751 9.071047
5.706782 16.54546 8.936842
5.097765 15.8824 11.14379
2.662502 16.5365 20.37882
15.69097 14.504 22.30439
17.27444 15.52586 22.74306
16.42423 16.22525 15.96021
15.23452 15.64767 13.05242
14.90833 15.56295 13.01816
13.27407 16.43318 8.468325
13.99201 16.14529 10.47116
12.87814 16.12616 10.9152
13.02754 16.31909 8.890591
4.208121 13.47305 12.71178
4.33777 14.82911 7.447765
4.914491 15.50963 7.541233
5.529143 15.42835 6.435433
4.556537 15.29329 7.395699
5.769238 15.30224 3.37379
5.919784 15.14935 2.88554
6.125925 14.91047 1.875152
7.086001 14.2404 4.990144
6.476531 14.53435 2.057409
6.206209 14.8303 1.14882
3.380136 13.26697 17.22285
7.467793 14.2586 4.852058
8.319658 14.62105 2.292975
8.53698 14.71937 2.756753
7.868568 14.39596 3.524646
10.49924 14.5995 5.792384
10.1968 14.74955 3.465009
11.39108 14.16018 8.517719
11.2871 14.23573 9.058978
13.68418 14.71869 13.97245
13.24921 14.38857 12.28457
12.82312 14.10492 10.07791
12.36047 13.93109 8.32351
15.24265 15.07483 18.95833
15.14029 15.16178 18.04809
11.83748 15.49983 9.172189
12.11469 15.6358 10.25087
10.60797 15.29213 4.958074
9.318713 15.33632 5.824933
9.992928 15.19033 3.072574
9.822592 15.20594 3.341091
7.426107 15.44241 9.083282
7.762093 15.30163 6.459996
7.546537 15.38135 7.247778
3.845653 16.1177 12.74168
3.723447 15.417 16.10722
7.177291 15.60665 8.413198
6.594802 16.33705 7.686002
5.579834 16.47881 8.788334
5.201971 15.98156 10.35265
3.067179 15.56234 19.82778
2.157836 15.71509 20.87389
17.17642 15.0709 22.92981
16.56263 15.56242 19.07185
15.74017 16.03634 12.54122
16.51044 15.26459 21.85004
14.11253 15.99744 11.59896
13.40561 16.54717 6.750185
13.82625 16.36201 8.326125
12.78173 16.02282 11.81718
3.695212 13.51988 14.82023
4.271668 13.92885 9.788865
4.465764 15.19521 7.072591
5.240447 15.57697 4.264889
5.003575 15.54918 6.515247
5.626266 15.41427 3.912756
5.892081 15.20347 2.016393
6.569738 14.47784 1.741084
3.642325 13.39075 16.41089
8.235867 14.57482 2.75638
9.900581 14.85281 2.293274
8.651846 14.76881 2.046222
7.837111 14.39229 2.925653
11.03105 14.2734 6.639081
10.43679 14.58961 2.894578
10.39718 14.65248 4.11362
11.71349 13.91587 6.431975
11.40758 14.10769 7.578455
11.89032 13.92043 7.368866
13.97171 14.91403 14.6407
13.46069 14.54243 13.05333
12.79172 14.08142 9.731594
12.15669 13.9239 8.205871
15.37732 14.82929 19.2884
15.19177 15.13599 18.05082
14.26496 15.16559 13.14865
11.72689 15.46257 7.869751
12.45194 15.86071 10.27765
11.42403 15.37204 6.595514
11.00031 15.30674 4.562402
9.084164 15.24513 4.661824
10.38653 15.18519 2.828079
7.442867 15.42949 8.213672
8.202928 15.22087 5.10542
7.585459 15.36011 6.264169
4.03249 15.98999 11.96133
3.857463 15.33698 15.99239
7.260432 15.53798 8.165378
6.619594 16.30008 7.781061
5.799436 16.68175 7.550896
4.059158 14.81736 19.31159
2.217701 14.26051 20.56791
17.21991 14.66255 22.66384
16.51364 15.46772 19.21955
16.14448 16.29099 13.95833
16.27772 15.1507 20.6063
14.21095 15.891 12.21429
13.19358 16.48711 7.109508
13.43111 16.57878 6.14326
13.87133 16.36691 7.780561
13.61571 16.55078 6.309508
12.7825 16.1224 9.797444
3.594792 13.54504 15.68267
4.177489 13.65577 10.98991
4.224414 14.30432 7.862757
4.758176 15.45457 7.354018
5.135907 15.59266 3.479131
4.946552 15.56001 6.050824
5.807244 15.29357 1.533872
7.269676 14.26432 2.829454
3.785791 14.76937 18.72739
7.410993 14.26774 3.38824
10.00725 14.81127 1.050258
8.356413 14.64741 0.9871826
7.862941 14.41004 2.524474
11.24568 14.11721 6.13493
10.53104 14.56342 4.150975
11.31333 14.12768 7.116632
12.10169 13.8926 7.482996
13.57817 14.6548 12.2655
12.97384 14.17974 10.1246
15.39105 14.67093 20.15758
15.25395 15.09899 17.26313
14.36822 15.21989 13.15868
11.79494 15.50954 7.030624
11.63605 15.46134 5.926026
11.07181 15.30417 3.860176
9.045695 15.13971 2.980589
8.675355 15.18289 4.084273
9.867734 15.09669 2.056813
8.507804 15.15672 3.598732
8.024463 15.2222 4.183948
7.335859 15.50644 4.942988
4.013764 15.89839 10.03492
4.08407 15.93031 11.36342
4.424898 14.8171 18.27028
7.260797 15.56176 5.332383
6.940078 15.86394 7.452929
6.504593 16.43746 7.634595
5.921538 16.65988 8.18994
4.30767 14.7445 18.92331
2.108092 16.39689 20.60372
17.55357 15.51218 22.78709
16.64393 16.15055 15.53842
15.63515 15.91194 12.09668
16.23304 14.99515 20.47788
13.23934 16.56687 5.853238
13.46728 16.70931 3.470062
14.02292 16.22884 7.960046
13.70865 16.56156 5.577311
12.84896 16.27713 7.742682
3.622675 13.60968 15.87517
4.07745 13.56435 11.50081
4.124302 14.20247 7.610182
5.057415 15.5888 5.050199
5.40132 15.53872 2.775912
5.622592 15.43613 1.752627
6.986075 14.32307 1.43602
7.329679 14.27271 2.718506
3.46532 14.13212 17.81276
10.16587 14.74427 2.19694
7.704853 14.36192 2.162715
11.14102 14.16711 5.796651
10.59856 14.46431 2.620584
10.72259 14.43419 4.820037
12.08103 13.81772 5.889153
13.27185 14.40059 11.1027
12.76279 14.02005 7.332519
12.62859 13.96686 7.964473
13.15518 14.30611 10.37728
14.74963 15.27466 15.54014
14.01916 15.01898 12.81996
12.05484 15.64357 7.692516
12.54403 15.96136 9.347519
11.67149 15.50256 4.750206
10.82665 15.23758 2.976884
10.37879 15.16989 2.505551
9.578639 15.03845 1.610044
8.475759 15.14741 3.361756
7.465199 15.43137 4.192825
3.882452 15.95792 9.705859
3.784238 15.34412 15.484
6.986848 15.81481 7.127969
6.81375 16.04893 7.247669
5.383968 16.32113 8.059895
5.798283 16.70462 7.181917
5.195682 16.00065 9.370122
3.262006 15.17082 19.24266
17.25765 14.47049 22.33945
16.56651 15.49557 18.49958
16.21 16.33192 12.79107
16.42668 15.1357 21.30679
13.11948 16.54829 5.531882
13.33443 16.72277 2.828764
14.03329 16.31451 5.880909
12.81422 16.30198 6.834363
3.751013 13.8236 15.34307
4.086952 13.77359 9.852547
3.938908 14.21068 6.622679
4.887152 15.56664 4.936163
4.664887 15.46092 5.631414
5.766421 15.31155 0.8998421
6.713832 14.40396 0.3888929
3.535377 14.16197 17.55944
10.26507 14.68085 1.435517
11.22058 14.08091 5.065224
10.46959 14.55328 1.933724
11.44915 13.94488 4.950049
11.93732 13.80116 5.363308
13.40461 14.5246 10.77234
12.89079 14.10397 7.855966
13.28522 14.42381 9.807783
15.56922 14.38987 21.39724
14.03954 15.08047 11.55003
14.31038 15.23343 11.54018
11.93887 15.63712 5.641798
12.2745 15.79894 7.908912
11.4263 15.40203 3.627179
8.703815 15.12987 3.006406
10.1037 15.08858 1.490039
8.21891 15.17529 3.636033
7.275817 15.55843 4.79876
3.894753 15.92282 9.15936
3.374094 16.11576 13.19866
4.470766 14.73715 17.72002
7.118401 15.68827 5.765464
6.707271 16.26206 6.152407
5.506216 16.55262 6.822798
4.99094 15.80859 9.945549
2.944643 16.0609 19.68607
16.85157 15.45759 21.87591
16.57317 15.45626 18.01487
16.41135 16.30861 14.20857
15.32284 15.52963 10.42975
14.56825 15.59385 11.2482
13.08789 16.59472 4.474406
13.65607 16.68433 3.149017
14.33217 15.78317 8.682832
14.09252 16.24534 5.576569
12.74197 16.21759 7.424264
3.741688 13.68019 14.36103
3.995543 13.70423 10.2397
3.598996 14.19385 5.771801
4.363089 15.17879 5.359673
5.044536 15.57573 2.34602
5.44113 15.52377 1.606469
6.108238 14.91547 0.5526769
3.607028 14.27466 17.82189
9.006602 14.84394 0.7006727
10.69012 14.41201 3.129421
10.45043 14.56135 1.704156
10.85964 14.30318 3.871049
11.50573 13.8639 4.057926
12.10122 13.73101 4.171647
13.35692 14.48585 10.28359
12.83613 14.06036 7.137528
13.28981 14.42956 9.700407
15.67573 14.30079 21.3216
13.93381 15.01163 11.38763
14.39105 15.27286 11.32271
12.15873 15.76222 6.499184
12.36063 15.88717 7.487593
11.0249 15.27973 3.089857
10.37524 15.13573 1.566788
7.82602 15.26204 3.554553
4.461622 15.69781 10.08218
3.881466 15.90465 8.620606
4.220393 15.74042 9.182162
4.392514 14.99734 16.33729
6.888284 15.98322 5.979173
6.846077 16.06572 5.539738
5.232483 16.10952 7.441817
5.137663 15.93881 8.765666
6.322774 16.67816 6.227849
2.814504 14.27096 19.75582
17.20355 14.60622 22.22138
16.2471 15.08856 19.25098
16.48201 16.29139 14.1847
15.68063 15.8754 10.71404
16.1954 14.75767 20.08683
13.025 16.57277 4.267577
13.68694 16.69322 2.450595
14.19891 15.99669 7.720813
14.18953 16.06174 6.102079
13.92362 16.53023 3.054483
12.57668 16.10328 6.91831
3.818279 13.69555 16.15864
3.794122 13.73658 10.69956
3.778789 13.94541 8.059814
4.1705 14.82309 5.341008
4.809242 15.54001 3.193506
4.528935 15.38052 4.940206
6.211648 14.81585 0.1808303
3.371814 13.86156 17.2184
9.146403 14.87467 0.3278387
10.49354 14.52885 1.669504
10.74793 14.32393 2.061966
10.71367 14.36358 2.287128
11.66328 13.75066 3.10052
11.99024 13.67054 2.698654
13.82768 14.95234 10.78135
13.61265 14.77405 10.1298
12.82826 14.05593 6.09636
12.38236 13.80165 4.960101
15.18112 15.2328 15.51235
14.63507 15.33517 12.89417
14.52933 15.32122 10.47491
12.35768 15.92279 6.599328
11.68409 15.52301 3.719512
9.142862 15.05156 1.819836
8.291391 15.14917 2.59526
7.413329 15.50248 2.944533
4.353146 15.72263 9.894366
4.294733 15.69595 8.788478
4.087015 15.13328 15.11983
7.058973 15.88146 2.68713
6.969294 15.90854 4.728798
6.650476 16.42313 4.72086
5.342711 16.34448 6.679956
5.923805 16.81409 5.890103
2.911659 16.2712 19.70132
17.31176 14.33548 21.90725
16.28719 15.13632 19.03718
16.41088 16.33246 13.41467
15.77623 15.98726 10.55866
15.12116 15.41161 9.629786
16.25003 14.68056 20.2411
12.99676 16.6431 2.40153
14.31507 15.81048 8.277666
14.1562 16.1956 4.137246
12.60728 16.17114 6.134514
3.82024 13.87721 15.79837
3.787208 13.83988 12.39795
3.69642 13.93636 8.27703
3.481943 14.31304 4.565199
4.30877 15.11666 5.092427
4.869803 15.55015 2.771258
5.695066 15.35667 0.7750098
3.748609 14.32014 17.33274
9.485807 14.89401 0.2240201
11.17216 14.00489 2.671162
11.28073 13.91906 2.573117
12.03927 13.65137 2.200831
13.76442 14.92598 10.21235
13.66966 14.83683 10.06281
13.01667 14.2457 5.694301
13.24516 14.41624 8.616663
15.62511 14.09783 20.4127
14.89911 15.33488 14.44101
14.71273 15.36261 12.63601
14.53578 15.32105 11.41547
12.29166 15.95281 4.577955
12.40043 15.99925 5.793381
11.61535 15.51445 2.859368
8.799645 15.06204 1.58488
8.178068 15.16841 2.481239
7.31303 15.59621 2.727436
3.905256 15.87208 8.309731
3.296737 15.54005 14.12166
4.333217 14.51213 17.89318
6.861897 16.13327 3.718477
6.421448 16.67144 5.149654
5.348065 16.50793 4.545591
5.468166 16.65369 4.912157
6.304567 16.78694 4.67464
3.213364 15.00204 18.9581
17.24695 14.49144 21.91439
16.30564 15.15185 18.79332
16.13284 16.31669 11.73344
15.46756 15.56154 9.569427
16.42209 14.52622 20.34927
12.85886 16.61386 1.472104
14.37954 15.71467 8.024573
14.32768 15.78171 5.077373
14.09072 16.32825 3.636959
12.63821 16.31641 4.012148
3.958044 14.07116 14.72684
3.719446 13.88267 11.25548
3.443602 14.10429 6.816181
3.493007 14.34135 4.334663
4.352328 15.21551 4.597653
4.70731 15.46706 1.585879
4.485762 15.37653 3.422818
3.49991 14.03178 17.18572
7.618198 14.35219 0.47143
11.4356 13.77173 1.51549
12.43315 13.79072 4.050329
13.48541 14.71192 8.678333
12.95687 14.16842 6.136099
12.5802 13.85437 3.696528
15.12386 15.27883 15.01632
13.65631 15.01498 7.070136
14.95015 15.35471 14.00516
14.62729 15.34873 10.85252
12.47866 16.11334 4.976243
12.07404 15.86823 2.585612
11.47822 15.44705 2.759188
10.43021 15.11474 0.6320523
8.256986 15.16337 1.80429
7.546952 15.46803 1.836862
3.718344 15.95954 7.870346
3.471137 16.13714 10.42144
3.266456 15.57171 14.03957
4.466982 14.47211 17.03726
6.772682 16.31507 3.166098
6.63545 16.52304 3.368324
5.315425 16.45543 4.458687
6.176397 16.8314 4.899519
2.386265 14.08838 20.13213
17.20313 14.5526 21.89832
16.21468 15.02686 18.84591
16.50336 16.33997 12.77942
15.76404 15.90709 9.532545
14.85229 15.42134 9.720553
12.60224 16.41273 1.710453
13.47108 16.8018 1.210116
14.30549 15.84118 4.737822
14.12324 16.28116 3.000192
4.033251 14.14706 14.37949
3.636681 13.99686 10.80254
3.408806 14.10735 7.062214
3.220351 14.45856 3.001361
4.190522 14.99789 4.442003
4.548339 15.40553 2.264454
4.405919 15.31779 3.062895
8.361027 14.64078 0.1191271
12.29266 13.70738 2.588514
13.44138 14.69201 8.101933
13.20395 14.42903 7.046858
12.90796 14.15892 4.08808
15.31212 14.3772 18.27736
15.37225 15.04807 15.58695
13.72319 15.12571 5.7685
14.87439 15.38143 13.07485
14.71979 15.36042 10.43032
12.27699 16.00495 3.392735
12.10548 15.96921 1.419631
11.64803 15.57701 2.059809
10.72545 15.22649 1.110009
7.952127 15.25499 1.94441
3.307799 16.12765 11.18788
3.847246 15.84288 7.110572
3.232186 15.59179 13.84921
4.464398 14.64438 16.19692
6.84306 16.25276 2.165175
5.140176 16.01007 5.933154
5.332724 16.53752 3.781016
5.781504 16.84524 5.061321
6.434799 16.73346 3.805066
2.961441 15.97067 19.39763
17.42801 15.79404 21.99045
16.19831 14.99503 18.7858
16.49725 16.35837 12.30061
15.46252 15.50332 8.793898
12.3731 16.17312 2.195627
12.69291 16.52964 1.326851
14.65801 15.48466 9.290454
14.3658 15.70463 5.062129
4.22177 14.11243 16.07084
3.821999 14.12381 12.4318
3.205784 14.23669 6.671693
3.451141 14.38194 3.920115
4.137947 14.99068 3.806443
4.694539 15.41662 0.8256624
3.900751 13.85375 16.95298
12.35939 13.73539 3.002626
13.4016 14.75247 6.532215
13.08264 14.34157 5.428492
12.72576 13.98247 2.797974
15.63195 13.95775 19.9308
13.54696 14.95847 6.094003
13.9678 15.21566 6.756623
15.04029 15.3603 13.61553
11.85642 15.7319 1.876192
9.130254 15.03071 0.8675519
8.402855 15.14614 1.266701
3.539063 16.05687 8.280348
3.70815 15.90377 6.597984
3.138976 15.95799 12.36798
4.461706 14.47318 16.40125
6.721309 16.46758 1.86208
5.069191 15.90724 5.734543
5.342345 16.61938 2.960208
5.241055 16.26528 4.942494
6.276493 16.85468 3.708447
3.842347 15.19225 18.72609
17.43279 15.82327 21.85779
16.84461 15.65371 15.3851
16.86081 16.01647 14.16022
16.00382 16.22011 9.886008
14.85783 15.38188 8.8047
14.61362 15.45039 7.569856
14.45398 15.59333 7.005558
14.21446 16.1064 1.744843
3.764318 14.22465 11.99638
3.094062 14.32192 5.652707
2.871601 14.49334 4.068624
3.108323 14.47044 2.878323
4.368358 15.28311 2.041883
4.04089 14.82488 17.81926
12.41317 13.75154 2.110531
13.44108 14.83866 6.02485
12.88841 14.20771 2.405829
15.53022 13.93291 19.64692
15.34391 14.46619 16.59468
13.93569 15.22039 6.111937
14.9369 15.39104 10.83528
14.62769 15.29223 8.219769
11.0236 15.31514 0.821997
8.596482 15.1108 1.191223
3.497406 16.0485 7.744895
3.825616 15.82236 6.416799
3.088648 15.77082 12.67295
4.458876 14.37602 16.66287
6.57324 16.64107 2.592553
5.009943 15.81556 6.733117
5.153785 16.15857 3.549904
5.472784 16.85719 2.039401
6.247617 16.92506 2.41944
16.80882 14.26881 21.07991
17.78624 15.55051 21.93164
16.10159 14.78723 17.84803
16.81271 16.16297 13.00735
15.70778 15.75055 8.63651
14.80866 15.3879 8.508121
14.53072 15.51619 7.474994
14.57654 15.46398 6.972377
14.05313 16.48403 1.191738
3.621068 14.26347 11.12956
3.390041 14.14614 9.159725
3.185137 14.26901 7.411944
2.885803 14.51585 3.171795
3.084889 14.54837 2.113446
4.260009 15.2063 1.313253
11.00097 13.9853 0.5600438
13.26814 14.63197 5.393937
13.0913 14.44207 3.92424
15.57789 13.84718 19.46778
15.30015 14.37642 17.15103
13.92918 15.22732 5.677789
15.2583 15.30904 13.49352
14.89239 15.29959 8.423911
11.05101 15.32074 0.6309065
3.091747 15.95702 11.66041
4.077391 15.66122 6.024724
4.690139 15.62879 7.449187
3.919914 14.98276 13.84942
6.636707 16.61292 1.433501
5.040431 15.88613 4.865421
5.181276 16.32757 2.371849
5.440736 16.86336 1.645903
3.901996 15.23899 18.43859
16.98316 15.48994 21.21662
16.43715 15.18062 16.48149
16.30705 14.42315 19.51594
16.23331 16.37322 10.44138
15.73361 15.77367 8.476524
16.58526 15.19698 20.76505
14.44482 15.53756 2.989767
14.34969 15.70515 1.840562
4.007962 14.50196 13.02606
3.281266 14.37937 9.3964
3.124311 14.30452 6.848731
2.686904 14.65175 2.699472
3.57662 14.57064 2.838552
4.147959 15.07536 2.859085
3.84785 14.4044 17.13523
12.6135 13.9049 1.03512
13.37509 14.87614 3.971561
13.0574 14.42524 3.338461
12.9222 14.29321 1.908984
16.0814 14.05188 20.24164
13.72078 15.15818 3.975305
13.81502 15.19891 4.315494
14.34625 15.27102 6.105182
15.07152 15.32594 9.07219
12.42707 16.32489 1.015623
8.142978 15.23364 0.8887619
3.598424 15.95321 6.36964
3.82283 15.74079 4.745011
3.054072 15.68651 12.35079
4.409891 14.23538 16.43558
4.972024 15.79743 4.91685
5.138499 16.20981 2.351396
5.843797 16.99375 2.69966
16.76342 14.32159 20.968
17.66579 15.50641 21.86989
16.10297 14.82404 17.49883
16.77215 16.25493 11.84218
15.7381 15.69259 7.323566
15.03106 15.32838 8.074183
14.56294 15.39278 3.973471
14.24891 16.09395 1.317168
3.626432 14.45885 11.36398
3.119499 14.47887 8.570204
3.174431 14.30302 7.856488
2.53089 14.78619 1.632101
3.92452 14.87802 2.441779
3.964126 15.01964 0.5344356
12.17907 13.5899 0.2548912
13.15829 14.61115 3.170837
12.94622 14.32197 2.116516
15.47649 14.8905 14.79428
15.24734 14.20677 16.55864
13.40566 14.94876 2.914261
15.32462 15.27782 13.21068
14.54648 15.24911 6.02588
15.0607 15.22921 7.005242
11.80943 15.78347 0.7080081
3.36005 16.07585 7.525476
3.420817 16.01609 5.951423
3.142182 15.49843 12.81951
6.857628 16.35258 1.086177
4.78605 15.64836 6.440738
4.983222 15.83121 3.547082
5.905681 17.0044 2.486892
17.46057 15.91512 21.48819
16.27259 15.05123 16.48733
16.91187 15.93348 14.06639
16.13692 16.32284 8.509013
15.56035 15.43668 6.863163
12.44556 16.33874 0.7034543
14.39159 15.59772 1.842158
4.106999 14.61834 13.68173
2.996881 14.91862 9.529622
3.019797 14.53241 7.925467
2.391101 15.00025 2.85422
3.62696 14.66245 2.279339
4.777341 15.48086 0.2746001
13.16701 14.69196 2.016834
15.22313 13.8853 18.0137
15.25747 14.19535 16.10184
14.00725 15.25651 4.403395
14.24435 15.26994 4.608094
14.46281 15.25382 5.350527
15.27382 15.35277 10.21979
3.021844 16.01265 9.434236
3.723577 15.78896 4.567793
3.706936 14.96615 12.97184
6.50613 16.81067 0.9950415
4.941205 15.78495 2.938016
16.99198 15.57833 20.71447
17.99389 15.55839 21.40594
16.06021 14.439 17.96211
16.80457 16.26169 11.20743
15.8645 15.90762 7.297399
15.07826 15.27757 7.168332
14.61862 15.30599 2.807454
14.35914 15.70205 0.9313933
3.244369 14.75411 10.2246
2.975203 14.72934 8.603151
2.782501 14.6763 6.170945
2.774587 14.68061 0.9792786
3.728173 14.84119 0.9182745
13.00712 14.48616 0.928124
15.51836 14.86759 14.06397
15.48795 15.01798 14.01159
15.44835 15.26424 11.59844
14.51621 15.22215 4.079878
14.63549 15.22117 5.270505
15.2254 15.23188 7.284386
2.926166 15.97494 8.404636
4.012104 15.60517 4.219198
4.553887 15.55584 5.15184
4.160364 14.96525 17.8768
5.030184 15.93604 1.794527
4.073837 15.10793 18.13378
17.39435 14.25043 20.93804
16.03059 14.7226 17.06579
16.93811 15.97216 12.99562
16.17881 16.35121 8.34843
15.6488 15.43151 5.571873
14.96087 15.27422 6.929057
14.68969 15.27332 3.923239
14.92259 15.16733 4.4467
2.943984 14.91677 9.16885
2.756268 14.69615 5.942778
2.22585 15.2711 1.774149
3.823293 14.83418 1.955233
12.79711 14.12333 0.2790813
15.42095 14.46368 14.71672
14.0573 15.23907 3.159492
15.46855 15.22918 12.05396
14.73174 15.16595 4.114134
15.38949 15.24893 7.984265
15.45777 15.28537 10.06709
3.033178 16.05321 7.103562
3.387153 16.00423 5.08645
3.92214 15.56827 2.771955
6.437007 16.87308 0.7458572
4.959337 15.81114 2.287009
6.047774 17.0903 1.099974
17.36777 14.29159 20.85528
16.30157 14.96105 15.79095
16.55263 14.21269 19.10361
16.58555 16.42916 9.733919
15.9309 16.00809 6.800089
15.41632 15.27965 5.82744
14.26759 15.97327 0.754053
15.03534 15.21442 5.979883
2.915998 15.05116 9.480184
2.433001 15.07143 3.967252
2.301352 14.96034 1.076429
12.80339 14.13353 0.283687
15.31963 14.18035 14.61002
14.02996 15.22665 2.732781
15.53525 15.15747 11.94654
14.80182 15.16861 4.680148
15.53174 15.24307 10.06104
2.876749 15.69887 10.33975
2.900012 15.98578 7.323936
3.488397 15.85941 3.074606
3.083699 15.38208 11.92888
4.972926 15.83574 1.777708
16.57541 14.30565 20.25028
16.94585 14.93981 20.89477
16.66004 15.13116 14.57147
16.99385 15.89043 12.34702
16.50335 16.46026 8.813787
15.86531 15.75418 5.249852
15.52372 15.33687 5.834531
14.87762 15.15397 3.581037
3.500808 14.83306 11.61469
2.768686 14.96911 7.907141
2.271978 15.41179 2.783594
3.285563 14.75218 0.4283667
15.71132 13.85516 18.69214
15.18438 13.96075 15.74747
14.08327 15.19116 1.949051
15.5709 15.17379 11.02856
14.60824 15.13016 2.30661
14.90385 15.07157 3.024305
15.46621 15.1342 6.437644
15.37855 15.09649 5.633011
2.810643 15.67552 9.616796
3.234733 16.05078 5.178801
3.413924 15.94034 3.790218
3.495775 14.87626 11.74325
4.983892 15.91507 1.331946
17.83624 15.98018 21.1211
16.18101 14.44673 16.66053
16.90574 15.35711 13.5626
16.74687 16.3755 9.759326
15.89758 15.8643 5.637322
15.1859 15.18254 5.351684
14.97696 15.15931 4.487206
2.93203 15.22835 10.18206
2.466086 15.14122 4.893103
2.153423 15.16184 0.5318049
15.74967 14.02102 18.63244
15.1798 13.80892 15.5355
15.60924 15.11144 11.06144
15.39163 14.96858 4.042136
15.29696 14.94673 2.971788
15.58747 15.15885 7.499108
2.918542 15.46046 10.70526
2.91637 16.01617 6.089476
3.671449 15.66286 1.920831
3.266016 15.10779 11.7952
5.57338 17.0439 0.7473178
17.61885 15.45678 21.1422
16.69401 14.10254 18.80909
17.04541 15.73876 11.73341
16.31984 16.43452 7.658463
15.90684 15.83092 5.033421
15.60616 15.23999 3.607038
14.96906 15.05163 1.502514
3.309844 14.99948 11.47095
2.756791 15.36097 8.90078
2.329093 15.44734 3.654145
13.24716 14.76684 0.5194135
15.34199 14.10547 14.09485
15.62458 14.94236 12.08892
15.39261 14.91532 2.713252
15.72791 15.0686 7.303862
3.090469 15.27181 11.50546
2.948039 16.04213 5.050698
3.638031 15.67527 1.779396
4.23646 15.44311 2.049878
17.15524 13.72084 19.95322
16.11766 14.64817 15.72338
16.07108 14.05084 17.55622
17.05724 16.01685 10.10055
16.03057 16.15007 5.748266
15.44952 15.14478 3.538108
15.16185 15.12835 4.182517
2.774356 15.40363 9.14059
2.301584 15.611 2.995099
15.60279 13.94341 18.03558
15.19822 13.5089 16.06148
15.71324 14.95456 10.61711
15.48126 14.88775 2.397222
15.75624 15.06372 7.800999
2.695896 15.53236 8.191668
2.703671 15.77147 7.226923
3.434527 15.79499 1.54741
4.740881 15.59337 1.400282
17.04282 15.41749 20.87009
16.62891 13.9933 18.49171
16.99491 15.49616 12.61634
16.71843 16.44861 8.30055
15.95072 15.80019 3.547956
15.36598 15.1333 3.797919
14.92254 15.0757 0.9587681
2.411069 15.38966 4.718441
15.48444 13.71646 17.36633
15.34819 13.83814 14.18464
15.63473 14.70421 12.01087
15.08034 14.96187 1.18674
15.83885 14.98294 7.554051
2.689268 15.50252 8.118521
3.150248 16.01913 3.245404
4.405897 15.46056 2.369905
17.50505 13.99104 20.00936
16.30816 14.6048 14.27699
17.04058 15.51126 11.71668
16.9768 16.27072 8.693155
16.08867 16.22826 4.878518
15.69486 15.17529 2.143074
2.584938 15.42048 6.884383
2.324856 15.87598 1.89169
15.44561 14.24473 13.29744
13.9722 15.10133 0.4946422
14.59053 15.06453 0.955631
15.83733 14.80867 2.813894
15.90819 14.90671 7.121356
2.655915 15.84414 5.271319
3.47994 15.75716 1.361788
17.42679 13.80243 19.77411
16.45784 14.67588 13.66801
17.05448 15.36915 11.11456
17.1455 15.72672 9.913249
16.40753 16.49393 6.669071
15.99025 15.8215 2.833375
15.65383 15.14119 2.044412
2.594556 15.49825 6.83851
2.290139 15.97517 1.007553
15.46853 14.02166 13.12091
14.62105 15.03104 0.7587554
15.7412 14.68836 10.76834
15.9952 14.75616 3.394987
15.97994 14.80791 7.586217
2.641546 15.87056 4.691671
3.415738 15.81495 1.196078
17.01925 13.77412 19.60707
16.41772 14.52885 13.44772
16.87932 15.14249 12.5529
16.9109 16.38131 7.691333
16.04438 16.08022 3.243413
15.66516 15.11809 1.72996
2.402981 15.84338 2.701364
16.07008 14.28314 18.74448
15.53832 13.79031 13.4531
15.77631 14.50337 10.61222
16.13144 14.78642 2.612279
16.02609 14.78746 6.184054
16.0352 14.77892 6.28549
2.820298 16.01867 3.206522
3.191388 15.93511 1.009165
17.14659 13.64351 19.55807
16.2106 14.04796 16.21366
16.88464 15.11563 12.33853
16.92875 16.39144 7.252634
16.20387 16.39946 4.318826
15.51782 15.0458 1.244879
15.41187 13.90616 16.9549
15.52396 13.56679 14.53099
15.6316 14.46309 11.74213
16.4448 14.73575 3.23384
16.29861 14.57333 6.074174
3.324431 15.86087 0.998298
16.86824 13.79603 19.20905
16.16589 13.9702 16.1998
16.59934 14.5766 12.38069
17.04959 15.12618 10.3943
16.78745 16.48668 6.924357
16.09423 16.13792 2.209679
15.60506 15.07658 1.105184
15.94501 14.33878 18.28287
15.65094 13.57824 14.26821
15.90985 14.50508 9.672647
16.41486 14.70982 3.484669
16.18267 14.46597 7.997397
3.063254 15.9793 0.7271127
16.03328 14.11964 15.00862
16.03162 13.85686 16.92488
16.52734 14.44098 12.38554
17.22809 15.72888 8.450105
16.48606 16.5611 5.115788
16.09101 16.03287 1.618597
2.313668 16.02343 0.7007802
15.85126 13.91824 12.0546
15.62308 13.59927 15.95597
15.34218 14.93868 0.3569313
16.1671 14.66983 5.636182
16.33887 14.60412 5.150072
16.0435 14.11097 14.85792
16.39985 14.33617 13.02355
16.44314 14.32445 12.58118
17.15262 15.2077 9.370517
17.19885 16.00228 7.548108
16.1975 16.3957 3.120054
16.37873 14.72762 19.14915
15.69631 14.14705 11.68411
15.67382 13.53842 15.85269
16.50928 14.61796 4.522446
16.392 14.49418 6.537506
16.70023 13.79362 18.88928
15.841 14.0385 16.32046
15.69203 13.77425 16.83524
17.03221 14.82602 9.292477
17.25708 15.89816 7.142944
16.36206 16.55666 3.432312
15.94166 15.33664 0.7753124
15.9557 13.87184 12.26975
15.82872 13.63497 15.88663
15.78927 14.91411 0.7536865
16.54378 14.47352 6.216833
16.77383 13.65138 18.82129
15.95184 13.72302 14.4402
16.61157 14.40626 11.38389
17.13561 15.00645 8.724158
17.08611 16.2913 6.463367
16.56274 16.6347 3.65949
16.42146 13.86174 18.45008
16.09242 13.87591 13.56676
16.78141 14.75381 3.828974
16.42982 14.98075 1.297818
16.71663 14.52633 5.675495
16.09839 13.8759 13.26999
16.45166 14.21301 11.66934
17.29127 15.65077 7.48923
16.76048 16.57878 4.941255
16.09714 15.95069 0.7184969
16.23818 14.05515 10.833
16.63522 15.03767 1.420923
16.6511 14.42381 6.809752
16.5545 13.62674 18.37066
16.67776 14.35978 10.39887
17.25861 15.39325 8.044264
16.79608 16.58112 4.611912
15.68085 14.3532 17.33606
16.16702 14.09574 10.38841
16.90674 14.73079 4.542656
16.99553 15.17935 1.973664
16.54648 14.26294 8.592416
16.71004 14.32629 9.601029
17.21237 15.13485 7.94852
17.31241 15.74533 6.608175
16.70394 16.65502 3.379337
16.6074 14.25482 9.608813
17.07739 14.90528 4.335474
16.85225 14.48266 7.006605
16.16954 13.58479 17.59253
17.1819 14.98383 7.683326
17.16502 16.2811 5.290258
16.43769 16.64709 1.377998
17.0763 14.96313 3.937748
16.53259 15.10965 0.5207974
16.80279 14.4086 9.229783
17.29068 15.29226 6.442046
17.28024 16.19084 4.61415
16.58633 16.71461 1.669111
17.14285 15.11586 3.46424
17.05725 14.73104 5.868478
17.13336 14.81274 7.2259
17.35859 15.95968 4.395034
16.9058 16.64996 2.904063
17.10588 14.87245 4.967659
17.03861 14.67395 6.384217
17.26825 15.17851 6.373282
17.29605 15.27461 5.339844
16.86145 16.69754 2.414903
17.25453 15.41008 2.693207
16.65284 13.44682 18.09154
17.37601 15.92577 2.897272
16.92822 16.72555 1.969755
17.17192 14.88465 6.228677
17.19853 14.94997 6.32511
17.37797 15.96814 2.729753
17.26158 15.18384 4.824811
17.29775 15.43389 3.291758
17.37288 15.85463 2.116049
16.95988 16.8223 0.9488604
17.3816 15.99929 2.098108
17.38359 15.9871 1.827596
16.91607 16.84256 0.768525
17.42152 16.19803 1.071679
17.35235 16.52876 1.014906