# .PCD v0.7 - Point Cloud Data file format
VERSION 0.7
FIELDS x y z
SIZE 4 4 4
TYPE F F F
COUNT 1 1 1
WIDTH 2048
HEIGHT 1
VIEWPOINT 0 0 0 1 0 0 0
POINTS 2048
DATA ascii
17.10497 28.84026 14.24736
17.21349 28.65269 14.13489
16.82931 29.15707 14.9886
16.88477 29.29249 14.70012
17.10776 28.23091 15.28785
16.94804 28.39821 15.58314
16.7625 28.77875 15.6852
16.89195 29.41789 15.0822
16.8931 28.0406 14.18914
17.14448 27.55186 14.97237
16.73628 29.09564 15.88393
16.77356 27.47959 14.86614
16.77543 28.51311 16.3473
17.24865 29.68539 15.01002
16.64308 28.31319 14.11187
16.86341 28.26524 16.9213
17.49187 29.58063 15.09955
17.24615 27.3399 15.88775
17.50243 29.44607 15.67951
16.63965 28.86457 16.89613
17.15128 29.53262 16.26686
16.78117 26.97346 15.48134
17.57684 29.34609 15.65909
17.08014 27.08837 15.74912
17.64305 29.24457 15.52698
17.2006 27.79735 17.51342
16.50999 28.54649 14.58215
16.73448 29.19519 17.23136
16.62175 28.89165 17.37482
17.74831 29.08657 15.05051
17.11545 27.89184 18.15215
16.9498 29.58774 14.38223
17.12494 29.44234 16.94249
17.04251 26.88035 16.4055
16.23738 27.88584 15.8778
17.06615 29.41328 17.10287
16.42326 26.7709 15.67308
16.47463 28.58957 15.09697
17.75046 28.69234 15.38737
17.24607 27.70068 18.15427
17.0521 29.82004 14.85574
17.70518 28.74639 15.75505
16.77997 28.28915 18.51347
16.60196 28.99541 15.78971
16.34252 28.48899 15.94959
17.24275 27.70931 18.48604
16.87108 29.50781 15.42946
17.53057 29.08391 16.97839
17.30993 27.52792 18.29433
17.09582 29.90108 14.92535
16.38998 27.2411 16.23614
17.03305 29.33718 18.11492
17.22947 26.98868 17.60011
16.79115 29.43623 16.46446
17.54591 28.99882 17.16009
17.21425 27.76967 19.1503
17.01333 29.76063 15.63476
16.43297 27.43597 16.69216
17.56612 28.89295 17.36365
16.69828 28.37883 19.5745
17.1146 29.91734 15.94538
16.27319 27.96097 16.72706
17.5627 28.88495 17.43441
16.83516 28.17939 19.61118
16.8449 29.5206 16.6334
16.40112 28.75401 16.84696
17.1639 29.29123 18.3736
16.68675 26.84097 17.37013
16.57935 29.02641 17.02971
17.73418 28.36389 16.66355
16.6642 28.47416 19.95585
17.08161 29.87366 16.69134
16.25928 28.04812 17.23051
17.03678 29.25745 18.8036
16.2637 26.73236 17.11198
16.74278 29.30511 17.31844
18.26843 27.77499 15.98099
16.65569 28.53424 20.21775
17.4959 30.34393 16.01612
16.29234 28.63056 17.32815
17.25482 29.19936 18.82516
15.86318 26.75706 16.53463
16.62208 29.14802 17.57591
18.07804 28.14711 17.53154
17.33916 27.576 19.37357
17.32233 30.15105 16.65098
16.77222 29.37103 17.71338
18.17217 28.10428 17.48109
16.69402 28.85203 20.40607
17.21492 29.98762 17.66289
16.30956 28.73305 17.85838
18.3525 28.10361 17.45474
16.76722 28.97395 20.33501
17.33484 30.09216 17.65984
16.62015 27.29391 17.80381
18.16561 28.26441 18.09609
15.59814 27.09106 16.79133
16.99665 29.65188 18.59833
18.9116 27.83295 16.07729
17.07021 27.99752 19.87689
17.42655 30.14821 17.66314
16.44083 27.22671 17.93294
18.16179 28.4898 18.94861
15.50029 27.20831 16.94387
16.78189 29.34783 18.97266
16.39713 27.88276 18.35399
17.89605 28.55859 19.20845
18.21136 30.43285 16.36292
16.47062 28.97346 18.92631
18.73814 28.35115 17.43063
17.16706 27.83273 19.75144
17.91879 30.24149 17.59654
16.41206 27.87316 18.76678
17.495 28.91224 20.05117
17.149 29.0489 20.88706
17.0923 29.70644 19.22253
16.41534 27.8621 18.85541
17.83485 28.74518 20.06322
16.78133 28.27202 20.41427
17.5075 30.01679 18.77848
16.18156 28.43101 18.95023
18.38706 28.96638 19.317
17.52388 28.93892 20.57923
18.20214 30.13661 17.60525
19.14829 28.5017 16.16062
17.78231 28.81761 20.3398
16.85496 28.19576 20.73842
17.13734 29.70575 19.57123
19.00192 28.80848 16.66792
18.19553 28.97649 20.05406
16.74513 28.75498 21.02097
18.36871 30.03418 17.53244
19.06103 28.94987 16.13631
18.26113 29.2546 19.71204
16.65779 27.08186 18.95712
18.5738 29.99634 17.04715
17.15017 29.64245 20.1399
18.59593 29.38992 18.16408
17.13123 29.00104 21.13273
18.50146 29.77992 17.79219
18.9753 29.26074 16.32537
18.40695 29.5008 18.75534
16.37389 27.36982 18.88996
15.84808 27.34306 17.20146
18.68736 29.78388 17.11206
19.00179 29.46041 16.01229
18.64638 29.53703 17.71433
15.7749 27.25797 17.60311
18.92797 29.55406 16.4448
17.25131 29.64335 20.51697
17.99223 29.43039 20.34327
17.3172 29.00319 21.45142
17.88277 29.71422 19.85689
15.98785 27.64315 18.4955
17.17093 27.70571 21.27102
17.83142 29.42782 20.81927
17.53835 29.00534 21.62217
15.62376 27.78759 16.90262
15.77128 27.79812 18.24904
15.38267 27.73886 17.14203
16.91371 27.3728 20.62231
17.12882 27.77388 21.68457
16.66475 27.62606 20.12696
16.81211 28.45652 22.06717
15.53799 27.7988 16.76479
16.79812 27.4545 20.76599
15.87999 27.7256 18.04184
16.27873 28.01679 19.41054
17.5916 29.33788 21.65673
15.85298 27.92239 18.18924
15.69199 27.71516 19.0493
17.049 27.71683 21.88087
16.90832 29.26974 20.53223
16.71362 27.57518 20.95378
16.64379 27.67126 21.31996
16.6924 29.04375 20.31206
15.39318 27.48367 18.15496
16.93345 28.23711 22.44365
15.75026 27.289 16.10121
16.16361 28.12048 19.91748
17.22949 29.40108 21.59066
15.96851 28.46297 16.55396
16.35474 28.71668 20.58359
15.65328 27.56604 19.22923
16.98484 27.93712 22.49084
16.16224 28.66153 17.01272
15.99433 27.97486 19.35664
17.03433 29.23787 21.7783
15.89036 27.903 15.85267
15.88397 27.42696 15.89326
15.40182 27.24535 18.55742
16.94534 28.06638 22.78611
16.00934 28.53131 18.48889
16.22334 27.97956 20.20753
16.9537 29.24485 21.38095
15.90254 28.17638 16.02158
15.54118 27.02004 15.8162
15.16666 27.13916 17.94458
17.34234 29.02002 22.84032
16.23206 28.59444 15.85953
15.52683 27.00953 15.81313
15.92842 27.66211 20.66702
17.15925 28.99729 23.09504
16.14961 28.48309 15.65791
15.80207 27.34097 15.45771
15.17948 27.42207 19.23526
16.55842 28.16863 23.15484
16.40457 29.01476 17.89587
16.61906 28.85454 21.26746
14.96677 27.17449 17.41854
16.44698 28.20562 23.19119
16.54037 28.91548 15.5012
15.04382 26.96706 15.98433
15.00305 27.46115 18.1279
16.97731 28.68405 23.64897
16.28882 28.50201 14.97792
16.15864 28.81322 19.90676
15.96823 28.34094 20.0732
16.26796 28.78626 21.42039
15.72491 27.19469 14.95822
16.40223 29.13377 18.46589
15.07055 26.99293 15.67374
15.68629 27.68106 21.00656
16.81121 29.10453 23.46565
15.86201 27.51376 14.50863
16.4434 29.5183 16.86123
14.90491 27.36019 16.60489
14.94637 27.47636 17.39293
16.60463 28.3861 23.69513
16.04029 28.14789 14.75004
16.42899 29.58529 16.29108
14.9677 27.43104 15.68084
15.06328 27.77555 18.32881
16.63792 28.50248 23.83658
16.34389 28.38611 14.04563
16.66654 28.99329 14.39128
16.26252 29.07062 20.68452
16.06906 28.67372 20.31346
15.14186 27.93222 19.62187
16.42487 28.52732 23.93208
15.95527 27.59664 14.00286
16.67365 29.26327 14.89534
16.19732 28.95169 20.91283
14.98554 27.54243 15.94474
15.11263 27.983 17.66314
16.55791 29.03241 22.88287
15.34881 27.97543 21.81105
16.70105 28.92282 13.78683
16.20523 29.70946 16.26842
15.37271 27.12201 14.1545
15.29163 27.90422 21.17399
16.53635 29.03995 23.03499
16.19726 28.10621 13.74325
16.62034 29.47622 14.98764
16.26497 29.4926 19.04547
15.08737 27.76473 15.58388
15.24804 27.95782 21.07001
15.15874 28.28464 18.84896
16.23523 29.01466 24.06629
16.02001 27.52171 13.0195
16.18475 29.55289 18.95464
15.16958 27.43853 13.78678
15.21048 27.94826 14.49309
15.21827 28.1475 21.65077
15.67567 28.4092 24.0311
16.39853 28.24712 13.05486
16.078 29.64299 18.02821
16.22555 29.38677 20.85919
15.25354 27.96385 13.7314
15.15291 28.37176 17.20686
16.23221 29.26714 23.25517
15.22888 28.19501 22.2187
16.67889 28.74046 12.97401
15.92809 29.65529 17.82674
16.21145 29.37512 21.03749
15.27615 28.15669 14.37831
15.0604 28.58532 16.8587
16.20386 29.25943 23.03306
15.8768 27.39428 12.59823
16.17788 27.69234 12.29114
15.89362 29.60485 19.01867
15.99897 29.4892 20.95272
15.32179 28.21446 13.58998
14.99125 28.61054 18.22841
15.47405 29.29714 23.78286
15.94982 27.43587 12.72119
16.46515 28.18149 12.21782
16.25917 29.77868 14.58131
16.06153 29.80157 14.42764
15.38985 27.39058 12.86665
15.33513 28.35016 13.45811
14.86699 28.67432 18.09051
15.78708 29.33971 23.13525
15.06037 28.38658 21.85747
16.38398 27.98451 11.99801
16.76173 29.36406 12.90608
15.66614 29.61558 17.18981
15.732 29.69445 15.08472
15.70791 27.39125 12.18099
14.93655 28.61504 19.47479
14.7811 28.73283 16.792
15.48543 29.33411 23.19646
14.90289 28.46437 21.87572
16.65562 28.19379 10.46989
16.73179 28.66288 11.74496
16.47101 29.75577 13.07809
15.66252 29.6558 15.53557
15.33065 27.89737 12.55961
15.39194 28.23131 12.44004
14.84472 28.65511 19.3457
14.76186 28.72398 17.16809
15.38505 29.11744 24.21132
14.77434 28.54942 21.25079
16.75604 28.42468 10.48287
16.8268 29.2703 11.65607
15.57627 29.55311 18.4338
15.67417 29.67941 13.80167
15.45111 27.64349 11.86356
15.41413 28.37072 12.07756
14.80259 28.60458 20.42847
15.50804 29.38107 22.30017
14.72962 29.25331 24.12778
14.7403 28.35377 22.99439
16.41087 27.76663 9.710297
16.83652 28.80022 10.93733
15.33649 29.462 18.75123
15.35214 29.48562 16.94455
15.52083 29.44818 21.02237
15.06701 28.76011 14.02297
14.6832 28.63021 20.02066
14.59734 28.75847 16.0778
14.9671 29.32754 23.2483
13.72452 29.31841 22.93184
13.44324 29.31497 23.13004
14.6423 29.17152 24.325
14.20091 28.38963 24.275
14.63522 28.51286 21.44322
16.88789 28.75638 10.20826
16.80482 29.43704 11.33634
15.23465 29.42803 16.55891
15.82966 29.76367 13.36349
15.82077 27.62809 10.47382
14.64533 28.6651 19.10578
14.34258 28.63053 17.35531
14.65989 29.33169 22.47843
13.87305 29.32287 22.57382
14.32411 29.18073 24.37799
14.54561 28.38587 22.5609
16.50132 27.82566 8.925908
16.64615 27.95722 8.793412
16.1262 29.84733 12.83443
15.15925 29.4034 16.99412
15.33757 29.40882 13.76583
14.83499 28.82437 14.39173
14.47029 28.57487 19.92188
14.41825 28.64237 17.84445
14.75716 29.32735 21.53344
14.57983 29.32877 22.27335
13.60816 29.3153 23.71737
13.73086 28.30545 23.80555
14.39672 28.33329 23.04496
16.64487 27.9453 8.171241
16.96872 28.81326 9.184756
16.2677 29.84954 12.49976
15.33816 29.41999 20.77461
15.309 29.35438 13.0291
15.97437 27.69739 9.619055
15.32282 28.66767 11.62199
14.23112 28.44783 20.37881
14.20923 28.60998 16.47835
14.33016 28.71693 15.30851
13.78938 29.32847 21.95137
12.54949 29.31098 23.09891
13.53579 29.32503 21.99565
14.06864 28.76703 24.59849
14.2823 28.40842 21.49288
16.96279 28.92375 9.490294
15.92959 29.81794 12.0088
15.10507 29.37587 20.19
15.05089 29.29939 15.48266
16.01534 27.67857 9.630191
15.3935 28.58973 11.24298
14.08359 28.37593 20.64934
14.183 28.68678 14.4112
13.5098 29.35049 20.07321
13.67293 29.33086 21.69346
12.95605 29.31277 22.40098
12.91216 29.31664 23.78847
13.23245 29.30818 24.12817
13.94298 28.98808 24.58506
16.99526 28.93367 8.996166
16.81714 29.52243 10.34557
14.98863 29.35479 19.29969
15.6204 29.61657 12.45871
15.68416 28.03028 9.720157
15.39021 28.6564 10.49865
14.31379 28.77587 13.65057
13.91306 28.43797 16.83807
14.11519 28.66556 14.09132
14.20672 29.32188 20.62233
13.42784 29.35867 19.40436
14.40488 29.31277 19.70826
12.08504 29.30271 22.5651
11.1336 29.30569 22.65851
13.36827 29.35884 19.34399
13.91609 28.29785 22.67745
16.36277 27.84373 7.738219
16.99601 29.00819 8.978359
15.81019 29.7525 11.7919
14.89309 29.2134 15.0957
15.62965 28.25998 9.67371
15.15894 28.81542 11.14403
13.87769 28.3139 20.14034
14.0181 28.46611 17.50647
13.9457 28.50134 15.61023
14.6353 29.30524 18.15415
13.54028 29.36369 19.0866
11.9327 29.27138 21.24078
11.9611 29.29096 21.90214
11.9136 29.30839 22.91212
11.55547 29.31046 23.40227
13.21319 29.35358 19.34791
12.94098 29.31659 21.15527
13.76693 28.29461 23.45555
17.03776 28.71244 7.282128
16.96791 29.2667 9.061252
15.68177 29.6684 12.24839
14.70937 29.25935 16.47024
15.07661 29.09662 11.76672
14.91629 28.88947 11.73577
15.45631 28.62324 9.728931
13.58884 28.21325 20.07973
14.11778 28.7242 12.37798
13.71659 28.351 15.96192
14.53645 29.3027 18.34707
13.61124 29.36904 18.36892
14.43462 29.30925 19.07994
11.67689 29.25999 20.84226
10.99928 29.30543 23.00764
12.96811 29.30585 24.16796
11.19405 29.31409 23.72401
13.05474 29.3479 19.08201
13.36262 29.1335 24.54298
13.61491 28.79756 24.61961
17.09033 29.04989 7.048227
16.55778 29.85592 9.782229
14.70197 29.2058 15.60239
14.76044 29.01034 11.95976
14.6153 28.88004 11.01232
13.61337 28.22891 19.14023
13.63775 28.2291 20.45744
13.63453 28.28377 17.14998
13.76027 28.43951 14.03356
13.5895 29.38094 17.62446
11.79766 29.2463 20.25638
10.82008 29.30021 21.85274
10.38277 29.29828 23.10065
10.30316 29.31107 23.94593
13.02046 29.34348 19.24353
12.21931 29.26819 20.17929
13.49114 28.24836 22.1264
17.0769 28.85575 6.697162
16.99278 29.32156 8.369522
16.31025 29.91436 10.21328
15.51736 29.49035 11.65872
14.61998 29.04726 12.83944
15.64455 28.38893 8.836452
13.69045 28.25064 21.08684
13.95991 28.68003 11.13935
13.72873 28.49605 11.99301
14.28512 29.31041 17.91014
11.23049 29.29594 21.59529
12.78343 29.26974 24.3766
12.76526 29.32539 18.98223
12.92379 29.35279 17.90982
12.69117 28.28966 22.75624
12.93334 28.266 23.39451
17.03966 28.6417 6.404557
16.9934 29.43128 7.777472
16.68294 29.8019 9.262527
14.64823 29.08524 13.62537
14.80139 28.96883 11.14551
14.52955 28.86024 10.48309
15.45379 28.64565 8.523493
14.23034 28.79858 10.38735
13.3725 28.17281 16.97434
13.78712 28.55043 11.68397
13.46081 29.40325 16.97532
10.81514 29.33789 21.26406
9.164962 29.30121 23.40534
9.852401 29.31951 23.93596
12.7111 28.28632 22.97857
13.00809 28.24491 22.03823
16.58619 28.02147 6.12322
17.11297 29.01771 5.507802
16.89696 29.63251 8.005484
15.9411 29.83673 10.31556
14.42619 29.13661 14.02161
15.34087 29.23581 10.78577
14.44885 28.84321 10.25244
15.36591 28.69951 8.619282
14.12594 28.77287 9.745171
13.48919 28.23219 14.29688
13.81426 29.37931 16.68869
11.20604 29.28936 20.24351
9.95236 29.32317 22.69155
12.55479 29.32309 16.97927
12.48277 29.29709 18.87081
12.16541 29.25816 18.98966
12.2777 28.2496 21.62696
15.85363 28.17471 7.567274
17.14383 29.2739 4.361423
16.98755 29.5351 7.14203
16.51556 29.92449 8.73923
14.45832 29.10317 13.39467
14.92682 28.93765 10.16849
14.49045 28.82636 9.451639
14.93392 28.83021 9.36939
13.20859 28.16877 20.90239
13.80892 28.64759 9.683925
13.40744 28.17542 14.47849
13.45543 28.27831 11.37687
13.56022 29.46107 15.85292
10.88354 29.35707 20.54506
9.931547 29.32249 22.34019
8.234728 29.26866 23.31651
12.23846 29.27417 18.17629
12.03751 28.2685 22.97429
12.27304 28.26612 22.06965
16.76331 28.21597 5.246995
17.15245 29.46109 3.661003
16.86273 29.69627 7.892041
15.85883 29.78226 10.13997
15.53984 29.42077 9.875857
14.87827 28.92856 10.14554
14.47022 28.82003 9.247458
15.51523 28.57199 7.662819
13.12081 28.12672 20.21157
13.8493 28.69108 9.06246
13.39599 28.17507 12.81082
13.40835 28.24468 11.08685
13.4424 29.47916 15.73515
12.00019 29.23357 18.818
8.709647 29.29175 22.95764
12.53897 29.32424 16.82689
11.73521 28.25555 22.34609
15.78734 28.27833 7.397814
17.13101 29.10727 4.376913
16.93979 29.72695 5.980278
17.02475 28.80025 3.429699
16.03089 29.88144 9.180381
14.87561 28.87809 9.154777
15.65188 28.44354 7.700063
15.51232 28.56795 7.524547
13.0417 28.10634 19.83434
13.67234 28.63228 8.067001
13.08194 28.02692 15.33344
13.43078 28.36831 9.321603
11.14799 29.24224 18.72895
10.89561 29.34557 19.95715
8.307496 29.27114 23.18898
13.13756 29.49294 15.46393
11.41267 28.23233 21.17259
11.98658 28.24083 21.45348
15.75196 28.32694 6.927393
16.92133 28.55699 3.929279
17.11138 29.71685 3.470659
17.09311 28.95692 3.691761
17.07696 29.07743 2.205475
16.02225 29.87966 9.069583
15.12249 28.9369 9.029522
14.13355 28.77541 8.295583
15.20874 28.68363 7.187124
12.86474 28.14495 20.19494
13.43451 28.49288 7.404655
13.81289 28.73468 6.637587
13.13052 27.95815 12.65401
13.27071 28.13329 10.20879
13.28872 29.63011 13.87505
11.79967 29.20434 17.89699
9.705002 29.26606 21.66446
12.83777 29.43772 15.46352
13.18245 29.55101 14.77966
10.28594 28.26538 21.87292
10.89536 28.2494 21.39448
16.10721 28.06732 5.899356
17.13551 29.21814 3.119805
16.79678 29.82743 6.960917
16.10059 29.92462 8.098736
13.90889 29.40367 14.58519
15.14626 28.91321 8.528453
14.21633 29.18446 11.06314
14.98853 28.70014 6.870004
15.12374 28.61635 5.94207
13.99098 28.77112 5.953959
13.67547 28.71703 5.46043
13.10806 27.94121 11.84027
13.21212 28.09926 9.535861
13.7732 29.4517 14.96103
11.61385 29.17484 17.99374
9.299051 29.29126 22.10564
13.03347 29.49808 15.19085
13.17736 29.59346 14.24697
10.71178 28.26588 22.11572
10.4389 28.24308 20.81221
11.66877 28.19597 20.46598
16.12857 28.07692 5.554324
17.13263 29.79793 2.279919
16.68759 29.94459 6.4708
16.01086 29.88547 8.108633
13.82195 29.46798 14.02908
15.29017 28.96239 7.836616
14.06914 29.33813 9.956025
14.08756 28.76804 7.269876
14.8648 28.66685 6.115496
12.56396 28.19577 20.12728
13.25016 28.37713 6.050225
13.792 28.75143 4.969757
12.85777 27.9451 15.07069
13.20139 28.05198 10.39102
13.12623 28.12086 7.291903
11.02295 29.21624 17.86192
10.56051 29.33261 19.72064
8.536569 29.29718 22.40546
12.45007 29.34285 15.17281
11.31458 28.27212 22.44627
9.89846 28.25468 21.03555
10.98165 28.20153 19.82788
12.32454 28.2146 19.97561
16.30759 28.17134 3.975174
17.08955 29.93734 2.249622
16.49494 30.00609 6.810984
15.57016 29.27781 7.479621
14.60665 28.86849 8.407734
14.04987 29.34452 11.35248
14.43501 28.73914 6.558343
15.11822 28.53514 4.864933
12.43089 28.12153 18.60108
13.21256 28.40892 4.718694
12.56461 28.01903 16.92283
12.95771 27.83018 11.57588
13.06432 27.94192 9.049897
13.07872 28.20564 5.097086
13.44843 29.63576 13.59232
11.37511 29.19116 17.45893
9.83542 29.17202 20.84396
7.898148 29.31484 22.90495
12.69764 29.4566 14.49454
13.05549 29.58 14.22309
9.337559 28.26475 21.8844
9.664899 28.25731 20.86524
10.85159 28.20892 19.86867
15.94061 28.1684 5.529963
17.17325 29.68232 1.432929
16.67606 30.01775 5.149517
13.76603 29.55263 12.75416
15.44599 29.01501 6.524028
14.02044 29.40306 9.292959
14.42786 28.7239 5.774951
12.3832 28.0717 17.7704
14.04189 28.767 5.090706
13.50599 28.64873 4.797823
12.38439 27.98717 16.48545
12.90619 27.78988 11.26827
12.95831 27.85386 8.117648
13.08909 29.6949 12.62607
13.58588 29.64307 12.76348
10.33059 29.26531 19.34132
8.74603 29.28289 21.83845
7.783302 29.29192 22.45737
12.58043 29.4125 14.46681
12.86141 29.58887 13.36388
11.12674 28.25069 22.46641
9.102786 28.26411 21.52063
10.10317 28.23752 20.1066
10.88887 28.19887 19.60962
11.81979 28.18454 19.61439
16.2952 28.20875 3.585414
16.56655 30.07525 4.729197
17.06665 29.14859 1.001777
15.68547 29.51884 7.957068
14.85418 28.801 7.658524
13.93352 29.49245 10.35818
14.86683 28.61797 5.249121
12.26032 28.17209 19.02894
13.00107 28.16074 3.908084
13.19631 28.45226 3.091815
12.38018 27.85876 14.82531
12.94111 27.80756 10.67669
12.8136 27.707 8.208161
12.81701 27.85414 3.901591
13.2278 29.82066 10.80849
10.76685 29.19389 16.96012
10.0556 29.19444 19.33321
8.518674 29.27773 21.40379
7.107059 29.28073 22.52136
12.70329 29.51823 13.42648
11.19489 29.17645 16.37211
9.243279 28.24696 20.03669
9.960917 28.23862 19.20857
11.35039 28.15125 18.77962
16.03353 28.13968 4.753976
16.77063 30.13656 2.758302
16.19505 29.99 6.855352
15.75327 29.59019 7.139036
15.45168 28.93767 5.363986
14.69469 28.79107 7.172222
13.83648 29.65781 8.706598
14.95342 28.5353 4.250656
12.04309 28.17589 18.90499
14.38324 28.68977 3.974108
13.51977 28.65993 2.821294
11.76181 28.0745 17.26835
12.38001 27.83524 14.56321
12.43144 27.6926 12.98844
12.77055 27.67571 7.497283
12.85825 27.93302 3.76586
12.85692 29.62527 12.74524
10.88005 29.18136 16.58482
10.08115 29.19204 18.59083
9.399778 29.27038 20.81243
7.872154 29.28359 21.78299
6.724105 29.27946 22.85765
5.642973 29.27827 23.58851
12.58816 29.44372 13.92697
11.06862 29.16386 16.10266
8.143624 28.27407 21.99562
8.773388 28.25699 20.71769
8.651848 28.2548 20.43418
10.32925 28.19814 18.68623
10.71333 28.16791 18.0358
11.84151 28.16513 18.87804
16.15195 28.26463 2.921443
16.67275 30.14127 3.085574
17.17054 29.38035 0.9733189
15.55687 29.11772 5.745104
14.90635 28.76948 7.204333
14.1021 29.28985 8.036065
13.77374 29.67821 9.6468
15.29605 28.41698 4.021126
14.78349 28.54481 3.32234
11.78632 28.13806 18.31902
14.4392 28.64462 3.17062
12.86884 27.97515 3.433168
13.20915 28.47093 2.43481
11.64962 28.08383 17.34686
12.37082 27.62845 11.96848
12.66815 27.59498 7.322221
12.68887 27.7079 2.93152
12.98851 29.77663 10.93481
13.33211 29.90867 9.233339
13.38659 29.86714 9.779516
9.73842 29.17916 19.76356
8.725548 29.26901 20.56377
7.322737 29.28084 22.08239
5.444587 29.28477 23.33089
4.794745 29.27642 23.49293
12.70114 29.55382 12.74686
8.353754 28.26973 21.69465
7.556904 28.26923 22.64691
8.598658 28.24811 19.93734
10.22621 28.19069 17.69525
15.88875 28.2197 3.658379
16.85234 30.23894 1.59751
16.23382 30.01596 6.20382
15.69124 29.45802 6.749731
15.44613 28.84528 4.323663
14.50919 28.81038 6.066016
13.92612 29.57567 7.719182
15.35009 28.36219 3.105188
11.78687 28.14131 18.39979
14.49713 28.61655 2.890084
13.41347 28.5965 1.911968
11.93227 27.92333 15.45555
12.20632 27.70585 13.32781
12.31824 27.53649 10.3688
12.65891 27.59234 6.245655
12.85623 29.79612 9.683031
13.5835 29.83715 9.026928
10.52859 29.18675 16.6855
9.924181 29.18115 16.74914
9.386593 29.24138 19.30044
8.701929 29.26323 20.23024
7.687513 29.28601 21.75319
5.91641 29.15799 24.48064
5.43633 29.24589 24.07111
11.76244 29.137 14.1793
11.16262 29.08889 14.56971
8.816294 28.21035 22.33863
9.095804 28.23576 19.10626
9.999952 28.22787 18.49773
9.949862 28.20706 17.69024
15.85192 28.30687 2.368867
16.29942 30.11768 3.686277
17.16933 29.50272 0.4934292
15.4518 28.81132 3.912226
14.19161 29.14373 7.017702
13.96931 29.55199 6.265514
15.51464 28.32218 3.04478
14.49408 28.55382 1.462646
13.0352 28.31535 1.10064
11.86099 27.939 15.54897
12.5646 27.54761 8.76033
12.45548 27.48369 7.909261
12.60221 27.62926 1.991232
12.88487 29.88122 8.446947
13.53246 29.90821 8.168025
10.2925 29.14677 15.39631
9.340009 29.17204 16.52296
9.557264 29.14853 15.27872
9.655488 29.18811 19.41418
8.534281 29.25117 20.25519
8.054364 29.26642 20.4862
6.414155 29.27099 22.46573
5.525104 29.31872 21.82003
5.307322 29.20956 24.24498
11.67849 29.08 13.37179
10.9608 29.06056 14.12838
6.947999 28.28784 22.61139
7.277089 28.2681 22.86682
8.624288 28.23685 18.98467
9.343894 28.22748 18.26964
10.04 28.21386 18.20849
10.3757 28.16619 16.58593
10.57013 28.14783 16.47653
16.51491 30.22975 1.982926
15.92485 29.81488 6.325117
15.77835 29.52427 4.442411
15.19615 28.70323 4.768559
14.03785 29.4153 6.040521
13.8719 29.75365 5.328834
13.70194 29.89028 6.448753
14.80352 28.47912 1.70798
11.64465 28.01062 16.22107
12.02374 27.70692 13.27875
12.06091 27.52977 10.56217
12.43758 27.42536 5.006285
12.53691 27.54026 1.991039
12.65326 29.67168 9.995449
12.96702 29.98127 7.17407
13.1351 30.08988 5.840675
13.44383 30.0671 5.724458
10.75928 29.13508 15.40409
10.06621 29.14352 15.24064
9.36655 29.14324 15.18215
9.470675 29.20316 18.3502
8.619061 29.23795 19.13024
7.493433 29.28599 21.76257
5.776361 28.85522 24.6345
5.142746 29.30694 22.13618
4.043429 29.22331 23.93593
12.19998 29.28294 12.42833
11.55011 29.03196 12.92109
6.76884 28.28448 22.42584
6.987544 28.26922 23.19411
9.095449 28.22321 17.82353
10.91293 28.10095 16.24791
9.750073 28.21237 16.39305
16.04892 28.33114 2.203196
16.10083 30.01681 3.614319
15.7145 29.41919 5.227804
14.81153 28.65942 4.804063
13.98835 29.54667 5.325418
13.9104 29.75055 3.701217
15.18148 28.40406 1.879808
11.34584 28.02356 15.84967
11.84522 27.83441 14.29579
11.96003 27.62485 11.92392
12.39067 27.40628 5.761255
12.37638 27.36809 2.629557
12.863 29.9566 6.909344
13.00889 30.04677 6.163654
13.27839 30.14501 4.850935
10.45867 29.11405 14.67003
8.963499 29.18727 17.27641
9.506144 29.13239 14.41158
9.098217 29.22927 18.31481
8.766524 29.23433 18.73754
6.941349 29.24184 21.45239
5.36351 29.03912 24.52213
5.022108 29.32027 21.04895
3.744228 29.24467 23.75577
11.88896 29.12202 11.95696
10.92421 28.9605 12.23329
6.515567 28.29074 22.7999
8.323229 28.22908 18.3641
8.962194 28.2228 17.47518
10.05993 28.19365 15.80589
10.43091 28.14735 15.61806
16.9521 30.31316 0.7008961
15.91542 29.80578 5.003379
15.63202 28.97363 3.081164
14.64599 28.68951 4.644722
13.99865 29.56335 3.762067
13.60338 30.0595 4.405736
13.76782 28.63337 1.00361
11.01591 28.05984 15.5558
12.14735 27.39323 7.626818
12.01673 27.52925 10.51037
12.25456 27.31337 4.49027
12.34425 27.3428 2.331187
12.6599 29.81493 7.441432
12.11696 29.26564 10.70724
13.07197 30.24581 1.914869
9.847498 29.12008 13.89025
8.252501 29.18094 17.49171
9.551402 29.1258 13.95864
8.88041 29.12902 15.18971
9.282459 29.20765 17.67676
7.902566 29.24477 19.3084
6.567721 29.20717 21.06157
4.892128 29.04552 24.43703
5.391298 29.35879 20.46807
3.914718 29.30443 23.21356
11.85894 29.10841 11.61609
11.15663 28.95627 12.13811
10.58127 29.05548 13.58829
6.62866 28.29888 23.25204
7.422379 28.14898 23.07809
8.196411 28.22851 18.41225
8.604765 28.21785 16.80522
9.242126 28.22495 16.72995
9.929692 28.20571 15.73263
10.42637 28.14664 15.49985
16.09091 30.03107 2.222078
15.75269 29.39329 3.749974
15.04175 28.60827 3.930853
14.04113 29.4587 3.787027
13.87443 29.83884 2.509496
14.80301 28.44621 0.9889803
11.00764 28.03967 15.04607
11.75097 27.70278 12.74928
11.83683 27.60983 11.41015
11.82997 27.40475 7.777472
12.40875 27.41649 1.057905
12.31927 29.4402 9.73244
12.02675 29.21586 9.960888
13.41992 30.18867 3.014057
12.98284 30.21032 2.422018
7.972837 29.20488 18.35294
9.372901 29.11152 13.19274
8.823416 29.12961 15.28938
7.863432 29.23633 19.08992
6.615755 29.18988 20.77349
5.208095 28.5841 24.47581
4.696166 29.32708 21.03421
5.24571 29.35046 20.30795
4.231522 29.38084 21.93514
11.91551 29.13755 11.39076
10.54857 29.02328 12.85544
7.535033 28.26349 20.81929
6.051516 28.29988 23.16414
7.525513 28.2338 19.51173
7.663009 28.1998 17.83823
7.533298 28.20978 18.33867
8.903874 28.22973 16.07478
9.247591 28.23186 16.19214
9.636669 28.23248 14.84763
16.12078 30.05923 1.854951
15.78159 29.35312 2.84766
15.28573 28.5907 2.499698
14.49606 28.76225 4.465342
13.81233 29.92466 2.325647
13.44428 28.54111 0.7570633
13.05616 28.28992 0.3022515
11.59671 27.70416 12.14201
11.60255 27.59527 10.43632
11.68282 27.39235 7.070222
12.07867 27.31405 5.789866
12.24979 27.27186 1.398247
12.51262 29.7254 7.143825
12.67876 29.93491 5.551407
12.76792 30.08399 3.577765
7.809105 29.16681 17.35366
9.643429 29.09725 12.12658
8.621011 29.14642 16.11091
7.685034 29.22261 19.03014
6.103974 29.31607 20.82605
5.040482 28.51824 24.39543
5.840362 29.36535 20.51042
5.23294 29.36818 19.5119
4.067754 29.4159 21.89639
11.45243 28.97605 11.68759
10.83582 28.9343 11.33915
7.484591 28.25196 20.73214
5.889081 28.32286 23.86131
7.538437 28.23801 19.94656
8.526854 28.2261 14.42272
9.389424 28.25514 14.35172
16.29997 30.22785 1.224238
15.83403 29.60368 3.28932
15.16798 28.52386 1.988245
14.49044 28.72866 3.314897
14.04962 29.44383 2.479112
13.46112 30.21171 1.773338
10.4399 28.13169 14.68531
11.43628 27.76202 12.34572
11.44433 27.51121 7.967816
12.05749 27.27091 4.85682
12.05877 27.183 2.069805
12.38418 29.57695 7.942407
12.06576 29.25439 9.516381
12.66871 30.05395 3.111521
7.494763 29.19253 18.5542
9.35316 29.08127 11.50229
9.008879 29.09682 13.52009
8.50506 29.07978 14.50986
6.366587 29.241 20.62327
4.639658 28.47797 24.27197
5.863474 29.38838 19.42354
5.39458 29.41526 18.36777
3.847692 29.41967 22.19153
11.65731 29.02053 10.60558
10.72623 28.91257 10.50434
10.97558 28.86893 9.575853
5.691533 28.30545 22.69731
6.518104 28.29245 23.81019
7.761322 28.18074 17.0043
7.089936 28.17956 18.08926
8.452055 28.21786 14.72472
9.57317 28.24281 14.48758
16.02943 29.97314 1.452798
15.74562 28.99024 1.530619
14.61816 28.64314 2.971352
14.336 28.88178 3.384087
10.91177 27.98882 13.38078
10.60574 28.07736 13.47752
11.3607 27.56735 8.430913
11.83095 27.29062 5.459519
12.04394 27.18826 2.386996
12.10307 29.36059 7.359072
12.56747 29.9418 3.93367
12.53684 29.95963 3.129752
12.91335 30.25287 1.339666
9.405251 29.05349 10.42736
9.245669 29.07051 11.29767
8.812405 29.07393 13.37744
8.038527 29.1335 16.26651
7.145187 29.17665 19.17131
5.913309 29.38036 19.44134
3.521496 28.66882 24.19604
4.324194 29.40738 20.43909
5.067544 29.39184 17.72598
3.167049 29.20699 23.5216
10.65231 28.91084 10.25041
11.03081 28.8664 9.405696
5.31913 28.31255 23.53708
7.05418 28.24523 19.89587
7.804896 28.17533 16.72977
8.27013 28.19898 15.56599
9.220938 28.29379 13.28145
10.17776 28.18241 13.73919
15.8353 29.51163 2.482099
14.47596 28.73238 3.027218
13.95764 29.77031 1.350958
11.27431 27.80719 12.22393
11.16942 27.68076 9.074651
11.16483 27.57718 6.990365
11.87185 27.16277 2.691516
11.9088 29.20653 7.41711
12.23451 29.57184 5.326093
11.88821 29.14446 9.062167
12.36257 29.7334 4.622212
12.4543 29.93107 2.504847
7.218431 29.17327 17.24764
10.32759 29.02031 12.01959
9.373265 29.03461 9.818832
9.030403 29.04814 11.26318
8.498176 29.02109 13.02017
8.229558 29.0556 14.38562
6.995564 29.16796 19.27421
5.915377 29.39015 18.92031
4.368802 29.41858 18.97842
4.17524 29.46254 20.16841
5.236501 29.4279 17.34454
3.390027 29.24875 23.01443
10.50872 28.92472 10.13374
6.012201 28.27182 21.6072
5.042897 28.32641 22.9708
5.362279 28.32913 22.42958
7.0093 28.24556 19.93169
6.767709 28.16257 18.30505
8.214243 28.18807 14.86154
9.270139 28.30605 12.59071
15.64044 28.47247 0.4043764
15.76534 28.96122 0.9517758
14.3218 28.86227 2.351722
15.09734 28.41009 0.801097
10.48833 28.07292 11.98318
10.86172 27.89359 10.91679
11.18634 27.68708 9.375279
11.65157 27.1951 3.165503
11.25864 27.37869 4.256635
11.85467 29.19332 6.615125
12.2275 29.61433 4.401725
11.85198 29.29427 3.742978
11.70786 29.04102 9.048491
12.17018 29.66805 2.569654
7.039957 29.17977 18.0907
10.12871 28.98037 10.02711
9.778929 29.0243 9.883322
9.699871 28.99646 8.905006
8.90628 29.0263 11.13233
7.934149 29.03305 14.3341
7.674979 29.04815 14.74279
6.253458 29.30638 19.08115
3.203361 28.48046 23.95056
4.175852 29.49295 18.40829
5.587508 29.46209 17.32487
3.864675 29.52072 21.03013
10.50607 28.85992 8.376433
5.34641 28.33913 21.99729
6.062355 28.23976 20.73502
7.322222 28.12567 16.39458
6.65285 28.17967 19.23732
8.149978 28.17303 13.64222
9.068462 28.30549 12.46891
15.82233 29.31491 1.332698
10.72814 28.00844 12.48842
10.09729 28.19346 12.39236
10.85481 27.8854 10.62139
11.25173 27.31778 2.958164
11.55034 27.19323 2.704607
11.13575 27.50179 5.220906
11.70415 29.08364 6.945965
12.03171 29.53354 2.571559
11.78975 29.37336 1.606459
13.08032 30.29095 0.8018339
10.16847 28.91966 8.514769
9.978447 28.99219 9.67678
9.660033 28.95906 7.90356
8.509713 28.99356 12.29149
7.722867 29.06668 15.09672
6.030851 29.40187 17.76742
4.090956 29.52753 18.2463
5.699895 29.5128 16.53943
3.35511 29.17211 22.76637
10.66233 28.83841 8.215789
5.142739 28.37476 21.59085
5.897119 28.26252 20.41284
6.814881 28.12631 16.91147
7.731241 28.13149 15.41136
8.243396 28.18302 12.66378
9.032463 28.31738 11.92068
15.86364 29.51986 1.071508
14.94901 28.45304 0.3397475
10.57853 28.00145 10.17652
10.66054 27.96473 10.31006
11.09485 27.39394 2.647111
10.8835 27.70458 6.328713
11.64652 29.05132 6.837777
11.93049 29.47105 2.045027
11.64847 29.12446 4.001961
13.71353 30.11316 0.8279285
10.16727 28.88158 7.536533
9.239496 28.95438 7.876884
8.953331 28.95597 8.842458
8.741639 28.93539 9.377022
8.70251 28.95699 10.20537
7.950493 28.93784 12.8215
7.702445 29.00286 13.92739
6.380243 29.27442 18.86688
6.176302 29.38104 17.2849
4.250451 29.46811 17.71134
5.545683 29.50288 16.65689
3.508351 29.17224 22.06987
10.60835 28.81738 7.293903
5.347468 28.35275 21.57183
4.648023 28.37409 21.71111
6.057491 28.20972 19.02572
7.292723 28.07851 15.55055
7.731498 28.0723 13.79078
8.571074 28.25879 11.94051
8.973775 28.36012 10.55478
9.70512 28.27374 12.69373
14.64477 28.59498 1.113117
10.52526 28.03232 10.67249
10.60366 27.92127 7.613205
11.03249 27.45316 2.988474
10.83364 27.74479 6.499619
11.67871 27.03991 0.4063267
11.5167 29.04045 4.231735
11.43287 28.9479 6.669114
6.904258 29.20194 16.78504
8.889154 28.89725 7.664973
8.44484 28.87645 9.490225
8.241178 28.95135 12.37809
8.195752 28.85609 10.20885
6.649732 29.23009 18.07028
4.508411 29.37873 16.48423
3.672814 29.62424 18.67842
3.556403 29.5347 20.20227
10.76441 28.82663 7.779809
11.03515 28.83225 7.056739
5.048647 28.41556 20.90709
4.186584 28.30663 22.77434
6.841747 28.05957 15.63847
6.283096 28.16433 18.4107
7.530257 28.02309 13.7832
8.081819 28.13061 12.22293
8.906573 28.35002 10.66333
9.821806 28.2532 12.03602
9.911941 28.24449 11.41115
10.63633 27.93796 8.956199
10.60301 27.90031 6.883679
10.63141 27.86509 6.173022
10.63142 27.78185 3.403688
11.44129 28.99114 5.005929
11.3482 28.91495 6.7342
6.682025 29.25003 16.36421
8.745157 28.86634 7.597325
9.997505 28.83807 6.084222
7.81535 28.90806 12.43514
7.458226 28.95486 13.051
6.450691 29.30604 17.19537
4.000157 29.56394 16.79432
6.093401 29.47487 16.0898
3.496116 29.34565 21.21485
10.7769 28.80352 6.271219
5.232523 28.40672 20.6297
4.330901 28.32085 21.22911
6.116994 28.19536 18.69126
6.213735 28.19084 17.15395
7.427246 28.02659 14.27336
7.854292 28.05389 11.97235
8.758066 28.37501 8.689965
9.595966 28.3307 10.668
9.795197 28.27974 11.05603
10.4654 28.02849 9.07852
10.78336 27.59564 2.028817
10.98502 27.39566 1.340139
10.67765 27.80218 5.126818
10.58129 27.80083 2.779465
11.43978 29.07768 2.187042
11.20112 28.89095 5.335618
6.6964 29.23616 15.66747
9.517136 28.79896 5.039483
9.649383 28.78751 4.876224
7.745203 28.88331 11.88616
7.060501 29.08595 13.76487
4.095366 29.51867 16.51642
5.787546 29.61167 15.39464
3.158182 28.95609 22.40413
10.915 28.8301 5.150829
5.272335 28.42377 20.04823
4.210786 28.25778 21.04752
6.754617 28.0113 14.89102
6.346823 28.154 16.44937
8.198902 28.16314 11.19001
8.629534 28.31712 9.869785
9.644007 28.33743 10.04296
9.764044 28.29847 10.67397
10.0553 28.21631 7.87947
10.46239 27.83972 0.9330747
10.43194 27.96594 4.158978
11.60287 29.2718 1.276684
11.25807 28.97514 2.147719
6.788624 29.20236 15.17286
9.327397 28.75203 4.335325
9.494226 28.75211 4.284568
9.927518 28.7602 4.373269
7.988455 28.80048 9.177711
7.830024 28.82681 10.26965
3.191755 28.29559 23.04677
3.462116 29.50436 19.16411
5.302694 29.53976 15.20296
2.599631 28.6028 23.38431
5.372367 28.42562 19.31379
4.945233 28.49337 19.51197
5.678723 28.33967 18.7438
7.18049 27.97919 14.15567
7.633006 27.96015 11.41514
8.77454 28.39584 7.838661
9.604123 28.36429 8.744434
9.890123 28.27388 9.445228
9.991491 28.25175 6.426261
10.36506 27.96025 2.190565
11.08878 27.25054 0.7075725
11.00406 28.83842 2.663521
9.116822 28.79199 5.209014
9.871148 28.71963 3.672728
9.599936 28.72303 3.745778
8.323538 28.76085 6.64941
7.640689 28.84838 10.80799
7.133188 29.01987 12.81815
3.550363 29.63286 17.42757
5.702475 29.68799 14.55675
2.844366 29.38382 22.861
10.32885 28.77449 4.630847
5.0333 28.49779 19.26924
4.203146 28.19728 19.88332
6.538594 28.02362 14.71729
6.250654 28.16361 16.08989
7.358449 27.89331 11.6814
8.14483 28.14245 9.746825
8.951049 28.43084 7.729216
9.37278 28.42597 7.600028
9.819897 28.32557 5.979227
10.1925 28.13505 4.021622
10.99663 28.83471 4.086377
6.698572 29.24173 14.71909
8.71905 28.73156 4.793755
10.14066 28.73414 3.92701
8.355322 28.74695 6.098074
7.55768 28.84687 10.27236
6.894736 29.12424 12.69729
4.560255 29.31172 14.75971
4.878079 29.36697 15.33162
3.473165 29.20356 20.05135
2.73781 28.42889 23.18324
5.424759 28.46229 17.48113
4.527122 28.42655 19.16074
4.15624 28.12647 19.7253
6.500114 28.00942 14.37821
5.902898 28.28938 16.72163
7.512425 27.88233 10.29607
8.035107 28.09052 9.373199
8.78273 28.40693 6.545063
9.500601 28.40627 7.740684
9.770056 28.34518 6.142348
10.24139 28.02712 0.9402537
11.47797 29.18482 1.1155
6.700932 29.25144 13.67687
8.905547 28.72273 4.348764
9.998915 28.65887 2.69601
8.085915 28.72312 5.749547
7.412336 28.87129 10.17478
6.838398 29.15745 12.61703
4.474021 29.32969 14.83761
6.345519 29.46225 14.43226
3.604839 29.03701 20.96275
10.36968 28.73317 3.700427
5.081297 28.55093 17.43362
4.59267 28.46342 17.5473
3.791323 27.91894 21.41104
6.630654 27.90548 13.20607
6.897195 27.84507 12.01602
7.746805 27.94687 8.92052
8.906234 28.4288 6.2857
9.635769 28.38017 6.703176
9.769617 28.34773 5.774059
10.67193 27.55052 0.2186963
10.97351 28.85866 1.826197
8.778373 28.64262 3.193328
8.530274 28.70282 4.525828
7.988112 28.72319 5.624302
7.23332 28.93217 10.1445
7.419409 28.85673 9.388826
7.174841 28.95726 10.19942
4.067331 29.51073 15.7814
6.283384 29.50831 14.30781
3.564086 29.09554 20.20461
2.410924 29.03709 22.88501
4.429949 28.33281 17.98389
4.20751 28.11615 19.09166
6.60349 27.90095 12.80923
7.036454 27.82278 11.3172
7.639116 27.90903 9.592307
8.907452 28.40586 4.453316
7.979222 28.04872 6.833098
8.303218 28.22326 6.292454
9.494659 28.42403 5.48797
10.44109 27.80997 0.6132094
9.929379 28.24539 2.586283
6.452156 29.40978 13.99412
8.578818 28.6723 3.849598
9.269818 28.57118 2.07325
7.732535 28.73862 4.825884
7.438583 28.83498 7.91731
6.483777 29.4345 12.75573
7.175306 28.95647 9.908544
3.722381 29.65216 15.70842
6.217556 29.60225 13.58324
5.153 29.49706 14.3953
2.416033 28.54126 22.81855
5.469082 28.48568 16.33176
4.783893 28.56753 16.6446
3.867655 27.89698 20.91014
6.056381 28.18928 14.71068
7.017347 27.76781 9.733391
7.461255 27.82381 8.389724
7.867174 27.99771 8.354627
9.027972 28.43822 5.173402
7.958922 28.03722 6.588459
9.365161 28.43802 4.713358
10.40124 27.83422 0.3429688
9.787453 28.31178 2.499509
6.346471 29.51921 13.39673
10.09937 28.63714 2.010453
9.003758 28.55291 1.984622
7.226121 28.92274 8.420047
7.406181 28.8376 6.226205
6.886232 29.13736 10.65374
4.234029 29.38862 14.54299
6.248421 29.60751 13.1981
2.911664 29.32485 22.2039
5.273865 28.57788 16.02252
3.633545 27.81301 21.5301
3.667356 27.74776 21.24066
5.879185 28.29563 14.97773
7.111039 27.77074 9.628959
7.448642 27.80387 7.084082
8.58155 28.3097 3.841892
8.156549 28.13567 5.340982
9.422498 28.42522 4.116096
9.801084 28.31108 1.948723
10.44757 28.68941 1.410586
10.35867 28.66997 1.420028
7.078116 29.0108 7.175494
7.46392 28.81139 4.583708
6.447279 29.51429 11.90019
6.775423 29.2394 10.22654
3.695086 29.65425 15.45712
5.390736 29.72144 12.96866
3.096848 28.87538 21.43287
4.39517 28.26188 17.75722
4.027496 27.72661 19.01222
6.186284 28.08128 13.56831
6.546372 27.85165 10.29225
6.864747 27.7625 9.265782
7.57356 27.84909 6.812579
8.645578 28.33911 2.861177
7.69417 27.90156 6.092826
7.878045 27.99057 4.870749
9.541043 28.38778 2.780087
8.032637 28.66932 3.770051
6.906418 29.14838 7.987381
7.123739 29.00835 4.308497
6.122762 29.7467 12.43456
4.202952 29.39168 14.26973
3.695662 28.94546 19.25987
5.8217 29.87063 12.26387
2.593729 28.17608 22.62332
4.288107 27.97039 17.46243
3.766023 27.5164 20.04684
3.520593 27.69387 21.31388
6.132569 28.0998 12.94282
5.517027 28.5372 14.64092
7.179482 27.73768 6.394888
7.47038 27.80926 6.50446
9.476156 28.39949 2.721643
8.761768 28.3782 2.401091
7.835192 27.96946 4.231425
8.551407 28.55863 1.570465
7.634161 28.74886 3.76388
6.842931 29.20296 8.442808
6.282573 29.70823 11.24931
6.703268 29.32575 9.525452
3.984327 29.50241 14.28097
3.475076 29.04626 17.61048
5.060483 29.47787 13.085
2.792463 28.25037 22.24099
4.248878 27.94383 17.8516
4.698613 28.59679 15.46549
5.845912 28.31977 13.58602
6.405406 27.89132 9.342945
7.024699 27.72191 5.672026
8.023461 28.068 3.38712
8.237457 28.18189 2.457752
7.671038 27.90539 3.227874
8.382971 28.59361 1.97627
10.07211 28.62003 1.199826
6.930447 29.15326 5.686172
7.446872 28.83368 3.138139
6.587698 29.49486 8.784992
4.241278 29.34123 13.49186
3.269363 29.29256 16.81837
5.446047 29.88563 10.95891
2.74285 29.60894 21.79634
5.027173 28.70091 14.86551
4.751853 28.64112 15.17623
5.571794 28.52747 13.9285
6.145119 28.06883 10.63971
6.641016 27.7898 7.895769
6.857738 27.72999 6.267715
8.067287 28.10011 2.460411
8.459927 28.27623 1.867545
7.870191 27.99265 3.44341
7.738712 28.71654 2.980366
6.860588 29.25106 5.000538
7.446505 28.84247 2.866715
6.266254 29.78542 10.36396
4.59755 29.27035 13.01312
3.905215 28.7832 19.27204
5.125789 29.553 12.35724
2.937361 29.13356 21.22833
4.097893 27.48968 17.37734
3.760062 27.30306 19.22967
5.785185 28.37582 12.88776
6.248403 27.98171 8.161963
6.736156 27.75027 6.029117
7.463967 27.82817 3.298646
8.543851 28.30186 1.197594
9.260541 28.39239 0.2486448
10.19249 28.59177 0.6388872
6.695766 29.42204 6.538697
6.950899 29.22363 3.068838
6.390323 29.81376 7.714537
4.309795 29.29669 12.95572
3.536133 28.9788 17.207
5.130997 29.57875 11.88302
3.303128 28.63401 20.63477
4.155561 27.57549 17.14412
4.817188 28.72212 14.21382
5.498312 28.58754 13.73381
6.029693 28.1597 9.464288
6.297716 27.9492 8.176352
5.241209 28.73552 13.53151
7.306097 27.78538 3.397025
7.729046 27.94669 2.347734
7.693339 28.76345 2.11214
6.804916 29.40153 3.218368
7.392172 28.91311 2.042115
6.1468 29.92031 9.81568
6.288665 29.84059 9.113303
4.048962 29.39935 12.89748
4.015969 28.6692 18.98483
5.831804 30.02958 9.994924
4.023073 28.51591 19.56814
2.248545 28.30395 22.02282
4.284223 27.92775 16.15388
3.904861 27.13208 17.33643
5.682845 28.49062 11.67022
6.089388 28.10955 8.55835
6.738574 27.75582 5.05721
7.342522 27.81991 2.286526
8.318336 28.61352 1.117822
6.625868 29.54386 6.013282
6.817894 29.46382 2.022575
6.210713 29.95577 8.495536
3.20032 29.56848 14.77347
5.970885 29.99215 10.06441
4.923773 29.39777 12.03224
2.823292 28.32392 21.58839
4.282082 27.96707 15.51527
3.487731 27.11164 19.16022
5.472969 28.65065 12.45633
5.872621 28.31986 9.681463
6.469381 27.84742 5.284221
6.793553 27.76723 3.237788
7.302254 27.80987 2.291017
6.653827 29.64357 3.124352
6.725836 29.56498 2.400201
6.76715 29.55603 1.757961
6.164303 29.99006 8.513487
3.791619 29.51575 12.37722
4.084033 28.46242 19.25893
5.53906 30.04098 9.367857
3.427934 28.52445 20.30586
2.345438 29.07469 21.8339
4.449206 28.47387 14.28454
3.140129 27.81114 20.61316
5.81103 28.3875 9.558047
6.351133 27.91522 5.530601
6.611327 27.81404 3.117112
7.970659 28.0496 0.7328143
8.013765 28.69736 1.167781
6.531129 29.90569 2.122075
6.613091 29.78628 1.809924
6.158466 30.0403 7.726336
3.551471 29.65777 13.56947
4.024953 28.70306 17.36987
5.036435 29.54833 9.994967
2.882327 29.08997 20.55386
4.067061 27.24206 16.1666
4.305608 28.15172 14.46683
3.706264 26.8584 17.35584
5.637759 28.57413 9.784728
5.873775 28.3258 9.08911
5.099966 28.81424 12.63356
6.711845 27.8166 1.933367
7.579402 27.90689 0.2181222
6.429576 29.97463 3.807363
5.92653 30.10901 8.5397
4.539415 29.23513 11.63294
4.157491 28.45515 18.55614
5.349705 29.95865 8.982077
4.738322 29.29266 11.32298
2.784555 29.43488 20.73581
4.660444 28.74407 12.95958
4.23926 27.76217 14.63288
3.448114 27.00067 18.72186
5.477732 28.68573 11.09181
5.929865 28.28609 6.649622
6.165706 28.06754 4.197551
6.345704 27.99407 1.114703
7.131519 27.82261 1.004172
6.361776 30.08646 3.52211
5.876314 30.11962 8.675195
4.055344 29.31557 11.28789
4.19225 28.34782 18.45885
4.953556 29.45996 10.10009
2.804828 29.27365 20.59083
3.805804 26.886 16.60691
4.250621 27.87125 13.99681
3.669867 26.7993 17.20132
5.457691 28.7532 9.317402
5.919355 28.3086 5.928468
6.076315 28.16121 3.680316
6.196396 28.10182 1.312582
6.315851 30.16709 3.000774
6.887996 29.52351 0.8551651
4.40279 29.21154 10.90201
3.806009 29.409 10.52263
3.040623 29.36436 14.39769
5.19652 29.86156 8.084484
3.776047 28.32664 19.37241
2.406394 28.52675 21.39706
4.229533 27.61309 14.2122
3.100026 27.44017 19.51365
5.280032 28.83508 10.30085
5.940837 28.31506 3.78728
6.041655 28.20655 3.249839
7.1457 27.80246 0.4744491
6.138972 30.29924 3.721559
6.006145 30.21325 6.532639
3.972642 29.34583 11.13632
3.445572 28.886 15.4243
4.999553 29.55172 8.530636
4.83013 29.34497 10.3266
2.963903 28.6605 20.81839
3.794209 26.80795 16.23559
4.279424 28.33042 11.64281
3.102038 27.23285 18.94143
5.375654 28.81529 9.21542
5.644789 28.63931 5.934065
6.370221 27.96094 0.5477424
6.26161 30.31347 1.411298
6.008712 30.2634 5.717191
4.101696 29.26046 10.64188
3.115571 29.58126 13.53387
4.269826 28.30592 17.11165
5.490879 30.25545 6.010102
1.914413 29.58048 21.29949
4.568447 28.73908 12.02077
4.236182 27.60648 12.37797
4.237244 27.62892 13.5064
3.072424 27.47898 19.3347
5.210456 28.84742 10.92829
5.705514 28.58153 5.192903
5.774018 28.51982 4.220654
6.001996 28.28781 1.762628
6.157697 30.34158 2.371281
5.76233 30.25638 6.73315
3.376497 29.649 11.83758
3.501143 29.57034 10.56632
3.743427 28.75331 15.57319
4.992878 29.56689 7.73305
5.406858 30.17454 6.386352
2.84475 29.07022 19.96762
4.522472 28.68907 12.27312
4.224777 28.02251 11.03515
4.230952 27.47301 13.11325
3.614942 26.6882 16.49527
5.231895 28.91348 8.651505
5.546151 28.75552 5.440739
5.710145 28.64273 2.478518
5.778449 28.5832 1.025108
5.913312 30.42082 3.606362
3.366203 29.64459 11.43894
4.126333 29.1725 8.824794
3.93404 28.1899 18.77977
5.196656 30.00685 5.986269
3.427022 28.6917 19.44704
2.314446 27.75131 21.05685
4.088479 27.01057 14.37652
4.218277 28.30773 9.909719
3.061677 27.45972 18.92371
4.946609 28.93224 10.20767
5.21139 28.95223 7.488214
5.442678 28.84816 5.496016
4.720787 28.863 11.10265
5.816961 30.44599 3.52255
3.234263 29.65354 11.74883
2.950588 29.41602 13.30808
4.217197 27.98337 17.44944
5.107059 29.81874 6.742592
5.568127 30.33236 5.295042
2.842108 28.38661 19.95744
4.158097 27.12935 13.59462
4.213215 28.33625 9.649734
4.441478 28.74881 9.97602
4.808281 28.90122 10.6432
4.867407 29.01953 7.880783
5.516744 28.84734 2.243325
6.083951 30.47101 0.944308
3.260712 28.49834 20.24002
3.706559 29.32641 7.866728
2.946795 29.25767 13.56933
4.281729 28.16965 16.78338
5.072448 29.90105 4.664335
2.567341 29.96712 20.09067
3.644988 26.72474 15.27388
4.202579 27.77896 10.51914
4.577146 28.8538 9.974751
4.849995 28.95118 9.749763
5.248783 28.99789 4.400484
5.575819 28.77444 0.9501934
3.031574 29.56762 12.33144
3.745095 29.25906 7.028559
3.182962 28.87261 14.06478
4.082375 27.78129 17.36166
4.996896 29.66801 5.816259
5.169432 30.18352 3.142681
2.757106 29.19928 19.66367
3.534517 26.72803 15.49609
4.202982 27.74105 10.57854
4.298195 28.62082 9.144154
3.207347 26.54862 17.13142
5.036301 29.05682 5.747422
5.210378 29.00029 5.537282
5.52196 30.46821 2.653884
3.458044 29.46058 7.624011
3.524056 29.39628 7.076834
2.889567 29.38874 12.61262
4.226841 27.89805 16.41292
4.932738 29.5867 4.862867
4.990993 29.77357 3.984708
2.45329 30.06213 20.15503
1.853408 29.33109 20.92258
4.163501 27.56119 10.34526
4.127165 28.12639 8.392694
2.998218 26.95236 17.69452
4.705556 29.03544 6.737375
5.531678 28.79998 0.4609967
3.048261 29.61003 10.73861
3.712631 29.20359 5.560597
4.081794 29.09102 6.479447
4.063191 28.31007 15.08814
4.714279 29.24252 7.046165
4.939064 29.6553 3.896384
2.739643 29.25873 19.39724
3.867363 26.91775 12.97729
4.098505 27.7974 8.808935
4.304738 28.71584 7.953488
3.045882 26.84391 17.51531
4.660122 29.02061 6.790515
5.427322 28.87965 0.8075669
3.247307 29.53314 7.242418
3.508287 29.3553 6.054963
3.320835 28.67595 13.51848
4.607784 29.17779 7.313362
5.064256 30.06851 2.527829
5.249047 30.38727 1.720974
3.509173 26.89567 14.87539
4.080871 27.55471 9.484187
4.402274 28.82497 8.048161
4.505281 28.94941 6.9421
4.638977 29.03437 6.069413
2.850891 29.38552 12.05375
3.936488 29.1117 5.831467
4.294055 29.06217 6.040602
4.082308 28.00974 15.41141
4.793898 29.35069 4.791481
2.935684 28.97374 19.22948
3.672087 26.8867 13.77177
4.015804 27.77279 8.119909
3.527428 28.05572 18.50137
4.798166 29.07314 2.739605
5.172685 28.99246 0.8604341
2.987554 29.59094 7.967065
2.860409 29.54216 9.829967
3.953502 28.30414 14.43746
4.591558 29.15716 6.069294
3.051941 28.93599 19.01347
3.516256 27.12573 14.31441
3.959314 27.42104 9.332887
4.060133 28.34707 6.598961
3.380283 26.82195 16.95296
4.764186 29.04811 1.701717
2.853364 29.55398 8.85125
3.402807 29.37295 5.07408
3.579308 28.42709 13.24461
4.584362 29.14911 4.91864
2.745666 29.39408 19.42547
3.611255 27.03172 13.37554
3.878084 27.52194 8.413946
4.218294 28.70087 6.521934
3.10765 27.02319 17.22639
4.515047 28.95925 1.18297
2.786372 29.52727 8.571037
3.314651 29.4206 5.083754
2.926267 28.89989 12.58563
4.047751 27.42743 16.51484
4.794761 29.3964 2.316079
2.555118 28.89524 20.72565
3.609199 27.14258 12.55402
3.710089 27.54626 7.633851
4.211729 28.70589 6.319631
4.318656 28.87979 5.244184
4.372654 28.93055 4.855909
2.707548 29.44714 9.012929
3.841179 29.0563 3.832867
3.676267 29.1195 3.515715
3.990234 27.84449 15.28019
5.085077 30.30119 1.188402
2.591941 28.8153 20.75212
3.620715 27.14721 11.96064
3.486172 27.51088 7.467295
3.863737 28.05659 5.858503
3.543801 27.86937 17.63792
4.343814 28.91147 2.377044
4.900573 29.01589 0.463853
2.849827 29.56086 6.581897
3.333324 29.29875 2.938393
3.030113 28.7103 12.33845
3.950376 27.67188 15.94396
4.801268 29.49576 1.012645
1.7956 29.80747 20.61605
3.600282 27.1923 11.55027
3.316021 27.60747 6.591796
4.079541 28.56317 5.48072
3.13242 27.18778 17.15867
4.31576 28.84229 0.6567088
2.646643 29.46544 7.008813
3.485855 29.19404 2.91814
3.77916 28.97013 1.818245
3.910364 27.74401 15.33987
4.866452 29.7104 1.345125
1.922228 29.21993 20.68662
3.601439 27.35999 14.16311
3.546915 27.30263 9.750255
3.25424 27.78017 4.901685
3.724105 27.9831 5.26673
4.238452 28.85376 2.879885
2.804051 28.89584 11.59902
2.761564 29.53716 6.098428
3.487157 29.14457 2.176898
3.532081 28.24019 12.38452
4.404689 29.01871 2.582408
2.060738 29.13901 20.51692
3.597331 27.41237 12.87843
3.294856 27.49876 8.358171
3.151899 27.80228 4.607228
3.670483 27.94948 5.128628
4.055586 28.65649 3.999621
2.553081 29.07784 9.318086
2.925826 29.53273 4.074981
3.910367 28.9672 2.440697
3.855578 27.77608 13.93896
4.388815 28.99462 1.675361
2.222524 27.60839 20.1044
3.387754 27.44827 10.36776
2.935614 27.81515 4.872372
3.577299 27.95238 4.66463
3.278424 27.33712 17.0319
2.849147 28.62822 10.84582
2.57272 28.95138 9.501655
3.00831 29.43137 2.011932
3.181627 28.31479 11.22041
4.286614 28.95621 1.743207
2.002259 29.10301 20.19638
3.810368 27.71581 13.85908
2.988363 27.73121 6.543092
3.230201 27.90726 3.757097
3.881012 28.47079 3.578108
3.954296 28.6126 2.582823
2.622288 28.79498 9.704863
2.443494 29.19674 7.039449
4.170524 28.94247 1.858343
4.547495 29.11403 0.8990231
1.628156 29.6462 20.15541
3.668562 27.71503 12.72956
2.945258 27.76367 6.252102
2.825377 27.9102 3.841348
3.853604 28.42268 3.662683
3.875177 28.51877 2.92242
2.41642 29.05339 7.34427
3.133714 29.3452 1.378485
4.509778 29.07649 0.8430253
2.807573 28.21482 19.18482
3.484406 27.635 11.64111
3.001159 27.76085 8.178654
2.486562 28.12855 4.289667
2.728606 28.03556 2.515526
3.732117 28.35602 2.997662
2.422993 28.91827 7.632299
2.797774 29.53376 3.258533
2.985753 28.29621 10.26311
2.605141 29.8308 19.06408
2.331663 28.36862 19.8252
2.964155 28.12713 9.663286
2.491062 28.13072 4.530382
2.413018 28.19234 2.509035
3.365374 28.09791 2.655447
3.397064 28.31032 0.8016968
2.31136 29.15067 5.454073
2.680316 29.53242 2.687377
2.964196 28.19532 9.841853
2.737782 29.23594 18.61996
2.637662 28.9212 19.7354
3.052104 28.08369 10.00127
2.511784 28.14849 5.162457
2.192154 28.38987 1.920443
3.203486 28.13117 1.852792
2.637683 28.4276 8.655451
2.598584 29.51838 3.135024
2.942171 29.44263 1.064212
2.752212 29.19846 18.55278
2.731494 28.59638 19.72324
2.861394 28.09342 8.913857
2.698982 28.06086 7.069494
3.420607 28.21959 1.928798
2.612537 28.44572 8.529161
2.242605 29.22661 4.146808
2.605595 29.72931 18.62693
2.394291 27.62483 19.01803
2.673927 28.48094 19.54675
2.763413 28.17812 8.509825
2.489959 28.26306 6.005988
3.393457 28.23443 1.672912
2.296981 28.7723 6.109729
3.590926 28.87542 18.1507
2.866333 28.2011 18.29687
2.160493 29.01935 19.22284
2.525657 28.31319 6.869075
2.053477 28.75897 2.514703
3.282478 28.21814 1.371047
2.321796 28.68012 6.24178
3.278082 28.89086 18.26475
2.418992 27.64048 18.8565
2.076366 28.31798 18.98879
2.263655 28.54126 4.659766
1.96034 28.79603 1.353324
2.188661 29.29959 3.117785
3.767304 28.78698 17.81723
2.591308 27.79035 18.26048
2.272397 29.02096 18.99713
2.436463 28.44247 6.604973
1.981928 28.93848 1.853202
2.292915 28.61248 5.579471
1.78624 30.153 19.05124
2.525538 27.721 18.15283
1.788301 28.98567 18.98913
1.609541 28.06303 18.83781
1.948008 28.84017 1.314812
2.113096 29.45386 1.407319
2.476266 29.80786 17.63369
2.261021 27.53824 18.77352
1.818634 28.25592 18.68884
1.870901 28.84142 0.7852635
3.275357 28.82542 17.75041
2.150483 27.50716 18.63332
1.704803 28.94484 18.66152
2.2243 28.29605 18.34165
2.043494 29.44047 1.08044
2.485152 29.67941 17.31748
2.237914 27.5306 18.24786
2.682086 28.98547 18.09572
3.932615 28.41267 17.59014
2.627618 29.33112 17.18816
3.169263 28.3876 16.89017
2.43351 29.00198 17.82473
3.941611 28.42843 17.45742
1.985735 30.27028 18.05643
3.075174 28.22222 16.65776
2.106293 28.91142 17.91928
1.501061 27.91886 18.35135
1.982451 30.27196 17.94812
3.302462 28.5028 16.92628
1.520852 27.84484 18.42274
4.156919 27.90199 16.48683
2.471994 29.52303 16.61806
1.764944 27.50864 18.18716
2.381906 28.94997 16.89544
2.023184 29.47319 0.6049202
2.583012 29.29954 16.51319
2.797863 27.92729 16.58353
1.977641 28.7928 17.1455
1.597023 28.25198 17.39768
1.285939 29.88031 18.23733
3.338062 28.40986 16.25461
1.790424 28.77644 17.50918
1.777465 28.31324 17.23736
1.284502 29.91257 18.10839
2.975411 28.98435 16.58797
1.185588 29.16759 18.09159
1.763008 28.32509 16.97646
3.585946 28.7569 16.22112
2.280459 29.8693 16.27204
1.53647 27.61007 17.73427
2.232658 28.849 16.28975
2.599516 28.1928 17.182
1.608133 30.26256 17.41263
3.533598 28.46312 16.0169
1.445959 28.67211 16.97205
3.029694 28.82987 17.30229
3.688061 28.74033 16.09243
3.398353 28.30412 15.84978
1.368521 28.73596 17.2187
1.37396 27.91949 17.38581
3.266659 28.92782 15.90935
2.100946 30.04834 15.9873
1.022082 29.02079 17.27348
3.016778 28.92869 16.33161
3.018689 28.32992 16.95061
1.602924 30.28568 16.49266
2.848263 27.92091 15.80276
1.615769 28.52875 15.94093
2.249953 28.21334 16.23943
2.438289 29.36379 15.66138
2.503711 27.7452 15.94271
3.183647 28.7111 16.76219
3.934677 28.56211 15.61344
1.904428 30.14269 15.72901
1.010712 28.905 16.98781
2.69099 28.13502 16.37238
3.192378 28.91908 15.29392
2.857284 27.93406 15.56933
0.9230545 29.568 17.20009
1.275442 28.10504 16.42128
2.725992 29.0866 15.41088
2.474264 27.7683 15.61079
1.193301 28.4782 15.7831
1.687707 28.34823 15.88762
1.937231 29.99419 15.22409
0.9138002 29.65731 17.07982
2.249732 28.16797 15.3735
1.698888 30.03489 14.92639
2.615091 28.09703 14.74924
0.7756555 29.21531 16.6696
3.057912 28.18666 15.74307
1.521307 30.19807 15.30516
3.086452 28.56766 14.78987
0.6947969 29.07671 16.25842
1.392291 28.314 15.72005
0.998605 30.10647 16.10138
1.62553 27.54708 15.18698
1.407375 28.32616 15.53688
1.447996 29.94981 14.36395
1.400946 27.533 15.52209
1.146666 28.06672 15.7893
1.333057 30.07421 14.52634
2.232956 28.30455 14.23093
0.5781923 29.07763 15.86012
1.150705 30.04796 14.18497
1.863684 28.00419 14.22838
2.410734 28.98573 14.44874
2.121672 28.88981 14.04289
0.537917 29.36917 15.86018
0.7364509 29.95579 15.77749
1.105379 27.68583 15.32712
0.6176282 30.06866 15.01961
0.4902031 29.48385 15.65477
1.455766 28.46464 13.60852
1.411391 29.33254 13.66721
1.360969 29.41538 13.6636
0.7738509 28.00875 14.33485