# .PCD v0.7 - Point Cloud Data file format
VERSION 0.7
FIELDS x y z
SIZE 4 4 4
TYPE F F F
COUNT 1 1 1
WIDTH 2048
HEIGHT 1
VIEWPOINT 0 0 0 1 0 0 0
POINTS 2048
DATA ascii
-0.5166337 4.405111 -0.04384975
-0.7056164 4.915513 0.02921031
-0.5529928 4.651843 -0.2594898
-0.6193153 4.106478 -0.1403978
-0.9878977 4.300253 -0.08120698
-0.5254897 4.44706 -0.01699983
-0.5337759 4.347248 -0.03533313
-0.8392131 4.254567 0.004118769
-0.7208216 4.903345 -0.006413674
-0.4965177 4.438982 -0.1427144
-0.9299568 4.37384 -0.1569969
-0.7543854 4.257801 0.08162273
-0.7205577 4.873269 0.0238842
-0.6896341 4.795863 0.08929877
-0.5742111 4.290958 0.02990942
-0.5492561 4.477999 -0.2197766
-0.6566744 4.259915 0.09453039
-0.9146536 4.371924 -0.1629787
-0.5823438 4.350505 0.06123445
-0.6326799 4.250089 -0.1990722
-0.7763743 4.337737 0.0459692
-0.5922186 4.304062 -0.2000119
-0.7106328 4.738248 0.07091284
-0.6635559 4.531143 0.09790474
-0.61418 4.414002 0.08608
-0.7460315 4.809998 -0.1509832
-0.7945943 4.417323 -0.01127566
-0.7447791 4.737904 0.0375692
-0.8958042 4.471853 -0.07933362
-0.6415948 4.365524 -0.2192743
-0.7608935 4.702275 0.01078423
-0.6647381 4.680501 -0.235317
-0.7489132 4.424908 -0.1910576
-0.7947498 4.74199 -0.1456442
-0.7994578 4.472521 -0.1670047
-0.7730934 4.6438 -0.03897393
-0.7422746 4.563822 -0.1929512
-0.7695556 4.61868 -0.02576616
-0.8382441 4.660715 -0.1369611
-0.8206586 4.634832 -0.0888918
-0.9964636 4.30026 -0.1179858
-0.6105009 4.094779 -0.007651091
-0.9417263 4.254893 -0.1647349
0.5853049 4.071704 0.005449491
0.9811796 4.262616 -0.07016053
0.5706271 4.058488 -0.09520817
0.6472895 4.151294 0.07996982
0.4898842 4.445125 -0.1005811
0.6873036 4.963039 -0.08233678
0.5468621 4.170928 -0.05471596
0.696269 4.186233 0.08872242
0.7868212 4.224415 -0.1380651
0.5210256 4.307801 -0.01719573
0.7062711 4.217934 0.08800358
0.7717499 4.246656 -0.1461018
0.6950003 4.879235 0.06136479
0.5159034 4.403289 -0.003253269
0.7332368 4.262024 0.07289856
0.8065463 4.282531 -0.1244594
0.7212464 4.886463 -0.00468655
0.7218766 4.882935 -0.1132893
0.5616567 4.194864 -0.1554803
0.7085079 4.836975 -0.1758677
0.7330757 4.850505 -0.01176484
0.8857179 4.32716 0.006968806
0.7897246 4.329222 0.02828277
0.559864 4.236817 -0.1731078
0.7239384 4.830813 0.03661792
0.5703821 4.418564 0.07277121
0.726984 4.788459 -0.1578256
0.7395408 4.812251 -0.004429745
0.6068324 4.291427 -0.2078292
0.6217762 4.436299 -0.2320446
0.7452756 4.374856 0.03948205
0.6683797 4.670692 -0.2402816
0.7101125 4.321496 -0.1932592
0.6972728 4.526276 0.08489451
0.8526018 4.457961 -0.1040139
0.7620689 4.733789 -0.03161296
0.6949988 4.499208 0.08244441
0.7207487 4.445786 -0.1996132
0.7476536 4.727135 -0.1332025
0.8205396 4.516355 -0.01357269
0.7662326 4.714354 -0.1157811
0.7717282 4.520149 -0.1377088
0.7925076 4.616402 -0.1139525
-0.4490816 2.915443 0.3395218
-0.1624272 2.938987 0.4714226
0.2631727 2.933237 0.4539092
0.5402548 2.942696 0.2423896
0.4132259 3.003136 0.3577653
-0.04674729 2.995001 0.4741148
-0.637517 2.971246 0.1456888
0.428991 2.946768 -0.2485557
0.1209594 2.952111 -0.465833
-0.1264686 2.949967 -0.4087382
-0.4382038 2.935084 -0.2527174
-0.6657687 2.938132 -0.04010994
0.6209213 2.986512 -0.03160783
0.04932373 5.091847 0.1820071
-0.03829689 5.021936 0.2184189
-0.2854916 5.105499 0.03375375
0.1674455 5.082952 0.1343972
0.2122962 5.089967 0.09962884
-0.6285675 5.018802 -0.06453671
-0.5608753 4.556925 0.06914173
-0.5781144 4.058266 -0.06188391
-0.6624562 3.186032 -0.008122402
-0.5499896 3.005065 0.2562044
-0.2414955 3.016728 0.4389955
0.1073839 2.983944 0.4707592
0.6254545 2.992563 0.04956604
0.5812793 3.937072 -0.07255346
0.485837 4.452448 -0.04562756
0.6817588 4.974843 -0.06319096
0.2084099 5.021217 0.1729648
-0.2882677 5.077236 0.06659125
0.548933 5.064017 -0.03797587
-0.6760033 4.982183 -0.06373429
-0.6420602 5.010444 -0.06083155
-0.6641924 3.186894 0.02403625
0.5323769 3.024392 0.2467465
-0.6584848 4.843171 0.1380389
-0.6214534 3.9459 -0.03934762
0.6206921 3.679547 -0.04938179
0.6228401 3.686229 -0.004609822
0.2042948 4.992911 0.1999255
-0.2807668 5.033679 0.1218724
-0.393509 5.096609 -0.01230459
-0.6339405 5.008253 -0.01438718
-0.6503001 4.958017 0.04857834
-0.6638247 3.446336 0.009659581
-0.5921993 4.125915 -0.006534339
0.6275221 4.983083 0.03515935
0.5011372 4.241081 -0.01942538
0.3508569 5.063397 0.05764404
0.4029702 3.012284 0.36419
-0.1342847 4.959567 0.2362202
-0.01329142 3.058717 0.4652661
-0.5043415 3.024968 0.2973126
-0.571104 3.064874 0.2369778
-0.5896327 4.505084 0.1217192
-0.08840415 4.966525 0.2409993
0.5667011 4.47312 0.08988354
0.5862267 4.894725 0.1222659
0.1885256 4.981983 0.2138464
0.6217477 3.656833 0.03640575
-0.662925 3.824524 0.02915533
-0.2105476 3.091973 0.4370008
0.266443 3.055721 0.4293413
0.4153129 5.071208 0.02638089
-0.2398999 4.953239 0.2130695
-0.5639287 4.269997 0.03121687
0.6104881 3.268629 0.08925526
0.6021791 4.022412 0.02745989
0.5448957 4.226541 0.03311031
-0.6380055 4.151768 0.07103181
-0.0703515 3.131086 0.4543622
-0.6403303 3.160609 0.1357664
-0.6116794 4.767438 0.2067653
-0.3109326 4.907773 0.2230508
0.5583474 4.980288 0.0745858
0.1065428 4.923653 0.2680084
-0.2216969 3.129727 0.4305352
-0.4753884 3.140941 0.3212206
-0.6258321 4.680741 0.2376933
-0.550913 3.147982 0.2620037
-0.6288142 4.599244 0.2475845
-0.5845647 4.408991 0.1077101
0.6043776 3.224583 0.1182264
0.4011383 4.995403 0.1112226
-0.6483246 4.153975 0.08848334
0.1533451 3.20981 0.4417276
0.5614023 4.373776 0.07539674
-0.4326734 3.193899 0.3462242
-0.6575882 3.275396 0.07921227
-0.4768755 4.980958 0.09887639
0.6095365 4.487936 0.1458599
0.4039104 3.184879 0.358969
-0.5881841 4.797326 0.2013849
0.6110078 4.128802 0.07713316
-0.6512319 3.571468 0.1060262
-0.6621777 3.839953 0.1141601
-0.1721445 4.899349 0.263443
-0.6635291 4.185166 0.1254509
0.5049465 4.818768 0.186989
0.5879083 3.238126 0.1642346
0.621235 3.948113 0.1245078
-0.4503659 4.909771 0.1603459
-0.3514698 4.885259 0.220912
-0.05666229 3.243921 0.4452009
-0.6379936 4.419672 0.1717957
0.2254066 4.86269 0.2740359
-0.5796495 4.696671 0.2548436
-0.473273 3.246553 0.3250144
0.3119152 4.856446 0.2505184
-0.6430466 4.49842 0.2354079
0.4439121 4.791922 0.2270855
-0.2013711 3.233302 0.4267209
-0.411677 4.899817 0.1823982
-0.3019207 3.27823 0.3974987
0.5810719 3.320375 0.1792964
0.5980724 4.467477 0.167037
-0.1106869 4.814453 0.3080238
0.2870116 4.840333 0.2677817
-0.3334678 3.326609 0.3854866
0.4530889 4.721765 0.2535276
0.09118019 4.765638 0.333749
-0.6533182 3.936226 0.1755227
0.6258509 4.149424 0.1460263
0.3481397 3.294351 0.3828017
-0.6617851 4.293322 0.1795435
-0.3411493 4.815324 0.2665529
-0.6659546 4.141703 0.1913837
-0.08374596 4.773882 0.3256215
0.6094067 4.361614 0.158564
0.6034186 3.983743 0.1982632
0.2317556 3.351919 0.4183025
-0.2973488 4.807551 0.282373
-0.07877513 4.711312 0.3456616
-0.235622 3.366984 0.4111504
0.5747491 3.720916 0.2290051
-0.6240506 3.750212 0.1959494
0.1941636 3.336537 0.4272307
0.2449238 4.731881 0.3253278
-0.5922362 3.330853 0.2235297
-0.03718058 3.413672 0.4332774
0.5536857 3.597798 0.2458399
0.4360584 3.315377 0.3376228
-0.4829934 4.550972 0.326173
-0.4346642 4.7592 0.2674476
0.4263701 4.602718 0.2920979
-0.4798194 4.531966 0.3304698
0.594591 4.115151 0.2222383
-0.6550333 4.295188 0.2353036
-0.6557642 3.98545 0.1850199
0.5023399 4.446119 0.2644041
0.5512826 3.884407 0.2645512
-0.3908918 4.61087 0.3356296
0.5246429 3.475924 0.2683841
-0.4465664 4.509883 0.3401326
-0.5865576 3.730624 0.2433177
-0.5086228 4.494879 0.3274731
0.5409677 4.338321 0.2512575
-0.592665 3.938601 0.2532404
-0.3720506 4.694728 0.314294
-0.4185528 3.4477 0.3531517
-0.5570357 3.447412 0.2620973
0.5535768 4.049827 0.2667085
0.5517872 4.220505 0.256265
0.5151953 3.748835 0.2903178
0.5254843 3.98519 0.2913796
-0.3088642 4.669539 0.3357382
-0.5456509 3.676961 0.2784035
-0.4047456 3.448175 0.3589814
-0.1446249 3.515216 0.4203009
0.4753602 3.625512 0.3131288
-0.5583487 3.957685 0.282096
-0.5539145 4.37524 0.3149785
0.3720626 4.540614 0.3220361
-0.5218366 3.582008 0.2930002
-0.5247375 3.781759 0.2970233
0.455564 3.678643 0.3259434
0.0746424 3.50729 0.4277801
0.4828075 3.921299 0.3169553
-0.4909212 3.480711 0.3129284
-0.2265759 4.563945 0.3697805
-0.1642571 4.579533 0.3712917
0.4696706 3.97591 0.3259868
0.3958084 4.326915 0.3336318
0.2399285 4.564628 0.3576279
-0.4426523 4.375088 0.3461341
0.2073075 3.52214 0.4126499
-0.3189451 3.542916 0.3877631
0.02282945 4.544849 0.3835496
-0.2997173 4.522779 0.3676462
0.3545985 4.381998 0.3439821
-0.447397 3.618851 0.3381114
0.4655591 4.057773 0.3257222
-0.08846688 3.529741 0.4251128
0.3796811 3.65489 0.3598394
-0.386726 4.412612 0.3584435
0.03633204 4.42246 0.3949023
-0.4453443 3.892809 0.3386658
-0.08082193 4.510658 0.3866738
0.3363654 3.739222 0.3739971
0.3138086 3.616497 0.3826231
0.0728315 4.496879 0.3864175
-0.3988858 4.27544 0.354001
-0.4113929 4.144531 0.3478951
0.4427148 4.081285 0.33432
0.2880777 3.666014 0.3894035
0.04962712 3.671394 0.4234458
-0.220131 4.461798 0.3828356
-0.4169466 4.094158 0.3459155
0.2532927 4.361391 0.3762137
0.3581512 3.871265 0.366406
0.1538659 4.350543 0.3938859
-0.3882002 4.149772 0.3545198
0.3457642 3.944943 0.3703876
0.3257464 4.141998 0.3690268
0.2320524 3.691455 0.4023803
0.2218396 4.393207 0.3805066
-0.3135153 4.059395 0.3740073
0.2909869 3.898536 0.3840087
0.3262821 4.107484 0.3708594
-0.1846273 4.33918 0.3927641
0.01091108 4.382389 0.3982617
0.2286381 3.607869 0.4049039
0.2012116 4.290987 0.3909307
0.2752688 4.176303 0.3794775
0.2568272 3.929991 0.3913424
-0.2439474 3.88901 0.3946892
0.1631016 4.252954 0.3975901
-0.2067543 4.231931 0.3931617
-0.005614161 3.79177 0.4201398
0.2101321 3.81267 0.4031863
0.1960259 3.881704 0.4036883
-0.002215923 4.222676 0.4085273
0.06340261 3.804166 0.4190572
0.1222733 3.881252 0.4131699
-0.129578 3.872119 0.4112358
-0.07504899 3.920108 0.4146547
0.08702796 3.874333 0.4158866
0.06303984 4.135581 0.4102223
0.04589394 3.987783 0.4148484
-0.05910865 4.082089 0.4116683
-0.06765129 5.136462 -0.2365635
0.3357178 5.153829 -0.1383702
-0.1739788 5.131866 -0.2272339
0.5080078 5.09034 -0.09921441
0.5281681 4.616868 -0.2680329
0.5613355 4.016063 -0.0879921
0.6212766 3.456807 -0.03820014
0.4810601 3.008776 -0.1940707
0.2717955 3.033993 -0.3789556
-0.6576411 2.992296 -0.04655775
-0.6534281 3.783798 -0.07666849
-0.5129222 4.366531 -0.07408076
-0.6313938 4.918019 -0.221504
-0.1546061 5.113719 -0.243571
0.324676 5.134758 -0.1762189
-0.4976029 4.469247 -0.174334
0.4168032 5.120672 -0.1257258
0.5240878 3.023848 -0.1584835
-0.5678381 4.040752 -0.09501697
-0.5795754 4.827686 -0.2901882
-0.547069 3.04923 -0.1662375
0.4970971 4.20946 -0.111621
0.5405505 4.071312 -0.1159335
0.1638444 3.028972 -0.4485497
-0.3691935 3.014082 -0.2956304
0.03823416 5.079431 -0.2688229
0.272487 5.093194 -0.2339359
0.4849538 5.078108 -0.1545218
-0.6491492 3.136879 -0.05974088
0.528694 4.533655 -0.2523999
-0.5501324 4.06985 -0.1303212
-0.03484884 5.07337 -0.2721382
-0.5548567 4.134812 -0.1492489
0.6116959 3.303476 -0.06287745
0.6117188 3.674715 -0.1188271
-0.632523 3.027425 -0.09520324
-0.5124968 4.707359 -0.326573
-0.6411822 3.17934 -0.07314223
0.5294601 4.738862 -0.321129
0.3542138 3.043792 -0.3087145
-0.06672572 5.014342 -0.3062763
-0.4978721 4.356514 -0.1790991
-0.5676547 3.106163 -0.1488633
0.6126001 3.593023 -0.1272298
0.5620162 4.08295 -0.1717038
0.5424336 4.939658 -0.270207
-0.6462419 3.49935 -0.1180049
-0.4379216 5.047643 -0.2039364
-0.5796146 3.978172 -0.1770222
-0.561435 4.264374 -0.181861
-0.3238714 5.031188 -0.2558557
0.5934279 3.195233 -0.09010497
-0.4898059 3.143836 -0.1933561
0.01551177 3.078308 -0.4544448
-0.5426278 4.481829 -0.2662987
-0.5106416 4.918265 -0.2791433
0.5362077 4.248456 -0.1751599
-0.2859067 3.159694 -0.3403687
-0.638926 3.601668 -0.1751808
-0.1648283 3.06553 -0.3912132
0.1135789 3.079494 -0.4595982
0.3107499 5.003648 -0.2790967
0.5787047 3.192656 -0.1122619
0.037806 4.980243 -0.3216965
0.5763996 3.910586 -0.2203662
0.181289 4.93947 -0.337029
-0.5874155 3.96898 -0.1907114
-0.6068804 3.300853 -0.1270627
-0.4769153 4.855868 -0.3211435
0.5140684 4.893404 -0.3005074
-0.56948 4.279225 -0.2179079
0.5641069 3.298086 -0.148957
0.2331646 4.949984 -0.3240113
0.5843518 4.155773 -0.212476
0.1073126 4.939719 -0.3450893
-0.629288 3.867451 -0.2401255
0.3802567 4.957561 -0.2925136
-0.4712113 4.883486 -0.3108066
0.1774009 3.128289 -0.4383294
0.4547548 4.94456 -0.2820122
0.4281063 4.723198 -0.3576255
0.4661797 4.712411 -0.3455994
0.2588677 3.202872 -0.3826399
-0.596119 3.53739 -0.1868707
0.5198954 4.431135 -0.3205827
-0.3036962 4.96132 -0.301809
0.4071111 4.838432 -0.3416067
0.5530674 4.349857 -0.287014
0.01057509 4.865928 -0.3589742
-0.4097558 4.979951 -0.2654882
-0.5961761 3.948972 -0.296795
-0.3936433 4.833052 -0.3477891
-0.3680753 3.23908 -0.2769848
0.5540803 3.527979 -0.2101486
-0.3771683 4.972607 -0.2784964
0.53815 4.363904 -0.3029417
0.4023523 3.255033 -0.2289489
-0.260922 3.231203 -0.3492734
-0.1090223 3.305085 -0.4047463
-0.5888412 3.950444 -0.3043581
-0.5367708 3.297961 -0.1648809
0.5448384 3.534038 -0.2171917
0.1751546 4.863633 -0.3619141
-0.4012226 4.622767 -0.3768535
0.4927554 4.392779 -0.3368467
0.2024896 3.259957 -0.4194995
-0.5428405 3.799445 -0.2822565
-0.03881142 3.357822 -0.4239635
-0.2794819 4.85514 -0.3568467
0.5367014 3.617518 -0.2393185
0.4915665 3.876827 -0.2888351
0.397903 4.550886 -0.3723019
-0.3172398 4.872165 -0.3463316
0.2564214 3.350807 -0.3729546
0.5130203 3.570207 -0.2364986
-0.4085924 4.46227 -0.3754464
-0.3705497 4.576071 -0.3815907
0.3287042 4.626434 -0.3808657
0.4735894 3.536142 -0.2345758
-0.1859024 4.785865 -0.3772115
-0.4006879 4.456008 -0.3746943
0.4730243 3.657614 -0.2595842
0.07055422 4.833491 -0.3699532
0.2989366 3.31639 -0.3302378
-0.3279594 4.741277 -0.3813756
0.4410319 3.501927 -0.2284132
-0.3863023 3.31828 -0.2524542
0.357074 3.335509 -0.2647439
-0.4876503 4.259501 -0.3619008
0.05517659 4.762291 -0.3793038
0.3053723 4.723018 -0.3801395
-0.2810166 3.397274 -0.3294124
0.4418859 3.446341 -0.2175801
0.4067615 4.400497 -0.3664327
0.4093488 3.860774 -0.3029343
-0.4666931 4.27273 -0.361842
-0.06893517 3.379039 -0.4150015
-0.3094497 4.674357 -0.3868906
0.2754149 3.425968 -0.3430799
-0.1268077 4.690619 -0.3874349
-0.403091 3.450308 -0.2264561
0.3560183 3.976995 -0.3263344
-0.455682 4.138241 -0.3384683
-0.427374 4.019595 -0.3051426
-0.3574848 4.293131 -0.349687
-0.05739384 4.69187 -0.3853114
0.2995978 4.460415 -0.3788405
-0.28497 4.469387 -0.3734327
-0.4134113 4.077675 -0.3149124
-0.3311188 4.298909 -0.3500751
-0.3920685 3.51289 -0.2352777
0.3798633 4.301211 -0.3595277
0.2563694 3.425736 -0.3632268
-0.05752901 3.49885 -0.4141378
-0.3717281 4.220292 -0.3389132
0.3374429 3.530928 -0.2825811
-0.3593625 3.836656 -0.2751512
0.3800505 4.186208 -0.3468141
-0.3771683 4.139581 -0.3240349
0.3178301 3.775492 -0.3187925
0.08456922 3.497671 -0.4281587
0.09284066 4.588636 -0.3943489
-0.2933515 4.331614 -0.3568514
-0.2169971 3.500036 -0.3620466
0.2815305 3.754165 -0.3351941
0.04465525 3.557981 -0.4229473
0.04190307 4.602114 -0.3923817
-0.2140663 4.537464 -0.384926
-0.323022 4.121836 -0.3232325
0.08036132 3.552134 -0.4233377
-0.3112578 3.651367 -0.2956807
0.2748565 3.84272 -0.3408308
-0.2805064 3.890564 -0.3172902
0.2130032 4.331073 -0.3801006
0.1307063 3.569823 -0.4149726
0.1925604 4.352576 -0.3843382
0.2600164 4.241622 -0.3643111
0.03566034 3.581718 -0.4208117
0.1991086 4.277231 -0.3806206
0.1762666 4.361443 -0.3872689
-0.2468421 3.808225 -0.3361919
-0.2175271 4.135021 -0.3563589
-0.1071204 4.346855 -0.3876002
-0.1977099 3.642357 -0.3662172
-0.2351513 3.903135 -0.3438509
0.1773196 3.794599 -0.3928496
0.2190124 3.884769 -0.3710207
-0.2130918 3.858463 -0.3560719
-0.170402 3.972041 -0.3762975
0.2116849 3.897477 -0.3744375
-0.1112343 4.284304 -0.3868642
-0.02265414 3.671926 -0.4122172
0.1685382 3.888655 -0.3941322
-0.08661335 4.265651 -0.390643
-0.08741642 3.686396 -0.4005943
0.102263 3.988613 -0.405996
-0.1403694 4.007293 -0.384397
0.08514848 3.913325 -0.4095625
0.03306234 4.193842 -0.4015197
0.1024681 4.126388 -0.4032309
-0.05805531 3.866231 -0.401839
0.0003042152 3.986244 -0.4052465
-0.5178578 4.421612 -0.06572579
-0.6984415 4.892302 0.04499758
-0.5148534 4.530281 -0.1936417
-0.6664504 4.112696 -0.1553394
-0.6179466 4.156523 0.007287261
-0.5775589 4.267926 -0.01009796
-0.8249959 4.259102 -0.1551908
-0.6515858 4.218638 0.06634925
-0.6068917 4.791381 -0.2698599
-0.7288536 4.218693 -0.1757528
-0.9547209 4.343195 -0.09101765
-0.7248004 4.865621 -0.02050533
-0.6454383 4.73168 0.1224067
-0.5852202 4.329866 0.03933752
-0.652905 4.804897 -0.2248659
-0.8564104 4.359547 -0.05347785
-0.5959069 4.387287 0.05822222
-0.5918447 4.268997 -0.1717107
-0.9195039 4.407722 -0.1391603
-0.7133544 4.321915 -0.1864959
-0.6693458 4.617985 0.07729599
-0.9179137 4.393292 -0.08396428
-0.6918464 4.739953 -0.1896588
-0.7732505 4.409008 -0.004184535
-0.7458903 4.807467 -0.09273077
-0.6812276 4.609158 -0.2116501
-0.6607861 4.464193 -0.2148306
-0.8351432 4.461564 -0.1506025
-0.8634398 4.493808 -0.08557825
-0.6859657 4.402413 -0.2018187
-0.7649411 4.430299 -0.001172579
-0.7294335 4.563235 0.05834021
-0.7331352 4.482899 0.04017577
-0.8030405 4.72436 -0.1263601
-0.7510176 4.521127 -0.005652808
-0.8164306 4.66766 -0.1111761
-0.8156475 4.635043 -0.1019688
-0.9544438 4.226733 -0.1498156
-0.6199009 4.100972 -0.02129561
-0.9388241 4.276695 -0.06509228
-0.7292054 4.196812 -0.1734765
0.7716948 4.150977 0.05146926
0.8052247 4.178788 -0.1189232
0.7741202 4.197512 0.0454409
0.5544012 4.201653 -0.04215389
0.619585 4.859393 -0.2368426
0.5180908 4.514269 0.01467054
0.6182894 4.151929 0.04752767
0.8756329 4.230994 -0.09657184
0.5148511 4.409764 -0.03469844
0.7765067 4.245549 0.03652672
0.6851586 4.200395 -0.1782047
0.6753156 4.894767 -0.1663287
0.5565363 4.280224 0.01062736
0.4954576 4.414641 -0.1447701
0.6104429 4.710032 0.1141905
0.550987 4.53112 -0.2177341
0.5917322 4.216511 0.03933452
0.6359127 4.762795 -0.2332544
0.7214302 4.855899 -0.03580998
0.8595074 4.353044 -0.007005044
0.7531613 4.348537 0.02445433
0.5686367 4.451548 -0.2151936
0.6360496 4.49202 0.08375464
0.6618336 4.715118 -0.2254516
0.6191633 4.604888 -0.2316717
0.7524438 4.342782 -0.1457623
0.684233 4.678091 0.07385267
0.7699806 4.407394 0.00363892
0.7143304 4.762714 -0.1560019
0.714974 4.358191 -0.1775534
0.6946647 4.595394 -0.2036982
0.7055283 4.679764 -0.180421
0.7419786 4.755431 -0.1143798
0.7143459 4.645009 0.03204885
0.7141234 4.586243 -0.1822548
0.7544742 4.514467 -0.008548883
0.7478552 4.484131 -0.1544719
0.8200353 4.598318 -0.09115652
-0.6481014 2.945698 0.03477374
-0.4145159 2.942609 0.3461565
-0.03951815 2.928608 0.4722143
0.3458261 2.927884 0.3997434
0.5998598 2.950036 0.1319568
0.4597506 2.989866 0.30207
-0.6162707 2.947238 0.1630999
0.4545791 2.968184 -0.2031305
0.2196042 2.990752 -0.4021074
-0.2919366 2.98775 -0.3286568
-0.5368183 2.931044 -0.1676203
-0.6124013 2.982799 -0.1031647
0.09456615 2.955073 -0.4554691
0.08209175 5.08684 0.1612416
0.3209126 5.126647 -0.03684596
0.0948231 5.035593 0.1881287
0.1641554 5.064081 0.1328732
-0.528942 5.058606 -0.07258629
-0.625767 4.636914 0.1360062
-0.4959789 4.30038 -0.04912991
-0.6514989 3.649044 -0.0531445
-0.6473665 3.016445 0.03302172
-0.4005508 3.001683 0.3527975
0.01832277 2.999188 0.4595458
0.4973705 3.026973 0.2646227
0.6082772 3.5041 -0.01474541
0.5656473 3.93558 -0.0776338
0.4727948 4.386833 -0.0470241
0.6309529 4.79679 0.1195824
0.3678956 5.117644 -0.0565574
-0.02823329 5.013668 0.2082233
-0.2992206 5.055123 0.06385017
0.5393564 4.503124 0.08398408
-0.4525605 5.075951 -0.03182758
0.6072701 3.404259 0.0006705697
-0.5191003 3.090283 0.2688418
-0.6515999 3.643857 -0.03801348
0.6143097 4.72722 0.1448987
-0.6348203 3.843754 -0.02995567
0.5739393 3.936427 -0.04134262
0.498393 4.399543 -0.0001932148
-0.07605237 4.965857 0.2271623
0.3949764 5.096563 -0.03503404
-0.439362 5.067209 -0.008500429
-0.6216916 4.960289 0.04418566
-0.6508276 3.526978 -0.0114459
-0.598078 4.026492 -0.01135445
0.6055589 3.787544 0.007006508
0.6221704 4.887766 0.09509538
0.5126683 4.16562 -0.01560349
0.5881835 3.05495 0.1259417
0.006076332 4.979582 0.22906
-0.2386449 4.972488 0.1805134
0.1536684 3.086463 0.4382857
-0.5250204 4.415787 0.05782837
0.5988865 3.202542 0.07860868
0.4893816 3.069533 0.2724707
0.5022894 4.287005 0.02720551
-0.5474026 5.028049 0.005759819
0.588123 3.979242 0.01680353
-0.6524311 3.767798 0.04232499
-0.3536831 3.072934 0.3744518
0.02842806 3.11249 0.4451565
-0.6078194 4.838952 0.1500923
-0.5519481 5.01282 0.02360705
0.2650314 4.952375 0.1889776
-0.3850906 5.023871 0.06473454
0.5808898 4.710413 0.1804714
0.604827 3.598711 0.05324288
-0.6462562 3.426626 0.05668644
0.007026329 4.922369 0.2572824
0.581253 3.126338 0.144514
-0.2049711 4.910126 0.2337089
0.3241196 3.131337 0.3861158
0.3884345 4.992048 0.09916382
0.5196877 5.015341 0.03818343
-0.6090368 4.228262 0.08594157
-0.2136423 3.17924 0.4137918
-0.6488804 3.730374 0.07675719
0.1377331 3.148528 0.4348548
-0.5288494 3.148768 0.2634607
-0.04461686 3.144847 0.440484
-0.6021644 4.294051 0.1057644
0.3596762 3.194319 0.3666176
0.3575415 4.927501 0.1669856
0.6078666 3.913858 0.09555092
0.1174094 3.223717 0.4308898
0.5637124 4.26227 0.07678352
-0.6496788 3.85441 0.1073271
0.201228 4.863147 0.2638645
-0.5719261 4.62472 0.2655749
0.2963685 3.249149 0.3905643
0.4593385 4.968702 0.09547602
0.5904834 3.580658 0.1256873
-0.6361085 3.505772 0.1056158
0.5884066 4.252172 0.09845007
-0.3605315 3.215768 0.3642778
-0.6530834 4.059597 0.1130499
0.4902 4.816478 0.1776782
0.5713689 4.542952 0.1973037
-0.2246883 4.848727 0.2615527
0.07167255 3.221817 0.4343497
-0.3916522 4.891863 0.178519
0.5761063 3.44867 0.1582508
-0.6342942 3.498653 0.112935
0.6089143 4.024165 0.1316348
0.6083039 4.152655 0.11827
0.3547543 3.197026 0.369009
-0.07019537 4.790569 0.3056882
0.4463139 4.770942 0.2198152
-0.126349 3.266905 0.4227993
-0.4311385 4.901001 0.1559531
-0.4301259 3.257257 0.3319671
-0.6579555 4.164682 0.1626274
-0.220671 4.783344 0.2922702
-0.4330956 4.82876 0.207136
-0.6437988 4.331012 0.1770494
-0.368655 3.349419 0.3576778
0.5899537 3.872841 0.1793087
0.4917223 3.257745 0.2780242
-0.6108899 4.473521 0.27116
0.5842718 4.411883 0.1622859
0.4225637 3.323525 0.329192
0.6113437 4.09103 0.1549733
0.6006297 4.326531 0.1575266
0.5718396 3.681541 0.2001888
-0.6137511 3.580759 0.1680149
0.5149924 4.574364 0.2358509
0.3905431 4.725628 0.2634287
-0.5362647 4.525673 0.3018275
-0.6125473 3.560456 0.169234
-0.06724202 3.34794 0.422222
0.5883009 4.360944 0.1702164
0.1739158 3.341296 0.4161656
-0.6047628 3.797899 0.2057714
-0.07489608 4.689775 0.3373153
-0.6112668 3.485803 0.1700887
0.5083789 4.449682 0.2417894
-0.5668887 4.443303 0.2965918
0.5537159 3.971102 0.2461718
-0.4148532 4.588521 0.3203439
-0.1315422 4.627078 0.3488925
0.3942089 4.652815 0.2813341
0.5232912 3.640208 0.260242
-0.6250247 4.134037 0.2283008
-0.3959374 4.660085 0.305357
-0.578586 3.700391 0.2286525
-0.5858582 3.844223 0.2323746
0.5041927 3.673208 0.2781823
0.5479046 4.309731 0.2321292
-0.5317395 4.422349 0.3082973
-0.09164286 4.580667 0.361388
0.03040239 4.633524 0.3549066
-0.5619937 3.659798 0.2434153
0.5412442 4.25599 0.2440802
0.5003844 4.354594 0.2600071
-0.4849499 4.459321 0.3209678
0.4829848 3.522657 0.287939
0.4784226 3.910995 0.302561
0.1732775 4.633555 0.3465209
0.4644234 3.496819 0.3008083
0.4846211 3.547616 0.2882742
0.03861909 3.524996 0.4142046
-0.5378132 3.718806 0.2687255
-0.3929586 3.512722 0.3484707
-0.3066967 4.633483 0.3323275
-0.4154192 4.441223 0.3373281
-0.5458976 4.169636 0.2888734
-0.3289275 4.533272 0.3471866
-0.354635 4.4798 0.3477186
-0.4817205 3.851625 0.3067451
0.4189453 3.573685 0.3273727
-0.1011374 4.54398 0.3675779
-0.4720714 3.557668 0.3079846
0.3937236 4.322175 0.3198052
-0.4723548 3.748949 0.3103423
0.2683295 4.466486 0.3483283
-0.02294834 4.532548 0.3713035
0.04227604 3.600345 0.4116913
0.2233486 3.490639 0.3977654
-0.4228998 3.665462 0.3346442
-0.4141544 3.565946 0.3387243
0.4252076 3.958363 0.3305214
0.3487913 3.56804 0.3577214
0.05773155 3.616747 0.41034
0.3813417 3.683813 0.3441405
-0.07764573 4.476803 0.3762461
-0.3746239 3.888371 0.3478025
-0.08100837 3.582488 0.4099489
0.3475627 3.760185 0.3552656
-0.3840655 3.761128 0.3477913
-0.1331549 4.44559 0.3762023
-0.4681603 4.020916 0.3148524
-0.0220687 3.667262 0.4101246
-0.1295241 3.628577 0.4046944
-0.3381635 3.61265 0.365986
-0.3930399 3.844687 0.3431213
-0.2128561 4.467779 0.3693119
-0.3525853 4.323474 0.3515706
0.3008475 3.614606 0.3719539
-0.001924967 4.44933 0.3791785
-0.3308229 3.788014 0.3633672
0.08387536 4.377546 0.3823569
-0.2291985 3.705603 0.3893232
0.2036068 4.389366 0.3697065
-0.2011465 3.729084 0.3933013
0.2560482 4.243916 0.3666567
-0.06236817 4.396695 0.383005
-0.3012532 4.09806 0.3619397
-0.2901441 3.828541 0.3721493
0.3129083 4.17341 0.3558452
-0.2597732 3.905459 0.3767486
-0.1652625 4.347587 0.3799731
-0.03889913 4.299657 0.3902466
0.2915166 4.003878 0.3687873
0.2405084 4.067316 0.3773409
0.1762402 4.245406 0.3820901
0.1596705 4.254882 0.383815
-0.2659633 4.127575 0.3694108
0.05510259 4.217672 0.3932854
0.1163463 4.210398 0.3893755
-0.1639314 4.270288 0.383913
-0.1608095 4.198951 0.3860272
-0.1874611 4.080719 0.3848082
-0.1087039 3.838799 0.4002566
-0.09587394 3.865119 0.400803
0.06159421 3.873923 0.403169
-0.1215067 4.172491 0.3910722
0.0137321 4.110559 0.3987666
0.07732208 4.109573 0.396174
-0.06634092 4.036554 0.3984445
-0.2921659 5.165934 -0.1043266
0.05142405 5.130819 -0.2240943
-0.2168859 5.09499 -0.2276167
-0.3114113 5.136613 -0.1546713
0.5114878 4.603858 -0.2587834
0.4833175 4.190768 -0.1009768
0.6038382 3.301244 -0.02585965
0.4075792 3.046317 -0.2371061
0.07335138 3.017045 -0.452408
-0.6482804 3.067314 -0.01308708
-0.6329929 3.824803 -0.05557409
-0.4931381 4.386468 -0.1070068
-0.5628029 4.824064 -0.2827095
-0.1615252 5.063791 -0.2590438
-0.6589518 4.947979 -0.1446483
0.6002756 3.046798 -0.03240665
0.5202854 4.660035 -0.2866153
-0.6491856 3.633806 -0.08283073
-0.5007356 4.265921 -0.1312704
-0.4835159 5.068546 -0.1380421
0.5985835 3.245028 -0.04244204
0.5210148 4.092259 -0.136593
0.5392429 4.041304 -0.1363714
-0.08793902 3.021372 -0.4064786
0.1480148 5.05852 -0.2647293
-0.3794661 5.09017 -0.1715976
-0.4797176 4.39975 -0.1985521
0.5223959 4.694311 -0.3038715
-0.5312229 4.093138 -0.1356373
-0.4341104 5.071765 -0.1630167
-0.4813175 4.384532 -0.1589897
0.6062518 3.569792 -0.08492553
-0.4382 3.049341 -0.2253114
0.1441111 3.071981 -0.4385478
0.5601221 4.980086 -0.1975917
-0.6284097 3.325877 -0.07923035
0.5441799 4.083757 -0.172897
0.5841753 3.220963 -0.08222819
-0.1704225 5.030882 -0.2764786
-0.5420035 4.227078 -0.1619547
0.5065706 4.233825 -0.1640925
0.5681861 3.985599 -0.1879451
0.3584694 5.041629 -0.2243335
0.4446844 5.027817 -0.2033537
0.5723211 3.922365 -0.1738768
-0.5878239 3.927377 -0.1942235
-0.1285455 4.997777 -0.2987283
0.1420511 4.975137 -0.3129663
0.593352 3.629863 -0.1454168
0.0172851 3.082081 -0.4402767
-0.241311 3.152552 -0.3456818
0.4529286 5.009063 -0.2166914
0.5419717 3.139081 -0.1251745
-0.5923781 3.923099 -0.2024874
-0.5383655 3.160355 -0.1479764
0.1876159 3.132468 -0.4176835
0.5777458 3.363949 -0.126572
-0.553988 4.237161 -0.1998177
0.5384173 4.386955 -0.248756
0.1219869 4.930001 -0.3335743
-0.6219954 3.831073 -0.2154801
-0.1270816 3.184168 -0.3868138
0.4846222 4.83388 -0.3092698
0.4541411 4.98871 -0.2328732
0.581181 3.633236 -0.179381
0.4422552 3.148201 -0.1925023
0.4377337 4.983115 -0.2421961
-0.004077253 4.909369 -0.3327276
-0.5661601 4.060426 -0.2511097
-0.6211014 3.673067 -0.208745
0.5657436 3.472503 -0.1707838
-0.1580633 4.910398 -0.3334285
0.5601664 3.99146 -0.2393971
0.2494139 4.918785 -0.3204597
0.5454268 3.935782 -0.2476524
-0.2383583 3.257602 -0.3438713
-0.607701 3.76253 -0.2567616
0.5048658 4.418418 -0.3141344
-0.3095678 4.900598 -0.3184042
0.4147692 4.830387 -0.3272693
0.4800896 3.234979 -0.1676865
0.3808416 3.200219 -0.2387656
-0.5957233 3.889455 -0.2783935
-0.3497574 4.882451 -0.3206143
0.5456764 3.622995 -0.2203903
0.3694041 4.883668 -0.3188051
0.4557658 3.242874 -0.1794727
-0.2084147 3.319743 -0.3549078
-0.5771425 3.846268 -0.2823023
-0.5446482 4.212855 -0.3176712
-0.5062999 4.380895 -0.3352401
-0.1972395 4.857939 -0.3466195
0.5311313 4.189658 -0.2952719
-0.08500739 4.843582 -0.3538439
-0.3680408 4.824821 -0.341389
-0.5472985 4.178517 -0.3266847
0.4845385 4.036877 -0.2987222
0.4384375 4.487739 -0.3491751
0.4599867 3.302247 -0.1811808
0.4952186 4.296917 -0.3172316
0.3538522 4.703412 -0.3623714
-0.2780598 3.344526 -0.318305
0.4898322 3.476902 -0.2058742
-0.3985735 3.308315 -0.2233718
-0.345892 4.727187 -0.3673329
-0.4842559 4.326891 -0.3493139
-0.3752882 4.641767 -0.3672518
-0.5189793 4.128315 -0.335476
0.01114134 3.320198 -0.4219455
0.2048124 4.792059 -0.3609054
-0.31974 4.743879 -0.3674933
-0.4815122 3.693053 -0.2263462
0.2489938 4.786381 -0.3602328
-0.02693316 3.333877 -0.4136074
-0.4687054 3.789201 -0.2453918
-0.2043335 4.793893 -0.3618488
-0.4849249 4.275005 -0.3475748
0.2794091 4.688776 -0.3696802
-0.3644709 3.361981 -0.2478159
0.4348885 3.600228 -0.2390978
-0.3215105 4.529744 -0.3654141
-0.2071174 4.710361 -0.3717654
0.4089553 4.349102 -0.3471576
-0.3279759 4.460485 -0.3580987
-0.1714875 3.429316 -0.3670214
-0.3876908 4.33521 -0.3441105
0.1149769 3.413061 -0.4193829
0.2838996 4.548595 -0.3693033
-0.05233474 4.702083 -0.3709784
-0.05920734 3.456917 -0.4007787
-0.4066793 3.915698 -0.2660417
0.1566503 4.657133 -0.3766414
-0.2594754 4.637751 -0.3732862
-0.3854589 3.810441 -0.248987
0.3562208 4.415408 -0.3581262
0.1851715 3.443475 -0.3979571
0.2549571 4.667591 -0.3722697
-0.1140626 4.661963 -0.3746572
0.3493591 3.472325 -0.251413
-0.3641355 3.735847 -0.2508806
0.03905711 3.446542 -0.4190204
-0.005595262 4.638961 -0.3751062
-0.3302654 4.285098 -0.3335939
0.08328306 4.637668 -0.3773218
0.272183 4.473942 -0.3672107
0.3083346 3.911336 -0.3166351
-0.3443157 4.074704 -0.2993914
0.2914469 3.74052 -0.3138183
-0.3448652 3.770207 -0.2601428
-0.3445136 4.171875 -0.3155335
-0.329271 4.128584 -0.3091603
0.1662983 4.488242 -0.3782626
0.2863174 3.577614 -0.3068522
-0.3195764 3.557276 -0.2733148
-0.2119629 4.55092 -0.3720354
-0.2891215 3.89574 -0.2974316
0.05873036 3.580025 -0.407439
0.2406389 3.559956 -0.3430206
0.2372444 4.41627 -0.3671522
-0.2844183 4.195043 -0.3248887
-0.2714503 3.602134 -0.3087869
0.26704 4.12303 -0.3419703
0.2320203 3.661484 -0.346828
-0.2304513 3.976755 -0.3318343
-0.2724127 3.761068 -0.3036459
0.2045476 3.667135 -0.365506
0.06022973 4.51301 -0.3820933
-0.1812666 4.291828 -0.3585171
-0.06447133 4.38588 -0.3778229
0.1773928 3.752985 -0.3783893
0.1388935 4.33391 -0.3771806
0.06858497 4.428076 -0.3822827
0.09321934 4.388286 -0.3815033
-0.01776898 4.426336 -0.3803563
-0.1774312 3.900891 -0.3580168
0.09007648 3.669203 -0.4003797
0.06170853 4.275133 -0.3837801
-0.06442557 3.728066 -0.3899671
0.1283318 3.815783 -0.3938379
-0.02760139 4.332896 -0.3806708
-0.09213547 3.796146 -0.3833548
-0.1572728 4.005517 -0.3656696
0.05288817 4.123772 -0.3906143
-0.05224182 4.247293 -0.3805229
0.04841693 3.993385 -0.3930653
-0.02187248 3.957134 -0.3901634
-0.01561908 4.014079 -0.3890407
0.01845473 5.091809 0.1721088
0.5531831 2.919837 0.2131557
0.1430262 2.936525 -0.4497873
0.199114 2.920014 0.4711458
-0.6961105 4.100401 0.09301616
-0.282049 5.168941 -0.05655749
0.2346241 5.172605 -0.1705363
-0.6849976 4.743311 0.1201378
-0.6223741 4.834435 -0.2715969
-0.5512449 4.252277 -0.06273969
-0.7605875 4.179098 -0.180093
-0.6482495 4.172697 0.06856757
-0.570013 4.192325 -0.1157106
-0.5893664 4.587727 0.07353622
-0.7169905 4.88933 0.04346178
-0.545042 4.51007 -0.2219716
-0.5570575 4.356436 0.02664702
-0.7917199 4.26137 0.05123259
-0.7266731 4.868985 0.01304694
-0.7133064 4.841691 0.06999844
-0.5973841 4.233702 -0.1805896
-0.5502421 4.438057 -0.212543
-0.718509 4.265361 0.09650094
-0.9103893 4.374375 -0.06100617
-0.5752539 4.446823 0.06382833
-0.5580227 4.420618 -0.2132985
-0.6797875 4.620499 0.08857258
-0.8405317 4.374851 -0.1664812
-0.6486965 4.72949 -0.2664359
-0.9327027 4.425605 -0.09303813
-0.7550527 4.364163 -0.1852396
-0.6816118 4.507317 0.09957486
-0.6544367 4.385398 0.1011013
-0.669269 4.618929 -0.2319083
-0.7042668 4.560912 0.09070246
-0.7152076 4.488331 0.09457684
-0.7220063 4.734997 -0.1799554
-0.7724878 4.746248 -0.08092573
-0.7719898 4.714818 -0.1558779
-0.8100886 4.502324 -0.1650101
-0.7956601 4.707118 -0.1520706
-0.7609651 4.55824 0.00551466
-0.7673204 4.655446 -0.1631975
-0.7769241 4.558331 -0.02858271
-0.6037587 4.071459 -0.07832396
-0.9507653 4.241001 -0.04702806
-0.6398165 4.132642 0.05207679
-0.929835 4.234827 -0.1654281
0.6947206 4.129772 0.08990677
0.9411045 4.251255 -0.09568173
0.6711916 4.128206 -0.1817233
0.6193898 4.111678 0.05888774
0.5333107 4.618885 -0.2487785
0.66237 4.841338 0.1141353
0.479236 4.407611 -0.08232136
0.9776162 4.29853 -0.04692637
0.591088 4.141428 -0.1592571
0.5579649 4.175801 -0.007756389
0.8149529 4.276342 0.03002404
0.5708168 4.161054 -0.1483605
0.6760304 4.898292 -0.1909788
0.5210401 4.394014 0.006455119
0.5336291 4.235818 -0.1428476
0.657603 4.799069 0.0949485
0.7043976 4.890494 -0.1473155
0.5264699 4.298485 -0.1700083
0.5585266 4.513283 -0.2335034
0.587069 4.49765 0.07887401
0.8174793 4.342895 0.0166118
0.755947 4.357689 0.03680103
0.5558801 4.261371 -0.1801174
0.6758816 4.75203 0.08623925
0.6836517 4.345192 0.09141882
0.602679 4.542893 -0.2447857
0.7842101 4.356967 -0.1374132
0.7121015 4.741809 -0.2032388
0.6179338 4.43908 0.09619372
0.6608726 4.646089 -0.2443777
0.8943682 4.476664 -0.07938821
0.7926449 4.428798 0.007017209
0.7002326 4.554877 -0.2175936
0.8392884 4.504455 -0.1052187
0.7804242 4.474501 0.002129482
0.7442191 4.441491 -0.1818927
0.7371493 4.512569 -0.19054
0.7200129 4.542364 0.04137162
0.8131139 4.555268 -0.01931512
0.789825 4.682784 -0.03806609
0.8226891 4.669041 -0.06509074
-0.6612155 2.953407 0.04466993
-0.4325039 2.966613 0.3501531
-0.09116627 2.943401 0.4798366
0.3358363 2.949169 0.4175684
0.5595111 2.963668 0.2171981
0.4041949 2.957548 0.3692669
-0.4334217 2.982149 0.348682
0.611061 2.960336 -0.06843876
0.3155027 2.968747 -0.3462544
0.03715981 2.985785 -0.4645062
-0.3708149 2.98579 -0.2961918
-0.6241995 2.945515 -0.1186338
0.1926108 2.980173 -0.4362474
-0.07219265 5.079978 0.180654
0.2429551 5.054148 0.1204709
0.02734946 5.055148 0.202053
-0.2028324 5.064476 0.1317204
-0.5720059 5.049088 -0.08504044
-0.5604313 4.550887 0.0727178
-0.5710149 4.093985 -0.05978236
-0.6617538 3.353274 -0.01561705
-0.5126263 2.990481 0.2894242
-0.1434417 2.98591 0.4652659
0.565767 3.01131 0.2046123
0.621895 3.469749 -0.008548019
0.5676062 4.013775 -0.06660287
0.5123544 4.471352 0.0032343
0.6809263 4.971412 -0.08784053
0.245465 5.026218 0.1499296
-0.2731802 5.069624 0.08404607
-0.5228269 4.426115 -0.005472343
-0.4340476 5.098318 -0.04175102
-0.6678802 4.971884 0.008745391
0.4579898 5.094007 -0.02957819
-0.6646748 3.541076 -0.00649041
0.6067617 4.728106 0.1724093
-0.5825518 4.099738 -0.03508048
-0.06366167 3.039767 0.4656754
0.6148135 3.817198 -0.01620537
0.5161591 4.387049 -0.0003887969
0.003249035 4.968003 0.2504338
-0.6613659 4.99301 -0.02317882
-0.4960206 5.077611 -0.0157091
-0.6459842 4.936835 0.07642651
-0.6487334 3.877703 -0.01021868
0.6228543 3.647968 0.01417203
0.5161537 4.380946 0.01138439
0.3180544 5.031601 0.1076125
0.43373 3.054579 0.3399459
-0.4523584 3.011377 0.3349797
-0.6471992 4.863177 0.1328346
0.1949703 3.039066 0.4508505
0.2333256 5.014527 0.1675264
0.6190369 3.509098 0.04122026
0.5770165 3.092391 0.1834419
0.5290679 5.040385 0.02620801
-0.6592267 3.178967 0.0753318
0.6209193 3.771925 0.02055085
-0.6649621 3.681256 0.03183161
-0.5948374 4.106261 -0.009927472
0.06386423 3.119246 0.4576767
-0.6115162 5.000226 0.02468262
-0.6443827 3.0899 0.1212912
-0.1072483 4.919344 0.263433
0.585788 4.490043 0.1056866
0.6164694 3.503759 0.0589343
0.5425556 4.836082 0.1659887
0.6200917 3.822829 0.04605771
-0.59119 4.469538 0.1246555
-0.6271054 4.095475 0.03521593
-0.006668497 3.120879 0.4583019
-0.6663835 3.767817 0.03812665
-0.5664794 4.867025 0.1633965
-0.2018565 4.926865 0.241315
-0.6602213 3.546879 0.05907288
-0.4914503 5.021712 0.06106501
-0.663501 3.872106 0.05514536
-0.320689 3.153432 0.3978574
-0.4114019 3.137238 0.358355
0.5416749 4.287343 0.04831436
0.6124735 3.570903 0.09237371
0.5324166 4.850198 0.1627751
0.5765123 4.654338 0.2135912
-0.6232961 4.469847 0.1614485
-0.6648685 3.914908 0.08974028
0.1995917 3.159734 0.4379739
0.5878549 4.224299 0.07088937
0.4985738 3.159159 0.2871806
-0.6523023 3.338119 0.1000052
-0.4975328 4.962362 0.1081495
0.5927793 4.515342 0.1880692
0.6225902 3.957363 0.110234
0.6039206 4.4236 0.1037762
-0.6445095 3.286442 0.1256152
-0.6503877 4.210608 0.1102056
0.6132942 4.193322 0.1009763
-0.5343215 4.893235 0.1521859
-0.6633947 4.13568 0.1116371
-0.2306856 4.891298 0.255081
0.6077124 4.477058 0.1505953
0.4701821 4.877728 0.1683937
-0.6468335 3.547215 0.1216927
0.6201366 3.913226 0.125655
0.6046119 3.599914 0.1314462
0.6142904 4.270419 0.1136139
-0.5502775 4.640903 0.2841287
0.611599 4.414711 0.1159177
0.382811 3.244282 0.3685589
0.04931802 4.824554 0.3134269
0.4875164 4.655898 0.2559991
-0.1035197 3.237771 0.4421059
0.5954103 3.64852 0.1710428
-0.234581 3.308264 0.414397
-0.6684551 4.232131 0.1693745
-0.2291126 4.770144 0.3121208
0.5785252 3.487247 0.1915287
0.6158902 3.992411 0.1661778
-0.6275487 3.312139 0.168792
-0.3501131 3.245262 0.3826479
-0.6658824 4.25843 0.1893621
0.4197488 3.280557 0.34748
0.153426 3.283532 0.436738
-0.6388239 3.744709 0.1668493
0.1890239 4.763355 0.324667
-0.1568884 4.787858 0.3134636
-0.6311645 3.670208 0.1692392
-0.4373974 4.822958 0.2271862
-0.6683303 4.187494 0.1962739
0.1507391 3.337194 0.4333324
-0.635749 3.799169 0.1852071
0.564948 3.485984 0.2183881
-0.5142339 3.319916 0.2979211
-0.6548456 4.393447 0.2162685
-0.619262 3.491078 0.1844351
0.4965014 3.338938 0.2945875
-0.2455626 4.741322 0.3207867
-0.6135158 3.628113 0.198306
0.136222 3.369909 0.4323364
0.3463632 3.34273 0.3824353
-0.04363534 3.383957 0.4351672
0.5387933 3.566796 0.2600997
0.582576 4.378852 0.1995879
-0.5001474 3.333109 0.306886
-0.5311729 3.400437 0.2844355
-0.06161251 4.6493 0.3624094
-0.3741579 4.755878 0.2878342
0.5338048 3.606175 0.2677872
-0.2432136 4.678828 0.341328
-0.3479198 3.403089 0.3796049
0.2859292 3.358457 0.4036348
-0.3474237 4.669269 0.3292085
-0.6441187 4.22097 0.2483748
0.52672 3.825309 0.2841814
-0.3605041 4.642613 0.3347213
-0.607165 4.063084 0.2547331
0.4200153 3.4096 0.3468375
-0.2855811 4.693703 0.3311585
-0.4407685 3.429877 0.3417068
-0.5755796 3.853393 0.2624172
-0.03711048 4.596008 0.3749036
-0.1072629 3.394069 0.429532
0.3320342 4.634811 0.3231901
0.5357178 4.132238 0.2751635
0.4427819 4.457109 0.2992775
-0.551695 3.701527 0.2747735
0.408069 4.514121 0.3105975
-0.1486781 3.499199 0.4204443
0.4693259 3.586359 0.3158322
0.5030186 4.024221 0.3076489
0.1045966 3.471165 0.4279608
0.3473415 3.442447 0.3804377
-0.5703879 4.065429 0.2823631
0.4966207 4.270873 0.288839
0.2671072 4.600243 0.3467333
0.1189488 3.518504 0.4245064
0.4023053 3.518721 0.3527267
-0.5009392 3.671037 0.308541
-0.519397 3.986073 0.3076904
-0.1602388 4.553533 0.3763317
-0.5309952 4.034498 0.3035795
0.4885302 4.128422 0.3071074
0.4628944 4.039608 0.328753
0.3180903 4.511146 0.3433829
-0.06459472 3.582478 0.4250833
-0.3371253 4.509108 0.3629146
0.2145274 3.537552 0.4102874
0.2738044 4.455223 0.3625807
0.2584164 4.479717 0.3636652
0.376944 3.782287 0.3599199
-0.1049077 3.551058 0.4231927
-0.5215713 4.256375 0.319765
-0.3125505 4.425384 0.3725889
-0.01343166 3.619136 0.425783
-0.4852856 4.052068 0.3235049
0.07888478 3.626242 0.4232077
0.3057753 3.591716 0.3858244
0.229112 4.397861 0.3788567
0.2733187 3.575865 0.3953954
0.4047574 3.996974 0.3531393
-0.3841961 4.010489 0.3561225
0.3795109 3.96146 0.3607366
-0.4181499 4.229804 0.3477619
0.3013923 3.768994 0.3837748
-0.2959354 3.750252 0.3886049
0.1942685 4.39349 0.3850452
-0.3359968 4.153436 0.3672122
-0.2269022 3.674326 0.4053123
-0.270369 4.325294 0.3809218
0.2729218 3.847802 0.3890067
-0.3608734 4.194466 0.3614423
-0.02334998 3.705772 0.4228542
-0.3350575 4.00656 0.3700391
0.2900851 3.988297 0.3834802
-0.04023322 3.725294 0.4217201
-0.2750787 3.870405 0.3890382
-0.02789798 4.392603 0.3978485
-0.2711778 4.037869 0.3844931
0.1730029 3.77497 0.4103819
0.2235157 4.091067 0.3943054
-0.1282879 3.777921 0.414662
0.1327877 4.219827 0.4017102
0.05197929 4.2475 0.4056535
-0.1758986 3.915287 0.404809
-0.1114395 4.27599 0.4026334
0.1335438 3.930763 0.4108514
0.0972265 3.835173 0.4162561
0.166052 4.07288 0.4034542
0.03078143 4.186107 0.4091678
0.07239453 3.88034 0.4164864
-0.0919155 4.222278 0.4060934
0.05816017 3.963367 0.4151182
-0.09250358 4.099915 0.4094283
-0.3468788 5.154004 -0.08888614
0.0549678 5.141407 -0.2342146
0.2735478 5.163425 -0.1667222
-0.09930334 5.135678 -0.2352223
0.6671962 4.990536 -0.09356052
0.4723834 4.396413 -0.0894095
0.602681 3.827172 -0.08218122
0.6152941 3.101384 -0.01820916
0.3593441 2.992194 -0.3078492
-0.6541089 3.00894 -0.05698042
-0.664638 3.649554 -0.06163044
-0.5081564 4.348171 -0.09917451
-0.6363788 4.924369 -0.2117607
-0.1333095 5.102423 -0.2533597
-0.4898708 4.428282 -0.1809808
-0.6510217 3.144194 -0.05398462
0.5252161 3.052583 -0.1561502
-0.5624651 4.178456 -0.1157964
-0.6339565 4.954891 -0.1887199
0.4894787 4.449297 -0.1859529
0.5953467 3.851348 -0.1178523
-0.04518373 3.029009 -0.4378645
0.1679361 3.092922 -0.4440241
-0.31655 3.060668 -0.3290843
-0.2165315 5.081018 -0.2544345
-0.3810482 5.093257 -0.1903675
-0.6525839 3.088744 -0.05172595
0.5393263 4.649446 -0.3033831
-0.6183053 3.86933 -0.1361965
-0.57997 5.003657 -0.174576
-0.5705177 4.174361 -0.149614
0.5019197 4.254015 -0.1401257
0.2708337 5.068933 -0.2507022
-0.3851732 3.072079 -0.2810953
0.1975833 3.122628 -0.428238
0.3872147 5.089619 -0.1945141
-0.6409653 3.329905 -0.08609895
-0.5608228 4.940798 -0.2418887
0.1704318 5.016597 -0.3018386
-0.5225431 4.465195 -0.2422839
-0.5774674 3.121166 -0.1413314
0.6093452 3.693468 -0.1244163
-0.6565068 3.714164 -0.137903
0.4266294 5.062743 -0.2004692
-0.6513895 3.678422 -0.1730164
0.5287869 4.37782 -0.2199127
-0.5550468 4.276906 -0.1798519
-0.2840776 5.039111 -0.2622043
0.558293 3.100214 -0.1281338
-0.6071026 3.136615 -0.1173002
-0.02812114 3.1749 -0.4367569
0.5819412 3.995328 -0.1940476
0.5436229 4.433161 -0.2468248
0.5842996 3.934892 -0.1918812
-0.5769029 4.021101 -0.2076884
-0.6013104 3.165517 -0.1239748
0.2755233 3.130354 -0.3722456
-0.3640883 4.989255 -0.2709057
0.5963209 3.707779 -0.1721097
-0.4690409 4.976974 -0.2507016
-0.08254572 4.933596 -0.3436157
0.3155879 3.1408 -0.335229
-0.6319745 3.852893 -0.2388007
-0.1464295 3.179484 -0.3948428
-0.4628651 4.816337 -0.3369909
0.4971518 4.947593 -0.2718017
-0.4760748 3.149917 -0.2013485
0.5794405 3.741343 -0.2096828
-0.5971779 3.200685 -0.1287546
-0.1000777 4.948539 -0.3384355
-0.4911418 3.160203 -0.1906866
-0.5911834 4.029079 -0.2517095
-0.5886158 3.326588 -0.1430956
-0.3683738 3.211152 -0.2796663
0.04231345 3.21654 -0.4490874
0.4766865 3.199229 -0.1842435
-0.5514891 4.393126 -0.3043882
0.3403161 3.206052 -0.3002925
-0.00804535 4.910969 -0.3468051
0.129086 3.214707 -0.4478103
-0.5947732 3.576474 -0.2028415
0.07714894 4.899075 -0.35537
-0.3600731 4.937377 -0.3045427
0.4280054 4.860291 -0.3290287
-0.5604473 4.341493 -0.2816239
0.3890873 3.215052 -0.2476476
0.4749212 4.488452 -0.3489158
-0.5684319 3.496326 -0.1839614
-0.3898857 3.259769 -0.2563133
-0.5244915 4.408694 -0.3361234
0.4073757 4.899565 -0.3182099
-0.5224077 3.261414 -0.1696451
0.4347008 4.529553 -0.3641376
-0.5814022 4.089213 -0.299601
-0.551955 3.520238 -0.1937512
0.5059044 3.943488 -0.2912141
0.3447464 4.883789 -0.3386033
-0.2912611 3.332293 -0.3273079
0.4931283 3.269793 -0.1815975
0.351143 3.268172 -0.2783909
0.4005274 4.708842 -0.3670363
0.3559861 4.770831 -0.3695606
0.07115167 3.334107 -0.4420061
0.4338031 4.520127 -0.3646678
-0.5034898 3.374131 -0.1816788
-0.3574317 4.686792 -0.3826017
0.3598598 4.703911 -0.3760578
-0.5370697 4.028778 -0.332629
-0.09020898 3.335819 -0.4098926
-0.1432794 4.806085 -0.3745302
-0.5277042 4.184315 -0.3537852
-0.3644982 4.605687 -0.382836
-0.3783255 4.64563 -0.3811601
0.4595086 3.387121 -0.2067762
-0.4984611 3.795869 -0.2679377
0.3904889 3.340746 -0.2335491
0.3781996 4.517817 -0.3755468
0.2533287 4.770592 -0.3770353
-0.4735663 3.684227 -0.2386516
-0.4396352 3.793285 -0.2568735
-0.4872694 4.253386 -0.361625
-0.2864115 4.570206 -0.3832385
0.2971281 4.692082 -0.3822709
-0.341236 4.434796 -0.369207
0.3948929 3.387583 -0.231098
-0.3062201 4.529758 -0.3793224
0.1380918 3.387145 -0.4326213
-0.42227 3.441968 -0.2149588
-0.4323398 3.719616 -0.2470516
0.2844915 3.415818 -0.3343217
0.4068617 3.744745 -0.2876348
0.388381 4.015415 -0.3261146
0.4431313 4.084985 -0.3288952
0.2263523 4.630342 -0.3880242
-0.02250941 4.737118 -0.3809835
-0.4009318 3.685844 -0.2499004
0.1094515 4.679491 -0.3889454
-0.4105484 3.524963 -0.2240175
0.1247768 3.44416 -0.429905
-0.3918248 3.72855 -0.2556316
-0.2500388 4.511292 -0.3799715
0.3607729 3.5534 -0.2701251
-0.3712555 4.247955 -0.3434753
-0.2374492 4.451975 -0.375492
0.3826936 4.244212 -0.352802
0.2045947 4.614625 -0.3893872
-0.3703035 3.77405 -0.2645151
0.3115099 3.461181 -0.3030293
0.3058479 4.343615 -0.3684782
0.2276804 4.478844 -0.3853009
-0.08416753 4.599689 -0.3899755
0.3239355 3.661659 -0.3067842
0.3523718 4.096786 -0.3399177
0.2101154 3.532589 -0.3860338
-0.05137136 4.569848 -0.39123
0.1388279 3.504282 -0.4216929
-0.3049172 3.719215 -0.2997157
0.2866968 3.819601 -0.3342801
-0.07289757 4.527411 -0.3913979
-0.2876821 3.924974 -0.3153132
-0.285482 4.213386 -0.3405221
0.2174464 3.574726 -0.3758326
0.3181822 4.095695 -0.3444019
0.1412925 4.44124 -0.3936793
0.2405978 4.239823 -0.3687249
-0.1574062 4.345452 -0.3796351
0.1772742 4.299854 -0.3850785
0.143232 4.347589 -0.3910043
-0.2326837 3.599875 -0.3499997
-0.2136923 4.188084 -0.3596337
0.2006347 3.665977 -0.3836626
-0.07278921 3.663352 -0.4044579
-0.127231 4.321537 -0.3840963
0.06575207 3.659497 -0.4160841
-0.1929877 3.986279 -0.3671651
0.1679619 3.830702 -0.3957855
0.01654025 4.383453 -0.3959565
0.1552795 3.972453 -0.3967006
-0.008132533 3.701513 -0.4130181
-0.02673795 3.728421 -0.4106272
0.1378143 3.881965 -0.4035355
-0.04203137 4.248507 -0.395559
-0.1548641 4.058341 -0.3800104
-0.1052862 3.948542 -0.3925898
-0.0946123 3.802958 -0.3970894
0.03091834 4.115389 -0.4038493
-0.05161998 3.999822 -0.3994477
-0.05784221 4.149404 -0.3960845
0.02633002 3.943403 -0.4083919
-0.0180581 4.147172 -0.399766
-0.5359156 4.525519 0.02392847
-0.6344692 4.873393 -0.2282495
-0.5261516 4.380138 -0.06840836
-0.7830729 4.198931 -0.162186
-0.5223458 4.382514 -0.1090095
-0.5832739 4.550471 0.05046729
-0.8214145 4.285895 -0.008115248
-0.6846111 4.830316 0.09000368
-0.5483751 4.580913 -0.2174032
-0.5845117 4.248216 -0.002691885
-0.6355829 4.194691 0.04719986
-0.541934 4.291244 -0.1214313
-0.5750731 4.587911 -0.2310159
-0.5771847 4.369968 0.03347325
-0.724726 4.867346 -0.102963
-0.8876416 4.331733 -0.06013719
-0.6021231 4.27279 0.04303261
-0.5930759 4.262332 -0.1702384
-0.8069398 4.328871 -0.009325462
-0.6618351 4.267022 -0.1900215
-0.6925544 4.773727 -0.1876413
-0.7460156 4.339849 0.05472563
-0.6633779 4.344454 -0.2011262
-0.6355937 4.603798 -0.2358729
-0.6012788 4.376579 -0.2064591
-0.7105867 4.375217 0.07977172
-0.6107045 4.452054 -0.2217946
-0.6977103 4.385287 -0.1959874
-0.814819 4.450036 -0.05442541
-0.7579787 4.747581 -0.0822447
-0.7623783 4.765009 -0.1002287
-0.7076279 4.489612 -0.2041917
-0.8707865 4.510493 -0.1428015
-0.8168826 4.535399 -0.1502125
-0.8150468 4.586372 -0.1477151
-0.6563168 4.078776 -0.1402994
-0.9111094 4.209282 -0.04643
-0.6221996 4.122953 -0.004238189
-0.9080305 4.244332 -0.1522431
0.6929986 4.124543 0.07621102
0.8896611 4.205415 -0.09589247
0.7385865 4.172486 -0.1504413
0.5110881 4.402685 -0.04574678
0.5290115 4.638585 -0.245286
0.6799098 4.891201 0.05312528
0.5369857 4.228171 -0.08583672
0.9633771 4.283761 -0.05696235
0.5106186 4.427858 -0.04116846
0.5176417 4.304966 -0.1055138
0.8079407 4.247907 -0.1113661
0.653096 4.779663 0.1238028
0.5426891 4.689404 -0.2600202
0.7137673 4.234904 0.06980007
0.9319202 4.330196 -0.07274587
0.6469227 4.817401 0.116279
0.5158722 4.446271 -0.1892141
0.5615537 4.223086 -0.1475517
0.7094573 4.864835 -0.121986
0.7049682 4.821727 0.05459091
0.7840186 4.288365 -0.1205441
0.5602449 4.349465 0.04145175
0.8146663 4.349397 -0.1015777
0.6486689 4.575469 0.07893229
0.6182213 4.632468 -0.2307341
0.6826616 4.753655 -0.216759
0.7730002 4.353751 -0.1287022
0.6299183 4.516497 -0.2285793
0.612071 4.326707 -0.2012931
0.5893761 4.347067 -0.203613
0.8099766 4.415506 -0.1013754
0.6925738 4.575328 0.07464377
0.7321396 4.446052 0.01533074
0.7312354 4.718521 -0.133061
0.7454339 4.467988 0.003291639
0.7000777 4.422608 -0.1918975
0.7244379 4.492645 0.01320003
0.8626402 4.5245 -0.04976307
0.7617698 4.504582 -0.1304172
0.7415997 4.625228 -0.0167285
0.7860168 4.563884 -0.1069265
-0.6294888 2.927053 0.1529593
-0.3560929 2.930966 0.3873406
0.06871121 2.945123 0.4655245
0.4164551 2.938374 0.3443933
0.6285869 2.913166 0.07282445
-0.04459747 2.991751 0.460264
-0.64459 2.944161 0.07575208
0.4001835 2.927505 -0.2589721
0.1404032 2.944888 -0.4463591
-0.1946118 2.943862 -0.3698296
-0.4142142 2.981707 -0.2484684
-0.2563126 3.003413 -0.3440751
0.2037307 2.995275 -0.4124737
-0.2272108 5.103432 0.0517764
0.2131909 5.025969 0.1457149
-0.1287684 5.04583 0.1644937
0.2228736 5.091678 0.06805961
-0.3793942 5.112431 -0.06420261
-0.6612948 4.72449 0.1277417
-0.498279 4.369138 -0.06628213
-0.6492199 3.471379 -0.02146788
-0.5893916 2.987121 0.1934367
-0.3519934 2.994807 0.3818063
-0.03872653 3.027962 0.454589
0.2521868 3.00229 0.4272742
0.6053736 3.072326 0.01934173
0.6040401 3.702209 -0.06475107
0.4887409 4.315361 -0.06300666
0.5905297 4.63486 0.1155955
0.4935986 5.080427 -0.0793949
0.07139399 4.986628 0.2229353
0.6068212 3.050936 0.03598889
-0.6302173 3.042094 0.1157492
-0.6623772 4.948221 0.02073171
-0.5255306 3.020978 0.2604174
-0.6515987 3.673549 -0.03484147
0.6248091 4.841236 0.1140533
-0.5689579 4.16839 -0.007048721
-0.01023805 3.014988 0.4573395
0.6089364 3.68265 0.01213003
0.1923813 4.990919 0.1867247
-0.3249903 5.031174 0.07916588
-0.6346915 4.984194 -7.295558e-05
-0.5062441 5.060729 -0.02105861
0.6058686 3.3906 0.02246217
-0.6146733 3.998027 0.004041872
0.6211542 4.999892 -0.01370295
0.5141813 4.184257 0.000172265
-0.537154 4.492718 0.08428938
0.1114043 4.945827 0.2404231
-0.2864209 4.998467 0.1351815
0.1661478 3.057507 0.4394332
0.6001026 3.116263 0.07473958
-0.5844029 3.064836 0.2003357
-0.3189071 5.008706 0.1073923
0.4864593 3.109695 0.2765792
0.5097296 4.244158 0.02479737
0.6002397 4.65163 0.166532
0.5917425 3.953562 0.02061319
-0.6493177 3.458795 0.0230022
-0.634306 3.97031 0.03279311
-0.1459729 3.110782 0.4332735
0.1083385 3.093371 0.4432124
-0.06783485 4.930435 0.2473486
-0.632488 3.125648 0.1148776
-0.632094 4.578286 0.1873416
0.5946761 3.249655 0.09767348
-0.3751456 5.005223 0.08820391
0.5122991 4.360807 0.05077181
-0.6478397 3.478416 0.04501367
-0.07816566 3.131505 0.4396755
-0.4925702 3.103032 0.2906382
-0.6295092 4.539783 0.1908368
-0.6428156 3.397584 0.07804829
0.5065495 4.856832 0.1510863
0.5601527 4.700252 0.1963841
-0.6518775 3.784583 0.06997853
0.5356508 4.367188 0.07530403
-0.5101213 3.159682 0.2792054
-0.6247593 4.517905 0.1874115
-0.5677094 3.13207 0.2239209
0.1192657 4.906909 0.2590639
-0.6277333 4.580915 0.2218073
0.5888109 4.413263 0.1092201
0.5387632 4.742211 0.1912644
0.5927146 3.469652 0.1050556
0.5009716 3.1475 0.2643426
-0.6084663 4.604498 0.2496742
-0.4907286 4.966712 0.08846258
0.5962642 4.481599 0.1433006
0.1572601 4.896517 0.2576283
-0.6403551 3.583715 0.09273379
0.4285063 4.952055 0.117974
-0.6504257 3.885737 0.1027261
-0.1365993 3.172539 0.4290266
-0.2875706 3.164097 0.3940882
0.03017907 4.84654 0.2900269
-0.5215544 4.843848 0.1728939
0.3359953 4.867166 0.2172506
0.6106232 4.049994 0.1169824
-0.3583555 4.904422 0.1850595
-0.6270112 3.327805 0.1346912
0.5716814 3.309886 0.1656211
0.5095424 3.235322 0.2595823
0.5715079 3.240543 0.165095
0.5281327 4.596862 0.228056
0.3624878 4.878342 0.1984834
-0.6503316 4.261496 0.1616131
-0.6203845 4.428082 0.1743316
-0.09284366 3.247816 0.4281383
0.5965213 3.828665 0.1524317
0.6073568 4.248671 0.1401732
0.5729313 3.443135 0.1661789
0.1902539 3.308276 0.4154314
-0.6448276 3.914093 0.1513231
0.3389877 4.843371 0.2300866
-0.1514589 4.821511 0.2854518
-0.3971213 3.279317 0.3474523
-0.0203882 3.318683 0.4267034
0.4844745 3.262146 0.2845634
0.1681064 3.304228 0.4193723
-0.6479377 3.968701 0.1613139
0.5590485 3.497085 0.2012944
-0.4945342 4.710597 0.2582588
0.5971287 4.400549 0.1380893
-0.65471 4.153113 0.1858937
-0.514913 4.57268 0.2987098
0.5296758 4.49533 0.224023
0.4447953 4.696139 0.2496273
-0.4809498 3.263324 0.3038489
0.2203963 4.743222 0.3118929
-0.465296 4.65523 0.288705
0.5619137 3.70458 0.2215594
-0.6281204 3.92359 0.19016
0.1911633 3.342935 0.4130511
-0.6458935 4.238027 0.220811
-0.5851995 3.32667 0.2107311
-0.05962066 3.418356 0.4179828
0.5097457 3.385242 0.2638494
0.5477073 4.435631 0.2085499
-0.4523817 4.562665 0.3166081
-0.4298036 4.727479 0.2688539
0.3314767 4.707908 0.2921403
-0.4443362 4.53622 0.3233151
-0.5422405 3.388529 0.2567887
-0.5846432 3.41766 0.2120278
0.3598268 4.670285 0.290722
0.5857164 4.190243 0.2086307
-0.5330662 4.496393 0.3065446
-0.6158535 3.87828 0.2007064
-0.001035996 3.438181 0.4189087
0.5539452 4.009345 0.2478091
0.0256503 4.654316 0.3506797
0.5697823 4.206088 0.2237071
-0.3127124 3.506382 0.3758019
-0.06389624 4.617538 0.3550635
-0.6068991 4.059351 0.2354697
0.07123227 3.393917 0.4205294
0.5015116 3.887511 0.2869844
-0.3934898 4.568131 0.3291275
0.497042 4.362436 0.2611759
0.2755186 4.64711 0.3239596
-0.5269144 4.36478 0.3086869
0.5263566 3.993935 0.272882
0.04354924 4.598792 0.3612007
0.3069752 4.63799 0.3159993
-0.2240559 3.444383 0.3963312
0.5211171 4.32125 0.2511681
-0.3298885 4.604595 0.3351614
-0.1598498 4.621943 0.3482508
0.4829173 3.967925 0.3022769
-0.5626767 4.017519 0.2665118
0.2115394 3.439515 0.4038135
-0.06569861 3.508254 0.4130126
-0.274987 4.613003 0.3413115
0.3718898 3.496843 0.3514972
0.3142152 4.532425 0.327357
-0.4996178 3.880786 0.2987444
-0.1495998 4.576371 0.3586164
-0.1914797 3.548837 0.3988498
-0.5590784 4.217371 0.2883955
0.4085853 3.752667 0.332713
-0.4970883 3.746029 0.2965163
-0.5383209 4.089729 0.2869322
0.1719913 4.51969 0.3611456
0.1319013 3.541791 0.4080451
0.26046 3.493508 0.3892915
-0.3142917 4.476861 0.355719
-0.5002553 4.020863 0.3022834
-0.261991 3.645829 0.3848771
0.07866933 3.527462 0.4126869
0.06119677 4.494045 0.3731198
-0.4194956 3.945002 0.3320994
-0.147275 4.491993 0.3715287
-0.04223672 3.64475 0.410133
0.1262352 3.56847 0.4073492
0.3825534 4.26574 0.3278036
0.2313987 3.539778 0.3927128
0.334969 3.739271 0.3597892
-0.3502416 3.671742 0.3608254
-0.3502822 3.746094 0.3588478
-0.4290322 4.010318 0.3279492
-0.3163596 4.353627 0.3587518
0.3341729 3.857511 0.3589661
0.03301866 4.365296 0.3852596
-0.3242128 4.283081 0.3564713
0.2274494 4.353439 0.3678611
0.2800159 3.82609 0.3735977
0.3579401 4.0156 0.3522388
-0.3509672 3.871565 0.3551421
-0.2682643 4.191667 0.3679643
0.1776615 3.738747 0.3966722
0.3020618 3.915117 0.3669764
0.310327 4.09335 0.3612363
0.08039754 3.69736 0.4071161
0.08573973 4.332823 0.3856376
-0.1531759 3.733771 0.3990205
-0.1298765 3.779659 0.4002007
-0.2138181 3.837628 0.3872181
-0.2121441 4.267992 0.3772824
0.01231884 3.752585 0.4074579
0.213725 3.809198 0.3885109
0.1875671 3.933653 0.3894879
-0.02174542 4.242722 0.3935248
-0.1918665 3.929649 0.3881685
0.07567631 3.848388 0.4032048
0.181626 4.179403 0.3833042
0.129836 4.1168 0.3916867
0.06963176 3.904591 0.4020498
0.009687709 3.879837 0.4042469
0.01891107 3.966496 0.4020394
-0.1016351 5.125632 -0.22489
0.3451777 5.141335 -0.1174675
0.2541888 5.111028 -0.2066153
-0.2797007 5.142306 -0.1650654
0.5905 4.858871 -0.2535207
0.4574179 4.403389 -0.08021504
0.5942729 3.780883 -0.08121628
0.6019093 3.217844 -0.0144316
0.4077466 2.986672 -0.2444831
0.1562313 3.015851 -0.4370729
-0.6487651 3.723228 -0.06601063
-0.5112702 4.232064 -0.07135542
-0.5193222 4.636608 -0.2605127
-0.4596279 5.088232 -0.09310417
0.1382732 5.102293 -0.2364264
-0.4753783 4.432033 -0.1623351
-0.643025 3.217226 -0.0310281
0.5051983 3.036425 -0.1548889
-0.5711101 3.997194 -0.082306
-0.5195302 4.678763 -0.2829417
-0.6001402 3.03298 -0.1113479
0.4737634 4.428768 -0.1566042
0.5778264 3.874751 -0.1146714
0.03088642 3.037348 -0.4457495
-0.4610686 3.040857 -0.2090889
0.3529174 5.099224 -0.1803382
0.6007358 4.943658 -0.2028718
-0.6334735 3.237705 -0.05828968
-0.6217967 3.815542 -0.1427357
-0.06217856 5.07641 -0.2549072
0.5684234 3.058547 -0.09542771
-0.6030467 4.962719 -0.1826071
0.6037945 3.396317 -0.06458409
-0.5662081 4.889464 -0.2546347
-0.2867989 3.080545 -0.3287314
0.5840819 3.837167 -0.1094496
-0.3937992 5.078441 -0.1776259
-0.6347317 3.514186 -0.1142904
0.4579505 3.039752 -0.1917545
-0.2348575 5.049019 -0.2533838
-0.5347821 4.264144 -0.1713152
-0.4976062 3.078339 -0.1796954
0.5974344 3.642081 -0.1284611
0.1592611 3.114444 -0.4316556
-0.5987027 3.880396 -0.1611697
-0.2983479 3.096944 -0.3220268
0.5253366 4.821603 -0.3027166
-0.5432619 4.055809 -0.1836971
0.3633919 3.08063 -0.2762021
-0.1497718 5.005287 -0.2927166
-0.02937151 5.006371 -0.2934022
0.584359 3.765364 -0.1428317
-0.2290662 3.136389 -0.3508821
-0.365913 5.031935 -0.2246242
0.5379106 4.266304 -0.2029741
0.4324708 3.117393 -0.2040672
0.5704921 3.864641 -0.1860696
-0.5428173 4.327063 -0.208977
0.114886 3.120709 -0.4431818
-0.4545076 5.021804 -0.2003444
0.5848214 3.634754 -0.1720686
-0.05642587 4.966723 -0.3141364
0.5709502 4.204355 -0.2106315
0.3613805 3.138833 -0.2689286
-0.6203682 3.648248 -0.1975628
-0.116927 3.114556 -0.3922704
-0.5405763 4.454715 -0.2903405
0.4968463 4.601019 -0.3231158
-0.4340693 3.145643 -0.2154032
0.5740983 4.065709 -0.2306821
0.4792628 4.96699 -0.2417405
0.4097388 3.160298 -0.2179168
-0.5770612 4.015142 -0.2426176
-0.5328636 4.440217 -0.3042774
-0.1892335 4.928338 -0.3228697
0.04059231 3.184023 -0.4385696
0.5093347 4.51912 -0.3165543
0.5764782 4.232521 -0.2427734
0.3420092 3.192486 -0.2805902
0.4574618 4.690624 -0.3356246
-0.3055473 3.149838 -0.3138467
-0.5722557 4.050381 -0.2642953
0.2800017 4.916889 -0.3173394
0.1706837 4.886972 -0.341345
-0.2984898 4.909853 -0.3152955
0.3330537 4.940527 -0.296328
0.5664774 4.260469 -0.258368
-0.5549217 3.18979 -0.1385521
0.4684319 4.483258 -0.3365062
-0.5448707 3.325296 -0.1481601
-0.3722 3.231934 -0.2561249
-0.2453307 4.911221 -0.3224202
0.5317785 3.266208 -0.1485521
0.5159895 3.848008 -0.2607865
-0.1237512 4.876071 -0.346603
0.3742845 4.871682 -0.3226218
-0.5683212 3.6842 -0.2385625
-0.5406114 4.287556 -0.3032224
-0.4072102 3.290017 -0.2181034
0.1672421 3.265416 -0.4194209
-0.4405355 3.259495 -0.1935773
0.3963723 4.640927 -0.3569576
-0.5493292 3.99485 -0.3115616
-0.05082827 3.340365 -0.4070422
0.4939002 3.952095 -0.2821578
0.4921718 4.041256 -0.2970216
-0.5167684 3.368481 -0.1626646
0.511744 4.176776 -0.3053851
-0.5136048 3.606941 -0.2056598
-0.5124392 3.803583 -0.2592839
0.5138143 3.590744 -0.2260163
-0.4678275 4.385283 -0.3545898
0.4675394 3.937526 -0.2881611
0.254848 4.810807 -0.3550824
-0.5214815 4.052056 -0.3227547
-0.484293 3.883561 -0.2712709
-0.2940241 4.791547 -0.3602949
0.01149281 4.794496 -0.3595419
-0.3880416 4.48526 -0.3626202
0.4618891 4.165494 -0.3222357
-0.4883673 3.825328 -0.2577642
-0.4538668 3.792045 -0.2441947
0.3458068 3.327237 -0.2565235
0.4478207 4.111434 -0.3179116
-0.1626278 4.722888 -0.3705432
0.3421552 4.721341 -0.3638049
0.4206782 3.898307 -0.2916723
0.4425103 3.531309 -0.2210206
-0.4317634 3.410106 -0.1941808
0.1717897 3.389205 -0.4086075
-0.4648216 4.210375 -0.3401386
0.4118674 3.472859 -0.214421
0.3018971 3.421158 -0.2949991
0.3859568 3.927606 -0.3007801
-0.1983015 3.419081 -0.3572182
0.0789091 4.726916 -0.3702298
-0.37253 4.37783 -0.3490629
0.02558742 3.411414 -0.4198661
-0.4032996 3.854903 -0.254008
0.3434605 3.96252 -0.3130431
-0.1110092 3.40594 -0.3871077
-0.3165002 3.444851 -0.2813807
-0.3300186 4.40847 -0.3517444
-0.006334807 3.479738 -0.4114102
-0.3778936 3.629907 -0.2373578
0.07802562 3.431855 -0.4202823
-0.3722949 3.873398 -0.2617733
-0.4187826 4.184475 -0.3241324
-0.3093081 3.490449 -0.2836368
0.3115614 3.979416 -0.3223644
-0.337615 3.52833 -0.2599605
-0.3674574 4.215794 -0.3235949
-0.3360961 4.026886 -0.2944153
-0.01063299 3.549695 -0.4054755
0.01362947 4.606726 -0.3771535
0.3195038 3.816071 -0.3056347
0.2789815 3.496017 -0.3135699
-0.01905984 3.518537 -0.406691
-0.1779997 4.4478 -0.3689887
0.315561 3.519095 -0.281527
0.3338965 4.122983 -0.329989
-0.3033621 3.538447 -0.2861703
0.1341283 4.485871 -0.381433
-0.1401177 3.548774 -0.3750766
0.2648238 4.374942 -0.3610088
-0.2819186 4.208821 -0.3266269
-0.2598608 3.572968 -0.3176753
0.2718675 3.822045 -0.3263624
0.2877047 4.178512 -0.3393519
-0.2418072 3.9353 -0.3245792
-0.1167628 4.485028 -0.375948
0.2267798 4.205306 -0.3567662
-0.2550701 3.639296 -0.3190608
0.09722383 4.506522 -0.38294
-0.2196216 3.938311 -0.3365012
-0.2357174 3.566011 -0.3330959
0.04235158 3.719532 -0.4009857
-0.2255281 4.103782 -0.3366449
0.1489053 4.163416 -0.3802048
0.0444891 4.416809 -0.3825908
0.1564603 3.709225 -0.3871897
-0.199012 3.842249 -0.347592
0.1458767 3.930064 -0.3858006
0.093636 3.69701 -0.3990569
-0.03832551 3.673104 -0.3960204
0.03374117 4.29352 -0.3831959
0.08571354 3.951075 -0.3943522
-0.1046843 3.786287 -0.3803785
0.1029089 4.111617 -0.3889112
-0.1016812 4.08041 -0.3769173
0.07052318 4.13077 -0.390828
-0.005142519 3.857561 -0.3947044
0.04595813 3.901082 -0.3966551
-0.02773455 4.128708 -0.385508
-0.5364257 2.909616 0.2548282
-0.5879753 2.908736 0.2095397
0.6104448 4.067432 0.0246046
0.4193841 2.921016 0.3554426
0.5940433 4.05491 -0.1340945
0.2801595 5.164674 -0.04263735