# .PCD v0.7 - Point Cloud Data file format
VERSION 0.7
FIELDS x y z
SIZE 4 4 4
TYPE F F F
COUNT 1 1 1
WIDTH 2048
HEIGHT 1
VIEWPOINT 0 0 0 1 0 0 0
POINTS 2048
DATA ascii
14.02691 0.9056209 20.00656
14.15806 0.7647275 20.06665
13.31817 0.4272111 19.92079
13.53182 1.007803 19.85689
14.34971 1.069098 19.8296
12.96407 0.977835 19.77809
14.35631 0.7473406 20.17436
12.79128 0.9339949 19.78477
14.4253 0.8338115 20.14926
12.599 0.4590272 19.80584
13.88132 1.105988 19.43833
14.61225 1.10314 19.64996
13.06095 1.103204 19.4478
14.07484 1.108012 19.16064
14.73551 1.109105 19.26607
14.06618 0.2418503 19.14143
14.22683 1.107862 18.90312
13.35491 1.114895 18.86241
12.39146 0.7747771 19.78227
14.53889 1.10646 18.9564
15.30423 1.108557 19.11636
15.10146 1.102429 19.67324
12.74893 1.117888 19.16043
14.38593 1.109104 18.59331
13.72109 1.113541 18.64817
13.46781 0.2543028 19.06978
15.13338 1.099599 18.53096
16.17985 1.100977 18.97731
17.03879 1.105709 19.34658
14.80293 0.2219233 18.98199
12.81659 1.131521 18.54335
13.88303 1.11759 17.96063
14.43509 1.109976 18.2247
13.13432 0.2680289 18.95657
15.06739 1.097757 18.27654
15.50126 1.100515 18.62909
16.44128 1.098703 18.66913
16.07677 1.10296 19.13132
16.19734 1.102654 19.62136
15.19822 0.2119336 18.68802
13.90075 0.2379786 18.28241
12.53085 1.124242 18.93052
13.09673 1.124066 18.30394
14.39163 1.112659 17.99884
13.47942 0.2653114 18.88513
15.34873 1.094466 18.35347
14.74369 1.103454 18.02747
17.08382 1.09116 18.86519
17.73124 1.101998 19.45885
15.30173 0.2186266 18.40219
13.92107 0.2366684 18.05884
12.80163 1.141715 18.25488
13.80641 1.121849 17.38393
14.30121 1.121376 17.54078
13.6549 1.116811 17.69774
12.01922 0.4315448 19.58791
11.84905 0.9696352 19.49906
15.40903 1.070093 17.25868
14.70424 1.104692 17.95805
16.2721 1.092665 17.95565
17.62843 1.102985 19.23758
18.04047 1.099964 19.28622
14.00958 0.2212674 18.13628
13.77002 0.2625274 17.94681
12.4705 1.167228 18.1983
13.00057 1.131874 17.83722
13.90729 1.125757 17.16504
14.26309 1.130451 16.94007
13.45456 1.105793 16.10863
12.00247 0.5594062 19.67686
12.20619 0.2172493 19.02978
14.68254 1.109949 17.23275
16.21366 1.093854 17.71872
17.16031 1.099581 18.64005
16.50685 1.136616 19.62606
14.45889 0.1681435 17.66231
13.28295 0.3637637 18.112
15.31115 0.2045579 17.76876
12.46232 1.215616 17.45401
13.31577 1.106034 16.451
14.19208 1.154933 15.16643
14.47647 1.147542 15.33753
11.77962 0.5253018 19.60376
12.25933 0.1893564 18.98214
15.93479 1.079803 17.54911
14.54034 1.13206 16.20403
16.57968 1.110435 17.60214
17.95341 1.08802 18.76971
18.58143 1.093164 19.2402
15.05991 0.2235118 18.21462
13.36906 0.368818 17.82547
14.83932 0.1842699 17.55381
12.32292 1.252484 17.2443
13.1584 1.113283 16.25274
13.88957 1.133801 15.70718
14.30621 1.159932 14.94425
13.43951 1.100141 15.21067
12.81356 0.2278575 18.44579
15.70446 1.035635 16.15725
15.92286 1.076292 17.44234
16.79046 1.103444 17.65201
19.24623 1.092891 19.21235
16.00605 0.1832444 17.25296
15.68076 0.1922674 17.55401
13.35136 0.414419 17.41076
15.33741 0.197056 17.45709
12.28092 1.221645 17.70057
13.01447 1.129854 16.41578
13.28958 1.098247 15.0397
13.65067 1.116192 15.05695
11.60778 0.9945194 19.22791
15.21485 1.074843 16.333
15.88538 1.042926 16.25074
14.8633 1.108773 16.0019
17.2994 1.094424 18.11892
15.95803 0.209903 18.50222
16.25011 0.1973846 17.414
14.40328 0.1137081 16.63742
13.75753 0.3047367 16.64541
15.15339 0.1921141 17.241
12.46512 1.26567 16.34503
12.84747 1.163649 16.13001
13.15813 1.102067 14.57354
13.60299 1.108729 14.63861
11.37832 0.7372186 19.52728
15.38584 1.057353 16.11783
14.9158 1.109199 15.57399
17.24868 1.071256 17.83253
16.28018 0.2225681 18.11744
17.15471 0.20684 17.42761
16.76156 0.1987088 17.17114
15.6401 0.1794189 17.20073
14.01325 0.2114823 16.62511
15.22737 0.193854 17.21212
12.45619 1.280006 16.04139
12.27782 1.285468 16.76581
12.99161 1.135361 14.86729
13.82477 1.139553 13.95212
11.88208 0.2019674 18.886
12.90365 0.4097206 17.05831
15.29239 1.070373 15.24109
14.89995 1.116888 14.98505
14.76582 1.139644 14.28601
17.97385 1.097936 18.40978
16.90863 0.2139651 18.04029
17.45272 0.2127169 17.6495
16.70321 0.19278 16.95672
16.47012 0.1726671 16.44225
13.32836 0.5131468 16.11369
13.61978 0.384664 16.21189
14.61023 0.07040251 16.1055
12.04147 1.230703 17.29649
13.3046 1.059573 13.76743
13.47522 1.054651 13.39491
11.42913 0.4089801 19.37126
12.25265 0.04866344 18.4453
15.31661 1.068829 15.02136
15.28336 1.074844 14.73435
16.81672 1.115577 17.30615
18.67548 1.105685 18.59486
17.56772 0.2136463 17.87893
17.68572 0.2087014 17.154
15.57584 0.168567 16.73228
16.14832 0.1286213 15.62347
13.19041 0.5407945 16.16459
13.43892 0.4764231 16.01825
14.64087 0.06014082 15.82088
12.77602 1.19652 14.76818
13.14102 1.081133 13.92075
13.62075 1.094932 13.62368
11.30911 0.3965659 19.19406
12.03118 0.1157821 18.48385
15.3945 1.058566 14.90726
16.59809 1.15746 16.83937
18.636 1.095502 18.43517
19.9298 1.078974 19.4509
17.73174 0.2018364 16.51974
17.72383 0.2101606 17.33029
17.1995 0.1956787 16.4826
16.11427 0.1390653 15.96707
16.52426 0.1540442 15.7436
13.33844 0.5528318 15.06151
14.16457 0.1668547 15.63699
13.62232 0.4290055 15.2169
14.79439 0.06444847 15.5764
12.12908 1.3234 16.27687
13.27038 1.036908 13.34459
14.80909 1.164735 13.48969
11.30391 0.3888944 19.16789
16.08349 1.000148 14.89224
16.64168 1.158668 16.61093
16.73919 1.138157 16.78557
18.38567 1.091034 18.2557
20.30915 1.076295 19.40344
17.83592 0.1998973 16.42812
15.47843 0.1707423 16.37018
16.65906 0.1513335 15.50028
14.48714 0.08247013 14.82314
13.95811 0.261976 15.3015
13.77337 0.3532464 15.23301
15.49289 0.1581795 16.07208
12.1473 1.346226 15.80687
12.62463 1.258622 13.70065
11.78868 0.7741898 18.48698
14.2522 1.254444 12.94502
11.63111 -0.006961721 18.58039
12.03171 0.03524711 18.16336
15.64403 1.023921 14.44777
15.27066 1.078848 13.5514
17.92719 1.083823 17.87616
19.57914 1.091029 18.90058
20.3924 1.079618 19.27048
18.76173 0.2245345 18.12373
18.22226 0.2151673 17.58807
18.2599 0.2087576 16.99002
15.87799 0.1254141 15.81382
16.64191 0.1430157 15.12834
16.73201 0.1440845 14.98206
14.5697 0.06599514 14.87485
13.20446 0.5793763 14.93624
13.99063 0.2769485 14.35725
13.86313 0.3587849 13.95374
15.17717 0.09376062 15.20429
12.18928 1.407152 14.32848
11.96909 1.316496 15.81719
13.77263 1.131162 12.96187
14.56432 1.261887 12.72845
14.52442 1.285622 12.51087
12.74041 0.01908158 17.30495
16.4938 1.062451 14.93182
16.5873 1.097819 15.3373
15.3507 1.064865 13.05513
18.04535 1.083247 17.8689
19.84087 1.072449 18.34492
20.36462 1.079606 19.01813
20.87726 1.059151 19.55783
18.5769 0.2180678 17.65708
19.2386 0.2179463 18.50689
18.24346 0.2029961 16.51437
17.09193 0.1683419 15.07893
16.75516 0.1381511 14.70178
14.5023 0.08127216 14.44139
12.92978 0.4928553 15.39923
13.53682 0.5320573 13.83576
14.87446 0.04066 14.5965
12.43285 1.344214 14.03086
11.9644 1.338834 15.49283
13.47905 1.023252 12.74484
14.17196 1.325311 11.84634
14.5432 1.306144 12.25059
12.65403 -0.1322921 17.38409
16.1687 1.00327 14.55015
16.77225 1.098534 15.8028
17.54278 1.023138 16.79315
18.62584 1.060522 17.24474
19.34434 1.085147 18.38367
20.57227 1.027033 19.8545
21.73497 1.07122 19.26681
19.0175 0.2219085 17.68463
17.46977 0.2103861 15.65328
18.48365 0.2012533 16.37086
17.35806 0.1752735 14.64515
16.01093 0.05232236 13.90157
14.44722 0.09668847 14.07814
13.07713 0.5770058 14.6626
13.86025 0.3841515 13.27654
14.91184 0.0393379 14.49585
12.4102 1.360824 13.73546
11.8519 1.047043 17.05183
13.14817 0.9849392 12.42287
14.1533 1.327733 11.73559
14.57387 1.345222 11.74457
12.79309 0.08318572 16.4485
16.779 1.057541 14.83339
17.03708 1.022494 15.82112
17.07156 1.015601 16.29245
17.83596 1.08791 17.29778
18.78135 1.070019 17.46511
20.2163 1.073609 18.58125
21.32662 1.091065 18.52878
21.18559 1.041451 19.65001
19.64314 0.2349553 18.59149
18.48462 0.174457 18.3569
18.51366 0.1895737 15.4417
18.12616 0.1832687 15.21297
18.62578 0.2078779 16.61254
15.58947 0.1065023 15.07724
15.82952 0.03465397 13.89803
16.68813 0.1298079 14.38813
14.1893 0.1934999 13.73139
12.8829 0.4475612 15.12775
13.7355 0.5203478 11.91542
15.1796 0.002461873 13.92602
12.23819 1.426672 13.51844
11.83004 1.190427 15.95002
11.98373 0.5675917 17.49264
14.03625 1.267354 12.03922
14.25916 1.436247 10.45502
14.70202 1.319544 11.65873
12.47007 -0.1853075 17.5849
16.61514 1.010501 14.06888
16.0227 0.9932165 13.53642
15.67988 0.9892287 12.52734
17.72383 1.055953 16.19221
18.60411 1.051273 16.83504
19.55901 1.076629 17.9742
20.66233 0.7813288 20.07173
21.12844 1.110548 17.80119
21.47292 1.012089 19.7301
20.05196 0.2289628 18.19442
18.97328 0.1482141 18.60824
17.74131 0.1787402 14.72201
17.42676 0.214188 15.37072
15.70829 0.07813796 14.63397
17.55832 0.1748741 14.23232
16.94445 0.1380875 13.69851
14.65583 0.04192819 13.99972
12.9042 0.4828947 14.6058
13.52591 0.5830715 12.84264
15.29979 0.04772931 14.45834
12.02105 1.444597 13.65911
11.80434 1.000874 16.36153
13.11529 0.9623186 11.99222
14.50599 1.448248 10.44772
14.26602 1.469449 9.938211
15.06496 1.161566 12.07633
12.30762 -0.1911549 17.55248
16.31558 0.9957833 13.76338
16.07036 0.9593658 12.78398
15.46454 1.028997 12.35628
18.17518 1.07367 16.66132
18.51132 1.049652 16.50127
19.45492 1.076377 17.73129
20.72536 0.7772853 20.06382
21.31554 1.107171 17.72763
22.38537 1.070136 19.25251
21.54273 0.9839205 19.78617
20.08822 0.2369915 18.62286
18.57298 0.1815446 14.88384
18.04747 0.1802468 14.08586
15.61945 0.05366626 14.30923
16.06441 0.0117875 13.11849
17.62534 0.1785727 13.82796
16.6151 0.1018937 13.43269
13.14837 0.6349356 13.4442
12.81904 0.003859302 15.60179
13.89633 0.4248403 11.84402
14.94314 0.01009246 13.97763
12.1698 1.461517 13.08454
12.73697 1.132517 11.77057
11.99545 0.6227505 17.30669
13.94545 1.258341 11.29761
14.34673 1.548826 8.935499
15.28229 1.084322 11.85862
11.61871 0.8962308 18.2431
16.41254 0.9931312 13.67019
16.18118 0.9759126 13.22263
15.55145 0.9979712 12.01421
17.89835 1.069963 16.09908
18.50595 1.039307 15.85766
19.74721 1.050417 17.58909
21.29768 0.8665714 19.95952
21.03308 1.124182 17.53383
22.09297 1.117789 18.57247
21.91541 0.9137376 19.81557
20.3277 0.2416984 18.84692
18.77623 0.1874301 15.40681
19.10565 0.1820621 15.38214
18.50277 0.1735073 14.21581
18.19197 0.179174 14.0201
16.33565 0.05038343 13.03718
15.39544 -0.04737308 13.26474
17.37828 0.176058 12.85607
17.53518 0.1885006 12.62712
14.31356 0.1277125 12.53546
12.80043 0.1509703 15.1821
13.98181 0.369338 11.71234
15.20005 -0.04178583 13.39287
11.86766 1.426102 13.51315
12.76902 1.083858 11.31228
11.98686 0.6565895 17.00035
13.6071 1.028578 11.47336
14.48412 1.470243 10.14959
14.01301 1.322947 10.73601
15.05114 1.187908 11.66906
11.36332 0.8689374 18.36705
11.6226 -0.1832886 17.78358
16.92859 1.002195 14.02224
16.01786 0.9192679 12.03907
15.66813 0.9659207 11.93589
18.44429 1.032489 15.52642
18.90921 1.065229 16.36772
20.51471 0.6124904 20.12709
20.82297 1.119615 17.71112
21.62668 1.104092 18.12064
22.61438 1.075192 19.12605
20.2881 0.2522373 19.31419
19.60642 0.2118708 17.34921
18.90786 0.1790743 15.06778
18.73826 0.1618437 13.93624
19.02441 0.1716906 14.9551
18.24829 0.1904329 12.52087
17.94828 0.1997328 12.43957
16.07701 -0.01876747 12.57633
15.55675 -0.04748441 13.13829
17.72598 0.1974944 12.43317
17.45495 0.1848641 12.3492
14.36761 0.08991574 12.13217
12.80876 0.3003916 14.43902
13.98181 0.420506 10.52862
15.05349 -0.09197703 12.71443
12.01519 1.482465 12.9631
12.83695 1.035312 11.32977
11.71172 1.097229 14.88059
13.734 1.110818 11.19438
14.74023 1.42022 9.937542
14.6163 1.581384 8.019264
14.49616 1.65051 7.286798
14.32142 1.58797 8.212518
14.80506 1.341743 10.84204
12.19146 -0.2527206 17.18007
16.41564 0.9242153 12.27009
16.88633 0.9710614 12.98546
17.27666 0.9778931 13.16265
17.68422 0.9829445 13.50273
16.18004 0.9236332 12.23575
15.6483 0.9457631 11.38214
17.9784 1.056205 15.68386
18.10357 1.036657 15.2102
19.15409 1.081122 16.4769
20.09872 1.017318 17.29197
21.18707 0.4741643 19.95717
21.90066 0.8197771 19.86803
20.77918 1.14833 16.96418
21.3747 1.138585 16.12504
22.88449 1.024313 19.39533
20.4708 0.232002 18.31905
20.31953 0.2023308 17.59962
19.15318 0.153683 14.49907
19.34833 0.1595733 14.93714
18.75292 0.1555685 13.53433
18.10151 0.2053846 12.03971
15.99159 -0.07968555 11.9612
15.231 -0.1269951 12.39051
16.81177 0.09708649 11.81242
13.21715 0.6784987 12.53776
14.19983 0.2042396 11.79991
14.00603 0.4552984 9.338489
13.85828 0.5308064 9.809821
11.69389 1.246131 13.95143
12.39222 1.388725 10.95362
12.85255 0.9628245 10.36025
12.01367 0.2669776 17.04892
14.82986 1.467633 8.562271
14.46427 1.680314 6.809362
14.09873 1.555169 7.274908
15.46755 1.005294 11.27657
11.30509 0.5414461 18.45279
11.91286 -0.1227867 17.32194
16.7897 0.9635715 12.82697
16.41163 0.900407 11.90555
17.53804 0.9925873 13.88904
16.13871 0.8546655 11.18315
15.71519 0.924897 11.26819
18.69042 1.022982 15.34107
19.54507 1.041762 16.8264
20.61078 1.137193 16.79515
22.84836 0.6685169 19.73272
21.64399 1.125493 16.42984
21.09592 1.156611 16.39357
21.40168 1.152306 15.44189
22.50675 1.128188 18.71062
20.42179 0.2240995 18.01295
19.83618 0.2178072 17.07877
19.43739 0.1868266 16.59956
18.35795 0.1798059 13.15442
18.4043 0.190113 11.76084
16.14452 -0.03512229 12.12017
17.73447 0.2173991 11.6499
17.213 0.1761767 11.53029
13.23566 0.695577 12.07272
12.88169 -0.183839 15.00437
14.09981 0.4196406 8.661838
13.7942 0.5657172 9.889455
11.65319 1.106832 14.23586
12.93015 0.9305583 10.52768
12.04373 0.5357836 16.46137
13.55334 0.981084 10.69468
13.96285 1.320157 9.998741
14.97677 1.344534 9.201544
13.95631 1.443822 7.259026
14.2919 1.712055 5.946998
15.09884 1.221934 10.06829
12.16885 -0.277414 17.05779
16.94985 0.9404975 12.08851
17.33774 0.9579694 12.39162
17.61798 0.9990848 14.17741
18.01897 0.9844368 13.71122
17.59722 1.001834 14.33455
18.18093 1.021274 14.82533
19.16679 1.026416 15.60976
19.91141 0.9866867 16.80499
22.5865 0.5560887 19.74601
21.70434 1.136596 16.10931
20.89438 1.188874 15.58595
21.20625 1.167932 15.61986
22.05865 1.165741 17.75649
20.551 0.2261851 17.91175
20.9828 0.2541236 18.5944
19.85747 0.2104647 16.82311
19.11661 0.1271361 13.59533
18.72019 0.1544537 13.00436
18.10118 0.224455 11.36255
15.46333 -0.2092424 11.54831
17.31923 0.1870365 11.60063
14.55319 -0.02225614 11.85757
12.79375 0.1389981 13.88914
14.25165 0.1887551 10.49228
14.01622 0.4828024 8.633872
13.51199 0.6870179 8.965931
14.88684 -0.1339351 11.91578
11.94731 1.490866 12.74977
12.68741 1.08257 10.23023
13.07203 0.8786274 10.45707
13.81719 1.18841 10.31775
14.83435 1.525663 7.548761
14.70749 1.651203 6.468551
14.53352 1.752061 5.488619
14.02213 1.512999 6.981185
14.25762 1.753913 5.001255
15.69654 0.9134971 10.88772
11.33869 0.8586966 18.08875
11.90648 -0.1906384 16.98096
16.2944 0.8406447 11.01447
17.39431 0.9392641 11.35123
18.22305 0.9908307 14.06128
17.72672 0.9453049 11.71088
18.0431 0.985927 13.7897
19.15915 1.006169 15.13763
20.15089 1.013804 16.54676
20.60409 1.151356 16.06796
22.83414 0.4794285 19.67974
22.04343 1.211897 15.96851
20.86723 1.19391 15.42547
22.20691 1.200625 17.78262
19.57481 0.1963812 16.73261
21.31396 0.2650563 18.761
21.13496 0.2633493 18.55571
20.02185 0.1866022 16.79599
19.40405 0.08989038 13.3329
18.903 0.1414611 13.32713
18.01943 0.2305368 11.28399
16.17301 -0.06495143 11.60584
17.85712 0.2460852 10.80899
16.43686 -0.005730652 11.36649
14.35655 0.08679241 11.17379
12.81793 0.007306116 13.83026
14.3025 0.1347993 10.84867
14.17035 0.3755522 8.353859
14.16144 0.5010726 6.33623
13.49819 0.6903439 9.573801
15.0197 -0.150072 12.01377
11.81133 1.462582 12.58295
12.58034 1.169217 9.896228
11.82558 0.7771309 15.31732
13.75644 1.142498 9.733266
15.08503 1.305226 8.515525
15.17949 1.205131 9.281434
14.69094 1.706857 5.561922
13.85292 1.303184 7.775989
14.0596 1.56859 6.540904
15.44217 1.01521 9.858892
11.16894 0.7528887 18.23268
11.81163 -0.170075 16.98787
16.68031 0.8900608 11.43039
16.77827 0.9078132 11.60371
17.44387 0.92695 10.58618
17.84026 0.9473564 12.0323
18.38745 0.9334642 12.57621
16.15417 0.8052278 10.18483
20.05493 0.9985752 16.50085
22.65434 0.3988805 19.60731
21.94179 1.18586 15.64701
21.7483 1.151306 15.38543
21.08168 1.222692 14.32102
22.23272 1.249007 17.0557
20.74 0.2391292 17.72752
21.71523 0.2690566 18.90588
20.54302 0.1968632 17.04105
19.57645 0.1071502 13.91348
20.07105 0.1137508 14.91786
19.02912 0.1188033 13.09875
18.71027 0.1476612 11.52017
16.08113 -0.1053997 11.38261
17.92456 0.2481304 10.649
16.40934 -0.01474703 11.3159
14.64704 -0.1115365 11.08108
12.85048 -0.08346763 13.973
14.29229 0.2239545 8.77529
14.2456 0.3841195 7.149857
13.3486 0.7264691 9.460109
13.36575 0.7225432 9.311235
15.10722 -0.2319678 11.29905
11.95203 1.517598 12.08038
12.98635 0.857024 9.659371
11.74661 0.819941 14.59925
13.77469 1.181391 8.579953
14.93384 1.519097 6.631591
15.23399 1.174279 9.077823
14.59122 1.839581 3.70792
13.74421 1.152926 7.75255
13.98378 1.546285 5.743305
15.40583 1.040505 9.587742
11.87637 0.6550264 17.55736
16.69356 0.8546611 10.72235
17.35424 0.9328524 11.165
17.61749 0.9347535 10.86362
17.87103 0.9354401 11.49062
18.17895 0.9410607 12.4545
16.12282 0.7952878 9.859398
19.93891 0.9836861 16.49225
20.68883 1.180139 15.45504
21.86144 1.1732 14.98518
22.45675 1.353668 15.90183
21.02531 1.240819 14.05609
22.67811 1.139082 18.19438
21.02453 0.2755012 17.58286
22.04448 0.2696798 19.33152
19.66739 0.06689686 13.25994
20.13366 0.1114624 15.05009
19.10317 0.08782083 12.37335
18.57252 0.172339 10.90925
16.37769 -0.02696479 11.25523
15.81215 -0.2301626 10.81264
17.61432 0.2377953 10.68959
16.8278 0.08878384 10.76638
17.03771 0.1359905 10.27726
12.80025 0.4915989 12.50701
14.52038 -0.04196187 10.667
14.26569 0.3852343 6.826928
14.05283 0.5862687 5.701932
13.35455 0.6929564 8.04959
11.65895 0.9169257 14.07596
12.36133 1.400371 10.12069
11.97545 0.5973513 15.64443
13.50889 0.9358126 9.858774
15.22402 1.197778 8.516022
14.83556 1.682206 4.888028
14.86124 1.687827 4.584875
14.28201 1.853468 2.912971
14.68193 1.850938 2.829126
13.91994 1.528173 4.528502
15.59655 0.9373742 9.464811
11.14853 -0.3428326 17.53878
12.22232 -0.4252912 16.58467
16.46061 0.8021144 10.08734
16.21893 0.7460931 8.5825
17.55505 0.9160616 9.888947
17.96304 0.9203103 10.96347
18.63058 0.9348127 12.90143
16.05503 0.7880336 9.326118
19.86983 0.9917012 15.44972
22.41616 0.3044607 19.43355
22.27759 1.316747 14.78327
20.86558 1.271771 13.73031
23.04677 0.9579442 18.9492
21.24728 0.3017268 17.63769
21.94014 0.2758967 17.92941
20.52531 0.1662069 15.75148
19.81231 0.08560251 13.66429
18.96136 0.09686677 11.72444
18.49586 0.1905682 10.0906
15.78726 -0.2513223 10.56895
15.53159 -0.3079579 10.37902
18.06449 0.3133592 8.451219
17.37091 0.2119632 10.7739
16.90124 0.08968373 9.921612
13.12343 0.7231934 11.38269
12.94898 -0.4468092 14.79375
14.40605 0.06464382 9.817639
14.4455 0.1152655 7.688455
14.38094 0.3555587 5.445895
13.15569 0.7528943 9.941266
13.3215 0.716792 8.668839
11.62323 0.908945 13.63798
12.23731 1.488383 10.23071
12.93731 0.8189294 8.841919
11.82083 0.6957685 14.39238
15.32057 1.164107 7.508205
15.43775 1.067556 7.569131
15.48199 1.007899 8.711852
14.2342 1.821902 3.446903
14.7574 1.845872 2.409557
13.81568 1.316646 5.514905
14.00747 1.638685 4.357505
15.70136 0.8911559 9.379249
11.70198 0.6728866 17.45775
16.55508 0.7532579 8.635258
16.25711 0.7371391 8.343977
17.21521 0.8626229 9.045113
17.50298 0.8704159 8.45363
17.96593 0.8862073 9.527063
18.57131 0.8931053 11.906
18.8366 0.9363344 13.11826
19.74644 0.9979596 14.79408
20.08215 1.029954 15.42236
20.43738 1.154198 14.53005
22.06966 1.234971 14.34027
20.88478 1.277988 13.64769
22.54167 1.333006 16.62685
21.29558 0.3357144 17.09866
21.64555 0.3626273 16.87735
20.82303 0.2490914 16.81214
19.5692 0.04100778 12.75939
20.30599 0.1227923 15.28452
19.25118 -0.01724296 10.65456
18.58813 0.1702029 9.912946
18.13245 0.2596085 9.783605
15.85693 -0.2661252 10.00068
15.27634 -0.3566916 9.721678
17.44114 0.2348627 9.761539
17.09445 0.1508781 9.902867
14.68842 -0.154475 10.33703
12.83768 -0.1034042 13.45532
12.97651 -0.412444 14.1997
14.48031 0.03452059 8.29016
14.54667 0.05469122 6.54615
14.3857 0.3850345 4.870925
13.95072 0.609916 5.997908
13.87852 0.6275498 6.083885
15.12456 -0.3231862 10.00777
11.86753 1.522628 11.59602
12.42 1.308728 9.034461
12.65977 1.008183 8.910263
12.0204 0.5019517 14.80612
13.64127 1.017909 8.010245
15.28863 1.239822 6.470236
15.06761 1.473099 5.736238
15.64105 0.9161038 8.588433
14.83652 1.785838 2.914084
13.72268 1.125122 6.809414
13.87049 1.484205 3.823682
11.31587 0.08413282 17.5827
11.35911 0.9282023 17.50494
16.74708 0.823448 9.826727
16.55143 0.7194757 7.782508
17.20261 0.875638 9.455454
17.35509 0.8708978 8.791341
17.41794 0.8582016 8.27039
18.0462 0.8850566 9.85218
18.21466 0.884055 10.57532
18.79386 0.8746777 11.90565
15.96418 0.7924066 8.654759
20.17629 1.046776 15.61368
21.72828 1.151903 13.70818
22.30273 1.325662 14.76929
21.35032 1.199522 13.67007
22.88438 0.8657575 18.48672
21.51419 0.359937 16.97597
22.04429 0.2479164 17.14715
20.57457 0.1890781 14.88441
20.04759 0.08490256 13.52804
20.24275 0.1129516 13.72093
19.15818 0.006832794 10.57554
18.9061 0.06813583 9.940494
18.18738 0.2950636 8.429709
15.78982 -0.3346747 9.250213
15.94436 -0.2974518 9.162463
17.69321 0.3121432 8.383981
17.99352 0.3370092 7.701855
17.14657 0.1722622 9.368857
14.79897 -0.2258421 9.859643
12.71315 0.2797068 12.258
12.98895 -0.6162759 14.44342
14.60934 -0.03448207 6.551052
14.66604 -0.02175805 5.058462
14.25163 0.5283752 3.650059
13.1384 0.748415 9.444213
13.29917 0.6834028 7.763269
15.19395 -0.3617035 9.499976
12.12874 1.540579 9.979751
12.75958 0.8486671 8.038748
11.98147 0.5438209 14.58516
15.50574 1.041882 6.909268
15.61433 0.9538202 7.147698
15.11996 1.457347 5.232873
14.93612 1.788956 1.831191
13.68102 1.060445 6.692232
13.78305 1.287046 4.436083
13.91273 1.567929 3.151668
11.1853 -0.0958775 17.52277
11.29123 1.046327 17.39843
16.67345 0.7546968 8.342443
16.26422 0.7210969 7.643868
16.87174 0.8440068 9.887341
17.00857 0.8095567 8.476958
17.58788 0.8533735 7.878798
17.48615 0.8216783 7.210706
18.09454 0.8546997 9.094945
18.73985 0.8430822 11.31662
19.2581 0.9027216 12.62334
20.11658 1.069266 14.47953
21.69676 1.145497 13.56219
22.65476 1.324296 16.0208
21.15318 1.266262 13.2749
22.69206 0.9028753 17.9777
21.27758 0.3529272 16.69636
21.47879 0.3976968 16.27536
20.89116 0.2799245 15.90288
19.53337 -0.01245187 11.92447
19.48637 -0.0422263 11.38142
18.6335 0.1577012 9.186846
18.36351 0.2617781 8.1729
15.68271 -0.3786477 8.961437
16.08103 -0.2149977 9.726363
17.54323 0.2837852 8.67326
17.88703 0.3437888 7.618185
16.63582 -0.007084413 9.772957
14.66182 -0.1546643 9.192038
12.75695 0.008885286 12.44894
14.64955 -0.1461947 8.568993
14.71315 -0.1344294 5.823101
14.57779 0.221361 3.636165
14.04402 0.6089463 4.499629
13.71794 0.6435668 5.792222
13.10001 0.7011532 8.096719
15.27293 -0.4169101 8.764137
11.91403 1.579798 10.10387
12.54091 1.137875 8.789949
13.06625 0.7555048 8.274041
12.16871 0.251413 15.21081
15.53098 1.049106 6.256837
15.44756 1.172434 4.907974
15.54462 0.9918647 7.538716
15.20857 1.469356 3.689022
15.21252 1.512298 2.924667
14.62284 1.934492 1.42982
13.65572 0.9975773 5.033498
13.84749 1.464374 2.670157
11.42675 0.3856128 17.65918
12.30334 -0.476615 16.09
16.50151 0.6963337 7.052852
19.43436 0.968679 13.72896
17.10934 0.7892156 7.563524
17.73498 0.8061145 6.802728
18.15436 0.8253673 8.542078
18.21215 0.8603173 9.80903
19.01609 0.8914316 12.43076
19.99326 1.048162 13.91161
22.31553 1.328109 13.63269
20.57909 1.287556 13.06645
21.39577 1.190794 13.22826
23.47589 0.9821582 19.01287
21.81457 0.3556188 16.24961
22.39612 0.1943201 18.56291
20.13044 0.04973545 12.82595
20.14523 0.08146133 13.2665
19.3105 -0.07013941 9.841499
18.61934 0.1712787 8.389729
15.79555 -0.3629883 8.822622
15.61743 -0.432994 8.254374
17.62206 0.326853 7.297103
17.86751 0.3734239 5.929358
14.97224 -0.3431586 8.78448
12.81072 0.6147173 11.21855
12.93903 -0.4078631 12.94673
14.74934 -0.2141765 6.989249
14.70828 -0.06290434 4.680024
14.52627 0.3024468 3.358136
14.01195 0.6184476 4.100591
13.30395 0.6306095 6.485265
13.12443 0.6440697 6.944727
15.244 -0.4379574 8.266267
11.64711 1.413328 11.66244
12.66871 0.8693509 7.36099
12.11916 0.4031765 14.3422
15.50678 1.071879 6.134686
15.49214 1.153019 4.449613
15.39554 1.279722 3.781205
15.65626 0.9260815 7.264728
15.35202 1.442183 1.951039
14.15153 1.865277 1.542786
13.68414 1.049121 4.623232
13.66692 1.017652 4.786624
13.91494 1.597931 1.922235
10.64758 1.002943 17.74136
16.73563 0.6822351 6.138361
15.92611 0.7937627 7.461435
16.84671 0.7147391 6.748748
17.81615 0.8104499 6.980711
18.07395 0.8100643 7.782241
17.4802 0.7914398 6.597901
18.26666 0.8222724 9.030956
18.5411 0.7401675 8.435061
18.96322 0.7833677 10.73729
19.29024 0.8565698 11.76472
20.47528 1.219522 13.47878
22.537 1.388846 14.38929
20.44427 1.245793 12.96919
22.70182 0.9789289 17.4452
21.0205 0.3400626 15.18773
21.50415 0.4320419 15.48971
22.49287 0.1887664 18.70038
19.9956 -0.05280246 11.69192
20.32437 0.1198203 13.35905
19.42806 -0.09340768 9.976936
18.73129 0.1260686 8.033744
18.28807 0.3166092 6.656168
15.76559 -0.4123938 8.12395
15.57736 -0.4543421 7.961854
17.3012 0.2290923 8.10703
18.05289 0.3662071 6.143273
16.6878 0.0002319374 9.232073
12.81385 0.6558252 10.55189
12.94357 -0.4764501 12.7814
14.86084 -0.3107066 6.319267
14.7729 -0.1428185 4.292984
14.638 0.1666728 3.094882
14.42027 0.4245454 2.494737
13.50993 0.59906 4.015294
13.53326 0.6151829 4.697859
15.25275 -0.4697177 7.534337
11.50186 1.157865 12.0653
12.26302 1.462244 8.72073
12.99299 0.7386945 7.736293
11.89742 0.5024676 16.99552
15.4206 1.336488 2.581096
15.47214 1.261522 2.93959
15.86467 0.8324112 6.456344
13.47726 0.8117776 6.601652
13.52277 0.7939116 4.984727
11.26248 0.7420977 17.70457
12.20271 -0.2824744 15.99052
16.64592 0.6716006 5.819056
16.00392 0.7700638 6.52431
18.13538 0.7821468 7.340955
18.38504 0.7317081 7.344467
18.96117 0.7642628 10.41677
18.73072 0.7546182 9.578945
19.16687 0.7983065 11.01808
19.9383 1.036549 13.59136
22.41111 1.362725 13.5605
20.33718 1.210963 12.70439
21.02382 1.379456 12.32366
23.48158 0.450948 18.99265
21.39058 0.4402865 15.05232
21.44296 0.4370065 15.32171
22.13162 0.1291001 16.2219
20.2285 0.01570021 12.04487
20.45238 0.1371146 12.95681
19.51492 -0.1345036 9.531557
19.07658 -0.02629 8.74463
18.57413 0.1955979 7.640534
18.64684 0.1706731 6.833064
15.92656 -0.3913397 7.672444
17.6141 0.3385627 6.522071
17.09604 0.1561352 8.164673
16.82612 0.05007254 8.649439
14.86852 -0.3087478 8.121087
12.71536 0.02599998 11.75194
12.77514 -0.7430889 14.72855
14.84374 -0.2822488 5.764942
14.87086 -0.222317 3.103662
14.77141 -0.01300686 2.594872
13.96767 0.6113278 3.084685
13.85615 0.6269428 3.574851
13.30218 0.5997322 5.714197
12.79182 0.662398 7.757052
11.73041 0.6709203 13.25792
11.66197 1.472302 10.89571
12.42993 1.213416 7.768882
13.06701 0.7093319 7.379401
12.02396 -0.112962 15.89466
15.64785 1.034633 4.146142
15.66426 1.084069 2.986389
15.74506 1.004481 3.226374
13.53965 0.8642014 6.548559
13.52488 0.8044782 5.184963
13.73726 1.192338 2.087626
10.54252 0.9344915 17.47569
16.87326 0.6821136 5.723312
16.77999 0.671721 5.578536
17.79758 0.7648314 6.11435
18.24571 0.7493493 7.090607
17.34703 0.7482802 5.97495
18.59914 0.7007107 7.681647
18.86817 0.7182254 9.146741
19.59929 0.8991512 11.80143
20.08196 1.074395 13.11376
22.478 1.382375 13.35127
20.13647 1.100739 12.91847
22.73687 1.048771 16.70777
23.45448 1.207109 18.70146
21.28164 0.4337997 14.70593
21.72927 0.4131676 14.46738
22.12346 0.109273 16.01403
20.29411 0.04130575 12.07652
20.44898 0.1335654 12.89517
19.41978 -0.169817 8.030401
19.14524 -0.06461819 8.324957
18.12207 0.3532408 5.56419
15.70612 -0.5528021 5.967948
15.81325 -0.5193061 6.090016
15.93427 -0.3951241 7.562632
15.40207 -0.565959 5.733112
17.44899 0.2994519 6.039894
16.96094 0.09890726 7.964662
16.72706 -0.006949145 8.19858
16.37419 -0.1800169 8.22474
12.66312 0.3584725 11.32446
12.99932 -0.7500259 13.73415
14.98319 -0.4010011 5.399957
14.91518 -0.2873445 3.086643
13.9566 0.619297 3.393895
13.78762 0.6155763 3.193545
13.40009 0.5955314 5.041668
12.87547 0.5584101 5.800636
15.05248 -0.4351594 6.428466
11.59474 1.406523 11.03778
12.28157 1.424996 7.971566
12.85503 0.7465083 7.322056
12.23506 0.01050679 14.73986
15.81249 0.9036751 4.910636
15.838 0.9446182 3.100945
15.22358 1.611391 1.589611
13.66966 1.004261 2.624619
13.86087 1.57561 1.595543
10.83723 0.830614 17.47445
16.37683 0.6857042 5.730573
16.24603 0.7083669 5.99319
17.69356 0.629912 4.023597
17.23499 0.7019526 5.33107
18.55572 0.673441 6.740814
18.87392 0.6888456 8.369141
19.98759 1.041408 13.23054
22.52127 1.39273 13.24973
20.2738 1.198985 12.29656
21.2909 1.271749 12.09586
23.36438 1.278208 18.42984
21.36262 0.4647395 14.23035
21.74768 0.4054429 14.23577
22.46402 -0.1425952 17.30321
20.06912 -0.08196238 11.19638
19.95265 -0.1476223 9.700704
19.46411 -0.1564889 8.827987
19.2068 -0.108482 7.259957
18.19048 0.323417 4.377526
18.77034 0.1052185 6.166022
15.79583 -0.5718687 5.255064
15.94414 -0.5237966 5.374627
15.52022 -0.6090883 5.123374
17.57848 0.3420643 5.05058
17.39798 0.2791882 6.642735
17.83315 0.3721218 4.747541
12.68771 0.5893984 9.665218
12.98678 -0.7085865 13.13434
14.97868 -0.3986102 4.949277
14.96115 -0.3591827 3.252685
13.89082 0.5804104 2.377178
13.66204 0.6040521 3.25533
13.34986 0.5128053 2.972834
12.77558 0.506276 5.3681
11.66072 0.6982413 12.76842
11.62522 1.494625 9.756964
12.45777 1.078081 6.653213
12.10379 -0.08397882 15.56674
15.86182 0.8806959 4.817959
15.89149 0.913441 3.029893
13.33935 0.6994078 6.056835
13.38007 0.6955903 5.497352
11.45434 0.5951741 17.31278
11.43758 -0.5285833 16.34713
16.66878 0.6637077 4.497126
18.08562 0.7121956 5.835177
17.57277 0.6325514 4.045393
17.19157 0.6758367 4.860995
18.81352 0.6563202 7.247868
19.16228 0.7089017 9.161697
19.75742 0.9174303 11.00635
21.88829 1.11377 12.21079
22.761 1.020005 15.97193
20.57528 1.421249 11.59666
22.67885 0.9210329 16.17245
23.67459 0.9602308 18.54163
21.93872 0.2497196 14.81303
22.35927 -0.1388823 16.73506
20.91579 0.3396234 13.72737
20.60104 0.1889743 12.2719
19.73819 -0.2111193 8.181402
19.40815 -0.1807057 7.265777
19.13421 -0.08128144 6.893898
18.39699 0.2669884 4.718769
18.27775 0.301884 4.467349
18.98795 -0.01477209 5.174135
18.59459 0.1910634 5.204795
16.26515 -0.2762779 7.255388
15.98952 -0.5280318 4.998415
17.17901 0.1952892 6.044534
17.24066 0.2239769 5.331429
16.84241 0.02173395 6.707758
16.50644 -0.1303276 7.792251
12.91392 -0.6436983 12.51265
15.07277 -0.4761831 4.371976
15.00348 -0.3659368 2.1458
14.0476 0.5462507 1.771897
14.24891 0.5015021 1.860656
13.46171 0.5129504 2.29531
12.89272 0.396499 3.583361
13.08468 0.5146033 4.649732
12.85981 0.4741184 4.733641
11.89379 0.4751135 13.03532
11.51688 1.368419 10.28372
12.44313 1.104835 6.691691
12.63438 0.8168696 6.377576
12.25553 0.01000627 14.52174
15.71177 1.15674 1.671202
16.04125 0.8226081 3.056387
13.30167 0.6898056 6.155238
13.28503 0.6495845 5.455676
11.26233 0.02696583 16.95676
11.39231 -0.6062757 16.332
16.35323 0.69955 4.915586
17.92454 0.6642112 4.741155
17.51754 0.6188384 3.811061
17.5919 0.5904885 3.394416
18.63535 0.6256143 5.63433
19.3458 0.7552859 9.893833
19.79798 0.9356396 10.91253
23.09962 0.3959281 18.4016
22.7106 1.395173 13.49083
20.51386 1.425451 11.27437
21.19212 1.354864 11.59845
23.1894 1.054001 18.03082
21.1695 0.4964463 12.86603
21.69845 0.4520284 13.59743
22.06702 0.08723258 15.24635
20.29117 -0.02726087 10.62756
19.87867 -0.1896794 8.708155
19.65173 -0.2140478 7.685951
19.19896 -0.114698 6.58158
18.27234 0.2930968 3.916005
18.79439 0.08984343 5.265469
15.59013 -0.622649 4.800281
16.52916 -0.1383437 7.221913
16.25595 -0.395232 5.100739
15.4969 -0.6358223 4.512596
17.41856 0.3014558 4.098623
17.78491 0.3656053 4.075119
12.62725 0.2045565 10.83829
12.64436 -0.5336643 14.80055
15.09568 -0.4963193 3.358923
13.66232 0.5300466 1.750087
12.80438 0.3782372 3.71707
13.36987 0.4993231 2.568005
12.66815 0.5900244 7.020798
12.56028 0.4905571 8.929047
11.50902 1.358878 10.29751
12.50018 0.8917449 5.299308
13.0683 0.647067 6.326362
11.98479 0.1679544 16.31748
16.25949 0.7265579 2.92529
15.5978 1.272079 1.450594
13.28284 0.6349459 5.199158
11.16075 -0.6319045 16.47089
16.77747 0.6538594 4.318764
17.80019 0.6000565 3.643847
18.21304 0.6350744 4.732937
17.11147 0.6047533 3.568156
18.73795 0.6132846 5.458437
19.35252 0.715342 8.401
19.19409 0.6875907 8.285307
20.03593 1.071787 11.98513
22.45325 1.368171 12.66088
20.25181 1.227246 11.60691
20.80888 1.558679 10.59986
23.54818 0.2446161 18.61913
21.48692 0.5325823 13.14199
22.72182 -0.08241009 18.08559
22.20443 -0.1778011 15.37963
20.28005 -0.05159679 9.62551
20.77764 0.300274 12.1766
19.93217 -0.2049702 7.766395
19.28992 -0.1545151 5.878197
18.45569 0.2318354 3.732333
18.0726 0.3395021 2.822298
18.96699 -0.005751498 4.747017
15.65891 -0.6488864 4.262523
16.55646 -0.1437046 6.6897
16.67201 -0.09049255 6.215701
16.25905 -0.4934617 3.239416
17.02437 0.1152654 5.833634
17.2977 0.2555579 3.921223
17.71846 0.3434942 3.273981
12.82751 -0.5298146 11.77255
12.3861 -0.1704344 15.28978
15.17644 -0.5449862 1.702057
12.63801 0.3232743 3.725894
12.87969 0.361458 2.734883
12.53056 0.5155044 7.729775
12.03246 0.3701836 13.18113
11.58812 1.496578 9.341258
12.34554 1.253226 6.255919
12.6731 0.7423928 5.79331
11.83317 -0.3075846 15.59784
16.20489 0.7426065 4.341613
16.27505 0.7399856 2.440577
13.19688 0.6118826 5.292922
11.24225 0.0162816 16.58998
16.75093 0.6230328 3.588435
17.84648 0.5749719 3.340121
18.14059 0.6168892 4.300452
16.98732 0.6092685 3.611805
18.79169 0.6108472 5.410009
19.40395 0.7390412 8.757292
19.28541 0.6921437 7.705907
23.05085 0.2144403 18.19447
22.68214 0.8803312 15.44707
20.6959 1.536582 10.74321
23.29382 1.242339 18.14258
21.31701 0.5514742 12.68427
21.94862 0.1902117 13.88903
22.41807 -0.4364248 16.05763
22.67184 -0.2651926 17.45063
20.45948 0.05828406 10.20717
20.22229 -0.0969962 8.739043
20.01993 -0.1850282 7.86407
19.53889 -0.2263586 5.120519
19.2994 -0.1544351 4.893223
17.63914 0.3305816 2.696022
18.44245 0.2446277 2.850473
19.32478 -0.1592842 3.689188
16.12224 -0.5868242 3.020402
15.72791 -0.707711 3.047511
16.74312 -0.05287081 5.963213
16.3599 -0.3997538 3.795511
16.99614 0.09624655 4.995616
17.54131 0.3117569 3.032866
12.71344 -0.3785991 10.92864
12.77196 -0.6422756 14.0748
15.14231 -0.5090646 1.457807
14.5178 0.2991905 0.9651166
12.70208 0.3741176 4.128672
12.88849 0.3592921 2.48178
12.45522 0.4262879 7.685516
12.13873 0.2796189 13.43319
11.5086 1.414192 9.370115
12.14869 1.539259 7.05646
12.58555 0.7116808 4.377533
12.26038 -0.137117 14.24671
16.19538 0.74054 3.68065
13.32107 0.5982956 3.820474
13.19062 0.5575238 4.27967
11.38659 0.7682437 17.12255
16.39142 0.6788616 3.410701
18.23669 0.5861855 3.902178
18.46426 0.573653 3.98266
18.90877 0.6047248 5.054036
19.53233 0.7864659 9.061081
19.28891 0.6756524 6.392002
19.97116 1.044044 10.38502
22.95143 -0.03211551 18.01762
22.36737 1.312378 12.13809
22.74912 0.9091429 14.91269
21.04922 1.503067 10.58492
23.6078 1.374295 18.32828
21.37912 0.5722942 12.50523
21.53092 0.5658079 12.54928
22.50398 -0.5666658 15.98737
20.54277 0.1172733 10.09935
20.96281 0.4369471 11.86757
19.72925 -0.2449371 5.846336
19.36802 -0.1781353 4.567153
17.50932 0.2994346 2.795909
18.42966 0.2514392 2.467909
19.16033 -0.08605037 3.017696
15.97838 -0.6974097 2.170228
16.69221 -0.08908962 5.755079
16.30592 -0.4166147 4.211045
16.87782 0.02200722 4.847505
17.15402 0.1574583 2.948411
12.57083 0.2088372 9.988144
12.68645 -0.8341997 12.32195
15.32891 -0.6443991 3.002225
14.76708 0.0199785 1.161381
12.51403 0.2943448 4.012702
12.58886 0.2997431 2.253789
12.45777 0.396614 8.070482
11.80711 0.4022014 12.18836
11.455 1.354789 9.281634
12.25579 1.401807 6.191386
12.47666 0.8714389 4.703325
13.0885 0.5784086 5.086924
11.7389 -0.1198853 15.87489
13.21655 0.5457164 3.729026
11.02069 -0.5673649 16.28983
16.58391 0.6298292 3.027052
18.65514 0.5773351 4.179693
17.16934 0.5382689 2.531533
18.89583 0.5927638 4.443232
19.65295 0.8382332 7.700666
19.50453 0.7545974 6.889015
19.92389 1.017309 9.83351
19.72137 0.8771652 9.097009
22.19409 1.209794 11.89596
22.88616 1.05703 14.29396
20.88869 1.588228 10.16562
22.38427 0.6654825 16.05977
23.47712 0.08448576 18.18916
21.55716 0.5769705 12.37327
22.35218 -0.5484133 15.20104
20.76563 0.300894 11.48958
20.3543 -0.02682589 8.692563
20.08465 -0.1754178 6.987496
19.74627 -0.2468272 5.628086
18.96845 -0.005591052 3.630415
17.53313 0.3093628 2.603922
18.47425 0.2335143 2.323852
19.28649 -0.1384477 3.301378
16.18262 -0.5840174 2.443015
15.45273 -0.7035339 2.426227
16.47265 -0.34654 3.149428
16.67592 -0.1526897 3.829769
17.00031 0.05330588 2.706091
16.91038 0.03491868 4.21445
12.60251 -0.6232925 11.14441
12.02627 -0.3333692 15.39168
15.41825 -0.7049276 1.895872
13.34096 0.4301431 1.420439
12.39627 0.2481169 2.85664
12.39258 0.3743823 6.459311
12.17294 0.006568863 13.42828
11.40485 1.101245 10.16333
12.05346 1.605664 6.843972
12.37187 1.061089 4.51487
12.07734 -0.1651412 13.74577
16.44314 0.6910509 2.007196
13.06324 0.5120019 3.825608
11.86157 -0.4626412 15.507
18.42183 0.5065175 2.757753
17.04495 0.5425256 2.228316
18.79133 0.5824113 4.236814
19.59438 0.8028768 7.22997
19.3483 0.6838234 5.282364
19.99689 1.103553 8.996625
21.87662 1.07255 10.94864
22.91545 1.079611 13.82986
20.48758 1.513964 9.972294
20.80682 1.631878 9.664822
23.05983 0.7254228 17.34771
22.20736 -0.4222125 14.48576
22.59248 -0.4545796 16.6967
22.71542 -0.4155582 17.01623
20.69069 0.2393958 11.12442
20.53033 0.1009131 8.717229
20.19952 -0.1272699 7.110409
19.60478 -0.2238274 3.927243
17.56754 0.3216537 1.589651
18.91492 0.05158968 1.664388
19.2276 -0.0962948 2.402999
16.34113 -0.4920797 2.302604
16.58209 -0.2043741 4.518357
16.70478 -0.1209488 4.059669
16.79852 -0.1001284 2.589826
12.53657 -0.5813851 10.80316
12.41257 -0.1303768 14.95855
13.47066 0.4391953 1.019826
12.42632 0.2598955 2.63662
12.36163 0.3033476 5.206553
12.26108 0.2393004 5.867434
11.90578 0.2411358 12.01663
11.38112 1.248971 8.882489
12.22445 1.437987 5.583868
12.3142 1.166947 4.060257
12.8249 0.5644915 4.367674
16.22847 0.8107932 1.230921
13.13927 0.4723182 2.526567
11.36422 1.084301 16.66817
18.46087 0.4907866 2.459835
18.95745 0.5827708 3.960969
19.61567 0.8151386 6.396986
19.38335 0.6992564 4.361754
19.62723 0.8323267 4.859899
20.13827 1.261778 8.970096
21.98066 1.090294 10.97754
22.95345 1.172146 13.31214
20.50954 1.542948 9.763229
21.29909 1.333282 10.47113
23.02935 0.6715272 17.11249
21.30232 0.6051164 11.80238
21.91076 0.3278021 12.59121
22.36958 -0.6400872 14.92468
20.72839 0.2853827 9.525701
20.45395 0.0365847 7.145833
20.22948 -0.1184941 6.286077
21.30716 0.6312613 11.3898
19.44902 -0.1759387 2.821794
18.91477 0.05311753 1.385608
19.05847 -0.02973723 2.453858
16.63921 -0.234135 2.589275
17.1023 0.1113437 1.908193
12.55618 -0.4040708 10.23564
12.5524 -0.8120092 12.05845
15.35432 -0.7002232 0.8217384
12.11424 0.1400632 4.021243
12.25521 0.2849346 2.121615
12.20073 0.1220049 6.600202
11.88292 0.3003509 12.14456
11.4729 0.7429067 11.05995
11.74124 1.66038 7.246105
12.36159 0.9919346 3.720336
12.10419 -0.1756176 13.51019
13.09343 0.4588038 2.492523
12.12493 -0.2959201 15.18703
18.14098 0.4428535 1.919558
19.12779 0.6096525 3.913072
19.73535 0.8995988 6.494318
20.2533 1.351527 9.540421
23.1238 0.4829572 17.83934
22.6064 1.399115 11.92465
20.32441 1.422466 9.500101
21.22325 1.420843 10.05473
22.40111 0.3794591 16.31313
23.69005 0.352745 18.13728
22.17489 -0.4937063 13.57566
22.80142 -0.6610914 16.12241
21.05244 0.5422611 10.78987
20.437 0.02316109 6.834126
20.05455 -0.1976916 4.945322
19.77351 -0.2243096 3.404791
18.59569 0.1754668 1.300093
16.77539 -0.155003 1.612472
17.05022 0.07204265 1.736147
12.35253 -0.5324073 10.28879
12.78203 -0.2353396 14.17122
11.96525 0.1044556 4.143265
12.15762 0.1434601 5.332126
12.02759 0.1149646 12.15815
11.40379 0.8467101 10.18732
11.70651 1.655081 7.153797
12.2716 1.268231 3.762301
12.81881 0.5478768 4.011179
16.79016 0.5837187 1.828559
11.17876 -0.8161318 15.82204
18.54963 0.4962839 2.358817
19.75499 0.9171931 6.360176
19.91098 1.057198 7.256606
20.13343 1.272596 8.501588
22.98867 -0.02395709 17.5432
22.55626 1.381215 11.76907
22.59978 0.7692882 14.13185
20.49951 1.637407 8.457986
21.24357 1.402117 10.06361
23.53349 1.542445 17.71381
23.33817 0.1505607 17.83082
22.05168 -0.04326346 12.73285
22.76499 -0.6482635 16.17534
22.94422 -0.3781791 16.81441
20.82285 0.3924331 8.774179
20.19043 -0.1389725 4.871664
20.0351 -0.1788116 3.020455
19.59336 -0.1787615 2.132841
18.35553 0.2433593 1.233675
12.30886 -0.2886443 8.902238
12.30522 -0.6471829 11.43404
13.0395 0.360696 1.117241
12.11501 0.2773459 2.266951
12.06271 0.0580595 5.784351
12.19016 -0.1757298 13.0315
11.37319 0.8206775 9.539969
11.40905 1.412091 7.986112
12.17158 1.50395 4.736489
12.47206 0.6611553 2.666375
16.7191 0.6157637 1.651999
12.06096 -0.5307714 14.9941
19.04182 0.5842525 2.917043
17.79738 0.4300445 1.673157
19.8457 0.9984328 6.495796
19.5392 0.7948217 3.508473
19.98976 1.138518 7.481675
22.64452 1.403791 11.66136
22.61625 0.7455556 13.796
21.14547 1.552046 9.003366
22.25389 0.436884 16.00491
23.69222 -0.07085429 17.8664
22.06884 -0.1444984 12.9017
22.96872 -0.5459523 16.2992
20.95824 0.4934758 10.05829
20.76446 0.3409712 8.14203
20.33759 -0.04990945 4.812415
20.17588 -0.1168223 2.763276
19.73809 -0.1869585 2.081756
18.42752 0.22336 1.113882
16.4394 -0.5172279 1.179919
12.30734 -0.4423217 9.687259
12.55194 -0.3309175 13.66326
11.93504 0.07785697 4.428528
12.04341 0.07430053 5.242436
12.20705 -0.0786254 12.61081
11.45482 0.6796089 10.35251
11.31185 1.086298 8.530303
11.92531 1.680952 5.973901
12.26837 1.20586 3.12241
12.59721 0.5265209 2.44395
16.64323 0.6332796 1.38745
11.56183 -0.8637037 15.35606
16.82901 0.5854906 1.566989
19.83838 1.024835 4.852236
20.04028 1.221405 6.926023
19.72666 0.97689 2.993122
22.0811 1.078084 10.19925
22.47475 1.319958 11.08703
22.23829 0.5537875 15.12763
21.05357 1.673593 8.252092
21.51262 1.179761 9.454221
23.14846 0.8076358 16.95194
22.39421 -0.8594748 13.86337
22.08 -0.1733743 12.097
22.64538 -0.931818 15.02412
21.02052 0.5572581 9.64949
20.67833 0.2547211 7.627651
20.68179 0.2611226 7.309506
20.20576 -0.1181848 3.477262
19.94957 -0.1554009 1.522338
17.47229 0.2580243 1.207256
18.5608 0.1876976 0.8104382
16.44011 -0.5414928 0.9460517
12.26091 -0.2181856 8.476327
12.30321 -0.6592215 12.13631
12.23207 -0.1529136 8.10313
11.75934 0.2311583 3.116955
11.96733 -0.1094331 6.703064
12.06645 -0.05471428 11.89684
11.31773 0.9963494 8.80177
11.88342 1.694101 5.95111
12.27779 0.9468324 2.12775
12.54761 -0.4699325 13.9607
11.38336 -0.9242424 15.39757
17.78518 0.4248207 1.303973
19.95707 1.156874 5.413029
19.34344 0.7085988 2.616762
19.65233 0.9205856 2.711353
23.04722 0.4233944 17.43937
22.62739 1.377543 11.01535
22.4655 0.6472425 13.50201
20.52766 1.707704 7.69318
20.59893 1.73808 7.751916
23.45527 1.56669 17.24145
23.61467 0.7690137 17.7001
22.04408 0.04304876 12.15184
23.00041 -0.6059163 15.99146
21.19753 0.6528932 10.06212
20.89333 0.4957443 7.514601
20.55695 0.1452303 4.963384
20.46315 0.04955121 5.068815
20.25491 -0.04854465 1.856553
20.20572 -0.0892701 2.219217
19.32415 -0.122217 1.227252
11.91452 -0.317272 9.300095
12.1195 -0.4725975 10.91156
12.42322 -0.537878 13.42809
12.51044 0.3363916 1.265203
11.92181 0.04109043 4.890787
12.23842 -0.2847293 12.60418
11.75644 0.08505753 10.5225
11.31695 0.7115557 8.631632
11.82908 1.71593 5.608253
12.24876 1.174449 2.557695
11.96292 0.189825 15.88328
19.09818 0.6268901 2.05794
17.97908 0.4231806 1.152608
20.08663 1.296796 6.673987
19.8043 1.08613 2.617803
20.1749 1.414493 6.833932
21.86629 1.034437 9.698456
23.06426 1.188931 12.22248
22.11709 0.3897561 14.80326
21.14014 1.646675 7.819955
20.56835 1.780803 6.945234
23.33452 1.332402 17.07395
23.84375 0.2444869 17.80034
22.22917 -0.730798 13.01685
22.05528 0.0661602 11.30824
23.02577 -0.2528453 16.59787
21.29259 0.6905075 10.0749
20.85106 0.4565304 7.134243
20.64282 0.2430114 4.903299
20.49029 0.0737789 5.0682
20.43956 0.08682305 1.851016
19.34735 -0.1124389 0.7638904
11.89241 -0.2851689 9.576746
12.10021 -0.4608188 10.66933
12.32621 -0.3468052 14.54883
11.67418 0.4567239 1.888691
11.70879 -0.03248726 5.540112
12.22915 -0.5254217 12.99294
11.59427 0.2017179 9.668108
11.40949 0.4788789 9.047681
11.41181 1.525748 6.494171
12.03498 1.663076 4.030628
12.46562 -0.1653143 13.95399
19.11285 0.6551017 1.714805
20.12225 1.419859 5.186333
19.56621 0.9179042 1.834018
20.20468 1.512728 5.81976
22.25723 1.104154 9.378861
22.92528 0.8494574 12.71764
20.4209 1.679747 7.099521
21.3474 1.413742 7.887986
23.30572 1.083426 16.87746
21.6838 0.6547204 10.51297
22.07125 -0.007938385 11.03663
23.0582 -0.5462883 15.82754
21.17263 0.6820401 8.820944
20.89823 0.5381081 5.633389
20.69036 0.3058322 4.562739
20.18936 -0.08602149 0.956521
11.98875 -0.3294193 8.557027
11.81503 -0.2320129 7.691564
12.26981 -0.6360653 12.90073
11.65914 0.5114188 1.603152
11.64094 -0.009470795 5.472358
11.91372 -0.07768166 11.05634
11.33029 0.5297611 8.348361
11.34997 1.441832 6.64719
12.15595 1.521098 3.168685
12.28012 0.8292096 1.408591
18.99175 0.6110473 1.697899
20.04579 1.406067 3.189504
20.12662 1.463976 4.471938
23.11648 0.5466433 17.15137
22.47777 1.241188 9.570854
22.91026 1.392931 11.56925
22.24875 0.551552 13.92889
21.10145 1.771668 6.485666
21.78197 1.036661 9.239195
23.255 0.3819943 16.90781
22.47572 -1.039164 13.44377
22.07999 -0.1847436 11.29751
21.9788 0.4003228 10.30924
22.93935 0.09068543 16.66867
21.04723 0.6545643 6.942828
20.73877 0.3773835 4.023378
20.24049 -0.06303859 1.094805
11.55597 -0.04472796 8.020614
11.8811 -0.2136475 10.16557
11.50592 0.5766377 1.77979
11.74751 -0.09978583 6.254543
11.72565 -0.002210814 9.89639
11.44714 0.2540238 8.535733
11.25628 1.146742 7.337011
12.02026 1.686103 3.680749
12.37974 0.6406991 1.435996
18.94023 0.605813 1.578819
20.07111 1.500498 2.340885
19.3655 0.808639 1.665489
20.33305 1.68358 5.778129
22.45653 1.152788 8.27849
22.12022 0.243609 15.15165
21.32071 1.468889 7.575405
20.88351 1.873903 6.360035
23.90589 1.579137 17.43831
23.64469 -0.1956707 17.37997
22.352 -0.9595454 13.02291
22.08123 -0.2291089 10.8825
22.08086 -0.2422854 10.98153
21.9768 0.4725215 9.51834
22.93191 0.3252902 16.91166
21.08887 0.6867456 6.82718
20.86256 0.5287271 4.24295
20.60211 0.2416634 2.487895
20.61912 0.2745543 2.109551
11.61663 -0.05968835 8.595288
11.38256 0.4407702 3.248516
11.54786 0.007171657 5.666949
11.38861 0.2845481 8.018307
11.29253 1.358508 6.474811
11.97309 1.735856 3.207697
11.71756 -0.5659551 14.94526
20.17663 1.671276 2.314558
19.56808 0.9974855 1.321136
22.8169 1.398469 10.31395
22.4783 1.145239 7.905796
23.10605 1.070863 12.00126
22.08541 0.1427401 14.73635
21.13364 1.770937 6.177757
22.7945 0.5410869 16.17272
23.27983 0.3093505 16.78811
22.45388 -1.06565 13.02164
22.09652 0.02683513 9.265711
22.04404 0.3356237 9.460058
23.03272 -0.852176 15.18681
21.40624 0.7553743 9.121275
21.05599 0.6720723 6.449767
20.93503 0.5917948 4.986128
20.83675 0.5380118 2.684635
20.75815 0.4513504 1.399399
11.37012 0.3080246 4.187659
11.32695 0.5556089 2.898435
11.36455 0.2950705 7.779228
11.19351 1.058948 6.648028
11.79347 1.775501 4.082003
12.11752 -0.7852636 14.60949
20.37665 1.75631 5.313731
23.00979 0.4737797 16.93576
22.63286 1.230955 7.815592
22.16402 0.989102 7.737812
22.55434 0.6461049 12.85307
21.43007 1.340235 6.767678
20.95982 1.893406 5.816616
20.48537 1.835278 5.475602
23.05715 0.7190043 16.44276
24.05698 1.19219 17.36923
22.13965 -0.7014405 11.49539
22.09276 0.2873382 8.514929
21.84096 0.6320935 9.351984
22.91189 -1.183101 14.4058
21.3824 0.8447578 6.555913
21.1283 0.7499683 5.628087
21.00953 0.6963677 3.668069
21.71234 0.6952821 9.621475
11.32495 0.4004002 3.947631
11.23661 0.830141 1.990212
11.21786 0.7113476 7.215337
11.44295 1.626969 5.317174
12.14426 1.527094 1.729052
20.38885 1.823873 4.438152
21.96163 0.9816998 8.323751
22.82592 1.381591 9.477113
23.12315 0.9889142 11.78729
22.15023 0.05871154 14.8818
21.33422 1.552231 5.9545
20.47232 1.844901 5.195744
23.38022 1.431892 16.51859
22.37929 -1.025006 12.12507
22.10732 -0.5963212 11.0508
22.11338 0.02452991 8.777549
21.77855 0.7122301 8.758554
22.95926 0.4769909 16.66914
21.28703 0.8345902 5.687352
21.16679 0.7972209 4.487833
20.94614 0.6695327 1.765313
11.26424 0.5089512 3.808969
11.35442 0.1935514 5.504819
11.16804 1.071045 6.042299
11.73044 1.822766 3.168624
20.29487 1.823066 2.482756
20.02278 1.514885 1.656086
22.91047 1.399492 10.04928
22.09103 0.9522328 7.302231
22.32083 0.4749271 12.70743
21.50795 1.232242 6.806851
21.41154 1.434413 5.58491
20.59744 1.950389 4.638267
24.12793 1.214244 17.16399
23.3791 0.03170269 16.7958
22.11931 -0.6125553 10.37183
21.92135 0.6378905 8.18877
23.09721 -0.9644653 14.69808
21.39695 0.8690596 5.830854
21.14044 0.7993554 3.460353
11.37201 0.1745535 7.100079
11.50597 0.6754086 1.09158
11.19761 0.6496934 6.477829
11.16085 0.9881175 6.10073
11.75551 1.813867 3.278628
20.39289 1.922414 2.649937
21.86961 0.9857859 8.146627
22.57385 1.149272 6.991179
22.24758 0.9510264 6.354467
22.41371 0.4993132 12.44675
21.48288 1.281432 6.03043
21.24419 1.832906 4.00552
21.71103 1.032141 7.482066
23.41065 -0.03351294 16.66243
22.31569 -0.957175 11.39609
22.1699 0.1771495 7.141342
22.04331 0.5439721 7.308712
23.08224 -0.4799318 15.26094
21.64252 0.8469145 6.791478
21.59763 0.8755379 6.035261
21.18716 0.8285318 2.32248
11.19816 0.6370263 3.84828
11.25154 0.9036276 1.168598
11.13115 0.9666071 5.103028
11.62894 1.81272 3.43699
20.45715 1.982664 2.547909
20.63768 2.026117 3.760736
22.45255 1.044738 6.439481
22.03446 0.9268501 6.613125
22.30597 0.05891243 15.11252
21.5117 1.259737 5.285906
21.31477 1.780441 3.488312
21.2726 1.86781 3.108976
22.96836 0.746236 16.01014
23.49203 -0.1869331 16.50806
22.14434 -0.6702563 10.36568
22.14107 0.375032 6.781653
21.99597 0.5864644 7.676197
23.14038 -0.7952997 14.78096
21.39236 0.8993827 3.960104
21.20612 0.8399396 2.529055
11.18005 0.6877753 3.896496
11.16351 0.7207344 4.131274
11.11882 1.144525 4.458097
11.19045 1.373765 4.666278
11.80652 1.863231 1.830162
20.69195 2.104631 2.504106
22.78533 1.226636 6.143782
22.73958 1.204405 6.166706
22.12692 0.9326969 6.559714
22.31197 0.385703 12.45171
21.55374 1.203891 5.074937
21.383 1.610916 4.081691
21.44464 1.49132 3.829812
20.81873 2.018585 4.420729
23.2638 0.3082935 16.12515
22.41734 -0.9628255 11.18897
22.20536 -0.382916 8.188247
22.04534 0.5615784 7.051294
23.1417 -0.7425777 14.75696
21.48946 0.9092113 4.141675
21.47525 0.9008557 2.515689
11.25112 0.3834571 5.974219
11.15276 1.072752 1.072919
11.11792 1.256446 3.886997
11.39614 1.728928 3.414507
20.39255 1.992542 1.380927
23.04217 1.355449 7.658456
22.42461 0.9993268 5.814876
22.03643 0.9149524 6.185653
22.44649 0.4391349 12.10053
21.75024 1.000324 6.684627
21.34453 1.811068 2.596366
21.09127 2.016401 3.221077
22.65109 0.6290526 15.48024
22.81508 -0.9206915 12.97255
22.21365 -0.655549 9.42888
22.14261 0.4458732 6.301957
23.04588 -0.4155957 15.0386
21.56931 0.9154022 3.929728
21.53712 0.8959985 2.186721
11.15482 0.7356613 5.104133
11.11498 1.04972 3.450926
11.12182 0.9599311 4.075636
11.25493 1.57117 3.906361
20.48794 2.069205 1.499096
23.23404 1.223144 10.14002
22.49241 1.010486 5.367652
21.85819 0.9500216 6.387288
22.52208 0.377883 11.61487
21.62884 1.10758 4.840439
21.42575 1.694712 2.177623
21.54283 1.292634 3.249189
23.26671 0.8622203 15.84275
22.63565 -0.9366308 11.91337
22.31537 -0.4336469 7.695951
22.12836 0.4983907 6.195827
22.78163 -1.00115 13.72031
21.77953 0.8720936 4.79676
11.10512 1.163323 2.332765
11.13537 1.405111 3.555227
20.75172 2.185532 1.710169
23.18573 1.338563 7.856716
22.4772 0.9743325 4.808838
21.97378 0.9055467 5.598985
22.35439 0.2596619 11.92661
21.74081 1.001339 5.744779
21.6007 1.178563 3.42531
23.60195 -0.2744311 16.46975
22.56924 -0.8422607 10.76861
22.34492 -0.335848 7.12211
22.27684 0.1684591 5.843532
23.10426 -0.6160527 14.60791
21.84942 0.8460945 4.719101
11.10412 1.267098 2.743347
11.29673 1.795748 2.383173
23.27159 1.303633 7.675738
22.49497 0.9518411 4.242795
23.27921 0.9623736 10.4175
22.24481 0.05698595 12.29557
21.85788 0.9431005 5.721941
21.62655 1.136266 3.670642
22.81912 0.4599135 16.0724
22.55445 -0.8335539 10.51278
22.49115 -0.4366071 7.030945
22.12872 0.5371885 5.822065
22.9206 -0.3190683 14.74003
21.81739 0.861744 3.256837
11.10981 1.456811 2.473253
11.41899 1.921049 1.793005
23.32294 1.272182 7.834951
22.86326 1.210797 4.947383
23.09957 0.7081885 10.99922
22.23604 -0.211566 13.25318
21.55356 1.406649 1.759406
22.94283 0.6019757 15.95358
22.61256 -0.7752132 10.67933
22.42965 -0.5680993 7.943005
22.28913 0.2391347 5.419739
22.75885 -0.12982 14.89559
21.87437 0.8397394 4.109275
21.6562 0.8396378 1.363385
11.4657 1.965384 1.35227
23.03341 1.302797 5.562047
23.01861 1.281916 5.016989
23.15428 0.6975834 10.6218
22.26925 -0.09066073 12.57516
21.41192 1.851823 1.681687
22.59211 0.6866577 15.15035
22.6556 -0.6545162 11.66219
22.53502 -0.5911623 7.94778
22.85338 -0.2753055 5.206967
22.11432 0.5914337 5.431731
23.00271 -0.4928882 14.4095
21.98723 0.7753292 2.770474
21.64645 0.8402397 1.264753
23.34473 0.9489082 9.780158
23.27943 1.31129 5.976132
22.78604 1.087718 3.534066
23.14739 0.6778477 10.57332
22.25569 -0.4294264 13.53205
21.33874 1.968862 1.725874
22.70111 0.7513997 15.20836
22.63607 -0.5934569 11.40705
22.65864 -0.5516904 7.696785
22.61859 -0.2368779 5.457257
22.50559 -0.08130509 5.125355
22.03774 0.7468881 3.016603
22.0801 0.716612 3.477925
23.33877 0.8631697 9.723341
23.29434 1.311272 5.762792
22.62428 0.9660276 3.2588
22.48066 0.8563967 2.634547
22.35049 0.02730036 11.59887
21.92986 0.8850358 3.724747
21.70989 1.029166 2.401669
22.62211 -0.5510374 11.8392
22.71487 -0.5986252 8.674391
22.88934 -0.3159722 5.558717
22.41089 0.172601 4.575366
22.78571 -0.7508689 14.0451
22.17498 0.6402124 1.592571
11.33997 1.996611 1.146664
23.21952 1.313631 4.688548
22.67157 0.9581981 2.736277
22.26431 0.8228709 3.133028
22.93399 0.3341724 9.937262
22.53939 -0.7351869 13.96204
21.65692 1.153917 1.696799
22.54272 -0.4108409 11.53495
22.77586 -0.5389794 8.4719
23.04147 -0.3005278 5.87999
22.57431 -0.09736347 4.872103
22.53999 0.0920125 14.80334
22.21541 0.6138932 1.894434
23.31318 0.7047507 9.52324
23.35639 1.287725 5.742264
22.58506 0.8796661 2.289137
22.43702 0.8046505 2.040565
22.37202 -0.2226958 12.3171
21.84404 0.9089633 2.262922
22.57742 -0.4112781 11.15155
22.85488 -0.4708255 7.698509
23.13149 -0.2109676 4.864813
22.69795 -0.06557231 4.189924
22.55362 0.05228895 4.213668
23.23805 0.6339256 9.798118
23.23462 1.312162 4.59727
23.02065 1.140195 2.006435
23.16674 0.5144448 9.703776
22.31775 0.07981027 14.41849
22.44542 -0.2340397 11.47004
23.06061 -0.3048589 6.277636
23.23372 -0.05352841 3.120132
22.71096 -0.0576456 4.095988
22.40692 0.4631234 1.439737
23.3368 0.667364 9.242245
23.50292 0.8400014 8.154708
23.20534 1.293054 3.782454
23.12601 1.25876 3.18123
22.7284 0.1429227 10.13679
22.49102 -0.1712546 10.99881
22.92302 -0.3477128 8.395
23.01721 -0.3391231 6.814347
23.28701 -0.03595566 3.042113
22.41781 0.3510918 3.426117
22.40876 0.465112 1.750126
22.362 0.5249912 0.9645316
23.56768 0.8028182 7.336701
23.61397 0.9995648 6.163486
22.20781 0.792749 2.42371
22.4099 -0.2690733 14.04048
22.89002 -0.1301861 9.099506
23.10038 -0.2356702 7.305347
23.56839 0.09232769 3.929361
23.38001 0.02278052 2.616648
22.71416 0.04476641 3.410194
22.44551 0.4013106 2.522432
23.57969 1.1021 5.920664
22.7023 0.9232595 1.724655
22.61592 -0.07451368 10.37149
23.15867 0.06746432 8.212871
23.45275 -0.005553501 4.553277
23.7607 0.2574128 2.361726
23.30876 0.0264294 2.376635
22.59894 0.2088447 2.925351
23.62403 0.7840875 6.669127
23.68602 0.863881 5.802169
23.25261 1.262445 2.325199
21.98917 0.8294904 1.400875
23.16955 -0.003371182 7.928427
23.33144 -0.0210856 6.441838
23.83709 0.3442201 2.250251
23.18355 0.09374052 1.803469
23.63853 0.6654942 6.524932
23.43655 1.28913 3.328888
23.1299 1.182987 1.383372
23.27701 0.3369134 8.418447
23.23555 0.08687329 7.831122
23.50764 0.09654666 5.198089
23.89653 0.4535069 2.318808
23.03934 0.07930179 2.076841
23.40196 0.378161 7.855238
23.71827 0.727194 5.674222
23.55467 1.272685 2.691036
23.33727 0.06389034 6.954436
23.59045 0.2056858 4.964782
23.97317 0.561581 1.894788
23.01317 0.1575131 1.347557
23.62563 1.237458 2.969337
23.47016 0.2187567 6.569936
23.59888 0.2805307 5.499091
23.54104 0.1543121 1.375007
23.62993 0.5736325 6.48094
22.90907 1.020875 1.18051
23.78629 0.5047085 4.2638
23.94614 0.6098967 2.441145
23.5332 0.4111643 6.923777
23.78009 1.245136 2.068664
23.69587 0.4704037 5.369974
23.90613 0.3718359 1.148447
23.84797 1.057781 3.181526
23.78658 0.6052751 4.729162
23.8714 0.7932252 3.837517
23.87122 0.7057946 3.776593
23.90654 1.039788 2.754672
23.93044 1.108923 2.197108
23.8888 1.277248 1.268225