####
#
# OBJ File Generated by Meshlab
#
####
# Object border.obj
#
# Vertices: 637
# Faces: 336
#
####
mtllib ./border.obj.mtl

vn -0.671154 0.626026 0.795929
v 30.168341 -7.712131 19.801620
vn -0.917778 0.536635 0.457622
v 30.224991 -7.538335 19.735550
vn -1.117001 0.997583 1.237162
v 30.150547 -7.703228 19.779613
vn -1.276378 0.535822 2.364402
v 29.850927 -7.999656 19.733086
vn -1.163411 0.146597 2.254134
v 29.517965 -8.101631 19.569275
vn -1.572710 0.852746 0.804199
v 30.207106 -7.550104 19.713482
vn -0.151857 0.106770 0.244743
v 30.007067 -7.851149 19.774971
vn -0.887548 -0.001524 2.331813
v 29.360149 -8.104563 19.497017
vn -2.060115 0.008417 1.553752
v 30.122824 -7.394605 19.571499
vn -0.183423 0.046799 0.337260
v 29.676508 -8.074434 19.649334
vn -2.697629 -0.017858 2.087436
v 30.111059 -7.422880 19.556053
vn -1.450912 0.630933 2.749732
v 29.842346 -7.962763 19.720093
vn -0.333940 0.022992 0.750090
v 29.446913 -8.062661 19.530069
vn -0.329470 0.128411 1.321281
v 29.189926 -8.106798 19.436646
vn -0.190983 0.132694 1.356143
v 29.006016 -8.108307 19.391090
vn -0.207311 -0.016186 0.205682
v 29.937824 -7.337382 19.366928
vn -0.453613 0.145257 1.707708
v 29.191496 -8.063711 19.432850
vn -0.269784 0.170903 1.748107
v 29.007196 -8.065248 19.387043
vn -0.036342 0.027516 0.278145
v 28.808056 -8.066019 19.359074
vn -0.146740 0.150686 1.474007
v 28.187151 -8.110002 19.301758
vn -0.902259 -0.077384 0.965860
v 29.762535 -7.266434 19.208866
vn -1.883141 0.136365 2.139567
v 29.427816 -7.278630 18.911812
vn -0.278154 0.212655 2.663001
v 27.585434 -8.110800 19.227020
vn -1.174509 -0.087110 1.262081
v 29.762814 -7.309440 19.205681
vn -0.165195 0.174881 1.636674
v 28.188061 -8.066985 19.297451
vn -0.150884 0.173969 2.501836
v 27.381886 -8.110058 19.210011
vn -0.020073 0.137709 1.359176
v 27.178606 -8.108681 19.199051
vn -0.748304 -0.054935 1.129617
v 29.096546 -7.269774 18.663120
vn -0.238937 0.000413 0.313773
v 29.268152 -7.325555 18.774086
vn -0.064372 0.056778 0.798272
v 27.479101 -8.067491 19.212914
vn 0.095543 0.382444 2.806593
v 26.556900 -8.102108 19.210918
vn -2.053490 0.317756 2.372776
v 29.591703 -7.312987 19.058247
vn -0.070831 -0.401658 -0.131603
v 33.114071 -7.729758 17.930519
vn -0.397657 0.617327 3.052502
v 27.788578 -8.067939 19.244816
vn -0.035606 0.172468 1.767683
v 27.179228 -8.065666 19.194702
vn 0.000424 0.034908 0.309265
v 26.974318 -8.063763 19.191483
vn 0.088649 0.128975 1.337296
v 26.348648 -8.100043 19.216003
vn 0.458427 0.118833 1.317869
v 25.991131 -8.099241 19.259151
vn -1.326421 0.179239 2.454174
v 28.764412 -7.209318 18.473831
vn -0.924188 -0.056910 1.412991
v 29.095638 -7.312946 18.660419
vn 0.887023 0.094434 0.404427
v 33.780704 -7.806309 18.521008
vn 0.110691 0.178582 1.768163
v 26.348385 -8.056988 19.211868
vn 0.244563 0.118087 1.285833
v 26.155350 -8.098886 19.228374
vn -1.826211 -1.694276 -0.284595
v 33.124538 -7.725855 17.840118
vn 0.307831 0.162621 1.759866
v 26.154280 -8.055804 19.224621
vn 0.551156 0.153295 1.695534
v 25.988480 -8.056143 19.256187
vn -0.203901 0.000617 0.414497
v 28.600706 -7.224066 18.386429
vn 0.174857 0.016981 0.373332
v 25.786507 -8.070024 19.327696
vn 1.261522 0.000114 2.134963
v 25.555267 -8.132714 19.464336
vn 2.019121 -1.096463 -0.751118
v 33.066010 -7.714125 17.778503
vn 0.178302 -0.518358 0.154707
v 33.761349 -7.876522 18.308060
vn -0.507674 -0.375829 -0.094530
v 33.074013 -7.648590 17.704350
vn -0.980529 -0.174046 2.503816
v 28.429790 -7.175694 18.313995
vn 1.072440 0.253566 1.563106
v 25.415562 -8.109550 19.555550
vn 2.152937 -0.974316 -0.790184
v 33.037186 -7.611821 17.558674
vn 0.596436 -0.303996 -0.220782
v 33.074013 -7.648590 17.704350
vn 0.579794 0.484177 0.206635
v 33.745148 -7.699470 18.370434
vn 0.685597 -2.334994 0.665225
v 33.837639 -7.822842 18.399994
vn -2.075327 -1.352805 -0.416160
v 33.083984 -7.637560 17.618771
vn 0.776227 0.129816 1.184742
v 25.448788 -8.075622 19.527250
vn 0.582704 0.168008 0.978892
v 25.271427 -8.050781 19.644608
vn 1.833361 -1.465465 -0.765546
v 33.003315 -7.513387 17.341839
vn 0.523331 -0.299841 -0.201258
v 33.045158 -7.538307 17.489750
vn 1.671002 1.606159 0.516094
v 33.837639 -7.822842 18.399994
vn 0.176581 -1.648982 0.386951
v 33.817421 -7.874034 18.191067
vn -0.639087 -0.251760 -0.030442
v 33.045158 -7.538307 17.489750
vn -1.158471 -0.205705 2.959293
v 28.430025 -7.218881 18.311085
vn 1.047534 0.294753 1.728578
v 25.278763 -8.011743 19.633541
vn 0.500154 0.269358 1.008589
v 25.115732 -7.952279 19.722458
vn 0.929033 1.082101 0.215643
v 33.780972 -7.744965 18.253338
vn 0.299075 -1.933227 0.503081
v 33.945923 -7.867790 18.159035
vn -0.604831 0.087152 2.692687
v 28.044744 -7.183996 18.195114
vn 0.880957 0.449481 1.742922
v 25.127981 -7.917775 19.707169
vn 0.459321 0.479460 1.009681
v 24.955652 -7.812301 19.768940
vn 1.787730 -1.433451 -0.832663
v 32.984451 -7.417326 17.129044
vn 0.516378 -0.413253 -0.225186
v 33.018955 -7.457363 17.272049
vn 1.483844 2.037237 0.211615
v 33.945923 -7.867790 18.159035
vn 0.203687 -1.039776 0.293578
v 33.868626 -7.906464 18.075691
vn -2.309279 -0.684780 0.023340
v 33.047085 -7.547721 17.404209
vn 0.754968 0.749651 1.645764
v 24.972084 -7.787490 19.749683
vn -0.689696 -0.200177 -0.040561
v 33.018955 -7.457363 17.272049
vn 0.341147 0.499806 0.035140
v 33.824047 -7.782895 18.134750
vn 0.524659 -1.327070 0.431566
v 33.994202 -7.892288 18.038773
vn -0.115858 -0.002416 0.431392
v 28.194542 -7.224822 18.230083
vn 0.173160 0.139460 0.172027
v 24.817509 -7.622289 19.741554
vn 0.481308 -0.434529 -0.227908
v 33.007980 -7.349793 17.063301
vn -2.341810 -0.671884 -0.223107
v 33.026131 -7.455425 17.190891
vn 1.560929 -1.714607 -0.762574
v 32.968407 -7.322672 16.921318
vn 0.865999 1.466106 0.094933
v 33.994202 -7.892288 18.038773
vn -0.049395 -0.011273 0.322261
v 27.635738 -7.234848 18.104889
vn -0.166847 -0.090657 1.381184
v 27.445637 -7.195386 18.084515
vn 1.528695 0.744471 0.832015
v 24.722879 -7.456047 19.693008
vn -0.714275 -0.102256 0.003105
v 33.007980 -7.349793 17.063301
vn 0.342478 -0.423790 0.175404
v 33.967331 -7.992090 17.850109
vn -0.166608 -0.115931 1.759024
v 27.444798 -7.238603 18.081577
vn 0.295421 -0.191856 2.755039
v 27.276159 -7.195456 18.095150
vn 3.225435 1.430281 1.840788
v 24.741180 -7.469275 19.671219
vn 0.024975 -0.333377 -0.126668
v 32.991699 -7.271253 16.853382
vn 0.369643 0.697540 0.042604
v 33.905056 -7.836520 17.899158
vn 1.819341 -0.277968 0.681123
v 34.036484 -7.907419 17.919659
vn 0.285875 -0.103473 1.241790
v 26.960802 -7.190204 18.143047
vn 1.524902 -0.068096 1.357104
v 24.819967 -7.375554 19.527119
vn -2.368529 -0.193130 0.111441
v 33.005058 -7.361765 16.980450
vn 0.331697 -0.215254 3.090850
v 27.274096 -7.238625 18.092365
vn 0.381943 -0.140539 1.705075
v 26.957113 -7.233303 18.140305
vn 0.811618 -0.052145 0.733275
v 24.808262 -7.346495 19.542141
vn -0.423491 -0.164291 -0.047192
v 32.990891 -7.169975 16.653048
vn 1.002006 -2.018397 -0.730579
v 32.951584 -7.139370 16.514584
vn 0.131652 -0.036856 0.429265
v 26.789543 -7.229855 18.179169
vn 0.504372 -0.112005 1.258874
v 26.601574 -7.183351 18.258617
vn 1.219306 -0.099516 1.245503
v 24.984186 -7.319640 19.349331
vn 0.947087 -0.078647 0.976598
v 24.979767 -7.280245 19.356789
vn 0.551188 -0.097896 1.222548
v 26.397915 -7.177734 18.350407
vn 0.345589 -0.671872 -0.257986
v 32.985966 -7.099072 16.450407
vn 1.058409 -1.941211 -0.818967
v 32.961819 -7.055544 16.316025
vn 0.661033 -0.143320 1.628170
v 26.599655 -7.226464 18.255550
vn 1.086041 -0.006449 2.531583
v 26.192461 -7.167660 18.435246
vn 1.337098 0.153840 2.252504
v 25.803452 -7.154331 18.629589
vn 0.231322 -0.031900 0.237846
v 25.164165 -7.280050 19.177979
vn -2.295683 0.294109 0.158701
v 32.983414 -7.186204 16.574966
vn -0.790006 0.108131 -0.002459
v 32.985966 -7.099072 16.450407
vn 0.733634 -0.117396 1.635709
v 26.397030 -7.220881 18.347351
vn 1.910350 -0.357580 1.959159
v 25.337845 -7.206884 19.021980
vn 0.275734 -0.651748 -0.248479
v 33.007332 -7.005169 16.255440
vn -2.353355 0.333045 -0.097493
v 32.988327 -7.104312 16.375515
vn 0.183400 0.011741 0.358968
v 25.990322 -7.201404 18.521877
vn 0.950344 -0.088168 1.083613
v 25.486052 -7.179410 18.878117
vn 1.150682 -0.120211 1.295698
v 25.486019 -7.222573 18.874634
vn -0.669013 0.321873 0.056019
v 33.007332 -7.005169 16.255440
vn 0.512453 -2.218864 -0.704155
v 32.979431 -6.969273 16.122023
vn 0.266822 0.008025 0.390101
v 25.681871 -7.198841 18.704800
vn 0.120732 -0.778574 -0.228611
v 33.021114 -6.939650 16.059013
vn -1.928395 1.290363 0.295103
v 32.989544 -7.014070 16.178122
vn 0.112352 -2.250352 -0.586803
v 33.022881 -6.905931 15.930041
vn -0.681165 0.390256 -0.069593
v 33.021114 -6.939650 16.059013
vn -0.206899 -0.339343 -0.173470
v 33.093758 -6.886129 15.867672
vn -2.045789 1.070999 -0.477124
v 33.030525 -6.955641 15.982766
vn 0.075475 0.000510 -1.421724
v 30.335835 -8.954241 1.293916
vn 0.080430 -0.039656 -1.305209
v 30.677715 -8.931548 1.311908
vn 0.074050 -0.026153 -1.393610
v 30.512854 -8.964654 1.303576
vn 0.057726 -0.000923 -1.321239
v 30.822275 -8.845110 1.317708
vn 0.092428 -0.031112 -1.739560
v 30.511391 -8.950732 1.303237
vn 0.112114 -0.054655 -1.830873
v 30.672836 -8.918470 1.311210
vn 0.072190 -0.024178 -1.410264
v 30.154793 -8.910120 1.284141
vn 0.021958 0.034265 -1.374196
v 30.942875 -8.724663 1.322360
vn 0.080906 -0.003697 -1.818247
v 30.814194 -8.833755 1.317347
vn 0.062531 -0.055692 -1.418190
v 29.979656 -8.834981 1.273799
vn 0.090725 -0.000724 -1.711727
v 30.337624 -8.940221 1.294016
vn 0.030379 0.041837 -1.760986
v 30.932175 -8.715440 1.322419
vn 0.068276 -0.055845 -1.470545
v 29.820366 -8.731510 1.262442
vn 0.087788 -0.031242 -1.725384
v 30.159298 -8.896611 1.284140
vn 0.030664 0.039893 -1.755550
v 31.023485 -8.582373 1.327196
vn 0.024488 0.031561 -1.395875
v 31.035843 -8.589529 1.327251
vn 0.075964 -0.067399 -1.718819
v 29.986294 -8.822282 1.273593
vn 0.217855 0.002201 -2.995473
v 29.669609 -8.609802 1.250893
vn 0.081379 -0.060284 -1.693709
v 29.828484 -8.719610 1.262367
vn 0.003571 0.004637 -0.206650
v 31.101082 -8.411003 1.332432
vn 0.050625 0.066026 -2.955100
v 31.148945 -8.288995 1.335978
vn 0.004225 0.000784 -0.061722
v 29.228809 -8.204841 1.219132
vn 0.226555 0.554088 -1.867643
v 34.405460 -7.889689 16.913456
vn 0.197332 0.089350 -0.957468
v 34.257423 -7.819626 16.911366
vn -0.033174 0.055025 -1.611240
v 31.209478 -7.971627 1.344106
vn -0.032615 0.051506 -1.490543
v 31.222918 -7.976631 1.343639
vn 0.444892 0.103923 -1.173545
v 34.053799 -7.812479 16.870037
vn 0.653053 0.053615 -1.159533
v 33.878239 -7.845946 16.799742
vn 0.049095 -0.016918 -1.540723
v 30.384418 -7.332724 0.900966
vn 0.189586 0.080802 -2.993661
v 28.905029 -7.967066 1.205045
vn -0.052776 0.068549 -1.576364
v 31.278893 -7.831111 1.347237
vn 0.430760 0.207200 -2.111112
v 34.250843 -7.830930 16.908955
vn 0.508512 0.262399 -1.173104
v 34.329182 -8.218543 16.790226
vn 0.648367 0.153873 -1.734726
v 34.053539 -7.828124 16.868553
vn 0.021673 -0.048575 -1.576591
v 30.260262 -7.228932 0.895485
vn 0.065916 0.015696 -1.546370
v 30.522371 -7.416515 0.906330
vn -0.051212 0.067073 -1.561024
v 31.266443 -7.824254 1.347952
vn -0.026663 0.052557 -1.597930
v 31.366768 -7.703167 1.350136
vn -0.003542 0.020602 -1.596463
v 31.480530 -7.596888 1.352083
vn 0.037607 0.039637 -0.145289
v 34.414036 -8.044719 16.865889
vn 0.495537 1.148428 -3.984207
v 34.392517 -7.894401 16.910488
vn 1.274196 0.234206 -2.323140
v 34.195435 -8.343481 16.706842
vn 0.869920 0.075605 -1.568414
v 33.878513 -7.863103 16.799103
vn 0.084435 -0.030868 -0.146267
v 33.722248 -7.888927 16.709900
vn 0.013839 -0.098411 -2.924434
v 29.879593 -6.674265 0.874309
vn -0.016853 -0.109752 -2.800772
v 29.772364 -6.537030 0.869225
vn 0.056594 0.003718 -1.575596
v 30.667625 -7.481122 0.911252
vn 0.051897 -0.015716 -1.599192
v 30.375912 -7.344203 0.900821
vn 0.023063 -0.046422 -1.562806
v 30.250158 -7.239120 0.895660
vn -0.027253 0.051691 -1.542617
v 31.355991 -7.694071 1.350615
vn -0.006572 0.018522 -1.585963
v 31.614166 -7.516358 1.352829
vn 1.530882 -1.346466 -2.600763
v 33.589989 -7.846429 16.609131
vn 0.797619 0.374845 -1.786563
v 34.318554 -8.207581 16.788071
vn 0.934439 -0.093570 -1.438628
v 34.036900 -8.408900 16.615677
vn 0.490208 -0.613208 -0.975574
v 33.737362 -8.342928 16.412096
vn 0.073942 0.201555 -3.021604
v 31.134285 -7.520108 0.927316
vn 0.052404 0.008540 -1.510168
v 30.975517 -7.530785 0.921848
vn 0.001375 -0.003912 -0.123637
v 30.145138 -7.113307 0.890340
vn -0.011568 -0.057028 -1.446325
v 29.646523 -6.410442 0.865001
vn 0.049712 -0.014699 -1.566437
v 30.819046 -7.521045 0.916254
vn 0.067334 0.015484 -1.593581
v 30.515768 -7.429179 0.905920
vn -0.619305 -0.449099 0.007453
v 33.306164 -6.605849 14.915965
vn 0.008162 0.002913 -0.159815
v 28.832972 -7.896623 1.202383
vn 0.034507 -0.003960 -1.566552
v 28.562328 -7.757619 1.196070
vn -0.004713 0.021708 -1.544399
v 31.471855 -7.585671 1.352247
vn -0.006274 0.018277 -1.555641
v 31.607769 -7.503643 1.353004
vn 1.298668 -1.142572 -2.209936
v 33.581192 -7.858656 16.610283
vn 0.560460 -0.738438 -1.255469
v 33.461819 -8.010822 16.089302
vn 0.933686 -1.389212 -2.196039
v 33.637012 -8.240341 16.305470
vn -0.000606 -0.015507 -0.421045
v 29.808153 -6.599025 0.871439
vn 0.024709 -0.011628 -1.435708
v 29.496012 -6.296919 0.862284
vn -0.013512 -0.067531 -1.713305
v 29.637413 -6.421351 0.865504
vn 0.055855 0.002634 -1.565536
v 30.663086 -7.494669 0.911057
vn -0.710666 0.326181 0.257155
v 33.332619 -6.688095 15.034530
vn 0.034553 -0.002947 -1.562563
v 28.568975 -7.744794 1.196184
vn -0.009432 0.021512 -1.570549
v 31.757265 -7.447088 1.353045
vn -0.009607 0.021701 -1.570421
v 31.761356 -7.460763 1.352831
vn 0.365836 -0.903934 -1.266453
v 33.470306 -7.779071 16.504900
vn 0.844178 -0.050423 -1.333740
v 34.041069 -8.391989 16.617285
vn 0.330056 -0.880491 -1.213867
v 33.484386 -7.771590 16.503302
vn 0.755818 -0.957402 -1.522402
v 33.748852 -8.331097 16.410433
vn 0.084427 -0.047799 -0.145385
v 33.883835 -8.389544 16.514997
vn 0.050149 -0.044384 -1.490141
v 31.768440 -7.418579 0.944837
vn 0.054782 0.012434 -1.595188
v 30.975058 -7.545122 0.921751
vn 0.050201 -0.013408 -1.573429
v 30.816607 -7.535155 0.916309
vn 0.027444 -0.016199 -1.705956
v 29.489372 -6.309300 0.862270
vn -0.066006 0.006137 0.052230
v 33.166248 -6.477574 14.639518
vn -1.377216 0.021212 0.988022
v 33.256737 -6.540257 14.761239
vn -1.983490 -1.213091 0.090417
v 33.311550 -6.613838 14.882115
vn 0.041426 0.041075 -1.608001
v 28.194275 -7.597790 1.190286
vn 0.123306 -0.992662 -1.287700
v 33.420998 -7.653652 16.397472
vn -0.827739 -1.944125 -2.488689
v 33.418098 -7.387758 16.180119
vn -0.642149 -0.759572 -1.182928
v 33.473244 -7.269057 16.067410
vn 0.668992 -0.595248 -1.226181
v 33.358498 -7.910397 15.981761
vn 0.002379 0.002859 -0.086021
v 31.294567 -7.513111 0.931705
vn 0.003587 0.001518 -0.150348
v 29.321613 -6.231785 0.858755
vn 0.073733 0.078184 -2.746185
v 29.138489 -6.196042 0.854178
vn 0.090468 0.096423 -3.386478
v 29.138187 -6.210088 0.853770
vn -1.347516 1.617512 1.681907
v 33.313492 -6.700951 14.997978
vn 0.039988 0.041240 -1.567547
v 28.199017 -7.584173 1.190756
vn -0.012780 -0.003358 -1.580767
v 31.913866 -7.415101 1.352529
vn -0.012802 -0.004807 -1.560675
v 31.915779 -7.429285 1.352557
vn -0.750085 -0.700554 -1.247655
v 33.559921 -7.165771 15.952340
vn 0.126723 -0.914048 -1.190003
v 33.404552 -7.656948 16.398438
vn 1.261668 -1.109831 -2.423466
v 33.116470 -7.727825 15.770571
vn 0.585052 -0.752916 -1.293496
v 33.474682 -7.999694 16.088499
vn 0.102844 -0.148829 -0.239135
v 33.599834 -8.155894 16.236242
vn 0.056063 -0.050000 -1.663070
v 31.770123 -7.432927 0.945321
vn 0.024920 0.036496 -1.748641
v 28.946011 -6.235203 0.848629
vn -0.033091 -0.010132 -1.549570
v 26.523937 -7.283382 0.817943
vn 0.031201 0.065080 -1.540387
v 28.003693 -7.537323 1.188779
vn -1.894982 -1.577209 0.336189
v 33.252876 -6.553196 14.757880
vn -0.087203 -0.195613 -0.066157
v 33.302876 -6.617019 14.880687
vn 0.029533 0.050048 0.065349
v 33.231953 -6.793362 15.105602
vn -0.023870 -0.007750 -1.527302
v 32.073299 -7.420505 1.351270
vn -0.016302 -0.113861 -0.145299
v 33.398289 -7.518725 16.291285
vn -0.647217 -0.792665 -1.220948
v 33.459759 -7.258915 16.068218
vn -0.725705 -0.687558 -1.214124
v 33.547470 -7.153738 15.953069
vn 0.692801 -0.616248 -1.271275
v 33.369892 -7.897474 15.981704
vn 0.051966 -0.058405 -1.452985
v 32.090172 -7.395275 0.955254
vn 0.019357 0.028653 -1.394463
v 28.943117 -6.221373 0.848873
vn -0.026121 0.000070 -1.562685
v 26.730749 -7.330810 0.814593
vn -0.040555 0.015457 -1.450361
v 25.582001 -6.915980 0.839171
vn -0.036431 0.085507 -1.447579
v 28.399122 -6.518991 0.833086
vn 0.026972 0.055508 -1.516840
v 27.808378 -7.494256 1.186970
vn 0.029631 0.241167 -2.978983
v 27.410660 -7.440581 1.186754
vn -0.143982 1.479754 1.468090
v 33.300831 -6.694160 14.998499
vn 0.000000 0.000000 0.000000
v 33.300831 -6.694160 14.998499
vn 0.067739 -1.008271 -1.376622
v 32.922302 -7.339451 15.450963
vn 0.032186 0.067099 -1.597758
v 28.007450 -7.523408 1.189443
vn -0.024574 -0.008016 -1.614838
v 32.073822 -7.406351 1.351190
vn -0.898474 -1.599536 -2.253607
v 33.850967 -6.856058 15.604051
vn -0.717337 -1.684454 -2.161963
v 33.402855 -7.381807 16.180540
vn -0.050673 -0.071513 -0.107678
v 33.759403 -6.968788 15.721807
vn 0.061225 -0.148979 -0.230686
v 33.010128 -7.612949 15.663309
vn 0.323474 -1.610775 -2.191231
v 32.939190 -7.482979 15.557296
vn 1.369509 -1.204791 -2.628695
v 33.128300 -7.715702 15.771178
vn 0.059841 -0.068245 -1.677571
v 32.090172 -7.409704 0.955834
vn 0.003149 0.077886 -1.722700
v 28.752003 -6.298125 0.844643
vn -0.005883 0.003461 -1.574046
v 27.580978 -7.238460 0.808796
vn -0.137284 -0.167654 -2.970640
v 25.761009 -6.979252 0.833467
vn -0.033647 -0.009955 -1.590236
v 26.520195 -7.297313 0.818114
vn -0.003231 -0.002610 -0.106700
v 26.319248 -7.232901 0.821984
vn -0.017266 -0.022251 -1.600473
v 26.946140 -7.359974 0.812491
vn -0.017989 0.101336 -1.388722
v 28.560825 -6.385088 0.840798
vn 0.001885 0.065485 -1.416546
v 28.746359 -6.285135 0.845236
vn -0.007378 0.019316 -1.552040
v 27.009727 -7.427336 1.189089
vn 0.342813 2.364891 -0.724047
v 32.477283 -6.395673 13.524096
vn -0.566307 -2.693866 -1.289114
v 33.279617 -6.555466 14.729344
vn -0.769708 -0.458383 -0.275725
v 33.307606 -6.624125 14.850310
vn -0.024590 0.066235 -1.537001
v 32.229782 -7.432996 1.348239
vn -0.025549 0.064645 -1.599020
v 32.233379 -7.419501 1.348763
vn 0.092228 -0.179197 -2.914198
v 32.572124 -7.437079 0.972770
vn -0.010056 -0.020759 -1.581130
v 27.376678 -7.316723 0.809187
vn 0.018471 0.004508 -1.571469
v 27.772141 -7.130240 0.811269
vn -0.025964 -0.000842 -1.576477
v 26.728378 -7.344995 0.814632
vn -0.010249 -0.040939 -1.611037
v 27.163612 -7.359178 0.810925
vn -0.051587 0.010457 -1.763750
v 25.578106 -6.929859 0.839132
vn -0.042798 0.103313 -1.733191
v 28.408520 -6.529817 0.832210
vn 0.031621 0.005623 -1.549922
v 27.947166 -6.995696 0.815269
vn -0.016419 0.017172 -1.594140
v 26.610176 -7.453537 1.192945
vn 0.027860 0.059108 -1.579717
v 27.811211 -7.480111 1.187538
vn 0.135656 1.317147 -0.219014
v 32.627346 -6.390787 13.606306
vn 0.332192 1.337379 -0.256422
v 32.697239 -6.379584 13.730176
vn 0.652275 1.463174 -0.473246
v 32.745331 -6.365870 13.881154
vn 1.920678 2.135048 -1.174510
v 32.931213 -6.353451 14.203803
vn -1.595986 1.161821 0.476117
v 33.283649 -6.704895 14.967099
vn -0.374165 -0.766051 -1.255493
v 33.014229 -7.061113 15.245938
vn -0.019330 -0.103414 -0.154133
v 32.950756 -7.194861 15.346462
vn 0.008492 0.122452 -1.491050
v 32.379585 -7.467650 1.344349
vn -0.254656 -1.720872 -2.142216
v 33.959240 -6.597600 15.382267
vn -0.021634 0.125479 -1.744225
v 28.568670 -6.396961 0.839830
vn -0.004857 0.003489 -1.567445
v 27.586987 -7.251441 0.808745
vn -0.009751 -0.019487 -1.559862
v 27.380516 -7.330464 0.809343
vn -0.016329 -0.022164 -1.540329
v 26.945587 -7.374290 0.812696
vn -0.105521 -0.092172 -2.843049
v 25.210371 -6.853370 0.850235
vn -0.008661 -0.005798 -0.245774
v 25.300030 -6.872301 0.847521
vn 0.030593 0.006816 -1.547924
v 27.956429 -7.006716 0.815418
vn -0.029665 0.021211 -1.544901
v 26.413147 -7.482009 1.196279
vn 0.000999 0.010535 -0.169858
v 27.317484 -7.416731 1.187758
vn 0.023732 0.123963 -1.572839
v 32.643887 -7.841055 1.316573
vn 0.205265 1.901549 -0.347588
v 32.616997 -6.388491 13.613704
vn 0.298900 2.292028 -1.027254
v 32.378906 -6.331964 13.635840
vn 1.307945 0.824575 -0.821228
v 33.029072 -6.376967 14.341609
vn 1.312373 0.405135 -0.998974
v 33.128426 -6.419153 14.466428
vn 1.434612 0.122274 -0.895674
v 33.234146 -6.475154 14.586608
vn 1.547391 -1.268812 -0.928984
v 33.310318 -6.544838 14.704231
vn -1.829185 -1.241081 -0.736834
v 33.321049 -6.628072 14.821393
vn 0.077481 -0.911846 -1.244368
v 32.939144 -7.343191 15.454531
vn -0.395943 -0.792540 -1.305439
v 33.029003 -7.069006 15.246351
vn 0.011646 0.138825 -1.639911
v 32.372753 -7.479752 1.343276
vn -0.044913 -0.172774 -0.223445
v 33.909061 -6.710252 15.478727
vn -0.989341 -1.761303 -2.481448
v 33.836075 -6.847531 15.603936
vn -0.009729 -0.038067 -1.529419
v 27.165184 -7.373384 0.811276
vn 0.019013 0.004553 -1.569940
v 27.780001 -7.142228 0.811327
vn -0.016951 0.017269 -1.583348
v 26.608376 -7.439198 1.193118
vn -0.007702 0.019583 -1.578272
v 27.009499 -7.412880 1.189270
vn -0.003342 0.115842 -1.602376
v 32.580254 -7.699407 1.327208
vn 0.060887 0.144742 -1.616078
v 32.685284 -7.993028 1.304869
vn 0.098129 0.709388 -0.263097
v 32.380215 -6.380277 13.528424
vn 0.398075 1.654685 -0.314997
v 32.683052 -6.375060 13.735392
vn 0.563057 1.304831 -0.409602
v 32.730915 -6.358357 13.884513
vn 0.085642 0.135573 -0.059037
v 32.816723 -6.343706 14.048080
vn 1.027326 0.675017 -0.641774
v 33.022739 -6.362891 14.345656
vn -1.071924 -1.924292 -2.344332
v 33.279152 -6.722405 14.935181
vn -0.608626 -0.655310 -1.287220
v 33.197464 -6.825385 15.042674
vn 0.014278 0.130181 -1.644679
v 32.489723 -7.573764 1.336187
vn 0.012791 0.118413 -1.489750
v 32.499496 -7.563895 1.337053
vn 0.046273 -0.203034 -0.264453
v 33.949753 -6.460385 15.273168
vn 0.007143 -0.018067 -0.248316
v 32.669983 -7.464904 0.977578
vn 0.060562 -0.300231 -2.899821
v 33.039436 -7.556758 0.994804
vn 0.101904 1.901170 -0.268945
v 22.063757 -5.783099 13.514346
vn 0.032033 0.864578 0.273833
v 22.017838 -5.781856 13.797825
vn -0.058036 -0.020515 -1.425647
v 25.030027 -6.854786 0.857236
vn -0.070086 -0.026692 -1.730413
v 25.031719 -6.868954 0.857371
vn -0.060960 -0.012031 -1.368603
v 24.858259 -6.886162 0.864772
vn -0.051716 -0.165489 -2.856370
v 24.551664 -7.050172 0.879888
vn -0.026103 0.000582 -1.536865
v 26.219391 -7.527163 1.199748
vn -0.030481 0.020946 -1.595740
v 26.410419 -7.467834 1.196526
vn 0.021987 0.122255 -1.558526
v 32.657230 -7.836022 1.317171
vn 0.057142 0.139669 -1.570147
v 32.699245 -7.989723 1.305691
vn 1.849440 2.063774 -1.153848
v 32.920624 -6.341689 14.207868
vn 1.112063 0.365906 -0.837130
v 33.126503 -6.403322 14.470322
vn 1.208507 0.119415 -0.764561
v 33.235336 -6.458995 14.590720
vn 1.195449 -0.286172 -0.365152
v 33.314724 -6.532098 14.707897
vn 0.083964 -0.022272 -0.023513
v 33.321049 -6.628072 14.821393
vn -0.959877 -1.724895 -2.081723
v 33.292122 -6.728849 14.934540
vn -0.618659 -0.683970 -1.318970
v 33.211140 -6.835871 15.041546
vn 0.968872 -1.399440 -1.922482
v 33.932137 -6.323165 15.164403
vn 0.116362 1.389430 0.123563
v 22.045616 -5.774060 13.654302
vn -0.005706 -0.010390 -0.229240
v 24.646708 -6.998682 0.875184
vn -0.024630 -0.025143 -1.540507
v 26.029762 -7.588126 1.204011
vn 0.000725 -0.103368 -1.601998
v 25.215454 -8.130821 1.240748
vn -0.002249 0.111163 -1.529363
v 32.592304 -7.692074 1.327713
vn -0.004487 0.158322 -1.619068
v 32.772453 -8.461535 1.266192
vn 0.860925 2.261121 -1.450987
v 32.583912 -6.220767 13.933393
vn 0.070593 0.337599 -0.171845
v 32.470306 -6.286979 13.762806
vn 1.310386 -1.114166 -2.041632
v 33.856270 -6.209320 15.052967
vn 0.005319 -0.027818 -0.267965
v 33.182922 -7.629423 1.005324
vn -0.356794 0.350921 -0.082304
v 21.994556 -5.798253 13.381002
vn 0.101962 2.158846 0.576561
v 21.933189 -5.776896 13.792067
vn -0.407887 0.301580 -0.032066
v 21.891197 -5.819025 13.929994
vn -0.079543 -0.016220 -1.792868
v 24.862305 -6.899837 0.864712
vn -0.007299 -0.012104 -0.251565
v 24.431583 -7.168160 0.888898
vn -0.110091 -0.119621 -2.946451
v 24.305435 -7.275150 0.897955
vn -0.027173 -0.000593 -1.604092
v 26.215580 -7.513249 1.199818
vn -0.033094 -0.035375 -1.554956
v 25.845127 -7.664031 1.209728
vn -0.012791 -0.092253 -1.520239
v 25.088345 -8.271370 1.250216
vn -0.013758 -0.075091 -1.529811
v 25.505356 -7.871061 1.223859
vn -0.005108 0.141710 -1.446905
v 32.758797 -8.465754 1.265827
vn 0.826080 -0.401014 -1.067072
v 33.750465 -6.121747 14.940825
vn 0.298814 -0.345371 -0.531059
v 33.889107 -6.287237 15.116564
vn 1.803517 0.383537 -2.115173
v 33.363380 -6.044035 14.604104
vn 1.507736 0.219124 -1.662385
v 33.496052 -6.041708 14.717656
vn 0.050700 -0.287625 -2.760128
v 33.331306 -7.691342 1.014502
vn 0.139597 1.896614 0.021624
v 21.971889 -5.764215 13.613028
vn -0.050738 -0.062044 -1.501485
v 23.988377 -7.647468 0.924875
vn -0.025961 -0.026576 -1.600033
v 26.024773 -7.574600 1.203870
vn -0.033858 -0.046938 -1.553146
v 25.669107 -7.757475 1.216483
vn 0.000040 -0.101143 -1.572031
v 25.205076 -8.120820 1.240098
vn -0.013799 -0.077777 -1.572989
v 25.496761 -7.859524 1.223370
vn -0.056486 0.150859 -1.747013
v 32.822666 -8.608980 1.251574
vn 1.084700 1.418586 -1.469281
v 32.705551 -6.185703 14.052249
vn 1.047108 -0.539880 -1.375626
v 33.742611 -6.136569 14.940315
vn 1.943094 0.501662 -2.458076
v 32.984047 -6.156182 14.264939
vn 0.131726 0.029389 -0.155657
v 33.238033 -6.086395 14.489545
vn -1.814023 -1.011710 -0.009910
v 22.015163 -5.836667 13.530570
vn -1.257943 -1.101417 -0.360535
v 22.007988 -5.819555 13.661407
vn -1.271856 -0.941165 -0.212004
v 21.975452 -5.766263 13.612124
vn -1.594321 -0.698560 -0.606558
v 21.933189 -5.776896 13.792067
vn -1.092016 -0.357016 -0.441514
v 21.957012 -5.846163 13.789155
vn -0.054002 -0.065792 -1.593015
v 23.997982 -7.658130 0.924991
vn -0.033774 -0.036599 -1.585159
v 25.838896 -7.651037 1.209565
vn -0.013332 -0.094537 -1.559682
v 25.077347 -8.262001 1.249740
vn -0.027789 -0.081126 -1.470158
v 24.657370 -8.847730 1.290000
vn -0.033660 -0.049285 -1.586130
v 25.661654 -7.745150 1.216273
vn -0.046877 0.118512 -1.382553
v 32.809933 -8.615358 1.251459
vn 0.128161 -0.017212 -0.152054
v 33.624367 -6.082896 14.828605
vn 0.027373 -0.320284 -2.852876
v 33.577118 -7.897278 1.040036
vn -0.051983 -0.069481 -1.555606
v 23.878082 -7.761062 0.933296
vn -0.052809 -0.070959 -1.581397
v 23.870159 -7.749193 0.933028
vn 0.440814 -0.447907 -3.949713
v 21.395527 -7.576778 16.764645
vn -0.055226 0.110469 -1.369968
v 32.894020 -8.749840 1.237196
vn -0.070388 0.142393 -1.760257
v 32.905239 -8.741193 1.237441
vn 0.400054 0.598832 -0.560871
v 32.698090 -6.200951 14.032019
vn 1.813482 0.468210 -2.294868
v 32.988007 -6.172711 14.264696
vn 0.636216 0.100187 -0.709530
v 33.481472 -6.057574 14.702341
vn 0.005427 -0.035389 -0.333448
v 33.382130 -7.739769 1.020482
vn 0.357867 0.459231 -3.350208
v 21.230366 -7.869840 16.740700
vn 0.348622 -0.147070 -1.215228
v 21.104992 -7.393456 16.663948
vn -0.034606 -0.095473 -1.749892
v 24.646524 -8.838234 1.289681
vn -0.095775 -0.127110 -2.845239
v 24.540707 -8.971935 1.299216
vn -0.109305 0.102779 -1.765081
v 33.014095 -8.854453 1.223920
vn 0.104197 0.075433 -0.139345
v 32.850353 -6.186996 14.157901
vn -0.068604 -0.028032 -1.545252
v 23.738197 -7.834622 0.941268
vn -0.071855 -0.026276 -1.594006
v 23.732571 -7.821603 0.941307
vn 0.031971 -0.025956 -0.153267
v 21.294991 -7.468141 16.727493
vn 0.012529 0.006514 -0.161944
v 21.375740 -7.730271 16.765909
vn 0.271665 0.369534 -1.580375
v 21.044209 -7.951396 16.702251
vn 0.255765 -0.364773 -1.116918
v 20.941195 -7.282223 16.593290
vn -0.047664 0.927635 -2.386142
v 20.738674 -8.196182 16.595602
vn -0.086900 0.078625 -1.378069
v 33.004948 -8.865141 1.223887
vn 0.025510 -0.134979 -1.348216
v 33.764275 -8.155348 1.069886
vn 0.003055 -0.027815 -0.254841
v 33.638493 -7.983199 1.050271
vn -0.074889 0.019173 -1.564591
v 23.582655 -7.866895 0.949219
vn 0.229252 -0.231958 -2.058231
v 21.409903 -7.572215 16.765732
vn 0.273514 0.355565 -2.687958
v 21.241272 -7.881359 16.740286
vn 0.246094 0.333256 -1.446423
v 21.055283 -7.964528 16.701084
vn 0.506463 -0.228454 -1.778416
v 21.114868 -7.380779 16.665247
vn -0.068530 0.006424 -1.559903
v 23.427464 -7.887269 0.956280
vn -0.075036 0.016719 -1.572841
v 23.585682 -7.880777 0.948904
vn 0.398791 -0.605664 -1.800002
v 20.953384 -7.272859 16.593023
vn -0.446180 -1.341417 -2.197900
v 20.799042 -6.981201 16.422245
vn 0.004360 0.139904 -0.384898
v 20.837116 -8.094339 16.633228
vn -0.008027 -0.011098 -0.245794
v 24.463165 -9.026011 1.304242
vn 0.032325 -0.180987 -1.800256
v 33.751244 -8.161047 1.070210
vn -0.001008 -0.150051 -1.381556
v 33.813560 -8.306341 1.085945
vn -0.013276 -0.154564 -1.383758
v 33.832516 -8.465260 1.103382
vn -0.069675 0.007224 -1.577977
v 23.427906 -7.901495 0.956202
vn 0.016247 -0.576220 -0.947494
v 20.827320 -7.144874 16.513027
vn -0.704252 -0.845679 -1.405105
v 20.839186 -6.826149 16.322693
vn -1.146966 0.141594 -1.582162
v 20.953156 -8.793098 16.249641
vn -0.039185 -0.062227 -1.332679
v 24.274769 -9.172490 1.316621
vn -0.334954 -0.280431 -2.698344
v 33.283985 -9.019123 1.200279
vn -0.031841 -0.018414 -0.293425
v 33.165688 -8.957016 1.208509
vn -0.002047 -0.189350 -1.740889
v 33.799728 -8.309443 1.086292
vn -0.070077 -0.012740 -1.529617
v 23.269848 -7.893685 0.963178
vn -0.074918 -0.014853 -1.631106
v 23.271786 -7.879520 0.962960
vn -0.015136 -1.149310 -1.889071
v 20.842596 -7.141643 16.511324
vn -0.906410 0.947386 -2.367827
v 20.726698 -8.558480 16.445484
vn -0.080104 0.164422 -0.417165
v 20.705679 -8.392445 16.519962
vn -0.028896 -0.082610 -1.308380
v 24.126307 -9.228295 1.323677
vn -0.053260 -0.087017 -1.832994
v 24.268946 -9.159657 1.316193
vn -0.083064 -0.332136 -1.342359
v 33.442013 -9.044004 1.185171
vn 0.057485 -0.164150 -1.368327
v 33.823891 -8.624746 1.122880
vn -0.544236 -0.737265 -1.221765
v 20.849623 -6.839860 16.325714
vn -1.663658 -0.195491 -2.093861
v 21.098660 -8.833154 16.140938
vn -0.125273 0.079941 -0.259044
v 20.825363 -8.701536 16.350477
vn -0.833309 -0.412789 -1.086932
v 21.243244 -8.819989 16.029123
vn -0.629742 -1.642085 -2.192879
v 21.504932 -8.511154 15.683672
vn -0.187094 -0.869041 -1.144811
v 21.538166 -8.218432 15.457054
vn -0.261892 -0.917895 -1.143460
v 21.562546 -8.080589 15.347599
vn -0.039343 -0.049739 -1.372159
v 23.967178 -9.233163 1.328030
vn -0.122858 -0.418854 -1.799836
v 33.440552 -9.031239 1.182103
vn -0.012185 -0.194792 -1.737478
v 33.818352 -8.465637 1.103560
vn -0.660125 1.483830 -1.857098
v 21.499229 -6.922503 15.628288
vn -1.548539 1.045149 -2.116540
v 21.312866 -6.720431 15.865328
vn -0.100102 -0.035707 -0.134213
v 20.936825 -6.728051 16.214714
vn -0.782010 0.061549 -1.061181
v 20.966324 -8.780796 16.241196
vn -0.598380 -1.063154 -1.410672
v 21.453686 -8.648018 15.799366
vn -0.030870 -0.013727 -1.367235
v 23.809776 -9.194516 1.330827
vn -0.040923 -0.112992 -1.826834
v 24.123655 -9.214586 1.322870
vn 0.118641 -0.413544 -1.843803
v 33.582912 -9.004177 1.166598
vn 0.086020 -0.272068 -1.219213
v 33.589046 -9.015547 1.169568
vn 0.084893 -0.227773 -1.868005
v 33.809971 -8.622627 1.122041
vn 0.196320 -0.370265 -2.687580
v 33.782566 -8.777806 1.141418
vn -0.833656 0.351030 -0.931567
v 21.185894 -6.664133 15.985443
vn -0.859129 0.128266 -0.814868
v 21.052963 -6.657176 16.103424
vn -1.085255 -0.484594 -1.409140
v 21.236767 -8.805634 16.028637
vn -0.084339 -0.083445 -0.144253
v 21.356030 -8.745789 15.914475
vn -0.229683 -1.018814 -1.343224
v 21.521303 -8.214824 15.457071
vn -0.285144 -1.013449 -1.266596
v 21.546310 -8.075249 15.347031
vn -0.071115 -0.093981 -0.143499
v 21.593613 -7.953413 15.238395
vn -0.440198 0.012089 -0.766097
v 22.178055 -6.595921 13.582637
vn -0.059044 -0.057616 -1.338895
v 23.550142 -9.011806 1.333973
vn -0.039275 -0.037824 -1.331006
v 23.666508 -9.119780 1.333204
vn -0.050076 -0.061713 -1.764821
v 23.968258 -9.219341 1.327498
vn -0.004315 -0.000010 -0.103290
v 23.065557 -7.837974 0.972054
vn -0.103499 0.051027 -3.043469
v 22.827438 -7.715149 0.982211
vn -0.689272 1.851731 -2.220231
v 21.668098 -7.282179 15.276957
vn -0.074266 0.088298 -0.137790
v 21.416990 -6.811447 15.746255
vn -1.173933 0.507121 -1.323125
v 21.180199 -6.679919 15.984591
vn -1.404300 0.225935 -1.342072
v 21.052135 -6.672982 16.101809
vn -0.427532 -0.801543 -1.064673
v 21.442146 -8.633283 15.793156
vn -1.883323 -1.128897 -2.379422
v 21.680687 -7.873002 15.129425
vn 0.149578 0.498270 -0.225390
v 22.355162 -6.649858 13.580934
vn -0.113733 -0.102821 -2.857523
v 23.473499 -8.873449 1.331936
vn -0.040621 -0.019374 -1.772849
v 23.814655 -9.181484 1.330586
vn 0.021135 -0.047281 -0.292149
v 33.695034 -8.906993 1.152822
vn -2.828619 1.323908 1.204139
v 22.250450 -6.742971 13.621807
vn -0.162566 0.368197 -0.459924
v 21.493923 -6.946344 15.611125
vn -1.798740 1.214000 -2.455086
v 21.303543 -6.734376 15.865263
vn -1.663402 -0.996977 -2.104879
v 21.672663 -7.860385 15.129790
vn -0.019321 -0.107413 -0.027910
v 21.807976 -7.828935 15.045748
vn -0.970851 2.725512 -0.144286
v 22.265911 -6.645484 13.531373
vn -0.937737 -0.707532 -0.923033
v 22.265911 -6.645484 13.531373
vn -0.080974 -0.078611 -1.849940
v 23.561031 -9.002980 1.333113
vn -0.054705 -0.052733 -1.810354
v 23.674728 -9.108574 1.332643
vn -0.004017 -0.000089 -0.089687
v 22.677933 -7.655398 0.988297
vn -0.205761 -0.104536 -2.964256
v 22.261738 -7.411790 1.007020
vn -0.954659 -0.063439 -1.113522
v 21.779135 -7.803666 15.020700
vn 0.019381 0.241973 0.006967
v 22.391211 -6.659544 13.557297
vn -0.974866 1.270753 0.468546
v 22.260609 -6.648089 13.522766
vn 0.005804 -0.042741 -1.618026
v 23.227671 -8.114788 1.313098
vn 0.093489 -0.052883 -3.077716
v 23.348352 -8.406476 1.320724
vn -0.005012 -0.005254 -0.154490
v 23.424091 -8.721640 1.328440
vn -0.240452 -3.020643 -0.789402
v 22.076073 -7.819684 14.824548
vn 0.000883 -0.140795 -0.036975
v 22.216324 -7.790396 14.716373
vn -0.139836 -0.099199 -0.056846
v 22.272015 -6.884485 13.771942
vn -0.549880 0.903258 -1.172088
v 21.819365 -7.494693 15.040628
vn -0.747046 0.775293 -1.138986
v 21.913069 -7.572307 14.922899
vn -1.088244 -0.038254 -1.261600
v 21.781429 -7.819687 15.019207
vn -0.524421 -1.530200 -2.152464
v 22.553120 -7.543571 14.366853
vn -2.021013 1.412483 1.406567
v 22.240591 -6.750338 13.615148
vn 0.001637 -0.002608 -0.114718
v 23.328495 -8.293407 1.318178
vn -0.223884 -0.113729 -3.225124
v 22.255501 -7.424779 1.007911
vn -0.055867 0.126181 -0.155001
v 21.686283 -7.352808 15.212405
vn -2.242884 0.418368 -2.307992
v 22.014778 -7.614638 14.804983
vn -2.502643 -2.585323 -3.408294
v 22.048958 -7.808136 14.798876
vn -1.223880 -1.189039 -2.122855
v 22.327393 -7.744876 14.582218
vn 0.983538 -1.290750 -1.374591
v 22.633663 -7.262652 14.146723
vn 1.116929 -1.598631 -1.856495
v 22.536518 -6.874390 13.764731
vn 0.885217 -1.612112 -1.905193
v 22.500011 -6.770769 13.656694
vn 0.283821 2.765583 0.126764
v 22.298466 -6.650649 13.506365
vn -1.518723 -1.804479 -1.716066
v 22.240591 -6.750338 13.615148
vn -0.672556 -0.982930 -1.389846
v 22.263050 -6.646229 13.520976
vn 0.007714 -0.039430 -1.541954
v 23.239723 -8.107208 1.312941
vn 0.045830 -0.018967 -1.621175
v 23.136806 -7.987322 1.308629
vn -0.424438 -2.605285 -1.110818
v 22.057026 -7.814961 14.806109
vn -0.019245 -0.059407 -0.034589
v 22.190722 -7.790808 14.690239
vn -1.669526 -2.000629 -2.128765
v 22.273827 -6.760954 13.596897
vn -0.136037 -0.115621 -1.684737
v 21.963398 -7.298902 1.024797
vn -0.116577 -0.100176 -1.439644
v 21.967808 -7.285294 1.023493
vn -0.565189 0.901999 -1.178225
v 21.806019 -7.505217 15.038779
vn -0.765515 0.744368 -1.136832
v 21.903294 -7.584501 14.921010
vn -0.119689 0.002011 -0.145421
v 21.909304 -7.807508 14.908534
vn -0.080519 -0.182002 -0.269569
v 22.477064 -7.607184 14.430606
vn 0.010041 -0.158768 -0.203395
v 22.600115 -7.407225 14.258474
vn 1.391210 -1.640112 -2.060217
v 22.603872 -7.122079 14.013241
vn 0.610497 -0.367457 -1.106118
v 22.417255 -6.678165 13.543555
vn 1.835063 -1.587785 -1.833246
v 22.443604 -7.110679 14.003953
vn -1.980582 0.369517 -2.040582
v 22.012630 -7.628476 14.804562
vn -1.535748 -1.489503 -2.643472
v 22.317532 -7.731832 14.580597
vn -0.101620 -0.036535 -0.140540
v 22.186037 -7.775608 14.689972
vn 0.075039 -0.098124 -0.118062
v 22.559965 -6.990860 13.879130
vn 0.748628 -0.878336 -1.517790
v 22.409698 -6.689769 13.546192
vn 0.447429 2.290624 0.265641
v 22.338783 -6.657290 13.495723
vn 0.173445 -0.898214 -1.820170
v 22.338783 -6.657290 13.495723
vn 0.044718 -0.016000 -1.520586
v 23.147022 -7.977595 1.308804
vn 0.077124 0.013271 -1.623952
v 23.023075 -7.884663 1.303677
vn 0.914311 -1.040740 -0.926948
v 22.484200 -7.206860 14.130525
vn 0.638826 -1.893431 -2.020585
v 22.318451 -6.770156 13.585322
vn 0.807004 -0.772419 -0.865773
v 22.334625 -6.921983 13.733745
vn -0.120849 -0.116999 -1.640098
v 21.654320 -7.223151 1.044554
vn -0.105391 -0.031282 -0.137031
v 22.131256 -7.628436 14.691650
vn -0.767947 -0.692851 -1.238320
v 22.246277 -7.562093 14.583200
vn -1.954438 0.137694 -2.453878
v 22.048584 -7.791471 14.800109
vn 0.464442 -0.604235 -0.652396
v 22.619259 -7.256516 14.130655
vn 0.245588 -0.389550 -0.456028
v 22.513968 -6.853995 13.733602
vn 0.884235 -0.593287 -1.704141
v 22.338894 -6.668840 13.499535
vn -0.053639 -2.424576 -2.113361
v 22.444073 -7.396780 14.367120
vn 0.777632 -0.877900 -0.787986
v 22.497860 -7.197380 14.133355
vn -0.552871 -0.867725 -1.284121
v 22.358622 -7.482147 14.477305
vn 0.071322 0.011858 -1.514179
v 23.030888 -7.872922 1.304144
vn 0.064094 0.003852 -1.564533
v 22.885221 -7.817904 1.298312
vn 0.056477 -0.132951 -0.117390
v 22.504456 -7.299969 14.255044
vn 0.953576 -0.919853 -1.029844
v 22.345600 -6.914026 13.736876
vn 0.070171 -0.064045 -0.072776
v 22.410692 -7.034353 13.904902
vn -0.105813 -0.102796 -1.440018
v 21.655418 -7.208970 1.043461
vn -0.710611 -0.661201 -1.167234
v 22.256426 -7.575678 14.584507
vn 0.728391 -2.309525 -2.384069
v 22.321705 -6.771249 13.587375
vn 0.076124 0.088280 -1.503702
v 22.284246 -7.853351 1.262939
vn 0.257153 0.031186 -3.044888
v 22.148136 -7.933489 1.251454
vn 0.099809 0.252236 -2.891386
v 21.742643 -8.189836 1.213917
vn 0.083307 0.097565 -1.590206
v 22.426664 -7.794978 1.273546
vn 0.085156 0.043038 -1.605000
v 22.578609 -7.772951 1.283345
vn 0.066469 -0.007807 -1.565050
v 22.733616 -7.782263 1.291786
vn -0.103130 -0.081051 -1.381376
v 21.496357 -7.201230 1.054778
vn -0.175840 -0.218234 -2.804345
v 21.188717 -7.283678 1.081999
vn -0.047938 -2.180647 -1.902552
v 22.457943 -7.399123 14.369456
vn -0.474014 -0.804351 -1.152069
v 22.371023 -7.491981 14.478611
vn -0.132344 -0.105231 -1.774088
v 21.497486 -7.215415 1.055526
vn 0.064578 0.003211 -1.573091
v 22.890263 -7.804727 1.298551
vn -0.085583 -0.101499 -1.411178
v 21.048065 -7.361575 1.096928
vn 0.082627 0.090835 -1.594156
v 22.278423 -7.840273 1.263412
vn 0.080607 0.094350 -1.541727
v 22.422976 -7.781251 1.274195
vn 0.007258 0.012544 -0.168985
v 21.873806 -8.096122 1.226620
vn 0.081259 0.044231 -1.532685
v 22.577648 -7.758855 1.283672
vn 0.067782 -0.005018 -1.573777
v 22.735682 -7.768281 1.291804
vn -0.100687 -0.082672 -1.339714
v 20.930273 -7.465799 1.111817
vn -0.017475 -0.019592 -0.266936
v 21.276266 -7.259527 1.074630
vn -0.105961 -0.126068 -1.743238
v 21.056728 -7.372703 1.097203
vn -0.068989 -0.100567 -1.340726
v 20.848087 -7.600276 1.125912
vn -0.133120 -0.111289 -1.788588
v 20.941153 -7.474723 1.111550
vn 0.008022 0.001507 -0.151507
v 21.524101 -8.277804 1.198699
vn -0.094192 -0.133081 -1.789850
v 20.860743 -7.606305 1.125713
vn -0.051580 -0.107772 -1.377625
v 20.799814 -7.753360 1.139677
vn 0.115853 -0.169077 -1.365374
v 21.289637 -8.349889 1.187731
vn -0.066799 -0.136762 -1.751760
v 20.813551 -7.756202 1.139385
vn -0.159718 -0.134373 -1.760049
v 20.797623 -7.913170 1.152261
vn 0.148492 -0.224534 -1.765335
v 21.288258 -8.336185 1.185917
vn -0.127051 -0.103594 -1.358634
v 20.783741 -7.913404 1.153577
vn 0.084358 -0.244445 -1.231447
v 21.127703 -8.358918 1.179431
vn -0.210847 -0.136605 -1.313294
v 20.806215 -8.070826 1.164438
vn -0.279315 -0.182329 -1.776147
v 20.819035 -8.067223 1.162005
vn 0.120139 -0.369729 -1.847021
v 21.130150 -8.345852 1.177005
vn -0.009636 -0.278550 -1.182312
v 20.982021 -8.321326 1.172434
vn -0.247679 -0.307078 -1.761405
v 20.883846 -8.208376 1.166282
vn -0.181650 -0.231354 -1.300984
v 20.873585 -8.216048 1.169079
vn -0.026503 -0.437373 -1.877335
v 20.988676 -8.310096 1.169734
# 637 vertices, 0 vertices normals


usemtl material_0
vt 0.597817 0.882116
vt 0.600843 0.880399
vt 0.600188 0.879538
f 3/1/3 2/2/2 6/3/6
vt 0.592427 0.881924
vt 0.598415 0.882966
vt 0.597817 0.882107
f 7/4/7 1/5/1 3/6/3
vt 0.600188 0.879536
vt 0.597651 0.874000
vt 0.597167 0.873397
f 6/7/6 9/8/9 11/9/11
vt 0.586389 0.879782
vt 0.586593 0.880288
f 12/10/12 4/11/4 7/4/7
vt 0.580314 0.876698
vt 0.586593 0.880289
vt 0.586389 0.879783
f 10/12/10 4/13/4 12/14/12
vt 0.572284 0.872334
vt 0.574709 0.873900
vt 0.580314 0.876700
f 13/15/13 5/16/5 10/17/10
vt 0.591344 0.866021
f 11/9/11 9/8/9 16/18/16
vt 0.563416 0.868579
vt 0.569195 0.871081
f 17/19/17 8/20/8 13/15/13
vt 0.556981 0.866793
vt 0.563249 0.868727
f 18/21/18 14/22/14 17/19/17
vt 0.550030 0.865701
vt 0.556828 0.866950
vt 0.556981 0.866792
f 19/23/19 15/24/15 18/25/18
vt 0.585412 0.859857
vt 0.585310 0.859732
f 21/26/21 24/27/24 16/18/16
vt 0.528250 0.863465
vt 0.528393 0.863298
f 20/28/20 19/23/19 25/29/25
vt 0.573700 0.848267
vt 0.579330 0.853979
vt 0.585310 0.859730
f 22/30/22 32/31/32 24/32/24
vt 0.568007 0.842895
vt 0.579330 0.853980
vt 0.573700 0.848268
f 29/33/29 32/34/32 22/35/22
vt 0.507251 0.860547
vt 0.528393 0.863294
vt 0.514451 0.861242
f 23/36/23 25/37/25 34/38/34
vt 0.507251 0.860551
vt 0.514451 0.861245
vt 0.503695 0.860000
f 23/39/23 34/40/34 30/41/30
vt 0.493194 0.859291
vt 0.500150 0.859887
f 35/42/35 26/43/26 30/41/30
vt 0.486048 0.859166
vt 0.493060 0.859460
vt 0.493194 0.859292
f 36/44/36 27/45/27 35/46/35
vt 0.562020 0.838463
vt 0.568007 0.842897
vt 0.562164 0.838569
f 40/47/40 29/48/29 28/49/28
vt 0.464224 0.859961
vt 0.471383 0.859923
vt 0.486048 0.859165
f 42/50/42 31/51/31 36/52/36
vt 0.457454 0.860460
vt 0.464122 0.860123
vt 0.464224 0.859962
f 45/53/45 37/54/37 42/55/42
vt 0.544980 0.827775
vt 0.562020 0.838461
vt 0.550731 0.831184
f 47/56/47 40/57/40 39/58/39
vt 0.701160 0.809969
vt 0.699973 0.801148
vt 0.701535 0.806442
f 33/59/33 52/60/52 44/61/44
vt 0.451668 0.861692
vt 0.457380 0.860606
f 46/62/46 43/63/43 45/53/45
vt 0.444454 0.864582
vt 0.451648 0.861808
vt 0.451668 0.861693
f 48/64/48 38/65/38 46/66/46
vt 0.701160 0.809988
vt 0.699523 0.804059
vt 0.699973 0.801167
f 33/67/33 50/68/50 56/69/56
vt 0.724223 0.833033
vt 0.723365 0.824726
vt 0.726167 0.828312
f 41/70/41 51/71/51 58/72/58
vt 0.436407 0.869645
vt 0.436352 0.869811
f 60/73/60 49/74/49 48/64/48
vt 0.726167 0.828277
vt 0.723259 0.827126
vt 0.724223 0.832998
f 64/75/64 57/76/57 41/77/41
vt 0.699252 0.792779
vt 0.700349 0.797810
f 52/60/52 66/78/66 59/79/59
vt 0.539142 0.824954
vt 0.539038 0.824840
vt 0.544980 0.827779
f 53/80/53 67/81/67 47/82/47
vt 0.427017 0.876414
vt 0.431537 0.873370
vt 0.433142 0.872055
f 68/83/68 54/84/54 60/85/60
vt 0.698783 0.795485
vt 0.699252 0.792797
f 56/69/56 55/86/55 63/87/63
vt 0.726167 0.828306
vt 0.725328 0.820156
vt 0.729828 0.818906
f 58/88/58 65/89/65 71/90/71
vt 0.532609 0.822297
f 84/91/84 67/81/67 53/80/53
vt 0.422000 0.879286
vt 0.426660 0.876843
vt 0.427017 0.876412
f 73/92/73 61/93/61 68/94/68
vt 0.699252 0.792799
vt 0.697856 0.787029
vt 0.698548 0.784308
f 63/95/63 62/96/62 76/97/76
vt 0.726167 0.828278
vt 0.729828 0.818878
vt 0.724391 0.822559
f 64/98/64 77/99/77 70/100/70
vt 0.416898 0.880942
vt 0.421483 0.879878
vt 0.422000 0.879282
f 80/101/80 69/102/69 73/103/73
vt 0.699295 0.789449
vt 0.699252 0.792786
vt 0.698548 0.784295
f 79/104/79 66/105/66 81/106/81
vt 0.729828 0.818910
vt 0.727031 0.815658
vt 0.731449 0.814218
f 71/107/71 78/108/78 83/109/83
vt 0.411933 0.880622
vt 0.416260 0.881687
vt 0.416898 0.880937
f 85/110/85 74/111/74 80/112/80
vt 0.698548 0.784307
vt 0.697448 0.778729
vt 0.698444 0.776166
f 76/113/76 75/114/75 86/115/86
vt 0.729828 0.818881
vt 0.731449 0.814190
vt 0.725796 0.817935
f 77/116/77 89/117/89 82/118/82
vt 0.511280 0.816798
vt 0.530350 0.821567
vt 0.525684 0.820318
f 90/119/90 84/120/84 72/121/72
vt 0.698548 0.784294
vt 0.698444 0.776153
vt 0.698803 0.781129
f 81/122/81 93/123/93 87/124/87
vt 0.504749 0.816004
vt 0.504607 0.815889
f 90/119/90 91/125/91 95/126/95
vt 0.411933 0.880627
vt 0.409667 0.877886
vt 0.409063 0.878736
f 85/127/85 97/128/97 92/129/92
vt 0.697134 0.770628
vt 0.698080 0.767979
f 86/115/86 88/130/88 98/131/98
vt 0.731449 0.814225
vt 0.730253 0.806864
vt 0.732886 0.809578
f 83/132/83 94/133/94 100/134/100
vt 0.409667 0.877891
vt 0.412659 0.872271
vt 0.409063 0.878741
f 97/135/97 102/136/102 92/137/92
vt 0.698311 0.772927
vt 0.698444 0.776159
vt 0.698080 0.767972
f 103/138/103 93/139/93 98/140/98
vt 0.731449 0.814191
vt 0.732886 0.809545
vt 0.728484 0.808746
f 89/141/89 100/142/100 99/143/99
vt 0.498651 0.816311
vt 0.504607 0.815890
vt 0.498835 0.816420
f 104/144/104 95/145/95 96/146/96
vt 0.487604 0.818182
vt 0.498835 0.816421
f 105/147/105 104/144/104 96/148/96
vt 0.481766 0.819699
vt 0.487604 0.818183
vt 0.487844 0.818290
f 109/149/109 105/150/105 101/151/101
vt 0.412659 0.872278
vt 0.418535 0.865344
vt 0.412326 0.872865
f 102/152/102 111/153/111 106/154/106
vt 0.698314 0.760162
vt 0.697022 0.754761
vt 0.698327 0.752258
f 107/155/107 108/156/108 114/157/114
vt 0.475148 0.822679
vt 0.475327 0.822800
f 116/158/116 109/149/109 110/159/110
vt 0.418535 0.865345
vt 0.424918 0.858661
vt 0.418483 0.865636
f 111/160/111 119/161/119 112/162/112
vt 0.698011 0.757117
vt 0.698314 0.760163
vt 0.698327 0.752260
f 120/163/120 107/164/107 121/165/121
vt 0.468092 0.826260
vt 0.468235 0.826380
f 122/166/122 116/158/116 113/167/113
vt 0.697597 0.747017
vt 0.699316 0.744654
f 114/157/114 115/168/115 124/169/124
vt 0.453951 0.833066
vt 0.468092 0.826257
vt 0.461092 0.829686
f 126/170/126 122/171/122 117/172/117
vt 0.453951 0.833069
vt 0.447552 0.837271
vt 0.443434 0.840044
f 126/173/126 118/174/118 131/175/131
vt 0.424918 0.858663
vt 0.436298 0.846831
vt 0.431169 0.852579
f 119/176/119 128/177/128 123/178/123
vt 0.698395 0.749339
vt 0.698327 0.752261
vt 0.699316 0.744657
f 125/179/125 121/180/121 129/181/129
vt 0.699316 0.744650
vt 0.698436 0.739447
vt 0.699967 0.736989
f 124/182/124 130/183/130 132/184/132
vt 0.436298 0.846829
vt 0.436411 0.846965
f 128/185/128 131/175/131 127/186/127
vt 0.698672 0.741647
vt 0.699316 0.744663
vt 0.699967 0.737002
f 133/187/133 129/188/129 135/189/135
vt 0.699967 0.736986
vt 0.700116 0.731956
vt 0.702641 0.729523
f 132/190/132 134/191/134 136/192/136
vt 0.700254 0.734031
vt 0.699967 0.737005
vt 0.702641 0.729542
f 137/193/137 135/194/135 136/195/136
vt 0.607185 0.161389
vt 0.607171 0.161376
vt 0.612888 0.161687
f 140/196/140 142/197/142 143/198/143
vt 0.601035 0.161012
vt 0.601134 0.161016
f 138/199/138 148/200/148 142/197/142
vt 0.618040 0.161927
vt 0.613024 0.161714
f 143/198/143 146/201/146 139/202/139
vt 0.622464 0.162127
vt 0.618293 0.161941
f 146/201/146 149/203/149 141/204/141
vt 0.594832 0.160632
vt 0.595025 0.160632
f 144/205/144 151/206/151 148/200/148
vt 0.625996 0.162315
vt 0.622814 0.162124
f 149/203/149 152/207/152 145/208/145
vt 0.588916 0.160230
vt 0.589181 0.160222
f 147/209/147 154/210/154 151/206/151
vt 0.583627 0.159788
vt 0.583941 0.159785
f 150/211/150 156/212/156 154/210/154
vt 0.629256 0.162532
vt 0.626409 0.162317
f 152/207/152 157/213/157 153/214/153
vt 0.564352 0.158107
vt 0.578682 0.159340
f 159/215/159 156/212/156 155/216/155
vt 0.634072 0.162983
vt 0.631136 0.162662
f 157/213/157 162/217/162 158/218/158
vt 0.553671 0.157561
vt 0.551312 0.157464
f 167/219/167 200/220/200 159/215/159
vt 0.636442 0.163135
vt 0.634528 0.162965
f 162/217/162 174/221/174 163/222/163
vt 0.740564 0.770138
vt 0.745807 0.770313
vt 0.745343 0.770197
f 169/223/169 160/224/160 178/225/178
vt 0.733687 0.768556
vt 0.740823 0.770226
vt 0.740564 0.770132
f 171/226/171 161/227/161 169/228/169
vt 0.727488 0.765846
vt 0.733736 0.768614
vt 0.733687 0.768555
f 180/229/180 164/230/164 171/231/171
vt 0.606940 0.145708
vt 0.606614 0.145702
vt 0.602498 0.145502
f 166/232/166 185/233/185 186/234/186
vt 0.639905 0.163241
vt 0.636859 0.163107
f 174/221/174 187/235/187 168/236/168
vt 0.745343 0.770199
vt 0.745807 0.770315
vt 0.745245 0.768358
f 178/237/178 160/238/160 177/239/177
vt 0.721968 0.762365
vt 0.727523 0.765870
vt 0.727488 0.765845
f 181/240/181 165/241/165 180/242/180
vt 0.611536 0.145915
vt 0.611273 0.145899
f 185/233/185 173/243/173 198/244/198
vt 0.599160 0.145296
vt 0.602877 0.145495
f 195/245/195 172/246/172 186/234/186
vt 0.644229 0.163306
vt 0.640257 0.163222
f 187/235/187 202/247/202 175/248/175
vt 0.649185 0.163337
vt 0.644503 0.163300
f 203/249/203 176/250/176 202/247/202
vt 0.741949 0.765413
vt 0.745245 0.768351
vt 0.742292 0.765496
f 190/251/190 177/252/177 170/253/170
vt 0.737137 0.762175
vt 0.741949 0.765410
vt 0.737300 0.762240
f 216/254/216 190/255/190 179/256/179
vt 0.717125 0.758475
vt 0.717464 0.758430
vt 0.721968 0.762360
f 204/257/204 189/258/189 181/259/181
vt 0.591034 0.144678
vt 0.588779 0.144572
f 182/260/182 195/245/195 207/261/207
vt 0.616437 0.146106
vt 0.616244 0.146098
f 198/244/198 184/262/184 210/263/210
vt 0.542256 0.157215
vt 0.542521 0.157219
f 201/264/201 212/265/212 200/220/200
vt 0.654548 0.163339
vt 0.649375 0.163330
f 203/249/203 213/266/213 188/267/188
vt 0.713462 0.754365
f 215/268/215 189/258/189 204/257/204
vt 0.627052 0.146519
vt 0.626999 0.146515
vt 0.621496 0.146303
f 194/269/194 221/270/221 222/271/222
vt 0.583239 0.144338
vt 0.587648 0.144481
f 209/272/209 183/273/183 207/261/207
vt 0.578365 0.144214
vt 0.583586 0.144319
f 223/274/223 196/275/196 209/272/209
vt 0.621617 0.146301
f 210/263/210 197/276/197 222/271/222
vt 0.726307 0.754754
vt 0.732593 0.759243
vt 0.731598 0.758680
f 219/277/219 216/278/216 191/279/191
vt 0.718082 0.746576
vt 0.718592 0.746510
vt 0.721749 0.750669
f 206/280/206 244/281/244 218/282/218
vt 0.721317 0.750736
vt 0.721749 0.750671
vt 0.726307 0.754749
f 192/283/192 218/284/218 219/285/219
vt 0.632620 0.146732
vt 0.638231 0.146903
f 221/270/221 193/286/193 232/287/232
vt 0.572712 0.144078
vt 0.578628 0.144214
f 233/288/233 208/289/208 223/274/223
vt 0.566415 0.143900
vt 0.566368 0.143884
f 234/290/234 233/288/233 235/291/235
vt 0.710947 0.691076
vt 0.710780 0.692396
vt 0.709226 0.686361
f 226/292/226 199/293/199 225/294/225
vt 0.710789 0.695612
vt 0.711490 0.697038
vt 0.710947 0.691094
f 236/295/236 211/296/211 226/297/226
vt 0.529828 0.156992
vt 0.530029 0.157010
f 227/298/227 237/299/237 212/265/212
vt 0.660096 0.163319
vt 0.654656 0.163330
f 213/266/213 238/300/238 214/301/214
vt 0.711485 0.750209
vt 0.713973 0.754297
vt 0.713462 0.754360
f 241/302/241 217/303/217 215/304/215
vt 0.717087 0.744055
vt 0.712565 0.738149
vt 0.713042 0.738117
f 244/305/244 205/306/205 243/307/243
vt 0.655012 0.147416
vt 0.655034 0.147435
f 220/308/220 245/309/245 232/287/232
vt 0.559597 0.143683
f 246/310/246 234/290/234 235/291/235
vt 0.709058 0.686242
vt 0.709226 0.686373
vt 0.706231 0.681626
f 249/311/249 225/312/225 224/313/224
vt 0.711081 0.745996
vt 0.712067 0.750168
vt 0.711485 0.750206
f 253/314/253 228/315/228 241/316/241
vt 0.709220 0.733957
vt 0.709651 0.733955
vt 0.713042 0.738119
f 231/317/231 256/318/256 243/319/243
vt 0.707704 0.699784
vt 0.710789 0.695587
vt 0.710365 0.695608
f 251/320/251 236/321/236 264/322/264
vt 0.523335 0.156934
vt 0.523502 0.156960
f 248/323/248 267/324/267 237/299/237
vt 0.665700 0.163267
vt 0.660126 0.163320
f 238/300/238 268/325/268 239/326/239
vt 0.711081 0.745992
vt 0.712140 0.741706
vt 0.712656 0.741689
f 253/327/253 270/328/270 229/329/229
vt 0.714445 0.737326
f 270/328/270 254/330/254 229/329/229
vt 0.714445 0.737327
vt 0.717778 0.732837
vt 0.714889 0.737296
f 254/331/254 255/332/255 230/333/230
vt 0.717778 0.732838
vt 0.725307 0.723721
vt 0.718181 0.732809
f 255/334/255 271/335/271 240/336/240
vt 0.701248 0.725722
vt 0.701693 0.725746
f 242/337/242 274/338/274 256/318/256
vt 0.666299 0.147822
vt 0.666262 0.147845
f 245/309/245 257/339/257 275/340/275
vt 0.552663 0.143527
vt 0.559532 0.143693
f 276/341/276 258/342/258 246/310/246
vt 0.710636 0.691016
vt 0.709058 0.686227
vt 0.709985 0.685113
f 250/343/250 249/344/249 286/345/286
vt 0.665645 0.163270
vt 0.671234 0.163172
f 252/346/252 268/325/268 289/347/289
vt 0.698356 0.721582
f 272/348/272 274/338/274 242/337/242
vt 0.472192 0.142480
vt 0.479452 0.142342
vt 0.479332 0.142344
f 279/349/279 259/350/259 293/351/293
vt 0.465347 0.142632
vt 0.472358 0.142474
f 280/352/280 247/353/247 279/349/279
vt 0.440443 0.143308
vt 0.440272 0.143306
vt 0.430728 0.143635
f 260/354/260 295/355/295 314/356/314
vt 0.516631 0.156864
vt 0.516766 0.156887
f 262/357/262 299/358/299 267/324/267
vt 0.709737 0.694410
vt 0.710365 0.695635
vt 0.710783 0.689855
f 304/359/304 264/360/264 287/361/287
vt 0.671073 0.163151
vt 0.676211 0.162999
f 288/362/288 289/347/289 307/363/307
vt 0.695698 0.717400
vt 0.696274 0.717406
vt 0.698356 0.721576
f 273/364/273 326/365/326 272/366/272
vt 0.683008 0.148505
vt 0.686214 0.148686
f 275/340/275 290/367/290 347/368/347
vt 0.546009 0.143338
vt 0.552500 0.143551
f 309/369/309 283/370/283 276/341/276
vt 0.446526 0.143085
f 295/355/295 278/371/278 280/352/280
vt 0.486892 0.142260
vt 0.486836 0.142267
f 293/351/293 281/372/281 312/373/312
vt 0.540076 0.143039
vt 0.545767 0.143376
f 296/374/296 282/375/282 309/369/309
vt 0.523063 0.142378
vt 0.539776 0.143074
f 315/376/315 261/377/261 296/374/296
vt 0.502892 0.156857
vt 0.499654 0.156896
f 263/378/263 317/379/317 299/358/299
vt 0.710783 0.689833
vt 0.709985 0.685115
vt 0.711084 0.684136
f 287/380/287 286/381/286 324/382/324
vt 0.695481 0.713252
vt 0.697395 0.709227
vt 0.696094 0.713987
f 266/383/266 306/384/306 326/385/326
vt 0.697395 0.709225
vt 0.699411 0.705256
vt 0.699906 0.705272
f 306/386/306 305/387/305 327/388/327
vt 0.728644 0.719222
vt 0.731867 0.713526
vt 0.729141 0.719226
f 330/389/330 329/390/329 269/391/269
vt 0.725307 0.723719
vt 0.728644 0.719221
vt 0.729141 0.719225
f 271/392/271 330/393/330 269/394/269
vt 0.509536 0.142114
vt 0.516311 0.142214
vt 0.516554 0.142216
f 310/395/310 292/396/292 332/397/332
vt 0.502126 0.142137
vt 0.509360 0.142117
f 311/398/311 277/399/277 310/395/310
vt 0.494501 0.142212
vt 0.502028 0.142131
f 331/400/331 291/401/291 311/398/311
vt 0.494483 0.142198
f 312/373/312 294/402/294 331/400/331
vt 0.522768 0.142372
f 332/397/332 297/403/297 315/376/315
vt 0.488966 0.156956
vt 0.488936 0.156949
f 334/404/334 317/379/317 284/405/284
vt 0.687296 0.641617
vt 0.682402 0.638122
vt 0.682385 0.638448
f 319/406/319 285/407/285 337/408/337
vt 0.689636 0.646362
vt 0.687651 0.641326
vt 0.687296 0.641615
f 338/409/338 300/410/300 319/411/319
vt 0.711242 0.688704
vt 0.710783 0.689832
vt 0.711084 0.684135
f 325/412/325 287/413/287 324/414/324
vt 0.675941 0.162957
vt 0.680145 0.162713
f 328/415/328 307/363/307 345/416/345
vt 0.733029 0.710596
vt 0.733616 0.706325
vt 0.733590 0.710579
f 329/417/329 346/418/346 308/419/308
vt 0.421364 0.144019
vt 0.427638 0.143741
f 352/420/352 313/421/313 314/356/314
vt 0.467918 0.157239
vt 0.474900 0.157106
vt 0.467977 0.157229
f 356/422/356 333/423/333 316/424/316
vt 0.474926 0.157099
f 333/423/333 334/404/334 298/425/298
vt 0.679610 0.642560
vt 0.678593 0.638289
vt 0.679135 0.642485
f 374/426/374 337/427/337 320/428/320
vt 0.691350 0.652176
vt 0.690119 0.646155
vt 0.689636 0.646359
f 339/429/339 301/430/301 338/431/338
vt 0.694382 0.658555
vt 0.691833 0.652044
vt 0.691350 0.652175
f 340/432/340 302/433/302 339/434/339
vt 0.698013 0.664787
vt 0.698352 0.664628
vt 0.694382 0.658554
f 359/435/359 303/436/303 340/437/340
vt 0.701521 0.670160
vt 0.698352 0.664627
vt 0.698013 0.664786
f 341/438/341 303/439/303 359/440/359
vt 0.705037 0.675023
vt 0.701706 0.670003
vt 0.701521 0.670161
f 360/441/360 321/442/321 341/443/341
vt 0.711242 0.688723
vt 0.711084 0.684154
vt 0.711271 0.684297
f 363/444/363 324/445/324 362/446/362
vt 0.709535 0.693137
vt 0.711242 0.688699
vt 0.709971 0.693111
f 342/447/342 325/448/325 364/449/364
vt 0.699906 0.705274
vt 0.706417 0.697332
vt 0.706867 0.697288
f 327/450/327 343/451/343 365/452/365
vt 0.682611 0.162327
vt 0.683051 0.162346
vt 0.684942 0.161933
f 335/453/335 371/454/371 357/455/357
vt 0.684464 0.161910
vt 0.686010 0.161483
f 318/456/318 357/455/357 358/457/358
vt 0.685514 0.161451
vt 0.687339 0.159935
f 336/458/336 358/457/358 372/459/372
vt 0.708690 0.679721
vt 0.705063 0.674873
vt 0.705037 0.675026
f 361/460/361 322/461/322 360/462/360
vt 0.711271 0.684291
vt 0.708606 0.679561
vt 0.708690 0.679722
f 362/463/362 323/464/323 361/465/361
vt 0.706867 0.697285
vt 0.709535 0.693138
vt 0.709971 0.693113
f 365/466/365 342/467/342 364/468/364
vt 0.679778 0.162679
f 344/469/344 345/416/345 371/454/371
vt 0.699004 0.149362
vt 0.703823 0.149771
f 347/368/347 348/470/348 376/471/376
vt 0.415372 0.144305
vt 0.421341 0.144014
f 380/472/380 351/473/351 352/420/352
vt 0.407481 0.144720
vt 0.415266 0.144308
f 368/474/368 353/475/353 380/472/380
vt 0.399646 0.145246
vt 0.404142 0.144896
f 381/476/381 354/477/354 368/474/368
vt 0.461002 0.157367
vt 0.461098 0.157364
f 383/478/383 356/422/356 355/479/355
vt 0.732865 0.702047
vt 0.733357 0.702097
vt 0.733616 0.706337
f 389/480/389 366/481/366 346/482/346
vt 0.317827 0.637803
vt 0.320617 0.637760
vt 0.318163 0.632559
f 393/483/393 349/484/349 377/485/377
vt 0.316077 0.648587
vt 0.320007 0.643213
vt 0.317297 0.643154
f 378/486/378 367/487/367 393/488/393
vt 0.314502 0.653962
vt 0.319018 0.648808
vt 0.316077 0.648583
f 379/489/379 350/490/350 378/491/378
vt 0.454184 0.157524
vt 0.454323 0.157530
f 395/492/395 383/478/383 369/493/369
vt 0.686852 0.159921
vt 0.688709 0.159363
f 387/494/387 372/459/372 399/495/399
vt 0.686577 0.654090
vt 0.686997 0.653907
vt 0.683168 0.648639
f 373/496/373 422/497/422 374/498/374
vt 0.727228 0.693360
vt 0.731005 0.697753
vt 0.730586 0.697715
f 401/499/401 375/500/375 389/501/389
vt 0.318782 0.638387
vt 0.317827 0.637798
vt 0.318163 0.632554
f 404/502/404 406/503/406 377/504/377
vt 0.318576 0.643488
vt 0.316077 0.648585
vt 0.317297 0.643152
f 405/505/405 407/506/407 406/507/406
vt 0.316728 0.648473
vt 0.314502 0.653967
f 408/508/408 379/509/379 407/486/407
vt 0.383243 0.146647
vt 0.394966 0.145597
f 409/510/409 382/511/382 381/476/381
vt 0.447500 0.157745
vt 0.447683 0.157752
f 410/512/410 395/492/395 384/513/384
vt 0.419340 0.159305
vt 0.424163 0.158930
vt 0.419699 0.159323
f 411/514/411 397/515/397 385/516/385
vt 0.435020 0.158281
vt 0.424499 0.158955
f 397/515/397 398/517/398 370/518/370
vt 0.441070 0.158006
vt 0.435290 0.158300
f 398/517/398 413/519/413 386/520/386
vt 0.723241 0.689005
vt 0.727541 0.693381
vt 0.727228 0.693361
f 415/521/415 388/522/388 401/523/401
vt 0.709751 0.675781
vt 0.714235 0.680250
vt 0.714312 0.680215
f 403/524/403 390/525/390 424/526/424
vt 0.708840 0.150128
vt 0.710518 0.150371
f 392/527/392 425/528/425 376/471/376
vt 0.378792 0.146969
vt 0.382936 0.146642
f 417/529/417 394/530/394 409/510/409
vt 0.441299 0.158014
f 413/519/413 410/512/410 396/531/396
vt 0.688248 0.159359
vt 0.691247 0.158810
f 414/532/414 399/495/399 421/533/421
vt 0.700707 0.667019
vt 0.700803 0.667009
f 402/534/402 403/524/403 423/535/423
vt 0.718871 0.684679
vt 0.723241 0.689006
vt 0.717780 0.683580
f 391/536/391 415/537/415 424/538/424
vt 0.403164 0.160867
vt 0.402810 0.160855
f 412/539/412 428/540/428 411/514/411
vt 0.690833 0.158800
vt 0.694751 0.158281
f 420/541/420 421/533/421 430/542/430
vt 0.690913 0.658725
vt 0.695962 0.662846
vt 0.690147 0.657419
f 400/543/400 431/544/431 422/545/422
vt 0.695962 0.662844
vt 0.700803 0.667010
f 431/546/431 402/534/402 423/547/423
vt 0.373720 0.147280
vt 0.378547 0.146959
f 432/548/432 418/549/418 417/529/417
vt 0.395962 0.161415
vt 0.398771 0.161225
f 452/550/452 428/540/428 429/551/429
vt 0.716883 0.151121
vt 0.718668 0.151504
f 425/528/425 416/552/416 441/553/441
vt 0.289417 0.763063
vt 0.293156 0.764553
vt 0.292643 0.764511
f 434/554/434 443/555/443 419/556/419
vt 0.291554 0.764565
vt 0.292643 0.764517
vt 0.293156 0.764560
f 435/557/435 419/558/419 443/559/443
vt 0.286119 0.763584
vt 0.291554 0.764569
vt 0.286469 0.763568
f 426/560/426 435/561/435 444/562/444
vt 0.282981 0.760589
vt 0.283358 0.760639
vt 0.289417 0.763066
f 427/563/427 446/564/446 434/565/434
vt 0.694404 0.158279
vt 0.700994 0.157567
f 439/566/439 430/542/430 462/567/462
vt 0.368278 0.147577
vt 0.373558 0.147281
f 448/568/448 433/569/433 432/548/432
vt 0.279763 0.762039
vt 0.286119 0.763586
vt 0.286469 0.763569
f 445/570/445 426/571/426 444/572/444
vt 0.273218 0.760096
vt 0.279411 0.762087
vt 0.279763 0.762041
f 451/573/451 436/574/436 445/575/445
vt 0.277554 0.757829
vt 0.278003 0.757818
vt 0.283358 0.760634
f 437/576/437 449/577/449 446/578/446
vt 0.722743 0.152281
vt 0.722274 0.152294
f 440/579/440 453/580/453 441/553/441
vt 0.266452 0.755191
vt 0.268114 0.757929
vt 0.268615 0.757857
f 468/581/468 438/582/438 451/583/451
vt 0.724071 0.152905
vt 0.723580 0.152919
f 453/580/453 454/584/454 463/585/463
vt 0.362719 0.147861
vt 0.368209 0.147589
f 456/586/456 442/587/442 448/568/448
vt 0.357224 0.148134
vt 0.362740 0.147865
f 464/588/464 447/589/447 456/586/456
vt 0.273937 0.754695
vt 0.274478 0.754629
vt 0.278003 0.757814
f 457/590/457 466/591/466 449/592/449
vt 0.388801 0.161885
vt 0.388970 0.161901
f 470/593/470 452/550/452 460/594/460
vt 0.273375 0.751157
vt 0.273908 0.751095
f 450/595/450 473/596/473 466/591/466
vt 0.703741 0.157355
vt 0.703883 0.157253
vt 0.709173 0.156646
f 461/597/461 462/598/462 481/599/481
vt 0.724320 0.153583
vt 0.723825 0.153590
f 463/585/463 455/600/455 482/601/482
vt 0.350081 0.148489
vt 0.357328 0.148125
f 505/602/505 465/603/465 464/588/464
vt 0.275178 0.747278
vt 0.278840 0.743068
vt 0.275091 0.748354
f 458/604/458 485/605/485 473/606/473
vt 0.266756 0.752067
vt 0.267226 0.751982
vt 0.270102 0.748339
f 467/607/467 468/608/468 475/609/475
vt 0.270102 0.748331
vt 0.275705 0.743078
vt 0.274049 0.744416
f 475/610/475 486/611/486 459/612/459
vt 0.383588 0.162144
vt 0.383645 0.162176
f 489/613/489 470/593/470 469/614/469
vt 0.714211 0.156041
vt 0.709191 0.156765
f 481/599/481 490/615/490 471/616/471
vt 0.723125 0.154309
vt 0.723605 0.154342
f 492/617/492 482/601/482 472/618/472
vt 0.279049 0.740151
vt 0.283913 0.735791
vt 0.279022 0.740171
f 486/619/486 496/620/496 474/621/474
vt 0.378080 0.162346
vt 0.378153 0.162325
f 480/622/480 504/623/504 489/613/489
vt 0.278840 0.743083
vt 0.283076 0.738743
vt 0.283006 0.738680
f 485/624/485 495/625/495 510/626/510
vt 0.283913 0.735784
vt 0.288230 0.731332
vt 0.284101 0.735803
f 496/627/496 497/628/497 476/629/476
vt 0.288230 0.731326
vt 0.292032 0.725500
vt 0.291891 0.726837
f 497/630/497 511/631/511 487/632/487
vt 0.293485 0.722351
vt 0.295375 0.713491
vt 0.294035 0.722326
f 511/633/511 498/634/498 477/635/477
vt 0.295375 0.713490
vt 0.296610 0.709200
vt 0.295954 0.713489
f 498/636/498 499/637/499 478/638/478
vt 0.298577 0.704964
vt 0.297163 0.709222
f 499/637/499 500/639/500 479/640/479
vt 0.372687 0.162455
vt 0.372891 0.162446
f 488/641/488 515/642/515 504/623/504
vt 0.714211 0.156042
vt 0.718762 0.155446
vt 0.714396 0.156158
f 490/643/490 516/644/516 491/645/491
vt 0.721336 0.154984
vt 0.721766 0.155063
f 516/646/516 492/617/492 493/647/493
vt 0.294923 0.724811
vt 0.297960 0.720217
vt 0.297839 0.719185
f 508/648/508 483/649/483 518/650/518
vt 0.291620 0.729459
vt 0.291981 0.729461
vt 0.294923 0.724806
f 519/651/519 484/652/484 508/653/508
vt 0.287457 0.734115
f 484/652/484 519/651/519 509/654/509
vt 0.283006 0.738684
vt 0.287697 0.734145
vt 0.287457 0.734112
f 510/655/510 494/656/494 509/657/509
vt 0.298577 0.704970
vt 0.301577 0.700735
vt 0.301824 0.700720
f 500/658/500 520/659/520 512/660/512
vt 0.322495 0.640417
vt 0.328535 0.640350
vt 0.325432 0.638417
f 501/661/501 513/662/513 522/663/522
vt 0.367882 0.162549
vt 0.368198 0.162528
f 503/664/503 525/665/525 515/642/515
vt 0.337187 0.149118
vt 0.342250 0.148879
f 526/666/526 506/667/506 505/602/505
vt 0.302919 0.706508
vt 0.303380 0.704022
f 518/650/518 507/668/507 544/669/544
vt 0.305440 0.696480
f 520/659/520 528/670/528 512/660/512
vt 0.324639 0.641926
vt 0.322495 0.640401
vt 0.325432 0.638400
f 517/671/517 501/672/501 523/673/523
vt 0.361787 0.162504
vt 0.362244 0.162485
vt 0.364505 0.162548
f 514/674/514 533/675/533 524/676/524
vt 0.364102 0.162581
f 502/677/502 524/676/524 525/665/525
vt 0.324276 0.641671
vt 0.324639 0.641931
vt 0.325432 0.638405
f 541/678/541 517/679/517 522/680/522
vt 0.324276 0.641673
vt 0.325432 0.638407
vt 0.325240 0.638071
f 541/681/541 522/682/522 530/683/530
vt 0.358632 0.162073
vt 0.358269 0.161982
f 532/684/532 542/685/542 533/675/533
vt 0.325025 0.647784
vt 0.324639 0.641930
vt 0.324276 0.641670
f 536/686/536 517/687/517 541/688/541
vt 0.323046 0.149887
vt 0.323297 0.149852
f 543/689/543 527/690/527 526/666/526
vt 0.305440 0.696488
vt 0.309994 0.692193
vt 0.305478 0.696429
f 528/691/528 563/692/563 539/693/539
vt 0.306380 0.697460
vt 0.314843 0.687831
vt 0.315760 0.688832
f 521/694/521 546/695/546 534/696/534
vt 0.329768 0.639420
vt 0.326555 0.637433
vt 0.325240 0.638073
f 529/697/529 551/698/551 530/699/530
vt 0.355178 0.161780
vt 0.355618 0.161774
f 531/700/531 554/701/554 542/685/542
vt 0.315760 0.688833
vt 0.315065 0.688070
vt 0.320729 0.684614
f 534/702/534 556/703/556 535/704/535
vt 0.325025 0.647779
vt 0.324276 0.641665
vt 0.325408 0.640953
f 536/705/536 552/706/552 558/707/558
vt 0.313180 0.150547
f 559/708/559 527/690/527 543/689/543
vt 0.307645 0.697285
vt 0.307152 0.697213
f 544/669/544 537/709/537 561/710/561
vt 0.324276 0.641666
vt 0.326555 0.637424
vt 0.325408 0.640954
f 552/711/552 553/712/553 558/713/558
vt 0.307152 0.697211
vt 0.310714 0.692690
vt 0.310341 0.692616
f 561/714/561 538/715/538 562/716/562
vt 0.314042 0.688063
vt 0.310341 0.692606
vt 0.314153 0.688080
f 569/717/569 562/718/562 545/719/545
vt 0.315065 0.688062
vt 0.314843 0.687824
vt 0.319835 0.683586
f 556/720/556 546/721/546 557/722/557
vt 0.324413 0.679311
vt 0.328887 0.675092
vt 0.324723 0.679374
f 570/723/570 564/724/564 547/725/547
vt 0.332624 0.670906
vt 0.335117 0.666747
vt 0.333123 0.670973
f 564/726/564 565/727/565 540/728/540
vt 0.330628 0.638881
vt 0.327944 0.637015
vt 0.326555 0.637431
f 567/729/567 574/730/574 551/731/551
vt 0.325408 0.640951
vt 0.325591 0.637840
vt 0.327944 0.637006
f 558/732/558 553/733/553 575/734/575
vt 0.352338 0.161608
vt 0.352720 0.161615
f 555/735/555 576/736/576 554/701/554
vt 0.302591 0.151320
vt 0.313369 0.150497
f 581/737/581 560/738/560 559/708/559
vt 0.318182 0.683659
f 569/717/569 545/719/545 582/739/582
vt 0.309994 0.692194
vt 0.314874 0.687885
vt 0.314843 0.687837
f 563/740/563 584/741/584 546/742/546
vt 0.319711 0.683577
f 571/743/571 570/723/570 547/725/547
vt 0.335117 0.666751
vt 0.335983 0.660579
vt 0.336662 0.662394
f 565/744/565 585/745/585 548/746/548
vt 0.334339 0.651831
vt 0.335988 0.657191
vt 0.335510 0.657021
f 572/747/572 566/748/566 585/749/585
vt 0.333378 0.645641
vt 0.334280 0.647499
vt 0.334339 0.651830
f 586/750/586 549/751/549 572/752/572
vt 0.330334 0.638976
vt 0.333276 0.643285
vt 0.332792 0.643309
f 573/753/573 550/754/550 586/755/586
vt 0.327918 0.637157
vt 0.330628 0.638874
vt 0.330334 0.638977
f 587/756/587 567/757/567 573/758/573
vt 0.327944 0.637011
vt 0.330628 0.638877
vt 0.327918 0.637160
f 575/759/575 567/760/567 587/761/587
vt 0.330425 0.656829
vt 0.330898 0.656915
vt 0.332093 0.661875
f 568/762/568 595/763/595 589/764/589
vt 0.319711 0.683589
f 584/741/584 571/765/571 546/742/546
vt 0.348636 0.161416
vt 0.348939 0.161435
f 577/766/577 591/767/591 576/736/576
vt 0.332057 0.666621
vt 0.331592 0.661765
vt 0.332093 0.661876
f 593/768/593 578/769/578 589/770/589
vt 0.318182 0.683645
vt 0.322367 0.679415
vt 0.322686 0.679466
f 582/771/582 583/772/583 597/773/597
vt 0.326942 0.640500
vt 0.327918 0.637155
vt 0.327052 0.640580
f 579/774/579 587/775/587 598/776/598
vt 0.330177 0.671077
vt 0.329699 0.670986
vt 0.332057 0.666615
f 607/777/607 588/778/588 593/779/593
vt 0.327515 0.646410
f 594/780/594 579/774/579 598/776/598
vt 0.327112 0.646291
vt 0.327515 0.646414
vt 0.329611 0.653341
f 580/781/580 594/782/594 595/783/595
vt 0.297139 0.151748
vt 0.302666 0.151277
f 609/784/609 596/785/596 581/737/581
vt 0.322686 0.679464
vt 0.326495 0.675283
vt 0.326903 0.675334
f 597/786/597 590/787/590 608/788/608
vt 0.343999 0.161208
vt 0.344209 0.161218
f 592/789/592 610/790/610 591/767/591
vt 0.326903 0.675333
f 608/791/608 588/778/588 607/777/607
vt 0.297136 0.151719
vt 0.289249 0.152502
f 605/792/605 609/784/609 618/793/618
vt 0.322936 0.159828
vt 0.322767 0.159847
vt 0.327964 0.160268
f 599/794/599 612/795/612 613/796/613
vt 0.307984 0.158409
vt 0.317979 0.159379
f 614/797/614 612/795/612 600/798/600
vt 0.333420 0.160638
vt 0.328057 0.160243
f 613/796/613 615/799/615 602/800/602
vt 0.295272 0.157317
vt 0.303164 0.157912
f 622/801/622 614/797/614 601/802/601
vt 0.338910 0.160955
vt 0.333417 0.160625
f 615/799/615 616/803/616 603/804/603
vt 0.338801 0.160954
f 604/805/604 616/803/616 610/790/610
vt 0.281350 0.153372
vt 0.286187 0.152780
f 619/806/619 606/807/606 618/793/618
vt 0.277052 0.153930
vt 0.281077 0.153361
f 621/808/621 611/809/611 619/806/619
vt 0.273905 0.154481
vt 0.276696 0.153940
f 623/810/623 617/811/617 621/808/621
vt 0.271869 0.155012
vt 0.273479 0.154488
f 626/812/626 620/813/620 623/810/623
vt 0.271397 0.155023
vt 0.270906 0.155512
f 624/814/624 626/812/626 627/815/627
vt 0.286928 0.156818
vt 0.286941 0.156889
f 628/816/628 622/801/622 625/817/625
vt 0.270421 0.155563
vt 0.271253 0.155890
f 629/818/629 627/815/627 632/819/632
vt 0.281267 0.156565
vt 0.281386 0.156471
f 630/820/630 633/821/633 628/816/628
vt 0.270797 0.155985
vt 0.273148 0.156054
f 631/822/631 632/819/632 635/823/635
vt 0.276281 0.156293
vt 0.276542 0.156188
f 634/824/634 637/825/637 633/821/633
vt 0.272770 0.156163
vt 0.276542 0.156187
f 636/826/636 635/823/635 637/827/637
# 336 faces, 827 coords texture

# End of File
