# .PCD v0.7 - Point Cloud Data file format
VERSION 0.7
FIELDS x y z
SIZE 4 4 4
TYPE F F F
COUNT 1 1 1
WIDTH 2048
HEIGHT 1
VIEWPOINT 0 0 0 1 0 0 0
POINTS 2048
DATA ascii
30.78325 -7.822221 19.48166
31.07921 -7.489687 19.41641
31.68651 -7.622483 19.38735
31.15159 -8.051401 19.28504
30.91776 -7.292876 19.06192
31.55606 -7.930503 19.36417
30.7162 -7.280307 18.93401
32.34329 -7.983119 19.13376
30.82974 -7.269647 18.85348
32.31324 -7.764134 19.25766
30.34665 -7.941169 19.55335
30.02749 -8.130092 18.77132
31.69349 -8.118841 18.92686
30.61553 -7.450689 19.44521
29.60927 -8.127943 18.90536
31.12064 -8.129022 18.79183
31.31516 -8.131575 18.51189
31.25192 -8.130401 18.63155
32.44898 -7.419059 19.15264
30.01338 -8.11022 19.19003
29.55641 -8.124512 18.98932
29.54056 -8.129657 18.61842
32.11296 -8.138797 18.57677
30.61925 -8.132145 17.84001
31.82001 -8.14408 17.97943
31.71697 -7.271321 18.59642
30.04091 -8.088793 19.33121
30.04608 -7.2393 18.66943
28.35179 -8.124849 18.87698
28.79169 -8.121432 18.44592
29.66633 -8.116575 17.90888
31.12346 -8.137057 17.48279
30.27413 -8.126743 17.62273
32.30627 -8.13501 18.68345
32.35453 -7.22831 18.66389
30.35086 -7.474218 19.59823
30.16615 -7.243656 17.83917
29.39347 -8.121486 19.08342
27.56725 -8.117872 18.52109
28.74986 -8.120599 18.27594
28.91683 -8.117092 17.85826
29.09154 -8.119827 18.034
32.03463 -8.154282 17.82229
31.47236 -8.13255 17.27759
31.76354 -8.140291 17.4639
31.53571 -7.295129 18.29344
29.99834 -7.25783 18.82658
30.94989 -7.248501 17.32994
29.71136 -7.237258 18.07234
27.52909 -8.115323 18.46861
28.32455 -8.111963 17.58563
29.39871 -8.117169 17.91443
29.78314 -8.11446 17.42441
32.47528 -8.154025 18.27804
30.70716 -8.1523 16.38184
31.48132 -8.133422 17.36106
30.41549 -8.132524 17.36552
33.1165 -7.970562 18.94384
29.64348 -8.094616 19.60377
30.87017 -7.231957 17.17022
30.37156 -7.192956 17.21727
29.38138 -7.234485 17.62461
26.82395 -8.119464 18.73831
28.20751 -8.117232 17.74056
29.29572 -8.106518 17.39259
29.53488 -8.099331 17.03124
30.05887 -8.119668 17.18991
32.31692 -8.15934 18.10711
30.92045 -8.158184 15.71961
30.58844 -8.152958 16.25391
31.45046 -8.126225 15.80147
31.7904 -8.141005 16.93446
31.859 -7.324587 18.07722
31.22571 -7.294749 17.6917
30.90678 -7.237799 16.82327
29.59935 -7.227208 17.3298
29.14446 -7.224149 17.32214
28.32788 -8.146305 19.05079
28.82218 -8.106 16.99439
29.32797 -8.070201 16.15149
29.53945 -8.087458 16.53812
32.52704 -8.18573 17.81011
30.66944 -8.170529 15.10924
31.70995 -8.132744 16.49462
30.48896 -8.164619 15.26756
32.3026 -7.123364 18.15677
29.84933 -7.257454 19.20935
31.48779 -7.39216 17.17303
30.06596 -7.222048 17.39507
29.0137 -7.232581 18.00869
26.77616 -8.105676 18.32685
27.22498 -8.124232 18.00501
29.02936 -8.081882 16.5312
29.83015 -8.108034 16.48782
30.37416 -8.142524 16.49592
32.35018 -8.237495 16.55536
31.34565 -8.12922 15.41756
30.83929 -8.176457 14.20702
31.05169 -8.154046 14.71622
31.43375 -8.121331 14.74872
33.28961 -7.665593 19.04034
32.80322 -7.214779 18.2649
29.91551 -7.236784 19.0843
31.60639 -7.453973 16.87447
30.56073 -7.155423 16.50863
28.8608 -7.239102 17.63648
28.51119 -7.222183 17.05803
25.65581 -8.110154 18.60843
28.85938 -8.096856 16.56843
29.70009 -8.096461 16.0481
30.20722 -8.149741 15.0844
32.32005 -8.249014 16.05595
30.66467 -8.187992 14.04884
31.08453 -8.150097 14.56971
31.66955 -8.121278 14.62032
33.23353 -7.452046 18.93659
27.74803 -8.142899 19.14969
29.40404 -7.234127 18.39979
31.32646 -7.396999 16.25812
30.52696 -7.149349 16.45916
29.41845 -7.206611 16.8138
28.08763 -7.235217 17.38976
28.46284 -7.217754 16.83684
27.72001 -8.103767 17.49141
28.74809 -8.100111 15.90948
29.39551 -8.063247 15.46547
30.08212 -8.144369 14.68807
32.09829 -8.189816 16.01536
32.69341 -8.25503 17.02163
31.61109 -8.11571 14.29257
33.07429 -8.007922 18.22237
28.14899 -8.121243 19.27426
31.76929 -7.528048 16.24902
31.30984 -7.404586 16.00819
30.19954 -7.12923 16.20796
29.65239 -7.207361 16.42281
27.55245 -7.231093 17.1627
28.48953 -7.194746 16.12532
26.73768 -8.114829 18.03899
28.09602 -8.130638 17.01783
29.60258 -8.087629 15.69603
31.96657 -8.164413 15.32056
32.43063 -8.292674 15.68694
30.74492 -8.204705 13.55719
30.19791 -8.181469 13.57231
32.20408 -7.133563 17.71866
26.38158 -8.119157 19.18329
30.93965 -7.258434 15.69965
30.45132 -7.102382 15.54583
29.39101 -7.199878 16.50965
27.58579 -7.227549 16.82477
28.34193 -7.202029 16.19881
28.55287 -7.184863 15.93231
25.95821 -8.124519 19.16303
28.02609 -8.123809 16.90211
29.12407 -8.02391 15.13412
29.79445 -8.108954 15.19271
30.0286 -8.146376 13.95791
32.33023 -8.282781 14.93375
33.04231 -8.00126 17.84339
31.50161 -8.086596 13.42801
33.34948 -7.32936 18.75177
32.06876 -7.314776 16.76436
31.68617 -7.547016 15.9101
31.39357 -7.485403 15.21691
30.34945 -7.084279 15.34775
29.30425 -7.18292 16.05566
26.82855 -7.237346 17.43133
27.3519 -7.224427 16.14381
28.67407 -7.16021 15.41673
25.65756 -8.1224 18.47364
28.1343 -8.14778 16.80986
29.25195 -8.033134 15.12987
30.00047 -8.13699 14.50246
31.86198 -8.131936 13.79985
32.53635 -8.346794 15.03255
30.98178 -8.186849 13.07415
30.20113 -8.19069 13.37368
32.38254 -6.985997 17.68897
28.70258 -7.143802 18.21088
31.98941 -7.473013 15.90678
31.21764 -7.420205 14.80776
30.42405 -7.093711 14.92112
29.23755 -7.174213 15.92066
27.48776 -7.222137 17.51386
27.12299 -7.229799 16.802
27.67351 -7.215071 15.94795
28.79096 -7.153411 15.38169
28.5904 -7.161978 15.33586
25.0935 -8.10412 18.73809
27.41252 -8.098673 17.45769
28.60979 -8.106398 15.46381
29.5146 -8.083654 13.69394
32.549 -8.3661 14.55144
30.71686 -8.228787 13.17433
30.13157 -8.186956 13.24485
33.69283 -7.683778 18.65878
26.30155 -8.100978 19.21667
31.01274 -7.332164 14.46335
31.22305 -7.448896 14.19888
30.35515 -7.085517 14.70942
29.44172 -7.185782 15.74958
26.66388 -7.234184 17.53204
26.97167 -7.222774 16.19863
28.18363 -7.17947 15.3055
25.88158 -8.127596 18.19877
24.74096 -8.095545 18.86837
27.38614 -8.075311 17.10267
28.55059 -8.089768 14.91553
29.61585 -8.098218 13.32564
32.25331 -8.268818 13.65832
32.93993 -8.29676 15.89868
31.05019 -8.178755 12.681
30.04082 -8.171816 13.20377
32.22628 -6.991127 17.23898
31.55206 -7.589452 14.12805
30.98108 -7.325965 14.21435
30.8934 -7.300819 13.62229
30.33703 -7.086218 14.55405
30.10399 -7.069311 14.70063
26.05245 -7.243617 17.51896
26.63517 -7.234786 17.0468
26.7196 -7.223488 16.12019
27.61579 -7.216556 15.35824
28.95685 -7.129712 14.86546
28.72778 -7.128531 14.54628
25.34214 -8.114578 18.41272
24.52245 -8.072349 19.20235
26.5767 -8.101091 17.41249
28.10523 -8.137166 16.21059
28.28666 -8.148817 15.49353
29.47325 -8.069302 12.94126
32.77996 -8.404385 14.60526
32.9948 -7.674117 17.36956
31.61692 -8.038638 12.70923
29.98726 -8.174013 12.93567
33.53467 -7.94432 18.26598
33.19303 -6.975411 17.81078
32.09846 -7.268471 15.64328
31.06944 -7.412015 13.11543
29.5403 -7.160562 15.16869
28.27946 -7.164365 17.84879
26.33841 -7.239795 17.34768
27.16945 -7.211785 15.09638
26.33123 -7.229949 16.48269
28.98886 -7.119799 14.53489
27.96275 -7.16925 14.29643
25.12647 -8.102293 18.24456
24.85231 -8.10267 18.41116
23.42194 -8.100124 18.46412
26.22677 -8.096279 17.27304
28.094 -8.122643 15.89093
28.97118 -8.017609 14.20835
29.65451 -8.106592 12.69391
31.91709 -8.110315 13.0502
32.83034 -8.418089 14.25138
33.08457 -7.712142 17.8255
30.6715 -8.337262 11.82388
30.40498 -8.351418 11.70489
32.36341 -6.888847 17.23131
28.2837 -7.141535 18.03193
32.05593 -7.398471 15.15153
31.11573 -7.450392 12.89585
29.4563 -7.162737 15.17417
25.12303 -7.25364 17.89969
26.94519 -7.202825 14.71698
26.73898 -7.216552 15.64583
29.18153 -7.119166 14.55199
28.5951 -7.103572 13.60434
24.79848 -8.098708 18.23536
25.11595 -8.069765 19.5695
24.09371 -8.101055 18.5266
23.33681 -8.095531 18.5942
25.9577 -8.098866 17.28046
28.08891 -8.107659 15.31608
29.00356 -8.029166 13.74905
31.81187 -8.034694 12.36739
32.31673 -8.300303 12.96889
33.04977 -8.254799 15.35314
30.71644 -8.361004 11.36368
29.90962 -8.197046 12.06138
33.64154 -7.893197 18.16162
33.2097 -6.932021 17.63774
31.80946 -7.605853 14.04362
31.44256 -7.609764 12.98093
30.38576 -7.097761 13.839
30.19893 -7.057433 13.68492
25.6088 -7.241801 17.11507
25.22181 -7.252285 17.89503
26.61019 -7.214342 15.47108
27.22578 -7.205916 14.64064
26.15868 -7.221596 15.8035
29.13363 -7.024207 13.18442
28.28495 -7.145518 14.03715
28.27558 -7.128735 13.32858
24.89868 -7.971032 19.61799
23.25436 -8.080643 18.87038
23.48121 -8.109003 18.08023
26.45904 -8.081685 16.61674
27.27822 -8.072705 16.67803
27.94496 -8.067258 15.28132
29.05578 -8.009213 12.77145
31.66052 -7.987541 11.96832
32.50267 -8.39583 12.99201
33.05186 -7.980297 16.39046
30.51929 -8.479807 10.07504
30.67967 -8.396006 10.97863
29.78644 -8.155293 12.02878
33.63035 -7.292055 18.19772
27.93937 -7.145561 17.96412
31.95523 -7.540338 14.13864
31.2042 -7.565985 11.55738
30.49103 -7.115144 13.02647
30.13418 -7.021039 13.17295
25.10647 -7.240066 17.12177
25.05559 -7.255633 18.00742
27.14862 -7.197251 14.13909
27.45476 -7.196483 14.23976
28.4427 -7.102689 13.11761
27.77465 -7.174181 13.37511
27.58824 -7.18465 13.2248
25.12489 -7.933423 19.71253
24.14737 -7.972995 19.39444
23.71381 -8.124012 17.51398
23.009 -8.096433 18.61487
26.12231 -8.082047 16.30744
27.18407 -8.091921 16.2956
28.83988 -8.021555 13.65503
28.84877 -7.990238 12.69306
29.60159 -8.097678 11.82807
32.29817 -8.277937 12.14945
33.04806 -8.314939 14.72398
30.44259 -8.481458 10.10588
30.61173 -8.518636 9.336241
29.82687 -8.196699 11.42267
33.82264 -7.782846 18.26393
33.1744 -6.946301 17.46621
32.04323 -7.444149 14.09692
31.18905 -7.586162 10.97434
30.71672 -7.227149 12.05378
30.06056 -7.022212 13.38489
25.25235 -7.233672 16.98065
25.01501 -7.259665 18.3955
26.39295 -7.20626 14.86755
26.69462 -7.200099 14.1356
29.19665 -6.999087 12.92966
28.26624 -7.118529 12.84229
27.66256 -7.182648 12.90002
25.19588 -8.083472 17.24456
24.17296 -8.109485 17.90383
22.66035 -8.045951 18.9747
23.26426 -8.110407 18.14923
23.90665 -8.136429 17.22418
26.61801 -8.084885 16.18847
26.06077 -8.086368 16.25071
27.21649 -8.062938 15.56491
28.54568 -8.014966 13.41355
28.64313 -7.998477 12.96033
31.79122 -7.944749 11.12242
32.38145 -8.330561 11.6269
32.9878 -8.417499 13.80797
30.36092 -8.476549 9.990477
31.00153 -8.241544 11.16619
30.82505 -8.380826 10.36789
33.49513 -6.786445 17.54864
32.37204 -6.685941 16.5064
31.49325 -7.65502 12.37387
31.06211 -7.524375 10.61634
30.83796 -7.32931 11.44123
30.68156 -7.202457 12.32118
25.49759 -7.224383 16.72658
24.66568 -7.253425 17.92073
26.28631 -7.190519 13.79626
26.15314 -7.200006 14.54045
26.18127 -7.204112 14.74361
26.86238 -7.214395 12.4353
29.39219 -6.985785 12.98207
28.94274 -6.980419 12.23964
27.6992 -7.180182 12.16187
27.33987 -7.202399 12.89488
25.73245 -8.118802 16.54801
23.94902 -7.890242 19.43351
24.1958 -8.12743 17.3583
23.40296 -8.130777 16.7271
22.78987 -8.118842 18.33029
26.09247 -8.078661 16.03708
27.22564 -8.046911 15.07249
27.76548 -8.019955 14.37054
28.85893 -7.968074 12.19418
32.10835 -8.087077 11.03578
32.9739 -8.447336 13.35977
33.15449 -8.190013 14.60297
30.25888 -8.447392 10.14391
30.59464 -8.572816 8.561199
31.4566 -7.974951 11.19314
29.50389 -8.060287 11.43143
32.59734 -6.752928 16.74517
31.7278 -7.676797 12.65726
32.07947 -7.054372 14.6184
31.09769 -7.569059 9.996041
30.33569 -7.024212 12.1601
29.64101 -6.995646 13.21879
24.64798 -7.245007 17.62693
24.6483 -7.270234 18.71047
26.14368 -7.184421 13.77284
25.52144 -7.194264 14.97838
25.87376 -7.212654 15.51279
26.98541 -7.214915 12.45245
26.71854 -7.212175 12.26422
29.30982 -6.9529 12.52725
28.89541 -6.978458 12.09413
27.61835 -7.187926 12.17653
25.41741 -8.097582 16.77662
24.2779 -8.138021 16.93466
22.42409 -7.922927 19.16961
23.86556 -8.168482 16.35244
27.0073 -8.100138 15.89279
25.84159 -8.105447 16.20237
28.53766 -7.990609 12.83839
27.77997 -8.007648 13.17103
28.77049 -7.951486 12.00902
31.98398 -8.003573 10.96078
32.50599 -8.415528 11.91628
33.12096 -7.964478 15.30312
30.15093 -8.42833 9.853334
30.11945 -8.376179 10.5258
30.47485 -8.619048 7.941615
30.75651 -8.540508 8.198968
30.82161 -8.461014 8.966121
30.04279 -8.34946 10.34896
32.71456 -6.776299 16.72588
26.71159 -7.141478 17.99743
32.08873 -7.11853 14.52985
31.15776 -7.589794 10.44744
30.87729 -7.400954 10.42221
30.55575 -7.123959 11.7343
29.69979 -6.899261 12.1508
24.2917 -7.259679 17.86803
24.32502 -7.269691 18.6827
25.64176 -7.162156 13.92425
25.3818 -7.184078 14.82306
26.69435 -7.200362 13.21336
29.08688 -6.908253 11.68722
28.50329 -7.051564 12.10867
27.87894 -7.154445 11.56162
25.22534 -8.050218 16.59569
24.54029 -8.087778 17.08448
23.23125 -7.864221 19.3245
21.97429 -7.731287 19.14682
23.06486 -8.136681 17.66116
23.91816 -8.167855 16.45069
26.43662 -8.051989 15.05347
26.88436 -8.083544 15.45905
26.90181 -8.082424 15.41943
27.27708 -8.028565 14.44879
28.19817 -8.003867 13.05798
27.34296 -7.989364 12.50797
27.28097 -7.995821 12.81523
28.77288 -7.923922 11.61243
29.15127 -7.956313 11.35366
32.15101 -8.082051 10.486
32.72177 -8.49572 12.259
32.93576 -7.703171 16.22277
30.12392 -8.514266 8.333213
31.13552 -8.156457 10.6438
30.66982 -8.706264 6.056362
29.43744 -8.032248 11.2552
33.41941 -6.705638 17.24853
32.23371 -6.627768 16.05339
31.99972 -7.568865 12.76575
32.0333 -6.847934 14.86687
31.08875 -7.59714 9.051288
30.83282 -7.3936 9.778582
29.64206 -6.877987 11.90885
24.88064 -7.218543 16.61698
23.97668 -7.282822 18.91382
26.33781 -7.187214 13.11133
25.31417 -7.209478 15.56855
26.44903 -7.207337 11.35877
29.26372 -6.894699 11.81626
27.04439 -7.256574 10.91749
27.68199 -7.191212 11.43671
25.06256 -8.013878 16.44315
22.76236 -7.593443 19.25224
23.56452 -7.453006 19.32214
23.23305 -8.138684 16.51813
23.54899 -8.170686 15.23503
23.82146 -8.195283 15.36238
26.4374 -8.035683 14.51667
25.90696 -8.067688 15.41175
27.60283 -8.01446 13.98448
28.03796 -7.970603 12.18877
28.36954 -7.939487 11.84167
27.62433 -7.994593 12.70253
27.11253 -7.990481 12.66414
29.09846 -7.933336 11.16765
32.15518 -8.048392 9.914544
33.23334 -8.251754 13.42159
32.85194 -7.327189 16.4803
30.10982 -8.549337 7.654903
31.01784 -8.268218 10.06427
30.7502 -8.615108 6.909156
31.42714 -7.960424 10.50618
29.84923 -8.248437 10.34768
33.01992 -7.636097 17.19545
27.18004 -7.202964 18.10905
32.08624 -7.088863 13.73536
31.41722 -7.702399 10.49972
31.15106 -7.626849 9.038939
30.68625 -7.268532 9.621093
30.67865 -7.217465 11.1005
29.8647 -6.8366 11.41028
24.24507 -7.252728 17.404
23.89172 -7.279065 18.87152
25.70623 -7.14829 13.44134
25.03534 -7.162377 14.84278
26.32121 -7.192795 10.92482
29.40999 -6.847619 11.54239
28.34689 -7.058026 11.48889
25.32283 -8.039209 16.07337
23.6867 -7.400998 19.27533
22.30656 -8.154786 18.05939
22.91402 -8.185642 16.78536
23.71316 -8.195667 15.008
24.122 -8.190476 15.6852
22.88775 -8.183717 17.10468
25.94712 -8.024092 14.48867
25.40718 -8.035192 15.64899
28.50409 -7.875193 10.91973
27.07214 -8.017123 13.71241
27.17192 -7.975008 11.95685
26.96102 -7.98778 12.67892
31.68781 -7.890524 10.31036
32.62979 -8.489405 10.86223
33.21269 -8.033645 14.28759
29.68063 -8.177538 9.539737
30.19185 -8.675482 6.2733
30.43457 -8.789814 5.137062
31.00693 -8.311412 9.108045
30.79788 -8.623263 6.340122
30.95258 -8.447272 7.262989
29.20296 -7.930269 10.51758
33.54612 -7.296406 17.70951
33.26933 -6.860072 16.79003
32.08868 -7.47557 12.67016
31.58017 -7.729856 11.11192
31.03982 -7.607204 8.026824
30.68016 -7.406606 7.335371
30.57015 -7.178802 9.107513
30.54325 -7.106358 10.88545
29.50564 -6.843428 11.57541
24.76656 -7.189283 16.39206
23.51709 -7.290689 18.10853
24.00519 -7.274295 17.75024
23.7171 -7.293071 19.00298
25.55909 -7.129868 13.31003
25.14473 -7.200151 15.41528
26.45155 -7.214293 10.77704
29.12481 -6.838289 11.1393
27.18844 -7.261523 10.65262
28.00628 -7.135546 11.08047
24.78397 -8.02798 16.31716
24.27721 -8.174121 15.64279
24.53713 -7.262723 19.19692
23.02713 -8.182752 15.62249
23.35297 -8.165205 14.97395
23.80422 -8.224987 14.32886
26.22167 -8.015174 14.09561
25.98274 -8.017656 14.31173
25.31271 -8.017289 15.51889
28.52365 -7.86024 10.6788
27.12218 -7.960486 11.26313
26.59118 -7.997945 13.34078
27.30204 -7.960198 11.02007
32.30232 -8.193174 10.00124
32.68701 -8.521106 10.4886
33.19617 -7.939268 14.19507
29.72528 -8.226232 9.122561
29.97777 -8.490006 7.397669
30.30161 -8.777742 5.086394
30.57219 -8.82305 4.308655
30.98561 -8.438862 6.516129
30.76944 -8.710927 5.090576
29.46096 -8.038066 9.474161
33.99327 -7.875246 17.79394
33.16549 -6.888431 16.63107
32.12786 -7.285164 12.96868
31.52179 -7.740719 9.921816
31.44482 -7.704261 7.89646
30.66205 -7.307966 8.496221
30.72195 -7.501693 6.339967
30.19843 -6.876676 10.76037
24.64689 -7.177525 16.27785
24.08383 -7.267662 17.14774
23.41385 -7.301605 17.90412
25.12224 -7.144073 18.64699
25.93307 -7.147182 12.79206
25.16003 -7.129441 13.79346
24.84229 -7.170546 15.71974
26.33443 -7.19593 10.62983
28.96835 -6.841487 10.76468
27.64029 -7.212308 10.859
25.18375 -8.008717 15.86386
24.28426 -8.177886 15.40045
23.07739 -7.295967 18.93013
22.76605 -8.267109 15.43629
23.19581 -8.174338 14.47186
23.90458 -8.235888 14.2556
25.80266 -8.002124 13.9723
25.34933 -8.01298 15.18205
28.34476 -7.878799 10.77548
27.67984 -7.94785 10.98143
27.12396 -7.956126 10.99131
26.87563 -7.963586 11.96791
27.40965 -7.953774 10.75974
29.05956 -7.878742 10.2214
32.69395 -8.52436 10.49778
33.21241 -7.943771 14.04064
32.98269 -7.324017 16.78771
29.80269 -8.363606 7.443416
30.00475 -8.545902 6.822898
30.22382 -8.827953 3.819977
31.08231 -8.259308 8.264347
30.92011 -8.593596 5.124246
31.18586 -8.129349 7.639852
33.78035 -6.793353 17.20992
32.51062 -6.500547 15.9015
32.1308 -7.388599 12.63834
31.59624 -7.75415 9.786258
30.82973 -7.569048 6.273343
30.55903 -7.364059 6.184398
30.45778 -7.044216 9.792509
29.9733 -6.812313 10.91637
24.51802 -7.14982 15.2879
23.39363 -7.318584 17.54882
25.28201 -7.175406 18.90649
25.21206 -7.086465 12.93222
24.83478 -7.168079 15.67876
26.12147 -7.14959 11.11224
28.39554 -7.015633 10.6282
28.94699 -6.810333 10.23151
27.27072 -7.257672 10.56608
28.173 -7.079947 10.56374
24.82441 -8.030827 15.70393
24.49122 -8.130698 15.26456
21.61204 -7.965413 18.80692
22.52651 -8.354125 15.36792
23.24032 -8.175687 14.19782
23.99999 -8.25171 13.9484
25.78999 -8.001661 13.96572
27.84976 -7.932364 10.88941
28.56882 -7.793271 9.226912
26.83741 -7.94915 11.40629
26.29318 -7.966803 12.8133
28.94493 -7.847896 9.921605
31.89832 -7.853164 9.160929
33.28913 -8.188105 13.12414
33.10636 -7.767429 14.14455
29.71507 -8.254906 8.200724
30.04245 -8.682269 4.958375
30.15488 -8.800484 3.959305
30.57257 -8.885694 2.818018
31.40365 -7.950826 9.729526
31.06344 -8.334513 6.407699
31.12069 -8.229084 7.229692
33.62917 -6.6108 16.95762
32.24235 -6.40915 15.38026
32.16553 -7.33689 12.25898
31.92118 -6.547006 14.12465
31.17397 -7.662287 6.679342
30.31651 -7.017313 6.489837
30.60112 -7.4368 5.782481
30.39868 -7.060384 7.604047
30.33808 -6.946166 9.850669
29.63758 -6.728547 10.51653
24.44799 -7.168249 15.39003
23.38179 -7.336113 17.22007
22.72343 -7.30076 18.83034
24.95288 -7.110915 13.38077
24.6051 -7.150232 15.52045
26.22268 -7.168966 10.66537
25.84882 -7.113947 11.95465
29.05106 -6.78469 10.29592
27.09655 -7.324594 8.704282
27.28108 -7.281572 9.474926
27.91722 -7.138732 9.844574
24.56747 -8.11828 14.92338
22.18059 -7.947477 17.63763
22.64164 -8.32886 14.41426
23.62933 -8.228994 13.52979
25.49163 -8.002378 14.08631
27.79918 -7.928994 10.6063
28.47387 -7.794135 9.22004
27.16867 -7.933146 9.623999
27.34413 -7.917956 9.076571
26.1998 -7.968586 12.95054
28.82511 -7.807125 9.188655
32.71586 -8.537416 10.07414
32.83297 -8.573192 10.36946
33.17751 -7.806842 13.67887
29.32012 -7.970072 8.557065
29.84651 -8.479702 6.064638
30.01056 -8.739299 3.692003
30.56938 -8.90627 2.215667
31.38368 -7.951509 9.331772
31.02848 -8.410164 5.960129
31.12347 -8.23904 6.231977
31.24483 -8.048457 7.546016
33.49889 -7.309751 17.35862
31.78719 -7.749946 10.93631
32.01362 -6.828882 13.44516
32.20169 -6.36139 15.10198
31.10176 -7.655997 6.157547
30.83568 -7.616115 5.073499
30.56197 -7.428744 5.241781
30.64624 -7.528894 4.518914
30.39143 -6.999262 8.917161
30.13013 -6.812502 9.809125
24.43394 -7.169687 15.12173
23.61927 -7.356808 16.55221
23.15342 -7.353787 16.73722
25.62457 -7.088685 12.23801
24.62045 -7.148098 13.92713
26.49364 -7.245017 9.110619
26.79272 -7.32056 8.500102
25.91092 -7.080217 10.42115
29.14691 -6.737831 9.918469
29.49376 -6.681828 9.81025
27.38674 -7.270078 9.379154
27.89321 -7.146832 9.903496
24.67414 -8.113072 14.20693
21.53795 -7.843841 18.81387
22.57823 -8.347579 15.00157
23.74677 -8.268948 13.24781
22.33103 -8.350772 16.14768
25.04622 -8.028386 14.32373
28.3185 -7.804185 9.127669
28.81214 -7.785537 8.445026
27.15767 -7.910935 8.857944
27.49454 -7.924112 9.462
26.00808 -7.956711 12.80875
27.60564 -7.905973 9.29383
29.03453 -7.848142 8.823853
32.03162 -7.849668 8.433541
32.53959 -8.395963 8.855268
32.87804 -8.578475 10.43076
32.83318 -7.469696 14.5383
29.32192 -7.978269 7.934221
29.66981 -8.343055 5.773493
29.83308 -8.498898 5.549429
29.95999 -8.722158 3.430146
30.76174 -8.817099 2.691228
31.07493 -8.404908 4.205498
30.86839 -8.726871 3.028146
33.50363 -6.546573 16.65409
32.41418 -6.412208 15.4133
31.9018 -7.754421 10.13132
31.9323 -6.411284 14.19449
31.71009 -7.740152 8.334358
31.82335 -7.740968 8.351774
30.46653 -7.358531 4.744423
30.79302 -7.602721 4.791481
30.34803 -6.959087 8.968959
29.97291 -6.74486 9.805375
24.2327 -7.227088 15.37221
23.39618 -7.363729 16.76097
22.84067 -7.270281 17.52642
24.93352 -7.053334 12.49168
24.47424 -7.171038 14.31814
26.72013 -7.318351 8.167817
25.67378 -6.992932 10.01897
25.66031 -6.981267 9.819187
29.18992 -6.683861 9.247852
28.56435 -6.918163 9.816104
29.47148 -6.617848 8.871292
26.81816 -7.339563 8.037747
28.03904 -7.090839 9.337595
24.73799 -8.066382 15.08548
21.61442 -8.103428 18.44652
22.50391 -8.376555 14.30218
23.2338 -8.173293 13.54684
22.22425 -8.295531 16.30198
24.90649 -8.064363 13.98845
28.85741 -7.793726 8.483927
27.15429 -7.859652 7.457064
27.65728 -7.878111 8.628451
26.53316 -7.918338 11.38365
26.02457 -7.9259 12.23996
26.22257 -7.908297 11.67885
27.73877 -7.874652 8.812166
28.89671 -7.795744 8.182018
32.18528 -7.907162 7.907489
32.98793 -8.585636 10.22569
33.02666 -7.666515 14.09202
29.23953 -7.931077 7.985245
29.79156 -8.475239 5.342173
29.83637 -8.558746 4.679693
29.96708 -8.780996 2.436961
30.97633 -8.617041 2.40246
31.09127 -8.363826 4.464805
31.18124 -8.137706 5.865907
33.86179 -8.182595 17.25695
32.57288 -6.504706 15.63642
31.95988 -7.741675 10.09333
32.4163 -6.456419 15.24245
31.20374 -7.662526 5.242639
31.82345 -7.70483 7.613591
30.17551 -6.8731 5.681582
30.41265 -7.321996 4.244796
30.49249 -7.429964 3.777803
30.25259 -6.877774 9.293648
29.675 -6.634444 8.956409
23.62857 -7.367184 16.31025
23.19854 -7.40514 15.80502
25.53972 -7.054522 11.89948
24.55583 -7.154409 13.28555
26.37906 -7.22386 8.584415
26.55384 -7.298846 7.445165
25.56071 -6.978185 10.39625
28.66056 -6.856376 9.405122
29.40343 -6.611088 8.704967
27.21637 -7.340356 7.803382
27.9175 -7.138379 9.092542
24.84346 -8.064659 14.37188
21.49698 -8.055652 18.49243
22.42132 -8.390734 14.37166
23.37714 -8.180728 13.14129
23.9626 -8.352221 12.69807
24.93382 -8.058681 14.00616
28.46278 -7.728137 7.345092
27.08866 -7.885846 8.210613
26.73044 -7.881132 9.409534
27.34955 -7.842703 7.003706
26.46461 -7.867354 10.25579
25.59504 -7.925701 12.33037
28.12715 -7.795017 8.358563
28.14828 -7.78978 8.315035
31.45956 -7.882494 8.58291
32.17248 -7.8933 7.858926
32.25682 -7.939119 7.534502
33.37486 -8.103799 12.23931
32.81165 -7.028027 15.65357
29.33471 -8.030399 6.491835
29.55367 -8.294689 4.678735
29.80281 -8.565992 4.09003
29.69504 -8.52274 3.182194
30.50316 -8.97175 1.396877
30.95282 -8.650844 2.331737
31.12453 -8.316957 2.982023
31.38534 -7.880154 7.018285
33.72913 -7.785457 17.38349
33.45087 -6.592191 16.37679
31.88032 -6.410123 13.27419
31.91529 -7.753141 9.088752
31.3701 -7.648589 5.592208
31.77542 -7.67675 7.053604
30.23783 -6.920042 6.402025
30.27065 -7.171969 3.474977
30.75988 -7.598692 3.557472
30.13131 -6.783263 7.062658
29.74764 -6.572448 7.423133
23.8586 -7.326925 16.12486
23.38638 -7.428195 15.61874
22.46508 -7.264847 18.44541
25.34512 -6.989885 11.43357
26.28297 -7.192912 7.923591
25.55596 -6.94527 9.695046
29.13921 -6.65272 8.683242
29.26126 -6.570718 7.770655
27.30164 -7.340471 7.191526
26.95126 -7.384316 6.363038
24.87027 -8.073512 13.92744
21.94038 -7.815964 17.75305
22.2211 -8.369377 14.67143
24.44407 -8.251715 12.87493
25.47739 -7.984016 13.3042
28.35376 -7.725266 7.176801
27.03565 -7.839654 7.193543
27.13613 -7.810354 6.400846
27.5167 -7.828689 6.95557
25.86437 -7.938711 12.59208
27.60166 -7.834239 7.289153
28.01361 -7.778102 7.540421
32.01138 -7.796447 7.769634
33.20271 -8.507748 10.67737
32.78119 -7.414924 14.02191
29.11884 -7.881237 6.909606
29.26406 -8.028367 5.175547
29.40112 -8.135985 5.137388
29.69832 -8.436596 4.650895
29.57213 -8.430726 2.824165
30.46212 -8.972535 1.352814
31.11354 -8.348075 2.260619
31.2734 -7.960063 4.573999
31.4802 -7.84648 7.897682
34.2784 -8.016861 17.17298
32.20242 -7.412634 11.34934
32.0265 -6.710153 12.0899
31.13241 -7.658729 4.090897
31.40184 -7.629512 4.655324
31.78322 -7.60704 5.739533
30.14696 -6.817934 6.196856
30.2157 -7.11307 3.126365
30.39973 -7.371549 2.863186
30.07836 -6.736557 7.882393
29.58693 -6.505466 6.66897
23.88974 -7.356322 14.78829
23.25643 -7.438787 15.13488
25.09247 -6.936568 11.10321
24.55522 -7.137639 12.88305
26.16604 -7.144671 7.88422
26.24681 -7.184771 7.217277
25.2625 -6.909939 10.26383
29.23599 -6.575897 7.807086
28.96474 -6.644814 7.739577
29.50448 -6.535812 7.421238
27.07478 -7.389782 6.027145
27.98644 -7.111332 8.918886
21.40676 -7.550658 18.5132
22.14156 -8.256269 15.51098
22.90657 -8.199513 12.8107
23.78919 -8.325435 12.54499
25.17758 -8.004461 13.0703
28.39753 -7.71419 6.835119
27.13488 -7.798376 6.186296
26.50858 -7.794298 8.312115
26.41308 -7.817187 9.352986
27.23393 -7.795393 6.133082
27.4754 -7.792096 6.199161
25.90612 -7.860203 11.27002
27.84209 -7.770057 6.676603
27.80765 -7.789425 6.998543
32.18035 -7.850156 7.273909
33.18067 -8.517776 10.69042
32.97219 -7.569798 13.3767
28.98468 -7.82062 6.738861
29.2993 -8.146479 3.187753
29.54104 -8.363753 3.344393
29.74053 -8.671292 1.767149
31.36537 -7.829912 4.877882
31.53162 -7.800904 7.513063
33.10194 -7.594877 16.49701
32.21012 -7.170447 11.52836
32.04695 -6.710548 11.7974
32.01207 -7.736529 8.912787
31.61107 -7.62053 5.709184
32.06222 -7.710109 8.199422
30.02336 -6.740586 4.146821
30.29556 -7.281718 1.866547
30.16798 -7.070689 2.665683
30.76309 -7.589049 2.756282
29.97387 -6.660948 6.17413
24.24444 -7.242297 14.20825
23.67448 -7.426542 14.68287
23.22152 -7.453541 14.23619
22.60975 -7.129436 17.05996
24.76011 -7.000191 11.50947
25.87 -7.018388 8.725931
25.96929 -7.053168 7.982011
26.34088 -7.234585 6.272262
25.21804 -6.886948 9.906673
29.05784 -6.617482 7.800938
29.50984 -6.502478 6.721559
26.86799 -7.386721 5.500925
28.13332 -7.046757 8.597876
28.60771 -6.825885 8.538546
21.35098 -7.83147 18.43291
22.31377 -8.409116 13.91233
23.51957 -8.227555 12.32943
23.76948 -8.358667 12.00078
25.07166 -8.030388 13.21925
28.25524 -7.705455 6.350977
27.01501 -7.789596 6.240038
26.4034 -7.731822 7.29541
27.89635 -7.719326 5.686926
26.26673 -7.796954 9.493685
26.26338 -7.764583 8.775886
25.3931 -7.896596 11.40019
31.60106 -7.783066 7.798204
32.62688 -8.461547 8.053658
33.23679 -7.783454 12.88686
32.72155 -7.100236 15.12327
29.13649 -7.924197 5.768787
29.09609 -7.975784 3.304727
29.22573 -8.16784 1.950805
31.1626 -8.213915 2.296304
31.20553 -8.098489 4.137656
31.01196 -8.631215 1.738603
33.46487 -7.576829 17.09013
32.203 -7.503885 10.85864
32.08234 -6.742306 11.48991
32.20375 -7.626447 9.267604
31.40101 -7.597124 3.496485
32.17694 -7.628035 6.902709
29.99405 -6.723392 3.56371
30.08876 -6.970472 2.18298
30.71415 -7.558444 2.329744
29.7923 -6.570106 6.912445
29.82638 -6.571262 6.197553
23.83509 -7.405944 13.81924
23.20038 -7.44689 14.29043
22.74903 -7.061619 15.39272
24.78584 -6.958829 11.06933
26.10725 -7.113174 7.512752
26.83621 -7.384218 5.593358
25.39358 -6.859139 8.707509
25.46456 -6.85573 8.177731
29.12085 -6.520036 6.446139
28.84056 -6.664755 7.338891
28.9049 -6.58994 6.505642
29.42043 -6.474624 6.29451
27.44019 -7.316734 6.678903
27.89665 -7.138168 7.790205
28.43433 -6.895945 8.401673
24.81221 -8.100339 13.02972
22.1527 -7.716929 17.30247
22.5612 -8.355772 13.02672
24.4363 -8.326837 12.02455
22.16242 -8.046623 16.06132
28.02831 -7.702731 5.653792
28.31338 -7.68872 5.537376
26.86584 -7.791916 6.619979
26.31888 -7.733505 7.780907
27.5418 -7.752693 5.601829
25.89951 -7.78192 10.18095
26.01002 -7.74766 9.20348
32.80735 -8.588336 8.868826
32.48449 -8.244869 7.448028
32.63463 -8.468065 7.913566
33.0959 -7.598437 12.84509
32.89491 -7.371035 16.28091
29.04885 -7.889733 5.258181
29.14708 -8.108617 1.893563
31.10288 -8.402168 1.898799
31.33464 -7.859033 4.223676
33.52645 -7.195507 16.62537
33.64433 -8.159265 16.52354
32.20353 -7.556739 10.43643
32.16764 -6.947435 11.19411
31.22682 -7.608125 2.862515
31.58828 -7.542994 3.4751
32.08276 -7.557213 5.58136
29.93662 -6.63638 4.745721
29.88098 -6.616001 2.738691
30.54542 -7.471745 1.837444
23.79353 -7.429976 13.61398
23.05676 -7.370041 14.77698
22.45126 -6.919782 16.88047
24.95838 -6.89578 10.13661
26.05219 -7.087937 6.919631
26.78301 -7.35819 4.322806
26.7008 -7.352865 4.994231
26.10546 -7.111902 6.10243
25.03388 -6.871174 9.678279
28.73469 -6.676589 6.725487
28.84681 -6.530982 5.159486
27.56459 -7.273802 6.689564
27.31658 -7.359586 5.428517
27.22169 -7.375419 5.419431
27.98116 -7.093137 7.490006
21.31864 -8.002604 18.28434
22.28249 -8.423349 13.27272
24.21354 -8.454112 11.57679
24.06369 -8.457726 11.66773
25.15715 -7.963368 11.62059
28.23784 -7.685235 4.952405
26.44691 -7.708919 6.518304
26.22634 -7.705876 7.45262
27.56519 -7.686956 4.595273
25.95966 -7.682353 7.591899
25.42365 -7.83981 10.5871
32.54258 -8.323563 7.210646
33.17449 -8.583005 9.235435
33.42741 -8.030249 11.57213
32.96206 -7.478838 16.24369
28.97148 -7.868024 4.617696
29.93104 -8.804972 1.274057
31.34014 -7.836022 3.475495
33.68498 -6.98502 16.48265
32.58264 -6.789757 15.24371
32.03733 -6.299292 12.07125
32.21679 -7.633129 8.872201
31.31796 -7.57447 2.556024
31.81244 -7.449131 2.95146
31.99534 -7.418752 3.539319
32.14517 -7.586877 6.148403
29.84704 -6.553346 3.756238
30.00051 -6.840908 1.752394
30.80141 -7.550135 1.579276
29.8104 -6.552523 5.598927
23.92113 -7.403117 13.05329
22.93299 -7.240372 14.62856
22.30595 -7.021902 17.64408
24.29581 -7.212658 12.03603
25.97657 -7.04217 6.307992
25.64282 -6.888587 6.951115
26.89219 -7.373514 3.992792
26.39443 -7.257356 5.455553
25.94881 -7.025114 5.100256
25.31863 -6.810192 7.380898
29.01577 -6.444998 4.799038
28.61372 -6.750576 7.030237
29.52072 -6.429889 5.0692
27.46383 -7.326085 4.663091
27.11034 -7.388509 4.336439
28.51649 -6.828531 7.558137
21.85446 -7.336088 18.13124
21.71838 -7.435341 17.9889
22.62859 -8.311376 12.55839
24.74078 -8.163975 11.74786
22.33373 -7.861789 16.17643
28.11016 -7.683593 4.802559
27.10435 -7.638155 3.860994
26.65695 -7.709517 5.691905
26.0804 -7.704686 7.936681
27.225 -7.634096 3.763757
27.58238 -7.661417 4.140317
25.93586 -7.682068 7.631508
31.6919 -7.706167 6.511645
32.49003 -8.195383 6.696145
32.71152 -8.526627 7.488436
33.0289 -7.529934 12.80732
32.82918 -6.776708 14.87915
28.8484 -7.815405 4.552461
28.9495 -7.931589 2.41123
31.18227 -8.207505 1.66856
31.41263 -7.76317 4.05408
33.58258 -6.368139 16.0036
32.29443 -7.381599 10.13584
32.2725 -7.268573 10.62069
31.12856 -7.55823 1.656615
31.98873 -7.453689 4.066312
32.19025 -7.348292 3.308821
32.31854 -7.576937 7.847661
32.27127 -7.587492 8.811308
30.12537 -7.062819 1.609411
23.84688 -7.431146 13.11472
23.02746 -7.330089 13.50248
22.3498 -6.833554 16.96958
24.71236 -6.940151 9.952229
25.85153 -6.974236 6.061418
26.99435 -7.367468 3.122019
26.08485 -7.09862 5.178823
25.81687 -6.956762 5.707346
25.36899 -6.799478 6.28168
29.30278 -6.40332 4.847482
28.66932 -6.660011 5.912717
28.422 -6.868223 7.348681
29.43483 -6.400918 4.698268
27.56563 -7.289621 4.710975
28.17452 -6.985159 6.957801
21.76978 -7.920967 17.45677
22.0349 -8.231118 14.05307
22.53171 -8.354256 12.403
24.94164 -8.046952 11.96278
22.37582 -7.818573 16.0335
28.03949 -7.680768 4.634155
26.84651 -7.69784 5.085873
26.32884 -7.65366 5.579632
27.57457 -7.600402 3.184217
27.23104 -7.606309 3.36394
25.81271 -7.689036 7.735423
25.38779 -7.829495 10.15355
32.60211 -8.390671 6.823444
33.38257 -8.42072 9.520628
32.70128 -7.167769 13.56328
28.75824 -7.781902 4.353193
28.87139 -7.879897 2.483716
31.26044 -7.956247 1.647712
31.56124 -7.681871 5.072776
33.49765 -7.750821 16.7416
32.02777 -6.183941 12.52639
32.25694 -7.070762 10.4606
31.73052 -7.422826 1.664239
32.35398 -7.515178 8.421005
32.19489 -7.506426 5.269348
30.35069 -7.296332 1.301788
29.58826 -6.423008 4.491466
22.94955 -7.209404 14.00783
22.43826 -6.771859 16.45408
24.35549 -7.14998 11.05336
24.82627 -6.870046 8.554805
25.66611 -6.887333 5.912967
27.27139 -7.348671 2.978142
26.85698 -7.365721 2.655993
26.04844 -7.072091 4.461157
24.95968 -6.819683 7.885735
24.89247 -6.853513 8.646237
28.87889 -6.434769 3.833304
28.54492 -6.730116 5.924547
28.20064 -6.965719 6.771089
29.42221 -6.35287 3.735947
28.11063 -7.005855 6.266868
27.77498 -7.190594 4.850084
21.29541 -8.3168 17.9289
22.15844 -8.409739 13.12311
22.83587 -8.176454 11.74884
24.22188 -8.523846 10.81479
27.92318 -7.671649 4.351279
28.25745 -7.671777 3.940845
26.65992 -7.648615 4.614248
25.95751 -7.643916 6.078935
27.82571 -7.617287 3.445315
25.60407 -7.738394 8.692248
24.95142 -8.044416 10.83941
33.07477 -8.635928 8.515609
32.62918 -8.42373 6.755359
32.6437 -8.460565 7.177568
33.45796 -8.197993 10.42736
32.76062 -7.288988 13.04385
28.61582 -7.741724 4.222802
28.73919 -7.828439 2.092532
31.48107 -7.658024 2.804492
33.75223 -6.908854 16.28794
33.28472 -6.47971 15.36557
32.19114 -6.621042 10.64625
32.31771 -6.786049 14.49848
32.41028 -7.281744 2.878516
32.42043 -7.479232 6.508175
29.68499 -6.431861 3.158537
29.9347 -6.713727 1.333446
30.47631 -7.379768 1.065102
23.30497 -7.543706 12.66163
22.52175 -6.611676 15.4825
22.19801 -6.7361 16.92825
24.18762 -7.276675 11.66705
24.75369 -6.874281 7.922297
23.82107 -7.49122 12.3015
25.4193 -6.807244 5.76244
27.27722 -7.346672 2.869951
26.52216 -7.290394 2.394954
25.88662 -6.990038 3.984385
24.91445 -6.826624 7.808294
29.34573 -6.340874 3.728135
28.70062 -6.500418 3.408178
29.0318 -6.331099 2.898752
28.33196 -6.860437 5.930583
27.96644 -7.079649 4.971133
27.69341 -7.208128 3.142271
21.59163 -7.256529 17.83071
23.32041 -8.150586 11.61034
22.95115 -8.125316 11.2892
24.79012 -8.154474 10.95728
24.87836 -8.097006 10.93204
26.92853 -7.580636 3.25697
26.84187 -7.640278 4.223426
25.94158 -7.647127 6.199259
27.92996 -7.637029 3.719872
25.52183 -7.765001 9.189423
25.57972 -7.714988 7.324597
31.94167 -7.616691 5.334582
32.42039 -7.90537 4.844053
32.14188 -7.67802 5.240738
33.26031 -7.640753 11.84235
32.63662 -6.79022 14.00864
28.71976 -7.76669 3.743712
31.16686 -8.214453 1.338395
31.64403 -7.586766 3.752389
33.59709 -6.300203 15.77897
32.10371 -6.156302 13.05842
32.28959 -7.076069 10.09166
32.31679 -7.33322 3.853429
32.30915 -7.319903 2.284463
32.43664 -7.434263 5.810448
29.77935 -6.510739 1.128137
23.66254 -7.567698 12.07402
22.75653 -6.747735 14.12751
22.18858 -6.639926 16.65531
24.58049 -6.977913 9.002094
25.36305 -6.794677 4.911695
26.0899 -7.093577 3.354807
26.94918 -7.379581 2.19919
26.18699 -7.149461 2.662085
24.83196 -6.844784 7.393267
29.33871 -6.309285 3.001127
29.23189 -6.269236 2.037941
28.41816 -6.792658 5.603852
28.45205 -6.670277 3.491578
27.76758 -7.159525 2.839399
27.87059 -7.126843 3.754978
21.20523 -8.264246 17.84518
22.40673 -7.769912 15.07723
22.84944 -8.161826 11.51948
24.76457 -8.183867 10.64424
24.17155 -8.613297 9.862959
28.1843 -7.626511 3.05548
26.67379 -7.582508 3.514297
26.46049 -7.572648 3.543149
26.18028 -7.603493 4.289752
27.43217 -7.530281 2.472281
25.63293 -7.688633 6.047832
24.98769 -8.021059 9.876828
33.19698 -8.624098 8.237947
32.39062 -7.819921 4.390104
32.41293 -7.811489 3.980922
33.4398 -8.408186 8.73859
33.02564 -7.351851 11.92272
33.01935 -6.618267 14.88209
28.95342 -8.004739 1.597707
31.7159 -7.564973 4.005962
32.35131 -7.250288 9.515862
32.29265 -6.365305 10.9923
32.36496 -6.862628 14.42447
32.53957 -7.247683 3.932083
32.30607 -7.321319 2.206344
32.45715 -7.397145 5.415656
29.81417 -6.566902 0.9263113
23.45962 -7.608657 12.04371
22.83537 -6.862875 13.62612
22.03119 -6.853128 17.32039
23.96164 -7.446671 11.34669
25.53048 -6.847206 3.667928
27.26871 -7.357868 2.062888
26.42779 -7.254199 2.40985
26.21598 -7.164868 2.357555
24.83348 -6.827581 5.848049
24.93354 -6.800545 5.789487
28.77908 -6.408972 2.62131
29.35484 -6.273173 1.8839
28.24582 -6.857075 3.96446
28.40629 -6.679949 2.930256
27.91304 -7.062627 2.570484
21.16022 -8.345119 17.71786
21.98339 -8.151775 13.55733
23.29906 -8.141924 11.04285
24.5974 -8.36095 10.21553
24.01902 -8.6326 9.576871
27.0001 -7.526761 2.609575
26.31597 -7.572726 3.678759
25.86435 -7.632617 4.734974
27.46055 -7.511024 2.237397
25.35314 -7.799484 7.991101
25.44035 -7.757362 6.850919
25.07176 -7.971484 8.952553
33.11099 -8.67596 7.293838
32.56449 -8.230384 5.140872
33.51685 -8.154466 9.356843
32.80734 -7.258083 12.66209
33.20049 -6.858912 15.36423
31.58319 -7.563566 1.871446
33.75628 -6.932781 15.90567
32.20929 -6.288846 13.11929
32.32603 -7.006021 9.617939
31.3687 -7.476309 1.25161
32.55258 -7.28028 2.520494
32.57273 -7.314133 6.566314
32.57825 -7.257521 4.491972
22.98325 -7.321099 12.49824
22.67594 -6.536074 13.96488
22.15858 -6.553945 16.37597
23.99335 -7.442088 10.90488
24.40841 -7.085479 7.830641
24.78287 -6.854775 6.875791
25.33018 -6.793966 4.459192
27.38321 -7.329661 1.756673
25.89284 -7.034869 1.568824
25.74177 -6.938359 2.794859
28.77344 -6.341945 1.466492
29.04147 -6.25669 1.463655
28.18672 -6.853111 2.717439
28.0048 -7.041836 4.051569
27.84412 -7.106272 2.35404
21.23415 -7.810399 17.746
21.9596 -8.235476 12.97457
23.35278 -8.161713 10.84328
24.52743 -8.454178 9.750351
23.83469 -8.577796 9.453159
27.98505 -7.589146 2.576721
26.41675 -7.546471 3.158834
25.99739 -7.597163 3.956461
27.41689 -7.475231 1.872764
25.37239 -7.781817 6.057041
24.88182 -8.125377 9.386868
31.9674 -7.575024 4.555795
32.11257 -7.610374 4.471735
32.6132 -8.330399 5.006447
33.51745 -8.21679 9.051596
32.90672 -7.244329 12.05692
33.11594 -6.532374 14.76246
31.51238 -7.586385 1.37133
33.63917 -7.088768 15.96129
32.32507 -6.098562 12.65732
32.49252 -6.482538 10.12635
32.43158 -7.17511 8.719613
32.81026 -7.165485 3.753345
32.53067 -7.167791 7.945944
32.61541 -7.23775 4.553187
29.47383 -6.276723 1.289346
22.86153 -6.966203 13.01696
22.49991 -6.302964 14.39201
24.05873 -7.400883 10.15157
24.10331 -7.371253 9.479771
24.45791 -7.044261 7.456511
24.80222 -6.837229 5.702596
25.21237 -6.789224 3.635978
27.5811 -7.253218 1.891291
25.59061 -6.894339 2.403106
28.65763 -6.406535 1.447385
28.13034 -6.8923 2.55816
27.7814 -7.135437 1.642629
21.13246 -8.102901 17.68186
22.53726 -7.675545 15.13861
22.4317 -8.363873 11.48362
22.68391 -8.228496 11.31532
23.77902 -8.55155 9.319365
22.39148 -7.483207 16.25939
26.15472 -7.567672 3.52721
25.87812 -7.61233 3.890376
25.32299 -7.811772 6.046203
25.32729 -7.815108 5.166468
24.72141 -8.32912 8.734254
33.42299 -8.486094 8.106703
32.51053 -7.90624 3.383349
33.52503 -8.229077 8.887157
32.79886 -7.145624 12.22003
32.97867 -7.515628 15.68215
31.83467 -7.497266 3.031325
33.04716 -6.383521 14.85057
32.38832 -6.659673 9.708324
32.51825 -6.313053 11.30928
32.20918 -7.354785 1.58984
32.6472 -7.092046 7.192626
29.34857 -6.220644 0.9696553
22.82866 -6.862628 12.69301
22.34123 -6.33852 15.2993
24.4246 -7.075683 6.614769
24.76077 -6.855137 5.314023
27.65702 -7.203208 1.44494
25.0171 -6.79539 3.814879
28.11917 -6.891511 2.258333
27.97113 -7.015829 2.281385
21.19111 -7.341128 17.59905
22.59067 -7.625008 15.25202
23.33115 -8.155977 10.56653
24.51975 -8.488686 9.340158
23.54269 -8.337198 9.519114
26.56001 -7.496738 2.341343
25.79864 -7.613762 3.226177
25.29544 -7.835803 5.095367
25.29768 -7.849532 3.869274
24.84527 -8.195621 8.457712
32.21223 -7.544127 3.020949
32.47747 -7.797549 3.096694
33.51551 -8.347414 8.229628
32.70144 -7.006578 12.62349
28.47246 -7.739441 1.606911
33.81694 -6.856405 15.73703
32.43872 -6.148213 12.52079
32.62907 -6.561286 9.534329
32.8493 -7.122482 4.442373
32.68616 -7.356762 1.717238
32.67818 -7.217045 5.076843
23.01554 -7.423997 11.75287
22.7928 -6.705889 12.82877
22.1033 -6.378513 15.7395
24.10649 -7.387207 8.300788
24.67357 -6.897794 4.82442
25.2593 -6.828806 2.339673
26.32552 -7.19412 1.124679
24.80169 -6.84081 4.74551
21.91072 -7.115412 17.00162
21.6297 -8.148006 16.79051
22.37762 -7.758877 13.85022
23.08078 -8.071553 10.07137
24.47668 -8.600154 8.338491
23.90967 -8.692438 8.464222
22.43243 -7.381339 15.93433
26.07647 -7.558429 3.057004
24.97439 -8.089965 7.292881
25.53198 -7.716765 3.325535
24.73749 -8.324998 8.352451
32.88826 -8.657423 5.754912
32.71815 -8.507449 4.452866
33.57993 -8.178937 8.218291
33.46832 -7.786332 10.13673
33.12667 -7.192585 10.72324
31.96408 -7.451 2.341739
33.56545 -6.125418 15.11413
32.48109 -6.9071 8.73181
32.62274 -6.887706 8.045453
32.8817 -7.300539 2.342998
32.85656 -6.995007 6.300766
22.89865 -7.229942 11.59214
22.45036 -6.210929 14.30452
23.96232 -7.513455 9.103191
24.08764 -7.4255 7.490731
24.55094 -6.977304 4.726799
25.33102 -6.862213 1.67081
26.61812 -7.292668 0.8852084
24.79657 -6.870528 2.903361
29.11907 -6.212162 1.315504
21.28342 -7.749576 17.4712
22.68397 -7.491474 15.16667
22.27253 -8.416464 11.3352
24.36334 -8.681551 8.185083
24.12493 -8.760626 8.02923
26.15759 -7.543074 2.492468
27.92569 -7.564347 1.566097
25.11543 -7.992597 4.513954
25.45646 -7.767797 3.034958
24.7129 -8.401978 7.577973
32.92384 -8.677532 5.761499
32.6909 -8.454889 4.023057
32.5472 -7.842517 2.537306
33.53536 -8.368549 7.757776
33.44842 -7.657981 9.892645
32.7464 -6.765391 12.83084
32.03584 -7.442645 2.132547
32.39047 -6.560008 13.15445
32.7741 -6.536983 10.32761
32.40778 -6.85187 14.0085
33.07648 -7.317845 2.517156
33.03498 -6.978989 5.628835
23.01015 -7.471948 11.0212
22.79912 -6.716751 12.18521
22.01096 -6.3081 15.44901
24.22332 -7.271843 7.569095
24.27975 -7.221138 5.971437
24.49858 -7.014242 5.370383
23.40487 -7.711133 10.40072
27.0437 -7.341954 1.022178
24.86775 -6.84727 2.734999
28.61993 -6.373903 1.15607
28.83693 -6.265497 1.147195
21.27388 -7.802417 17.30498
22.18886 -7.823938 13.51767
21.91209 -8.321494 11.93384
22.46963 -8.276536 10.1004
23.68629 -8.549355 8.276897
23.31466 -8.14913 9.168818
25.9635 -7.582555 2.450325
27.19349 -7.45028 1.471696
24.99454 -8.131439 4.590079
25.1606 -7.975983 3.693321
33.01866 -8.716747 5.696522
32.5764 -7.863278 2.290667
33.22786 -8.702984 6.168623
32.9973 -7.010916 10.88575
32.72651 -6.668817 12.76533
33.03739 -7.643185 15.69476
32.72399 -6.545727 11.40149
33.18236 -6.82553 8.26232
32.56944 -6.743551 14.19164
33.13512 -7.381729 2.236945
33.0784 -6.916255 6.227652
23.11203 -7.576001 10.94922
22.66272 -6.298682 12.80515
21.93275 -6.392717 15.59177
24.29801 -7.208103 5.251576
24.09124 -7.436923 6.438845
24.4871 -7.03465 4.208652
24.57096 -6.971036 4.077604
26.46243 -7.25838 0.8316189
24.68817 -6.954916 1.542178
21.92318 -7.291553 16.81022
21.47928 -8.548609 16.83017
22.72642 -7.51474 14.27937
21.85097 -8.23916 11.96099
24.56368 -8.547093 8.01195
23.69595 -8.62559 7.443787
24.31303 -8.741065 7.774809
26.00146 -7.579602 2.165729
24.8678 -8.260603 5.989407
24.90903 -8.217718 5.536204
25.10802 -8.054608 3.264213
33.53758 -8.464393 6.706629
32.7267 -8.510231 3.570478
33.28788 -8.696219 6.055526
32.97699 -6.940527 10.8339
33.08829 -7.029765 10.37018
32.51584 -6.737125 13.35546
32.60491 -6.335803 12.59174
33.03293 -6.745075 9.162374
32.94181 -6.702641 8.320254
32.51831 -7.353704 1.420009
32.60646 -7.411712 1.099586
23.30068 -7.70875 10.18942
22.81604 -6.758944 11.45948
22.75527 -6.51146 12.45116
23.88964 -7.600398 8.364771
24.39689 -7.113958 4.486557
24.30442 -7.210814 4.519063
24.52103 -7.022908 3.065615
25.4763 -6.877602 0.9969649
24.48668 -7.074697 2.217006
21.02683 -7.137532 17.24148
21.54857 -8.409307 16.58947
22.77003 -7.461288 14.12239
22.8693 -8.065796 9.530466
22.54048 -8.207485 9.610101
23.67456 -8.620684 7.235065
23.91203 -8.766574 7.559833
22.25332 -7.368449 15.86247
25.69365 -7.69008 2.173295
25.02058 -8.192764 2.722294
25.47964 -7.779635 2.493277
24.75572 -8.442546 5.755137
33.14973 -8.726043 5.89816
32.66453 -8.116828 2.070998
33.65255 -8.008124 7.536158
32.83246 -6.710577 11.10061
33.22691 -7.198843 10.02647
32.60238 -6.635561 13.25865
32.65831 -6.707307 12.15229
33.23003 -6.892042 8.426901
32.12149 -7.410407 0.9568911
33.31517 -7.45509 2.328529
33.2718 -6.962598 5.929887
22.82471 -6.968479 10.58784
22.5465 -6.115133 12.99776
21.92256 -7.04706 16.35649
24.34032 -7.199582 2.970551
23.99508 -7.549966 6.248441
23.59413 -7.726181 9.460104
24.42449 -7.140379 1.874253
20.97593 -8.104081 17.10856
22.67353 -7.248582 15.27877
21.92457 -8.365413 11.52289
22.36992 -8.300178 9.512139
23.39389 -8.219537 8.542685
26.25284 -7.540299 1.64395
24.91979 -8.303156 3.41753
24.85067 -8.315255 5.24965
25.16771 -8.076321 2.113909
32.76334 -8.573287 3.161797
32.69204 -8.279918 2.10708
33.61811 -7.776107 8.101889
32.67926 -6.784777 12.09846
32.36483 -6.441546 13.60223
33.08446 -6.866833 9.656636
32.95383 -6.81229 10.57417
33.445 -7.516547 2.532079
33.19624 -6.882981 6.611611
22.95833 -7.488556 9.995247
22.77847 -6.414633 11.50044
22.088 -6.017559 14.54622
23.62294 -7.747779 8.755998
24.17247 -7.38256 4.029701
23.81204 -7.696274 7.135868
24.83649 -6.880372 1.054836
21.23022 -7.430538 17.11937
22.7608 -7.231041 14.85338
21.95363 -7.872974 12.26654
22.52248 -8.129218 8.14892
22.38034 -8.280893 9.276979
23.79283 -8.779863 6.455087
24.3694 -8.837934 6.022232
24.88144 -8.314197 4.257458
24.82043 -8.434911 3.96151
24.56229 -8.6915 5.944574
32.80949 -8.64332 3.000459
32.71654 -8.395286 2.133172
33.7021 -8.004579 6.802526
33.45636 -7.428574 8.925582
32.36352 -7.515942 1.498748
32.5587 -6.514807 14.05654
33.50405 -7.660276 1.99298
23.24452 -7.710184 9.828296
22.82167 -7.038996 10.00266
22.81618 -6.870668 9.987923
22.60999 -6.085644 12.15462
21.87188 -6.790359 15.7646
24.16952 -7.439832 2.040634
24.16839 -7.454163 1.616293
24.02256 -7.559023 4.496643
23.83336 -7.694152 6.543467
21.95013 -7.363872 16.51035
21.17263 -7.937835 16.91619
22.29677 -7.695786 12.56222
21.92404 -8.395827 10.85065
22.50957 -8.123958 7.932784
23.67225 -8.667618 6.510897
24.04788 -8.904327 6.135029
25.81245 -7.685043 1.523157
24.78762 -8.585786 2.425349
24.67233 -8.650434 4.339055
24.6129 -8.649747 5.615313
32.90573 -8.73597 3.222407
32.80952 -8.635752 2.465056
33.25871 -7.013997 8.921197
33.37774 -7.050631 8.01256
33.50611 -7.41055 3.488055
33.07158 -7.521019 1.159362
22.96612 -7.548095 9.357948
22.80793 -6.998187 9.37268
22.74466 -6.291304 11.48258
21.81802 -6.452043 15.16586
23.50992 -7.767491 9.060245
23.96509 -7.617483 4.678211
23.93304 -7.6589 4.34616
23.42324 -7.767992 9.204861
21.62552 -7.34555 16.31404
21.436 -8.613911 16.42765
22.84343 -7.252489 13.87971
21.79711 -8.077884 11.71776
22.61077 -8.118785 8.787252
24.51997 -8.743474 5.773154
23.88109 -8.858834 6.128725
22.24846 -7.413991 15.48569
24.71202 -8.727638 1.955428
25.24969 -8.10335 1.3223
33.00992 -8.799528 3.162792
33.61132 -8.430555 5.78565
33.61784 -7.451557 7.076277
33.47774 -7.225321 7.848508
33.58767 -7.452919 3.820502
33.45739 -7.102707 5.539914
22.99016 -7.634069 8.531774
22.798 -6.922173 8.985897
22.49795 -5.981867 12.496
22.03677 -7.241715 16.01639
24.09059 -7.543412 1.788849
23.89062 -7.720976 3.427195
23.78596 -7.760023 5.473406
24.23975 -7.334677 1.069348
20.87268 -8.160424 16.91652
22.2126 -7.709931 12.35916
21.85159 -8.351911 10.92746
22.67053 -8.059641 8.106562
22.54903 -8.061846 7.242264
23.62267 -8.620923 6.354045
23.94462 -8.93234 5.508967
24.37506 -8.884492 5.311107
24.68476 -8.730608 2.702398
33.67393 -8.338887 5.593098
33.28155 -8.7698 4.519473
33.71922 -7.883614 6.586083
33.51259 -7.152723 6.847866
33.70613 -7.929768 1.94719
23.06986 -7.702768 8.479316
22.77038 -7.135399 7.984732
22.80502 -6.723373 9.417513
22.46799 -5.957951 12.19289
21.9108 -7.493993 16.36292
23.32418 -7.862745 7.072004
23.76296 -7.789292 4.958831
23.19091 -7.731835 9.093307
21.03503 -7.314436 16.82491
22.60506 -7.100986 14.91213
22.05436 -7.752504 12.07025
22.76723 -8.019041 8.05988
22.82187 -7.99267 7.677225
23.59288 -8.761239 4.114723
24.369 -8.888956 5.30313
24.63103 -8.78551 3.144267
25.43297 -7.92746 1.47301
33.35603 -8.751939 4.392706
33.74157 -7.913687 6.05274
33.66562 -7.582228 3.806072
33.53865 -7.788042 1.295911
22.91676 -7.57394 8.210598
22.80228 -6.493965 10.32041
21.88502 -6.710801 15.11105
23.39104 -7.886791 6.253458
23.84551 -7.773945 2.099625
24.06234 -7.547668 1.097183
20.85023 -8.586358 16.64798
22.83642 -7.066127 13.86494
22.82827 -8.003975 7.934779
22.40014 -8.145169 7.173147
23.44086 -8.330436 6.30915
23.53766 -8.55614 5.41754
23.17149 -8.048635 7.836559
22.19501 -7.559447 15.3691
24.49383 -8.916656 3.452919
33.64506 -8.477656 4.873526
32.99488 -8.823111 2.149539
33.63937 -7.469606 6.779361
33.67484 -7.537287 4.339254
33.52169 -7.8049 1.13162
22.85667 -7.526924 7.613585
22.77693 -6.404975 10.03941
21.99642 -5.803149 13.53919
23.5628 -7.897887 4.257096
23.22304 -7.773457 8.540827
23.74296 -7.8334 1.987998
21.55263 -7.129012 15.87919
21.622 -7.908609 15.75891
22.75518 -7.359883 12.84454
21.84484 -8.381146 9.920271
22.23287 -8.213852 6.704193
22.80489 -7.982993 7.407509
23.51446 -8.584121 4.520888
23.18876 -8.053093 7.523737
24.50393 -8.952654 2.437031
33.58024 -8.566 4.737704
33.10048 -8.879185 2.123511
33.76471 -8.007549 5.291267
33.70852 -7.599737 4.713844
33.74466 -7.89845 2.879376
22.92339 -7.6692 6.943711
22.69227 -7.039526 6.901265
22.73816 -6.321243 10.00856
21.77392 -6.341898 14.50492
23.44916 -7.92791 3.714617
23.59736 -7.89317 3.047301
21.43073 -6.868128 16.00076
22.56098 -7.142051 14.79387
21.91067 -7.764651 11.46722
21.95549 -8.379216 7.932611
22.25587 -8.176308 6.304215
23.31328 -8.153753 6.408678
23.72203 -8.95048 3.570236
23.11915 -8.025887 7.587985
24.43768 -9.008077 2.530765
33.64393 -8.491322 4.725291
33.1448 -8.894044 2.035403
33.77959 -8.1302 4.54562
33.70755 -7.629097 4.255897
33.75412 -8.052982 1.41231
22.75311 -7.414422 6.466752
22.69739 -6.359996 9.312944
22.00169 -5.929856 13.2603
21.95028 -7.537008 15.93662
23.29215 -7.923812 4.95692
23.47737 -7.920052 3.081684
21.13829 -7.414455 16.70271
22.81368 -6.904967 13.57611
21.67196 -8.192078 10.33484
22.46241 -8.055643 6.311635
23.06088 -7.992125 6.979568
23.31008 -8.15027 5.984577
23.54067 -8.721484 3.489761
23.63035 -8.922664 2.731723
24.30503 -9.10414 2.11522
24.25175 -9.123518 2.183215
33.23329 -8.918097 1.987482
33.78365 -8.053422 3.973197
33.72584 -7.659599 5.047528
33.78241 -8.077395 3.131096
22.83225 -7.583329 6.482189
22.65333 -6.614897 7.814917
22.35656 -6.031224 11.45532
22.19426 -7.059529 14.88715
23.07584 -7.851656 5.61446
23.5287 -7.906747 2.246056
21.05817 -7.36769 16.66863
22.73829 -7.212254 12.596
21.66428 -8.179627 10.31982
22.10271 -8.271028 6.389658
22.30575 -8.107935 5.578943
23.26257 -8.102844 5.845234
23.50176 -8.716725 2.740437
23.72958 -8.982882 3.180055
24.25525 -9.149239 1.859457
33.46809 -8.815482 2.893027
33.78537 -8.372038 3.237982
33.80071 -8.297545 2.419053
22.74267 -7.425847 6.193471
22.59416 -6.579848 7.61034
22.23808 -6.096821 11.72644
22.24951 -7.130912 14.84701
23.16903 -7.904328 4.856553
23.28776 -7.916003 2.515576
22.38664 -7.393403 11.33947
22.16285 -7.476261 10.93321
22.0271 -8.278276 5.861053
22.16126 -8.177033 5.212726
23.15965 -8.024023 6.435568
23.46749 -8.676576 2.376115
23.36351 -8.310293 3.640985
24.02381 -9.070748 3.776305
33.38359 -8.897412 2.297753
33.76987 -8.420076 3.464681
22.7179 -7.393289 6.050702
22.59048 -6.622532 7.413768
22.45203 -6.165531 9.945976
22.0215 -6.013844 13.69813
23.21161 -7.923301 3.520264
23.22922 -7.902146 2.342904
22.47749 -7.365781 11.58538
21.63711 -8.181526 9.92758
22.61103 -7.946192 5.28889
21.63769 -8.311372 8.403789
23.19415 -8.046994 5.098625
23.96612 -9.084073 3.459542
24.17613 -9.205373 1.574105
33.77114 -8.500545 2.855163
22.81091 -7.613479 5.817083
22.4901 -6.618743 6.970944
22.3433 -6.213437 10.00269
21.98009 -6.103018 13.7082
23.14843 -7.904617 3.715306
23.30977 -7.880885 1.473325
22.50591 -7.446755 14.63349
22.39452 -7.342131 11.1922
21.65667 -8.335589 7.632783
22.3738 -8.004907 4.487385
23.12046 -7.997926 5.002443
23.32933 -8.278229 2.78601
33.6594 -8.716791 2.7427
22.82515 -7.635012 5.804194
22.40216 -6.775757 5.868283
22.50189 -6.328046 8.682598
22.19748 -6.347785 12.01013
22.27707 -7.118006 14.70994
23.02546 -7.859028 4.222689
21.72258 -7.464589 15.40125
22.64537 -6.947834 12.37665
21.58566 -8.035004 9.844146
22.57031 -7.929704 4.691879
21.60892 -8.293994 8.281369
23.33326 -8.295029 2.528245
33.65536 -8.760149 2.488704
22.61716 -7.333973 5.06764
22.10976 -6.717906 5.407211
22.32321 -6.462752 7.498787
22.22898 -6.418597 11.97161
22.25487 -6.926991 14.16813
22.97032 -7.831424 3.296113
23.06135 -7.801693 1.382129
22.51666 -6.46703 13.60724
21.72525 -7.747345 10.36197
21.82421 -8.339461 5.742492
21.94169 -8.282636 4.966677
22.85626 -7.897765 4.650041
23.20302 -8.067654 3.196568
33.36727 -9.014182 1.286391
22.3403 -6.779797 5.58055
22.16318 -6.581398 6.52776
22.23067 -6.402685 9.638464
22.22409 -6.408352 12.87882
22.90662 -7.78261 2.459803
22.78797 -7.700583 3.883145
22.53556 -7.105697 11.29308
21.78201 -7.671437 10.34619
21.54691 -8.296483 6.674953
22.48898 -7.911315 3.793741
22.35233 -7.94059 3.199709
23.27426 -8.176786 2.282069
23.95002 -9.237074 1.36041
22.40132 -6.88434 5.338755
22.01794 -6.634664 6.188619
22.22478 -6.382207 9.174573
22.40582 -6.645025 11.76373
22.11816 -6.763488 13.96131
22.6916 -7.624763 3.333687
21.5217 -8.318278 15.53519
22.48108 -6.552711 13.02149
21.50492 -7.92634 9.064491
21.4559 -8.240868 6.303811
21.99439 -8.145901 2.910239
22.91983 -7.886028 3.711174
23.1712 -8.028673 2.982045
22.43992 -7.0736 4.717801
21.85183 -6.881021 3.876307
22.14099 -6.50765 7.338404
22.24081 -6.555173 10.15037
22.37156 -6.31547 13.60709
22.70645 -7.648001 2.53634
22.49903 -7.044181 11.0711
22.46325 -7.047317 10.85184
21.6423 -8.336526 5.004354
22.18874 -8.01221 2.820068
22.87206 -7.880809 3.948396
23.41807 -8.738264 1.362828
22.453 -7.252696 3.955457
21.72214 -6.921216 3.526376
21.9998 -6.60638 6.78671
22.13822 -6.573081 9.172988
22.37557 -6.62022 11.91797
22.5329 -7.523369 1.302604
22.18142 -7.207445 10.00908
21.39553 -7.958418 7.878414
22.67081 -7.85728 3.47645
22.17782 -7.955595 2.021435
22.97435 -7.890584 2.896627
22.39104 -7.157362 4.00107
21.59691 -6.905721 4.311665
21.74918 -6.781545 5.990253
22.35318 -6.785855 10.50699
22.59892 -7.56999 1.878496
22.58554 -7.086931 14.00398
21.69887 -7.635059 9.718838
21.5347 -8.317598 4.587784
21.91266 -8.218407 3.275049
22.89579 -7.859649 2.94044
21.87311 -6.997838 2.915295
21.66288 -6.974465 3.03317
21.73686 -6.793934 5.611217
22.10254 -6.730445 9.142744
22.5165 -7.491589 2.135718
22.52234 -7.465215 2.969778
21.85033 -7.246093 8.917094
21.56637 -7.586523 8.719254
21.44464 -8.276392 4.732362
21.72096 -8.262978 2.453205
22.59813 -7.797166 1.940496
22.02345 -6.994151 3.267909
21.52662 -7.063689 2.374694
21.4192 -7.030125 4.097785
21.8855 -6.72262 7.644238
22.06178 -6.829501 9.061046
22.356 -7.31193 2.708579
21.72956 -7.365982 8.804
21.45737 -7.740798 8.384559
21.33401 -8.183233 5.17117
22.81858 -7.820369 2.294585
22.00051 -7.054884 2.793003
21.13595 -7.289975 2.699047
21.20737 -7.227463 3.285507
21.6824 -6.846787 6.147279
22.21302 -6.838264 9.835014
22.29426 -7.754691 14.61861
21.28103 -7.768304 6.61612
21.36337 -8.252822 4.053622
22.12566 -7.096022 2.931763
21.71858 -7.125881 1.742567
21.4721 -7.016737 5.192332
21.78814 -6.836698 7.436325
22.13115 -7.263417 1.524636
21.48256 -7.494081 7.914788
21.2984 -8.186585 4.440136
21.92129 -8.122493 1.633046
22.24405 -7.219562 2.655045
21.94005 -7.138573 1.996234
21.39935 -7.15189 5.540212
21.62111 -7.128399 7.487168
22.1262 -7.212329 2.069809
21.49009 -7.447237 7.812038
21.19126 -7.815001 5.580812
21.43502 -8.30277 2.964885
21.0217 -7.360673 1.620083
21.06541 -7.43581 3.053079
21.47149 -7.113661 6.066222
21.53063 -7.222538 7.217594
21.2811 -7.649897 6.562275
21.20381 -8.178337 3.549441
21.48084 -8.298769 1.790677
21.34821 -7.190778 1.30126
21.32676 -7.220712 5.107052
21.44744 -7.215369 6.480453
21.10727 -7.930645 4.395213
21.50915 -8.313657 1.640281
20.94391 -7.755726 2.631693
21.28757 -7.358068 5.622765
21.18362 -8.216135 2.978737
20.95906 -7.422351 1.444908
21.09981 -7.519392 4.024279
21.08391 -7.918883 4.214054
20.91586 -7.473369 1.212021
21.12184 -7.550567 4.494318
21.12967 -7.61925 4.861394
20.84311 -7.609283 1.289752
21.04882 -7.851256 4.002565
20.87507 -8.055297 1.769502
20.80392 -7.81459 1.312263
20.80844 -8.066204 1.207861