####
#
# OBJ File Generated by Meshlab
#
####
# Object border.obj
#
# Vertices: 632
# Faces: 338
#
####
mtllib ./border.obj.mtl

vn 0.397930 -0.143295 1.280664
v 44.455612 -2.469658 18.898779
vn 0.236195 -0.154237 1.341022
v 44.648819 -2.469967 18.865250
vn 0.501988 -0.190252 1.695194
v 44.452499 -2.507179 18.895548
vn 0.085195 -0.167462 1.389341
v 44.876228 -2.468960 18.851778
vn 0.683729 -0.197110 1.618071
v 44.276703 -2.501223 18.950838
vn 0.282832 -0.197725 1.711360
v 44.647560 -2.507473 18.861158
vn 0.090446 -0.488874 2.868957
v 45.121227 -2.467162 18.846239
vn 0.547596 -0.154124 1.251544
v 44.281254 -2.463697 18.953468
vn 0.100534 -0.213954 1.712707
v 44.875919 -2.506443 18.847279
vn 0.170762 -0.048216 0.350948
v 44.106140 -2.485271 19.027430
vn 0.000277 -0.032488 0.230102
v 45.612301 -2.500545 18.825069
vn -0.019361 -0.179424 1.414498
v 45.852642 -2.461440 18.833319
vn 1.299265 -0.347108 2.244259
v 43.942837 -2.440516 19.122299
vn -0.028813 -0.216122 1.702630
v 45.853374 -2.498887 18.828579
vn -0.069591 -0.180782 1.414434
v 46.091797 -2.460241 18.845249
vn 1.628312 -0.434585 2.809203
v 43.940952 -2.477695 19.117640
vn -0.087822 -0.217027 1.697467
v 46.092728 -2.497685 18.840509
vn -0.261176 -0.386079 2.896123
v 46.331264 -2.459595 18.863779
vn 0.678585 -0.186400 1.098787
v 43.778473 -2.460683 19.221659
vn 0.960290 -0.261531 1.554033
v 43.781277 -2.496867 19.213789
vn -0.276984 -0.399029 3.102682
v 46.332325 -2.497040 18.859058
vn -0.136717 -0.189674 1.483112
v 47.039169 -2.460289 18.945189
vn -0.366360 -0.777931 3.018596
v 46.570259 -2.496909 18.883169
vn -0.150947 -0.214278 1.620640
v 47.040237 -2.497739 18.940498
vn 0.858805 -0.323725 1.538999
v 43.617531 -2.545833 19.306608
vn 0.646227 -0.251945 1.172166
v 43.608906 -2.511847 19.318668
vn -0.184339 -0.173143 1.413567
v 48.002537 -2.461765 19.042509
vn -0.025107 -0.025681 0.207421
v 47.769646 -2.498581 19.007629
vn -0.319705 -0.168215 1.384660
v 48.218903 -2.463078 19.092129
vn -0.967308 -0.346544 2.585833
v 48.419163 -2.465025 19.157898
vn 0.560787 -0.408258 1.221159
v 43.425735 -2.597601 19.403479
vn 0.708754 -0.488282 1.513575
v 43.440147 -2.627640 19.386818
vn -0.236269 -0.206325 1.685812
v 48.003929 -2.499251 19.038099
vn -0.577950 -0.188253 1.210386
v 48.604832 -2.467577 19.236609
vn 0.491792 -0.693617 1.167056
v 43.237404 -2.719465 19.454109
vn -0.399466 -0.203349 1.659204
v 48.220753 -2.500590 19.087999
vn -0.757038 -0.246352 1.605372
v 48.604500 -2.504685 19.230679
vn 0.592707 -0.790352 1.393472
v 43.256729 -2.741065 19.433128
vn -1.090203 -0.389974 2.909308
v 48.420731 -2.502450 19.153469
vn -0.147146 -0.062403 0.296348
v 48.787823 -2.526843 19.314768
vn 0.172416 -0.186074 0.178602
v 43.074886 -2.884887 19.424278
vn 1.306939 -0.894125 0.751847
v 42.963554 -3.029615 19.371389
vn -1.116776 -0.659831 2.293256
v 48.996552 -2.556355 19.415049
vn 3.100060 -1.770714 1.953314
v 42.985085 -3.018098 19.347658
vn -1.417792 -0.831526 2.897417
v 48.986450 -2.588474 19.400888
vn 1.579293 0.103596 1.522618
v 43.077774 -3.099691 19.190680
vn -0.129308 -0.123741 0.223743
v 49.180241 -2.685644 19.460678
vn -0.508189 -0.640599 0.650803
v 49.369980 -2.806672 19.489708
vn 0.678906 0.058965 0.662493
v 43.063999 -3.124990 19.207048
vn 1.210677 0.133767 1.338693
v 43.270981 -3.148369 18.997019
vn 0.871074 0.097497 0.970063
v 43.265778 -3.182665 19.005138
vn -0.862802 -0.681719 0.464621
v 49.436623 -2.957976 19.417738
vn -1.091460 -1.311367 1.296043
v 49.349041 -2.814422 19.465729
vn 0.171966 0.032087 0.190961
v 43.482712 -3.182836 18.810358
vn -1.385418 -1.012976 0.765604
v 49.415581 -2.947729 19.393698
vn 1.879422 0.475012 2.081721
v 43.687042 -3.246533 18.640419
vn -2.075276 -0.038501 1.651155
v 49.316433 -3.083106 19.239029
vn 1.098676 0.148068 1.311152
v 43.861366 -3.232875 18.479919
vn -2.566206 0.049199 2.183425
v 49.302593 -3.058490 19.222208
vn 0.901885 0.110293 1.084484
v 43.861404 -3.270452 18.483709
vn -0.156300 0.016490 0.167288
v 49.098782 -3.132923 19.016178
vn 0.961751 0.153065 1.449823
v 44.033134 -3.249657 18.338779
vn 0.760097 0.124485 1.174911
v 44.034008 -3.287272 18.342199
vn 0.642083 0.129981 1.248550
v 44.234810 -3.292285 18.212978
vn -0.912038 0.106021 1.054376
v 48.892563 -3.194690 18.844009
vn 0.805216 0.159716 1.531842
v 44.233120 -3.254649 18.209929
vn 1.052187 0.008040 2.648925
v 44.692471 -3.280682 18.001278
vn -1.088579 0.113084 1.262244
v 48.892891 -3.157250 18.840528
vn 0.536726 0.128455 1.285678
v 44.934181 -3.271910 17.908859
vn 0.122763 0.014263 0.269864
v 44.454666 -3.251305 18.095648
vn -1.841662 -0.177971 2.259509
v 48.498772 -3.184072 18.520418
vn 0.493465 0.148101 1.330120
v 45.173786 -3.267021 17.808878
vn 0.666292 0.147141 1.602540
v 44.933144 -3.234348 17.905539
vn -1.952930 -0.411454 2.437788
v 48.691582 -3.154161 18.679928
vn 0.594269 0.174990 1.585230
v 45.171524 -3.229487 17.805538
vn -0.174565 -0.000511 0.247334
v 48.310932 -3.143220 18.370378
vn 0.092272 0.034860 0.324221
v 45.394928 -3.226535 17.722328
vn 0.271239 0.132777 1.272340
v 45.596401 -3.261054 17.682980
vn -0.747630 0.074077 1.219004
v 48.109043 -3.191782 18.249508
vn 0.280138 0.247561 2.847300
v 45.967411 -3.256483 17.630798
vn -0.161115 0.118309 1.440112
v 46.166794 -3.256543 17.619219
vn 0.356185 0.176477 1.705010
v 45.592064 -3.223533 17.679989
vn -0.848289 0.073351 1.397081
v 48.107975 -3.154197 18.246569
vn -1.283866 -0.234973 2.565639
v 47.718296 -3.244415 18.043308
vn 0.308783 0.269198 3.092818
v 45.964985 -3.218900 17.627769
vn -0.157637 0.139493 1.692931
v 46.165810 -3.218919 17.616018
vn -0.033249 0.019440 0.240108
v 46.390446 -3.222187 17.641418
vn -0.624611 0.223926 2.834433
v 46.871628 -3.266459 17.739698
vn -0.144647 -0.000612 0.317526
v 47.525703 -3.231574 17.948109
vn -0.675497 0.241533 3.056604
v 46.872696 -3.228810 17.736959
vn -0.087043 0.025341 0.303804
v 47.108601 -3.231496 17.795019
vn -0.954436 0.226089 2.589756
v 47.324627 -3.273687 17.869209
vn -1.091190 0.259239 2.969755
v 47.324902 -3.236089 17.866028
vn 0.560366 -0.282779 0.227482
v 53.686802 -2.710287 17.962879
vn 0.151825 2.060110 0.387557
v 53.663010 -2.665720 17.735298
vn 0.856935 -1.337196 0.209868
v 53.620132 -2.778086 17.803118
vn 0.301087 0.934404 0.241014
v 53.864979 -2.652601 17.586441
vn 0.563049 -1.132739 0.095627
v 53.836582 -2.662864 17.653456
vn 0.321052 0.539897 0.180572
v 53.839382 -2.562942 17.363878
vn 0.409449 -1.037935 0.033914
v 53.766113 -2.698379 17.417309
vn 1.439171 0.387410 0.578231
v 53.920731 -2.636655 17.439638
vn 0.068027 -0.000666 -1.383914
v 49.567032 -1.725305 -0.671194
vn 0.088388 0.058937 -1.548608
v 49.969242 -1.745061 -0.651594
vn 0.073820 0.035210 -1.500489
v 49.775291 -1.716240 -0.660671
vn 0.065453 0.001380 -1.618564
v 50.139313 -1.820313 -0.645277
vn 0.024508 -0.051635 -1.655417
v 50.281193 -1.925173 -0.640209
vn 0.080303 0.036881 -1.632307
v 49.773571 -1.728359 -0.661040
vn 0.089627 0.059170 -1.579085
v 49.963501 -1.756447 -0.652355
vn 0.060074 0.027175 -1.267389
v 49.354042 -1.763716 -0.681842
vn 0.062278 0.003894 -1.511238
v 50.129803 -1.830198 -0.645670
vn 0.049141 0.059097 -1.203440
v 49.147991 -1.829131 -0.693108
vn 0.086027 0.000421 -1.752165
v 49.569130 -1.737511 -0.671085
vn 0.023786 -0.043292 -1.469365
v 50.268600 -1.933202 -0.640145
vn 0.051977 0.057414 -1.208711
v 48.960594 -1.919212 -0.705480
vn 0.026378 -0.045928 -1.623382
v 50.390572 -2.042819 -0.634881
vn 0.088314 0.041757 -1.871343
v 49.359341 -1.775477 -0.681843
vn 0.024583 -0.043315 -1.521340
v 50.376030 -2.049050 -0.634941
vn 0.079216 0.094996 -1.936571
v 49.155800 -1.840186 -0.693332
vn 0.086348 0.088390 -1.955458
v 48.970154 -1.929572 -0.705561
vn 0.202712 -0.002736 -3.010594
v 48.783234 -2.025169 -0.718060
vn 0.004091 -0.007205 -0.256512
v 50.468056 -2.199932 -0.629177
vn 0.045841 -0.081248 -2.903812
v 50.523632 -2.304460 -0.625375
vn 0.002696 0.001218 -0.062879
v 48.264641 -2.377724 -0.752658
vn -0.026451 -0.060652 -1.426983
v 50.594852 -2.580757 -0.616520
vn -0.033815 -0.072095 -1.667236
v 50.610661 -2.576401 -0.617029
vn 0.024929 0.051380 -1.311853
v 47.883732 -2.584728 -0.768004
vn 0.075129 -1.882791 -0.213106
v 39.835175 -4.486064 12.640828
vn -0.056681 -0.099496 -1.828677
v 50.676514 -2.703089 -0.613110
vn 0.026137 -0.073665 -1.394101
v 46.823334 -2.958857 -0.785722
vn 0.096188 -1.227809 0.104980
v 39.813835 -4.493934 12.793278
vn 0.035186 0.071016 -1.855458
v 47.893459 -2.595039 -0.768223
vn -0.039729 -0.070602 -1.320786
v 50.661861 -2.709059 -0.612331
vn -0.003889 -0.030413 -1.881097
v 50.913731 -2.907000 -0.607831
vn -0.029129 -0.077673 -1.889528
v 50.779892 -2.814475 -0.609951
vn 0.022821 0.015152 -1.282224
v 47.687134 -2.682020 -0.772923
vn 0.033689 -0.045138 -1.412093
v 47.047550 -2.906215 -0.784081
vn 0.023256 -0.064692 -1.412312
v 46.593552 -2.996350 -0.787693
vn 0.006194 -0.046859 -1.529299
v 46.125648 -3.043080 -0.787928
vn -0.237567 -0.176093 -0.050614
v 39.681564 -4.491465 12.943348
vn -0.303353 -0.367712 -0.067994
v 39.753765 -4.472871 12.495567
vn -0.006970 -0.026564 -1.823894
v 51.070953 -2.977108 -0.607018
vn -0.020999 -0.053202 -1.262243
v 50.767212 -2.822394 -0.609430
vn 0.041556 -0.057199 -1.753585
v 47.053127 -2.918070 -0.783569
vn 0.032529 -0.091647 -1.741575
v 46.827755 -2.970971 -0.784999
vn -0.005374 -0.025893 -1.590041
v 45.653969 -3.054610 -0.785384
vn 0.432015 0.608527 -4.105853
v 39.049023 -2.924508 16.181448
vn 0.136155 -2.048507 0.049403
v 39.727673 -4.503664 12.758425
vn 0.159199 -0.097679 -0.834256
v 54.180664 -2.713087 16.341278
vn 0.178365 -0.634991 -1.647039
v 54.354832 -2.652091 16.343559
vn 0.033251 0.021469 -1.856518
v 47.695957 -2.692770 -0.772893
vn 0.027617 0.004884 -1.291523
v 47.480553 -2.767070 -0.777780
vn -0.004921 -0.019395 -1.323206
v 51.063423 -2.988178 -0.606828
vn -0.003766 -0.022650 -1.268841
v 50.903522 -2.916766 -0.607652
vn -0.015873 -0.022496 -1.663488
v 45.183903 -3.031801 -0.781184
vn 0.038972 0.005867 -1.819251
v 47.488373 -2.778235 -0.777655
vn 0.027635 -0.077391 -1.698382
v 46.596886 -3.008665 -0.787074
vn 0.006184 -0.050560 -1.634080
v 46.127079 -3.055619 -0.787538
vn 0.341997 -0.585472 -3.295644
v 38.854717 -2.669371 16.155369
vn 0.263889 0.151659 -0.994770
v 38.707218 -3.084106 16.071768
vn -1.124072 1.231202 -0.373744
v 39.769566 -4.454326 12.801018
vn -1.759622 1.267270 0.001701
v 39.778008 -4.439428 12.658498
vn -1.130096 1.064418 -0.221617
v 39.730648 -4.505311 12.750111
vn 0.642237 -0.071257 -1.231661
v 53.734562 -2.690173 16.219679
vn 0.432309 -0.136986 -1.231802
v 53.941101 -2.719310 16.296259
vn -0.007842 -0.024143 -1.407910
v 51.239304 -3.037414 -0.606783
vn -0.009832 -0.030011 -1.736175
v 51.244110 -3.025509 -0.607016
vn -0.029585 -0.028578 -1.664249
v 44.952106 -3.007013 -0.777552
vn -0.014276 -0.123747 -3.092188
v 45.890636 -3.066945 -0.785983
vn 0.000859 0.152921 -1.892984
v 43.543056 -2.442164 -0.729111
vn 0.294164 -0.544930 -1.887844
v 38.635704 -2.598370 16.113489
vn 0.013509 -0.007144 -0.186247
v 39.025742 -2.790879 16.182838
vn 0.025370 0.029269 -0.135116
v 38.930748 -3.019086 16.140978
vn 0.185671 0.358788 -0.876886
v 38.514515 -3.180944 15.994798
vn -0.004406 -0.655531 -1.384199
v 38.276257 -2.385262 15.997308
vn 0.423797 -0.272057 -2.237527
v 54.172920 -2.703246 16.338648
vn 0.590236 -0.189287 -1.699990
v 53.940804 -2.705689 16.294640
vn 0.547925 -0.390551 -1.334204
v 54.265083 -2.365795 16.209318
vn -0.499895 0.489757 0.006575
v 53.061543 -3.769787 14.167638
vn -0.005423 -0.024356 -1.574646
v 45.653698 -3.067196 -0.785188
vn -0.014809 -0.020554 -1.505211
v 45.181786 -3.044283 -0.780995
vn -0.026716 -0.000776 -1.699142
v 44.724159 -2.967702 -0.773773
vn -0.025787 0.035658 -1.742925
v 44.501068 -2.914628 -0.769129
vn -0.015118 0.111613 -1.816640
v 43.884117 -2.668308 -0.747508
vn -0.014060 0.137408 -1.809012
v 43.393509 -2.319804 -0.718797
vn 0.157018 -0.584771 -1.596520
v 38.420509 -2.523137 16.059799
vn 0.185155 0.233896 -1.849545
v 39.065929 -2.928481 16.182638
vn 0.168288 -0.310114 -1.091050
v 38.648731 -2.586938 16.112219
vn 0.241792 -0.431958 -2.731776
v 38.867546 -2.659344 16.154919
vn 0.529601 0.320040 -2.007415
v 38.718838 -3.095142 16.073168
vn 0.061455 0.030688 -0.114936
v 53.551041 -2.652755 16.121819
vn 0.795623 -0.092340 -1.544206
v 53.734894 -2.675237 16.218988
vn 0.460737 -1.486646 -4.059479
v 54.339600 -2.647989 16.340328
vn 0.040547 -0.062771 -0.174473
v 54.349144 -2.520000 16.288979
vn 0.647738 -0.162441 -1.277409
v 54.107742 -2.257025 16.118488
vn -0.569438 -0.353145 0.222534
v 53.092663 -3.698186 14.296798
vn -0.012493 0.006271 -1.644037
v 51.425793 -3.052913 -0.607315
vn -0.011259 0.004283 -1.498936
v 51.423542 -3.065262 -0.607345
vn -0.026148 -0.024446 -1.477249
v 44.948895 -3.019354 -0.777283
vn -0.035277 0.051058 -1.791395
v 44.283844 -2.848547 -0.762902
vn -0.010434 0.079924 -1.290038
v 43.874004 -2.678353 -0.748041
vn -0.000046 0.103055 -1.280245
v 43.530846 -2.450872 -0.729820
vn 0.134217 -0.480842 -1.326590
v 38.435371 -2.514071 16.057940
vn 0.407901 0.832551 -1.982591
v 38.528851 -3.189096 15.994498
vn -0.201929 0.731508 -0.946379
v 38.347271 -3.443010 15.808467
vn -0.189190 -0.616517 -1.094603
v 38.218342 -2.221810 15.922988
vn 0.003469 -0.676404 -1.446289
v 38.293552 -2.381153 15.995307
vn 0.368876 0.623200 -0.792656
v 53.568832 -2.257507 15.797408
vn 1.365342 1.620091 -2.501105
v 53.395443 -2.689753 16.012049
vn 0.605953 -0.417048 -1.460610
v 54.252583 -2.375338 16.206978
vn 1.385306 0.264712 -2.336448
v 53.921223 -2.200072 16.019178
vn -1.180215 -0.027406 0.916366
v 53.003380 -3.826891 13.999087
vn -1.802799 1.496575 0.087366
v 53.067871 -3.762833 14.130768
vn -0.053585 -0.006759 0.045803
v 52.896931 -3.881462 13.866498
vn -0.021954 0.009743 -1.516404
v 51.611111 -3.060558 -0.608716
vn -0.022639 0.000517 -1.443167
v 44.719677 -2.979815 -0.773697
vn -0.020980 0.029084 -1.398986
v 44.495193 -2.926404 -0.769283
vn -0.036656 0.068974 -1.819436
v 44.076767 -2.767195 -0.755543
vn -0.025899 0.051629 -1.322643
v 44.067993 -2.777925 -0.755773
vn -0.010059 0.096177 -1.268095
v 43.380577 -2.327960 -0.719316
vn -0.030828 0.121449 -1.759447
v 42.886490 -1.818032 -0.675460
vn -1.539069 -0.331051 -2.273502
v 38.528584 -1.865594 15.620439
vn 0.011828 0.573354 -0.753250
v 38.380543 -3.300519 15.907357
vn -0.899686 1.395841 -1.971392
v 38.394508 -3.577997 15.700017
vn -0.264115 -0.901579 -1.614774
v 38.236462 -2.223713 15.920928
vn 0.311585 0.767234 -0.888718
v 53.450771 -2.346818 15.681258
vn 1.187693 1.410363 -2.184772
v 53.385101 -2.679109 16.013298
vn 0.763662 -0.177387 -1.497501
v 54.100922 -2.270065 16.116688
vn -1.460634 -1.880500 1.510585
v 53.070160 -3.686993 14.256978
vn -0.023079 0.010272 -1.625771
v 51.611721 -3.072880 -0.608804
vn -0.026626 0.039061 -1.350702
v 44.276512 -2.859858 -0.763080
vn -0.395329 -0.485267 -0.996293
v 38.262165 -2.069849 15.833777
vn 0.009625 1.344132 -1.764646
v 38.398514 -3.303332 15.905498
vn -0.336833 1.152243 -1.499435
v 38.365528 -3.440233 15.806718
vn -0.647412 -0.824779 -1.679941
v 38.277287 -2.077282 15.831397
vn 0.059360 0.049605 -0.111412
v 53.741150 -2.216923 15.909507
vn 0.709014 1.216485 -1.540519
v 53.582344 -2.267807 15.795598
vn 0.246974 0.890110 -0.980696
v 53.271210 -2.754908 15.896768
vn 0.342618 1.157670 -1.292866
v 53.254642 -2.748395 15.898507
vn 1.737015 0.332249 -2.932729
v 53.921371 -2.213989 16.017689
vn -0.073301 0.222214 -0.060067
v 53.057663 -3.760063 14.129208
vn -1.827891 1.584077 0.600282
v 52.998840 -3.815626 13.995438
vn 1.121954 1.333641 -2.293317
v 52.838364 -2.793008 15.098578
vn -0.020673 -0.075074 -1.394138
v 51.795204 -3.049683 -0.612018
vn -0.025759 -0.089676 -1.738657
v 51.799431 -3.061432 -0.611448
vn -0.026639 0.097780 -1.437316
v 42.873722 -1.826300 -0.675807
vn -0.059989 0.089424 -1.721223
v 42.749237 -1.709900 -0.665421
vn -0.868206 0.079149 -1.168501
v 38.699768 -1.830722 15.502038
vn -0.068776 -0.042742 -0.130606
v 38.386303 -1.957377 15.729737
vn -0.292291 0.983566 -1.050727
v 39.177734 -2.111051 15.003928
vn -0.873995 0.585233 -1.231417
v 38.869862 -1.842183 15.380227
vn -0.164557 1.035943 -1.090606
v 39.216835 -2.365892 14.757068
vn -0.237908 1.124547 -1.119725
v 39.245514 -2.485896 14.637828
vn -1.232560 1.914308 -2.687649
v 38.409344 -3.570142 15.698808
vn 0.037200 0.017300 -1.260488
v 49.624184 -3.136979 -1.099244
vn 0.480007 1.175080 -1.364596
v 53.467072 -2.355581 15.679408
vn 0.510678 0.615069 -1.011625
v 53.123100 -2.634063 15.328637
vn 0.090132 0.992633 -1.052073
v 53.196632 -2.857582 15.781478
vn -0.028390 -1.807407 1.497025
v 53.055260 -3.692905 14.257547
vn 0.025585 -0.058539 0.061744
v 52.970322 -3.608641 14.372633
vn 0.057818 1.785000 -1.901734
v 52.609932 -3.131122 14.750428
vn 0.009974 -0.180905 -1.741900
v 51.971443 -3.019514 -0.616256
vn -0.049620 0.072114 -1.409204
v 42.737617 -1.719004 -0.665489
vn -0.069663 0.064205 -1.688256
v 42.598774 -1.614327 -0.655779
vn -1.000667 0.079186 -1.351725
v 38.699257 -1.844890 15.501458
vn -1.877841 -0.404005 -2.773144
v 38.533783 -1.879518 15.618947
vn -0.729475 1.744577 -1.916445
v 39.117443 -1.991899 15.129958
vn -1.405228 -1.281316 -2.037793
v 38.951775 -3.670033 15.201798
vn -0.576387 -1.615730 -1.603411
v 39.171028 -3.494113 14.943587
vn -0.079634 0.038501 -0.115189
v 38.509380 -3.663400 15.582398
vn 0.016263 0.049357 -1.279626
v 49.478123 -3.227339 -1.105215
vn 0.051551 -0.016638 -1.305611
v 49.786484 -3.064030 -1.093401
vn 0.044573 0.059151 -0.092334
v 53.259792 -2.556322 15.444907
vn 0.981023 1.732395 -2.350136
v 53.368500 -2.458875 15.562118
vn -0.641129 1.023721 -1.274570
v 53.258102 -3.192406 15.421937
vn -0.678434 2.148422 -2.244724
v 53.193222 -3.089067 15.544717
vn 0.116457 1.147210 -1.218664
v 53.177280 -2.854713 15.782527
vn -0.441047 2.771729 -1.053751
v 53.030304 -3.813651 13.964348
vn -0.157834 0.082881 -0.051069
v 53.063232 -3.753877 14.096118
vn 0.244700 -2.535308 -0.547393
v 52.086380 -3.952764 12.651447
vn 0.019164 -0.135499 -1.374152
v 52.282383 -2.694431 -0.646513
vn 0.714462 0.860247 -1.416536
v 53.136513 -2.645313 15.328568
vn 0.047319 0.107349 -0.141714
v 52.730110 -2.899735 14.982938
vn 0.143292 0.758992 -0.815527
v 52.629803 -3.006169 14.866258
vn 0.009030 -0.145383 -1.372426
v 51.963402 -3.008978 -0.617425
vn -0.043280 0.057057 -1.060304
v 41.583870 -1.675190 -0.627559
vn -0.025436 0.015236 -1.217095
v 41.889317 -1.516124 -0.630986
vn -0.029733 0.038742 -1.087393
v 41.720760 -1.581189 -0.628396
vn -0.042741 0.092392 -1.587027
v 42.436367 -1.535300 -0.646461
vn -0.822076 0.526604 -1.155663
v 38.862240 -1.854681 15.379697
vn -0.349878 1.150199 -1.232688
v 39.158691 -2.115942 15.004647
vn -0.066693 0.089594 -0.123475
v 39.002556 -1.906782 15.255347
vn -0.223132 1.074502 -1.074427
v 39.226410 -2.490545 14.637218
vn -0.175414 1.072228 -1.129377
v 39.196995 -2.369033 14.757078
vn -0.062797 0.118825 -0.142589
v 39.282066 -2.596614 14.518867
vn -0.885452 -0.178632 -0.906963
v 38.646004 -3.725102 15.461167
vn -0.736090 -0.419201 -0.888363
v 38.802399 -3.719046 15.332648
vn -0.005315 0.054814 -1.153844
v 48.904121 -3.829700 -1.133821
vn 0.030595 0.104055 -2.929354
v 49.030273 -3.710225 -1.128282
vn 0.046312 -0.004075 -1.392555
v 49.957371 -3.007784 -1.088039
vn 0.024822 0.069461 -1.850720
v 49.466232 -3.218469 -1.105024
vn 0.056031 0.023813 -1.874173
v 49.614182 -3.126984 -1.099402
vn -0.746585 0.943762 -1.331786
v 53.360073 -3.282325 15.296588
vn -0.016477 0.152330 -0.160127
v 53.151382 -2.977013 15.664918
vn -1.469291 -1.444913 0.473187
v 53.035053 -3.683560 14.223338
vn 0.106365 -1.395652 -0.185477
v 52.262924 -3.957018 12.740997
vn 0.259908 -1.413865 -0.216651
v 52.345154 -3.966771 12.875928
vn 0.529758 -1.605875 -0.415118
v 52.401733 -3.978710 13.040398
vn 1.612618 -2.418629 -1.062105
v 52.620411 -3.989522 13.391868
vn -0.002527 -0.121348 -1.340909
v 52.207520 -2.817749 -0.634928
vn 0.052168 -0.167394 -1.493591
v 52.331093 -2.562125 -0.659263
vn 1.273119 1.512955 -2.608178
v 52.852280 -2.803563 15.099248
vn -0.021062 0.141897 -0.164703
v 52.662170 -3.253421 14.637978
vn -0.351286 0.968501 -1.225355
v 52.718082 -3.373440 14.527088
vn 0.247563 1.376333 -1.477599
v 52.648880 -3.009589 14.866427
vn 0.010817 -0.133352 -1.346671
v 52.101021 -2.927132 -0.625147
vn 0.014096 -0.175748 -1.769289
v 52.112511 -2.935723 -0.624204
vn -0.058493 0.056370 -1.443135
v 42.589046 -1.624435 -0.655762
vn -0.028220 0.039285 -1.187754
v 41.493690 -1.795642 -0.629778
vn -0.030201 0.116707 -1.477171
v 42.261707 -1.486717 -0.638775
vn -0.036497 0.062391 -1.374524
v 42.074493 -1.482479 -0.634032
vn -0.922147 2.205599 -2.405477
v 39.100002 -1.999083 15.130057
vn -1.720945 1.392535 -2.353010
v 39.384502 -2.666619 14.400167
vn -1.142146 -0.663504 -1.387648
v 38.795696 -3.705303 15.331717
vn -0.068988 -0.112075 -0.134703
v 39.059822 -3.581724 15.071847
vn -0.307116 -0.991734 -0.969476
v 39.369698 -3.180982 14.560878
vn -1.282789 -0.274906 -1.321953
v 38.645031 -3.711343 15.459407
vn -0.053758 0.063676 -1.641842
v 42.934223 -3.465371 -1.130661
vn -0.102098 0.150003 -2.952048
v 42.472443 -3.187101 -1.102524
vn -0.008626 0.057620 -1.169333
v 48.756073 -3.939906 -1.138421
vn 0.001434 0.004447 -0.116829
v 49.342682 -3.328001 -1.110819
vn 0.069032 -0.254111 -3.046561
v 50.506382 -2.973844 -1.070541
vn 0.048377 -0.010658 -1.505436
v 50.319603 -2.964549 -1.076496
vn 0.071859 -0.022647 -1.830955
v 49.778721 -3.053006 -1.093848
vn 0.043063 0.017104 -1.465102
v 50.135513 -2.973029 -1.082590
vn -0.493376 0.823169 -1.010761
v 53.242233 -3.201235 15.422828
vn -0.576331 0.740200 -1.035235
v 53.345421 -3.292801 15.297378
vn 1.287325 -0.147690 -0.868269
v 52.976803 -3.883569 13.808858
vn 1.471747 1.354683 -0.813742
v 53.066422 -3.822903 13.936988
vn 0.046535 0.104418 -0.086564
v 53.079041 -3.750440 14.064618
vn 1.205350 -0.502383 -0.991076
v 52.852432 -3.932323 13.677948
vn 0.014143 -0.171610 -0.051420
v 51.947838 -3.966327 12.649385
vn 0.127151 -1.660164 -0.224299
v 52.250751 -3.959017 12.749058
vn 0.123979 -1.749193 -0.614962
v 51.970642 -4.008229 12.773168
vn 1.190886 -1.014579 -0.807611
v 52.735542 -3.969049 13.541978
vn 0.056999 -0.188901 -1.698895
v 52.347511 -2.565003 -0.658367
vn 0.022684 -0.171062 -1.743274
v 52.298080 -2.698813 -0.645862
vn -0.995398 1.448329 -2.273660
v 52.820000 -3.480647 14.417858
vn 0.076404 2.358625 -2.513015
v 52.629772 -3.130956 14.751187
vn -0.362713 0.937232 -1.207164
v 52.735462 -3.366568 14.527537
vn -0.057479 0.074945 -2.062448
v 41.730431 -1.590944 -0.629008
vn -0.083756 0.110592 -2.093687
v 41.596672 -1.682873 -0.628495
vn 0.008042 0.039869 -1.340332
v 41.285908 -2.333216 -0.646033
vn -0.046438 0.077879 -1.762778
v 42.075768 -1.494511 -0.634612
vn -0.040729 0.025726 -1.927614
v 41.895058 -1.527469 -0.631248
vn -0.041124 0.091305 -1.543647
v 42.429520 -1.546472 -0.646927
vn -0.014177 0.106524 -0.022118
v 39.534252 -2.704983 14.309018
vn -1.541289 1.247421 -2.100324
v 39.375065 -2.677604 14.400568
vn -1.681526 -1.533248 -2.437952
v 38.940807 -3.657893 15.201728
vn -0.177031 -0.499772 -0.495566
v 39.166439 -3.471124 14.922071
vn -0.342102 -0.910319 -0.909187
v 39.450397 -3.083688 14.431868
vn -0.037394 0.111192 -1.701894
v 42.762123 -3.382965 -1.122205
vn -0.064439 0.017135 -1.573595
v 43.122826 -3.525751 -1.138671
vn -0.056226 0.093041 -1.798453
v 42.099434 -2.862967 -1.073199
vn 0.019331 0.012320 -1.213174
v 48.579002 -4.038739 -1.141381
vn -0.014382 0.097334 -1.977996
v 48.745361 -3.930409 -1.137874
vn -0.007996 0.093489 -1.991886
v 48.891571 -3.821318 -1.133365
vn 0.032914 0.113347 -3.235452
v 49.016693 -3.702685 -1.128156
vn 0.057791 -0.004113 -1.745631
v 49.952034 -2.995991 -1.088251
vn -0.312957 1.036666 -1.110192
v 53.782494 -3.660093 14.795197
vn -0.747891 1.797868 -2.014835
v 53.702484 -3.551959 14.917188
vn -0.615888 1.950404 -2.037239
v 53.175293 -3.094247 15.545178
vn -0.044104 0.084501 -0.099874
v 53.581932 -3.465080 15.042708
vn -0.915447 2.216188 -2.198198
v 53.029751 -3.668315 14.188568
vn 0.290243 -1.633608 -0.248422
v 52.328461 -3.970710 12.881608
vn 0.330448 -3.470011 -0.749588
v 52.085594 -3.954807 12.660558
vn 0.256084 -1.666300 -0.655875
v 52.084923 -4.060915 12.948487
vn 0.417557 -1.310615 -0.328127
v 52.384773 -3.985251 13.044058
vn 0.065658 -0.141012 -0.048910
v 52.485722 -3.998006 13.222228
vn 0.924939 -0.816060 -0.624581
v 52.728092 -3.981304 13.546388
vn -0.002458 -0.161346 -1.774468
v 52.221703 -2.824133 -0.634377
vn -0.004343 -0.220105 -1.799274
v 52.433640 -2.154249 -0.701394
vn 0.025175 0.031245 -1.422547
v 41.346466 -2.202182 -0.641991
vn -0.043310 0.062067 -1.889386
v 41.508560 -1.801196 -0.630315
vn 0.004346 0.043495 -1.318129
v 41.204483 -2.456123 -0.650299
vn -0.034126 0.128161 -1.649761
v 42.258579 -1.498652 -0.639654
vn -0.177701 3.072390 -0.651787
v 39.849667 -2.713036 14.068058
vn 0.000078 0.146574 -0.031607
v 40.014664 -2.738535 13.950218
vn -0.910652 0.072420 -1.165787
v 39.500324 -2.726982 14.281728
vn -0.389921 -1.244316 -1.217859
v 39.351418 -3.174412 14.559948
vn -0.074990 -0.025965 -1.692058
v 41.622120 -2.671935 -1.046681
vn -0.051084 0.041977 -1.454569
v 43.537075 -3.554299 -1.154506
vn -0.032058 0.091180 -1.424336
v 42.771893 -3.372807 -1.121756
vn -0.049343 0.055979 -1.490574
v 42.941689 -3.454272 -1.130475
vn -0.057788 0.027617 -1.533158
v 43.324902 -3.553066 -1.146880
vn -0.040819 0.067238 -1.300534
v 42.110733 -2.853684 -1.073072
vn -0.006415 0.012025 -0.214164
v 42.620857 -3.280246 -1.112390
vn -0.027721 0.011436 -1.402303
v 45.082447 -3.179935 -1.189683
vn 0.029278 0.022226 -1.934103
v 48.571190 -4.027959 -1.141396
vn 0.051322 -0.014575 -1.609355
v 50.319054 -2.952068 -1.076602
vn 0.049373 0.018284 -1.673538
v 50.132641 -2.960744 -1.082531
vn 0.049251 0.058875 -1.580608
v 51.252453 -3.062235 -1.051454
vn 1.290160 -0.165091 -0.878533
v 52.978210 -3.897637 13.813337
vn 1.307472 0.434827 -0.422204
v 53.071609 -3.833994 13.940988
vn -0.805470 1.959298 -1.859162
v 53.045013 -3.662705 14.187868
vn 1.101654 -0.482509 -0.898085
v 52.850174 -3.946105 13.682188
vn 0.089569 -1.176508 -0.416762
v 51.986702 -4.007829 12.775268
vn 1.567768 -2.362935 -1.059378
v 52.607964 -3.999762 13.396288
vn -0.004053 -0.153011 -1.248474
v 52.417572 -2.150576 -0.701792
vn -0.068237 0.121184 -0.166182
v 52.949741 -3.569532 14.304438
vn -0.438151 1.003486 -1.271066
v 40.292763 -2.852676 13.686357
vn -0.220229 1.059756 -1.168639
v 40.410900 -2.953418 13.569478
vn 0.030378 0.040132 -1.788566
v 41.362598 -2.206074 -0.641791
vn 0.010479 0.053643 -1.792327
v 41.301388 -2.338221 -0.646089
vn -1.024172 0.045448 -1.305692
v 39.503021 -2.713034 14.280098
vn -0.398626 -0.885105 -0.915652
v 39.547653 -2.995970 14.303448
vn -0.578218 -0.810960 -0.952127
v 39.657890 -2.928400 14.175198
vn -0.064321 -0.008177 -1.581178
v 41.439533 -2.654198 -1.038989
vn -0.075420 0.037289 -1.806995
v 41.798489 -2.711366 -1.055300
vn -0.063747 0.017447 -1.561610
v 43.127579 -3.513846 -1.138736
vn -0.040028 0.072091 -1.292438
v 41.969673 -2.764073 -1.064026
vn -0.057330 0.103846 -1.852302
v 41.960358 -2.774406 -1.064317
vn -0.022689 -0.000019 -1.465721
v 45.325756 -3.138645 -1.193332
vn -0.033759 -0.017471 -1.318005
v 43.974281 -3.499790 -1.166558
vn 0.070784 -0.101313 -2.846163
v 48.158386 -4.126561 -1.150212
vn 0.002539 -0.001384 -0.115907
v 48.373833 -4.095444 -1.145226
vn 0.082117 -0.118265 -3.321989
v 48.158035 -4.114333 -1.150656
vn 0.001643 -0.002641 -0.064094
v 50.694954 -2.979936 -1.065760
vn -0.040629 -0.128895 -1.744258
v 47.288544 -3.845404 -1.173187
vn 0.020036 -0.039927 -1.556618
v 47.928539 -4.104508 -1.155990
vn -0.141160 1.019088 -1.011041
v 53.829861 -3.776969 14.675598
vn -0.325932 1.054216 -1.133758
v 53.763660 -3.665435 14.795518
vn 0.461438 -1.456120 -0.793415
v 52.211830 -4.105036 13.097298
vn 0.200660 -1.226990 -0.494164
v 52.101711 -4.057001 12.945098
vn -0.060086 -0.217481 -2.012115
v 52.492714 -2.025884 -0.717318
vn 0.689419 1.640375 -1.569420
v 40.348415 -3.626210 12.795888
vn 1.033743 1.885472 -1.833384
v 40.391361 -3.535999 12.913578
vn 0.994593 1.813068 -1.636903
v 40.505650 -3.197982 13.329688
vn -1.118660 1.475352 -2.124782
v 40.145332 -2.778164 13.804088
vn 0.008054 0.058096 -1.811249
v 41.218662 -2.462722 -0.650470
vn 0.034695 0.019358 -1.324476
v 41.097588 -2.567093 -0.655167
vn -2.271970 2.626977 -3.286312
v 39.817760 -2.723090 14.040088
vn -0.398587 2.678511 -1.009445
v 39.825687 -2.717644 14.046630
vn -0.013111 0.048748 -0.024694
v 39.984543 -2.738176 13.921758
vn -0.086937 -0.002049 -0.114719
v 39.652748 -2.738219 14.161777
vn -0.467822 -1.232216 -1.232962
v 39.433147 -3.075907 14.430568
vn -2.125438 -0.535931 -2.364137
v 39.777550 -2.891547 14.046738
vn -0.063629 -0.008740 -1.558195
v 41.440048 -2.641813 -1.039074
vn -0.064011 -0.019734 -1.448367
v 41.625675 -2.659850 -1.047024
vn -0.060259 0.029512 -1.602747
v 43.326897 -3.540731 -1.146733
vn -0.041753 0.012322 -1.369437
v 43.755939 -3.536431 -1.160768
vn -0.006214 -0.004885 -1.802358
v 46.326023 -3.219043 -1.199647
vn -0.128533 0.212105 -3.003884
v 44.184887 -3.444707 -1.172772
vn -0.002342 0.002583 -0.082901
v 44.841633 -3.223883 -1.185281
vn -0.034117 0.013750 -1.736895
v 45.078041 -3.167807 -1.189497
vn -0.015681 0.027273 -1.569473
v 45.579151 -3.113254 -1.195622
vn 0.020828 -0.041146 -1.583364
v 47.931946 -4.092467 -1.156255
vn 0.048924 0.058840 -1.568033
v 51.254433 -3.049743 -1.050927
vn -0.020144 -0.153091 -1.676113
v 47.478783 -3.961979 -1.164786
vn 0.001996 -0.096237 -1.661515
v 47.697060 -4.048997 -1.159951
vn -0.178159 1.196005 -1.192588
v 53.810692 -3.779148 14.676078
vn -0.879138 2.113105 -2.351629
v 53.684963 -3.559382 14.917068
vn -0.035312 -0.120622 -1.124672
v 52.477730 -2.020332 -0.717443
vn 0.403127 0.604181 -0.877431
v 40.251057 -3.706829 12.672638
vn 0.678925 0.770059 -0.840925
v 40.470600 -3.320363 13.184278
vn -0.388672 0.860863 -1.100985
v 40.277306 -2.861805 13.684478
vn -0.224335 1.017657 -1.131422
v 40.393524 -2.959069 13.567628
vn 0.023296 0.138814 -0.136074
v 40.466190 -3.072118 13.451418
vn -0.546274 -1.184208 -1.231955
v 39.531952 -2.986809 14.301428
vn -0.749487 -0.999958 -1.209377
v 39.646393 -2.917784 14.173138
vn -0.069123 0.017457 -1.631211
v 41.254108 -2.648612 -1.031475
vn -0.063917 0.017132 -1.505801
v 41.256386 -2.660944 -1.031712
vn -0.055006 0.030271 -1.337379
v 41.805099 -2.700032 -1.055342
vn -0.058798 0.047400 -1.681718
v 43.536461 -3.541844 -1.154125
vn -0.010214 0.028514 -1.735412
v 46.085670 -3.150909 -1.199221
vn 0.020063 -0.006646 -1.844840
v 46.550919 -3.313258 -1.196953
vn -0.025638 0.000824 -1.673411
v 45.322968 -3.126296 -1.193289
vn -0.009820 0.052818 -1.666886
v 45.835003 -3.113948 -1.197327
vn -0.053704 0.014663 -1.770503
v 43.753117 -3.524099 -1.160571
vn -0.049346 -0.016585 -1.861859
v 43.969707 -3.487708 -1.166601
vn 0.049108 0.074609 -1.482858
v 51.630951 -3.082522 -1.040107
vn 0.034884 -0.008297 -1.844151
v 46.756832 -3.430391 -1.192596
vn -0.032584 -0.106682 -1.428980
v 47.299603 -3.835980 -1.174141
vn 0.002390 -0.083535 -1.471924
v 47.703697 -4.037689 -1.160598
vn 0.028330 0.145807 -0.152624
v 53.818703 -3.896427 14.556747
vn 0.392189 -1.184676 -0.663747
v 52.226742 -4.097537 13.092208
vn 1.183946 -1.949546 -1.698382
v 52.354931 -4.135561 13.226778
vn -0.040609 -0.109821 -1.088266
v 52.576660 -1.903254 -0.732980
vn -0.075842 -0.207226 -2.047526
v 52.589863 -1.910782 -0.732713
vn 0.696685 1.072880 -1.519638
v 40.242165 -3.696728 12.675508
vn 0.915938 1.061401 -1.150163
v 40.455326 -3.312063 13.179547
vn 0.096772 0.144165 -0.146546
v 40.404442 -3.425534 13.034557
vn -1.338242 1.752357 -2.461527
v 40.133736 -2.789520 13.802308
vn -0.074646 0.036530 -0.111571
v 39.979034 -2.751409 13.921457
vn 0.048767 0.024378 -1.806364
v 41.109604 -2.575561 -0.654976
vn 0.059011 -0.013674 -1.342658
v 40.963783 -2.656467 -0.660561
vn -1.929662 -0.486518 -2.145123
v 39.775024 -2.879500 14.046278
vn -0.099832 -0.048140 -3.026681
v 40.733624 -2.804044 -1.010741
vn -0.054369 -0.005635 -1.418669
v 41.078342 -2.694960 -1.024338
vn -0.008161 0.022148 -1.407845
v 46.090183 -3.138946 -1.199051
vn -0.003847 -0.003687 -1.342345
v 46.333092 -3.207742 -1.199702
vn -0.015500 0.027991 -1.571076
v 45.578506 -3.100792 -1.195399
vn 0.054266 0.083783 -1.641883
v 51.630951 -3.069961 -1.039475
vn 0.022930 -0.007135 -1.259445
v 46.767731 -3.420797 -1.192433
vn -0.016638 -0.130217 -1.446240
v 47.488014 -3.951643 -1.165841
vn -0.111861 -0.141658 -2.023251
v 52.717922 -1.812179 -0.747442
vn 0.050902 0.090700 -0.118046
v 40.158859 -3.714948 12.624688
vn 0.256484 0.573799 -0.550850
v 40.345852 -3.603475 12.818525
vn 0.517580 2.086130 -1.777524
v 40.134819 -3.626743 12.718138
vn 1.302172 2.374133 -2.142636
v 40.488914 -3.192575 13.325508
vn -1.906497 -0.182955 -2.579198
v 39.817326 -2.737599 14.041438
vn -0.079200 0.033066 -0.111759
v 39.914589 -2.879535 13.923287
vn -0.772026 0.941087 -1.344480
v 40.049904 -2.937293 13.805158
vn -0.066168 -0.005783 -1.719191
v 41.073730 -2.682937 -1.024209
vn -0.008685 0.045959 -1.474152
v 45.836853 -3.101580 -1.196946
vn 0.014615 -0.004738 -1.300564
v 46.560169 -3.302822 -1.196890
vn 0.038930 0.143132 -1.381373
v 52.197960 -3.046129 -1.021026
vn 0.980223 1.596606 -1.867602
v 53.797974 -4.015889 14.438268
vn 1.361817 -2.247805 -1.966945
v 52.366394 -4.124871 13.222498
vn 1.830425 -0.638331 -2.508224
v 52.682571 -4.161263 13.458458
vn -0.062478 -0.076567 -1.114584
v 52.707161 -1.802874 -0.747478
vn 0.617764 0.798617 -0.714860
v 40.153847 -3.494564 12.879818
vn 0.078068 -0.017683 -1.786077
v 40.972973 -2.666688 -0.660053
vn 0.051789 -0.004290 -1.364847
v 40.801605 -2.714586 -0.666405
vn -0.540728 1.146662 -1.356194
v 40.182072 -3.006893 13.689797
vn -0.191231 0.132831 -2.996283
v 40.068096 -3.068145 -0.983716
vn -0.004549 -0.001185 -0.126668
v 40.898083 -2.734415 -1.017273
vn 0.711451 0.889690 -0.798485
v 40.282059 -3.330288 13.174158
vn 0.049954 0.185558 -1.786559
v 52.195103 -3.033790 -1.019828
vn 0.029574 0.146741 -1.330615
v 52.384342 -3.021231 -1.014237
vn 0.562359 0.570355 -0.907127
v 53.708721 -4.115001 14.316888
vn 1.270372 2.067013 -2.433248
v 53.782192 -4.007814 14.436888
vn 0.072581 -0.064938 -0.104796
v 52.525291 -4.134437 13.341858
vn -0.199360 0.095659 -1.961381
v 52.869743 -1.733315 -0.761370
vn 0.084032 -0.133001 -1.732558
v 40.262119 -2.734545 -0.693383
vn 0.081314 -0.127547 -1.735198
v 40.094574 -2.683727 -0.704938
vn 0.239133 -0.039318 -3.058704
v 39.934444 -2.613959 -0.717449
vn 0.107792 -0.290300 -2.913781
v 39.457394 -2.390787 -0.758338
vn 0.058161 0.009162 -1.478643
v 40.623245 -2.745615 -0.673514
vn 0.080347 -0.054653 -1.635522
v 40.440880 -2.753721 -0.682708
vn 0.608973 2.612461 -2.158792
v 40.138641 -3.625792 12.720367
vn 0.915401 1.192656 -1.066357
v 40.166748 -3.501492 12.883227
vn -0.553972 0.697615 -0.983727
v 40.061848 -2.925466 13.806578
vn -0.003359 0.000250 -0.080421
v 40.557732 -2.856062 -1.004112
vn 0.714070 1.097995 -0.781605
v 40.329811 -3.246555 13.312037
vn 0.677825 0.783613 -0.733691
v 40.213818 -3.404163 13.031268
vn 0.675523 0.443766 -0.942624
v 53.584244 -4.191241 14.194717
vn 0.892012 0.925350 -1.452026
v 53.695702 -4.103852 14.315827
vn 1.737270 -0.605594 -2.366719
v 52.687233 -4.146873 13.458198
vn -0.120588 0.062252 -1.165790
v 52.862061 -1.722727 -0.760010
vn 0.985437 1.144488 -1.069529
v 40.228416 -3.414281 13.033948
vn 0.067235 -0.004937 -1.769463
v 40.807533 -2.726058 -0.666144
vn -0.350757 0.814606 -0.927615
v 40.196667 -2.998331 13.691217
vn -0.042839 2.645424 -1.842120
v 40.282600 -3.081212 13.569768
vn -0.207379 0.140465 -3.207525
v 40.060753 -3.056836 -0.982746
vn 0.756545 1.147943 -0.829583
v 40.345882 -3.254807 13.315127
vn 0.894171 1.113230 -1.001463
v 40.297009 -3.340080 13.176568
vn 0.039504 0.197579 -1.782696
v 52.380543 -3.009049 -1.012978
vn 0.059300 0.374096 -2.938530
v 52.747742 -2.941937 -0.997024
vn 1.809220 -0.339185 -2.206933
v 53.284931 -4.260922 13.951618
vn 1.030684 0.691375 -1.446926
v 53.575001 -4.178337 14.194168
vn 0.069387 -0.024890 -0.089885
v 52.981380 -4.222018 13.703128
vn 0.926652 -0.337513 -1.194828
v 53.128853 -4.258895 13.827918
vn -0.151041 0.270609 -1.261002
v 53.035442 -1.668819 -0.773195
vn -0.213928 0.374349 -1.795262
v 53.039070 -1.680056 -0.776041
vn 0.073786 -0.053177 -1.502824
v 40.439758 -2.765994 -0.682353
vn 0.067845 -0.107332 -1.401297
v 40.257782 -2.746495 -0.692676
vn 0.065741 -0.097742 -1.370129
v 40.087727 -2.695112 -0.704422
vn 0.005865 -0.011031 -0.131702
v 39.611706 -2.472373 -0.744501
vn 0.008427 -0.007554 -0.172230
v 39.281048 -2.341020 -0.769820
vn 0.065922 0.007670 -1.659519
v 40.625671 -2.757788 -0.673494
vn -0.137142 0.158182 -1.832286
v 39.717106 -3.166423 -0.964351
vn -0.096805 0.112551 -1.290679
v 39.722290 -3.178271 -0.965773
vn 0.052392 0.164677 -0.116213
v 40.353649 -3.165495 13.447688
vn 0.090524 0.019399 -0.116740
v 53.435890 -4.225065 14.072477
vn -0.081249 0.439098 -1.418136
v 53.221363 -1.647157 -0.789652
vn 0.106509 0.061390 -1.601204
v 39.109413 -2.281557 -0.778957
vn -0.037739 2.353671 -1.641366
v 40.298923 -3.079172 13.572318
vn -0.082238 0.191874 -1.668932
v 38.805714 -3.179677 -0.902040
vn -0.097051 0.152717 -1.559885
v 38.983070 -3.227992 -0.917522
vn -0.101809 0.108228 -1.471944
v 39.167641 -3.251456 -0.931693
vn 0.003681 0.024329 -0.190821
v 52.916542 -2.878676 -0.985564
vn 0.952544 -0.338828 -1.226125
v 53.132923 -4.244216 13.826928
vn -0.094124 0.481747 -1.574978
v 53.219643 -1.658272 -0.792995
vn 0.102136 0.066109 -1.526445
v 39.104858 -2.293451 -0.779716
vn -0.095772 0.153316 -1.704484
v 38.640247 -3.111861 -0.885777
vn -0.096714 0.127008 -1.421467
v 39.354774 -3.244717 -0.944020
vn -0.113707 0.148944 -1.667776
v 39.353481 -3.232372 -0.942829
vn 0.020412 0.146546 -1.146524
v 53.091110 -2.824770 -0.975566
vn 2.053607 -0.384708 -2.501934
v 53.285992 -4.246277 13.950237
vn 0.096967 0.408887 -1.466956
v 53.394341 -1.671933 -0.806649
vn 0.093702 0.431318 -1.540152
v 53.387123 -1.681831 -0.809885
vn 0.110843 0.227116 -1.462988
v 38.924446 -2.251446 -0.786864
vn -0.111914 0.124098 -1.607633
v 38.501667 -3.021125 -0.869558
vn -0.078651 0.128588 -1.408920
v 38.650433 -3.102174 -0.885478
vn -0.072042 0.164795 -1.443729
v 38.812981 -3.168621 -0.901127
vn -0.097424 0.150931 -1.558376
v 38.987316 -3.216060 -0.916618
vn -0.114252 0.122585 -1.652925
v 39.168972 -3.239106 -0.930877
vn 0.122536 0.258070 -1.626924
v 38.922825 -2.263377 -0.788839
vn -0.072178 0.142297 -1.515948
v 38.404980 -2.904051 -0.854205
vn -0.103439 0.117048 -1.502277
v 38.514462 -3.013356 -0.869849
vn 0.034503 0.253663 -1.974179
v 53.081932 -2.814338 -0.974396
vn 0.010671 0.165583 -1.140082
v 53.242992 -2.742046 -0.962389
vn -0.001364 0.173740 -1.117123
v 53.380302 -2.645484 -0.947751
vn 0.172912 0.335378 -1.535804
v 53.517174 -1.764604 -0.824360
vn 0.173021 0.323372 -1.503263
v 53.528900 -1.757341 -0.821448
vn 0.075935 0.297381 -1.197044
v 38.733929 -2.243586 -0.795905
vn -0.049639 0.140201 -1.432280
v 38.348179 -2.770778 -0.839210
vn -0.078277 0.148332 -1.597959
v 38.419865 -2.898802 -0.854421
vn 0.017615 0.287401 -1.973125
v 53.232182 -2.732550 -0.961111
vn 0.008011 0.147578 -1.076359
v 53.503624 -2.538963 -0.931968
vn 0.112887 0.462493 -1.849935
v 38.736816 -2.254962 -0.798548
vn -0.059864 0.164605 -1.686111
v 38.364342 -2.768304 -0.839528
vn -0.153141 0.175664 -1.838271
v 38.345608 -2.631649 -0.825502
vn -0.001698 0.308136 -1.991300
v 53.367882 -2.637197 -0.946447
vn 0.142292 0.264851 -1.477800
v 53.622013 -1.878907 -0.837314
vn 0.154156 0.287015 -1.583105
v 53.607101 -1.883143 -0.839509
vn -0.007535 0.294441 -0.998896
v 38.562546 -2.276313 -0.803527
vn -0.110825 0.122087 -1.279717
v 38.329273 -2.631446 -0.824068
vn 0.019234 0.137512 -1.096805
v 53.600491 -2.420812 -0.915235
vn 0.016182 0.279401 -2.045907
v 53.489624 -2.532164 -0.931140
vn 0.054029 0.208420 -1.388576
v 53.670624 -2.012159 -0.857508
vn -0.024915 0.592794 -2.030374
v 38.570377 -2.286090 -0.806468
vn -0.165469 0.144846 -1.112290
v 38.355717 -2.494396 -0.812237
vn -0.288623 0.254892 -1.987956
v 38.370792 -2.497532 -0.814888
vn -0.011594 0.182335 -1.304567
v 53.680771 -2.151006 -0.878747
vn 0.072762 0.259672 -1.708825
v 53.654251 -2.014004 -0.858422
vn -0.133228 0.229304 -1.030268
v 38.434975 -2.367968 -0.807182
vn 0.033689 0.256053 -2.033232
v 53.585152 -2.415851 -0.914882
vn -0.000820 0.163673 -1.204384
v 53.658470 -2.289359 -0.897742
vn -0.010504 0.253874 -1.807808
v 53.664101 -2.150678 -0.878553
vn -0.264306 0.442812 -2.029448
v 38.447044 -2.374646 -0.810229
vn -0.002250 0.260818 -1.915944
v 53.642200 -2.286659 -0.897364
# 632 vertices, 0 vertices normals


usemtl material_0
vt 0.405152 0.799403
vt 0.393649 0.801286
vt 0.404952 0.799286
f 1/1/1 5/2/5 3/3/3
vt 0.417574 0.798190
vt 0.417493 0.798042
f 2/4/2 3/3/3 6/5/6
vt 0.432196 0.797703
vt 0.432176 0.797540
f 4/6/4 6/5/6 9/7/9
vt 0.393941 0.801382
vt 0.382682 0.804057
f 8/8/8 10/9/10 5/2/5
vt 0.479522 0.796736
vt 0.447948 0.797502
f 11/10/11 7/11/7 9/7/9
vt 0.494975 0.797035
vt 0.495023 0.796863
f 12/12/12 11/10/11 14/13/14
vt 0.372182 0.807490
vt 0.372061 0.807321
f 10/9/10 13/14/13 16/15/16
vt 0.510352 0.797466
vt 0.510412 0.797295
f 15/16/15 14/13/14 17/17/17
vt 0.361795 0.810800
f 13/14/13 20/18/20 16/15/16
vt 0.525749 0.798137
vt 0.525817 0.797966
f 18/19/18 17/17/17 21/20/21
vt 0.541115 0.798838
f 23/21/23 18/19/18 21/20/21
vt 0.361615 0.811084
vt 0.351267 0.814158
f 20/18/20 19/22/19 25/23/25
vt 0.571333 0.800912
f 24/24/24 18/19/18 23/21/23
vt 0.618231 0.803341
vt 0.571264 0.801082
f 28/25/28 22/26/22 24/24/24
vt 0.350712 0.814594
vt 0.339862 0.817060
f 25/23/25 26/27/26 32/28/32
vt 0.633295 0.804443
vt 0.633205 0.804603
f 33/29/33 27/30/27 28/25/28
vt 0.647235 0.806249
vt 0.647117 0.806398
f 36/31/36 29/32/29 33/29/33
vt 0.338935 0.817662
vt 0.328069 0.818735
f 32/28/32 31/33/31 38/34/38
vt 0.660093 0.808617
vt 0.659993 0.808778
f 39/35/39 30/36/30 36/31/36
vt 0.671909 0.811410
f 37/37/37 30/36/30 39/35/39
vt 0.683696 0.814453
vt 0.671930 0.811625
f 40/38/40 34/39/34 37/37/37
vt 0.326826 0.819494
vt 0.316377 0.818415
f 38/34/38 35/40/35 41/41/41
vt 0.309218 0.816501
vt 0.310603 0.815643
f 41/41/41 42/42/42 44/43/44
vt 0.697116 0.818081
vt 0.696467 0.817569
f 43/44/43 40/38/40 45/45/45
vt 0.316562 0.809964
f 44/43/44 42/42/42 46/46/46
vt 0.708927 0.819732
f 47/47/47 43/44/43 45/45/45
vt 0.315677 0.810556
vt 0.328985 0.802957
f 46/46/46 49/48/49 50/49/50
vt 0.721126 0.820782
vt 0.719780 0.819915
f 48/50/48 47/47/47 53/51/53
vt 0.342598 0.796204
vt 0.328650 0.803251
f 54/52/54 50/49/50 51/53/51
vt 0.724058 0.817308
vt 0.725411 0.818178
f 53/51/53 55/54/55 52/55/52
vt 0.366944 0.784249
vt 0.355736 0.790056
f 58/56/58 54/52/54 56/57/56
vt 0.716793 0.811104
vt 0.717683 0.811713
f 55/54/55 59/58/59 57/59/57
vt 0.703689 0.803650
f 59/58/59 61/60/61 57/59/57
vt 0.377988 0.779143
vt 0.366947 0.784386
f 62/61/62 58/56/58 60/62/60
vt 0.390847 0.774481
vt 0.378044 0.779266
f 66/63/66 62/61/62 63/64/63
vt 0.690451 0.797296
vt 0.690430 0.797421
f 61/60/61 68/65/68 65/66/65
vt 0.390955 0.774592
vt 0.405091 0.770347
f 64/67/64 70/68/70 66/63/66
vt 0.677508 0.791485
vt 0.665111 0.785714
f 68/65/68 74/69/74 71/70/71
vt 0.451182 0.759851
vt 0.435855 0.763469
vt 0.435922 0.763589
f 75/71/75 73/72/73 69/73/69
vt 0.420381 0.766932
f 73/72/73 70/68/70 67/74/67
vt 0.653034 0.780286
f 74/69/74 76/75/76 71/70/71
vt 0.465546 0.756840
vt 0.451328 0.759972
f 77/76/77 75/71/75 72/77/72
vt 0.478500 0.755417
vt 0.478221 0.755309
f 78/78/78 82/79/82 77/76/77
vt 0.639984 0.775807
vt 0.640053 0.775913
f 76/75/76 83/80/83 79/81/79
vt 0.502355 0.753529
vt 0.502199 0.753419
f 80/82/80 85/83/85 82/79/82
vt 0.515174 0.753110
vt 0.529554 0.753913
vt 0.515111 0.752994
f 81/84/81 87/85/87 86/86/86
f 86/86/86 85/83/85 80/82/80
vt 0.602546 0.765009
vt 0.614929 0.768453
f 83/80/83 89/87/89 84/88/84
vt 0.560561 0.757370
vt 0.560492 0.757469
f 90/89/90 87/85/87 88/90/88
vt 0.575729 0.759470
f 91/91/91 90/89/90 88/90/88
vt 0.589636 0.762039
vt 0.589618 0.762154
f 93/92/93 91/91/91 92/93/92
f 89/87/89 93/92/93 92/93/92
vt 0.998680 0.765543
vt 1.009876 0.752243
vt 0.997151 0.757309
f 94/94/94 97/95/97 95/96/95
vt 0.994394 0.759763
vt 1.008375 0.754226
f 94/94/94 96/97/96 98/98/98
vt 1.013722 0.746613
vt 1.008491 0.743872
f 97/95/97 101/99/101 99/100/99
vt 1.003780 0.745805
f 98/98/98 100/101/100 101/99/101
vt 0.747074 0.091752
vt 0.747185 0.091766
vt 0.759287 0.092067
f 107/102/107 104/103/104 108/104/108
vt 0.733930 0.091389
vt 0.733795 0.091385
f 107/102/107 112/105/112 102/106/102
vt 0.778903 0.092508
vt 0.769979 0.092309
vt 0.770590 0.092323
f 113/107/113 110/108/110 105/109/105
vt 0.759656 0.092094
f 110/108/110 108/104/108 103/110/103
vt 0.720441 0.091000
vt 0.720100 0.091000
f 116/111/116 109/112/109 112/105/112
vt 0.785810 0.092697
vt 0.779713 0.092506
f 117/113/117 113/107/113 106/114/106
vt 0.707355 0.090584
vt 0.706853 0.090592
f 116/111/116 118/115/118 111/116/111
vt 0.695418 0.090142
vt 0.694804 0.090145
f 119/117/119 114/118/114 118/115/118
vt 0.791895 0.092914
vt 0.786745 0.092699
f 121/119/121 117/113/117 115/120/115
vt 0.650057 0.088438
vt 0.683400 0.089690
f 119/117/119 123/121/123 120/122/120
vt 0.799879 0.093363
vt 0.795300 0.093043
f 124/123/124 121/119/121 122/124/122
vt 0.626191 0.087875
vt 0.625566 0.087883
f 123/121/123 131/125/131 126/126/126
vt 0.804188 0.093515
vt 0.800896 0.093345
f 132/127/132 124/123/124 125/128/125
vt 0.810962 0.093620
vt 0.805130 0.093487
f 142/129/142 132/127/132 128/130/128
vt 0.098199 0.583943
vt 0.101212 0.576915
vt 0.106704 0.578513
f 139/131/139 147/132/147 130/133/130
vt 0.102842 0.567743
vt 0.108076 0.572998
f 147/132/147 140/134/140 127/135/127
vt 0.613492 0.087706
vt 0.612925 0.087705
f 150/136/150 135/137/135 131/125/131
vt 0.820382 0.093678
vt 0.830007 0.093714
vt 0.819726 0.093684
f 133/138/133 152/139/152 153/140/153
vt 0.811777 0.093601
f 153/140/153 142/129/142 134/141/134
vt 0.600146 0.087533
vt 0.572161 0.087320
vt 0.571802 0.087301
f 155/142/155 143/143/143 136/144/136
vt 0.557670 0.087268
vt 0.557386 0.087242
f 143/143/143 144/145/144 129/146/129
vt 0.542826 0.087193
vt 0.542612 0.087170
f 144/145/144 156/147/156 137/148/137
vt 0.103858 0.578793
vt 0.101317 0.576682
f 139/131/139 160/149/160 162/150/162
vt 0.104400 0.573637
f 161/151/161 140/134/140 162/150/162
vt 0.599643 0.087529
f 150/136/150 155/142/155 151/152/151
vt 0.841315 0.093715
vt 0.830491 0.093707
f 165/153/165 152/139/152 141/154/141
vt 0.512620 0.087176
vt 0.512528 0.087162
f 156/147/156 157/155/157 138/156/138
vt 0.497417 0.087232
vt 0.482201 0.087254
f 157/155/157 168/157/168 145/158/145
vt 0.482183 0.087261
f 168/157/168 179/159/179 145/158/145
vt 0.058617 0.701136
vt 0.057530 0.701093
vt 0.056033 0.701143
f 186/160/186 146/161/146 171/162/171
vt 0.045037 0.700150
vt 0.045861 0.700133
f 171/162/171 158/163/158 188/164/188
vt 0.049925 0.699629
f 186/160/186 172/165/172 146/161/146
vt 0.036300 0.697176
vt 0.035553 0.697125
f 172/165/172 189/166/189 159/167/159
vt 1.030434 0.706876
vt 1.015012 0.705188
vt 1.029936 0.706781
f 148/168/148 176/169/176 175/170/175
vt 1.041632 0.706958
vt 1.040653 0.706841
f 149/171/149 175/170/175 192/172/192
vt 1.015031 0.705247
vt 1.001772 0.702451
f 164/173/164 191/174/191 176/169/176
vt 0.853161 0.093695
vt 0.841625 0.093707
f 197/175/197 165/153/165 166/176/166
vt 0.451841 0.087413
vt 0.451977 0.087406
f 179/159/179 180/177/180 154/178/154
vt 0.436867 0.087547
vt 0.437074 0.087537
f 180/177/180 198/179/198 167/180/167
vt 0.031792 0.698588
vt 0.030955 0.698635
vt 0.018074 0.696625
f 187/181/187 170/182/170 202/183/202
f 188/164/188 158/163/158 187/181/187
vt 0.024085 0.694330
vt 0.023163 0.694340
f 189/166/189 203/184/203 173/185/173
vt 1.001751 0.702477
vt 0.989952 0.698936
f 191/174/191 163/186/163 190/187/190
vt 1.041266 0.704983
f 149/171/149 192/172/192 193/188/193
vt 0.422129 0.087677
vt 0.422417 0.087674
f 198/179/198 215/189/215 181/190/181
vt 0.380229 0.088325
vt 0.367756 0.088605
vt 0.368406 0.088624
f 218/191/218 200/192/200 183/193/183
vt 0.345692 0.089264
vt 0.346477 0.089290
f 200/192/200 201/194/201 169/195/169
vt 0.336031 0.089644
vt 0.336862 0.089663
f 201/194/201 219/196/219 184/197/184
vt 0.017119 0.696692
vt 0.008956 0.694359
f 202/183/202 185/198/185 206/199/206
vt 0.007844 0.694431
vt 0.005285 0.691668
f 206/199/206 174/200/174 224/201/224
vt 0.979948 0.694965
vt 0.979282 0.695010
f 190/187/190 208/202/208 226/203/226
vt 1.035058 0.702017
vt 1.035862 0.702102
f 193/188/193 209/204/209 177/205/177
vt 1.025307 0.698750
vt 1.025745 0.698816
f 209/204/209 227/206/227 194/207/194
vt 0.958886 0.626902
vt 0.954739 0.622138
vt 0.958478 0.628236
f 212/208/212 211/209/211 178/210/178
vt 0.959033 0.631468
vt 0.960479 0.632909
f 228/211/228 212/208/212 195/212/195
vt 0.865260 0.093642
vt 0.853306 0.093696
f 229/213/229 197/175/197 196/214/196
vt 0.407696 0.087836
vt 0.408074 0.087842
f 215/189/215 216/215/216 182/216/182
vt 0.393636 0.088061
vt 0.394107 0.088067
f 216/215/216 230/217/230 199/218/199
vt 0.015704 0.691110
vt 0.014549 0.691177
f 203/184/203 232/219/232 222/220/222
vt 0.007910 0.688429
vt 0.004120 0.691742
f 234/221/234 224/201/224 205/222/205
vt 0.970894 0.690857
f 208/202/208 238/223/238 226/203/226
vt 1.013763 0.695168
vt 1.013753 0.695223
f 227/206/227 239/224/239 210/225/210
vt 0.954448 0.622006
vt 0.947895 0.617341
f 241/226/241 213/227/213 211/209/211
vt 0.877330 0.093547
vt 0.865221 0.093645
f 244/228/244 229/213/229 214/229/214
vt 0.380793 0.088333
f 230/217/230 218/191/218 217/230/217
vt 0.303442 0.091218
vt 0.304263 0.091231
f 245/231/245 220/232/220 219/196/219
vt 0.013584 0.687536
vt 0.012410 0.687599
f 232/219/232 233/233/233 204/234/204
vt 0.016401 0.683632
vt 0.015447 0.683676
f 253/235/253 223/236/223 233/233/233
vt 1.002175 0.691255
vt 0.991964 0.687134
vt 0.991095 0.687199
f 235/237/235 236/238/236 207/239/207
vt 0.984553 0.682930
vt 0.983504 0.682997
f 236/238/236 255/240/255 225/241/225
f 239/224/239 235/237/235 210/225/210
vt 0.952591 0.635638
vt 0.958075 0.631489
f 228/211/228 259/242/259 258/243/258
vt 0.877058 0.093526
vt 0.888389 0.093373
f 244/228/244 243/244/243 261/245/261
vt 0.294691 0.091592
vt 0.295438 0.091594
f 245/231/245 262/246/262 246/247/246
vt 0.024402 0.680743
vt 0.014919 0.684751
vt 0.024068 0.680797
f 265/248/265 248/249/248 221/250/221
vt 0.022833 0.679420
f 269/251/269 223/236/223 253/235/253
vt 0.006938 0.688515
f 248/249/248 234/221/234 231/252/231
vt 0.971226 0.674446
vt 0.978215 0.678687
f 272/253/272 255/240/255 273/254/273
vt 0.971959 0.690794
vt 0.965921 0.686661
f 237/255/237 276/256/276 238/223/238
vt 0.958229 0.626846
vt 0.956470 0.620881
f 240/257/240 277/258/277 241/226/241
vt 0.045520 0.672087
vt 0.035041 0.676492
vt 0.035074 0.676513
f 289/259/289 264/260/264 247/261/247
f 264/260/264 265/248/265 221/250/221
vt 0.736826 0.075893
vt 0.737470 0.075899
vt 0.727314 0.075690
f 301/262/301 254/263/254 300/264/300
vt 0.963299 0.670237
vt 0.962437 0.670240
f 272/253/272 281/265/281 256/266/256
vt 0.967165 0.686623
vt 0.964255 0.682406
f 257/267/257 303/268/303 276/256/276
vt 0.956775 0.630251
vt 0.958587 0.625649
f 304/269/304 278/270/278 258/243/258
vt 0.945024 0.661941
vt 0.944129 0.661916
f 281/265/281 311/271/311 242/272/242
vt 0.937169 0.657732
f 311/271/311 282/273/282 242/272/242
vt 0.897459 0.093085
vt 0.887872 0.093330
f 316/274/316 261/245/261 284/275/284
vt 0.285138 0.091943
vt 0.285764 0.091943
f 262/246/262 317/276/317 263/277/263
vt 0.067044 0.649561
vt 0.064581 0.658518
vt 0.065805 0.658492
f 293/278/293 290/279/290 249/280/249
vt 0.060807 0.663055
vt 0.061929 0.663051
f 290/279/290 321/281/321 266/282/266
vt 0.054542 0.667588
vt 0.046010 0.672106
f 291/283/291 289/259/289 250/284/250
f 266/282/266 321/281/321 291/283/291
vt 0.070163 0.645247
vt 0.072513 0.640943
vt 0.068935 0.645225
f 252/285/252 294/286/294 292/287/292
vt 0.068319 0.649561
f 292/287/292 293/278/293 251/288/251
vt 0.031617 0.675034
vt 0.031555 0.674971
f 295/289/295 269/251/269 326/290/326
vt 0.728078 0.075683
vt 0.719370 0.075480
f 270/291/270 330/292/330 300/264/300
vt 0.747905 0.076110
vt 0.747406 0.076094
f 271/293/271 301/262/301 333/294/333
vt 0.958793 0.619892
f 278/270/278 338/295/338 277/258/277
vt 0.931946 0.653517
vt 0.930719 0.653511
f 282/273/282 314/296/314 283/297/283
vt 0.932801 0.645252
vt 0.929442 0.649321
vt 0.930717 0.649348
f 312/298/312 260/299/260 348/300/348
vt 0.937513 0.641257
vt 0.936396 0.641241
f 349/301/349 313/302/313 312/298/312
f 314/296/314 348/300/348 260/299/260
vt 0.240518 0.092830
vt 0.240149 0.092840
vt 0.252137 0.092709
f 354/303/354 286/304/286 353/305/353
vt 0.274881 0.092263
vt 0.275322 0.092280
f 317/276/317 355/306/355 288/307/288
vt 0.079100 0.636649
vt 0.078493 0.636663
f 322/308/322 357/309/357 294/286/294
vt 0.041673 0.670385
vt 0.041242 0.670351
f 296/310/296 326/290/326 323/311/323
vt 0.050572 0.665648
vt 0.051277 0.665651
f 358/312/358 267/313/267 323/311/323
vt 0.058224 0.660949
f 267/313/267 358/312/358 324/314/324
vt 0.065383 0.655187
vt 0.065374 0.656309
f 324/314/324 359/315/359 268/316/268
vt 0.699284 0.074848
vt 0.698411 0.074853
f 330/292/330 298/317/298 367/318/367
vt 0.758892 0.076304
vt 0.758549 0.076296
f 299/319/299 333/294/333 368/320/368
vt 0.976731 0.669109
vt 0.970097 0.673647
vt 0.971117 0.673615
f 336/321/336 335/322/335 274/323/274
vt 0.965792 0.678074
vt 0.966946 0.678057
f 335/322/335 371/324/371 275/325/275
vt 0.991938 0.659895
vt 0.977673 0.669080
f 372/326/372 336/321/336 302/327/302
f 275/325/275 371/324/371 303/268/303
vt 0.895729 0.573712
vt 0.886904 0.573326
vt 0.895780 0.573382
f 375/328/375 341/329/341 279/330/279
vt 0.911345 0.581709
vt 0.906348 0.576913
vt 0.907131 0.576622
f 374/331/374 342/332/342 305/333/305
f 342/332/342 375/328/375 279/330/279
vt 0.918107 0.090293
vt 0.912569 0.091849
vt 0.911513 0.091817
f 381/334/381 345/335/345 310/336/310
vt 0.909391 0.092302
vt 0.908381 0.092278
f 345/335/345 346/337/346 280/338/280
vt 0.904480 0.092717
vt 0.903568 0.092697
f 346/337/346 380/339/380 309/340/309
vt 0.896720 0.093051
f 380/339/380 316/274/316 315/341/315
vt 0.229933 0.092911
vt 0.229311 0.092933
f 354/303/354 350/342/350 287/343/287
vt 0.221333 0.092930
vt 0.220509 0.092964
f 350/342/350 351/344/351 285/345/285
vt 0.215668 0.092864
vt 0.214711 0.092884
f 351/344/351 383/346/383 318/347/318
vt 0.263891 0.092526
vt 0.252055 0.092730
f 385/348/385 353/305/353 320/349/320
vt 0.264092 0.092558
f 355/306/355 385/348/385 319/350/319
vt 0.086546 0.632364
f 388/351/388 357/309/357 322/308/322
vt 0.076972 0.642429
vt 0.078148 0.642463
f 359/315/359 389/352/389 325/353/325
vt 0.681654 0.074481
vt 0.669766 0.074374
vt 0.680965 0.074501
f 329/354/329 398/355/398 365/356/365
vt 0.691173 0.074648
vt 0.690366 0.074664
f 297/357/297 365/356/365 366/358/366
f 298/317/298 366/358/366 367/318/367
vt 0.782147 0.076718
vt 0.782182 0.076722
vt 0.770162 0.076503
f 399/359/399 332/360/332 400/361/400
vt 0.770346 0.076501
f 334/362/334 368/320/368 400/361/400
vt 0.959604 0.624509
vt 0.959126 0.620036
f 339/363/339 403/364/403 338/295/338
vt 0.956435 0.628993
vt 0.957416 0.628968
f 373/365/373 404/366/404 339/363/339
vt 0.914965 0.587586
vt 0.912418 0.581504
f 377/367/377 374/331/374 306/368/306
vt 0.889371 0.577862
vt 0.888338 0.577786
f 406/369/406 343/370/343 341/329/341
vt 0.921456 0.594032
vt 0.916055 0.587454
f 378/371/378 377/367/377 307/372/307
vt 0.929315 0.600330
vt 0.930116 0.600169
f 407/373/407 378/371/378 308/374/308
vt 0.944888 0.610673
vt 0.937039 0.605760
vt 0.937518 0.605600
f 405/375/405 379/376/379 344/377/344
f 379/376/379 407/373/407 308/374/308
vt 0.951290 0.633185
vt 0.942949 0.637289
f 409/378/409 347/379/347 349/301/349
vt 0.206283 0.092449
vt 0.205245 0.092442
f 412/380/412 382/381/382 383/346/383
vt 0.202347 0.092293
vt 0.201352 0.092295
f 413/382/413 352/383/352 412/380/412
vt 0.296895 0.075084
vt 0.296266 0.075068
vt 0.287184 0.075423
f 392/384/392 361/385/361 396/386/396
vt 0.307812 0.074769
vt 0.307332 0.074762
f 393/387/393 327/388/327 392/384/392
vt 0.319764 0.074470
vt 0.319458 0.074472
f 419/389/419 362/390/362 393/387/393
vt 0.254385 0.076846
vt 0.253658 0.076841
vt 0.245315 0.077173
f 395/391/395 363/392/363 420/393/420
vt 0.277641 0.075780
f 396/386/396 328/394/328 395/391/395
vt 0.657077 0.074235
vt 0.643225 0.074055
vt 0.643202 0.074039
f 425/395/425 424/396/424 426/397/426
vt 0.670269 0.074374
f 364/398/364 425/395/425 398/355/398
vt 0.806316 0.077110
vt 0.794192 0.076937
f 427/399/427 331/400/331 399/359/399
vt 0.953121 0.615418
vt 0.953031 0.615256
f 403/364/403 402/401/402 337/402/337
vt 0.945034 0.610520
f 402/401/402 405/375/405 340/403/340
f 404/366/404 373/365/373 409/378/409
vt 0.895686 0.584128
vt 0.896765 0.584006
f 376/404/376 406/369/406 433/405/433
vt 0.921905 0.089716
vt 0.917074 0.090278
f 434/406/434 381/334/381 408/407/408
vt 0.197028 0.092135
vt 0.196116 0.092141
f 413/382/413 439/408/439 384/409/384
vt 0.088728 0.633351
vt 0.109008 0.624633
vt 0.106956 0.623622
f 356/410/356 386/411/386 441/412/441
vt 0.119617 0.620370
vt 0.107413 0.623834
f 386/411/386 387/413/387 442/414/442
vt 0.096347 0.628024
vt 0.086720 0.632305
f 444/415/444 388/351/388 414/416/414
vt 0.082227 0.637749
vt 0.083336 0.637796
f 389/352/389 445/417/445 360/418/360
vt 0.332579 0.074181
vt 0.332451 0.074175
f 449/419/449 394/420/394 419/389/419
vt 0.628665 0.073836
f 424/396/424 456/421/456 426/397/426
vt 0.842288 0.077647
vt 0.842161 0.077628
f 457/422/457 401/423/401 427/399/427
vt 1.006646 0.646631
vt 1.003622 0.650952
vt 1.004833 0.650941
f 460/424/460 431/425/431 369/426/369
vt 0.998562 0.655349
vt 0.999689 0.655354
f 431/425/431 461/427/461 370/428/370
f 370/428/370 461/427/461 372/326/372
vt 0.089589 0.633149
vt 0.088580 0.633076
f 415/429/415 445/417/445 468/430/468
vt 0.211262 0.078076
vt 0.211229 0.078079
vt 0.199307 0.078351
f 447/431/447 417/432/417 470/433/470
vt 0.223197 0.077788
vt 0.222969 0.077800
f 448/434/448 390/435/390 447/431/447
vt 0.234734 0.077487
vt 0.234309 0.077489
f 472/436/472 418/437/418 448/434/448
vt 0.346093 0.073899
vt 0.346053 0.073913
f 391/438/391 449/419/449 473/439/473
vt 0.244716 0.077162
f 420/393/420 421/440/421 472/436/472
vt 0.445454 0.072627
vt 0.429971 0.072786
vt 0.445171 0.072634
f 397/441/397 453/442/453 454/443/454
vt 0.461098 0.072495
vt 0.460918 0.072496
f 422/444/422 454/443/454 476/445/476
vt 0.373909 0.073462
vt 0.374203 0.073463
vt 0.359984 0.073680
f 479/446/479 423/447/423 478/448/478
vt 1.007879 0.646613
vt 1.007161 0.642314
f 460/424/460 430/449/430 484/450/484
vt 0.903845 0.589513
vt 0.904804 0.589328
f 432/451/432 433/405/433 485/452/485
vt 0.928151 0.089159
vt 0.920942 0.089712
f 488/453/488 434/406/434 462/454/462
vt 0.143976 0.606528
vt 0.136503 0.610756
vt 0.137497 0.610824
f 466/455/466 465/456/465 410/457/410
vt 0.127272 0.615019
vt 0.128018 0.615083
f 465/456/465 492/458/492 438/459/438
vt 0.148648 0.602324
vt 0.145093 0.606595
f 467/460/467 466/455/466 411/461/411
vt 0.190016 0.091972
vt 0.189243 0.091965
f 439/408/439 494/462/494 440/463/440
vt 0.117680 0.619340
f 442/414/442 443/464/443 441/412/441
vt 0.096677 0.628510
vt 0.095938 0.628435
f 416/465/416 468/430/468 469/466/469
vt 0.104371 0.623862
vt 0.104208 0.623846
f 446/467/446 469/466/469 496/468/496
vt 0.360165 0.073673
f 450/469/450 473/439/473 478/448/478
vt 0.387745 0.073239
f 453/442/453 452/470/452 479/446/479
vt 0.477390 0.072412
vt 0.477349 0.072420
f 455/471/455 476/445/476 501/472/501
vt 0.628447 0.073846
vt 0.613990 0.073679
f 456/421/456 429/473/429 483/474/483
vt 0.866497 0.078038
vt 0.866497 0.078061
f 480/475/480 457/422/457 502/476/502
vt 0.588008 0.073189
vt 0.587297 0.073224
vt 0.553811 0.072527
f 482/477/482 428/478/428 503/479/503
vt 0.600123 0.073489
vt 0.599529 0.073528
f 504/480/504 458/481/458 482/477/482
vt 0.613563 0.073702
f 483/474/483 459/482/459 504/480/504
vt 0.927302 0.089150
vt 0.936385 0.088627
f 488/453/488 487/483/487 505/484/505
vt 0.141032 0.579709
vt 0.141075 0.578608
vt 0.134244 0.574253
f 507/485/507 435/486/435 489/487/489
vt 0.134815 0.574149
vt 0.128888 0.572414
f 463/488/463 506/489/506 489/487/489
vt 0.151185 0.597920
vt 0.150109 0.597769
f 467/460/467 437/490/437 509/491/509
vt 0.148931 0.592659
vt 0.144678 0.587242
vt 0.147949 0.592488
f 464/492/464 491/493/491 490/494/490
f 437/490/437 490/494/490 509/491/509
vt 0.143837 0.582866
f 491/493/491 436/495/436 507/485/507
vt 0.117325 0.619330
f 438/459/438 492/458/492 493/496/493
vt 0.106928 0.623670
f 441/412/441 510/497/510 444/415/444
vt 0.113182 0.619396
f 511/498/511 446/467/446 496/468/496
vt 0.199454 0.078342
vt 0.187710 0.078613
f 471/499/471 513/500/513 470/433/470
vt 0.510248 0.072288
vt 0.509957 0.072282
vt 0.493959 0.072364
f 499/501/499 474/502/474 514/503/514
vt 0.525866 0.072264
vt 0.525411 0.072266
f 500/504/500 451/505/451 499/501/499
vt 0.540466 0.072366
vt 0.539871 0.072364
f 515/506/515 475/507/475 500/504/500
vt 0.493840 0.072350
f 514/503/514 477/508/477 501/472/501
vt 0.553110 0.072521
f 503/479/503 481/509/481 515/506/515
vt 0.913046 0.594197
vt 0.913784 0.594042
f 486/510/486 485/452/485 518/511/518
f 493/496/493 510/497/510 441/412/441
vt 0.181231 0.091788
vt 0.180640 0.091770
f 494/462/494 522/512/522 495/513/495
vt 0.902953 0.078729
vt 0.902770 0.078772
f 516/514/516 502/476/502 528/515/528
vt 1.005828 0.638027
vt 1.004814 0.637977
f 484/450/484 517/516/517 531/517/531
vt 0.924000 0.598360
f 532/518/532 486/510/486 518/511/518
vt 0.946146 0.088123
vt 0.935693 0.088625
f 533/519/533 505/484/505 520/520/520
vt 0.127588 0.575876
vt 0.127342 0.575795
f 540/521/540 506/489/506 508/522/508
vt 0.122650 0.615173
vt 0.121882 0.615122
f 542/523/542 512/524/512 511/498/511
vt 0.176416 0.078864
vt 0.165842 0.079101
vt 0.154533 0.079341
f 526/525/526 497/526/497 543/527/543
vt 0.188006 0.078609
f 498/528/498 526/525/526 513/500/513
vt 0.999253 0.633597
f 517/516/517 547/529/547 531/517/531
vt 0.934412 0.602570
vt 0.934112 0.602579
f 548/530/548 519/531/519 532/518/532
vt 0.129395 0.581768
f 541/532/541 540/521/540 508/522/508
vt 0.133360 0.587221
vt 0.128565 0.581644
f 550/533/550 541/532/541 521/534/521
vt 0.170594 0.091568
vt 0.170213 0.091558
f 522/512/522 551/535/551 523/536/523
vt 0.131319 0.611000
vt 0.130380 0.610948
f 552/537/552 524/538/524 542/523/542
vt 0.123051 0.080078
vt 0.122579 0.080114
f 543/527/543 525/539/525 554/540/554
vt 0.137770 0.592380
vt 0.136809 0.592293
vt 0.140912 0.597393
f 556/541/556 527/542/527 555/543/555
vt 0.914693 0.079020
vt 0.914937 0.078974
f 557/544/557 529/545/529 528/515/528
vt 1.000090 0.633636
vt 0.991492 0.629196
f 530/546/530 560/547/560 547/529/547
vt 0.953325 0.611431
f 561/548/561 519/531/519 548/530/548
vt 0.957033 0.087592
vt 0.945653 0.088172
f 564/549/564 533/519/533 549/550/549
vt 0.124314 0.090183
vt 0.124754 0.090164
vt 0.135247 0.090608
f 567/551/567 535/552/535 566/553/566
vt 0.100484 0.080779
f 525/539/525 571/554/571 554/540/554
vt 0.141412 0.602189
vt 0.139879 0.597282
f 573/555/573 555/543/555 544/556/544
vt 0.132421 0.587124
f 556/541/556 550/533/550 545/557/545
vt 0.992086 0.629216
vt 0.982548 0.624793
f 546/558/546 574/559/574 560/547/560
vt 0.158901 0.091302
vt 0.146948 0.090981
vt 0.147020 0.090969
f 570/560/570 565/561/565 539/562/539
vt 0.135526 0.090582
f 565/561/565 566/553/566 534/563/534
vt 0.093707 0.088733
vt 0.114458 0.089712
f 567/551/567 568/564/568 536/565/536
vt 0.072447 0.087817
vt 0.083786 0.088232
f 568/564/568 569/566/569 537/567/537
vt 0.158745 0.091301
f 551/535/551 570/560/570 538/568/538
vt 0.137893 0.606698
vt 0.136844 0.606606
f 552/537/552 577/569/577 553/570/553
f 577/569/577 573/555/573 553/570/553
vt 0.949155 0.080012
vt 0.938302 0.079597
f 581/571/581 558/572/558 557/544/557
vt 0.963068 0.615910
vt 0.962806 0.615945
f 582/573/582 562/574/562 561/548/561
vt 0.968643 0.086979
vt 0.956800 0.087695
f 583/575/583 564/549/564 563/576/563
vt 0.061119 0.087459
vt 0.061412 0.087486
f 569/566/569 584/577/584 576/578/576
vt 0.100817 0.080728
vt 0.077104 0.081558
f 572/579/572 587/580/587 571/554/571
vt 0.972842 0.620421
vt 0.972910 0.620371
f 574/559/574 559/581/559 589/582/589
f 589/582/589 559/581/559 582/573/582
vt 0.979411 0.086367
vt 0.968754 0.087099
f 591/583/591 583/575/583 575/584/575
vt 0.065241 0.081990
vt 0.065156 0.081961
vt 0.053562 0.082506
f 597/585/597 580/586/580 596/587/596
vt 0.049415 0.087129
vt 0.049519 0.087200
f 584/577/584 598/588/598 592/589/592
vt 0.031901 0.083633
vt 0.031246 0.083622
vt 0.023159 0.084198
f 594/590/594 585/591/585 600/592/600
vt 0.042352 0.083066
vt 0.041885 0.083033
f 595/593/595 578/594/578 594/590/594
vt 0.053288 0.082473
f 596/587/596 579/595/579 595/593/595
vt 0.077188 0.081515
f 586/596/586 597/585/597 587/580/587
vt 0.959789 0.080416
vt 0.960379 0.080373
f 601/597/601 588/598/588 581/571/581
vt 0.987773 0.085844
vt 0.979876 0.086485
f 604/599/604 591/583/591 590/600/590
vt 0.022336 0.084209
vt 0.017076 0.084756
f 600/592/600 593/601/593 608/602/608
vt 0.970145 0.080850
vt 0.969450 0.080896
f 602/603/602 601/597/601 609/604/609
vt 0.037455 0.086778
vt 0.037270 0.086873
f 598/588/598 611/605/611 606/606/606
vt 0.013507 0.085295
vt 0.012468 0.085307
vt 0.012302 0.085802
f 612/607/612 607/608/607 613/609/613
vt 0.016119 0.084764
f 608/602/608 599/610/599 612/607/612
vt 0.993555 0.085296
vt 0.988527 0.085949
f 616/611/616 604/599/604 605/612/605
vt 0.978973 0.081380
vt 0.978174 0.081427
f 603/613/603 609/604/609 614/614/614
vt 0.986902 0.081951
vt 0.986002 0.081981
f 610/615/610 614/614/614 620/616/620
vt 0.026754 0.086491
vt 0.026250 0.086597
f 611/605/611 622/617/622 617/618/617
vt 0.013921 0.086186
vt 0.011252 0.085854
f 624/619/624 613/609/613 618/620/618
vt 0.996587 0.084611
vt 0.994514 0.085375
f 626/621/626 616/611/616 615/622/615
vt 0.992145 0.082569
vt 0.993130 0.082556
f 628/623/628 619/624/619 620/616/620
vt 0.997640 0.084645
vt 0.997221 0.083883
f 621/625/621 630/626/630 626/621/626
vt 0.018824 0.086355
vt 0.018048 0.086465
f 622/617/622 631/627/631 627/628/627
vt 0.012952 0.086282
f 631/627/631 624/619/624 623/629/623
vt 0.996858 0.083189
vt 0.995812 0.083203
f 629/630/629 628/623/628 632/631/632
vt 0.998292 0.083876
f 625/632/625 632/631/632 630/626/630
# 338 faces, 632 coords texture

# End of File
