# .PCD v0.7 - Point Cloud Data file format
VERSION 0.7
FIELDS x y z
SIZE 4 4 4
TYPE F F F
COUNT 1 1 1
WIDTH 2048
HEIGHT 1
VIEWPOINT 0 0 0 1 0 0 0
POINTS 2048
DATA ascii
44.85353 -2.452113 18.81491
45.94497 -2.41713 18.63296
46.90038 -2.424484 18.77629
45.92985 -2.476905 18.83515
47.47629 -2.415179 18.70109
44.69214 -2.455287 18.54358
45.58424 -2.451112 18.3271
48.77888 -2.448878 19.17621
45.66875 -2.454173 18.16316
43.09612 -2.6333 19.31356
47.221 -2.448046 18.58772
46.21547 -2.451388 18.1526
44.82133 -2.469353 18.15383
48.50728 -2.447478 18.54109
44.46519 -2.472518 18.14196
48.80581 -2.446368 18.59545
46.92908 -2.453202 18.02258
43.1046 -2.854152 19.43022
47.75727 -2.449924 18.1389
48.85543 -2.443748 18.5176
45.49067 -2.460926 17.70593
49.45491 -2.450399 18.74113
49.23069 -2.446319 18.6156
48.65866 -2.442966 18.21277
45.41869 -2.460206 17.70311
42.93313 -2.475598 18.59803
49.67928 -2.582903 19.12398
49.9355 -2.445242 18.25887
47.33706 -2.452556 17.5419
42.81289 -2.476061 18.53336
50.04984 -2.456602 18.77342
48.69936 -2.457887 17.15203
48.02562 -2.45087 17.61917
48.38266 -2.451521 17.60656
43.18 -2.477267 18.79367
42.45282 -2.484693 18.64552
50.01405 -2.468139 18.84636
50.95583 -2.437948 17.67843
51.12996 -2.437868 17.83118
50.65992 -2.443153 18.36992
49.24713 -2.450039 17.48926
48.84048 -2.451246 17.67226
47.13609 -2.45888 17.05887
45.05244 -2.453015 17.51525
42.61596 -2.499386 18.85594
43.53889 -2.464026 17.88007
42.281 -2.470052 18.22713
42.96803 -2.548209 19.02675
50.81864 -2.484887 18.77207
51.45462 -2.434072 17.86653
50.12247 -2.439079 17.26522
49.06409 -2.453231 16.98196
47.04831 -2.458805 17.02389
46.6314 -2.43783 17.36838
43.41373 -2.462818 18.11049
43.64445 -2.470188 17.34647
41.68896 -2.465182 17.86368
43.11266 -3.159412 19.09414
50.5766 -2.513819 18.92816
50.63014 -2.436865 17.05074
48.35041 -2.475121 16.42389
48.8258 -2.467944 16.24966
47.63529 -2.457705 16.59751
45.84538 -2.4613 17.08176
42.35126 -2.465343 17.8302
42.05221 -2.461607 17.61946
43.08012 -3.225381 18.78419
51.51634 -2.463995 18.57991
51.10892 -2.436682 16.88313
50.85802 -2.44012 16.72108
48.28408 -2.485835 15.96821
49.37053 -2.445172 16.18025
47.99813 -2.490402 15.5279
47.1264 -2.447935 16.60769
45.83012 -2.465969 16.97253
44.74771 -2.474865 16.64194
42.72807 -2.472139 17.35968
42.25696 -2.449711 17.06327
41.0065 -2.467676 18.03166
42.63292 -3.172542 18.89358
49.627 -3.168221 18.87117
51.77234 -2.401473 17.01356
50.97586 -2.443335 16.30968
50.10248 -2.418477 15.33585
50.78136 -2.442691 15.55559
48.53782 -2.487655 15.59049
48.99881 -2.461159 15.92229
49.57393 -2.429208 15.46953
47.90061 -2.474818 15.95612
46.38554 -2.457945 17.10065
44.95861 -2.472535 16.70858
43.72152 -2.471823 16.93338
41.98045 -2.430754 16.50861
40.86086 -2.458614 17.87015
40.3146 -2.530216 18.62743
43.67745 -3.25044 18.62733
50.6072 -2.860921 19.11516
52.01304 -2.460147 18.44677
51.85123 -2.433408 18.10279
50.51717 -2.43386 15.96775
49.94861 -2.420449 15.43331
50.89277 -2.446836 15.06725
49.70866 -2.426221 15.63464
49.57415 -2.413438 14.03518
47.81667 -2.485766 15.12664
45.46538 -2.46656 16.46609
42.17936 -2.960149 19.09328
43.30498 -2.483501 16.99131
41.66596 -2.433652 16.00693
40.59536 -2.434909 17.68846
40.84822 -2.567213 18.79486
49.18484 -3.148259 19.07245
52.03784 -2.494431 18.56645
51.46617 -2.419494 16.11277
51.0477 -2.444763 15.71707
50.75208 -2.44309 15.04659
48.83415 -2.471091 15.14568
49.29955 -2.429484 14.05134
49.45083 -2.412568 13.43861
46.3228 -2.482444 16.73886
44.86842 -2.488942 15.99496
44.2234 -2.461332 16.31539
42.47238 -2.440839 16.41414
41.08287 -2.442492 17.25968
42.04508 -2.415503 16.05186
40.60601 -2.424203 17.4968
42.34763 -3.123324 18.8534
49.96518 -3.191314 18.44012
51.69827 -2.814113 18.95869
51.84217 -2.397903 17.02727
52.17384 -2.399064 17.40734
50.6819 -2.439971 14.62936
50.20644 -2.404367 13.40058
50.40482 -2.425521 14.34555
48.90983 -2.465609 14.97867
47.37674 -2.415721 15.79683
47.38615 -2.424493 16.03872
45.45569 -2.464289 15.74336
44.75346 -2.490033 15.92472
41.31332 -2.697876 18.99163
42.76476 -2.480989 16.50024
43.32734 -2.508731 16.45605
42.16806 -2.420296 16.26133
41.59443 -2.401248 14.2873
39.76819 -2.505677 18.33632
44.45714 -3.32141 17.80504
50.14185 -3.191655 18.45801
51.93729 -2.755053 18.88544
51.51973 -2.413093 15.86699
51.42443 -2.421708 15.52877
51.04116 -2.452565 14.16519
49.9341 -2.390539 13.13707
48.95312 -2.462789 14.94855
48.83026 -2.468989 14.29239
49.45383 -2.396337 12.7355
47.48253 -2.440265 15.20161
46.94395 -2.433171 16.25473
45.64214 -2.461986 16.06215
44.58574 -2.485718 15.39189
40.58995 -2.881604 18.89012
42.78857 -2.488274 16.03512
43.53712 -2.515109 15.99928
41.17712 -2.423913 15.22452
42.10442 -2.396604 15.46733
41.70739 -2.416266 15.37727
40.44894 -2.350482 16.81703
42.74232 -3.17629 18.61425
48.97525 -3.222009 18.50696
50.92577 -3.192246 18.46692
52.30602 -2.826083 18.8114
51.83086 -2.36044 15.62959
51.45835 -2.416856 14.51996
50.62111 -2.438376 13.15203
48.95137 -2.455345 13.43257
49.21213 -2.421699 12.82517
49.07835 -2.439167 13.06657
47.43503 -2.452833 14.64828
45.72689 -2.462269 15.50157
44.73945 -2.505731 14.89229
41.24095 -3.108711 18.80091
43.51357 -2.539124 15.66208
40.74993 -2.378954 16.26971
42.01126 -2.381256 14.67839
41.71384 -2.399982 14.62881
40.75738 -2.388293 16.51521
42.5811 -3.18281 18.40466
51.46251 -3.181463 18.5679
49.16847 -3.21677 17.96432
52.87261 -2.624114 18.61081
51.86721 -2.334082 14.77364
51.54479 -2.398972 14.23038
50.95483 -2.464285 13.0532
50.70693 -2.448194 13.16701
49.52108 -2.354755 12.03958
47.50196 -2.468589 14.48957
46.18803 -2.535289 16.08731
45.30789 -2.492428 14.62178
44.89964 -2.517415 14.16337
41.62855 -3.150991 18.70111
42.79543 -2.480047 15.26988
43.00838 -2.528527 15.63456
40.83526 -2.383028 15.65267
42.13417 -2.357592 13.77783
40.30843 -2.315752 16.56951
42.04055 -3.187889 18.42268
45.47605 -3.295713 17.51795
50.74504 -3.192079 18.27739
48.6484 -3.185967 17.99381
52.9086 -2.5171 18.36306
51.66614 -2.370276 13.88741
52.57933 -2.43783 17.32273
50.57463 -2.43756 12.58756
49.35876 -2.3753 12.05329
47.07471 -2.399877 15.70461
48.26937 -2.524244 13.42405
46.0075 -2.503958 15.77214
45.49571 -2.492861 14.43492
44.10574 -2.464466 15.49497
39.93816 -3.096999 18.58109
42.50241 -2.402944 14.40541
40.7942 -2.352572 14.04987
40.55183 -2.306151 15.40575
41.97199 -2.338643 13.08561
40.44409 -2.292542 15.8387
41.61954 -3.184375 18.40767
43.17245 -3.206895 18.2441
50.42094 -3.1968 17.66665
49.17717 -3.204386 17.51068
50.17262 -3.206597 17.8781
52.93493 -2.994905 18.59781
52.3399 -2.276155 15.53014
51.53243 -2.400599 13.35871
50.88559 -2.486196 12.33737
48.35289 -2.50531 12.83847
48.88762 -2.447828 12.20519
47.19463 -2.449308 14.2467
46.63292 -2.52708 15.8605
45.58158 -2.503675 14.08272
44.59446 -2.520278 14.15886
39.97805 -3.104877 18.55788
42.76068 -2.460604 14.7391
43.36309 -2.551857 15.52276
40.895 -2.371683 13.69679
40.34164 -2.2414 14.71168
41.90126 -2.330309 12.73476
40.15543 -2.33873 16.83792
40.9495 -3.182137 18.2919
42.68382 -3.197264 17.91278
45.87413 -3.290841 17.4173
51.4605 -3.202024 18.16635
49.79807 -3.228053 17.35411
49.96812 -3.237119 17.00655
53.29733 -2.701222 18.51218
51.89895 -2.302216 13.40341
51.39886 -2.438354 12.89356
50.07717 -2.338998 11.81533
49.10212 -2.413077 12.02876
48.66019 -2.480028 11.84963
47.17546 -2.473897 13.7918
46.03418 -2.519996 14.99708
44.7869 -2.524559 13.91054
40.19267 -3.135187 18.4815
43.84708 -2.533846 14.53645
40.60363 -2.296776 13.86979
40.36769 -2.265006 15.47697
40.10509 -2.29326 16.20362
41.01109 -3.166836 17.46216
40.85242 -3.177463 17.85713
42.81382 -3.195347 18.10833
44.71733 -3.261547 17.44182
50.83899 -3.172148 17.80101
48.40897 -3.228738 17.35973
50.12479 -3.226146 17.05434
52.91644 -3.08757 18.49905
52.17709 -2.235348 13.74955
51.59998 -2.387972 13.11437
50.4626 -2.412168 11.64091
49.63463 -2.279085 11.06078
49.04858 -2.404847 11.46184
46.72726 -2.499979 14.77779
46.85992 -2.484091 14.09991
45.79605 -2.488209 14.79968
45.46853 -2.545869 12.74784
44.95682 -2.538397 13.31091
45.09488 -2.539551 13.18931
43.87463 -2.548137 13.87418
39.68653 -3.118884 18.37592
42.93942 -2.470677 13.61944
43.45279 -2.55269 14.4459
40.43627 -2.250685 13.81911
42.05472 -2.310477 12.60065
39.79131 -2.600583 17.57868
41.42861 -3.170883 17.64907
42.32131 -3.196079 17.34252
43.21614 -3.208114 17.29026
45.2578 -3.257765 17.23795
51.1375 -3.096565 17.19108
48.20743 -3.228996 17.11297
48.40375 -3.225986 16.89685
49.54573 -3.263952 16.5304
52.33294 -3.170167 18.41661
52.5008 -2.279212 15.45194
52.75694 -2.585828 17.14292
49.8589 -2.27226 11.03542
49.6665 -2.23959 10.54011
48.7771 -2.457442 11.35842
46.62712 -2.527507 14.40318
47.04114 -2.512923 13.13133
46.12016 -2.536829 14.83044
45.99965 -2.54025 12.83622
45.07308 -2.552027 12.74047
40.67589 -3.181779 17.95899
42.97836 -2.465358 13.15796
41.15274 -2.409348 12.39843
40.10035 -2.238781 15.03263
41.86271 -2.306486 12.19728
39.43362 -3.038281 18.24212
41.70476 -3.163444 17.07417
43.1239 -3.220979 16.75456
43.43371 -3.21179 16.9989
43.8981 -3.220097 17.57504
46.63562 -3.293422 17.52207
51.04152 -3.087543 16.93544
51.27705 -3.092691 17.19858
47.82241 -3.240068 16.37449
48.30432 -3.235202 16.64627
47.6211 -3.215738 17.05485
52.41986 -2.193407 13.49702
52.08751 -2.238372 12.93421
52.68557 -2.380808 16.02365
50.38224 -2.381973 11.13717
47.90671 -2.571981 11.36322
49.57016 -2.23036 10.29108
48.2818 -2.552395 10.96371
46.44671 -2.545735 14.41333
46.96877 -2.517466 13.08451
45.96508 -2.534189 13.22525
46.21277 -2.566182 11.45854
46.02832 -2.548167 12.51101
45.32174 -2.561232 12.2188
44.4714 -2.555264 12.95911
40.49106 -3.181754 18.20623
43.11805 -2.490297 13.15264
40.68632 -2.32836 12.41696
42.3073 -2.28489 12.11492
42.05379 -2.267285 11.96993
39.16032 -2.583795 18.23043
41.62791 -3.143047 16.67316
42.2166 -3.194693 16.95507
43.55016 -3.222433 16.43655
43.78139 -3.210222 17.33399
45.31364 -3.232809 17.11015
51.27485 -3.052649 16.81543
46.99758 -3.227184 16.70281
47.23948 -3.23172 16.48554
49.24241 -3.257144 16.31594
47.69796 -3.212653 17.1524
53.53116 -2.746587 18.26816
52.39811 -2.179179 12.97565
51.57533 -2.419692 12.06769
51.03664 -2.565127 10.97158
50.07966 -2.263709 10.45907
49.48243 -2.236776 10.17203
49.28121 -2.299897 10.45898
46.86871 -2.524767 12.99979
46.67411 -2.54739 12.31561
45.67017 -2.565502 11.71988
44.86064 -2.570108 12.25134
44.49797 -2.566645 12.50716
43.76971 -2.551297 13.10093
42.99109 -2.459919 12.81805
40.17786 -2.202139 13.35103
42.40356 -2.251369 11.54154
39.97566 -2.692781 16.96102
41.2985 -3.130697 16.61222
40.80188 -3.184962 16.79296
42.59623 -3.228627 16.41753
44.54578 -3.213104 17.12929
45.5993 -3.242543 17.11328
51.33855 -3.031715 16.47213
50.03344 -3.265853 15.69848
47.1749 -3.220035 16.95581
46.34832 -3.226492 16.65217
47.29642 -3.242068 15.97535
48.31462 -3.251045 16.22876
49.79776 -3.300719 15.67145
52.65357 -3.169079 18.19868
52.73305 -2.305324 14.4815
51.79367 -2.355678 11.18944
51.10119 -2.57747 10.76001
50.29646 -2.337975 10.67417
49.99742 -2.225567 10.0535
49.61525 -2.161442 9.22242
46.54558 -2.537005 13.27428
47.17317 -2.547786 12.32719
46.2996 -2.571925 11.23887
46.01014 -2.58039 10.64492
45.23928 -2.569619 11.9475
43.83979 -2.559788 12.6956
43.00227 -2.458236 12.5587
40.7914 -2.374022 11.8344
39.89767 -2.311751 14.1996
42.15131 -2.158933 10.64174
39.31108 -3.059609 18.01224
41.66669 -3.130622 16.27612
41.92636 -3.160747 16.39581
43.89955 -3.229002 16.16333
45.01476 -3.218297 16.80024
45.81187 -3.240224 17.07551
50.34298 -3.199884 15.93858
50.97752 -3.013896 15.77298
46.42936 -3.231067 16.25261
47.97395 -3.269815 15.71572
47.75341 -3.274391 15.30696
48.86768 -3.250206 15.65235
49.06249 -3.259961 15.74022
53.08755 -3.264316 18.00428
52.75523 -2.52066 15.94068
51.59702 -2.442066 11.37319
50.72295 -2.514276 10.60661
50.23697 -2.287941 9.849676
47.80779 -2.581286 11.27538
48.8175 -2.431637 10.11818
48.44408 -2.53599 10.43156
46.58409 -2.553969 12.08458
46.43768 -2.574729 11.17786
45.72836 -2.578117 11.08111
44.57778 -2.585484 12.03054
43.15816 -2.491661 12.24707
39.90358 -2.318732 14.31799
42.36919 -2.214547 11.14377
41.80757 -2.25605 11.0073
38.98428 -2.951458 17.91251
41.27721 -3.049839 14.72232
40.56663 -3.231323 17.09846
42.15265 -3.185204 16.37982
42.61488 -3.265903 15.33288
45.05588 -3.223861 16.22287
45.38358 -3.228651 15.91361
45.09269 -3.229321 15.69034
51.3356 -2.956269 15.3335
50.86257 -3.026963 15.35326
46.00354 -3.229962 15.71821
48.11985 -3.285702 15.18738
46.73178 -3.241705 15.65733
48.58111 -3.249853 15.59489
52.41248 -3.317138 17.51281
52.77755 -2.252318 13.38392
52.27283 -2.160929 11.74545
52.61442 -2.804046 16.2106
50.47032 -2.405448 10.37156
49.91257 -2.082795 7.575655
47.58379 -2.598138 11.07713
49.35898 -2.144601 7.920425
48.10242 -2.601128 10.39322
46.82415 -2.579201 11.23645
47.16129 -2.610066 10.70963
46.46425 -2.587533 10.49338
46.07434 -2.592411 9.718098
44.84564 -2.606104 11.23873
44.5502 -2.628951 11.02955
43.77269 -2.561152 12.50517
43.0233 -2.457931 11.97813
39.87568 -2.377818 14.49493
41.91606 -2.20121 10.65633
39.65179 -2.754868 17.02526
41.02555 -3.101926 15.0857
41.61457 -3.089849 15.44158
40.57079 -3.297667 16.0093
43.78708 -3.233487 16.02868
44.59736 -3.217233 15.90753
45.26979 -3.2367 15.11145
45.41256 -3.225478 16.24673
45.839 -3.223607 16.63112
50.01512 -3.273314 14.95147
50.90954 -2.999282 15.10515
45.90211 -3.235159 15.21675
46.50414 -3.238083 15.52724
47.86853 -3.296406 14.70923
47.34058 -3.275406 14.737
49.43424 -3.356211 14.64238
53.07965 -3.391057 17.67659
52.78536 -2.278025 13.62
52.0817 -2.211547 10.8052
51.59894 -2.496208 10.17319
50.79549 -2.561181 9.792254
50.10614 -2.196925 8.884527
47.73983 -2.663716 9.805103
49.42693 -2.164908 8.672797
49.45026 -2.047852 6.56762
48.89534 -2.39477 9.721766
47.41226 -2.654035 10.01846
46.33826 -2.610484 9.130481
45.00609 -2.624482 10.58992
45.55507 -2.609474 9.518
44.46483 -2.621037 11.26187
43.76658 -2.599588 11.62883
43.3751 -2.53798 12.06951
40.35155 -2.226661 12.01348
42.95866 -2.41386 10.99413
39.98972 -2.562233 15.36488
38.97307 -2.409363 17.69682
41.11435 -3.067261 14.30122
41.81911 -3.104212 14.99285
40.63399 -3.314955 15.22661
43.84023 -3.241771 15.76046
43.12088 -3.27108 15.14775
44.99634 -3.236319 15.02551
51.57203 -3.100807 15.92306
50.88059 -2.980784 14.47165
46.80763 -3.26956 14.37921
47.8231 -3.30788 14.20809
49.27015 -3.35084 14.36278
49.95213 -3.268242 13.5228
53.43326 -3.060075 17.9889
52.69668 -2.155569 12.20998
51.55497 -2.554989 9.460368
50.74858 -2.549055 9.500184
49.56309 -2.027982 6.582336
50.14217 -2.150705 7.569746
49.8541 -1.999329 6.087271
49.19476 -2.215103 8.257241
48.98084 -2.356882 9.542509
47.46467 -2.680874 9.50733
46.30246 -2.59889 9.776136
46.00996 -2.63528 7.454018
45.29407 -2.614812 10.1742
45.55986 -2.622833 8.806749
45.07992 -2.642586 9.825628
43.88177 -2.636822 10.89744
43.51807 -2.569643 11.74868
40.36357 -2.236213 11.68798
43.09481 -2.470184 11.15695
41.86605 -2.192537 10.26139
40.12399 -2.64842 15.73197
40.91779 -3.142428 14.70417
41.29962 -3.018454 13.51433
42.16476 -3.183568 15.21689
40.36665 -3.40379 16.43385
42.69532 -3.290773 14.25342
45.2255 -3.240218 14.74477
51.38249 -2.951045 14.80544
49.97206 -3.276646 14.23315
50.59928 -3.063841 14.06168
51.64296 -3.210594 16.26738
48.33861 -3.282251 14.84699
46.88329 -3.276736 13.99237
47.86277 -3.317562 13.8611
47.68885 -3.31135 13.9178
49.75697 -3.31752 13.57279
53.6219 -2.664529 17.75268
52.641 -2.127134 11.75669
52.24244 -2.140995 10.2291
52.58052 -2.883332 16.24884
49.57339 -1.988846 5.890712
50.16016 -2.120245 6.756119
49.07778 -2.250047 7.938544
49.41418 -2.040792 6.273481
46.6686 -2.608328 10.0382
47.05657 -2.649045 9.688483
47.61019 -2.736537 7.950594
46.40692 -2.627734 8.521427
46.05626 -2.651484 6.859794
45.70431 -2.643882 7.367892
45.44136 -2.625334 9.177159
44.59032 -2.718946 9.194305
43.91864 -2.650155 10.62265
43.39494 -2.564406 11.12055
40.29131 -2.217066 11.71586
43.21363 -2.510548 10.66276
42.29908 -2.085367 9.605802
40.14325 -2.773135 16.12291
38.8676 -2.721471 17.62026
41.10623 -3.058864 12.92416
42.30003 -3.208477 14.61792
40.56673 -3.403774 15.10831
43.75588 -3.242326 15.34467
42.89107 -3.311593 14.30155
44.58343 -3.233553 15.07958
45.6078 -3.244069 14.59541
51.13811 -2.919967 14.41494
50.32251 -3.161533 13.96855
50.64143 -3.021413 13.31111
45.98382 -3.231149 14.46777
46.59198 -3.264261 13.79291
46.72997 -3.278078 13.41529
48.62675 -3.277777 14.60216
49.0501 -3.347645 14.0278
52.51646 -3.375975 17.20518
52.94509 -2.492948 13.49489
52.22538 -2.147825 10.03426
52.58995 -2.848549 16.10519
50.72451 -2.541324 9.169152
49.73713 -1.917698 4.631007
50.06811 -2.033603 5.608641
47.7731 -2.691056 9.169601
48.7288 -2.441991 8.682787
48.30709 -2.608173 8.640842
47.4207 -2.717431 8.551711
46.52544 -2.645775 8.254984
46.39777 -2.657154 7.453461
46.07227 -2.658141 6.666202
44.96961 -2.682741 8.988517
44.80427 -2.703101 9.003347
43.90016 -2.706382 9.573294
41.30426 -2.428764 10.51986
39.81545 -2.319116 12.98257
42.54362 -2.145238 9.685404
40.23936 -2.771844 15.73135
40.85628 -3.199393 14.1273
41.82667 -3.068449 13.67146
42.18593 -3.171773 14.19628
40.5569 -3.499642 14.66378
44.08546 -3.24373 15.02293
43.15641 -3.296555 14.16134
42.70016 -3.288387 13.84212
45.39818 -3.250568 13.8862
51.13936 -2.901447 13.57213
50.14722 -3.196963 12.90364
50.60112 -3.022529 12.89736
51.77509 -3.409689 16.75587
46.47931 -3.264143 13.57032
47.88588 -3.376969 12.43722
49.08479 -3.365324 13.65642
49.91074 -3.273771 12.5817
53.44085 -2.921283 17.69376
52.76815 -2.713203 14.6982
51.37656 -2.651998 8.686553
52.55082 -2.91568 15.74915
50.44703 -2.381497 9.191899
49.50142 -1.9452 4.749802
49.65967 -1.861645 3.346953
50.30554 -2.19506 6.347711
49.88163 -1.885336 3.53889
47.84882 -2.709083 8.389563
49.07164 -2.157847 5.820942
49.37873 -1.958688 4.444098
46.8877 -2.642825 9.498592
47.2775 -2.715006 8.396729
46.82303 -2.691685 7.817576
46.85761 -2.700885 7.666231
46.33722 -2.661078 7.093944
45.72264 -2.690242 5.832538
45.50724 -2.668009 7.110054
45.22796 -2.677825 7.978051
44.61868 -2.784597 7.385379
43.85487 -2.676563 10.00727
40.12902 -2.188486 11.63361
42.77093 -2.254751 9.714604
40.19054 -2.719527 14.93827
40.85856 -3.186988 14.24895
41.62624 -2.971444 12.1061
42.27995 -3.192667 14.03092
40.7144 -3.347989 14.2145
44.7182 -3.24934 13.93516
42.47606 -3.229716 12.95691
45.97537 -3.244259 13.88781
51.53294 -3.013823 14.21163
50.44498 -3.063865 12.3271
48.24644 -3.314239 14.03417
47.39577 -3.331815 12.5844
46.88597 -3.295334 12.56277
48.44695 -3.308146 14.12932
49.74051 -3.318005 12.78377
53.21897 -3.597785 17.10626
52.60977 -2.8733 14.85731
52.33513 -2.102714 9.448277
51.5257 -2.629923 8.310169
50.47213 -2.362213 7.287124
49.46878 -1.885587 3.327194
49.8661 -1.822752 2.141279
50.20463 -2.055621 4.548912
48.01815 -2.679129 8.55919
48.78207 -2.391877 7.811402
49.23394 -1.986689 3.893816
48.12023 -2.662054 8.303103
47.37477 -2.763902 7.066369
47.10985 -2.705924 8.300572
47.03176 -2.754581 6.601676
46.88246 -2.765913 5.780006
46.66615 -2.71922 6.416474
45.60433 -2.688638 6.157511
45.16156 -2.737566 6.421325
45.19405 -2.692329 7.648662
44.98777 -2.727676 7.560247
44.79355 -2.765816 7.277535
44.55744 -2.756948 8.298818
39.53633 -3.09737 17.10438
40.31262 -2.237622 10.91072
39.89167 -2.599063 13.41253
41.94262 -2.098281 9.16486
39.50826 -2.689477 16.64167
41.4031 -2.96233 12.14127
41.78706 -2.974088 11.54608
42.06471 -3.112758 12.93018
40.4687 -3.689366 14.49417
44.33054 -3.260459 13.72762
43.89406 -3.264831 13.94336
43.24269 -3.292972 14.06671
45.8664 -3.256328 13.28366
50.89843 -2.893001 12.18038
51.66552 -3.414985 15.74481
51.85066 -3.520587 16.49997
48.346 -3.354388 13.27522
48.0795 -3.418041 11.96517
46.34649 -3.266154 12.4975
46.55609 -3.274864 12.56094
48.96327 -3.357911 13.67535
49.52197 -3.358984 12.9064
53.25511 -3.640842 16.95114
52.9564 -2.550122 13.36417
52.35431 -2.097844 9.254687
52.61962 -3.275933 15.90969
49.36472 -1.859433 2.302713
50.44254 -2.318413 6.38398
50.04524 -1.866583 2.017035
48.54046 -2.507959 7.392529
48.80954 -2.339987 6.574341
49.20989 -1.948619 2.972338
47.81716 -2.741015 6.862877
46.54461 -2.732683 5.548804
45.65512 -2.717262 5.227042
45.5063 -2.7052 5.943208
46.10299 -2.755141 4.213882
44.90413 -2.79616 5.836353
44.72515 -2.791889 6.745284
44.44204 -2.81573 6.750373
39.62024 -3.304338 16.84167
39.78767 -2.26342 12.00496
42.94903 -2.361754 9.767504
42.33943 -2.041764 8.886698
41.46713 -2.366386 9.567807
39.75483 -2.892775 16.23173
40.83486 -3.295861 13.29703
41.37611 -2.936516 11.6214
42.19429 -3.139916 12.44094
40.55324 -3.656126 14.0125
43.93951 -3.270115 13.7061
43.09668 -3.312488 13.29473
42.56864 -3.252341 12.38482
44.76453 -3.260756 13.12714
45.33981 -3.252118 13.06317
51.6264 -3.147734 14.45179
50.4666 -3.029985 11.65688
48.47061 -3.370573 13.06404
47.75553 -3.404168 11.6329
45.95451 -3.253289 12.47309
47.05027 -3.315273 11.88534
49.51637 -3.375642 12.38069
53.47834 -3.602229 17.00186
52.90649 -2.656734 13.39162
52.46503 -2.069106 9.370868
51.25476 -2.707266 7.83094
50.63765 -2.496967 7.491248
49.39765 -1.809149 1.170687
49.72048 -1.76618 0.8948264
50.46502 -2.293299 4.10478
50.22055 -2.004434 3.205109
48.45989 -2.545767 7.338498
48.99038 -2.164021 5.046514
49.10414 -2.032749 3.606043
47.12004 -2.808193 5.057696
45.73523 -2.733907 4.716907
46.62291 -2.790304 4.183335
45.28921 -2.768068 4.992354
44.66661 -2.813824 6.232448
44.52912 -2.83641 5.802692
43.97758 -2.749631 8.611383
43.75118 -2.708098 8.886891
40.43439 -2.293833 10.54313
40.09062 -2.694299 13.8218
43.07741 -2.415984 8.822556
41.97387 -2.040192 8.344226
40.15681 -3.026429 15.69145
38.80373 -2.558266 17.33678
40.8638 -3.26646 12.6292
42.24244 -3.152972 12.23689
44.61399 -3.266291 12.9595
44.00446 -3.284032 13.22892
42.43027 -3.218429 12.7091
45.55298 -3.249566 12.3949
45.8005 -3.25258 12.65822
51.64138 -3.256093 14.29135
50.44717 -3.013895 10.97309
48.62228 -3.396029 12.76656
47.11476 -3.328611 11.64747
48.48086 -3.456991 11.8267
46.66894 -3.287433 11.55997
45.98693 -3.249319 12.00789
49.61214 -3.365664 12.07292
53.15698 -2.728939 16.80371
52.55153 -2.937531 14.80517
52.78111 -2.108592 10.7503
51.9557 -2.364846 8.10134
50.91856 -2.634459 8.633825
49.25629 -1.903374 2.400662
49.94163 -1.819344 1.704656
50.47726 -2.331189 5.030471
50.38565 -2.13816 2.568601
50.23891 -1.956113 1.419035
48.3012 -2.609936 6.878081
48.9507 -2.137969 3.96459
48.89145 -2.212041 4.772546
47.5345 -2.787531 5.776953
47.70331 -2.772552 5.759517
45.76268 -2.742753 4.482526
46.33778 -2.777054 3.983778
46.0581 -2.80686 3.221147
44.09769 -2.767747 8.355249
44.18459 -2.816205 6.728547
43.73084 -2.713128 8.43794
40.05577 -2.177699 11.08013
40.33265 -2.796652 13.70646
41.98126 -2.021646 8.080459
42.30939 -1.960335 7.694318
38.91231 -2.96167 17.13628
40.86699 -3.258447 12.42666
41.69453 -2.920676 10.96425
39.75124 -3.603687 16.45322
43.64927 -3.303514 13.08485
42.5334 -3.250616 12.02815
45.19957 -3.238758 10.74493
45.73852 -3.244955 11.92729
51.4002 -2.901178 12.66054
50.05315 -3.213534 11.34104
50.79494 -2.873617 10.91953
47.8862 -3.445009 11.15904
48.4844 -3.52071 10.93385
45.91881 -3.239036 11.14918
45.98589 -3.239707 10.9986
52.50178 -3.520535 16.48126
53.85498 -2.542825 17.28462
52.42765 -3.118748 14.96877
52.22086 -2.160686 8.091219
51.79212 -2.590036 6.764188
51.10407 -2.719759 7.247074
49.03295 -1.973946 1.5826
50.07004 -1.848207 1.007744
50.57148 -2.449248 3.33069
50.43098 -2.19882 2.584064
47.95641 -2.71561 6.663744
48.44773 -2.535254 6.242957
47.30325 -2.805149 5.342364
46.90472 -2.822775 3.799829
45.89769 -2.805528 3.268823
46.36681 -2.810472 3.274233
43.93414 -2.781868 7.114494
44.39341 -2.854028 5.225206
43.90097 -2.753516 8.233996
39.63422 -3.221179 16.57789
39.89354 -2.183968 10.94485
43.14933 -2.441717 7.9626
42.54213 -2.02249 7.846916
41.56998 -2.271411 8.415272
39.50111 -2.705363 16.20853
41.45037 -2.87558 10.59639
42.39666 -3.214264 11.4504
40.10519 -3.843014 15.4258
44.14161 -3.295632 12.59348
43.15172 -3.323196 12.73113
44.923 -3.261597 12.10843
45.17125 -3.253885 12.17909
45.208 -3.232745 10.36557
51.63155 -3.14678 13.51068
50.202 -3.122948 10.56167
50.80289 -2.85219 10.36964
47.6131 -3.418758 10.94335
47.90694 -3.467255 10.84122
45.81037 -3.226267 10.61084
49.29241 -3.446002 11.63011
52.80003 -3.443635 16.64009
52.98716 -2.666981 12.48744
53.07491 -2.283971 11.10211
52.11192 -2.261512 7.279943
51.21806 -2.731834 7.249573
49.04842 -1.943671 1.124115
49.66513 -1.717855 -0.2913918
50.47399 -2.276367 2.965806
50.29224 -1.994701 0.8084596
48.3045 -2.596358 5.82505
48.57369 -2.334657 2.627676
48.55797 -2.410985 4.32003
48.87664 -2.124744 2.763504
47.74588 -2.766729 5.221734
47.1539 -2.82919 3.366865
45.71725 -2.833184 2.897637
45.9141 -2.872824 2.04726
46.38682 -2.845986 2.536791
44.74081 -2.871802 3.71579
44.37228 -2.867703 4.315731
43.94056 -2.802775 5.663804
43.66293 -2.709554 7.381708
41.0745 -2.48698 9.04929
39.70196 -2.258577 11.07509
40.37591 -2.817349 13.42868
42.99906 -2.319648 7.836452
42.08111 -1.926425 6.981328
41.49577 -2.328665 8.615602
39.52881 -2.747566 16.1906
40.61697 -3.79573 12.67427
40.92348 -3.135932 11.42881
41.70283 -2.89703 10.45714
44.06005 -3.310774 12.27333
42.78921 -3.319417 11.74562
44.6576 -3.275566 11.80689
51.04353 -2.823877 11.0238
51.65325 -3.628061 15.23125
50.65091 -2.886038 9.827361
47.22861 -3.369834 10.63794
47.183 -3.359104 10.76941
48.87918 -3.506971 11.23131
46.91758 -3.323868 10.47987
49.28725 -3.465544 11.27845
53.6425 -2.47354 16.97565
52.50117 -3.021224 13.7589
52.57808 -2.037998 8.690825
51.99661 -2.424117 6.467548
51.062 -2.733979 6.792124
48.80456 -2.095914 1.177859
49.65715 -1.715089 -0.3992631
50.7768 -2.617275 6.506207
50.4222 -2.151518 0.8470529
48.25832 -2.618718 6.033055
48.18221 -2.629824 4.862969
48.74965 -2.166249 1.77406
48.47422 -2.385226 2.171516
47.958 -2.717783 5.201252
47.39605 -2.803772 2.989229
45.62381 -2.881436 2.068655
46.54708 -2.889546 1.655537
45.91052 -2.887394 1.781647
44.6783 -2.887982 3.108024
44.18504 -2.852496 4.496342
43.79872 -2.763896 5.613107
43.54395 -2.664194 7.187596
39.91291 -2.183596 10.59288
40.50404 -2.889549 13.34202
42.48326 -1.931676 6.708349
41.40918 -2.381332 8.618948
39.31882 -2.479122 16.02729
40.68206 -3.698423 12.36435
41.04501 -2.982476 10.64845
40.43306 -4.032189 12.89088
43.47562 -3.360469 11.8614
43.13797 -3.360615 11.79502
44.92065 -3.252965 10.02786
45.77481 -3.200163 9.709895
51.6075 -3.439795 14.28623
50.11085 -3.125435 9.014027
50.69086 -2.857885 9.356141
47.4593 -3.426463 10.17928
46.16314 -3.22022 9.793643
47.14193 -3.362016 10.41274
49.26643 -3.4952 10.8101
53.5802 -3.53811 16.71455
52.4534 -3.063198 14.35668
52.79132 -2.052096 9.056367
51.24996 -2.770843 6.322665
48.69711 -2.127323 0.3459033
50.68224 -2.573162 5.179142
50.69839 -2.591268 4.72943
50.43594 -2.162499 0.4107737
48.57985 -2.251538 1.112012
48.64614 -2.206455 1.16279
47.62351 -2.787596 4.344361
46.8847 -2.831577 3.108535
45.83559 -2.900176 1.612221
45.27964 -2.864264 2.81827
46.03795 -2.924636 1.150042
46.60592 -2.836828 2.73927
44.71706 -2.892096 2.898988
44.02802 -2.8322 3.820064
43.80527 -2.767979 4.994848
43.51689 -2.653587 6.278407
40.34662 -2.318145 9.147378
39.64579 -2.542067 11.56174
43.31729 -2.539451 6.878217
41.73627 -2.113575 7.495074
41.33454 -2.416015 8.491824
39.52261 -2.763691 15.79464
40.76533 -3.448215 11.71968
42.1856 -3.11 10.53895
41.76763 -2.879694 9.699254
40.49249 -3.982163 12.67139
43.95761 -3.335811 11.77292
42.96022 -3.391066 10.93869
44.64539 -3.286283 10.57907
45.56392 -3.205316 9.774898
51.43488 -2.869752 11.48533
51.61546 -3.63487 14.88477
50.16861 -3.013841 7.14574
50.55492 -2.878036 8.054395
48.16725 -3.575423 10.00121
45.94127 -3.209107 9.798113
47.0896 -3.363372 9.645104
49.1655 -3.525291 10.61619
53.31651 -2.63611 16.51987
52.58493 -2.953016 13.1575
53.01634 -2.183038 10.11699
51.86536 -2.602617 5.815243
52.67815 -3.487908 15.25626
50.63685 -2.548274 2.257185
48.18498 -2.602001 3.987377
48.35839 -2.357188 0.2485476
48.2228 -2.480873 0.9188138
48.0341 -2.675222 4.264107
47.25253 -2.833738 2.207411
45.44572 -2.920298 1.557002
44.99627 -2.882523 2.83723
43.70062 -2.734161 4.689281
44.62621 -2.888376 3.087108
43.76955 -2.759343 3.54712
40.76403 -2.485162 8.597223
39.93098 -2.179327 10.18368
40.30867 -2.836826 12.59839
42.94938 -2.22784 6.636456
42.56166 -1.912575 5.894164
42.1666 -1.849275 5.956593
40.40462 -3.156651 14.87519
38.75522 -2.562795 16.80891
41.62993 -2.839749 9.560407
42.14458 -3.071062 9.861301
39.67188 -3.880976 15.17939
43.82832 -3.370629 11.28696
44.51366 -3.293923 11.37106
45.70282 -3.196645 9.482261
51.65167 -3.28146 12.62046
50.03735 -3.183866 9.389937
50.06181 -3.097188 7.552007
50.57154 -2.855177 6.916756
50.32338 -2.940838 7.177216
48.05092 -3.593816 9.501494
48.83458 -3.5511 10.66082
45.87226 -3.192891 9.021962
46.64678 -3.282233 9.35792
52.50036 -3.632952 15.91418
53.3302 -2.875621 16.86469
52.45876 -3.040722 13.08562
52.60052 -2.030025 8.229768
51.9661 -2.517831 5.661071
50.97151 -2.734796 5.919401
50.94712 -2.748711 5.23986
50.81368 -2.721453 3.739347
50.34635 -1.98648 -0.2458036
48.06739 -2.627801 2.731718
47.83475 -2.729383 3.790361
47.4551 -2.799726 2.427257
45.27851 -2.903213 2.034717
46.8166 -2.873711 1.84633
43.613 -2.693988 4.458148
44.04843 -2.840945 2.964345
43.82244 -2.774397 2.572446
43.49332 -2.638745 5.974316
41.00764 -2.504649 8.212174
39.779 -2.659642 11.71941
40.66087 -3.063057 13.78327
42.68079 -1.983361 6.061206
42.05928 -1.857806 5.810971
41.50941 -2.276085 6.873159
39.62481 -2.825686 15.46981
38.75257 -2.575477 16.70555
40.69863 -3.682183 11.53588
40.82155 -3.19104 10.13896
42.07351 -3.017077 9.482435
40.11226 -4.234288 13.61476
43.11348 -3.469012 10.05354
44.45257 -3.322711 10.07834
45.39172 -3.195341 8.936305
51.6306 -3.376017 12.54179
49.9431 -3.252888 9.705274
50.0522 -3.0876 7.232874
50.97347 -2.798771 9.887727
50.80716 -2.811622 8.1127
47.23786 -3.401517 9.52634
47.99723 -3.589603 9.369332
45.60103 -3.173314 8.351896
45.98954 -3.204425 9.276126
46.62123 -3.283536 8.942683
49.57254 -3.457336 9.870317
53.10347 -3.61721 16.11027
54.03147 -2.447336 16.79339
53.1793 -2.545417 10.74868
52.53382 -2.019721 7.180923
51.99222 -2.538746 4.9416
51.34824 -2.800598 5.588222
50.93442 -2.763148 4.430274
50.86543 -2.771762 3.05009
47.96817 -2.580743 0.1844638
47.71974 -2.74418 2.393274
45.37832 -2.983484 0.6936459
45.06997 -2.949798 1.323951
46.99497 -2.884363 1.282787
43.60421 -2.689069 4.23277
44.76324 -2.945929 1.445904
43.74733 -2.743405 2.244343
40.91518 -2.51232 8.247264
39.67052 -2.236907 10.45665
43.14277 -2.379018 5.920266
42.57181 -1.87723 5.230598
41.45639 -2.323444 7.087821
39.29321 -2.487204 15.81387
40.50852 -4.10499 11.78977
40.79218 -3.265125 10.2827
42.63148 -3.323565 10.44072
42.60144 -3.345084 8.72398
40.02864 -4.165174 14.09925
44.14409 -3.344418 11.03145
43.22567 -3.494305 9.755273
44.17171 -3.370606 10.16837
44.93937 -3.243112 8.588383
51.53798 -2.886797 10.94948
52.26888 -3.758539 15.61373
49.88182 -3.150322 6.077799
51.02749 -2.781977 9.583781
50.82932 -2.817858 6.417557
48.2197 -3.635171 9.299507
49.09319 -3.609955 9.64845
45.41644 -3.173857 8.163252
46.35617 -3.235033 9.58308
46.82861 -3.333765 8.472503
53.52662 -3.476273 16.40353
52.70718 -2.930302 12.26164
53.17775 -2.359056 10.31819
52.19639 -2.237248 5.85704
51.14822 -2.7992 5.215792
50.7578 -2.708957 1.493699
50.51204 -2.287703 -0.03435097
47.84532 -2.70587 2.218156
45.02549 -2.973013 0.7943006
46.67055 -2.928074 0.5398723
46.05992 -3.005941 0.1577469
43.39947 -2.566801 4.269815
44.26939 -2.893706 1.821879
43.2417 -2.454241 5.269698
40.26929 -2.391542 6.931848
40.16833 -2.313757 7.63751
40.12072 -2.807053 11.90653
43.02169 -2.23278 5.169451
41.65948 -2.058276 5.414397
42.25935 -1.810332 5.308628
39.22385 -2.176859 15.91676
39.03157 -2.943475 16.38143
40.68616 -3.861897 10.65438
41.73221 -2.844216 9.073339
41.99404 -2.938416 8.214177
42.6837 -3.380518 8.899528
39.78771 -4.099609 14.488
43.59662 -3.473872 9.925015
44.26118 -3.349257 10.35971
44.26465 -3.361366 9.840658
45.09865 -3.20277 7.801111
45.3263 -3.180153 8.041508
51.47456 -3.717731 13.55601
49.7897 -3.33 8.49833
49.83997 -3.151305 5.495735
50.08644 -2.93873 4.278071
50.54457 -2.85206 5.547856
48.30404 -3.669771 8.856146
48.75445 -3.687569 8.884993
48.95504 -3.672273 8.837388
45.63462 -3.126472 6.799312
47.01114 -3.36591 8.962736
46.62803 -3.28635 8.686342
53.25412 -3.785255 16.01485
52.80944 -2.941827 11.60744
52.76134 -3.553872 14.97424
52.44595 -2.049795 6.54493
51.91654 -2.660462 4.330542
52.63926 -3.02914 15.65248
50.83477 -2.784516 1.454717
50.50452 -2.231075 -0.1812838
47.7238 -2.733337 1.318724
47.16932 -2.864715 0.7203307
43.45948 -2.592508 3.143679
44.08125 -2.855507 1.565691
39.57423 -2.960456 15.97667
40.30535 -2.41642 6.73723
40.52255 -3.269152 14.43924
43.07444 -2.268051 4.565255
41.62542 -2.09749 5.493257
41.97425 -1.818558 4.77585
41.18651 -2.479982 7.444815
39.28495 -3.20613 15.93222
40.68921 -3.859148 10.54273
41.69604 -2.813488 8.46571
41.93005 -2.90358 8.184855
42.62452 -3.371107 6.828051
42.39935 -3.221721 8.190892
43.7761 -3.462359 9.646715
43.27276 -3.523978 8.793753
44.31048 -3.381317 8.886868
44.70385 -3.291055 8.216592
45.38509 -3.135061 6.601523
51.32059 -2.790689 10.15565
51.50599 -3.619656 13.02331
49.70069 -3.387829 8.213376
49.64766 -3.372091 6.294413
49.73756 -3.124958 3.557901
51.1913 -2.757132 9.062393
51.11535 -2.794169 6.739431
48.14307 -3.666912 8.416106
47.59908 -3.532796 8.544629
48.82112 -3.690615 8.739974
45.89984 -3.139552 6.928629
45.43921 -3.127439 6.525029
46.98881 -3.376491 8.278638
49.28601 -3.596628 8.889247
53.56541 -2.385986 16.32779
52.8446 -2.968483 11.24199
52.39169 -3.517733 14.02603
52.86531 -2.023535 7.552939
51.89692 -2.701395 3.977334
52.70049 -3.408673 15.24009
50.90379 -2.833678 1.520959
48.10134 -2.462744 -0.3658613
46.96489 -2.896952 0.3363899
43.37308 -2.521665 2.929735
44.666 -2.952755 1.048519
43.74902 -2.723278 1.319382
40.86945 -2.541343 7.236445
40.07592 -2.330371 6.441469
39.48529 -2.398431 10.26462
40.69295 -3.083151 12.68309
43.0019 -2.158128 3.904391
41.78111 -1.90984 4.695861
41.28854 -2.44136 6.55019
39.23278 -2.308488 15.57327
40.40886 -4.212039 11.9556
41.12312 -2.856256 9.053898
41.85244 -2.856074 7.911345
42.63659 -3.379725 6.527744
42.8285 -3.451949 8.038483
40.00899 -4.403798 12.92132
43.05957 -3.499799 8.764575
44.70585 -3.290605 7.809378
45.08251 -3.195669 7.187917
45.14042 -3.160748 6.016799
51.57324 -3.56787 11.8686
51.52409 -3.935349 13.81511
49.64878 -3.36161 6.097431
49.72337 -3.162837 3.964145
50.2232 -2.883595 3.872809
50.40335 -2.858854 4.351985
48.17316 -3.728701 7.421411
48.05112 -3.712859 7.314539
48.66037 -3.762573 7.481064
46.15832 -3.179449 7.392375
45.66547 -3.101959 5.661459
47.19444 -3.444909 7.922989
53.03415 -3.560735 15.82329
54.24903 -2.498971 16.47068
53.23379 -2.443119 9.843479
52.45707 -2.042701 6.168409
52.0952 -2.462762 4.142743
51.50554 -2.843551 4.531064
52.94923 -3.594151 14.80166
50.76795 -2.765044 0.1209326
47.64496 -2.716789 0.09297272
44.98905 -3.002167 -0.1201198
43.39513 -2.525083 2.318161
44.16376 -2.867284 0.8651872
43.4204 -2.51998 1.66259
39.9693 -2.223226 8.250177
39.93826 -2.236246 7.674222
39.93266 -2.8271 10.99541
43.17064 -2.332651 3.247373
43.08092 -2.219347 2.994842
41.62558 -2.059411 4.741825
41.83168 -1.820006 3.816412
41.32556 -2.417 6.219872
39.28229 -3.208196 15.66969
40.57763 -4.10121 11.07375
40.72346 -3.553942 9.329144
41.18866 -2.829102 8.895594
40.8479 -3.01511 8.312081
42.69884 -3.41584 5.343124
42.94323 -3.496039 7.682754
39.93414 -4.401465 13.15621
43.22919 -3.541469 8.134396
44.76871 -3.26828 6.798918
45.10631 -3.159951 5.525598
51.66043 -3.412845 11.66663
51.5918 -4.014562 13.80474
49.52939 -3.393066 4.352612
49.54217 -3.307517 3.218857
50.25988 -2.869688 3.494387
50.56638 -2.849102 4.882989
51.23983 -2.775326 7.170176
48.84321 -3.772887 6.932511
48.36705 -3.776502 6.990769
46.13939 -3.163484 6.368172
45.57257 -3.095345 5.183508
47.48072 -3.545203 7.597335
53.49992 -2.380995 15.99709
52.69437 -3.03634 11.56135
52.60221 -3.684083 14.1619
52.92255 -2.003985 6.705319
52.10162 -2.44589 4.249817
51.53671 -2.86197 4.058125
51.07158 -2.902282 2.043362
51.28976 -2.889608 3.75195
47.01888 -2.87212 -0.241392
43.25454 -2.333276 1.101217
44.09222 -2.844505 0.7986235
43.33041 -2.364879 0.3200567
39.7917 -2.190376 8.552241
40.48864 -2.505386 6.332747
39.89508 -2.825785 10.8736
40.60241 -3.399325 13.69111
43.00765 -2.107436 2.575335
41.47524 -2.246895 4.861008
41.97089 -1.732653 3.390601
40.05684 -3.059613 14.74849
39.0452 -3.568144 15.85528
40.71447 -3.706689 8.710951
40.71021 -3.273041 7.590558
41.78908 -2.816497 7.380231
42.19763 -3.057129 6.974685
42.60418 -3.356086 5.174945
43.00822 -3.52326 7.264605
39.58516 -4.068013 14.16878
43.74119 -3.501825 8.715396
43.87898 -3.499961 8.132675
44.52064 -3.34789 6.750004
44.78522 -3.261691 6.296178
51.54235 -2.792342 8.583735
51.60682 -4.039794 13.71034
49.43688 -3.54047 5.931547
49.62002 -3.17636 2.408818
49.72617 -3.074501 2.143757
50.31419 -2.856157 2.825383
50.71858 -2.847567 4.807083
51.22127 -2.826478 5.849059
48.11628 -3.756348 6.700193
48.43238 -3.823955 6.103925
46.30596 -3.200934 6.643816
45.61988 -3.087983 4.501243
46.73698 -3.31132 7.216716
53.05296 -3.591854 15.63259
53.19817 -3.082229 16.00418
53.11628 -2.813935 10.32005
52.9791 -2.019714 6.778665
52.0993 -2.544674 3.058402
51.68263 -2.855234 3.365019
51.02835 -2.940228 0.1913015
47.68715 -2.672124 -0.3588304
45.96159 -3.033352 -0.5490216
44.09591 -2.808287 -0.07224631
43.62985 -2.571335 -0.08637588
40.18691 -2.416712 5.61383
39.43378 -2.372772 9.765376
40.73948 -3.3816 13.03756
43.15574 -2.264778 2.062075
41.53554 -2.163754 4.604525
41.59895 -2.027023 3.761641
42.30761 -1.720243 3.768612
40.16306 -3.052083 14.39844
38.58544 -3.173626 16.13843
40.70845 -3.549152 8.045146
41.04933 -2.870019 8.609361
41.65567 -2.767784 7.317319
41.97787 -2.893917 6.772868
42.80068 -3.465555 5.88522
43.08142 -3.548207 6.822694
39.69558 -3.465331 15.07425
43.62779 -3.581832 6.895937
43.37364 -3.585744 6.962202
44.24871 -3.429874 7.47595
45.05094 -3.167809 5.026245
44.75782 -3.264178 5.568346
51.71552 -3.402085 10.74032
52.44359 -3.68881 15.13131
49.32701 -3.514035 2.321318
49.59056 -3.165131 1.57846
49.64052 -3.105307 1.108262
50.45256 -2.848605 2.914756
51.34591 -2.864637 5.005628
51.10939 -2.877496 4.498445
47.6123 -3.625202 6.615799
48.77655 -3.819183 5.845452
48.54319 -3.873396 4.97793
45.49556 -3.090937 3.340222
47.1106 -3.425039 7.580742
47.58093 -3.605395 6.868119
49.33169 -3.618169 6.637069
53.18801 -2.992902 16.19224
52.96114 -2.947472 10.63521
53.16056 -2.799764 9.995206
52.97487 -2.0089 6.428933
52.15456 -2.497 2.50282
51.18409 -2.951399 1.680023
51.00897 -2.925296 -0.2337507
46.84538 -2.94095 -0.7444288
39.68319 -2.202273 7.962044
39.7141 -2.220461 6.846416
39.4231 -2.425963 9.831908
40.62926 -3.433546 13.35095
42.93731 -1.97738 1.681042
41.71466 -1.811777 2.323852
42.66579 -1.765685 2.247315
39.20764 -2.257267 15.15022
40.42069 -4.275219 10.68446
40.68113 -3.459837 7.242496
41.19457 -2.788613 8.075879
40.77336 -3.06103 7.448558
42.39966 -3.209291 5.62801
42.90025 -3.511207 4.804172
42.60606 -3.355521 4.069162
43.19935 -3.583242 5.982704
40.03905 -4.406469 11.98338
43.40652 -3.598369 6.433073
44.27345 -3.436975 6.487792
45.43608 -3.094792 3.842468
44.74157 -3.267045 4.675562
51.41785 -3.867657 12.08612
49.35564 -3.589468 5.230464
49.25694 -3.58244 2.057373
49.42511 -3.32263 1.219203
51.57534 -2.794644 8.126812
50.84355 -2.860224 4.38037
51.53446 -2.825892 6.049249
48.08554 -3.820878 5.231896
48.17269 -3.801145 5.962628
47.99491 -3.831447 4.647535
49.05996 -3.738283 6.506359
48.62637 -3.899963 4.048882
46.22048 -3.15617 4.053637
45.63942 -3.085235 3.825344
47.1904 -3.480872 6.515989
47.27955 -3.512329 6.563565
53.18281 -2.994706 16.06745
52.90227 -3.067743 10.27909
53.2992 -2.448933 8.402452
52.46729 -2.040926 4.437078
52.20021 -2.411368 2.438495
51.7048 -2.880231 2.808325
51.24384 -3.005846 0.4820685
47.30873 -2.81025 -0.555011
43.17728 -2.227424 0.7766962
43.13948 -2.12446 -0.06830829
39.55053 -2.236692 8.779701
40.0976 -2.415182 4.828172
39.40409 -2.350398 9.15666
40.51928 -3.098466 11.30783
41.17891 -2.505236 5.357299
41.385 -2.316865 3.380388
41.67169 -1.778838 1.206673
42.65295 -1.704148 1.02764
38.2625 -2.206055 16.0017
40.11898 -4.382761 11.65916
40.65968 -3.594355 6.989283
41.43945 -2.705394 6.551882
41.07854 -2.787074 7.197352
42.20586 -3.034835 5.045983
42.69861 -3.411549 3.38007
42.53891 -3.30264 3.479363
39.77333 -4.483613 12.59737
43.67955 -3.599276 5.326993
44.10387 -3.499352 6.009257
45.46152 -3.095151 3.230193
44.6461 -3.307335 4.158045
44.33441 -3.433256 4.492711
51.62958 -3.564497 10.83649
52.03275 -3.730194 14.29718
49.22824 -3.651206 3.416609
49.27263 -3.47813 0.6559781
49.53727 -3.167925 -0.06837555
49.62018 -3.109208 0.07366315
50.78066 -2.890306 2.055572
50.92289 -2.896575 2.883123
51.48636 -2.894291 4.526201
47.64523 -3.700933 5.117254
49.05732 -3.759125 5.281199
48.93361 -3.803535 5.150938
48.46241 -3.889369 4.673452
46.03377 -3.118043 3.933721
46.23954 -3.158723 3.720833
45.74705 -3.087854 2.641062
53.7014 -3.821488 15.64812
52.39668 -3.443671 12.27763
53.22762 -2.710917 9.613741
52.54025 -2.003337 4.816932
51.9629 -2.87537 1.009859
51.52158 -2.951903 2.26254
44.45063 -2.891908 -0.4589245
39.86718 -3.123613 15.1285
39.64842 -2.239077 5.747988
39.55344 -2.222334 7.142282
39.42045 -2.528348 9.943612
40.72554 -3.427464 12.39109
41.2512 -2.464649 4.874506
41.49885 -2.054308 1.900982
41.67525 -1.756836 0.9205469
42.73517 -1.759779 1.095981
39.19248 -2.233202 15.05737
40.0594 -4.331698 11.27936
40.69895 -3.753633 8.172879
41.31872 -2.725048 7.005229
41.91481 -2.834923 5.891468
42.06187 -2.923722 5.401965
42.36303 -3.151905 3.257577
42.78056 -3.455558 3.088228
43.23781 -3.606825 4.054545
42.58499 -3.334261 3.081464
39.7583 -4.427719 12.43916
43.7462 -3.594471 5.019058
43.91084 -3.564068 5.104109
45.07917 -3.171377 2.999959
45.20725 -3.149439 2.42485
44.4112 -3.402574 3.727447
51.76183 -2.937377 9.247729
51.63821 -3.625553 10.34409
49.2054 -3.686381 5.417577
49.09235 -3.690562 0.5115715
50.09226 -2.907554 0.9583263
49.71676 -3.058189 0.01789347
50.84115 -2.911249 1.7258
51.75707 -2.860072 6.19542
48.22707 -3.901789 4.074841
47.69189 -3.748707 4.462563
47.82975 -3.855899 3.20807
46.56277 -3.265568 4.143531
46.30087 -3.177552 3.784019
45.66577 -3.094827 2.411017
47.37627 -3.55705 6.196284
53.54823 -2.307799 15.85323
52.53284 -3.616853 12.4638
53.18325 -2.7979 9.683103
53.13944 -2.042006 5.82215
52.26723 -2.307806 1.829465
51.70927 -2.914109 2.24742
51.54445 -2.982959 1.553747
44.0285 -2.746153 -0.3829101
39.62132 -2.229875 6.080397
40.13077 -2.477236 3.773523
40.72794 -2.610718 4.605095
40.16102 -3.018825 10.40848
42.84635 -1.847804 0.8991821
41.35194 -2.328817 2.743432
41.4012 -2.199489 1.272958
42.04915 -1.671671 2.721838
42.52487 -1.640835 0.9778704
38.53373 -3.178077 16.07452
40.67287 -3.710327 7.526117
40.60304 -3.402274 5.784281
41.67944 -2.692085 4.223649
40.85291 -2.872237 6.167962
42.06464 -2.916553 4.833915
42.36313 -3.128205 1.761222
43.05296 -3.55361 2.085216
42.68872 -3.389682 1.735679
43.47078 -3.60874 5.559879
39.90145 -3.460238 14.18164
43.91461 -3.565314 4.850296
45.70781 -3.104286 1.501491
44.18431 -3.488192 3.963014
44.52877 -3.358494 3.277517
51.48549 -3.879403 11.28166
49.09659 -3.744891 3.29378
49.06324 -3.740187 1.070231
50.34846 -2.891598 0.8277875
50.53569 -2.878156 1.354186
50.95158 -2.947264 1.339408
51.67919 -2.969504 3.688491
47.92847 -3.919459 2.548003
47.20012 -3.510113 5.59873
47.63796 -3.756865 3.841162
48.87159 -3.857664 3.485593
46.75521 -3.338995 4.80234
46.52034 -3.24794 3.528145
46.96939 -3.422045 5.190939
52.38957 -3.355195 11.42993
53.13662 -2.907805 9.504785
53.36353 -2.317838 6.622021
52.71327 -1.944603 4.634079
52.1168 -2.718666 1.026737
51.47591 -3.045812 0.001006021
39.34259 -2.353803 8.429922
40.19365 -2.537331 3.078979
40.78183 -2.617736 4.350082
40.54165 -3.233217 11.13985
41.07323 -2.559175 4.319619
41.46739 -2.004562 0.566879
41.78808 -1.643374 0.4607631
42.35241 -1.567409 0.4703467
39.89764 -4.309127 11.66249
40.60453 -3.937689 7.918128
40.55833 -3.430593 5.35867
41.72317 -2.703007 3.95032
41.85671 -2.780444 4.692233
42.19359 -2.98293 2.511456
42.29735 -3.078457 2.429149
43.28703 -3.606005 2.52136
42.78609 -3.446232 1.755473
42.51714 -3.232247 0.05887789
43.68885 -3.61007 4.366772
45.84407 -3.110133 1.300993
45.09332 -3.181991 1.700691
44.16747 -3.494217 3.901062
44.50464 -3.370648 2.857834
51.45847 -4.109619 11.8611
48.9677 -3.814419 3.686424
49.12987 -3.615627 -0.2338438
50.28712 -2.910369 0.3062304
49.90266 -2.985943 -0.09678066
50.92181 -2.956951 0.9071822
51.22921 -3.00269 1.551314
51.29444 -3.016248 1.59337
51.91344 -2.928716 6.189633
48.25294 -3.964913 2.706829
48.17879 -3.993361 1.989537
47.17339 -3.52202 4.712176
47.72194 -3.805907 3.469339
48.62125 -3.952054 2.573715
46.80651 -3.360512 4.706907
46.55193 -3.257169 2.795383
53.74022 -3.692427 15.34376
52.91875 -3.186115 9.544813
53.39811 -2.665781 7.20354
53.06669 -1.966776 4.745876
52.27299 -2.341491 1.331757
52.16323 -2.67326 0.8825451
51.39325 -3.047217 -0.6048502
39.78343 -2.317353 4.053612
39.82594 -2.342474 3.758615
40.80113 -2.630221 3.707942
40.47728 -3.726368 12.87106
41.39502 -2.144837 0.1129355
41.8896 -1.608662 0.663363
39.58382 -2.878047 14.87357
40.31319 -4.242176 9.747418
40.52538 -3.6323 5.838014
41.50422 -2.640697 3.753695
41.79029 -2.73715 4.214625
40.86419 -2.809249 5.153031
42.05009 -2.860551 2.421052
42.18177 -2.945456 1.291634
42.40913 -3.152797 0.8666819
43.42628 -3.6198 3.130022
42.96704 -3.505817 0.6064541
42.7183 -3.389408 0.644098
42.54619 -3.245901 -0.2980139
43.85808 -3.581299 3.891427
44.02981 -3.537212 4.03638
44.45972 -3.389117 2.09489
44.89725 -3.230945 1.294358
44.1229 -3.507623 2.864116
51.84705 -3.056146 9.059224
51.92147 -3.706978 13.89234
48.95068 -3.811571 0.01403314
50.52026 -2.934413 -0.06445813
51.36379 -2.992906 2.481096
51.06522 -2.987945 0.8923633
51.81696 -2.960846 4.337175
51.55009 -3.018494 2.639298
47.93589 -4.01386 0.6035135
48.30653 -4.036552 0.9572838
46.85092 -3.386763 4.235391
48.77452 -3.919652 2.192811
46.393 -3.213845 1.677423
52.77462 -3.636644 14.85767
52.65927 -3.395582 10.024
53.40897 -2.574369 6.993965
52.65681 -1.933779 3.563706
52.18486 -2.71009 0.4051818
43.01614 -1.936893 -0.4462743
39.7504 -2.312366 3.966625
39.95215 -2.432638 2.925808
39.68851 -2.928044 9.456908
40.63329 -3.715194 12.49947
41.3082 -2.377226 2.288486
42.16055 -1.530374 0.04163459
38.35802 -1.974676 15.78657
40.2162 -4.207033 9.551341
40.54539 -3.554564 5.656228
41.46338 -2.628967 3.379447
41.83412 -2.730426 2.72699
41.91764 -2.754524 1.471805
42.02871 -2.811487 0.7327771
43.57947 -3.61603 3.023234
42.88504 -3.471458 0.5563371
43.84531 -3.575282 2.342105
44.55598 -3.344799 1.038229
44.77952 -3.266596 1.112247
44.10389 -3.503423 1.470773
51.83972 -3.33463 9.234353
51.59034 -4.139375 12.53019
48.92158 -3.834327 -0.1559826
51.26835 -3.066572 -0.1401589
51.38341 -3.066896 0.670913
51.74609 -2.991785 3.554231
47.87214 -3.998607 0.4974006
48.03505 -4.058834 -0.1149983
47.3782 -3.647705 3.816586
47.42856 -3.755868 1.711453
47.02215 -3.477728 3.488831
46.28736 -3.169269 1.980318
53.24985 -3.983286 14.89625
52.14711 -3.646379 12.73818
53.39062 -2.808478 7.06314
52.70203 -1.921791 3.5675
52.06694 -2.889 -0.007867485
39.26194 -2.453582 8.321215
39.34138 -2.260057 5.133036
41.03852 -2.573172 3.780458
40.54302 -3.424887 11.25917
41.17442 -2.504419 2.520201
40.13274 -2.8207 13.98569
40.11856 -4.156143 9.726493
40.42313 -3.857621 6.443896
40.50782 -3.231125 4.171237
41.45472 -2.624078 2.819232
41.80761 -2.707464 1.948671
40.89713 -2.774015 4.776904
43.64497 -3.608341 2.715875
42.87734 -3.44722 -0.307613
39.96699 -3.450087 13.93675
44.37544 -3.41741 1.779436
46.07858 -3.138431 0.6003013
44.63609 -3.310394 0.3312767
45.36989 -3.126542 -0.3490749
51.8596 -3.320364 9.032912
51.66158 -4.044865 12.58353
48.80968 -3.908061 -0.3208053
50.38712 -2.947733 -0.4600846
51.83591 -3.147828 0.9418902
51.99093 -2.990379 5.197358
47.43135 -3.781991 1.067975
47.84212 -4.023946 -0.2938627
48.14513 -4.084118 -0.4216207
46.87215 -3.426893 1.800511
47.24153 -3.626508 2.337166
46.73698 -3.37751 1.015571
53.07805 -3.913511 14.6675
52.15034 -3.615792 12.55365
52.83134 -3.408832 9.01608
53.44239 -2.504961 6.413477
52.50797 -1.987893 2.603926
44.14043 -2.804605 -0.7582439
39.45621 -2.257294 4.03962
39.90858 -2.427874 2.562715
39.90564 -3.105357 9.17705
40.42515 -3.883717 12.69192
41.29684 -2.343513 0.4692955
42.44987 -1.551745 -0.1152831
40.06332 -4.122515 10.08031
40.32114 -3.826609 5.912121
40.44756 -3.272784 3.803288
41.29479 -2.616185 1.553972
41.03323 -2.679245 3.891301
40.78432 -2.8114 3.936576
43.49224 -3.557592 -0.3796879
43.61002 -3.598067 1.526535
39.82433 -3.607199 13.64561
46.04478 -3.127882 -0.02624769
44.80434 -3.255745 -0.4975445
44.06479 -3.500709 0.6873768
51.90654 -3.355197 8.484271
51.64344 -4.153532 12.17594
49.02806 -3.733033 -1.012566
49.91162 -3.027806 -0.8931112
52.08208 -3.196169 1.868509
52.14789 -3.102113 4.986184
47.33173 -3.762909 0.2991422
47.03124 -3.491291 3.026939
47.04115 -3.510996 2.261312
46.83726 -3.438695 0.6989021
53.19902 -3.058259 15.63985
52.52209 -3.661328 9.952442
53.02537 -3.294659 8.167892
53.43298 -2.26207 4.991802
52.40274 -2.080923 1.397512
52.24727 -2.69125 -0.4423881
39.19339 -2.358983 6.432593
39.72498 -2.336911 2.881813
40.19208 -2.629331 1.13203
40.04976 -3.180073 9.291979
41.00801 -2.600933 2.050895
42.18185 -1.500474 -0.1876349
39.48987 -3.004134 14.45543
40.19434 -4.092515 8.275186
39.98097 -3.665361 3.850122
40.4348 -3.269768 3.665074
41.33817 -2.640614 -0.1951201
41.83477 -2.709503 -0.05083412
43.7457 -3.554421 0.1760215
39.92304 -3.019594 14.6683
43.80145 -3.559493 0.7093887
44.6424 -3.303874 -0.5504021
44.23427 -3.448363 0.5472405
51.84208 -4.083511 10.55966
48.66075 -3.990929 -0.230192
50.36784 -2.971223 -0.8297531
51.71221 -3.125947 0.359242
52.13119 -3.114608 3.940362
47.12345 -3.625318 0.4844616
47.44563 -3.862884 -0.3804654
46.41389 -3.242391 0.03794526
52.29621 -3.845767 10.9792
52.65977 -3.540426 9.580337
53.21627 -3.082 7.685315
53.50909 -2.635352 5.72883
52.9396 -1.896553 3.261303
52.30764 -2.378068 0.4634913
39.12577 -2.512114 7.171229
40.63024 -2.660213 2.453094
39.84251 -2.45456 1.429366
40.81091 -2.64817 2.662832
40.31992 -2.936987 13.77545
41.03533 -2.589719 1.619976
42.50185 -1.563069 -0.6363124
40.08538 -4.042689 9.138637
39.9818 -3.736383 4.519856
40.35358 -3.584122 4.589757
41.1809 -2.623288 2.384811
41.52865 -2.64002 -0.04411405
43.77452 -3.564031 0.6936675
42.4344 -3.169554 -0.956723
39.83213 -3.676582 13.13671
51.96394 -3.188573 7.998929
51.89863 -4.008276 10.02188
48.61688 -4.031592 -1.091601
51.11024 -3.066291 -0.5686109
52.26053 -3.228729 1.449505
52.29492 -3.230766 4.640924
52.31715 -3.248238 2.840432
47.58615 -3.956186 -0.5840648
46.64075 -3.345596 -0.1235177
52.02858 -3.709707 12.36591
51.94407 -3.935181 12.66962
53.52605 -2.643178 5.483575
53.19755 -1.998132 4.201912
52.44744 -2.049702 0.2944518
39.09008 -2.382638 5.266515
40.71763 -2.669206 2.123535
39.84826 -2.482171 0.9862993
40.7486 -2.664225 2.316422
40.3413 -3.870219 12.18665
41.32562 -2.212514 -0.4746877
40.07335 -3.869995 11.12185
40.06391 -3.93497 6.641839
39.67335 -3.589938 2.811447
40.72495 -2.818847 3.063967
41.18193 -2.649878 0.2705851
40.85449 -2.730059 2.757203
39.68112 -3.775213 13.29335
45.24272 -3.170444 -0.7199207
52 -3.904283 9.240648
51.839 -4.069897 12.04908
52.03431 -3.322752 7.46108
52.29236 -3.195055 0.7287703
52.38623 -3.27586 3.723585
52.17113 -3.199742 6.011508
52.83704 -3.944531 14.26289
52.22132 -3.993476 11.02089
53.09478 -3.307673 7.550226
53.36421 -3.067611 6.281206
53.2634 -2.014912 3.800286
52.50565 -1.972834 0.765873
39.03642 -2.567917 6.328601
39.33899 -2.278275 2.448782
40.6082 -2.697137 1.308634
40.41625 -3.563204 10.78238
40.89328 -2.660695 0.8818648
40.25035 -3.718153 11.42324
39.96434 -3.918008 6.986676
39.71183 -3.712695 4.336245
40.35906 -3.263421 3.050056
41.0255 -2.685014 0.389634
41.75467 -2.712007 -0.6950757
40.21405 -3.245434 13.73755
44.65902 -3.31768 -0.7315399
52.01391 -3.743292 8.437166
52.17189 -3.993344 9.974075
50.94269 -3.036311 -0.9950571
52.616 -3.291918 1.960384
52.58147 -3.377787 3.826309
53.78926 -3.931242 14.71133
52.5701 -3.719351 9.220888
53.22041 -3.253272 6.788711
53.50536 -2.29311 4.146851
52.65133 -1.878026 1.193954
38.99156 -2.568669 5.769659
40.71667 -2.679679 1.687398
39.60014 -2.381047 0.7013533
39.61391 -3.091951 8.233903
40.3589 -3.629556 11.09923
39.8345 -2.716156 14.1309
39.89501 -3.858132 7.351907
39.64066 -3.673277 3.932689
39.93875 -3.518374 2.595153
40.64619 -2.877291 2.829098
40.84725 -2.754348 -0.1595056
40.77932 -2.757907 1.933954
39.7935 -3.976074 12.84429
44.3569 -3.408555 -0.8953906
52.27968 -3.836 8.485668
52.58467 -3.785912 14.06757
52.67836 -3.333676 2.529106
52.73748 -3.21966 1.206211
52.3984 -3.392486 5.284238
47.67333 -4.013174 -0.663761
52.14867 -4.09996 11.5526
52.79677 -3.566187 8.268628
53.56538 -2.470733 4.259454
52.85556 -1.825978 1.306315
39.28459 -2.882479 7.744656
39.16872 -2.291713 3.055048
39.51357 -2.377328 0.1689018
39.48737 -3.128287 7.608595
39.90599 -3.691677 12.91245
40.15499 -3.721182 9.534346
39.68852 -3.732995 4.992828
39.42441 -3.497587 1.809402
40.26986 -3.270097 2.492957
40.78736 -2.766832 0.3266604
41.60773 -2.677306 -0.6060418
45.89053 -3.136433 -0.9657882
52.14431 -3.575832 7.353447
51.31119 -3.083204 -0.9369714
52.84172 -3.260604 1.745876
52.63454 -3.410457 4.02849
47.64646 -4.026603 -0.9873393
52.29515 -3.938038 13.39474
53.21527 -3.359928 6.013657
53.58922 -2.535184 3.996322
52.79943 -1.829818 1.191108
39.223 -2.903931 7.283696
39.11915 -2.310338 2.856385
39.45846 -2.35285 0.274566
39.66972 -3.261892 7.76303
40.29573 -3.623414 10.17036
39.50777 -3.640273 4.538339
39.76069 -3.461767 1.676265
40.43835 -3.03059 2.045265
40.96629 -2.739964 -0.8479775
44.54708 -3.331659 -1.176536
52.46759 -3.755904 7.712128
52.79608 -3.300324 2.074362
52.501 -3.325283 3.253668
46.79295 -3.469914 -0.7127608
52.19318 -3.742894 13.30241
53.35056 -3.223315 5.330153
53.51346 -2.199771 3.111423
52.7707 -1.81182 0.3047225
39.01451 -2.796927 6.082232
39.31824 -2.295694 0.9011893
40.38794 -3.499443 13.00153
39.75597 -3.745315 6.807644
39.6206 -3.699998 5.495119
39.26779 -3.444978 1.380938
40.29844 -3.112724 1.464508
40.64205 -2.851944 -0.9308942
52.41483 -3.758963 7.744373
52.84247 -3.3671 2.873368
52.21293 -3.085116 -0.7591492
47.04794 -3.6692 -1.12759
53.13697 -3.447794 5.84059
53.62659 -2.386227 2.329056
53.28458 -1.944469 2.283138
39.18975 -3.007944 6.729241
38.82377 -2.674233 4.088956
39.20084 -2.284548 0.9927041
40.00236 -3.655121 8.606274
39.72829 -3.738934 6.624333
39.11095 -3.421383 2.568163
39.22171 -3.37129 0.455783
39.28952 -3.371587 0.3608211
40.64225 -2.862598 -0.5087369
53.0158 -3.317568 2.629106
53.0214 -3.086387 0.7000015
52.59746 -3.528722 5.413975
53.12377 -3.46068 5.539985
53.62317 -2.507099 2.475384
53.1929 -1.856968 1.486303
39.10414 -2.951388 6.368088
39.06182 -2.307631 2.008892
39.4867 -2.371686 -0.3824273
39.34908 -3.13486 6.960079
39.991 -2.928368 13.9395
38.98118 -3.329587 2.376387
38.90404 -3.281223 0.6359723
39.23571 -3.323537 -0.131856
40.22756 -3.126692 0.9896916
40.25477 -3.087268 13.67628
53.16785 -3.264825 2.661819
52.40498 -3.074428 -0.6637496
52.85256 -3.581208 5.686459
53.3289 -3.278143 4.700899
53.61403 -2.342766 2.535848
53.17883 -1.791945 0.5982748
39.04675 -2.913344 6.081458
38.75821 -2.452462 1.925241
39.00797 -2.282913 0.06236877
39.62868 -3.627525 6.545165
39.23063 -3.420823 4.612163
38.65494 -3.110736 0.315045
39.77857 -3.322411 0.4769855
40.36087 -2.995427 0.117594
40.25951 -3.347701 13.15771
53.15826 -2.912213 -0.08195873
52.54512 -3.046615 -0.6989138
53.08585 -3.461171 4.833947
53.62887 -2.425704 1.613131
53.13891 -1.759575 0.220633
38.98492 -2.980262 5.327908
38.77387 -2.398184 1.420087
39.01758 -3.323143 3.116681
38.61041 -3.040992 0.5361053
39.58844 -3.34338 0.23302
53.332 -3.008536 1.460214
53.15769 -3.357153 3.629954
53.57026 -2.793679 2.600826
53.51772 -2.943594 3.10423
39.16697 -3.197374 5.685283
38.71758 -2.447715 1.541989
39.21876 -3.287525 5.532593
38.66872 -3.047407 1.323426
40.00834 -3.245646 0.6976244
53.17917 -3.313854 3.203202
53.32866 -2.79302 -0.1464202
53.56544 -2.730905 1.708461
53.57227 -2.100623 1.54793
39.00242 -3.052198 5.204934
39.11607 -2.280923 -0.632336
39.16891 -3.323298 4.897211
38.55667 -2.888742 0.8959663
39.91306 -3.2335 0.1126704
53.38314 -3.060533 2.255745
53.23472 -3.34865 4.127347
53.63931 -2.357566 0.7278659
53.46487 -2.978427 2.368754
38.66435 -2.760347 2.58243
38.92691 -3.134134 3.945803
38.46981 -2.827953 0.1335466
53.39312 -3.165951 3.389876
53.60423 -2.467121 -0.1469249
38.95629 -3.092385 4.552337
38.6318 -2.311144 -0.2116531
38.52141 -2.796091 0.7401869
53.37489 -2.708311 -0.7010657
38.6108 -2.782789 1.947512
38.48698 -2.648086 0.5771935
53.65534 -2.049291 -0.2806034
38.46399 -2.631266 0.3438903
38.49909 -2.489663 0.2515553
53.63168 -2.447182 -0.4186862
38.45252 -2.396934 -0.6354902